G04 #@! TF.FileFunction,Soldermask,Top*
%FSLAX46Y46*%
G04 Gerber Fmt 4.6, Leading zero omitted, Abs format (unit mm)*
G04 Created by KiCad (PCBNEW 4.0.5+dfsg1-4) date Sat May  5 18:48:22 2018*
%MOMM*%
%LPD*%
G01*
G04 APERTURE LIST*
%ADD10C,0.100000*%
%ADD11R,1.900000X1.900000*%
%ADD12O,1.900000X1.900000*%
%ADD13R,1.000000X1.000000*%
G04 APERTURE END LIST*
D10*
D11*
X197104000Y-135382000D03*
D12*
X199644000Y-135382000D03*
X202184000Y-135382000D03*
X204724000Y-135382000D03*
D11*
X179578000Y-135382000D03*
D12*
X182118000Y-135382000D03*
X184658000Y-135382000D03*
X187198000Y-135382000D03*
D11*
X144526000Y-135382000D03*
D12*
X147066000Y-135382000D03*
X149606000Y-135382000D03*
X152146000Y-135382000D03*
D11*
X162052000Y-135382000D03*
D12*
X164592000Y-135382000D03*
X167132000Y-135382000D03*
X169672000Y-135382000D03*
D13*
X184023000Y-129121000D03*
X184023000Y-130721000D03*
X188214000Y-129121000D03*
X188214000Y-130721000D03*
X182626000Y-129121000D03*
X182626000Y-130721000D03*
X185420000Y-129121000D03*
X185420000Y-130721000D03*
X186817000Y-129121000D03*
X186817000Y-130721000D03*
X205740000Y-129121000D03*
X205740000Y-130721000D03*
X204343000Y-129121000D03*
X204343000Y-130721000D03*
X202946000Y-129121000D03*
X202946000Y-130721000D03*
X201549000Y-129121000D03*
X201549000Y-130721000D03*
X200152000Y-129121000D03*
X200152000Y-130721000D03*
X197358000Y-129121000D03*
X197358000Y-130721000D03*
X198755000Y-129121000D03*
X198755000Y-130721000D03*
X195961000Y-129121000D03*
X195961000Y-130721000D03*
X178435000Y-129121000D03*
X178435000Y-130721000D03*
X181229000Y-129121000D03*
X181229000Y-130721000D03*
X179832000Y-129121000D03*
X179832000Y-130721000D03*
X170688000Y-129121000D03*
X170688000Y-130721000D03*
X147574000Y-129121000D03*
X147574000Y-130721000D03*
X153162000Y-129121000D03*
X153162000Y-130721000D03*
X151765000Y-129121000D03*
X151765000Y-130721000D03*
X150368000Y-129121000D03*
X150368000Y-130721000D03*
X148971000Y-129121000D03*
X148971000Y-130721000D03*
X144780000Y-129121000D03*
X144780000Y-130721000D03*
X143383000Y-129121000D03*
X143383000Y-130721000D03*
X146177000Y-129121000D03*
X146177000Y-130721000D03*
X166497000Y-129121000D03*
X166497000Y-130721000D03*
X169291000Y-129121000D03*
X169291000Y-130721000D03*
X167894000Y-129121000D03*
X167894000Y-130721000D03*
X165100000Y-129121000D03*
X165100000Y-130721000D03*
X160909000Y-129121000D03*
X160909000Y-130721000D03*
X162306000Y-129121000D03*
X162306000Y-130721000D03*
X163703000Y-129121000D03*
X163703000Y-130721000D03*
D11*
X179578000Y-118110000D03*
D12*
X182118000Y-118110000D03*
X184658000Y-118110000D03*
X187198000Y-118110000D03*
D11*
X197104000Y-118110000D03*
D12*
X199644000Y-118110000D03*
X202184000Y-118110000D03*
X204724000Y-118110000D03*
D13*
X195961000Y-111849000D03*
X195961000Y-113449000D03*
X197358000Y-111849000D03*
X197358000Y-113449000D03*
X198755000Y-111849000D03*
X198755000Y-113449000D03*
X188214000Y-111849000D03*
X188214000Y-113449000D03*
X185420000Y-111849000D03*
X185420000Y-113449000D03*
X186817000Y-111849000D03*
X186817000Y-113449000D03*
X184023000Y-111849000D03*
X184023000Y-113449000D03*
X182626000Y-111849000D03*
X182626000Y-113449000D03*
X181229000Y-111849000D03*
X181229000Y-113449000D03*
X178435000Y-111849000D03*
X178435000Y-113449000D03*
X179832000Y-111849000D03*
X179832000Y-113449000D03*
X204343000Y-111849000D03*
X204343000Y-113449000D03*
X205740000Y-111849000D03*
X205740000Y-113449000D03*
X201549000Y-111849000D03*
X201549000Y-113449000D03*
X200152000Y-111849000D03*
X200152000Y-113449000D03*
X202946000Y-111849000D03*
X202946000Y-113449000D03*
D11*
X162052000Y-118110000D03*
D12*
X164592000Y-118110000D03*
X167132000Y-118110000D03*
X169672000Y-118110000D03*
D13*
X162306000Y-111849000D03*
X162306000Y-113449000D03*
X160909000Y-111849000D03*
X160909000Y-113449000D03*
X163703000Y-111849000D03*
X163703000Y-113449000D03*
X170688000Y-111849000D03*
X170688000Y-113449000D03*
X166497000Y-111849000D03*
X166497000Y-113449000D03*
X167894000Y-111849000D03*
X167894000Y-113449000D03*
X169291000Y-111849000D03*
X169291000Y-113449000D03*
X165100000Y-111849000D03*
X165100000Y-113449000D03*
X143383000Y-111849000D03*
X143383000Y-113449000D03*
X144780000Y-111849000D03*
X144780000Y-113449000D03*
X146177000Y-111849000D03*
X146177000Y-113449000D03*
X147574000Y-111849000D03*
X147574000Y-113449000D03*
X148971000Y-111849000D03*
X148971000Y-113449000D03*
X150368000Y-111849000D03*
X150368000Y-113449000D03*
X151765000Y-111849000D03*
X151765000Y-113449000D03*
X153162000Y-111849000D03*
X153162000Y-113449000D03*
D11*
X144526000Y-118110000D03*
D12*
X147066000Y-118110000D03*
X149606000Y-118110000D03*
X152146000Y-118110000D03*
M02*
