G04 #@! TF.FileFunction,Profile,NP*
%FSLAX46Y46*%
G04 Gerber Fmt 4.6, Leading zero omitted, Abs format (unit mm)*
G04 Created by KiCad (PCBNEW 4.0.5+dfsg1-4) date Sat May  5 18:48:22 2018*
%MOMM*%
%LPD*%
G01*
G04 APERTURE LIST*
%ADD10C,0.100000*%
%ADD11C,0.150000*%
G04 APERTURE END LIST*
D10*
D11*
X132842000Y-144780000D02*
X215900000Y-144780000D01*
X132842000Y-97790000D02*
X132842000Y-144780000D01*
X215900000Y-98044000D02*
X132842000Y-97790000D01*
X215900000Y-144780000D02*
X215900000Y-98044000D01*
X210820000Y-113792000D02*
X210820000Y-128524000D01*
X210820000Y-102616000D02*
X210820000Y-111252000D01*
X201930000Y-102616000D02*
X210820000Y-102616000D01*
X184404000Y-102616000D02*
X199390000Y-102616000D01*
X166878000Y-102616000D02*
X181864000Y-102616000D01*
X149352000Y-102616000D02*
X164338000Y-102616000D01*
X146812000Y-102616000D02*
X138176000Y-102616000D01*
X138176000Y-111252000D02*
X138176000Y-102616000D01*
X138176000Y-128524000D02*
X138176000Y-113792000D01*
X138176000Y-139700000D02*
X138176000Y-131064000D01*
X146812000Y-139700000D02*
X138176000Y-139700000D01*
X164338000Y-139700000D02*
X149352000Y-139700000D01*
X181864000Y-139700000D02*
X166878000Y-139700000D01*
X199390000Y-139700000D02*
X184404000Y-139700000D01*
X210820000Y-139700000D02*
X201930000Y-139700000D01*
X210820000Y-131064000D02*
X210820000Y-139700000D01*
X193294000Y-122428000D02*
X193294000Y-128524000D01*
X190754000Y-122428000D02*
X184404000Y-122428000D01*
X190754000Y-122428000D02*
X190754000Y-128524000D01*
X208280000Y-122428000D02*
X208280000Y-128524000D01*
X199390000Y-122428000D02*
X193294000Y-122428000D01*
X208280000Y-122428000D02*
X201930000Y-122428000D01*
X208280000Y-137160000D02*
X201930000Y-137160000D01*
X208280000Y-131064000D02*
X208280000Y-137160000D01*
X190754000Y-131064000D02*
X190754000Y-137160000D01*
X199390000Y-137160000D02*
X193294000Y-137160000D01*
X190754000Y-137160000D02*
X184404000Y-137160000D01*
X193294000Y-131064000D02*
X193294000Y-137160000D01*
X181864000Y-137160000D02*
X175768000Y-137160000D01*
X175768000Y-131064000D02*
X175768000Y-137160000D01*
X173228000Y-131064000D02*
X173228000Y-137160000D01*
X173228000Y-137160000D02*
X166878000Y-137160000D01*
X164338000Y-137160000D02*
X158242000Y-137160000D01*
X175768000Y-122428000D02*
X175768000Y-128524000D01*
X181864000Y-122428000D02*
X175768000Y-122428000D01*
X173228000Y-122428000D02*
X173228000Y-128524000D01*
X173228000Y-122428000D02*
X166878000Y-122428000D01*
X164338000Y-122428000D02*
X158242000Y-122428000D01*
X158242000Y-122428000D02*
X158242000Y-128524000D01*
X146812000Y-137160000D02*
X140716000Y-137160000D01*
X140716000Y-131064000D02*
X140716000Y-137160000D01*
X146812000Y-122428000D02*
X140716000Y-122428000D01*
X140716000Y-122428000D02*
X140716000Y-128524000D01*
X158242000Y-131064000D02*
X158242000Y-137160000D01*
X155702000Y-137160000D02*
X149352000Y-137160000D01*
X155702000Y-131064000D02*
X155702000Y-137160000D01*
X155702000Y-122428000D02*
X155702000Y-128524000D01*
X155702000Y-122428000D02*
X149352000Y-122428000D01*
X193294000Y-113792000D02*
X193294000Y-119888000D01*
X199390000Y-119888000D02*
X193294000Y-119888000D01*
X190754000Y-113792000D02*
X190754000Y-119888000D01*
X190754000Y-119888000D02*
X184404000Y-119888000D01*
X208280000Y-113792000D02*
X208280000Y-119888000D01*
X208280000Y-119888000D02*
X201930000Y-119888000D01*
X208280000Y-105156000D02*
X201930000Y-105156000D01*
X208280000Y-105156000D02*
X208280000Y-111252000D01*
X175768000Y-105156000D02*
X175768000Y-111252000D01*
X181864000Y-105156000D02*
X175768000Y-105156000D01*
X175768000Y-113792000D02*
X175768000Y-119888000D01*
X181864000Y-119888000D02*
X175768000Y-119888000D01*
X199390000Y-105156000D02*
X193294000Y-105156000D01*
X193294000Y-105156000D02*
X193294000Y-111252000D01*
X190754000Y-105156000D02*
X190754000Y-111252000D01*
X190754000Y-105156000D02*
X184404000Y-105156000D01*
X164338000Y-119888000D02*
X158242000Y-119888000D01*
X158242000Y-113792000D02*
X158242000Y-119888000D01*
X173228000Y-113792000D02*
X173228000Y-119888000D01*
X173228000Y-119888000D02*
X166878000Y-119888000D01*
X173228000Y-105156000D02*
X166878000Y-105156000D01*
X164338000Y-105156000D02*
X158242000Y-105156000D01*
X158242000Y-105156000D02*
X158242000Y-111252000D01*
X173228000Y-105156000D02*
X173228000Y-111252000D01*
X155702000Y-105156000D02*
X149352000Y-105156000D01*
X146812000Y-105156000D02*
X140716000Y-105156000D01*
X140716000Y-113792000D02*
X140716000Y-119888000D01*
X140716000Y-105156000D02*
X140716000Y-111252000D01*
X155702000Y-105156000D02*
X155702000Y-111252000D01*
X155702000Y-119888000D02*
X149352000Y-119888000D01*
X155702000Y-113792000D02*
X155702000Y-119888000D01*
X146812000Y-119888000D02*
X140716000Y-119888000D01*
X184404000Y-137160000D02*
X184404000Y-139700000D01*
X181864000Y-139700000D02*
X181864000Y-137160000D01*
X190754000Y-128524000D02*
X193294000Y-128524000D01*
X193294000Y-131064000D02*
X190754000Y-131064000D01*
X201930000Y-137160000D02*
X201930000Y-139700000D01*
X199390000Y-139700000D02*
X199390000Y-137160000D01*
X208280000Y-128524000D02*
X210820000Y-128524000D01*
X210820000Y-131064000D02*
X208280000Y-131064000D01*
X201930000Y-119888000D02*
X201930000Y-122428000D01*
X199390000Y-122428000D02*
X199390000Y-119888000D01*
X173228000Y-128524000D02*
X175768000Y-128524000D01*
X175768000Y-131064000D02*
X173228000Y-131064000D01*
X155702000Y-128524000D02*
X158242000Y-128524000D01*
X158242000Y-131064000D02*
X155702000Y-131064000D01*
X149352000Y-137160000D02*
X149352000Y-139700000D01*
X146812000Y-139700000D02*
X146812000Y-137160000D01*
X138176000Y-128524000D02*
X140716000Y-128524000D01*
X140716000Y-131064000D02*
X138176000Y-131064000D01*
X166878000Y-137160000D02*
X166878000Y-139700000D01*
X164338000Y-139700000D02*
X164338000Y-137160000D01*
X201930000Y-102616000D02*
X201930000Y-105156000D01*
X199390000Y-105156000D02*
X199390000Y-102616000D01*
X190754000Y-111252000D02*
X193294000Y-111252000D01*
X193294000Y-113792000D02*
X190754000Y-113792000D01*
X184404000Y-119888000D02*
X184404000Y-122428000D01*
X181864000Y-122428000D02*
X181864000Y-119888000D01*
X184404000Y-102616000D02*
X184404000Y-105156000D01*
X181864000Y-105156000D02*
X181864000Y-102616000D01*
X208280000Y-111252000D02*
X210820000Y-111252000D01*
X210820000Y-113792000D02*
X208280000Y-113792000D01*
X166878000Y-102616000D02*
X166878000Y-105156000D01*
X164338000Y-105156000D02*
X164338000Y-102616000D01*
X173228000Y-111252000D02*
X175768000Y-111252000D01*
X175768000Y-113792000D02*
X173228000Y-113792000D01*
X166878000Y-119888000D02*
X166878000Y-122428000D01*
X164338000Y-122428000D02*
X164338000Y-119888000D01*
X149352000Y-102616000D02*
X149352000Y-105156000D01*
X146812000Y-105156000D02*
X146812000Y-102616000D01*
X138176000Y-111252000D02*
X140716000Y-111252000D01*
X140716000Y-113792000D02*
X138176000Y-113792000D01*
X155702000Y-111252000D02*
X158242000Y-111252000D01*
X158242000Y-113792000D02*
X155702000Y-113792000D01*
X149352000Y-119888000D02*
X149352000Y-122428000D01*
X146812000Y-122428000D02*
X146812000Y-119888000D01*
M02*
