G04 #@! TF.FileFunction,Legend,Top*
%FSLAX46Y46*%
G04 Gerber Fmt 4.6, Leading zero omitted, Abs format (unit mm)*
G04 Created by KiCad (PCBNEW 4.0.5+dfsg1-4) date Sat May  5 18:48:22 2018*
%MOMM*%
%LPD*%
G01*
G04 APERTURE LIST*
%ADD10C,0.100000*%
%ADD11C,0.300000*%
%ADD12C,0.150000*%
%ADD13C,0.200000*%
%ADD14C,0.120000*%
%ADD15C,0.010000*%
G04 APERTURE END LIST*
D10*
D11*
X197430000Y-125575143D02*
X197644286Y-125646571D01*
X198001429Y-125646571D01*
X198144286Y-125575143D01*
X198215715Y-125503714D01*
X198287143Y-125360857D01*
X198287143Y-125218000D01*
X198215715Y-125075143D01*
X198144286Y-125003714D01*
X198001429Y-124932286D01*
X197715715Y-124860857D01*
X197572857Y-124789429D01*
X197501429Y-124718000D01*
X197430000Y-124575143D01*
X197430000Y-124432286D01*
X197501429Y-124289429D01*
X197572857Y-124218000D01*
X197715715Y-124146571D01*
X198072857Y-124146571D01*
X198287143Y-124218000D01*
X198930000Y-125646571D02*
X198930000Y-124146571D01*
X199501428Y-124146571D01*
X199644286Y-124218000D01*
X199715714Y-124289429D01*
X199787143Y-124432286D01*
X199787143Y-124646571D01*
X199715714Y-124789429D01*
X199644286Y-124860857D01*
X199501428Y-124932286D01*
X198930000Y-124932286D01*
X200430000Y-125646571D02*
X200430000Y-124146571D01*
X201144286Y-125075143D02*
X202287143Y-125075143D01*
X203715715Y-125646571D02*
X203001429Y-125646571D01*
X203001429Y-124146571D01*
X204215715Y-124860857D02*
X204715715Y-124860857D01*
X204930001Y-125646571D02*
X204215715Y-125646571D01*
X204215715Y-124146571D01*
X204930001Y-124146571D01*
X205572858Y-125646571D02*
X205572858Y-124146571D01*
X205930001Y-124146571D01*
X206144286Y-124218000D01*
X206287144Y-124360857D01*
X206358572Y-124503714D01*
X206430001Y-124789429D01*
X206430001Y-125003714D01*
X206358572Y-125289429D01*
X206287144Y-125432286D01*
X206144286Y-125575143D01*
X205930001Y-125646571D01*
X205572858Y-125646571D01*
D12*
X205240000Y-128228286D02*
X204882857Y-128228286D01*
X204882857Y-127478286D01*
X205454286Y-128192571D02*
X205561429Y-128228286D01*
X205740000Y-128228286D01*
X205811429Y-128192571D01*
X205847143Y-128156857D01*
X205882858Y-128085429D01*
X205882858Y-128014000D01*
X205847143Y-127942571D01*
X205811429Y-127906857D01*
X205740000Y-127871143D01*
X205597143Y-127835429D01*
X205525715Y-127799714D01*
X205490000Y-127764000D01*
X205454286Y-127692571D01*
X205454286Y-127621143D01*
X205490000Y-127549714D01*
X205525715Y-127514000D01*
X205597143Y-127478286D01*
X205775715Y-127478286D01*
X205882858Y-127514000D01*
X206454286Y-127835429D02*
X206561429Y-127871143D01*
X206597144Y-127906857D01*
X206632858Y-127978286D01*
X206632858Y-128085429D01*
X206597144Y-128156857D01*
X206561429Y-128192571D01*
X206490001Y-128228286D01*
X206204286Y-128228286D01*
X206204286Y-127478286D01*
X206454286Y-127478286D01*
X206525715Y-127514000D01*
X206561429Y-127549714D01*
X206597144Y-127621143D01*
X206597144Y-127692571D01*
X206561429Y-127764000D01*
X206525715Y-127799714D01*
X206454286Y-127835429D01*
X206204286Y-127835429D01*
D13*
X207010000Y-127000000D02*
X194564000Y-127000000D01*
X194564000Y-131826000D02*
X207010000Y-131826000D01*
D12*
X194978857Y-128228286D02*
X194978857Y-127478286D01*
X195228857Y-128014000D01*
X195478857Y-127478286D01*
X195478857Y-128228286D01*
X195800286Y-128192571D02*
X195907429Y-128228286D01*
X196086000Y-128228286D01*
X196157429Y-128192571D01*
X196193143Y-128156857D01*
X196228858Y-128085429D01*
X196228858Y-128014000D01*
X196193143Y-127942571D01*
X196157429Y-127906857D01*
X196086000Y-127871143D01*
X195943143Y-127835429D01*
X195871715Y-127799714D01*
X195836000Y-127764000D01*
X195800286Y-127692571D01*
X195800286Y-127621143D01*
X195836000Y-127549714D01*
X195871715Y-127514000D01*
X195943143Y-127478286D01*
X196121715Y-127478286D01*
X196228858Y-127514000D01*
X196800286Y-127835429D02*
X196907429Y-127871143D01*
X196943144Y-127906857D01*
X196978858Y-127978286D01*
X196978858Y-128085429D01*
X196943144Y-128156857D01*
X196907429Y-128192571D01*
X196836001Y-128228286D01*
X196550286Y-128228286D01*
X196550286Y-127478286D01*
X196800286Y-127478286D01*
X196871715Y-127514000D01*
X196907429Y-127549714D01*
X196943144Y-127621143D01*
X196943144Y-127692571D01*
X196907429Y-127764000D01*
X196871715Y-127799714D01*
X196800286Y-127835429D01*
X196550286Y-127835429D01*
D13*
X194564000Y-127000000D02*
X194564000Y-131826000D01*
D12*
X196678286Y-134294571D02*
X197428286Y-134044571D01*
X196678286Y-133794571D01*
X197356857Y-133116000D02*
X197392571Y-133151714D01*
X197428286Y-133258857D01*
X197428286Y-133330286D01*
X197392571Y-133437429D01*
X197321143Y-133508857D01*
X197249714Y-133544572D01*
X197106857Y-133580286D01*
X196999714Y-133580286D01*
X196856857Y-133544572D01*
X196785429Y-133508857D01*
X196714000Y-133437429D01*
X196678286Y-133330286D01*
X196678286Y-133258857D01*
X196714000Y-133151714D01*
X196749714Y-133116000D01*
X197356857Y-132366000D02*
X197392571Y-132401714D01*
X197428286Y-132508857D01*
X197428286Y-132580286D01*
X197392571Y-132687429D01*
X197321143Y-132758857D01*
X197249714Y-132794572D01*
X197106857Y-132830286D01*
X196999714Y-132830286D01*
X196856857Y-132794572D01*
X196785429Y-132758857D01*
X196714000Y-132687429D01*
X196678286Y-132580286D01*
X196678286Y-132508857D01*
X196714000Y-132401714D01*
X196749714Y-132366000D01*
X199978286Y-134187429D02*
X199228286Y-134187429D01*
X199228286Y-134008857D01*
X199264000Y-133901714D01*
X199335429Y-133830286D01*
X199406857Y-133794571D01*
X199549714Y-133758857D01*
X199656857Y-133758857D01*
X199799714Y-133794571D01*
X199871143Y-133830286D01*
X199942571Y-133901714D01*
X199978286Y-134008857D01*
X199978286Y-134187429D01*
X199764000Y-133473143D02*
X199764000Y-133116000D01*
X199978286Y-133544571D02*
X199228286Y-133294571D01*
X199978286Y-133044571D01*
X202456857Y-133758857D02*
X202492571Y-133794571D01*
X202528286Y-133901714D01*
X202528286Y-133973143D01*
X202492571Y-134080286D01*
X202421143Y-134151714D01*
X202349714Y-134187429D01*
X202206857Y-134223143D01*
X202099714Y-134223143D01*
X201956857Y-134187429D01*
X201885429Y-134151714D01*
X201814000Y-134080286D01*
X201778286Y-133973143D01*
X201778286Y-133901714D01*
X201814000Y-133794571D01*
X201849714Y-133758857D01*
X202528286Y-133080286D02*
X202528286Y-133437429D01*
X201778286Y-133437429D01*
X202528286Y-132830286D02*
X201778286Y-132830286D01*
X202528286Y-132401714D02*
X202099714Y-132723143D01*
X201778286Y-132401714D02*
X202206857Y-132830286D01*
X204364000Y-133794571D02*
X204328286Y-133866000D01*
X204328286Y-133973143D01*
X204364000Y-134080286D01*
X204435429Y-134151714D01*
X204506857Y-134187429D01*
X204649714Y-134223143D01*
X204756857Y-134223143D01*
X204899714Y-134187429D01*
X204971143Y-134151714D01*
X205042571Y-134080286D01*
X205078286Y-133973143D01*
X205078286Y-133901714D01*
X205042571Y-133794571D01*
X205006857Y-133758857D01*
X204756857Y-133758857D01*
X204756857Y-133901714D01*
X205078286Y-133437429D02*
X204328286Y-133437429D01*
X205078286Y-133008857D01*
X204328286Y-133008857D01*
X205078286Y-132651715D02*
X204328286Y-132651715D01*
X204328286Y-132473143D01*
X204364000Y-132366000D01*
X204435429Y-132294572D01*
X204506857Y-132258857D01*
X204649714Y-132223143D01*
X204756857Y-132223143D01*
X204899714Y-132258857D01*
X204971143Y-132294572D01*
X205042571Y-132366000D01*
X205078286Y-132473143D01*
X205078286Y-132651715D01*
D13*
X207010000Y-131826000D02*
X207010000Y-127000000D01*
X171958000Y-131826000D02*
X171958000Y-127000000D01*
D12*
X170188000Y-128228286D02*
X169830857Y-128228286D01*
X169830857Y-127478286D01*
X170402286Y-128192571D02*
X170509429Y-128228286D01*
X170688000Y-128228286D01*
X170759429Y-128192571D01*
X170795143Y-128156857D01*
X170830858Y-128085429D01*
X170830858Y-128014000D01*
X170795143Y-127942571D01*
X170759429Y-127906857D01*
X170688000Y-127871143D01*
X170545143Y-127835429D01*
X170473715Y-127799714D01*
X170438000Y-127764000D01*
X170402286Y-127692571D01*
X170402286Y-127621143D01*
X170438000Y-127549714D01*
X170473715Y-127514000D01*
X170545143Y-127478286D01*
X170723715Y-127478286D01*
X170830858Y-127514000D01*
X171402286Y-127835429D02*
X171509429Y-127871143D01*
X171545144Y-127906857D01*
X171580858Y-127978286D01*
X171580858Y-128085429D01*
X171545144Y-128156857D01*
X171509429Y-128192571D01*
X171438001Y-128228286D01*
X171152286Y-128228286D01*
X171152286Y-127478286D01*
X171402286Y-127478286D01*
X171473715Y-127514000D01*
X171509429Y-127549714D01*
X171545144Y-127621143D01*
X171545144Y-127692571D01*
X171509429Y-127764000D01*
X171473715Y-127799714D01*
X171402286Y-127835429D01*
X171152286Y-127835429D01*
X161626286Y-134294571D02*
X162376286Y-134044571D01*
X161626286Y-133794571D01*
X162304857Y-133116000D02*
X162340571Y-133151714D01*
X162376286Y-133258857D01*
X162376286Y-133330286D01*
X162340571Y-133437429D01*
X162269143Y-133508857D01*
X162197714Y-133544572D01*
X162054857Y-133580286D01*
X161947714Y-133580286D01*
X161804857Y-133544572D01*
X161733429Y-133508857D01*
X161662000Y-133437429D01*
X161626286Y-133330286D01*
X161626286Y-133258857D01*
X161662000Y-133151714D01*
X161697714Y-133116000D01*
X162304857Y-132366000D02*
X162340571Y-132401714D01*
X162376286Y-132508857D01*
X162376286Y-132580286D01*
X162340571Y-132687429D01*
X162269143Y-132758857D01*
X162197714Y-132794572D01*
X162054857Y-132830286D01*
X161947714Y-132830286D01*
X161804857Y-132794572D01*
X161733429Y-132758857D01*
X161662000Y-132687429D01*
X161626286Y-132580286D01*
X161626286Y-132508857D01*
X161662000Y-132401714D01*
X161697714Y-132366000D01*
X164926286Y-134187429D02*
X164176286Y-134187429D01*
X164176286Y-134008857D01*
X164212000Y-133901714D01*
X164283429Y-133830286D01*
X164354857Y-133794571D01*
X164497714Y-133758857D01*
X164604857Y-133758857D01*
X164747714Y-133794571D01*
X164819143Y-133830286D01*
X164890571Y-133901714D01*
X164926286Y-134008857D01*
X164926286Y-134187429D01*
X164712000Y-133473143D02*
X164712000Y-133116000D01*
X164926286Y-133544571D02*
X164176286Y-133294571D01*
X164926286Y-133044571D01*
X167404857Y-133758857D02*
X167440571Y-133794571D01*
X167476286Y-133901714D01*
X167476286Y-133973143D01*
X167440571Y-134080286D01*
X167369143Y-134151714D01*
X167297714Y-134187429D01*
X167154857Y-134223143D01*
X167047714Y-134223143D01*
X166904857Y-134187429D01*
X166833429Y-134151714D01*
X166762000Y-134080286D01*
X166726286Y-133973143D01*
X166726286Y-133901714D01*
X166762000Y-133794571D01*
X166797714Y-133758857D01*
X167476286Y-133080286D02*
X167476286Y-133437429D01*
X166726286Y-133437429D01*
X167476286Y-132830286D02*
X166726286Y-132830286D01*
X167476286Y-132401714D02*
X167047714Y-132723143D01*
X166726286Y-132401714D02*
X167154857Y-132830286D01*
X169312000Y-133794571D02*
X169276286Y-133866000D01*
X169276286Y-133973143D01*
X169312000Y-134080286D01*
X169383429Y-134151714D01*
X169454857Y-134187429D01*
X169597714Y-134223143D01*
X169704857Y-134223143D01*
X169847714Y-134187429D01*
X169919143Y-134151714D01*
X169990571Y-134080286D01*
X170026286Y-133973143D01*
X170026286Y-133901714D01*
X169990571Y-133794571D01*
X169954857Y-133758857D01*
X169704857Y-133758857D01*
X169704857Y-133901714D01*
X170026286Y-133437429D02*
X169276286Y-133437429D01*
X170026286Y-133008857D01*
X169276286Y-133008857D01*
X170026286Y-132651715D02*
X169276286Y-132651715D01*
X169276286Y-132473143D01*
X169312000Y-132366000D01*
X169383429Y-132294572D01*
X169454857Y-132258857D01*
X169597714Y-132223143D01*
X169704857Y-132223143D01*
X169847714Y-132258857D01*
X169919143Y-132294572D01*
X169990571Y-132366000D01*
X170026286Y-132473143D01*
X170026286Y-132651715D01*
D13*
X171958000Y-127000000D02*
X159512000Y-127000000D01*
X159512000Y-131826000D02*
X171958000Y-131826000D01*
D11*
X162378000Y-125575143D02*
X162592286Y-125646571D01*
X162949429Y-125646571D01*
X163092286Y-125575143D01*
X163163715Y-125503714D01*
X163235143Y-125360857D01*
X163235143Y-125218000D01*
X163163715Y-125075143D01*
X163092286Y-125003714D01*
X162949429Y-124932286D01*
X162663715Y-124860857D01*
X162520857Y-124789429D01*
X162449429Y-124718000D01*
X162378000Y-124575143D01*
X162378000Y-124432286D01*
X162449429Y-124289429D01*
X162520857Y-124218000D01*
X162663715Y-124146571D01*
X163020857Y-124146571D01*
X163235143Y-124218000D01*
X163878000Y-125646571D02*
X163878000Y-124146571D01*
X164449428Y-124146571D01*
X164592286Y-124218000D01*
X164663714Y-124289429D01*
X164735143Y-124432286D01*
X164735143Y-124646571D01*
X164663714Y-124789429D01*
X164592286Y-124860857D01*
X164449428Y-124932286D01*
X163878000Y-124932286D01*
X165378000Y-125646571D02*
X165378000Y-124146571D01*
X166092286Y-125075143D02*
X167235143Y-125075143D01*
X168663715Y-125646571D02*
X167949429Y-125646571D01*
X167949429Y-124146571D01*
X169163715Y-124860857D02*
X169663715Y-124860857D01*
X169878001Y-125646571D02*
X169163715Y-125646571D01*
X169163715Y-124146571D01*
X169878001Y-124146571D01*
X170520858Y-125646571D02*
X170520858Y-124146571D01*
X170878001Y-124146571D01*
X171092286Y-124218000D01*
X171235144Y-124360857D01*
X171306572Y-124503714D01*
X171378001Y-124789429D01*
X171378001Y-125003714D01*
X171306572Y-125289429D01*
X171235144Y-125432286D01*
X171092286Y-125575143D01*
X170878001Y-125646571D01*
X170520858Y-125646571D01*
D12*
X159926857Y-128228286D02*
X159926857Y-127478286D01*
X160176857Y-128014000D01*
X160426857Y-127478286D01*
X160426857Y-128228286D01*
X160748286Y-128192571D02*
X160855429Y-128228286D01*
X161034000Y-128228286D01*
X161105429Y-128192571D01*
X161141143Y-128156857D01*
X161176858Y-128085429D01*
X161176858Y-128014000D01*
X161141143Y-127942571D01*
X161105429Y-127906857D01*
X161034000Y-127871143D01*
X160891143Y-127835429D01*
X160819715Y-127799714D01*
X160784000Y-127764000D01*
X160748286Y-127692571D01*
X160748286Y-127621143D01*
X160784000Y-127549714D01*
X160819715Y-127514000D01*
X160891143Y-127478286D01*
X161069715Y-127478286D01*
X161176858Y-127514000D01*
X161748286Y-127835429D02*
X161855429Y-127871143D01*
X161891144Y-127906857D01*
X161926858Y-127978286D01*
X161926858Y-128085429D01*
X161891144Y-128156857D01*
X161855429Y-128192571D01*
X161784001Y-128228286D01*
X161498286Y-128228286D01*
X161498286Y-127478286D01*
X161748286Y-127478286D01*
X161819715Y-127514000D01*
X161855429Y-127549714D01*
X161891144Y-127621143D01*
X161891144Y-127692571D01*
X161855429Y-127764000D01*
X161819715Y-127799714D01*
X161748286Y-127835429D01*
X161498286Y-127835429D01*
D13*
X159512000Y-127000000D02*
X159512000Y-131826000D01*
D12*
X152662000Y-128228286D02*
X152304857Y-128228286D01*
X152304857Y-127478286D01*
X152876286Y-128192571D02*
X152983429Y-128228286D01*
X153162000Y-128228286D01*
X153233429Y-128192571D01*
X153269143Y-128156857D01*
X153304858Y-128085429D01*
X153304858Y-128014000D01*
X153269143Y-127942571D01*
X153233429Y-127906857D01*
X153162000Y-127871143D01*
X153019143Y-127835429D01*
X152947715Y-127799714D01*
X152912000Y-127764000D01*
X152876286Y-127692571D01*
X152876286Y-127621143D01*
X152912000Y-127549714D01*
X152947715Y-127514000D01*
X153019143Y-127478286D01*
X153197715Y-127478286D01*
X153304858Y-127514000D01*
X153876286Y-127835429D02*
X153983429Y-127871143D01*
X154019144Y-127906857D01*
X154054858Y-127978286D01*
X154054858Y-128085429D01*
X154019144Y-128156857D01*
X153983429Y-128192571D01*
X153912001Y-128228286D01*
X153626286Y-128228286D01*
X153626286Y-127478286D01*
X153876286Y-127478286D01*
X153947715Y-127514000D01*
X153983429Y-127549714D01*
X154019144Y-127621143D01*
X154019144Y-127692571D01*
X153983429Y-127764000D01*
X153947715Y-127799714D01*
X153876286Y-127835429D01*
X153626286Y-127835429D01*
D13*
X154432000Y-127000000D02*
X141986000Y-127000000D01*
D12*
X142400857Y-128228286D02*
X142400857Y-127478286D01*
X142650857Y-128014000D01*
X142900857Y-127478286D01*
X142900857Y-128228286D01*
X143222286Y-128192571D02*
X143329429Y-128228286D01*
X143508000Y-128228286D01*
X143579429Y-128192571D01*
X143615143Y-128156857D01*
X143650858Y-128085429D01*
X143650858Y-128014000D01*
X143615143Y-127942571D01*
X143579429Y-127906857D01*
X143508000Y-127871143D01*
X143365143Y-127835429D01*
X143293715Y-127799714D01*
X143258000Y-127764000D01*
X143222286Y-127692571D01*
X143222286Y-127621143D01*
X143258000Y-127549714D01*
X143293715Y-127514000D01*
X143365143Y-127478286D01*
X143543715Y-127478286D01*
X143650858Y-127514000D01*
X144222286Y-127835429D02*
X144329429Y-127871143D01*
X144365144Y-127906857D01*
X144400858Y-127978286D01*
X144400858Y-128085429D01*
X144365144Y-128156857D01*
X144329429Y-128192571D01*
X144258001Y-128228286D01*
X143972286Y-128228286D01*
X143972286Y-127478286D01*
X144222286Y-127478286D01*
X144293715Y-127514000D01*
X144329429Y-127549714D01*
X144365144Y-127621143D01*
X144365144Y-127692571D01*
X144329429Y-127764000D01*
X144293715Y-127799714D01*
X144222286Y-127835429D01*
X143972286Y-127835429D01*
D13*
X141986000Y-127000000D02*
X141986000Y-131826000D01*
D11*
X144852000Y-125575143D02*
X145066286Y-125646571D01*
X145423429Y-125646571D01*
X145566286Y-125575143D01*
X145637715Y-125503714D01*
X145709143Y-125360857D01*
X145709143Y-125218000D01*
X145637715Y-125075143D01*
X145566286Y-125003714D01*
X145423429Y-124932286D01*
X145137715Y-124860857D01*
X144994857Y-124789429D01*
X144923429Y-124718000D01*
X144852000Y-124575143D01*
X144852000Y-124432286D01*
X144923429Y-124289429D01*
X144994857Y-124218000D01*
X145137715Y-124146571D01*
X145494857Y-124146571D01*
X145709143Y-124218000D01*
X146352000Y-125646571D02*
X146352000Y-124146571D01*
X146923428Y-124146571D01*
X147066286Y-124218000D01*
X147137714Y-124289429D01*
X147209143Y-124432286D01*
X147209143Y-124646571D01*
X147137714Y-124789429D01*
X147066286Y-124860857D01*
X146923428Y-124932286D01*
X146352000Y-124932286D01*
X147852000Y-125646571D02*
X147852000Y-124146571D01*
X148566286Y-125075143D02*
X149709143Y-125075143D01*
X151137715Y-125646571D02*
X150423429Y-125646571D01*
X150423429Y-124146571D01*
X151637715Y-124860857D02*
X152137715Y-124860857D01*
X152352001Y-125646571D02*
X151637715Y-125646571D01*
X151637715Y-124146571D01*
X152352001Y-124146571D01*
X152994858Y-125646571D02*
X152994858Y-124146571D01*
X153352001Y-124146571D01*
X153566286Y-124218000D01*
X153709144Y-124360857D01*
X153780572Y-124503714D01*
X153852001Y-124789429D01*
X153852001Y-125003714D01*
X153780572Y-125289429D01*
X153709144Y-125432286D01*
X153566286Y-125575143D01*
X153352001Y-125646571D01*
X152994858Y-125646571D01*
D13*
X154432000Y-131826000D02*
X154432000Y-127000000D01*
X141986000Y-131826000D02*
X154432000Y-131826000D01*
D12*
X144100286Y-134294571D02*
X144850286Y-134044571D01*
X144100286Y-133794571D01*
X144778857Y-133116000D02*
X144814571Y-133151714D01*
X144850286Y-133258857D01*
X144850286Y-133330286D01*
X144814571Y-133437429D01*
X144743143Y-133508857D01*
X144671714Y-133544572D01*
X144528857Y-133580286D01*
X144421714Y-133580286D01*
X144278857Y-133544572D01*
X144207429Y-133508857D01*
X144136000Y-133437429D01*
X144100286Y-133330286D01*
X144100286Y-133258857D01*
X144136000Y-133151714D01*
X144171714Y-133116000D01*
X144778857Y-132366000D02*
X144814571Y-132401714D01*
X144850286Y-132508857D01*
X144850286Y-132580286D01*
X144814571Y-132687429D01*
X144743143Y-132758857D01*
X144671714Y-132794572D01*
X144528857Y-132830286D01*
X144421714Y-132830286D01*
X144278857Y-132794572D01*
X144207429Y-132758857D01*
X144136000Y-132687429D01*
X144100286Y-132580286D01*
X144100286Y-132508857D01*
X144136000Y-132401714D01*
X144171714Y-132366000D01*
X147400286Y-134187429D02*
X146650286Y-134187429D01*
X146650286Y-134008857D01*
X146686000Y-133901714D01*
X146757429Y-133830286D01*
X146828857Y-133794571D01*
X146971714Y-133758857D01*
X147078857Y-133758857D01*
X147221714Y-133794571D01*
X147293143Y-133830286D01*
X147364571Y-133901714D01*
X147400286Y-134008857D01*
X147400286Y-134187429D01*
X147186000Y-133473143D02*
X147186000Y-133116000D01*
X147400286Y-133544571D02*
X146650286Y-133294571D01*
X147400286Y-133044571D01*
X149878857Y-133758857D02*
X149914571Y-133794571D01*
X149950286Y-133901714D01*
X149950286Y-133973143D01*
X149914571Y-134080286D01*
X149843143Y-134151714D01*
X149771714Y-134187429D01*
X149628857Y-134223143D01*
X149521714Y-134223143D01*
X149378857Y-134187429D01*
X149307429Y-134151714D01*
X149236000Y-134080286D01*
X149200286Y-133973143D01*
X149200286Y-133901714D01*
X149236000Y-133794571D01*
X149271714Y-133758857D01*
X149950286Y-133080286D02*
X149950286Y-133437429D01*
X149200286Y-133437429D01*
X149950286Y-132830286D02*
X149200286Y-132830286D01*
X149950286Y-132401714D02*
X149521714Y-132723143D01*
X149200286Y-132401714D02*
X149628857Y-132830286D01*
X151786000Y-133794571D02*
X151750286Y-133866000D01*
X151750286Y-133973143D01*
X151786000Y-134080286D01*
X151857429Y-134151714D01*
X151928857Y-134187429D01*
X152071714Y-134223143D01*
X152178857Y-134223143D01*
X152321714Y-134187429D01*
X152393143Y-134151714D01*
X152464571Y-134080286D01*
X152500286Y-133973143D01*
X152500286Y-133901714D01*
X152464571Y-133794571D01*
X152428857Y-133758857D01*
X152178857Y-133758857D01*
X152178857Y-133901714D01*
X152500286Y-133437429D02*
X151750286Y-133437429D01*
X152500286Y-133008857D01*
X151750286Y-133008857D01*
X152500286Y-132651715D02*
X151750286Y-132651715D01*
X151750286Y-132473143D01*
X151786000Y-132366000D01*
X151857429Y-132294572D01*
X151928857Y-132258857D01*
X152071714Y-132223143D01*
X152178857Y-132223143D01*
X152321714Y-132258857D01*
X152393143Y-132294572D01*
X152464571Y-132366000D01*
X152500286Y-132473143D01*
X152500286Y-132651715D01*
X177452857Y-128228286D02*
X177452857Y-127478286D01*
X177702857Y-128014000D01*
X177952857Y-127478286D01*
X177952857Y-128228286D01*
X178274286Y-128192571D02*
X178381429Y-128228286D01*
X178560000Y-128228286D01*
X178631429Y-128192571D01*
X178667143Y-128156857D01*
X178702858Y-128085429D01*
X178702858Y-128014000D01*
X178667143Y-127942571D01*
X178631429Y-127906857D01*
X178560000Y-127871143D01*
X178417143Y-127835429D01*
X178345715Y-127799714D01*
X178310000Y-127764000D01*
X178274286Y-127692571D01*
X178274286Y-127621143D01*
X178310000Y-127549714D01*
X178345715Y-127514000D01*
X178417143Y-127478286D01*
X178595715Y-127478286D01*
X178702858Y-127514000D01*
X179274286Y-127835429D02*
X179381429Y-127871143D01*
X179417144Y-127906857D01*
X179452858Y-127978286D01*
X179452858Y-128085429D01*
X179417144Y-128156857D01*
X179381429Y-128192571D01*
X179310001Y-128228286D01*
X179024286Y-128228286D01*
X179024286Y-127478286D01*
X179274286Y-127478286D01*
X179345715Y-127514000D01*
X179381429Y-127549714D01*
X179417144Y-127621143D01*
X179417144Y-127692571D01*
X179381429Y-127764000D01*
X179345715Y-127799714D01*
X179274286Y-127835429D01*
X179024286Y-127835429D01*
D13*
X177038000Y-127000000D02*
X177038000Y-131826000D01*
X189484000Y-131826000D02*
X189484000Y-127000000D01*
D11*
X179904000Y-125575143D02*
X180118286Y-125646571D01*
X180475429Y-125646571D01*
X180618286Y-125575143D01*
X180689715Y-125503714D01*
X180761143Y-125360857D01*
X180761143Y-125218000D01*
X180689715Y-125075143D01*
X180618286Y-125003714D01*
X180475429Y-124932286D01*
X180189715Y-124860857D01*
X180046857Y-124789429D01*
X179975429Y-124718000D01*
X179904000Y-124575143D01*
X179904000Y-124432286D01*
X179975429Y-124289429D01*
X180046857Y-124218000D01*
X180189715Y-124146571D01*
X180546857Y-124146571D01*
X180761143Y-124218000D01*
X181404000Y-125646571D02*
X181404000Y-124146571D01*
X181975428Y-124146571D01*
X182118286Y-124218000D01*
X182189714Y-124289429D01*
X182261143Y-124432286D01*
X182261143Y-124646571D01*
X182189714Y-124789429D01*
X182118286Y-124860857D01*
X181975428Y-124932286D01*
X181404000Y-124932286D01*
X182904000Y-125646571D02*
X182904000Y-124146571D01*
X183618286Y-125075143D02*
X184761143Y-125075143D01*
X186189715Y-125646571D02*
X185475429Y-125646571D01*
X185475429Y-124146571D01*
X186689715Y-124860857D02*
X187189715Y-124860857D01*
X187404001Y-125646571D02*
X186689715Y-125646571D01*
X186689715Y-124146571D01*
X187404001Y-124146571D01*
X188046858Y-125646571D02*
X188046858Y-124146571D01*
X188404001Y-124146571D01*
X188618286Y-124218000D01*
X188761144Y-124360857D01*
X188832572Y-124503714D01*
X188904001Y-124789429D01*
X188904001Y-125003714D01*
X188832572Y-125289429D01*
X188761144Y-125432286D01*
X188618286Y-125575143D01*
X188404001Y-125646571D01*
X188046858Y-125646571D01*
D13*
X177038000Y-131826000D02*
X189484000Y-131826000D01*
D12*
X187714000Y-128228286D02*
X187356857Y-128228286D01*
X187356857Y-127478286D01*
X187928286Y-128192571D02*
X188035429Y-128228286D01*
X188214000Y-128228286D01*
X188285429Y-128192571D01*
X188321143Y-128156857D01*
X188356858Y-128085429D01*
X188356858Y-128014000D01*
X188321143Y-127942571D01*
X188285429Y-127906857D01*
X188214000Y-127871143D01*
X188071143Y-127835429D01*
X187999715Y-127799714D01*
X187964000Y-127764000D01*
X187928286Y-127692571D01*
X187928286Y-127621143D01*
X187964000Y-127549714D01*
X187999715Y-127514000D01*
X188071143Y-127478286D01*
X188249715Y-127478286D01*
X188356858Y-127514000D01*
X188928286Y-127835429D02*
X189035429Y-127871143D01*
X189071144Y-127906857D01*
X189106858Y-127978286D01*
X189106858Y-128085429D01*
X189071144Y-128156857D01*
X189035429Y-128192571D01*
X188964001Y-128228286D01*
X188678286Y-128228286D01*
X188678286Y-127478286D01*
X188928286Y-127478286D01*
X188999715Y-127514000D01*
X189035429Y-127549714D01*
X189071144Y-127621143D01*
X189071144Y-127692571D01*
X189035429Y-127764000D01*
X188999715Y-127799714D01*
X188928286Y-127835429D01*
X188678286Y-127835429D01*
D13*
X189484000Y-127000000D02*
X177038000Y-127000000D01*
D12*
X179152286Y-134294571D02*
X179902286Y-134044571D01*
X179152286Y-133794571D01*
X179830857Y-133116000D02*
X179866571Y-133151714D01*
X179902286Y-133258857D01*
X179902286Y-133330286D01*
X179866571Y-133437429D01*
X179795143Y-133508857D01*
X179723714Y-133544572D01*
X179580857Y-133580286D01*
X179473714Y-133580286D01*
X179330857Y-133544572D01*
X179259429Y-133508857D01*
X179188000Y-133437429D01*
X179152286Y-133330286D01*
X179152286Y-133258857D01*
X179188000Y-133151714D01*
X179223714Y-133116000D01*
X179830857Y-132366000D02*
X179866571Y-132401714D01*
X179902286Y-132508857D01*
X179902286Y-132580286D01*
X179866571Y-132687429D01*
X179795143Y-132758857D01*
X179723714Y-132794572D01*
X179580857Y-132830286D01*
X179473714Y-132830286D01*
X179330857Y-132794572D01*
X179259429Y-132758857D01*
X179188000Y-132687429D01*
X179152286Y-132580286D01*
X179152286Y-132508857D01*
X179188000Y-132401714D01*
X179223714Y-132366000D01*
X182452286Y-134187429D02*
X181702286Y-134187429D01*
X181702286Y-134008857D01*
X181738000Y-133901714D01*
X181809429Y-133830286D01*
X181880857Y-133794571D01*
X182023714Y-133758857D01*
X182130857Y-133758857D01*
X182273714Y-133794571D01*
X182345143Y-133830286D01*
X182416571Y-133901714D01*
X182452286Y-134008857D01*
X182452286Y-134187429D01*
X182238000Y-133473143D02*
X182238000Y-133116000D01*
X182452286Y-133544571D02*
X181702286Y-133294571D01*
X182452286Y-133044571D01*
X184930857Y-133758857D02*
X184966571Y-133794571D01*
X185002286Y-133901714D01*
X185002286Y-133973143D01*
X184966571Y-134080286D01*
X184895143Y-134151714D01*
X184823714Y-134187429D01*
X184680857Y-134223143D01*
X184573714Y-134223143D01*
X184430857Y-134187429D01*
X184359429Y-134151714D01*
X184288000Y-134080286D01*
X184252286Y-133973143D01*
X184252286Y-133901714D01*
X184288000Y-133794571D01*
X184323714Y-133758857D01*
X185002286Y-133080286D02*
X185002286Y-133437429D01*
X184252286Y-133437429D01*
X185002286Y-132830286D02*
X184252286Y-132830286D01*
X185002286Y-132401714D02*
X184573714Y-132723143D01*
X184252286Y-132401714D02*
X184680857Y-132830286D01*
X186838000Y-133794571D02*
X186802286Y-133866000D01*
X186802286Y-133973143D01*
X186838000Y-134080286D01*
X186909429Y-134151714D01*
X186980857Y-134187429D01*
X187123714Y-134223143D01*
X187230857Y-134223143D01*
X187373714Y-134187429D01*
X187445143Y-134151714D01*
X187516571Y-134080286D01*
X187552286Y-133973143D01*
X187552286Y-133901714D01*
X187516571Y-133794571D01*
X187480857Y-133758857D01*
X187230857Y-133758857D01*
X187230857Y-133901714D01*
X187552286Y-133437429D02*
X186802286Y-133437429D01*
X187552286Y-133008857D01*
X186802286Y-133008857D01*
X187552286Y-132651715D02*
X186802286Y-132651715D01*
X186802286Y-132473143D01*
X186838000Y-132366000D01*
X186909429Y-132294572D01*
X186980857Y-132258857D01*
X187123714Y-132223143D01*
X187230857Y-132223143D01*
X187373714Y-132258857D01*
X187445143Y-132294572D01*
X187516571Y-132366000D01*
X187552286Y-132473143D01*
X187552286Y-132651715D01*
D13*
X177038000Y-109728000D02*
X177038000Y-114554000D01*
D11*
X179904000Y-108303143D02*
X180118286Y-108374571D01*
X180475429Y-108374571D01*
X180618286Y-108303143D01*
X180689715Y-108231714D01*
X180761143Y-108088857D01*
X180761143Y-107946000D01*
X180689715Y-107803143D01*
X180618286Y-107731714D01*
X180475429Y-107660286D01*
X180189715Y-107588857D01*
X180046857Y-107517429D01*
X179975429Y-107446000D01*
X179904000Y-107303143D01*
X179904000Y-107160286D01*
X179975429Y-107017429D01*
X180046857Y-106946000D01*
X180189715Y-106874571D01*
X180546857Y-106874571D01*
X180761143Y-106946000D01*
X181404000Y-108374571D02*
X181404000Y-106874571D01*
X181975428Y-106874571D01*
X182118286Y-106946000D01*
X182189714Y-107017429D01*
X182261143Y-107160286D01*
X182261143Y-107374571D01*
X182189714Y-107517429D01*
X182118286Y-107588857D01*
X181975428Y-107660286D01*
X181404000Y-107660286D01*
X182904000Y-108374571D02*
X182904000Y-106874571D01*
X183618286Y-107803143D02*
X184761143Y-107803143D01*
X186189715Y-108374571D02*
X185475429Y-108374571D01*
X185475429Y-106874571D01*
X186689715Y-107588857D02*
X187189715Y-107588857D01*
X187404001Y-108374571D02*
X186689715Y-108374571D01*
X186689715Y-106874571D01*
X187404001Y-106874571D01*
X188046858Y-108374571D02*
X188046858Y-106874571D01*
X188404001Y-106874571D01*
X188618286Y-106946000D01*
X188761144Y-107088857D01*
X188832572Y-107231714D01*
X188904001Y-107517429D01*
X188904001Y-107731714D01*
X188832572Y-108017429D01*
X188761144Y-108160286D01*
X188618286Y-108303143D01*
X188404001Y-108374571D01*
X188046858Y-108374571D01*
D13*
X189484000Y-109728000D02*
X177038000Y-109728000D01*
D12*
X177452857Y-110956286D02*
X177452857Y-110206286D01*
X177702857Y-110742000D01*
X177952857Y-110206286D01*
X177952857Y-110956286D01*
X178274286Y-110920571D02*
X178381429Y-110956286D01*
X178560000Y-110956286D01*
X178631429Y-110920571D01*
X178667143Y-110884857D01*
X178702858Y-110813429D01*
X178702858Y-110742000D01*
X178667143Y-110670571D01*
X178631429Y-110634857D01*
X178560000Y-110599143D01*
X178417143Y-110563429D01*
X178345715Y-110527714D01*
X178310000Y-110492000D01*
X178274286Y-110420571D01*
X178274286Y-110349143D01*
X178310000Y-110277714D01*
X178345715Y-110242000D01*
X178417143Y-110206286D01*
X178595715Y-110206286D01*
X178702858Y-110242000D01*
X179274286Y-110563429D02*
X179381429Y-110599143D01*
X179417144Y-110634857D01*
X179452858Y-110706286D01*
X179452858Y-110813429D01*
X179417144Y-110884857D01*
X179381429Y-110920571D01*
X179310001Y-110956286D01*
X179024286Y-110956286D01*
X179024286Y-110206286D01*
X179274286Y-110206286D01*
X179345715Y-110242000D01*
X179381429Y-110277714D01*
X179417144Y-110349143D01*
X179417144Y-110420571D01*
X179381429Y-110492000D01*
X179345715Y-110527714D01*
X179274286Y-110563429D01*
X179024286Y-110563429D01*
X179152286Y-117022571D02*
X179902286Y-116772571D01*
X179152286Y-116522571D01*
X179830857Y-115844000D02*
X179866571Y-115879714D01*
X179902286Y-115986857D01*
X179902286Y-116058286D01*
X179866571Y-116165429D01*
X179795143Y-116236857D01*
X179723714Y-116272572D01*
X179580857Y-116308286D01*
X179473714Y-116308286D01*
X179330857Y-116272572D01*
X179259429Y-116236857D01*
X179188000Y-116165429D01*
X179152286Y-116058286D01*
X179152286Y-115986857D01*
X179188000Y-115879714D01*
X179223714Y-115844000D01*
X179830857Y-115094000D02*
X179866571Y-115129714D01*
X179902286Y-115236857D01*
X179902286Y-115308286D01*
X179866571Y-115415429D01*
X179795143Y-115486857D01*
X179723714Y-115522572D01*
X179580857Y-115558286D01*
X179473714Y-115558286D01*
X179330857Y-115522572D01*
X179259429Y-115486857D01*
X179188000Y-115415429D01*
X179152286Y-115308286D01*
X179152286Y-115236857D01*
X179188000Y-115129714D01*
X179223714Y-115094000D01*
X182452286Y-116915429D02*
X181702286Y-116915429D01*
X181702286Y-116736857D01*
X181738000Y-116629714D01*
X181809429Y-116558286D01*
X181880857Y-116522571D01*
X182023714Y-116486857D01*
X182130857Y-116486857D01*
X182273714Y-116522571D01*
X182345143Y-116558286D01*
X182416571Y-116629714D01*
X182452286Y-116736857D01*
X182452286Y-116915429D01*
X182238000Y-116201143D02*
X182238000Y-115844000D01*
X182452286Y-116272571D02*
X181702286Y-116022571D01*
X182452286Y-115772571D01*
X184930857Y-116486857D02*
X184966571Y-116522571D01*
X185002286Y-116629714D01*
X185002286Y-116701143D01*
X184966571Y-116808286D01*
X184895143Y-116879714D01*
X184823714Y-116915429D01*
X184680857Y-116951143D01*
X184573714Y-116951143D01*
X184430857Y-116915429D01*
X184359429Y-116879714D01*
X184288000Y-116808286D01*
X184252286Y-116701143D01*
X184252286Y-116629714D01*
X184288000Y-116522571D01*
X184323714Y-116486857D01*
X185002286Y-115808286D02*
X185002286Y-116165429D01*
X184252286Y-116165429D01*
X185002286Y-115558286D02*
X184252286Y-115558286D01*
X185002286Y-115129714D02*
X184573714Y-115451143D01*
X184252286Y-115129714D02*
X184680857Y-115558286D01*
X186838000Y-116522571D02*
X186802286Y-116594000D01*
X186802286Y-116701143D01*
X186838000Y-116808286D01*
X186909429Y-116879714D01*
X186980857Y-116915429D01*
X187123714Y-116951143D01*
X187230857Y-116951143D01*
X187373714Y-116915429D01*
X187445143Y-116879714D01*
X187516571Y-116808286D01*
X187552286Y-116701143D01*
X187552286Y-116629714D01*
X187516571Y-116522571D01*
X187480857Y-116486857D01*
X187230857Y-116486857D01*
X187230857Y-116629714D01*
X187552286Y-116165429D02*
X186802286Y-116165429D01*
X187552286Y-115736857D01*
X186802286Y-115736857D01*
X187552286Y-115379715D02*
X186802286Y-115379715D01*
X186802286Y-115201143D01*
X186838000Y-115094000D01*
X186909429Y-115022572D01*
X186980857Y-114986857D01*
X187123714Y-114951143D01*
X187230857Y-114951143D01*
X187373714Y-114986857D01*
X187445143Y-115022572D01*
X187516571Y-115094000D01*
X187552286Y-115201143D01*
X187552286Y-115379715D01*
D13*
X177038000Y-114554000D02*
X189484000Y-114554000D01*
X189484000Y-114554000D02*
X189484000Y-109728000D01*
D12*
X187714000Y-110956286D02*
X187356857Y-110956286D01*
X187356857Y-110206286D01*
X187928286Y-110920571D02*
X188035429Y-110956286D01*
X188214000Y-110956286D01*
X188285429Y-110920571D01*
X188321143Y-110884857D01*
X188356858Y-110813429D01*
X188356858Y-110742000D01*
X188321143Y-110670571D01*
X188285429Y-110634857D01*
X188214000Y-110599143D01*
X188071143Y-110563429D01*
X187999715Y-110527714D01*
X187964000Y-110492000D01*
X187928286Y-110420571D01*
X187928286Y-110349143D01*
X187964000Y-110277714D01*
X187999715Y-110242000D01*
X188071143Y-110206286D01*
X188249715Y-110206286D01*
X188356858Y-110242000D01*
X188928286Y-110563429D02*
X189035429Y-110599143D01*
X189071144Y-110634857D01*
X189106858Y-110706286D01*
X189106858Y-110813429D01*
X189071144Y-110884857D01*
X189035429Y-110920571D01*
X188964001Y-110956286D01*
X188678286Y-110956286D01*
X188678286Y-110206286D01*
X188928286Y-110206286D01*
X188999715Y-110242000D01*
X189035429Y-110277714D01*
X189071144Y-110349143D01*
X189071144Y-110420571D01*
X189035429Y-110492000D01*
X188999715Y-110527714D01*
X188928286Y-110563429D01*
X188678286Y-110563429D01*
D13*
X194564000Y-109728000D02*
X194564000Y-114554000D01*
D12*
X196678286Y-117022571D02*
X197428286Y-116772571D01*
X196678286Y-116522571D01*
X197356857Y-115844000D02*
X197392571Y-115879714D01*
X197428286Y-115986857D01*
X197428286Y-116058286D01*
X197392571Y-116165429D01*
X197321143Y-116236857D01*
X197249714Y-116272572D01*
X197106857Y-116308286D01*
X196999714Y-116308286D01*
X196856857Y-116272572D01*
X196785429Y-116236857D01*
X196714000Y-116165429D01*
X196678286Y-116058286D01*
X196678286Y-115986857D01*
X196714000Y-115879714D01*
X196749714Y-115844000D01*
X197356857Y-115094000D02*
X197392571Y-115129714D01*
X197428286Y-115236857D01*
X197428286Y-115308286D01*
X197392571Y-115415429D01*
X197321143Y-115486857D01*
X197249714Y-115522572D01*
X197106857Y-115558286D01*
X196999714Y-115558286D01*
X196856857Y-115522572D01*
X196785429Y-115486857D01*
X196714000Y-115415429D01*
X196678286Y-115308286D01*
X196678286Y-115236857D01*
X196714000Y-115129714D01*
X196749714Y-115094000D01*
X199978286Y-116915429D02*
X199228286Y-116915429D01*
X199228286Y-116736857D01*
X199264000Y-116629714D01*
X199335429Y-116558286D01*
X199406857Y-116522571D01*
X199549714Y-116486857D01*
X199656857Y-116486857D01*
X199799714Y-116522571D01*
X199871143Y-116558286D01*
X199942571Y-116629714D01*
X199978286Y-116736857D01*
X199978286Y-116915429D01*
X199764000Y-116201143D02*
X199764000Y-115844000D01*
X199978286Y-116272571D02*
X199228286Y-116022571D01*
X199978286Y-115772571D01*
X202456857Y-116486857D02*
X202492571Y-116522571D01*
X202528286Y-116629714D01*
X202528286Y-116701143D01*
X202492571Y-116808286D01*
X202421143Y-116879714D01*
X202349714Y-116915429D01*
X202206857Y-116951143D01*
X202099714Y-116951143D01*
X201956857Y-116915429D01*
X201885429Y-116879714D01*
X201814000Y-116808286D01*
X201778286Y-116701143D01*
X201778286Y-116629714D01*
X201814000Y-116522571D01*
X201849714Y-116486857D01*
X202528286Y-115808286D02*
X202528286Y-116165429D01*
X201778286Y-116165429D01*
X202528286Y-115558286D02*
X201778286Y-115558286D01*
X202528286Y-115129714D02*
X202099714Y-115451143D01*
X201778286Y-115129714D02*
X202206857Y-115558286D01*
X204364000Y-116522571D02*
X204328286Y-116594000D01*
X204328286Y-116701143D01*
X204364000Y-116808286D01*
X204435429Y-116879714D01*
X204506857Y-116915429D01*
X204649714Y-116951143D01*
X204756857Y-116951143D01*
X204899714Y-116915429D01*
X204971143Y-116879714D01*
X205042571Y-116808286D01*
X205078286Y-116701143D01*
X205078286Y-116629714D01*
X205042571Y-116522571D01*
X205006857Y-116486857D01*
X204756857Y-116486857D01*
X204756857Y-116629714D01*
X205078286Y-116165429D02*
X204328286Y-116165429D01*
X205078286Y-115736857D01*
X204328286Y-115736857D01*
X205078286Y-115379715D02*
X204328286Y-115379715D01*
X204328286Y-115201143D01*
X204364000Y-115094000D01*
X204435429Y-115022572D01*
X204506857Y-114986857D01*
X204649714Y-114951143D01*
X204756857Y-114951143D01*
X204899714Y-114986857D01*
X204971143Y-115022572D01*
X205042571Y-115094000D01*
X205078286Y-115201143D01*
X205078286Y-115379715D01*
X194978857Y-110956286D02*
X194978857Y-110206286D01*
X195228857Y-110742000D01*
X195478857Y-110206286D01*
X195478857Y-110956286D01*
X195800286Y-110920571D02*
X195907429Y-110956286D01*
X196086000Y-110956286D01*
X196157429Y-110920571D01*
X196193143Y-110884857D01*
X196228858Y-110813429D01*
X196228858Y-110742000D01*
X196193143Y-110670571D01*
X196157429Y-110634857D01*
X196086000Y-110599143D01*
X195943143Y-110563429D01*
X195871715Y-110527714D01*
X195836000Y-110492000D01*
X195800286Y-110420571D01*
X195800286Y-110349143D01*
X195836000Y-110277714D01*
X195871715Y-110242000D01*
X195943143Y-110206286D01*
X196121715Y-110206286D01*
X196228858Y-110242000D01*
X196800286Y-110563429D02*
X196907429Y-110599143D01*
X196943144Y-110634857D01*
X196978858Y-110706286D01*
X196978858Y-110813429D01*
X196943144Y-110884857D01*
X196907429Y-110920571D01*
X196836001Y-110956286D01*
X196550286Y-110956286D01*
X196550286Y-110206286D01*
X196800286Y-110206286D01*
X196871715Y-110242000D01*
X196907429Y-110277714D01*
X196943144Y-110349143D01*
X196943144Y-110420571D01*
X196907429Y-110492000D01*
X196871715Y-110527714D01*
X196800286Y-110563429D01*
X196550286Y-110563429D01*
X205240000Y-110956286D02*
X204882857Y-110956286D01*
X204882857Y-110206286D01*
X205454286Y-110920571D02*
X205561429Y-110956286D01*
X205740000Y-110956286D01*
X205811429Y-110920571D01*
X205847143Y-110884857D01*
X205882858Y-110813429D01*
X205882858Y-110742000D01*
X205847143Y-110670571D01*
X205811429Y-110634857D01*
X205740000Y-110599143D01*
X205597143Y-110563429D01*
X205525715Y-110527714D01*
X205490000Y-110492000D01*
X205454286Y-110420571D01*
X205454286Y-110349143D01*
X205490000Y-110277714D01*
X205525715Y-110242000D01*
X205597143Y-110206286D01*
X205775715Y-110206286D01*
X205882858Y-110242000D01*
X206454286Y-110563429D02*
X206561429Y-110599143D01*
X206597144Y-110634857D01*
X206632858Y-110706286D01*
X206632858Y-110813429D01*
X206597144Y-110884857D01*
X206561429Y-110920571D01*
X206490001Y-110956286D01*
X206204286Y-110956286D01*
X206204286Y-110206286D01*
X206454286Y-110206286D01*
X206525715Y-110242000D01*
X206561429Y-110277714D01*
X206597144Y-110349143D01*
X206597144Y-110420571D01*
X206561429Y-110492000D01*
X206525715Y-110527714D01*
X206454286Y-110563429D01*
X206204286Y-110563429D01*
D13*
X207010000Y-109728000D02*
X194564000Y-109728000D01*
X194564000Y-114554000D02*
X207010000Y-114554000D01*
X207010000Y-114554000D02*
X207010000Y-109728000D01*
D11*
X197430000Y-108303143D02*
X197644286Y-108374571D01*
X198001429Y-108374571D01*
X198144286Y-108303143D01*
X198215715Y-108231714D01*
X198287143Y-108088857D01*
X198287143Y-107946000D01*
X198215715Y-107803143D01*
X198144286Y-107731714D01*
X198001429Y-107660286D01*
X197715715Y-107588857D01*
X197572857Y-107517429D01*
X197501429Y-107446000D01*
X197430000Y-107303143D01*
X197430000Y-107160286D01*
X197501429Y-107017429D01*
X197572857Y-106946000D01*
X197715715Y-106874571D01*
X198072857Y-106874571D01*
X198287143Y-106946000D01*
X198930000Y-108374571D02*
X198930000Y-106874571D01*
X199501428Y-106874571D01*
X199644286Y-106946000D01*
X199715714Y-107017429D01*
X199787143Y-107160286D01*
X199787143Y-107374571D01*
X199715714Y-107517429D01*
X199644286Y-107588857D01*
X199501428Y-107660286D01*
X198930000Y-107660286D01*
X200430000Y-108374571D02*
X200430000Y-106874571D01*
X201144286Y-107803143D02*
X202287143Y-107803143D01*
X203715715Y-108374571D02*
X203001429Y-108374571D01*
X203001429Y-106874571D01*
X204215715Y-107588857D02*
X204715715Y-107588857D01*
X204930001Y-108374571D02*
X204215715Y-108374571D01*
X204215715Y-106874571D01*
X204930001Y-106874571D01*
X205572858Y-108374571D02*
X205572858Y-106874571D01*
X205930001Y-106874571D01*
X206144286Y-106946000D01*
X206287144Y-107088857D01*
X206358572Y-107231714D01*
X206430001Y-107517429D01*
X206430001Y-107731714D01*
X206358572Y-108017429D01*
X206287144Y-108160286D01*
X206144286Y-108303143D01*
X205930001Y-108374571D01*
X205572858Y-108374571D01*
D12*
X161626286Y-117022571D02*
X162376286Y-116772571D01*
X161626286Y-116522571D01*
X162304857Y-115844000D02*
X162340571Y-115879714D01*
X162376286Y-115986857D01*
X162376286Y-116058286D01*
X162340571Y-116165429D01*
X162269143Y-116236857D01*
X162197714Y-116272572D01*
X162054857Y-116308286D01*
X161947714Y-116308286D01*
X161804857Y-116272572D01*
X161733429Y-116236857D01*
X161662000Y-116165429D01*
X161626286Y-116058286D01*
X161626286Y-115986857D01*
X161662000Y-115879714D01*
X161697714Y-115844000D01*
X162304857Y-115094000D02*
X162340571Y-115129714D01*
X162376286Y-115236857D01*
X162376286Y-115308286D01*
X162340571Y-115415429D01*
X162269143Y-115486857D01*
X162197714Y-115522572D01*
X162054857Y-115558286D01*
X161947714Y-115558286D01*
X161804857Y-115522572D01*
X161733429Y-115486857D01*
X161662000Y-115415429D01*
X161626286Y-115308286D01*
X161626286Y-115236857D01*
X161662000Y-115129714D01*
X161697714Y-115094000D01*
X164926286Y-116915429D02*
X164176286Y-116915429D01*
X164176286Y-116736857D01*
X164212000Y-116629714D01*
X164283429Y-116558286D01*
X164354857Y-116522571D01*
X164497714Y-116486857D01*
X164604857Y-116486857D01*
X164747714Y-116522571D01*
X164819143Y-116558286D01*
X164890571Y-116629714D01*
X164926286Y-116736857D01*
X164926286Y-116915429D01*
X164712000Y-116201143D02*
X164712000Y-115844000D01*
X164926286Y-116272571D02*
X164176286Y-116022571D01*
X164926286Y-115772571D01*
X167404857Y-116486857D02*
X167440571Y-116522571D01*
X167476286Y-116629714D01*
X167476286Y-116701143D01*
X167440571Y-116808286D01*
X167369143Y-116879714D01*
X167297714Y-116915429D01*
X167154857Y-116951143D01*
X167047714Y-116951143D01*
X166904857Y-116915429D01*
X166833429Y-116879714D01*
X166762000Y-116808286D01*
X166726286Y-116701143D01*
X166726286Y-116629714D01*
X166762000Y-116522571D01*
X166797714Y-116486857D01*
X167476286Y-115808286D02*
X167476286Y-116165429D01*
X166726286Y-116165429D01*
X167476286Y-115558286D02*
X166726286Y-115558286D01*
X167476286Y-115129714D02*
X167047714Y-115451143D01*
X166726286Y-115129714D02*
X167154857Y-115558286D01*
X169312000Y-116522571D02*
X169276286Y-116594000D01*
X169276286Y-116701143D01*
X169312000Y-116808286D01*
X169383429Y-116879714D01*
X169454857Y-116915429D01*
X169597714Y-116951143D01*
X169704857Y-116951143D01*
X169847714Y-116915429D01*
X169919143Y-116879714D01*
X169990571Y-116808286D01*
X170026286Y-116701143D01*
X170026286Y-116629714D01*
X169990571Y-116522571D01*
X169954857Y-116486857D01*
X169704857Y-116486857D01*
X169704857Y-116629714D01*
X170026286Y-116165429D02*
X169276286Y-116165429D01*
X170026286Y-115736857D01*
X169276286Y-115736857D01*
X170026286Y-115379715D02*
X169276286Y-115379715D01*
X169276286Y-115201143D01*
X169312000Y-115094000D01*
X169383429Y-115022572D01*
X169454857Y-114986857D01*
X169597714Y-114951143D01*
X169704857Y-114951143D01*
X169847714Y-114986857D01*
X169919143Y-115022572D01*
X169990571Y-115094000D01*
X170026286Y-115201143D01*
X170026286Y-115379715D01*
X159926857Y-110956286D02*
X159926857Y-110206286D01*
X160176857Y-110742000D01*
X160426857Y-110206286D01*
X160426857Y-110956286D01*
X160748286Y-110920571D02*
X160855429Y-110956286D01*
X161034000Y-110956286D01*
X161105429Y-110920571D01*
X161141143Y-110884857D01*
X161176858Y-110813429D01*
X161176858Y-110742000D01*
X161141143Y-110670571D01*
X161105429Y-110634857D01*
X161034000Y-110599143D01*
X160891143Y-110563429D01*
X160819715Y-110527714D01*
X160784000Y-110492000D01*
X160748286Y-110420571D01*
X160748286Y-110349143D01*
X160784000Y-110277714D01*
X160819715Y-110242000D01*
X160891143Y-110206286D01*
X161069715Y-110206286D01*
X161176858Y-110242000D01*
X161748286Y-110563429D02*
X161855429Y-110599143D01*
X161891144Y-110634857D01*
X161926858Y-110706286D01*
X161926858Y-110813429D01*
X161891144Y-110884857D01*
X161855429Y-110920571D01*
X161784001Y-110956286D01*
X161498286Y-110956286D01*
X161498286Y-110206286D01*
X161748286Y-110206286D01*
X161819715Y-110242000D01*
X161855429Y-110277714D01*
X161891144Y-110349143D01*
X161891144Y-110420571D01*
X161855429Y-110492000D01*
X161819715Y-110527714D01*
X161748286Y-110563429D01*
X161498286Y-110563429D01*
D11*
X162378000Y-108303143D02*
X162592286Y-108374571D01*
X162949429Y-108374571D01*
X163092286Y-108303143D01*
X163163715Y-108231714D01*
X163235143Y-108088857D01*
X163235143Y-107946000D01*
X163163715Y-107803143D01*
X163092286Y-107731714D01*
X162949429Y-107660286D01*
X162663715Y-107588857D01*
X162520857Y-107517429D01*
X162449429Y-107446000D01*
X162378000Y-107303143D01*
X162378000Y-107160286D01*
X162449429Y-107017429D01*
X162520857Y-106946000D01*
X162663715Y-106874571D01*
X163020857Y-106874571D01*
X163235143Y-106946000D01*
X163878000Y-108374571D02*
X163878000Y-106874571D01*
X164449428Y-106874571D01*
X164592286Y-106946000D01*
X164663714Y-107017429D01*
X164735143Y-107160286D01*
X164735143Y-107374571D01*
X164663714Y-107517429D01*
X164592286Y-107588857D01*
X164449428Y-107660286D01*
X163878000Y-107660286D01*
X165378000Y-108374571D02*
X165378000Y-106874571D01*
X166092286Y-107803143D02*
X167235143Y-107803143D01*
X168663715Y-108374571D02*
X167949429Y-108374571D01*
X167949429Y-106874571D01*
X169163715Y-107588857D02*
X169663715Y-107588857D01*
X169878001Y-108374571D02*
X169163715Y-108374571D01*
X169163715Y-106874571D01*
X169878001Y-106874571D01*
X170520858Y-108374571D02*
X170520858Y-106874571D01*
X170878001Y-106874571D01*
X171092286Y-106946000D01*
X171235144Y-107088857D01*
X171306572Y-107231714D01*
X171378001Y-107517429D01*
X171378001Y-107731714D01*
X171306572Y-108017429D01*
X171235144Y-108160286D01*
X171092286Y-108303143D01*
X170878001Y-108374571D01*
X170520858Y-108374571D01*
D12*
X170188000Y-110956286D02*
X169830857Y-110956286D01*
X169830857Y-110206286D01*
X170402286Y-110920571D02*
X170509429Y-110956286D01*
X170688000Y-110956286D01*
X170759429Y-110920571D01*
X170795143Y-110884857D01*
X170830858Y-110813429D01*
X170830858Y-110742000D01*
X170795143Y-110670571D01*
X170759429Y-110634857D01*
X170688000Y-110599143D01*
X170545143Y-110563429D01*
X170473715Y-110527714D01*
X170438000Y-110492000D01*
X170402286Y-110420571D01*
X170402286Y-110349143D01*
X170438000Y-110277714D01*
X170473715Y-110242000D01*
X170545143Y-110206286D01*
X170723715Y-110206286D01*
X170830858Y-110242000D01*
X171402286Y-110563429D02*
X171509429Y-110599143D01*
X171545144Y-110634857D01*
X171580858Y-110706286D01*
X171580858Y-110813429D01*
X171545144Y-110884857D01*
X171509429Y-110920571D01*
X171438001Y-110956286D01*
X171152286Y-110956286D01*
X171152286Y-110206286D01*
X171402286Y-110206286D01*
X171473715Y-110242000D01*
X171509429Y-110277714D01*
X171545144Y-110349143D01*
X171545144Y-110420571D01*
X171509429Y-110492000D01*
X171473715Y-110527714D01*
X171402286Y-110563429D01*
X171152286Y-110563429D01*
D13*
X159512000Y-114554000D02*
X171958000Y-114554000D01*
X171958000Y-114554000D02*
X171958000Y-109728000D01*
X171958000Y-109728000D02*
X159512000Y-109728000D01*
X159512000Y-109728000D02*
X159512000Y-114554000D01*
X154432000Y-109728000D02*
X141986000Y-109728000D01*
X154432000Y-114554000D02*
X154432000Y-109728000D01*
X141986000Y-114554000D02*
X154432000Y-114554000D01*
X141986000Y-109728000D02*
X141986000Y-114554000D01*
D12*
X152662000Y-110956286D02*
X152304857Y-110956286D01*
X152304857Y-110206286D01*
X152876286Y-110920571D02*
X152983429Y-110956286D01*
X153162000Y-110956286D01*
X153233429Y-110920571D01*
X153269143Y-110884857D01*
X153304858Y-110813429D01*
X153304858Y-110742000D01*
X153269143Y-110670571D01*
X153233429Y-110634857D01*
X153162000Y-110599143D01*
X153019143Y-110563429D01*
X152947715Y-110527714D01*
X152912000Y-110492000D01*
X152876286Y-110420571D01*
X152876286Y-110349143D01*
X152912000Y-110277714D01*
X152947715Y-110242000D01*
X153019143Y-110206286D01*
X153197715Y-110206286D01*
X153304858Y-110242000D01*
X153876286Y-110563429D02*
X153983429Y-110599143D01*
X154019144Y-110634857D01*
X154054858Y-110706286D01*
X154054858Y-110813429D01*
X154019144Y-110884857D01*
X153983429Y-110920571D01*
X153912001Y-110956286D01*
X153626286Y-110956286D01*
X153626286Y-110206286D01*
X153876286Y-110206286D01*
X153947715Y-110242000D01*
X153983429Y-110277714D01*
X154019144Y-110349143D01*
X154019144Y-110420571D01*
X153983429Y-110492000D01*
X153947715Y-110527714D01*
X153876286Y-110563429D01*
X153626286Y-110563429D01*
X142400857Y-110956286D02*
X142400857Y-110206286D01*
X142650857Y-110742000D01*
X142900857Y-110206286D01*
X142900857Y-110956286D01*
X143222286Y-110920571D02*
X143329429Y-110956286D01*
X143508000Y-110956286D01*
X143579429Y-110920571D01*
X143615143Y-110884857D01*
X143650858Y-110813429D01*
X143650858Y-110742000D01*
X143615143Y-110670571D01*
X143579429Y-110634857D01*
X143508000Y-110599143D01*
X143365143Y-110563429D01*
X143293715Y-110527714D01*
X143258000Y-110492000D01*
X143222286Y-110420571D01*
X143222286Y-110349143D01*
X143258000Y-110277714D01*
X143293715Y-110242000D01*
X143365143Y-110206286D01*
X143543715Y-110206286D01*
X143650858Y-110242000D01*
X144222286Y-110563429D02*
X144329429Y-110599143D01*
X144365144Y-110634857D01*
X144400858Y-110706286D01*
X144400858Y-110813429D01*
X144365144Y-110884857D01*
X144329429Y-110920571D01*
X144258001Y-110956286D01*
X143972286Y-110956286D01*
X143972286Y-110206286D01*
X144222286Y-110206286D01*
X144293715Y-110242000D01*
X144329429Y-110277714D01*
X144365144Y-110349143D01*
X144365144Y-110420571D01*
X144329429Y-110492000D01*
X144293715Y-110527714D01*
X144222286Y-110563429D01*
X143972286Y-110563429D01*
D11*
X144852000Y-108303143D02*
X145066286Y-108374571D01*
X145423429Y-108374571D01*
X145566286Y-108303143D01*
X145637715Y-108231714D01*
X145709143Y-108088857D01*
X145709143Y-107946000D01*
X145637715Y-107803143D01*
X145566286Y-107731714D01*
X145423429Y-107660286D01*
X145137715Y-107588857D01*
X144994857Y-107517429D01*
X144923429Y-107446000D01*
X144852000Y-107303143D01*
X144852000Y-107160286D01*
X144923429Y-107017429D01*
X144994857Y-106946000D01*
X145137715Y-106874571D01*
X145494857Y-106874571D01*
X145709143Y-106946000D01*
X146352000Y-108374571D02*
X146352000Y-106874571D01*
X146923428Y-106874571D01*
X147066286Y-106946000D01*
X147137714Y-107017429D01*
X147209143Y-107160286D01*
X147209143Y-107374571D01*
X147137714Y-107517429D01*
X147066286Y-107588857D01*
X146923428Y-107660286D01*
X146352000Y-107660286D01*
X147852000Y-108374571D02*
X147852000Y-106874571D01*
X148566286Y-107803143D02*
X149709143Y-107803143D01*
X151137715Y-108374571D02*
X150423429Y-108374571D01*
X150423429Y-106874571D01*
X151637715Y-107588857D02*
X152137715Y-107588857D01*
X152352001Y-108374571D02*
X151637715Y-108374571D01*
X151637715Y-106874571D01*
X152352001Y-106874571D01*
X152994858Y-108374571D02*
X152994858Y-106874571D01*
X153352001Y-106874571D01*
X153566286Y-106946000D01*
X153709144Y-107088857D01*
X153780572Y-107231714D01*
X153852001Y-107517429D01*
X153852001Y-107731714D01*
X153780572Y-108017429D01*
X153709144Y-108160286D01*
X153566286Y-108303143D01*
X153352001Y-108374571D01*
X152994858Y-108374571D01*
D12*
X144100286Y-117022571D02*
X144850286Y-116772571D01*
X144100286Y-116522571D01*
X144778857Y-115844000D02*
X144814571Y-115879714D01*
X144850286Y-115986857D01*
X144850286Y-116058286D01*
X144814571Y-116165429D01*
X144743143Y-116236857D01*
X144671714Y-116272572D01*
X144528857Y-116308286D01*
X144421714Y-116308286D01*
X144278857Y-116272572D01*
X144207429Y-116236857D01*
X144136000Y-116165429D01*
X144100286Y-116058286D01*
X144100286Y-115986857D01*
X144136000Y-115879714D01*
X144171714Y-115844000D01*
X144778857Y-115094000D02*
X144814571Y-115129714D01*
X144850286Y-115236857D01*
X144850286Y-115308286D01*
X144814571Y-115415429D01*
X144743143Y-115486857D01*
X144671714Y-115522572D01*
X144528857Y-115558286D01*
X144421714Y-115558286D01*
X144278857Y-115522572D01*
X144207429Y-115486857D01*
X144136000Y-115415429D01*
X144100286Y-115308286D01*
X144100286Y-115236857D01*
X144136000Y-115129714D01*
X144171714Y-115094000D01*
X147400286Y-116915429D02*
X146650286Y-116915429D01*
X146650286Y-116736857D01*
X146686000Y-116629714D01*
X146757429Y-116558286D01*
X146828857Y-116522571D01*
X146971714Y-116486857D01*
X147078857Y-116486857D01*
X147221714Y-116522571D01*
X147293143Y-116558286D01*
X147364571Y-116629714D01*
X147400286Y-116736857D01*
X147400286Y-116915429D01*
X147186000Y-116201143D02*
X147186000Y-115844000D01*
X147400286Y-116272571D02*
X146650286Y-116022571D01*
X147400286Y-115772571D01*
X149878857Y-116486857D02*
X149914571Y-116522571D01*
X149950286Y-116629714D01*
X149950286Y-116701143D01*
X149914571Y-116808286D01*
X149843143Y-116879714D01*
X149771714Y-116915429D01*
X149628857Y-116951143D01*
X149521714Y-116951143D01*
X149378857Y-116915429D01*
X149307429Y-116879714D01*
X149236000Y-116808286D01*
X149200286Y-116701143D01*
X149200286Y-116629714D01*
X149236000Y-116522571D01*
X149271714Y-116486857D01*
X149950286Y-115808286D02*
X149950286Y-116165429D01*
X149200286Y-116165429D01*
X149950286Y-115558286D02*
X149200286Y-115558286D01*
X149950286Y-115129714D02*
X149521714Y-115451143D01*
X149200286Y-115129714D02*
X149628857Y-115558286D01*
X151786000Y-116522571D02*
X151750286Y-116594000D01*
X151750286Y-116701143D01*
X151786000Y-116808286D01*
X151857429Y-116879714D01*
X151928857Y-116915429D01*
X152071714Y-116951143D01*
X152178857Y-116951143D01*
X152321714Y-116915429D01*
X152393143Y-116879714D01*
X152464571Y-116808286D01*
X152500286Y-116701143D01*
X152500286Y-116629714D01*
X152464571Y-116522571D01*
X152428857Y-116486857D01*
X152178857Y-116486857D01*
X152178857Y-116629714D01*
X152500286Y-116165429D02*
X151750286Y-116165429D01*
X152500286Y-115736857D01*
X151750286Y-115736857D01*
X152500286Y-115379715D02*
X151750286Y-115379715D01*
X151750286Y-115201143D01*
X151786000Y-115094000D01*
X151857429Y-115022572D01*
X151928857Y-114986857D01*
X152071714Y-114951143D01*
X152178857Y-114951143D01*
X152321714Y-114986857D01*
X152393143Y-115022572D01*
X152464571Y-115094000D01*
X152500286Y-115201143D01*
X152500286Y-115379715D01*
D14*
X183523000Y-131221000D02*
X184523000Y-131221000D01*
X184523000Y-131221000D02*
X184523000Y-129121000D01*
X183523000Y-131221000D02*
X183523000Y-129121000D01*
X187714000Y-131221000D02*
X188714000Y-131221000D01*
X188714000Y-131221000D02*
X188714000Y-129121000D01*
X187714000Y-131221000D02*
X187714000Y-129121000D01*
X182126000Y-131221000D02*
X183126000Y-131221000D01*
X183126000Y-131221000D02*
X183126000Y-129121000D01*
X182126000Y-131221000D02*
X182126000Y-129121000D01*
X184920000Y-131221000D02*
X185920000Y-131221000D01*
X185920000Y-131221000D02*
X185920000Y-129121000D01*
X184920000Y-131221000D02*
X184920000Y-129121000D01*
X186317000Y-131221000D02*
X187317000Y-131221000D01*
X187317000Y-131221000D02*
X187317000Y-129121000D01*
X186317000Y-131221000D02*
X186317000Y-129121000D01*
X205240000Y-131221000D02*
X206240000Y-131221000D01*
X206240000Y-131221000D02*
X206240000Y-129121000D01*
X205240000Y-131221000D02*
X205240000Y-129121000D01*
X203843000Y-131221000D02*
X204843000Y-131221000D01*
X204843000Y-131221000D02*
X204843000Y-129121000D01*
X203843000Y-131221000D02*
X203843000Y-129121000D01*
X202446000Y-131221000D02*
X203446000Y-131221000D01*
X203446000Y-131221000D02*
X203446000Y-129121000D01*
X202446000Y-131221000D02*
X202446000Y-129121000D01*
X201049000Y-131221000D02*
X202049000Y-131221000D01*
X202049000Y-131221000D02*
X202049000Y-129121000D01*
X201049000Y-131221000D02*
X201049000Y-129121000D01*
X199652000Y-131221000D02*
X200652000Y-131221000D01*
X200652000Y-131221000D02*
X200652000Y-129121000D01*
X199652000Y-131221000D02*
X199652000Y-129121000D01*
X196858000Y-131221000D02*
X197858000Y-131221000D01*
X197858000Y-131221000D02*
X197858000Y-129121000D01*
X196858000Y-131221000D02*
X196858000Y-129121000D01*
X198255000Y-131221000D02*
X199255000Y-131221000D01*
X199255000Y-131221000D02*
X199255000Y-129121000D01*
X198255000Y-131221000D02*
X198255000Y-129121000D01*
D15*
G36*
X196021354Y-123551280D02*
X196011217Y-123579466D01*
X195994787Y-123622983D01*
X195969911Y-123689720D01*
X195938172Y-123775361D01*
X195901152Y-123875591D01*
X195860436Y-123986096D01*
X195817605Y-124102559D01*
X195774244Y-124220667D01*
X195731936Y-124336103D01*
X195692264Y-124444553D01*
X195656811Y-124541701D01*
X195627161Y-124623233D01*
X195604896Y-124684832D01*
X195591600Y-124722185D01*
X195588467Y-124731684D01*
X195604695Y-124733675D01*
X195650563Y-124735765D01*
X195721844Y-124737853D01*
X195814310Y-124739838D01*
X195923736Y-124741617D01*
X196045895Y-124743090D01*
X196075591Y-124743377D01*
X196562716Y-124747867D01*
X196001305Y-125490173D01*
X195895629Y-125629761D01*
X195795696Y-125761499D01*
X195703438Y-125882856D01*
X195620787Y-125991304D01*
X195549676Y-126084314D01*
X195492036Y-126159356D01*
X195449800Y-126213901D01*
X195424900Y-126245420D01*
X195419144Y-126252173D01*
X195405070Y-126260999D01*
X195407061Y-126242084D01*
X195408214Y-126238000D01*
X195418713Y-126200649D01*
X195435754Y-126138666D01*
X195458064Y-126056800D01*
X195484364Y-125959801D01*
X195513378Y-125852418D01*
X195543831Y-125739400D01*
X195574445Y-125625498D01*
X195603944Y-125515459D01*
X195631053Y-125414034D01*
X195654493Y-125325973D01*
X195672990Y-125256023D01*
X195685266Y-125208936D01*
X195690046Y-125189460D01*
X195690066Y-125189256D01*
X195673847Y-125186773D01*
X195628046Y-125184529D01*
X195556947Y-125182610D01*
X195464835Y-125181104D01*
X195355993Y-125180096D01*
X195234706Y-125179674D01*
X195215933Y-125179666D01*
X195093166Y-125179377D01*
X194982210Y-125178560D01*
X194887347Y-125177292D01*
X194812864Y-125175649D01*
X194763043Y-125173707D01*
X194742169Y-125171544D01*
X194741800Y-125171209D01*
X194751903Y-125156927D01*
X194780747Y-125118840D01*
X194826133Y-125059757D01*
X194885861Y-124982491D01*
X194957734Y-124889852D01*
X195039551Y-124784653D01*
X195129115Y-124669704D01*
X195224226Y-124547817D01*
X195322685Y-124421803D01*
X195422294Y-124294473D01*
X195520853Y-124168639D01*
X195616164Y-124047112D01*
X195706028Y-123932702D01*
X195788246Y-123828223D01*
X195860618Y-123736484D01*
X195920947Y-123660298D01*
X195967033Y-123602475D01*
X195996678Y-123565826D01*
X196006666Y-123554067D01*
X196021370Y-123540877D01*
X196021354Y-123551280D01*
X196021354Y-123551280D01*
G37*
X196021354Y-123551280D02*
X196011217Y-123579466D01*
X195994787Y-123622983D01*
X195969911Y-123689720D01*
X195938172Y-123775361D01*
X195901152Y-123875591D01*
X195860436Y-123986096D01*
X195817605Y-124102559D01*
X195774244Y-124220667D01*
X195731936Y-124336103D01*
X195692264Y-124444553D01*
X195656811Y-124541701D01*
X195627161Y-124623233D01*
X195604896Y-124684832D01*
X195591600Y-124722185D01*
X195588467Y-124731684D01*
X195604695Y-124733675D01*
X195650563Y-124735765D01*
X195721844Y-124737853D01*
X195814310Y-124739838D01*
X195923736Y-124741617D01*
X196045895Y-124743090D01*
X196075591Y-124743377D01*
X196562716Y-124747867D01*
X196001305Y-125490173D01*
X195895629Y-125629761D01*
X195795696Y-125761499D01*
X195703438Y-125882856D01*
X195620787Y-125991304D01*
X195549676Y-126084314D01*
X195492036Y-126159356D01*
X195449800Y-126213901D01*
X195424900Y-126245420D01*
X195419144Y-126252173D01*
X195405070Y-126260999D01*
X195407061Y-126242084D01*
X195408214Y-126238000D01*
X195418713Y-126200649D01*
X195435754Y-126138666D01*
X195458064Y-126056800D01*
X195484364Y-125959801D01*
X195513378Y-125852418D01*
X195543831Y-125739400D01*
X195574445Y-125625498D01*
X195603944Y-125515459D01*
X195631053Y-125414034D01*
X195654493Y-125325973D01*
X195672990Y-125256023D01*
X195685266Y-125208936D01*
X195690046Y-125189460D01*
X195690066Y-125189256D01*
X195673847Y-125186773D01*
X195628046Y-125184529D01*
X195556947Y-125182610D01*
X195464835Y-125181104D01*
X195355993Y-125180096D01*
X195234706Y-125179674D01*
X195215933Y-125179666D01*
X195093166Y-125179377D01*
X194982210Y-125178560D01*
X194887347Y-125177292D01*
X194812864Y-125175649D01*
X194763043Y-125173707D01*
X194742169Y-125171544D01*
X194741800Y-125171209D01*
X194751903Y-125156927D01*
X194780747Y-125118840D01*
X194826133Y-125059757D01*
X194885861Y-124982491D01*
X194957734Y-124889852D01*
X195039551Y-124784653D01*
X195129115Y-124669704D01*
X195224226Y-124547817D01*
X195322685Y-124421803D01*
X195422294Y-124294473D01*
X195520853Y-124168639D01*
X195616164Y-124047112D01*
X195706028Y-123932702D01*
X195788246Y-123828223D01*
X195860618Y-123736484D01*
X195920947Y-123660298D01*
X195967033Y-123602475D01*
X195996678Y-123565826D01*
X196006666Y-123554067D01*
X196021370Y-123540877D01*
X196021354Y-123551280D01*
D14*
X195461000Y-131221000D02*
X196461000Y-131221000D01*
X196461000Y-131221000D02*
X196461000Y-129121000D01*
X195461000Y-131221000D02*
X195461000Y-129121000D01*
X177935000Y-131221000D02*
X178935000Y-131221000D01*
X178935000Y-131221000D02*
X178935000Y-129121000D01*
X177935000Y-131221000D02*
X177935000Y-129121000D01*
X180729000Y-131221000D02*
X181729000Y-131221000D01*
X181729000Y-131221000D02*
X181729000Y-129121000D01*
X180729000Y-131221000D02*
X180729000Y-129121000D01*
X179332000Y-131221000D02*
X180332000Y-131221000D01*
X180332000Y-131221000D02*
X180332000Y-129121000D01*
X179332000Y-131221000D02*
X179332000Y-129121000D01*
D15*
G36*
X178495354Y-123551280D02*
X178485217Y-123579466D01*
X178468787Y-123622983D01*
X178443911Y-123689720D01*
X178412172Y-123775361D01*
X178375152Y-123875591D01*
X178334436Y-123986096D01*
X178291605Y-124102559D01*
X178248244Y-124220667D01*
X178205936Y-124336103D01*
X178166264Y-124444553D01*
X178130811Y-124541701D01*
X178101161Y-124623233D01*
X178078896Y-124684832D01*
X178065600Y-124722185D01*
X178062467Y-124731684D01*
X178078695Y-124733675D01*
X178124563Y-124735765D01*
X178195844Y-124737853D01*
X178288310Y-124739838D01*
X178397736Y-124741617D01*
X178519895Y-124743090D01*
X178549591Y-124743377D01*
X179036716Y-124747867D01*
X178475305Y-125490173D01*
X178369629Y-125629761D01*
X178269696Y-125761499D01*
X178177438Y-125882856D01*
X178094787Y-125991304D01*
X178023676Y-126084314D01*
X177966036Y-126159356D01*
X177923800Y-126213901D01*
X177898900Y-126245420D01*
X177893144Y-126252173D01*
X177879070Y-126260999D01*
X177881061Y-126242084D01*
X177882214Y-126238000D01*
X177892713Y-126200649D01*
X177909754Y-126138666D01*
X177932064Y-126056800D01*
X177958364Y-125959801D01*
X177987378Y-125852418D01*
X178017831Y-125739400D01*
X178048445Y-125625498D01*
X178077944Y-125515459D01*
X178105053Y-125414034D01*
X178128493Y-125325973D01*
X178146990Y-125256023D01*
X178159266Y-125208936D01*
X178164046Y-125189460D01*
X178164066Y-125189256D01*
X178147847Y-125186773D01*
X178102046Y-125184529D01*
X178030947Y-125182610D01*
X177938835Y-125181104D01*
X177829993Y-125180096D01*
X177708706Y-125179674D01*
X177689933Y-125179666D01*
X177567166Y-125179377D01*
X177456210Y-125178560D01*
X177361347Y-125177292D01*
X177286864Y-125175649D01*
X177237043Y-125173707D01*
X177216169Y-125171544D01*
X177215800Y-125171209D01*
X177225903Y-125156927D01*
X177254747Y-125118840D01*
X177300133Y-125059757D01*
X177359861Y-124982491D01*
X177431734Y-124889852D01*
X177513551Y-124784653D01*
X177603115Y-124669704D01*
X177698226Y-124547817D01*
X177796685Y-124421803D01*
X177896294Y-124294473D01*
X177994853Y-124168639D01*
X178090164Y-124047112D01*
X178180028Y-123932702D01*
X178262246Y-123828223D01*
X178334618Y-123736484D01*
X178394947Y-123660298D01*
X178441033Y-123602475D01*
X178470678Y-123565826D01*
X178480666Y-123554067D01*
X178495370Y-123540877D01*
X178495354Y-123551280D01*
X178495354Y-123551280D01*
G37*
X178495354Y-123551280D02*
X178485217Y-123579466D01*
X178468787Y-123622983D01*
X178443911Y-123689720D01*
X178412172Y-123775361D01*
X178375152Y-123875591D01*
X178334436Y-123986096D01*
X178291605Y-124102559D01*
X178248244Y-124220667D01*
X178205936Y-124336103D01*
X178166264Y-124444553D01*
X178130811Y-124541701D01*
X178101161Y-124623233D01*
X178078896Y-124684832D01*
X178065600Y-124722185D01*
X178062467Y-124731684D01*
X178078695Y-124733675D01*
X178124563Y-124735765D01*
X178195844Y-124737853D01*
X178288310Y-124739838D01*
X178397736Y-124741617D01*
X178519895Y-124743090D01*
X178549591Y-124743377D01*
X179036716Y-124747867D01*
X178475305Y-125490173D01*
X178369629Y-125629761D01*
X178269696Y-125761499D01*
X178177438Y-125882856D01*
X178094787Y-125991304D01*
X178023676Y-126084314D01*
X177966036Y-126159356D01*
X177923800Y-126213901D01*
X177898900Y-126245420D01*
X177893144Y-126252173D01*
X177879070Y-126260999D01*
X177881061Y-126242084D01*
X177882214Y-126238000D01*
X177892713Y-126200649D01*
X177909754Y-126138666D01*
X177932064Y-126056800D01*
X177958364Y-125959801D01*
X177987378Y-125852418D01*
X178017831Y-125739400D01*
X178048445Y-125625498D01*
X178077944Y-125515459D01*
X178105053Y-125414034D01*
X178128493Y-125325973D01*
X178146990Y-125256023D01*
X178159266Y-125208936D01*
X178164046Y-125189460D01*
X178164066Y-125189256D01*
X178147847Y-125186773D01*
X178102046Y-125184529D01*
X178030947Y-125182610D01*
X177938835Y-125181104D01*
X177829993Y-125180096D01*
X177708706Y-125179674D01*
X177689933Y-125179666D01*
X177567166Y-125179377D01*
X177456210Y-125178560D01*
X177361347Y-125177292D01*
X177286864Y-125175649D01*
X177237043Y-125173707D01*
X177216169Y-125171544D01*
X177215800Y-125171209D01*
X177225903Y-125156927D01*
X177254747Y-125118840D01*
X177300133Y-125059757D01*
X177359861Y-124982491D01*
X177431734Y-124889852D01*
X177513551Y-124784653D01*
X177603115Y-124669704D01*
X177698226Y-124547817D01*
X177796685Y-124421803D01*
X177896294Y-124294473D01*
X177994853Y-124168639D01*
X178090164Y-124047112D01*
X178180028Y-123932702D01*
X178262246Y-123828223D01*
X178334618Y-123736484D01*
X178394947Y-123660298D01*
X178441033Y-123602475D01*
X178470678Y-123565826D01*
X178480666Y-123554067D01*
X178495370Y-123540877D01*
X178495354Y-123551280D01*
D14*
X170188000Y-131221000D02*
X171188000Y-131221000D01*
X171188000Y-131221000D02*
X171188000Y-129121000D01*
X170188000Y-131221000D02*
X170188000Y-129121000D01*
X147074000Y-131221000D02*
X148074000Y-131221000D01*
X148074000Y-131221000D02*
X148074000Y-129121000D01*
X147074000Y-131221000D02*
X147074000Y-129121000D01*
X152662000Y-131221000D02*
X153662000Y-131221000D01*
X153662000Y-131221000D02*
X153662000Y-129121000D01*
X152662000Y-131221000D02*
X152662000Y-129121000D01*
X151265000Y-131221000D02*
X152265000Y-131221000D01*
X152265000Y-131221000D02*
X152265000Y-129121000D01*
X151265000Y-131221000D02*
X151265000Y-129121000D01*
X149868000Y-131221000D02*
X150868000Y-131221000D01*
X150868000Y-131221000D02*
X150868000Y-129121000D01*
X149868000Y-131221000D02*
X149868000Y-129121000D01*
X148471000Y-131221000D02*
X149471000Y-131221000D01*
X149471000Y-131221000D02*
X149471000Y-129121000D01*
X148471000Y-131221000D02*
X148471000Y-129121000D01*
X144280000Y-131221000D02*
X145280000Y-131221000D01*
X145280000Y-131221000D02*
X145280000Y-129121000D01*
X144280000Y-131221000D02*
X144280000Y-129121000D01*
X142883000Y-131221000D02*
X143883000Y-131221000D01*
X143883000Y-131221000D02*
X143883000Y-129121000D01*
X142883000Y-131221000D02*
X142883000Y-129121000D01*
D15*
G36*
X143443354Y-123551280D02*
X143433217Y-123579466D01*
X143416787Y-123622983D01*
X143391911Y-123689720D01*
X143360172Y-123775361D01*
X143323152Y-123875591D01*
X143282436Y-123986096D01*
X143239605Y-124102559D01*
X143196244Y-124220667D01*
X143153936Y-124336103D01*
X143114264Y-124444553D01*
X143078811Y-124541701D01*
X143049161Y-124623233D01*
X143026896Y-124684832D01*
X143013600Y-124722185D01*
X143010467Y-124731684D01*
X143026695Y-124733675D01*
X143072563Y-124735765D01*
X143143844Y-124737853D01*
X143236310Y-124739838D01*
X143345736Y-124741617D01*
X143467895Y-124743090D01*
X143497591Y-124743377D01*
X143984716Y-124747867D01*
X143423305Y-125490173D01*
X143317629Y-125629761D01*
X143217696Y-125761499D01*
X143125438Y-125882856D01*
X143042787Y-125991304D01*
X142971676Y-126084314D01*
X142914036Y-126159356D01*
X142871800Y-126213901D01*
X142846900Y-126245420D01*
X142841144Y-126252173D01*
X142827070Y-126260999D01*
X142829061Y-126242084D01*
X142830214Y-126238000D01*
X142840713Y-126200649D01*
X142857754Y-126138666D01*
X142880064Y-126056800D01*
X142906364Y-125959801D01*
X142935378Y-125852418D01*
X142965831Y-125739400D01*
X142996445Y-125625498D01*
X143025944Y-125515459D01*
X143053053Y-125414034D01*
X143076493Y-125325973D01*
X143094990Y-125256023D01*
X143107266Y-125208936D01*
X143112046Y-125189460D01*
X143112066Y-125189256D01*
X143095847Y-125186773D01*
X143050046Y-125184529D01*
X142978947Y-125182610D01*
X142886835Y-125181104D01*
X142777993Y-125180096D01*
X142656706Y-125179674D01*
X142637933Y-125179666D01*
X142515166Y-125179377D01*
X142404210Y-125178560D01*
X142309347Y-125177292D01*
X142234864Y-125175649D01*
X142185043Y-125173707D01*
X142164169Y-125171544D01*
X142163800Y-125171209D01*
X142173903Y-125156927D01*
X142202747Y-125118840D01*
X142248133Y-125059757D01*
X142307861Y-124982491D01*
X142379734Y-124889852D01*
X142461551Y-124784653D01*
X142551115Y-124669704D01*
X142646226Y-124547817D01*
X142744685Y-124421803D01*
X142844294Y-124294473D01*
X142942853Y-124168639D01*
X143038164Y-124047112D01*
X143128028Y-123932702D01*
X143210246Y-123828223D01*
X143282618Y-123736484D01*
X143342947Y-123660298D01*
X143389033Y-123602475D01*
X143418678Y-123565826D01*
X143428666Y-123554067D01*
X143443370Y-123540877D01*
X143443354Y-123551280D01*
X143443354Y-123551280D01*
G37*
X143443354Y-123551280D02*
X143433217Y-123579466D01*
X143416787Y-123622983D01*
X143391911Y-123689720D01*
X143360172Y-123775361D01*
X143323152Y-123875591D01*
X143282436Y-123986096D01*
X143239605Y-124102559D01*
X143196244Y-124220667D01*
X143153936Y-124336103D01*
X143114264Y-124444553D01*
X143078811Y-124541701D01*
X143049161Y-124623233D01*
X143026896Y-124684832D01*
X143013600Y-124722185D01*
X143010467Y-124731684D01*
X143026695Y-124733675D01*
X143072563Y-124735765D01*
X143143844Y-124737853D01*
X143236310Y-124739838D01*
X143345736Y-124741617D01*
X143467895Y-124743090D01*
X143497591Y-124743377D01*
X143984716Y-124747867D01*
X143423305Y-125490173D01*
X143317629Y-125629761D01*
X143217696Y-125761499D01*
X143125438Y-125882856D01*
X143042787Y-125991304D01*
X142971676Y-126084314D01*
X142914036Y-126159356D01*
X142871800Y-126213901D01*
X142846900Y-126245420D01*
X142841144Y-126252173D01*
X142827070Y-126260999D01*
X142829061Y-126242084D01*
X142830214Y-126238000D01*
X142840713Y-126200649D01*
X142857754Y-126138666D01*
X142880064Y-126056800D01*
X142906364Y-125959801D01*
X142935378Y-125852418D01*
X142965831Y-125739400D01*
X142996445Y-125625498D01*
X143025944Y-125515459D01*
X143053053Y-125414034D01*
X143076493Y-125325973D01*
X143094990Y-125256023D01*
X143107266Y-125208936D01*
X143112046Y-125189460D01*
X143112066Y-125189256D01*
X143095847Y-125186773D01*
X143050046Y-125184529D01*
X142978947Y-125182610D01*
X142886835Y-125181104D01*
X142777993Y-125180096D01*
X142656706Y-125179674D01*
X142637933Y-125179666D01*
X142515166Y-125179377D01*
X142404210Y-125178560D01*
X142309347Y-125177292D01*
X142234864Y-125175649D01*
X142185043Y-125173707D01*
X142164169Y-125171544D01*
X142163800Y-125171209D01*
X142173903Y-125156927D01*
X142202747Y-125118840D01*
X142248133Y-125059757D01*
X142307861Y-124982491D01*
X142379734Y-124889852D01*
X142461551Y-124784653D01*
X142551115Y-124669704D01*
X142646226Y-124547817D01*
X142744685Y-124421803D01*
X142844294Y-124294473D01*
X142942853Y-124168639D01*
X143038164Y-124047112D01*
X143128028Y-123932702D01*
X143210246Y-123828223D01*
X143282618Y-123736484D01*
X143342947Y-123660298D01*
X143389033Y-123602475D01*
X143418678Y-123565826D01*
X143428666Y-123554067D01*
X143443370Y-123540877D01*
X143443354Y-123551280D01*
D14*
X145677000Y-131221000D02*
X146677000Y-131221000D01*
X146677000Y-131221000D02*
X146677000Y-129121000D01*
X145677000Y-131221000D02*
X145677000Y-129121000D01*
X165997000Y-131221000D02*
X166997000Y-131221000D01*
X166997000Y-131221000D02*
X166997000Y-129121000D01*
X165997000Y-131221000D02*
X165997000Y-129121000D01*
X168791000Y-131221000D02*
X169791000Y-131221000D01*
X169791000Y-131221000D02*
X169791000Y-129121000D01*
X168791000Y-131221000D02*
X168791000Y-129121000D01*
X167394000Y-131221000D02*
X168394000Y-131221000D01*
X168394000Y-131221000D02*
X168394000Y-129121000D01*
X167394000Y-131221000D02*
X167394000Y-129121000D01*
X164600000Y-131221000D02*
X165600000Y-131221000D01*
X165600000Y-131221000D02*
X165600000Y-129121000D01*
X164600000Y-131221000D02*
X164600000Y-129121000D01*
X160409000Y-131221000D02*
X161409000Y-131221000D01*
X161409000Y-131221000D02*
X161409000Y-129121000D01*
X160409000Y-131221000D02*
X160409000Y-129121000D01*
X161806000Y-131221000D02*
X162806000Y-131221000D01*
X162806000Y-131221000D02*
X162806000Y-129121000D01*
X161806000Y-131221000D02*
X161806000Y-129121000D01*
X163203000Y-131221000D02*
X164203000Y-131221000D01*
X164203000Y-131221000D02*
X164203000Y-129121000D01*
X163203000Y-131221000D02*
X163203000Y-129121000D01*
D15*
G36*
X160969354Y-123551280D02*
X160959217Y-123579466D01*
X160942787Y-123622983D01*
X160917911Y-123689720D01*
X160886172Y-123775361D01*
X160849152Y-123875591D01*
X160808436Y-123986096D01*
X160765605Y-124102559D01*
X160722244Y-124220667D01*
X160679936Y-124336103D01*
X160640264Y-124444553D01*
X160604811Y-124541701D01*
X160575161Y-124623233D01*
X160552896Y-124684832D01*
X160539600Y-124722185D01*
X160536467Y-124731684D01*
X160552695Y-124733675D01*
X160598563Y-124735765D01*
X160669844Y-124737853D01*
X160762310Y-124739838D01*
X160871736Y-124741617D01*
X160993895Y-124743090D01*
X161023591Y-124743377D01*
X161510716Y-124747867D01*
X160949305Y-125490173D01*
X160843629Y-125629761D01*
X160743696Y-125761499D01*
X160651438Y-125882856D01*
X160568787Y-125991304D01*
X160497676Y-126084314D01*
X160440036Y-126159356D01*
X160397800Y-126213901D01*
X160372900Y-126245420D01*
X160367144Y-126252173D01*
X160353070Y-126260999D01*
X160355061Y-126242084D01*
X160356214Y-126238000D01*
X160366713Y-126200649D01*
X160383754Y-126138666D01*
X160406064Y-126056800D01*
X160432364Y-125959801D01*
X160461378Y-125852418D01*
X160491831Y-125739400D01*
X160522445Y-125625498D01*
X160551944Y-125515459D01*
X160579053Y-125414034D01*
X160602493Y-125325973D01*
X160620990Y-125256023D01*
X160633266Y-125208936D01*
X160638046Y-125189460D01*
X160638066Y-125189256D01*
X160621847Y-125186773D01*
X160576046Y-125184529D01*
X160504947Y-125182610D01*
X160412835Y-125181104D01*
X160303993Y-125180096D01*
X160182706Y-125179674D01*
X160163933Y-125179666D01*
X160041166Y-125179377D01*
X159930210Y-125178560D01*
X159835347Y-125177292D01*
X159760864Y-125175649D01*
X159711043Y-125173707D01*
X159690169Y-125171544D01*
X159689800Y-125171209D01*
X159699903Y-125156927D01*
X159728747Y-125118840D01*
X159774133Y-125059757D01*
X159833861Y-124982491D01*
X159905734Y-124889852D01*
X159987551Y-124784653D01*
X160077115Y-124669704D01*
X160172226Y-124547817D01*
X160270685Y-124421803D01*
X160370294Y-124294473D01*
X160468853Y-124168639D01*
X160564164Y-124047112D01*
X160654028Y-123932702D01*
X160736246Y-123828223D01*
X160808618Y-123736484D01*
X160868947Y-123660298D01*
X160915033Y-123602475D01*
X160944678Y-123565826D01*
X160954666Y-123554067D01*
X160969370Y-123540877D01*
X160969354Y-123551280D01*
X160969354Y-123551280D01*
G37*
X160969354Y-123551280D02*
X160959217Y-123579466D01*
X160942787Y-123622983D01*
X160917911Y-123689720D01*
X160886172Y-123775361D01*
X160849152Y-123875591D01*
X160808436Y-123986096D01*
X160765605Y-124102559D01*
X160722244Y-124220667D01*
X160679936Y-124336103D01*
X160640264Y-124444553D01*
X160604811Y-124541701D01*
X160575161Y-124623233D01*
X160552896Y-124684832D01*
X160539600Y-124722185D01*
X160536467Y-124731684D01*
X160552695Y-124733675D01*
X160598563Y-124735765D01*
X160669844Y-124737853D01*
X160762310Y-124739838D01*
X160871736Y-124741617D01*
X160993895Y-124743090D01*
X161023591Y-124743377D01*
X161510716Y-124747867D01*
X160949305Y-125490173D01*
X160843629Y-125629761D01*
X160743696Y-125761499D01*
X160651438Y-125882856D01*
X160568787Y-125991304D01*
X160497676Y-126084314D01*
X160440036Y-126159356D01*
X160397800Y-126213901D01*
X160372900Y-126245420D01*
X160367144Y-126252173D01*
X160353070Y-126260999D01*
X160355061Y-126242084D01*
X160356214Y-126238000D01*
X160366713Y-126200649D01*
X160383754Y-126138666D01*
X160406064Y-126056800D01*
X160432364Y-125959801D01*
X160461378Y-125852418D01*
X160491831Y-125739400D01*
X160522445Y-125625498D01*
X160551944Y-125515459D01*
X160579053Y-125414034D01*
X160602493Y-125325973D01*
X160620990Y-125256023D01*
X160633266Y-125208936D01*
X160638046Y-125189460D01*
X160638066Y-125189256D01*
X160621847Y-125186773D01*
X160576046Y-125184529D01*
X160504947Y-125182610D01*
X160412835Y-125181104D01*
X160303993Y-125180096D01*
X160182706Y-125179674D01*
X160163933Y-125179666D01*
X160041166Y-125179377D01*
X159930210Y-125178560D01*
X159835347Y-125177292D01*
X159760864Y-125175649D01*
X159711043Y-125173707D01*
X159690169Y-125171544D01*
X159689800Y-125171209D01*
X159699903Y-125156927D01*
X159728747Y-125118840D01*
X159774133Y-125059757D01*
X159833861Y-124982491D01*
X159905734Y-124889852D01*
X159987551Y-124784653D01*
X160077115Y-124669704D01*
X160172226Y-124547817D01*
X160270685Y-124421803D01*
X160370294Y-124294473D01*
X160468853Y-124168639D01*
X160564164Y-124047112D01*
X160654028Y-123932702D01*
X160736246Y-123828223D01*
X160808618Y-123736484D01*
X160868947Y-123660298D01*
X160915033Y-123602475D01*
X160944678Y-123565826D01*
X160954666Y-123554067D01*
X160969370Y-123540877D01*
X160969354Y-123551280D01*
G36*
X196021354Y-106279280D02*
X196011217Y-106307466D01*
X195994787Y-106350983D01*
X195969911Y-106417720D01*
X195938172Y-106503361D01*
X195901152Y-106603591D01*
X195860436Y-106714096D01*
X195817605Y-106830559D01*
X195774244Y-106948667D01*
X195731936Y-107064103D01*
X195692264Y-107172553D01*
X195656811Y-107269701D01*
X195627161Y-107351233D01*
X195604896Y-107412832D01*
X195591600Y-107450185D01*
X195588467Y-107459684D01*
X195604695Y-107461675D01*
X195650563Y-107463765D01*
X195721844Y-107465853D01*
X195814310Y-107467838D01*
X195923736Y-107469617D01*
X196045895Y-107471090D01*
X196075591Y-107471377D01*
X196562716Y-107475867D01*
X196001305Y-108218173D01*
X195895629Y-108357761D01*
X195795696Y-108489499D01*
X195703438Y-108610856D01*
X195620787Y-108719304D01*
X195549676Y-108812314D01*
X195492036Y-108887356D01*
X195449800Y-108941901D01*
X195424900Y-108973420D01*
X195419144Y-108980173D01*
X195405070Y-108988999D01*
X195407061Y-108970084D01*
X195408214Y-108966000D01*
X195418713Y-108928649D01*
X195435754Y-108866666D01*
X195458064Y-108784800D01*
X195484364Y-108687801D01*
X195513378Y-108580418D01*
X195543831Y-108467400D01*
X195574445Y-108353498D01*
X195603944Y-108243459D01*
X195631053Y-108142034D01*
X195654493Y-108053973D01*
X195672990Y-107984023D01*
X195685266Y-107936936D01*
X195690046Y-107917460D01*
X195690066Y-107917256D01*
X195673847Y-107914773D01*
X195628046Y-107912529D01*
X195556947Y-107910610D01*
X195464835Y-107909104D01*
X195355993Y-107908096D01*
X195234706Y-107907674D01*
X195215933Y-107907666D01*
X195093166Y-107907377D01*
X194982210Y-107906560D01*
X194887347Y-107905292D01*
X194812864Y-107903649D01*
X194763043Y-107901707D01*
X194742169Y-107899544D01*
X194741800Y-107899209D01*
X194751903Y-107884927D01*
X194780747Y-107846840D01*
X194826133Y-107787757D01*
X194885861Y-107710491D01*
X194957734Y-107617852D01*
X195039551Y-107512653D01*
X195129115Y-107397704D01*
X195224226Y-107275817D01*
X195322685Y-107149803D01*
X195422294Y-107022473D01*
X195520853Y-106896639D01*
X195616164Y-106775112D01*
X195706028Y-106660702D01*
X195788246Y-106556223D01*
X195860618Y-106464484D01*
X195920947Y-106388298D01*
X195967033Y-106330475D01*
X195996678Y-106293826D01*
X196006666Y-106282067D01*
X196021370Y-106268877D01*
X196021354Y-106279280D01*
X196021354Y-106279280D01*
G37*
X196021354Y-106279280D02*
X196011217Y-106307466D01*
X195994787Y-106350983D01*
X195969911Y-106417720D01*
X195938172Y-106503361D01*
X195901152Y-106603591D01*
X195860436Y-106714096D01*
X195817605Y-106830559D01*
X195774244Y-106948667D01*
X195731936Y-107064103D01*
X195692264Y-107172553D01*
X195656811Y-107269701D01*
X195627161Y-107351233D01*
X195604896Y-107412832D01*
X195591600Y-107450185D01*
X195588467Y-107459684D01*
X195604695Y-107461675D01*
X195650563Y-107463765D01*
X195721844Y-107465853D01*
X195814310Y-107467838D01*
X195923736Y-107469617D01*
X196045895Y-107471090D01*
X196075591Y-107471377D01*
X196562716Y-107475867D01*
X196001305Y-108218173D01*
X195895629Y-108357761D01*
X195795696Y-108489499D01*
X195703438Y-108610856D01*
X195620787Y-108719304D01*
X195549676Y-108812314D01*
X195492036Y-108887356D01*
X195449800Y-108941901D01*
X195424900Y-108973420D01*
X195419144Y-108980173D01*
X195405070Y-108988999D01*
X195407061Y-108970084D01*
X195408214Y-108966000D01*
X195418713Y-108928649D01*
X195435754Y-108866666D01*
X195458064Y-108784800D01*
X195484364Y-108687801D01*
X195513378Y-108580418D01*
X195543831Y-108467400D01*
X195574445Y-108353498D01*
X195603944Y-108243459D01*
X195631053Y-108142034D01*
X195654493Y-108053973D01*
X195672990Y-107984023D01*
X195685266Y-107936936D01*
X195690046Y-107917460D01*
X195690066Y-107917256D01*
X195673847Y-107914773D01*
X195628046Y-107912529D01*
X195556947Y-107910610D01*
X195464835Y-107909104D01*
X195355993Y-107908096D01*
X195234706Y-107907674D01*
X195215933Y-107907666D01*
X195093166Y-107907377D01*
X194982210Y-107906560D01*
X194887347Y-107905292D01*
X194812864Y-107903649D01*
X194763043Y-107901707D01*
X194742169Y-107899544D01*
X194741800Y-107899209D01*
X194751903Y-107884927D01*
X194780747Y-107846840D01*
X194826133Y-107787757D01*
X194885861Y-107710491D01*
X194957734Y-107617852D01*
X195039551Y-107512653D01*
X195129115Y-107397704D01*
X195224226Y-107275817D01*
X195322685Y-107149803D01*
X195422294Y-107022473D01*
X195520853Y-106896639D01*
X195616164Y-106775112D01*
X195706028Y-106660702D01*
X195788246Y-106556223D01*
X195860618Y-106464484D01*
X195920947Y-106388298D01*
X195967033Y-106330475D01*
X195996678Y-106293826D01*
X196006666Y-106282067D01*
X196021370Y-106268877D01*
X196021354Y-106279280D01*
D14*
X195461000Y-113949000D02*
X196461000Y-113949000D01*
X196461000Y-113949000D02*
X196461000Y-111849000D01*
X195461000Y-113949000D02*
X195461000Y-111849000D01*
X196858000Y-113949000D02*
X197858000Y-113949000D01*
X197858000Y-113949000D02*
X197858000Y-111849000D01*
X196858000Y-113949000D02*
X196858000Y-111849000D01*
X198255000Y-113949000D02*
X199255000Y-113949000D01*
X199255000Y-113949000D02*
X199255000Y-111849000D01*
X198255000Y-113949000D02*
X198255000Y-111849000D01*
X187714000Y-113949000D02*
X188714000Y-113949000D01*
X188714000Y-113949000D02*
X188714000Y-111849000D01*
X187714000Y-113949000D02*
X187714000Y-111849000D01*
X184920000Y-113949000D02*
X185920000Y-113949000D01*
X185920000Y-113949000D02*
X185920000Y-111849000D01*
X184920000Y-113949000D02*
X184920000Y-111849000D01*
X186317000Y-113949000D02*
X187317000Y-113949000D01*
X187317000Y-113949000D02*
X187317000Y-111849000D01*
X186317000Y-113949000D02*
X186317000Y-111849000D01*
X183523000Y-113949000D02*
X184523000Y-113949000D01*
X184523000Y-113949000D02*
X184523000Y-111849000D01*
X183523000Y-113949000D02*
X183523000Y-111849000D01*
X182126000Y-113949000D02*
X183126000Y-113949000D01*
X183126000Y-113949000D02*
X183126000Y-111849000D01*
X182126000Y-113949000D02*
X182126000Y-111849000D01*
X180729000Y-113949000D02*
X181729000Y-113949000D01*
X181729000Y-113949000D02*
X181729000Y-111849000D01*
X180729000Y-113949000D02*
X180729000Y-111849000D01*
X177935000Y-113949000D02*
X178935000Y-113949000D01*
X178935000Y-113949000D02*
X178935000Y-111849000D01*
X177935000Y-113949000D02*
X177935000Y-111849000D01*
X179332000Y-113949000D02*
X180332000Y-113949000D01*
X180332000Y-113949000D02*
X180332000Y-111849000D01*
X179332000Y-113949000D02*
X179332000Y-111849000D01*
D15*
G36*
X178495354Y-106279280D02*
X178485217Y-106307466D01*
X178468787Y-106350983D01*
X178443911Y-106417720D01*
X178412172Y-106503361D01*
X178375152Y-106603591D01*
X178334436Y-106714096D01*
X178291605Y-106830559D01*
X178248244Y-106948667D01*
X178205936Y-107064103D01*
X178166264Y-107172553D01*
X178130811Y-107269701D01*
X178101161Y-107351233D01*
X178078896Y-107412832D01*
X178065600Y-107450185D01*
X178062467Y-107459684D01*
X178078695Y-107461675D01*
X178124563Y-107463765D01*
X178195844Y-107465853D01*
X178288310Y-107467838D01*
X178397736Y-107469617D01*
X178519895Y-107471090D01*
X178549591Y-107471377D01*
X179036716Y-107475867D01*
X178475305Y-108218173D01*
X178369629Y-108357761D01*
X178269696Y-108489499D01*
X178177438Y-108610856D01*
X178094787Y-108719304D01*
X178023676Y-108812314D01*
X177966036Y-108887356D01*
X177923800Y-108941901D01*
X177898900Y-108973420D01*
X177893144Y-108980173D01*
X177879070Y-108988999D01*
X177881061Y-108970084D01*
X177882214Y-108966000D01*
X177892713Y-108928649D01*
X177909754Y-108866666D01*
X177932064Y-108784800D01*
X177958364Y-108687801D01*
X177987378Y-108580418D01*
X178017831Y-108467400D01*
X178048445Y-108353498D01*
X178077944Y-108243459D01*
X178105053Y-108142034D01*
X178128493Y-108053973D01*
X178146990Y-107984023D01*
X178159266Y-107936936D01*
X178164046Y-107917460D01*
X178164066Y-107917256D01*
X178147847Y-107914773D01*
X178102046Y-107912529D01*
X178030947Y-107910610D01*
X177938835Y-107909104D01*
X177829993Y-107908096D01*
X177708706Y-107907674D01*
X177689933Y-107907666D01*
X177567166Y-107907377D01*
X177456210Y-107906560D01*
X177361347Y-107905292D01*
X177286864Y-107903649D01*
X177237043Y-107901707D01*
X177216169Y-107899544D01*
X177215800Y-107899209D01*
X177225903Y-107884927D01*
X177254747Y-107846840D01*
X177300133Y-107787757D01*
X177359861Y-107710491D01*
X177431734Y-107617852D01*
X177513551Y-107512653D01*
X177603115Y-107397704D01*
X177698226Y-107275817D01*
X177796685Y-107149803D01*
X177896294Y-107022473D01*
X177994853Y-106896639D01*
X178090164Y-106775112D01*
X178180028Y-106660702D01*
X178262246Y-106556223D01*
X178334618Y-106464484D01*
X178394947Y-106388298D01*
X178441033Y-106330475D01*
X178470678Y-106293826D01*
X178480666Y-106282067D01*
X178495370Y-106268877D01*
X178495354Y-106279280D01*
X178495354Y-106279280D01*
G37*
X178495354Y-106279280D02*
X178485217Y-106307466D01*
X178468787Y-106350983D01*
X178443911Y-106417720D01*
X178412172Y-106503361D01*
X178375152Y-106603591D01*
X178334436Y-106714096D01*
X178291605Y-106830559D01*
X178248244Y-106948667D01*
X178205936Y-107064103D01*
X178166264Y-107172553D01*
X178130811Y-107269701D01*
X178101161Y-107351233D01*
X178078896Y-107412832D01*
X178065600Y-107450185D01*
X178062467Y-107459684D01*
X178078695Y-107461675D01*
X178124563Y-107463765D01*
X178195844Y-107465853D01*
X178288310Y-107467838D01*
X178397736Y-107469617D01*
X178519895Y-107471090D01*
X178549591Y-107471377D01*
X179036716Y-107475867D01*
X178475305Y-108218173D01*
X178369629Y-108357761D01*
X178269696Y-108489499D01*
X178177438Y-108610856D01*
X178094787Y-108719304D01*
X178023676Y-108812314D01*
X177966036Y-108887356D01*
X177923800Y-108941901D01*
X177898900Y-108973420D01*
X177893144Y-108980173D01*
X177879070Y-108988999D01*
X177881061Y-108970084D01*
X177882214Y-108966000D01*
X177892713Y-108928649D01*
X177909754Y-108866666D01*
X177932064Y-108784800D01*
X177958364Y-108687801D01*
X177987378Y-108580418D01*
X178017831Y-108467400D01*
X178048445Y-108353498D01*
X178077944Y-108243459D01*
X178105053Y-108142034D01*
X178128493Y-108053973D01*
X178146990Y-107984023D01*
X178159266Y-107936936D01*
X178164046Y-107917460D01*
X178164066Y-107917256D01*
X178147847Y-107914773D01*
X178102046Y-107912529D01*
X178030947Y-107910610D01*
X177938835Y-107909104D01*
X177829993Y-107908096D01*
X177708706Y-107907674D01*
X177689933Y-107907666D01*
X177567166Y-107907377D01*
X177456210Y-107906560D01*
X177361347Y-107905292D01*
X177286864Y-107903649D01*
X177237043Y-107901707D01*
X177216169Y-107899544D01*
X177215800Y-107899209D01*
X177225903Y-107884927D01*
X177254747Y-107846840D01*
X177300133Y-107787757D01*
X177359861Y-107710491D01*
X177431734Y-107617852D01*
X177513551Y-107512653D01*
X177603115Y-107397704D01*
X177698226Y-107275817D01*
X177796685Y-107149803D01*
X177896294Y-107022473D01*
X177994853Y-106896639D01*
X178090164Y-106775112D01*
X178180028Y-106660702D01*
X178262246Y-106556223D01*
X178334618Y-106464484D01*
X178394947Y-106388298D01*
X178441033Y-106330475D01*
X178470678Y-106293826D01*
X178480666Y-106282067D01*
X178495370Y-106268877D01*
X178495354Y-106279280D01*
D14*
X203843000Y-113949000D02*
X204843000Y-113949000D01*
X204843000Y-113949000D02*
X204843000Y-111849000D01*
X203843000Y-113949000D02*
X203843000Y-111849000D01*
X205240000Y-113949000D02*
X206240000Y-113949000D01*
X206240000Y-113949000D02*
X206240000Y-111849000D01*
X205240000Y-113949000D02*
X205240000Y-111849000D01*
X201049000Y-113949000D02*
X202049000Y-113949000D01*
X202049000Y-113949000D02*
X202049000Y-111849000D01*
X201049000Y-113949000D02*
X201049000Y-111849000D01*
X199652000Y-113949000D02*
X200652000Y-113949000D01*
X200652000Y-113949000D02*
X200652000Y-111849000D01*
X199652000Y-113949000D02*
X199652000Y-111849000D01*
X202446000Y-113949000D02*
X203446000Y-113949000D01*
X203446000Y-113949000D02*
X203446000Y-111849000D01*
X202446000Y-113949000D02*
X202446000Y-111849000D01*
D15*
G36*
X160969354Y-106279280D02*
X160959217Y-106307466D01*
X160942787Y-106350983D01*
X160917911Y-106417720D01*
X160886172Y-106503361D01*
X160849152Y-106603591D01*
X160808436Y-106714096D01*
X160765605Y-106830559D01*
X160722244Y-106948667D01*
X160679936Y-107064103D01*
X160640264Y-107172553D01*
X160604811Y-107269701D01*
X160575161Y-107351233D01*
X160552896Y-107412832D01*
X160539600Y-107450185D01*
X160536467Y-107459684D01*
X160552695Y-107461675D01*
X160598563Y-107463765D01*
X160669844Y-107465853D01*
X160762310Y-107467838D01*
X160871736Y-107469617D01*
X160993895Y-107471090D01*
X161023591Y-107471377D01*
X161510716Y-107475867D01*
X160949305Y-108218173D01*
X160843629Y-108357761D01*
X160743696Y-108489499D01*
X160651438Y-108610856D01*
X160568787Y-108719304D01*
X160497676Y-108812314D01*
X160440036Y-108887356D01*
X160397800Y-108941901D01*
X160372900Y-108973420D01*
X160367144Y-108980173D01*
X160353070Y-108988999D01*
X160355061Y-108970084D01*
X160356214Y-108966000D01*
X160366713Y-108928649D01*
X160383754Y-108866666D01*
X160406064Y-108784800D01*
X160432364Y-108687801D01*
X160461378Y-108580418D01*
X160491831Y-108467400D01*
X160522445Y-108353498D01*
X160551944Y-108243459D01*
X160579053Y-108142034D01*
X160602493Y-108053973D01*
X160620990Y-107984023D01*
X160633266Y-107936936D01*
X160638046Y-107917460D01*
X160638066Y-107917256D01*
X160621847Y-107914773D01*
X160576046Y-107912529D01*
X160504947Y-107910610D01*
X160412835Y-107909104D01*
X160303993Y-107908096D01*
X160182706Y-107907674D01*
X160163933Y-107907666D01*
X160041166Y-107907377D01*
X159930210Y-107906560D01*
X159835347Y-107905292D01*
X159760864Y-107903649D01*
X159711043Y-107901707D01*
X159690169Y-107899544D01*
X159689800Y-107899209D01*
X159699903Y-107884927D01*
X159728747Y-107846840D01*
X159774133Y-107787757D01*
X159833861Y-107710491D01*
X159905734Y-107617852D01*
X159987551Y-107512653D01*
X160077115Y-107397704D01*
X160172226Y-107275817D01*
X160270685Y-107149803D01*
X160370294Y-107022473D01*
X160468853Y-106896639D01*
X160564164Y-106775112D01*
X160654028Y-106660702D01*
X160736246Y-106556223D01*
X160808618Y-106464484D01*
X160868947Y-106388298D01*
X160915033Y-106330475D01*
X160944678Y-106293826D01*
X160954666Y-106282067D01*
X160969370Y-106268877D01*
X160969354Y-106279280D01*
X160969354Y-106279280D01*
G37*
X160969354Y-106279280D02*
X160959217Y-106307466D01*
X160942787Y-106350983D01*
X160917911Y-106417720D01*
X160886172Y-106503361D01*
X160849152Y-106603591D01*
X160808436Y-106714096D01*
X160765605Y-106830559D01*
X160722244Y-106948667D01*
X160679936Y-107064103D01*
X160640264Y-107172553D01*
X160604811Y-107269701D01*
X160575161Y-107351233D01*
X160552896Y-107412832D01*
X160539600Y-107450185D01*
X160536467Y-107459684D01*
X160552695Y-107461675D01*
X160598563Y-107463765D01*
X160669844Y-107465853D01*
X160762310Y-107467838D01*
X160871736Y-107469617D01*
X160993895Y-107471090D01*
X161023591Y-107471377D01*
X161510716Y-107475867D01*
X160949305Y-108218173D01*
X160843629Y-108357761D01*
X160743696Y-108489499D01*
X160651438Y-108610856D01*
X160568787Y-108719304D01*
X160497676Y-108812314D01*
X160440036Y-108887356D01*
X160397800Y-108941901D01*
X160372900Y-108973420D01*
X160367144Y-108980173D01*
X160353070Y-108988999D01*
X160355061Y-108970084D01*
X160356214Y-108966000D01*
X160366713Y-108928649D01*
X160383754Y-108866666D01*
X160406064Y-108784800D01*
X160432364Y-108687801D01*
X160461378Y-108580418D01*
X160491831Y-108467400D01*
X160522445Y-108353498D01*
X160551944Y-108243459D01*
X160579053Y-108142034D01*
X160602493Y-108053973D01*
X160620990Y-107984023D01*
X160633266Y-107936936D01*
X160638046Y-107917460D01*
X160638066Y-107917256D01*
X160621847Y-107914773D01*
X160576046Y-107912529D01*
X160504947Y-107910610D01*
X160412835Y-107909104D01*
X160303993Y-107908096D01*
X160182706Y-107907674D01*
X160163933Y-107907666D01*
X160041166Y-107907377D01*
X159930210Y-107906560D01*
X159835347Y-107905292D01*
X159760864Y-107903649D01*
X159711043Y-107901707D01*
X159690169Y-107899544D01*
X159689800Y-107899209D01*
X159699903Y-107884927D01*
X159728747Y-107846840D01*
X159774133Y-107787757D01*
X159833861Y-107710491D01*
X159905734Y-107617852D01*
X159987551Y-107512653D01*
X160077115Y-107397704D01*
X160172226Y-107275817D01*
X160270685Y-107149803D01*
X160370294Y-107022473D01*
X160468853Y-106896639D01*
X160564164Y-106775112D01*
X160654028Y-106660702D01*
X160736246Y-106556223D01*
X160808618Y-106464484D01*
X160868947Y-106388298D01*
X160915033Y-106330475D01*
X160944678Y-106293826D01*
X160954666Y-106282067D01*
X160969370Y-106268877D01*
X160969354Y-106279280D01*
D14*
X161806000Y-113949000D02*
X162806000Y-113949000D01*
X162806000Y-113949000D02*
X162806000Y-111849000D01*
X161806000Y-113949000D02*
X161806000Y-111849000D01*
X160409000Y-113949000D02*
X161409000Y-113949000D01*
X161409000Y-113949000D02*
X161409000Y-111849000D01*
X160409000Y-113949000D02*
X160409000Y-111849000D01*
X163203000Y-113949000D02*
X164203000Y-113949000D01*
X164203000Y-113949000D02*
X164203000Y-111849000D01*
X163203000Y-113949000D02*
X163203000Y-111849000D01*
X170188000Y-113949000D02*
X171188000Y-113949000D01*
X171188000Y-113949000D02*
X171188000Y-111849000D01*
X170188000Y-113949000D02*
X170188000Y-111849000D01*
X165997000Y-113949000D02*
X166997000Y-113949000D01*
X166997000Y-113949000D02*
X166997000Y-111849000D01*
X165997000Y-113949000D02*
X165997000Y-111849000D01*
X167394000Y-113949000D02*
X168394000Y-113949000D01*
X168394000Y-113949000D02*
X168394000Y-111849000D01*
X167394000Y-113949000D02*
X167394000Y-111849000D01*
X168791000Y-113949000D02*
X169791000Y-113949000D01*
X169791000Y-113949000D02*
X169791000Y-111849000D01*
X168791000Y-113949000D02*
X168791000Y-111849000D01*
X164600000Y-113949000D02*
X165600000Y-113949000D01*
X165600000Y-113949000D02*
X165600000Y-111849000D01*
X164600000Y-113949000D02*
X164600000Y-111849000D01*
X142883000Y-113949000D02*
X143883000Y-113949000D01*
X143883000Y-113949000D02*
X143883000Y-111849000D01*
X142883000Y-113949000D02*
X142883000Y-111849000D01*
X144280000Y-113949000D02*
X145280000Y-113949000D01*
X145280000Y-113949000D02*
X145280000Y-111849000D01*
X144280000Y-113949000D02*
X144280000Y-111849000D01*
X145677000Y-113949000D02*
X146677000Y-113949000D01*
X146677000Y-113949000D02*
X146677000Y-111849000D01*
X145677000Y-113949000D02*
X145677000Y-111849000D01*
X147074000Y-113949000D02*
X148074000Y-113949000D01*
X148074000Y-113949000D02*
X148074000Y-111849000D01*
X147074000Y-113949000D02*
X147074000Y-111849000D01*
X148471000Y-113949000D02*
X149471000Y-113949000D01*
X149471000Y-113949000D02*
X149471000Y-111849000D01*
X148471000Y-113949000D02*
X148471000Y-111849000D01*
X149868000Y-113949000D02*
X150868000Y-113949000D01*
X150868000Y-113949000D02*
X150868000Y-111849000D01*
X149868000Y-113949000D02*
X149868000Y-111849000D01*
X151265000Y-113949000D02*
X152265000Y-113949000D01*
X152265000Y-113949000D02*
X152265000Y-111849000D01*
X151265000Y-113949000D02*
X151265000Y-111849000D01*
X152662000Y-113949000D02*
X153662000Y-113949000D01*
X153662000Y-113949000D02*
X153662000Y-111849000D01*
X152662000Y-113949000D02*
X152662000Y-111849000D01*
D15*
G36*
X143443354Y-106279280D02*
X143433217Y-106307466D01*
X143416787Y-106350983D01*
X143391911Y-106417720D01*
X143360172Y-106503361D01*
X143323152Y-106603591D01*
X143282436Y-106714096D01*
X143239605Y-106830559D01*
X143196244Y-106948667D01*
X143153936Y-107064103D01*
X143114264Y-107172553D01*
X143078811Y-107269701D01*
X143049161Y-107351233D01*
X143026896Y-107412832D01*
X143013600Y-107450185D01*
X143010467Y-107459684D01*
X143026695Y-107461675D01*
X143072563Y-107463765D01*
X143143844Y-107465853D01*
X143236310Y-107467838D01*
X143345736Y-107469617D01*
X143467895Y-107471090D01*
X143497591Y-107471377D01*
X143984716Y-107475867D01*
X143423305Y-108218173D01*
X143317629Y-108357761D01*
X143217696Y-108489499D01*
X143125438Y-108610856D01*
X143042787Y-108719304D01*
X142971676Y-108812314D01*
X142914036Y-108887356D01*
X142871800Y-108941901D01*
X142846900Y-108973420D01*
X142841144Y-108980173D01*
X142827070Y-108988999D01*
X142829061Y-108970084D01*
X142830214Y-108966000D01*
X142840713Y-108928649D01*
X142857754Y-108866666D01*
X142880064Y-108784800D01*
X142906364Y-108687801D01*
X142935378Y-108580418D01*
X142965831Y-108467400D01*
X142996445Y-108353498D01*
X143025944Y-108243459D01*
X143053053Y-108142034D01*
X143076493Y-108053973D01*
X143094990Y-107984023D01*
X143107266Y-107936936D01*
X143112046Y-107917460D01*
X143112066Y-107917256D01*
X143095847Y-107914773D01*
X143050046Y-107912529D01*
X142978947Y-107910610D01*
X142886835Y-107909104D01*
X142777993Y-107908096D01*
X142656706Y-107907674D01*
X142637933Y-107907666D01*
X142515166Y-107907377D01*
X142404210Y-107906560D01*
X142309347Y-107905292D01*
X142234864Y-107903649D01*
X142185043Y-107901707D01*
X142164169Y-107899544D01*
X142163800Y-107899209D01*
X142173903Y-107884927D01*
X142202747Y-107846840D01*
X142248133Y-107787757D01*
X142307861Y-107710491D01*
X142379734Y-107617852D01*
X142461551Y-107512653D01*
X142551115Y-107397704D01*
X142646226Y-107275817D01*
X142744685Y-107149803D01*
X142844294Y-107022473D01*
X142942853Y-106896639D01*
X143038164Y-106775112D01*
X143128028Y-106660702D01*
X143210246Y-106556223D01*
X143282618Y-106464484D01*
X143342947Y-106388298D01*
X143389033Y-106330475D01*
X143418678Y-106293826D01*
X143428666Y-106282067D01*
X143443370Y-106268877D01*
X143443354Y-106279280D01*
X143443354Y-106279280D01*
G37*
X143443354Y-106279280D02*
X143433217Y-106307466D01*
X143416787Y-106350983D01*
X143391911Y-106417720D01*
X143360172Y-106503361D01*
X143323152Y-106603591D01*
X143282436Y-106714096D01*
X143239605Y-106830559D01*
X143196244Y-106948667D01*
X143153936Y-107064103D01*
X143114264Y-107172553D01*
X143078811Y-107269701D01*
X143049161Y-107351233D01*
X143026896Y-107412832D01*
X143013600Y-107450185D01*
X143010467Y-107459684D01*
X143026695Y-107461675D01*
X143072563Y-107463765D01*
X143143844Y-107465853D01*
X143236310Y-107467838D01*
X143345736Y-107469617D01*
X143467895Y-107471090D01*
X143497591Y-107471377D01*
X143984716Y-107475867D01*
X143423305Y-108218173D01*
X143317629Y-108357761D01*
X143217696Y-108489499D01*
X143125438Y-108610856D01*
X143042787Y-108719304D01*
X142971676Y-108812314D01*
X142914036Y-108887356D01*
X142871800Y-108941901D01*
X142846900Y-108973420D01*
X142841144Y-108980173D01*
X142827070Y-108988999D01*
X142829061Y-108970084D01*
X142830214Y-108966000D01*
X142840713Y-108928649D01*
X142857754Y-108866666D01*
X142880064Y-108784800D01*
X142906364Y-108687801D01*
X142935378Y-108580418D01*
X142965831Y-108467400D01*
X142996445Y-108353498D01*
X143025944Y-108243459D01*
X143053053Y-108142034D01*
X143076493Y-108053973D01*
X143094990Y-107984023D01*
X143107266Y-107936936D01*
X143112046Y-107917460D01*
X143112066Y-107917256D01*
X143095847Y-107914773D01*
X143050046Y-107912529D01*
X142978947Y-107910610D01*
X142886835Y-107909104D01*
X142777993Y-107908096D01*
X142656706Y-107907674D01*
X142637933Y-107907666D01*
X142515166Y-107907377D01*
X142404210Y-107906560D01*
X142309347Y-107905292D01*
X142234864Y-107903649D01*
X142185043Y-107901707D01*
X142164169Y-107899544D01*
X142163800Y-107899209D01*
X142173903Y-107884927D01*
X142202747Y-107846840D01*
X142248133Y-107787757D01*
X142307861Y-107710491D01*
X142379734Y-107617852D01*
X142461551Y-107512653D01*
X142551115Y-107397704D01*
X142646226Y-107275817D01*
X142744685Y-107149803D01*
X142844294Y-107022473D01*
X142942853Y-106896639D01*
X143038164Y-106775112D01*
X143128028Y-106660702D01*
X143210246Y-106556223D01*
X143282618Y-106464484D01*
X143342947Y-106388298D01*
X143389033Y-106330475D01*
X143418678Y-106293826D01*
X143428666Y-106282067D01*
X143443370Y-106268877D01*
X143443354Y-106279280D01*
M02*
