G04 #@! TF.FileFunction,Soldermask,Bot*
%FSLAX46Y46*%
G04 Gerber Fmt 4.6, Leading zero omitted, Abs format (unit mm)*
G04 Created by KiCad (PCBNEW 4.0.5+dfsg1-4) date Sat May  5 18:48:22 2018*
%MOMM*%
%LPD*%
G01*
G04 APERTURE LIST*
%ADD10C,0.100000*%
%ADD11R,0.950000X1.000000*%
%ADD12R,0.500000X1.000000*%
%ADD13R,1.650000X0.650000*%
%ADD14R,1.900000X1.900000*%
%ADD15O,1.900000X1.900000*%
G04 APERTURE END LIST*
D10*
D11*
X196215000Y-132322000D03*
X196215000Y-130822000D03*
D12*
X199065000Y-124311000D03*
X199065000Y-126111000D03*
X202565000Y-124311000D03*
X202565000Y-126111000D03*
X199565000Y-124311000D03*
X200065000Y-124311000D03*
X200565000Y-124311000D03*
X201065000Y-124311000D03*
X201565000Y-124311000D03*
X202065000Y-124311000D03*
X199565000Y-126111000D03*
X200065000Y-126111000D03*
X200565000Y-126111000D03*
X201565000Y-126111000D03*
X201065000Y-126111000D03*
X202065000Y-126111000D03*
D13*
X180412600Y-132277400D03*
X180412600Y-131627400D03*
X180412600Y-130977400D03*
X180412600Y-130327400D03*
X180412600Y-129677400D03*
X180412600Y-129027400D03*
X180412600Y-128377400D03*
X186312600Y-128377400D03*
X186312600Y-129027400D03*
X186312600Y-129677400D03*
X186312600Y-130327400D03*
X186312600Y-130977400D03*
X186312600Y-131627400D03*
X186312600Y-132277400D03*
D14*
X197104000Y-135382000D03*
D15*
X199644000Y-135382000D03*
X202184000Y-135382000D03*
X204724000Y-135382000D03*
D14*
X179578000Y-135382000D03*
D15*
X182118000Y-135382000D03*
X184658000Y-135382000D03*
X187198000Y-135382000D03*
D11*
X178689000Y-132322000D03*
X178689000Y-130822000D03*
D13*
X197938600Y-132277400D03*
X197938600Y-131627400D03*
X197938600Y-130977400D03*
X197938600Y-130327400D03*
X197938600Y-129677400D03*
X197938600Y-129027400D03*
X197938600Y-128377400D03*
X203838600Y-128377400D03*
X203838600Y-129027400D03*
X203838600Y-129677400D03*
X203838600Y-130327400D03*
X203838600Y-130977400D03*
X203838600Y-131627400D03*
X203838600Y-132277400D03*
D12*
X181539000Y-124311000D03*
X181539000Y-126111000D03*
X185039000Y-124311000D03*
X185039000Y-126111000D03*
X182039000Y-124311000D03*
X182539000Y-124311000D03*
X183039000Y-124311000D03*
X183539000Y-124311000D03*
X184039000Y-124311000D03*
X184539000Y-124311000D03*
X182039000Y-126111000D03*
X182539000Y-126111000D03*
X183039000Y-126111000D03*
X184039000Y-126111000D03*
X183539000Y-126111000D03*
X184539000Y-126111000D03*
D13*
X145360600Y-132277400D03*
X145360600Y-131627400D03*
X145360600Y-130977400D03*
X145360600Y-130327400D03*
X145360600Y-129677400D03*
X145360600Y-129027400D03*
X145360600Y-128377400D03*
X151260600Y-128377400D03*
X151260600Y-129027400D03*
X151260600Y-129677400D03*
X151260600Y-130327400D03*
X151260600Y-130977400D03*
X151260600Y-131627400D03*
X151260600Y-132277400D03*
D11*
X143637000Y-132322000D03*
X143637000Y-130822000D03*
D14*
X144526000Y-135382000D03*
D15*
X147066000Y-135382000D03*
X149606000Y-135382000D03*
X152146000Y-135382000D03*
D12*
X146487000Y-124311000D03*
X146487000Y-126111000D03*
X149987000Y-124311000D03*
X149987000Y-126111000D03*
X146987000Y-124311000D03*
X147487000Y-124311000D03*
X147987000Y-124311000D03*
X148487000Y-124311000D03*
X148987000Y-124311000D03*
X149487000Y-124311000D03*
X146987000Y-126111000D03*
X147487000Y-126111000D03*
X147987000Y-126111000D03*
X148987000Y-126111000D03*
X148487000Y-126111000D03*
X149487000Y-126111000D03*
D14*
X162052000Y-135382000D03*
D15*
X164592000Y-135382000D03*
X167132000Y-135382000D03*
X169672000Y-135382000D03*
D11*
X161163000Y-132322000D03*
X161163000Y-130822000D03*
D13*
X162886600Y-132277400D03*
X162886600Y-131627400D03*
X162886600Y-130977400D03*
X162886600Y-130327400D03*
X162886600Y-129677400D03*
X162886600Y-129027400D03*
X162886600Y-128377400D03*
X168786600Y-128377400D03*
X168786600Y-129027400D03*
X168786600Y-129677400D03*
X168786600Y-130327400D03*
X168786600Y-130977400D03*
X168786600Y-131627400D03*
X168786600Y-132277400D03*
D12*
X164013000Y-124311000D03*
X164013000Y-126111000D03*
X167513000Y-124311000D03*
X167513000Y-126111000D03*
X164513000Y-124311000D03*
X165013000Y-124311000D03*
X165513000Y-124311000D03*
X166013000Y-124311000D03*
X166513000Y-124311000D03*
X167013000Y-124311000D03*
X164513000Y-126111000D03*
X165013000Y-126111000D03*
X165513000Y-126111000D03*
X166513000Y-126111000D03*
X166013000Y-126111000D03*
X167013000Y-126111000D03*
D11*
X196215000Y-115050000D03*
X196215000Y-113550000D03*
D12*
X181539000Y-107039000D03*
X181539000Y-108839000D03*
X185039000Y-107039000D03*
X185039000Y-108839000D03*
X182039000Y-107039000D03*
X182539000Y-107039000D03*
X183039000Y-107039000D03*
X183539000Y-107039000D03*
X184039000Y-107039000D03*
X184539000Y-107039000D03*
X182039000Y-108839000D03*
X182539000Y-108839000D03*
X183039000Y-108839000D03*
X184039000Y-108839000D03*
X183539000Y-108839000D03*
X184539000Y-108839000D03*
D14*
X179578000Y-118110000D03*
D15*
X182118000Y-118110000D03*
X184658000Y-118110000D03*
X187198000Y-118110000D03*
D11*
X178689000Y-115050000D03*
X178689000Y-113550000D03*
D13*
X197938600Y-115005400D03*
X197938600Y-114355400D03*
X197938600Y-113705400D03*
X197938600Y-113055400D03*
X197938600Y-112405400D03*
X197938600Y-111755400D03*
X197938600Y-111105400D03*
X203838600Y-111105400D03*
X203838600Y-111755400D03*
X203838600Y-112405400D03*
X203838600Y-113055400D03*
X203838600Y-113705400D03*
X203838600Y-114355400D03*
X203838600Y-115005400D03*
D14*
X197104000Y-118110000D03*
D15*
X199644000Y-118110000D03*
X202184000Y-118110000D03*
X204724000Y-118110000D03*
D12*
X199065000Y-107039000D03*
X199065000Y-108839000D03*
X202565000Y-107039000D03*
X202565000Y-108839000D03*
X199565000Y-107039000D03*
X200065000Y-107039000D03*
X200565000Y-107039000D03*
X201065000Y-107039000D03*
X201565000Y-107039000D03*
X202065000Y-107039000D03*
X199565000Y-108839000D03*
X200065000Y-108839000D03*
X200565000Y-108839000D03*
X201565000Y-108839000D03*
X201065000Y-108839000D03*
X202065000Y-108839000D03*
D13*
X180412600Y-115005400D03*
X180412600Y-114355400D03*
X180412600Y-113705400D03*
X180412600Y-113055400D03*
X180412600Y-112405400D03*
X180412600Y-111755400D03*
X180412600Y-111105400D03*
X186312600Y-111105400D03*
X186312600Y-111755400D03*
X186312600Y-112405400D03*
X186312600Y-113055400D03*
X186312600Y-113705400D03*
X186312600Y-114355400D03*
X186312600Y-115005400D03*
X162886600Y-115005400D03*
X162886600Y-114355400D03*
X162886600Y-113705400D03*
X162886600Y-113055400D03*
X162886600Y-112405400D03*
X162886600Y-111755400D03*
X162886600Y-111105400D03*
X168786600Y-111105400D03*
X168786600Y-111755400D03*
X168786600Y-112405400D03*
X168786600Y-113055400D03*
X168786600Y-113705400D03*
X168786600Y-114355400D03*
X168786600Y-115005400D03*
D12*
X164013000Y-107039000D03*
X164013000Y-108839000D03*
X167513000Y-107039000D03*
X167513000Y-108839000D03*
X164513000Y-107039000D03*
X165013000Y-107039000D03*
X165513000Y-107039000D03*
X166013000Y-107039000D03*
X166513000Y-107039000D03*
X167013000Y-107039000D03*
X164513000Y-108839000D03*
X165013000Y-108839000D03*
X165513000Y-108839000D03*
X166513000Y-108839000D03*
X166013000Y-108839000D03*
X167013000Y-108839000D03*
D14*
X162052000Y-118110000D03*
D15*
X164592000Y-118110000D03*
X167132000Y-118110000D03*
X169672000Y-118110000D03*
D11*
X161163000Y-115050000D03*
X161163000Y-113550000D03*
D14*
X144526000Y-118110000D03*
D15*
X147066000Y-118110000D03*
X149606000Y-118110000D03*
X152146000Y-118110000D03*
D12*
X146487000Y-107039000D03*
X146487000Y-108839000D03*
X149987000Y-107039000D03*
X149987000Y-108839000D03*
X146987000Y-107039000D03*
X147487000Y-107039000D03*
X147987000Y-107039000D03*
X148487000Y-107039000D03*
X148987000Y-107039000D03*
X149487000Y-107039000D03*
X146987000Y-108839000D03*
X147487000Y-108839000D03*
X147987000Y-108839000D03*
X148987000Y-108839000D03*
X148487000Y-108839000D03*
X149487000Y-108839000D03*
D11*
X143637000Y-115050000D03*
X143637000Y-113550000D03*
D13*
X145360600Y-115005400D03*
X145360600Y-114355400D03*
X145360600Y-113705400D03*
X145360600Y-113055400D03*
X145360600Y-112405400D03*
X145360600Y-111755400D03*
X145360600Y-111105400D03*
X151260600Y-111105400D03*
X151260600Y-111755400D03*
X151260600Y-112405400D03*
X151260600Y-113055400D03*
X151260600Y-113705400D03*
X151260600Y-114355400D03*
X151260600Y-115005400D03*
M02*
