M48
;DRILL file {KiCad 4.0.5+dfsg1-4} date Sat May  5 18:48:24 2018
;FORMAT={-:-/ absolute / inch / decimal}
FMAT,2
INCH,TZ
T1C0.016
T2C0.039
%
G90
G05
M72
T1
X5.645Y-4.36
X5.645Y-5.04
X5.7Y-4.3375
X5.7Y-5.0175
X5.7811Y-4.1786
X5.7811Y-4.8586
X5.8178Y-4.1682
X5.8178Y-4.8482
X5.8559Y-4.1673
X5.8559Y-4.8473
X5.8866Y-4.1774
X5.8866Y-4.8574
X5.953Y-4.369
X5.953Y-5.049
X5.9788Y-4.25
X5.9788Y-4.93
X6.005Y-4.514
X6.005Y-5.194
X6.03Y-4.265
X6.03Y-4.945
X6.335Y-4.36
X6.335Y-5.04
X6.39Y-4.3375
X6.39Y-5.0175
X6.4711Y-4.1786
X6.4711Y-4.8586
X6.5078Y-4.1682
X6.5078Y-4.8482
X6.5459Y-4.1673
X6.5459Y-4.8473
X6.5766Y-4.1774
X6.5766Y-4.8574
X6.643Y-4.369
X6.643Y-5.049
X6.6688Y-4.25
X6.6688Y-4.93
X6.695Y-4.514
X6.695Y-5.194
X6.72Y-4.265
X6.72Y-4.945
X7.025Y-4.36
X7.025Y-5.04
X7.08Y-4.3375
X7.08Y-5.0175
X7.1611Y-4.1786
X7.1611Y-4.8586
X7.1978Y-4.1682
X7.1978Y-4.8482
X7.2359Y-4.1673
X7.2359Y-4.8473
X7.2666Y-4.1774
X7.2666Y-4.8574
X7.333Y-4.369
X7.333Y-5.049
X7.3588Y-4.25
X7.3588Y-4.93
X7.385Y-4.514
X7.385Y-5.194
X7.41Y-4.265
X7.41Y-4.945
X7.715Y-4.36
X7.715Y-5.04
X7.77Y-4.3375
X7.77Y-5.0175
X7.8511Y-4.1786
X7.8511Y-4.8586
X7.8878Y-4.1682
X7.8878Y-4.8482
X7.9259Y-4.1673
X7.9259Y-4.8473
X7.9566Y-4.1774
X7.9566Y-4.8574
X8.023Y-4.369
X8.023Y-5.049
X8.0488Y-4.25
X8.0488Y-4.93
X8.075Y-4.514
X8.075Y-5.194
X8.1Y-4.265
X8.1Y-4.945
T2
X5.69Y-4.65
X5.69Y-5.33
X5.79Y-4.65
X5.79Y-5.33
X5.89Y-4.65
X5.89Y-5.33
X5.99Y-4.65
X5.99Y-5.33
X6.38Y-4.65
X6.38Y-5.33
X6.48Y-4.65
X6.48Y-5.33
X6.58Y-4.65
X6.58Y-5.33
X6.68Y-4.65
X6.68Y-5.33
X7.07Y-4.65
X7.07Y-5.33
X7.17Y-4.65
X7.17Y-5.33
X7.27Y-4.65
X7.27Y-5.33
X7.37Y-4.65
X7.37Y-5.33
X7.76Y-4.65
X7.76Y-5.33
X7.86Y-4.65
X7.86Y-5.33
X7.96Y-4.65
X7.96Y-5.33
X8.06Y-4.65
X8.06Y-5.33
T0
M30
