M48
;DRILL file {KiCad 4.0.5+dfsg1-4} date Sat May  5 18:48:24 2018
;FORMAT={-:-/ absolute / inch / decimal}
FMAT,2
INCH,TZ
T1C0.025
%
G90
G05
M72
T1
X5.46Y-4.4
X5.46Y-4.43
X5.46Y-4.46
X5.46Y-5.08
X5.46Y-5.11
X5.46Y-5.14
X5.52Y-4.4
X5.52Y-4.43
X5.52Y-4.46
X5.52Y-5.08
X5.52Y-5.11
X5.52Y-5.14
X5.8Y-4.06
X5.8Y-4.12
X5.8Y-4.74
X5.8Y-4.8
X5.8Y-5.42
X5.8Y-5.48
X5.83Y-4.06
X5.83Y-4.12
X5.83Y-4.74
X5.83Y-4.8
X5.83Y-5.42
X5.83Y-5.48
X5.86Y-4.06
X5.86Y-4.12
X5.86Y-4.74
X5.86Y-4.8
X5.86Y-5.42
X5.86Y-5.48
X6.15Y-4.4
X6.15Y-4.43
X6.15Y-4.46
X6.15Y-5.08
X6.15Y-5.11
X6.15Y-5.14
X6.21Y-4.4
X6.21Y-4.43
X6.21Y-4.46
X6.21Y-5.08
X6.21Y-5.11
X6.21Y-5.14
X6.49Y-4.06
X6.49Y-4.12
X6.49Y-4.74
X6.49Y-4.8
X6.49Y-5.42
X6.49Y-5.48
X6.52Y-4.06
X6.52Y-4.12
X6.52Y-4.74
X6.52Y-4.8
X6.52Y-5.42
X6.52Y-5.48
X6.55Y-4.06
X6.55Y-4.12
X6.55Y-4.74
X6.55Y-4.8
X6.55Y-5.42
X6.55Y-5.48
X6.84Y-4.4
X6.84Y-4.43
X6.84Y-4.46
X6.84Y-5.08
X6.84Y-5.11
X6.84Y-5.14
X6.9Y-4.4
X6.9Y-4.43
X6.9Y-4.46
X6.9Y-5.08
X6.9Y-5.11
X6.9Y-5.14
X7.18Y-4.06
X7.18Y-4.12
X7.18Y-4.74
X7.18Y-4.8
X7.18Y-5.42
X7.18Y-5.48
X7.21Y-4.06
X7.21Y-4.12
X7.21Y-4.74
X7.21Y-4.8
X7.21Y-5.42
X7.21Y-5.48
X7.24Y-4.06
X7.24Y-4.12
X7.24Y-4.74
X7.24Y-4.8
X7.24Y-5.42
X7.24Y-5.48
X7.53Y-4.4
X7.53Y-4.43
X7.53Y-4.46
X7.53Y-5.08
X7.53Y-5.11
X7.53Y-5.14
X7.59Y-4.4
X7.59Y-4.43
X7.59Y-4.46
X7.59Y-5.08
X7.59Y-5.11
X7.59Y-5.14
X7.87Y-4.06
X7.87Y-4.12
X7.87Y-4.74
X7.87Y-4.8
X7.87Y-5.42
X7.87Y-5.48
X7.9Y-4.06
X7.9Y-4.12
X7.9Y-4.74
X7.9Y-4.8
X7.9Y-5.42
X7.9Y-5.48
X7.93Y-4.06
X7.93Y-4.12
X7.93Y-4.74
X7.93Y-4.8
X7.93Y-5.42
X7.93Y-5.48
X8.22Y-4.4
X8.22Y-4.43
X8.22Y-4.46
X8.22Y-5.08
X8.22Y-5.11
X8.22Y-5.14
X8.28Y-4.4
X8.28Y-4.43
X8.28Y-4.46
X8.28Y-5.08
X8.28Y-5.11
X8.28Y-5.14
T0
M30
