G04 #@! TF.FileFunction,Profile,NP*
%FSLAX46Y46*%
G04 Gerber Fmt 4.6, Leading zero omitted, Abs format (unit mm)*
G04 Created by KiCad (PCBNEW 4.0.5+dfsg1-4) date Mon Jul 16 11:41:52 2018*
%MOMM*%
%LPD*%
G01*
G04 APERTURE LIST*
%ADD10C,0.100000*%
%ADD11C,0.150000*%
G04 APERTURE END LIST*
D10*
X108713044Y-117093063D02*
X108713045Y-114553062D01*
X106173044Y-119633063D02*
X106173042Y-114553062D01*
X106173044Y-112013062D02*
X106173044Y-90677063D01*
X108713043Y-122173063D02*
X108713044Y-119633062D01*
X106173044Y-122173062D02*
X106173043Y-119633062D01*
X106173044Y-151129063D02*
X98553043Y-151129063D01*
X106173044Y-146049062D02*
X106173044Y-124713062D01*
X108713043Y-146049062D02*
X108713043Y-124713062D01*
X108713043Y-151129063D02*
X108713044Y-148589062D01*
X106173044Y-151129061D02*
X106173043Y-148589062D01*
X106173044Y-51561063D02*
X98553043Y-51561063D01*
X98553043Y-51561063D02*
X98553043Y-151129063D01*
X108713043Y-112013062D02*
X108713043Y-90677063D01*
X108713043Y-54101062D02*
X108713045Y-51561063D01*
X106173045Y-54101062D02*
X106173042Y-51561063D01*
X108713044Y-77977062D02*
X108713043Y-56641062D01*
X108713043Y-83057062D02*
X108713045Y-80517063D01*
X108713044Y-88137062D02*
X108713045Y-85597062D01*
X106173044Y-88137062D02*
X106173042Y-85597062D01*
X106173044Y-85597062D02*
X106173042Y-80517063D01*
X106173043Y-77977062D02*
X106173044Y-56641062D01*
X187960000Y-151130000D02*
X187960000Y-51562000D01*
X180340000Y-151130000D02*
X187960000Y-151130000D01*
X180340000Y-51562000D02*
X187960000Y-51562000D01*
X177800000Y-119634000D02*
X177799999Y-122174000D01*
X177800000Y-124714000D02*
X177800000Y-146050000D01*
X180340000Y-117094000D02*
X180340001Y-122174000D01*
X180340000Y-124714000D02*
X180340000Y-146050000D01*
X180339999Y-148590000D02*
X180340001Y-151130000D01*
X177800000Y-148590000D02*
X177799999Y-151130000D01*
X177800000Y-85598000D02*
X177799999Y-88138000D01*
X177800000Y-90678000D02*
X177800000Y-112014000D01*
X180340000Y-83058000D02*
X180340001Y-88138000D01*
X180340000Y-90678000D02*
X180340000Y-112014000D01*
X180339999Y-114554000D02*
X180340001Y-117094000D01*
X177800000Y-114554000D02*
X177799999Y-117094000D01*
X177800000Y-51562000D02*
X177799999Y-54102000D01*
X180340000Y-56642000D02*
X180340000Y-77978000D01*
X177800000Y-56642000D02*
X177800000Y-77978000D01*
X180340000Y-51562001D02*
X180340001Y-54102000D01*
X180339999Y-80518000D02*
X180340001Y-83058000D01*
X177800000Y-80518000D02*
X177799999Y-83058000D01*
X156464001Y-83058000D02*
X159004000Y-83058000D01*
X177800000Y-83058000D02*
X172719999Y-83058000D01*
X159004000Y-83058000D02*
X172719999Y-83058000D01*
X177800000Y-51562000D02*
X156464000Y-51562001D01*
X153924000Y-51562000D02*
X153923999Y-54102000D01*
X153924000Y-51562000D02*
X132588000Y-51562000D01*
X132588000Y-51562000D02*
X132588000Y-54102000D01*
X130048000Y-51562000D02*
X108712000Y-51562001D01*
X130048000Y-51562000D02*
X130048000Y-54102000D01*
X130048000Y-80518000D02*
X130048000Y-83058000D01*
X130048000Y-83058000D02*
X124967999Y-83058000D01*
X108712000Y-83057999D02*
X111252000Y-83058000D01*
X111252000Y-83058000D02*
X124967999Y-83058000D01*
X132588000Y-80518000D02*
X132588000Y-83058000D01*
X135128000Y-83058000D02*
X148844000Y-83058000D01*
X153923999Y-83058000D02*
X148844000Y-83058000D01*
X132588000Y-83058000D02*
X135128000Y-83058000D01*
X132587999Y-56642000D02*
X132588001Y-77978000D01*
X130048000Y-56642000D02*
X130047999Y-77978000D01*
X156463999Y-80518000D02*
X156464001Y-83058000D01*
X153924000Y-80518000D02*
X153923999Y-83058000D01*
X156464000Y-56642000D02*
X156464000Y-77978000D01*
X153924000Y-56642000D02*
X153924000Y-77978000D01*
X156464000Y-51562001D02*
X156464001Y-54102000D01*
X177800000Y-85598000D02*
X156464000Y-85598001D01*
X130048000Y-119634000D02*
X108712000Y-119634000D01*
X130048000Y-119634000D02*
X130048000Y-122174000D01*
X130048000Y-124713999D02*
X130048000Y-146050000D01*
X108712000Y-151130000D02*
X111252000Y-151130000D01*
X111252000Y-151130000D02*
X124968000Y-151130001D01*
X130048000Y-148590000D02*
X130048000Y-151130000D01*
X130048000Y-151130000D02*
X124968000Y-151130001D01*
X132588000Y-148590000D02*
X132588000Y-151130000D01*
X132588000Y-151130000D02*
X135128000Y-151130001D01*
X153924000Y-119633999D02*
X153924000Y-122174000D01*
X132588000Y-119634000D02*
X132588000Y-122174000D01*
X153924000Y-119633999D02*
X132588000Y-119634000D01*
X153924000Y-151130001D02*
X148844000Y-151130000D01*
X153924000Y-148589999D02*
X153924000Y-151130001D01*
X135128000Y-151130001D02*
X148844000Y-151130000D01*
X132588000Y-124714000D02*
X132588000Y-146050000D01*
X153924000Y-124714000D02*
X153924000Y-146050000D01*
X156464000Y-124714000D02*
X156464000Y-146050000D01*
X156464000Y-148590000D02*
X156464000Y-151130000D01*
X159004000Y-151130000D02*
X172720000Y-151130001D01*
X177800000Y-151130000D02*
X172720000Y-151130001D01*
X156464000Y-151130000D02*
X159004000Y-151130000D01*
X177800000Y-119634000D02*
X156464000Y-119634000D01*
X156464000Y-119634000D02*
X156464000Y-122174000D01*
X153924000Y-90678000D02*
X153924000Y-112014000D01*
X156464000Y-90678000D02*
X156464000Y-112014000D01*
X159004000Y-117094000D02*
X172719999Y-117094000D01*
X177800000Y-117094000D02*
X172719999Y-117094000D01*
X132587999Y-90678000D02*
X132588001Y-112014000D01*
X132588000Y-114554000D02*
X132588000Y-117094000D01*
X132588000Y-117094000D02*
X135128000Y-117094000D01*
X135128000Y-117094000D02*
X148844000Y-117094000D01*
X156464000Y-85598001D02*
X156464001Y-88138000D01*
X153924000Y-85598000D02*
X132588000Y-85598000D01*
X132588000Y-85598000D02*
X132588000Y-88138000D01*
X153924000Y-85598000D02*
X153923999Y-88138000D01*
X153923999Y-117094000D02*
X148844000Y-117094000D01*
X153924000Y-114554000D02*
X153923999Y-117094000D01*
X156464001Y-117094000D02*
X159004000Y-117094000D01*
X156463999Y-114554000D02*
X156464001Y-117094000D01*
X130048000Y-114554000D02*
X130048000Y-117094000D01*
X130048000Y-117094000D02*
X124967999Y-117094000D01*
X130048000Y-90678000D02*
X130047999Y-112014000D01*
X111252000Y-117094000D02*
X124967999Y-117094000D01*
X130048000Y-85598000D02*
X108712000Y-85598001D01*
X130048000Y-85598000D02*
X130048000Y-88138000D01*
X108712000Y-117093999D02*
X111252000Y-117094000D01*
D11*
X106173045Y-122173062D02*
X108713045Y-122173062D01*
X108713045Y-124713062D02*
X106173045Y-124713062D01*
X106173044Y-146049061D02*
X108713044Y-146049061D01*
X108713044Y-148589061D02*
X106173044Y-148589061D01*
X106173044Y-112013062D02*
X108713044Y-112013062D01*
X108713044Y-114553062D02*
X106173044Y-114553062D01*
X106173044Y-88137062D02*
X108713044Y-88137062D01*
X108713044Y-90677062D02*
X106173044Y-90677062D01*
X106173045Y-77977061D02*
X108713045Y-77977061D01*
X108713045Y-80517061D02*
X106173045Y-80517061D01*
X106173045Y-54101062D02*
X108713045Y-54101062D01*
X108713045Y-56641062D02*
X106173045Y-56641062D01*
X180339999Y-148590000D02*
X177799999Y-148590000D01*
X177799999Y-146050000D02*
X180339999Y-146050000D01*
X180339999Y-124714001D02*
X177799999Y-124714001D01*
X177799999Y-122174001D02*
X180339999Y-122174001D01*
X180339999Y-114554000D02*
X177799999Y-114554000D01*
X177799999Y-112014000D02*
X180339999Y-112014000D01*
X180339999Y-90678001D02*
X177799999Y-90678001D01*
X177799999Y-88138001D02*
X180339999Y-88138001D01*
X180339999Y-56642001D02*
X177799999Y-56642001D01*
X177799999Y-54102001D02*
X180339999Y-54102001D01*
X180339999Y-80518000D02*
X177799999Y-80518000D01*
X177799999Y-77978000D02*
X180339999Y-77978000D01*
X156463999Y-56642001D02*
X153923999Y-56642001D01*
X153923999Y-54102001D02*
X156463999Y-54102001D01*
X156463999Y-80518000D02*
X153923999Y-80518000D01*
X153923999Y-77978000D02*
X156463999Y-77978000D01*
X132587999Y-56642000D02*
X130047999Y-56642000D01*
X130047999Y-54102000D02*
X132587999Y-54102000D01*
X132587999Y-80518001D02*
X130047999Y-80518001D01*
X130047999Y-77978001D02*
X132587999Y-77978001D01*
X132588000Y-124714000D02*
X130048000Y-124714000D01*
X130048000Y-122174000D02*
X132588000Y-122174000D01*
X132588000Y-148590000D02*
X130048000Y-148590000D01*
X130048000Y-146050000D02*
X132588000Y-146050000D01*
X156464000Y-148590000D02*
X153924000Y-148590000D01*
X153924000Y-146050000D02*
X156464000Y-146050000D01*
X156464000Y-124714000D02*
X153924000Y-124714000D01*
X153924000Y-122174000D02*
X156464000Y-122174000D01*
X156463999Y-114554000D02*
X153923999Y-114554000D01*
X153923999Y-112014000D02*
X156463999Y-112014000D01*
X132587999Y-90678000D02*
X130047999Y-90678000D01*
X130047999Y-88138000D02*
X132587999Y-88138000D01*
X156463999Y-90678001D02*
X153923999Y-90678001D01*
X153923999Y-88138001D02*
X156463999Y-88138001D01*
X132587999Y-114554001D02*
X130047999Y-114554001D01*
X130047999Y-112014001D02*
X132587999Y-112014001D01*
M02*
