M48
;DRILL file {KiCad 4.0.5+dfsg1-4} date Mon Jul 16 11:41:55 2018
;FORMAT={-:-/ absolute / inch / decimal}
FMAT,2
INCH,TZ
T1C0.025
T2C0.126
%
G90
G05
M72
T1
X4.2Y-3.49
X4.2Y-3.52
X4.2Y-3.55
X4.2Y-4.43
X4.2Y-4.46
X4.2Y-4.49
X4.2Y-5.77
X4.2Y-5.8
X4.2Y-5.83
X4.2Y-2.15
X4.2Y-2.18
X4.2Y-2.21
X4.2Y-3.09
X4.2Y-3.12
X4.2Y-3.15
X4.2Y-4.83
X4.2Y-4.86
X4.2Y-4.89
X4.26Y-3.49
X4.26Y-3.52
X4.26Y-3.55
X4.26Y-4.43
X4.26Y-4.46
X4.26Y-4.49
X4.26Y-5.77
X4.26Y-5.8
X4.26Y-5.83
X4.26Y-2.15
X4.26Y-2.18
X4.26Y-2.21
X4.26Y-3.09
X4.26Y-3.12
X4.26Y-3.15
X4.26Y-4.83
X4.26Y-4.86
X4.26Y-4.89
X5.14Y-2.15
X5.14Y-2.18
X5.14Y-2.21
X5.14Y-3.09
X5.14Y-3.12
X5.14Y-3.15
X5.14Y-3.49
X5.14Y-3.52
X5.14Y-3.55
X5.14Y-4.43
X5.14Y-4.46
X5.14Y-4.49
X5.14Y-4.83
X5.14Y-4.86
X5.14Y-4.89
X5.14Y-5.77
X5.14Y-5.8
X5.14Y-5.83
X5.2Y-2.15
X5.2Y-2.18
X5.2Y-2.21
X5.2Y-3.09
X5.2Y-3.12
X5.2Y-3.15
X5.2Y-3.49
X5.2Y-3.52
X5.2Y-3.55
X5.2Y-4.43
X5.2Y-4.46
X5.2Y-4.49
X5.2Y-4.83
X5.2Y-4.86
X5.2Y-4.89
X5.2Y-5.77
X5.2Y-5.8
X5.2Y-5.83
X6.08Y-2.15
X6.08Y-2.18
X6.08Y-2.21
X6.08Y-3.09
X6.08Y-3.12
X6.08Y-3.15
X6.08Y-3.49
X6.08Y-3.52
X6.08Y-3.55
X6.08Y-4.43
X6.08Y-4.46
X6.08Y-4.49
X6.08Y-4.83
X6.08Y-4.86
X6.08Y-4.89
X6.08Y-5.77
X6.08Y-5.8
X6.08Y-5.83
X6.14Y-2.15
X6.14Y-2.18
X6.14Y-2.21
X6.14Y-3.09
X6.14Y-3.12
X6.14Y-3.15
X6.14Y-3.49
X6.14Y-3.52
X6.14Y-3.55
X6.14Y-4.43
X6.14Y-4.46
X6.14Y-4.49
X6.14Y-4.83
X6.14Y-4.86
X6.14Y-4.89
X6.14Y-5.77
X6.14Y-5.8
X6.14Y-5.83
X7.02Y-2.15
X7.02Y-2.18
X7.02Y-2.21
X7.02Y-3.09
X7.02Y-3.12
X7.02Y-3.15
X7.02Y-3.49
X7.02Y-3.52
X7.02Y-3.55
X7.02Y-4.43
X7.02Y-4.46
X7.02Y-4.49
X7.02Y-4.83
X7.02Y-4.86
X7.02Y-4.89
X7.02Y-5.77
X7.02Y-5.8
X7.02Y-5.83
X7.08Y-2.15
X7.08Y-2.18
X7.08Y-2.21
X7.08Y-3.09
X7.08Y-3.12
X7.08Y-3.15
X7.08Y-3.49
X7.08Y-3.52
X7.08Y-3.55
X7.08Y-4.43
X7.08Y-4.46
X7.08Y-4.49
X7.08Y-4.83
X7.08Y-4.86
X7.08Y-4.89
X7.08Y-5.77
X7.08Y-5.8
X7.08Y-5.83
T2
X4.03Y-2.3775
X4.03Y-5.6025
X7.25Y-2.3775
X7.25Y-5.6025
T0
M30
