M48
;DRILL file {KiCad 4.0.5+dfsg1-4} date Mon Jul 16 11:41:55 2018
;FORMAT={-:-/ absolute / inch / decimal}
FMAT,2
INCH,TZ
T1C0.016
T2C0.040
%
G90
G05
M72
T1
X4.4975Y-3.16
X4.4975Y-4.5
X4.4975Y-5.84
X4.54Y-2.7625
X4.54Y-4.1025
X4.54Y-5.4425
X4.59Y-2.8125
X4.59Y-4.1525
X4.59Y-5.4925
X4.625Y-2.383
X4.625Y-3.723
X4.625Y-5.063
X4.6497Y-2.9341
X4.6497Y-4.2741
X4.6497Y-5.6141
X4.6575Y-3.23
X4.6575Y-4.57
X4.6575Y-5.91
X4.665Y-2.66
X4.665Y-4.
X4.665Y-5.34
X4.6949Y-2.274
X4.6949Y-3.614
X4.6949Y-4.954
X4.6975Y-3.1506
X4.6975Y-4.4906
X4.6975Y-5.8306
X4.6977Y-2.8861
X4.6977Y-2.9822
X4.6977Y-4.2261
X4.6977Y-4.3222
X4.6977Y-5.5661
X4.6977Y-5.6622
X4.7275Y-2.275
X4.7275Y-3.615
X4.7275Y-4.955
X4.7325Y-2.66
X4.7325Y-4.
X4.7325Y-5.34
X4.7375Y-3.23
X4.7375Y-4.57
X4.7375Y-2.7975
X4.7375Y-4.1375
X4.7375Y-5.4775
X4.7375Y-5.91
X4.7457Y-5.6141
X4.7457Y-2.9341
X4.7457Y-4.2741
X4.8475Y-2.98
X4.8475Y-4.32
X4.8475Y-5.66
X5.4375Y-3.16
X5.4375Y-4.5
X5.4375Y-5.84
X5.48Y-2.7625
X5.48Y-4.1025
X5.48Y-5.4425
X5.53Y-2.8125
X5.53Y-4.1525
X5.53Y-5.4925
X5.565Y-2.383
X5.565Y-3.723
X5.565Y-5.063
X5.5897Y-2.9341
X5.5897Y-4.2741
X5.5897Y-5.6141
X5.5975Y-3.23
X5.5975Y-4.57
X5.5975Y-5.91
X5.605Y-2.66
X5.605Y-4.
X5.605Y-5.34
X5.6349Y-2.274
X5.6349Y-3.614
X5.6349Y-4.954
X5.6375Y-3.1506
X5.6375Y-4.4906
X5.6375Y-5.8306
X5.6377Y-2.8861
X5.6377Y-2.9822
X5.6377Y-4.2261
X5.6377Y-4.3222
X5.6377Y-5.5661
X5.6377Y-5.6622
X5.6675Y-2.275
X5.6675Y-3.615
X5.6675Y-4.955
X5.6725Y-2.66
X5.6725Y-4.
X5.6725Y-5.34
X5.6775Y-2.7975
X5.6775Y-3.23
X5.6775Y-4.1375
X5.6775Y-4.57
X5.6775Y-5.4775
X5.6775Y-5.91
X5.6857Y-2.9341
X5.6857Y-4.2741
X5.6857Y-5.6141
X5.7875Y-2.98
X5.7875Y-4.32
X5.7875Y-5.66
X6.3775Y-3.16
X6.3775Y-4.5
X6.3775Y-5.84
X6.42Y-2.7625
X6.42Y-4.1025
X6.42Y-5.4425
X6.47Y-2.8125
X6.47Y-4.1525
X6.47Y-5.4925
X6.505Y-2.383
X6.505Y-3.723
X6.505Y-5.063
X6.5297Y-2.9341
X6.5297Y-4.2741
X6.5297Y-5.6141
X6.5375Y-3.23
X6.5375Y-4.57
X6.5375Y-5.91
X6.545Y-2.66
X6.545Y-4.
X6.545Y-5.34
X6.5749Y-2.274
X6.5749Y-3.614
X6.5749Y-4.954
X6.5775Y-3.1506
X6.5775Y-4.4906
X6.5775Y-5.8306
X6.5777Y-2.8861
X6.5777Y-2.9822
X6.5777Y-4.2261
X6.5777Y-4.3222
X6.5777Y-5.5661
X6.5777Y-5.6622
X6.6075Y-2.275
X6.6075Y-3.615
X6.6075Y-4.955
X6.6125Y-2.66
X6.6125Y-4.
X6.6125Y-5.34
X6.6175Y-2.7975
X6.6175Y-3.23
X6.6175Y-4.1375
X6.6175Y-4.57
X6.6175Y-5.4775
X6.6175Y-5.91
X6.6257Y-5.6141
X6.6257Y-2.9341
X6.6257Y-4.2741
X6.7275Y-2.98
X6.7275Y-4.32
X6.7275Y-5.66
T2
X4.35Y-2.1
X4.35Y-2.2
X4.35Y-2.3
X4.35Y-2.4
X4.35Y-2.5
X4.35Y-2.6
X4.35Y-2.7
X4.35Y-2.8
X4.35Y-2.9
X4.35Y-3.
X4.35Y-3.1
X4.35Y-3.2
X4.35Y-3.44
X4.35Y-3.54
X4.35Y-3.64
X4.35Y-3.74
X4.35Y-3.84
X4.35Y-3.94
X4.35Y-4.04
X4.35Y-4.14
X4.35Y-4.24
X4.35Y-4.34
X4.35Y-4.44
X4.35Y-4.54
X4.35Y-4.78
X4.35Y-4.88
X4.35Y-4.98
X4.35Y-5.08
X4.35Y-5.18
X4.35Y-5.28
X4.35Y-5.38
X4.35Y-5.48
X4.35Y-5.58
X4.35Y-5.68
X4.35Y-5.78
X4.35Y-5.88
X5.05Y-2.1
X5.05Y-2.2
X5.05Y-2.3
X5.05Y-2.4
X5.05Y-2.5
X5.05Y-2.6
X5.05Y-2.7
X5.05Y-2.8
X5.05Y-2.9
X5.05Y-3.
X5.05Y-3.1
X5.05Y-3.2
X5.05Y-3.44
X5.05Y-3.54
X5.05Y-3.64
X5.05Y-3.74
X5.05Y-3.84
X5.05Y-3.94
X5.05Y-4.04
X5.05Y-4.14
X5.05Y-4.24
X5.05Y-4.34
X5.05Y-4.44
X5.05Y-4.54
X5.05Y-4.78
X5.05Y-4.88
X5.05Y-4.98
X5.05Y-5.08
X5.05Y-5.18
X5.05Y-5.28
X5.05Y-5.38
X5.05Y-5.48
X5.05Y-5.58
X5.05Y-5.68
X5.05Y-5.78
X5.05Y-5.88
X5.29Y-2.1
X5.29Y-2.2
X5.29Y-2.3
X5.29Y-2.4
X5.29Y-2.5
X5.29Y-2.6
X5.29Y-2.7
X5.29Y-2.8
X5.29Y-2.9
X5.29Y-3.
X5.29Y-3.1
X5.29Y-3.2
X5.29Y-3.44
X5.29Y-3.54
X5.29Y-3.64
X5.29Y-3.74
X5.29Y-3.84
X5.29Y-3.94
X5.29Y-4.04
X5.29Y-4.14
X5.29Y-4.24
X5.29Y-4.34
X5.29Y-4.44
X5.29Y-4.54
X5.29Y-4.78
X5.29Y-4.88
X5.29Y-4.98
X5.29Y-5.08
X5.29Y-5.18
X5.29Y-5.28
X5.29Y-5.38
X5.29Y-5.48
X5.29Y-5.58
X5.29Y-5.68
X5.29Y-5.78
X5.29Y-5.88
X5.99Y-2.1
X5.99Y-2.2
X5.99Y-2.3
X5.99Y-2.4
X5.99Y-2.5
X5.99Y-2.6
X5.99Y-2.7
X5.99Y-2.8
X5.99Y-2.9
X5.99Y-3.
X5.99Y-3.1
X5.99Y-3.2
X5.99Y-3.44
X5.99Y-3.54
X5.99Y-3.64
X5.99Y-3.74
X5.99Y-3.84
X5.99Y-3.94
X5.99Y-4.04
X5.99Y-4.14
X5.99Y-4.24
X5.99Y-4.34
X5.99Y-4.44
X5.99Y-4.54
X5.99Y-4.78
X5.99Y-4.88
X5.99Y-4.98
X5.99Y-5.08
X5.99Y-5.18
X5.99Y-5.28
X5.99Y-5.38
X5.99Y-5.48
X5.99Y-5.58
X5.99Y-5.68
X5.99Y-5.78
X5.99Y-5.88
X6.23Y-2.1
X6.23Y-2.2
X6.23Y-2.3
X6.23Y-2.4
X6.23Y-2.5
X6.23Y-2.6
X6.23Y-2.7
X6.23Y-2.8
X6.23Y-2.9
X6.23Y-3.
X6.23Y-3.1
X6.23Y-3.2
X6.23Y-3.44
X6.23Y-3.54
X6.23Y-3.64
X6.23Y-3.74
X6.23Y-3.84
X6.23Y-3.94
X6.23Y-4.04
X6.23Y-4.14
X6.23Y-4.24
X6.23Y-4.34
X6.23Y-4.44
X6.23Y-4.54
X6.23Y-4.78
X6.23Y-4.88
X6.23Y-4.98
X6.23Y-5.08
X6.23Y-5.18
X6.23Y-5.28
X6.23Y-5.38
X6.23Y-5.48
X6.23Y-5.58
X6.23Y-5.68
X6.23Y-5.78
X6.23Y-5.88
X6.93Y-2.1
X6.93Y-2.2
X6.93Y-2.3
X6.93Y-2.4
X6.93Y-2.5
X6.93Y-2.6
X6.93Y-2.7
X6.93Y-2.8
X6.93Y-2.9
X6.93Y-3.
X6.93Y-3.1
X6.93Y-3.2
X6.93Y-3.44
X6.93Y-3.54
X6.93Y-3.64
X6.93Y-3.74
X6.93Y-3.84
X6.93Y-3.94
X6.93Y-4.04
X6.93Y-4.14
X6.93Y-4.24
X6.93Y-4.34
X6.93Y-4.44
X6.93Y-4.54
X6.93Y-4.78
X6.93Y-4.88
X6.93Y-4.98
X6.93Y-5.08
X6.93Y-5.18
X6.93Y-5.28
X6.93Y-5.38
X6.93Y-5.48
X6.93Y-5.58
X6.93Y-5.68
X6.93Y-5.78
X6.93Y-5.88
T0
M30
