G04 #@! TF.FileFunction,Legend,Bot*
%FSLAX46Y46*%
G04 Gerber Fmt 4.6, Leading zero omitted, Abs format (unit mm)*
G04 Created by KiCad (PCBNEW 4.0.5+dfsg1-4) date Mon Jul 16 11:41:52 2018*
%MOMM*%
%LPD*%
G01*
G04 APERTURE LIST*
%ADD10C,0.100000*%
%ADD11C,0.150000*%
%ADD12C,0.158750*%
%ADD13C,0.762000*%
%ADD14C,0.375000*%
%ADD15C,0.010000*%
G04 APERTURE END LIST*
D10*
D11*
X126357070Y-80742286D02*
X125928499Y-80742286D01*
X126142785Y-81492286D02*
X126142785Y-80742286D01*
X125678499Y-81492286D02*
X125678499Y-80742286D01*
X125678499Y-81099429D02*
X125249927Y-81099429D01*
X125249927Y-81492286D02*
X125249927Y-80742286D01*
X124892785Y-80742286D02*
X124892785Y-81349429D01*
X124857070Y-81420857D01*
X124821356Y-81456571D01*
X124749927Y-81492286D01*
X124607070Y-81492286D01*
X124535642Y-81456571D01*
X124499927Y-81420857D01*
X124464213Y-81349429D01*
X124464213Y-80742286D01*
X124107071Y-81492286D02*
X124107071Y-80742286D01*
X123678499Y-81492286D01*
X123678499Y-80742286D01*
X123321357Y-81492286D02*
X123321357Y-80742286D01*
X122892785Y-81492286D02*
X123214214Y-81063714D01*
X122892785Y-80742286D02*
X123321357Y-81170857D01*
X122571357Y-81492286D02*
X122571357Y-80742286D01*
X122321356Y-80742286D02*
X121892785Y-80742286D01*
X122107071Y-81492286D02*
X122107071Y-80742286D01*
X121071356Y-81099429D02*
X120821356Y-81099429D01*
X120714213Y-81492286D02*
X121071356Y-81492286D01*
X121071356Y-80742286D01*
X120714213Y-80742286D01*
X120035642Y-81492286D02*
X120392785Y-81492286D01*
X120392785Y-80742286D01*
X119785642Y-81099429D02*
X119535642Y-81099429D01*
X119428499Y-81492286D02*
X119785642Y-81492286D01*
X119785642Y-80742286D01*
X119428499Y-80742286D01*
X118678499Y-81420857D02*
X118714213Y-81456571D01*
X118821356Y-81492286D01*
X118892785Y-81492286D01*
X118999928Y-81456571D01*
X119071356Y-81385143D01*
X119107071Y-81313714D01*
X119142785Y-81170857D01*
X119142785Y-81063714D01*
X119107071Y-80920857D01*
X119071356Y-80849429D01*
X118999928Y-80778000D01*
X118892785Y-80742286D01*
X118821356Y-80742286D01*
X118714213Y-80778000D01*
X118678499Y-80813714D01*
X118464213Y-80742286D02*
X118035642Y-80742286D01*
X118249928Y-81492286D02*
X118249928Y-80742286D01*
X117357070Y-81492286D02*
X117607070Y-81135143D01*
X117785642Y-81492286D02*
X117785642Y-80742286D01*
X117499927Y-80742286D01*
X117428499Y-80778000D01*
X117392784Y-80813714D01*
X117357070Y-80885143D01*
X117357070Y-80992286D01*
X117392784Y-81063714D01*
X117428499Y-81099429D01*
X117499927Y-81135143D01*
X117785642Y-81135143D01*
X116892784Y-80742286D02*
X116749927Y-80742286D01*
X116678499Y-80778000D01*
X116607070Y-80849429D01*
X116571356Y-80992286D01*
X116571356Y-81242286D01*
X116607070Y-81385143D01*
X116678499Y-81456571D01*
X116749927Y-81492286D01*
X116892784Y-81492286D01*
X116964213Y-81456571D01*
X117035642Y-81385143D01*
X117071356Y-81242286D01*
X117071356Y-80992286D01*
X117035642Y-80849429D01*
X116964213Y-80778000D01*
X116892784Y-80742286D01*
X116249928Y-81492286D02*
X116249928Y-80742286D01*
X115821356Y-81492286D01*
X115821356Y-80742286D01*
X115464214Y-81492286D02*
X115464214Y-80742286D01*
X114678499Y-81420857D02*
X114714213Y-81456571D01*
X114821356Y-81492286D01*
X114892785Y-81492286D01*
X114999928Y-81456571D01*
X115071356Y-81385143D01*
X115107071Y-81313714D01*
X115142785Y-81170857D01*
X115142785Y-81063714D01*
X115107071Y-80920857D01*
X115071356Y-80849429D01*
X114999928Y-80778000D01*
X114892785Y-80742286D01*
X114821356Y-80742286D01*
X114714213Y-80778000D01*
X114678499Y-80813714D01*
X114392785Y-81456571D02*
X114285642Y-81492286D01*
X114107071Y-81492286D01*
X114035642Y-81456571D01*
X113999928Y-81420857D01*
X113964213Y-81349429D01*
X113964213Y-81278000D01*
X113999928Y-81206571D01*
X114035642Y-81170857D01*
X114107071Y-81135143D01*
X114249928Y-81099429D01*
X114321356Y-81063714D01*
X114357071Y-81028000D01*
X114392785Y-80956571D01*
X114392785Y-80885143D01*
X114357071Y-80813714D01*
X114321356Y-80778000D01*
X114249928Y-80742286D01*
X114071356Y-80742286D01*
X113964213Y-80778000D01*
D12*
X125166815Y-68392524D02*
X125008065Y-67122524D01*
X124705684Y-67122524D01*
X124531816Y-67183000D01*
X124425982Y-67303952D01*
X124380625Y-67424905D01*
X124350387Y-67666810D01*
X124373066Y-67848238D01*
X124463780Y-68090143D01*
X124539375Y-68211095D01*
X124675447Y-68332048D01*
X124864434Y-68392524D01*
X125166815Y-68392524D01*
X123405447Y-68332048D02*
X123533958Y-68392524D01*
X123775863Y-68392524D01*
X123889256Y-68332048D01*
X123934613Y-68211095D01*
X123874137Y-67727286D01*
X123798542Y-67606333D01*
X123670030Y-67545857D01*
X123428125Y-67545857D01*
X123314733Y-67606333D01*
X123269375Y-67727286D01*
X123284494Y-67848238D01*
X123904375Y-67969190D01*
X122823363Y-67545857D02*
X122626815Y-68392524D01*
X122218602Y-67545857D01*
X121349257Y-68332048D02*
X121477768Y-68392524D01*
X121719673Y-68392524D01*
X121833066Y-68332048D01*
X121878423Y-68211095D01*
X121817947Y-67727286D01*
X121742352Y-67606333D01*
X121613840Y-67545857D01*
X121371935Y-67545857D01*
X121258543Y-67606333D01*
X121213185Y-67727286D01*
X121228304Y-67848238D01*
X121848185Y-67969190D01*
X120570625Y-68392524D02*
X120684019Y-68332048D01*
X120729376Y-68211095D01*
X120593304Y-67122524D01*
X119905387Y-68392524D02*
X120018781Y-68332048D01*
X120071697Y-68271571D01*
X120117054Y-68150619D01*
X120071697Y-67787762D01*
X119996102Y-67666810D01*
X119928067Y-67606333D01*
X119799554Y-67545857D01*
X119618126Y-67545857D01*
X119504734Y-67606333D01*
X119451816Y-67666810D01*
X119406459Y-67787762D01*
X119451816Y-68150619D01*
X119527411Y-68271571D01*
X119595448Y-68332048D01*
X119723959Y-68392524D01*
X119905387Y-68392524D01*
X118831935Y-67545857D02*
X118990685Y-68815857D01*
X118839495Y-67606333D02*
X118710983Y-67545857D01*
X118469078Y-67545857D01*
X118355686Y-67606333D01*
X118302768Y-67666810D01*
X118257411Y-67787762D01*
X118302768Y-68150619D01*
X118378363Y-68271571D01*
X118446400Y-68332048D01*
X118574911Y-68392524D01*
X118816816Y-68392524D01*
X118930209Y-68332048D01*
X117788720Y-68392524D02*
X117682887Y-67545857D01*
X117698006Y-67666810D02*
X117629971Y-67606333D01*
X117501458Y-67545857D01*
X117320030Y-67545857D01*
X117206638Y-67606333D01*
X117161280Y-67727286D01*
X117244434Y-68392524D01*
X117161280Y-67727286D02*
X117085685Y-67606333D01*
X116957173Y-67545857D01*
X116775744Y-67545857D01*
X116662352Y-67606333D01*
X116616995Y-67727286D01*
X116700149Y-68392524D01*
X115604019Y-68332048D02*
X115732530Y-68392524D01*
X115974435Y-68392524D01*
X116087828Y-68332048D01*
X116133185Y-68211095D01*
X116072709Y-67727286D01*
X115997114Y-67606333D01*
X115868602Y-67545857D01*
X115626697Y-67545857D01*
X115513305Y-67606333D01*
X115467947Y-67727286D01*
X115483066Y-67848238D01*
X116102947Y-67969190D01*
X114900983Y-67545857D02*
X115006816Y-68392524D01*
X114916102Y-67666810D02*
X114848067Y-67606333D01*
X114719554Y-67545857D01*
X114538126Y-67545857D01*
X114424734Y-67606333D01*
X114379376Y-67727286D01*
X114462530Y-68392524D01*
X113933364Y-67545857D02*
X113449554Y-67545857D01*
X113699018Y-67122524D02*
X113835090Y-68211095D01*
X113789733Y-68332048D01*
X113676339Y-68392524D01*
X113555387Y-68392524D01*
D13*
X124686785Y-63354857D02*
X122799928Y-63354857D01*
X123961071Y-64516000D01*
X123525643Y-64516000D01*
X123253500Y-64661143D01*
X123126500Y-64806286D01*
X123017642Y-65096571D01*
X123108357Y-65822286D01*
X123289785Y-66112571D01*
X123453071Y-66257714D01*
X123761500Y-66402857D01*
X124632357Y-66402857D01*
X124904500Y-66257714D01*
X125031499Y-66112571D01*
X121675072Y-63645143D02*
X121511786Y-63500000D01*
X121203357Y-63354857D01*
X120477643Y-63354857D01*
X120205500Y-63500000D01*
X120078500Y-63645143D01*
X119969643Y-63935429D01*
X120005928Y-64225714D01*
X120205500Y-64661143D01*
X122164928Y-66402857D01*
X120278071Y-66402857D01*
X118590786Y-63354857D02*
X118899215Y-65822286D01*
X118790357Y-66112571D01*
X118663357Y-66257714D01*
X118391214Y-66402857D01*
X117810643Y-66402857D01*
X117502214Y-66257714D01*
X117338928Y-66112571D01*
X117157500Y-65822286D01*
X116849071Y-63354857D01*
X115579072Y-63645143D02*
X115415786Y-63500000D01*
X115107357Y-63354857D01*
X114381643Y-63354857D01*
X114109500Y-63500000D01*
X113982500Y-63645143D01*
X113873643Y-63935429D01*
X113909928Y-64225714D01*
X114109500Y-64661143D01*
X116068928Y-66402857D01*
X114182071Y-66402857D01*
D14*
X124944214Y-69536571D02*
X124015643Y-69536571D01*
X124515643Y-70108000D01*
X124301357Y-70108000D01*
X124158500Y-70179429D01*
X124087071Y-70250857D01*
X124015643Y-70393714D01*
X124015643Y-70750857D01*
X124087071Y-70893714D01*
X124158500Y-70965143D01*
X124301357Y-71036571D01*
X124729929Y-71036571D01*
X124872786Y-70965143D01*
X124944214Y-70893714D01*
X123372786Y-70893714D02*
X123301358Y-70965143D01*
X123372786Y-71036571D01*
X123444215Y-70965143D01*
X123372786Y-70893714D01*
X123372786Y-71036571D01*
X122801357Y-69536571D02*
X121872786Y-69536571D01*
X122372786Y-70108000D01*
X122158500Y-70108000D01*
X122015643Y-70179429D01*
X121944214Y-70250857D01*
X121872786Y-70393714D01*
X121872786Y-70750857D01*
X121944214Y-70893714D01*
X122015643Y-70965143D01*
X122158500Y-71036571D01*
X122587072Y-71036571D01*
X122729929Y-70965143D01*
X122801357Y-70893714D01*
X121444215Y-69536571D02*
X120944215Y-71036571D01*
X120444215Y-69536571D01*
X118587072Y-70179429D02*
X118729930Y-70108000D01*
X118801358Y-70036571D01*
X118872787Y-69893714D01*
X118872787Y-69822286D01*
X118801358Y-69679429D01*
X118729930Y-69608000D01*
X118587072Y-69536571D01*
X118301358Y-69536571D01*
X118158501Y-69608000D01*
X118087072Y-69679429D01*
X118015644Y-69822286D01*
X118015644Y-69893714D01*
X118087072Y-70036571D01*
X118158501Y-70108000D01*
X118301358Y-70179429D01*
X118587072Y-70179429D01*
X118729930Y-70250857D01*
X118801358Y-70322286D01*
X118872787Y-70465143D01*
X118872787Y-70750857D01*
X118801358Y-70893714D01*
X118729930Y-70965143D01*
X118587072Y-71036571D01*
X118301358Y-71036571D01*
X118158501Y-70965143D01*
X118087072Y-70893714D01*
X118015644Y-70750857D01*
X118015644Y-70465143D01*
X118087072Y-70322286D01*
X118158501Y-70250857D01*
X118301358Y-70179429D01*
X117372787Y-71036571D02*
X117372787Y-69536571D01*
X116872787Y-70608000D01*
X116372787Y-69536571D01*
X116372787Y-71036571D01*
X115658501Y-71036571D02*
X115658501Y-69536571D01*
X115658501Y-70250857D02*
X114801358Y-70250857D01*
X114801358Y-71036571D02*
X114801358Y-69536571D01*
X114229929Y-70036571D02*
X113444215Y-70036571D01*
X114229929Y-71036571D01*
X113444215Y-71036571D01*
D11*
X150233071Y-80742286D02*
X149804500Y-80742286D01*
X150018786Y-81492286D02*
X150018786Y-80742286D01*
X149554500Y-81492286D02*
X149554500Y-80742286D01*
X149554500Y-81099429D02*
X149125928Y-81099429D01*
X149125928Y-81492286D02*
X149125928Y-80742286D01*
X148768786Y-80742286D02*
X148768786Y-81349429D01*
X148733071Y-81420857D01*
X148697357Y-81456571D01*
X148625928Y-81492286D01*
X148483071Y-81492286D01*
X148411643Y-81456571D01*
X148375928Y-81420857D01*
X148340214Y-81349429D01*
X148340214Y-80742286D01*
X147983072Y-81492286D02*
X147983072Y-80742286D01*
X147554500Y-81492286D01*
X147554500Y-80742286D01*
X147197358Y-81492286D02*
X147197358Y-80742286D01*
X146768786Y-81492286D02*
X147090215Y-81063714D01*
X146768786Y-80742286D02*
X147197358Y-81170857D01*
X146447358Y-81492286D02*
X146447358Y-80742286D01*
X146197357Y-80742286D02*
X145768786Y-80742286D01*
X145983072Y-81492286D02*
X145983072Y-80742286D01*
X144947357Y-81099429D02*
X144697357Y-81099429D01*
X144590214Y-81492286D02*
X144947357Y-81492286D01*
X144947357Y-80742286D01*
X144590214Y-80742286D01*
X143911643Y-81492286D02*
X144268786Y-81492286D01*
X144268786Y-80742286D01*
X143661643Y-81099429D02*
X143411643Y-81099429D01*
X143304500Y-81492286D02*
X143661643Y-81492286D01*
X143661643Y-80742286D01*
X143304500Y-80742286D01*
X142554500Y-81420857D02*
X142590214Y-81456571D01*
X142697357Y-81492286D01*
X142768786Y-81492286D01*
X142875929Y-81456571D01*
X142947357Y-81385143D01*
X142983072Y-81313714D01*
X143018786Y-81170857D01*
X143018786Y-81063714D01*
X142983072Y-80920857D01*
X142947357Y-80849429D01*
X142875929Y-80778000D01*
X142768786Y-80742286D01*
X142697357Y-80742286D01*
X142590214Y-80778000D01*
X142554500Y-80813714D01*
X142340214Y-80742286D02*
X141911643Y-80742286D01*
X142125929Y-81492286D02*
X142125929Y-80742286D01*
X141233071Y-81492286D02*
X141483071Y-81135143D01*
X141661643Y-81492286D02*
X141661643Y-80742286D01*
X141375928Y-80742286D01*
X141304500Y-80778000D01*
X141268785Y-80813714D01*
X141233071Y-80885143D01*
X141233071Y-80992286D01*
X141268785Y-81063714D01*
X141304500Y-81099429D01*
X141375928Y-81135143D01*
X141661643Y-81135143D01*
X140768785Y-80742286D02*
X140625928Y-80742286D01*
X140554500Y-80778000D01*
X140483071Y-80849429D01*
X140447357Y-80992286D01*
X140447357Y-81242286D01*
X140483071Y-81385143D01*
X140554500Y-81456571D01*
X140625928Y-81492286D01*
X140768785Y-81492286D01*
X140840214Y-81456571D01*
X140911643Y-81385143D01*
X140947357Y-81242286D01*
X140947357Y-80992286D01*
X140911643Y-80849429D01*
X140840214Y-80778000D01*
X140768785Y-80742286D01*
X140125929Y-81492286D02*
X140125929Y-80742286D01*
X139697357Y-81492286D01*
X139697357Y-80742286D01*
X139340215Y-81492286D02*
X139340215Y-80742286D01*
X138554500Y-81420857D02*
X138590214Y-81456571D01*
X138697357Y-81492286D01*
X138768786Y-81492286D01*
X138875929Y-81456571D01*
X138947357Y-81385143D01*
X138983072Y-81313714D01*
X139018786Y-81170857D01*
X139018786Y-81063714D01*
X138983072Y-80920857D01*
X138947357Y-80849429D01*
X138875929Y-80778000D01*
X138768786Y-80742286D01*
X138697357Y-80742286D01*
X138590214Y-80778000D01*
X138554500Y-80813714D01*
X138268786Y-81456571D02*
X138161643Y-81492286D01*
X137983072Y-81492286D01*
X137911643Y-81456571D01*
X137875929Y-81420857D01*
X137840214Y-81349429D01*
X137840214Y-81278000D01*
X137875929Y-81206571D01*
X137911643Y-81170857D01*
X137983072Y-81135143D01*
X138125929Y-81099429D01*
X138197357Y-81063714D01*
X138233072Y-81028000D01*
X138268786Y-80956571D01*
X138268786Y-80885143D01*
X138233072Y-80813714D01*
X138197357Y-80778000D01*
X138125929Y-80742286D01*
X137947357Y-80742286D01*
X137840214Y-80778000D01*
D12*
X149042814Y-68392524D02*
X148884064Y-67122524D01*
X148581683Y-67122524D01*
X148407815Y-67183000D01*
X148301981Y-67303952D01*
X148256624Y-67424905D01*
X148226386Y-67666810D01*
X148249065Y-67848238D01*
X148339779Y-68090143D01*
X148415374Y-68211095D01*
X148551446Y-68332048D01*
X148740433Y-68392524D01*
X149042814Y-68392524D01*
X147281446Y-68332048D02*
X147409957Y-68392524D01*
X147651862Y-68392524D01*
X147765255Y-68332048D01*
X147810612Y-68211095D01*
X147750136Y-67727286D01*
X147674541Y-67606333D01*
X147546029Y-67545857D01*
X147304124Y-67545857D01*
X147190732Y-67606333D01*
X147145374Y-67727286D01*
X147160493Y-67848238D01*
X147780374Y-67969190D01*
X146699362Y-67545857D02*
X146502814Y-68392524D01*
X146094601Y-67545857D01*
X145225256Y-68332048D02*
X145353767Y-68392524D01*
X145595672Y-68392524D01*
X145709065Y-68332048D01*
X145754422Y-68211095D01*
X145693946Y-67727286D01*
X145618351Y-67606333D01*
X145489839Y-67545857D01*
X145247934Y-67545857D01*
X145134542Y-67606333D01*
X145089184Y-67727286D01*
X145104303Y-67848238D01*
X145724184Y-67969190D01*
X144446624Y-68392524D02*
X144560018Y-68332048D01*
X144605375Y-68211095D01*
X144469303Y-67122524D01*
X143781386Y-68392524D02*
X143894780Y-68332048D01*
X143947696Y-68271571D01*
X143993053Y-68150619D01*
X143947696Y-67787762D01*
X143872101Y-67666810D01*
X143804066Y-67606333D01*
X143675553Y-67545857D01*
X143494125Y-67545857D01*
X143380733Y-67606333D01*
X143327815Y-67666810D01*
X143282458Y-67787762D01*
X143327815Y-68150619D01*
X143403410Y-68271571D01*
X143471447Y-68332048D01*
X143599958Y-68392524D01*
X143781386Y-68392524D01*
X142707934Y-67545857D02*
X142866684Y-68815857D01*
X142715494Y-67606333D02*
X142586982Y-67545857D01*
X142345077Y-67545857D01*
X142231685Y-67606333D01*
X142178767Y-67666810D01*
X142133410Y-67787762D01*
X142178767Y-68150619D01*
X142254362Y-68271571D01*
X142322399Y-68332048D01*
X142450910Y-68392524D01*
X142692815Y-68392524D01*
X142806208Y-68332048D01*
X141664719Y-68392524D02*
X141558886Y-67545857D01*
X141574005Y-67666810D02*
X141505970Y-67606333D01*
X141377457Y-67545857D01*
X141196029Y-67545857D01*
X141082637Y-67606333D01*
X141037279Y-67727286D01*
X141120433Y-68392524D01*
X141037279Y-67727286D02*
X140961684Y-67606333D01*
X140833172Y-67545857D01*
X140651743Y-67545857D01*
X140538351Y-67606333D01*
X140492994Y-67727286D01*
X140576148Y-68392524D01*
X139480018Y-68332048D02*
X139608529Y-68392524D01*
X139850434Y-68392524D01*
X139963827Y-68332048D01*
X140009184Y-68211095D01*
X139948708Y-67727286D01*
X139873113Y-67606333D01*
X139744601Y-67545857D01*
X139502696Y-67545857D01*
X139389304Y-67606333D01*
X139343946Y-67727286D01*
X139359065Y-67848238D01*
X139978946Y-67969190D01*
X138776982Y-67545857D02*
X138882815Y-68392524D01*
X138792101Y-67666810D02*
X138724066Y-67606333D01*
X138595553Y-67545857D01*
X138414125Y-67545857D01*
X138300733Y-67606333D01*
X138255375Y-67727286D01*
X138338529Y-68392524D01*
X137809363Y-67545857D02*
X137325553Y-67545857D01*
X137575017Y-67122524D02*
X137711089Y-68211095D01*
X137665732Y-68332048D01*
X137552338Y-68392524D01*
X137431386Y-68392524D01*
D14*
X148820214Y-69536571D02*
X147891643Y-69536571D01*
X148391643Y-70108000D01*
X148177357Y-70108000D01*
X148034500Y-70179429D01*
X147963071Y-70250857D01*
X147891643Y-70393714D01*
X147891643Y-70750857D01*
X147963071Y-70893714D01*
X148034500Y-70965143D01*
X148177357Y-71036571D01*
X148605929Y-71036571D01*
X148748786Y-70965143D01*
X148820214Y-70893714D01*
X147248786Y-70893714D02*
X147177358Y-70965143D01*
X147248786Y-71036571D01*
X147320215Y-70965143D01*
X147248786Y-70893714D01*
X147248786Y-71036571D01*
X146677357Y-69536571D02*
X145748786Y-69536571D01*
X146248786Y-70108000D01*
X146034500Y-70108000D01*
X145891643Y-70179429D01*
X145820214Y-70250857D01*
X145748786Y-70393714D01*
X145748786Y-70750857D01*
X145820214Y-70893714D01*
X145891643Y-70965143D01*
X146034500Y-71036571D01*
X146463072Y-71036571D01*
X146605929Y-70965143D01*
X146677357Y-70893714D01*
X145320215Y-69536571D02*
X144820215Y-71036571D01*
X144320215Y-69536571D01*
X142463072Y-70179429D02*
X142605930Y-70108000D01*
X142677358Y-70036571D01*
X142748787Y-69893714D01*
X142748787Y-69822286D01*
X142677358Y-69679429D01*
X142605930Y-69608000D01*
X142463072Y-69536571D01*
X142177358Y-69536571D01*
X142034501Y-69608000D01*
X141963072Y-69679429D01*
X141891644Y-69822286D01*
X141891644Y-69893714D01*
X141963072Y-70036571D01*
X142034501Y-70108000D01*
X142177358Y-70179429D01*
X142463072Y-70179429D01*
X142605930Y-70250857D01*
X142677358Y-70322286D01*
X142748787Y-70465143D01*
X142748787Y-70750857D01*
X142677358Y-70893714D01*
X142605930Y-70965143D01*
X142463072Y-71036571D01*
X142177358Y-71036571D01*
X142034501Y-70965143D01*
X141963072Y-70893714D01*
X141891644Y-70750857D01*
X141891644Y-70465143D01*
X141963072Y-70322286D01*
X142034501Y-70250857D01*
X142177358Y-70179429D01*
X141248787Y-71036571D02*
X141248787Y-69536571D01*
X140748787Y-70608000D01*
X140248787Y-69536571D01*
X140248787Y-71036571D01*
X139534501Y-71036571D02*
X139534501Y-69536571D01*
X139534501Y-70250857D02*
X138677358Y-70250857D01*
X138677358Y-71036571D02*
X138677358Y-69536571D01*
X138105929Y-70036571D02*
X137320215Y-70036571D01*
X138105929Y-71036571D01*
X137320215Y-71036571D01*
D13*
X148562786Y-63354857D02*
X146675929Y-63354857D01*
X147837072Y-64516000D01*
X147401644Y-64516000D01*
X147129501Y-64661143D01*
X147002501Y-64806286D01*
X146893643Y-65096571D01*
X146984358Y-65822286D01*
X147165786Y-66112571D01*
X147329072Y-66257714D01*
X147637501Y-66402857D01*
X148508358Y-66402857D01*
X148780501Y-66257714D01*
X148907500Y-66112571D01*
X145551073Y-63645143D02*
X145387787Y-63500000D01*
X145079358Y-63354857D01*
X144353644Y-63354857D01*
X144081501Y-63500000D01*
X143954501Y-63645143D01*
X143845644Y-63935429D01*
X143881929Y-64225714D01*
X144081501Y-64661143D01*
X146040929Y-66402857D01*
X144154072Y-66402857D01*
X142466787Y-63354857D02*
X142775216Y-65822286D01*
X142666358Y-66112571D01*
X142539358Y-66257714D01*
X142267215Y-66402857D01*
X141686644Y-66402857D01*
X141378215Y-66257714D01*
X141214929Y-66112571D01*
X141033501Y-65822286D01*
X140725072Y-63354857D01*
X139455073Y-63645143D02*
X139291787Y-63500000D01*
X138983358Y-63354857D01*
X138257644Y-63354857D01*
X137985501Y-63500000D01*
X137858501Y-63645143D01*
X137749644Y-63935429D01*
X137785929Y-64225714D01*
X137985501Y-64661143D01*
X139944929Y-66402857D01*
X138058072Y-66402857D01*
X172438785Y-63354857D02*
X170551928Y-63354857D01*
X171713071Y-64516000D01*
X171277643Y-64516000D01*
X171005500Y-64661143D01*
X170878500Y-64806286D01*
X170769642Y-65096571D01*
X170860357Y-65822286D01*
X171041785Y-66112571D01*
X171205071Y-66257714D01*
X171513500Y-66402857D01*
X172384357Y-66402857D01*
X172656500Y-66257714D01*
X172783499Y-66112571D01*
X169427072Y-63645143D02*
X169263786Y-63500000D01*
X168955357Y-63354857D01*
X168229643Y-63354857D01*
X167957500Y-63500000D01*
X167830500Y-63645143D01*
X167721643Y-63935429D01*
X167757928Y-64225714D01*
X167957500Y-64661143D01*
X169916928Y-66402857D01*
X168030071Y-66402857D01*
X166342786Y-63354857D02*
X166651215Y-65822286D01*
X166542357Y-66112571D01*
X166415357Y-66257714D01*
X166143214Y-66402857D01*
X165562643Y-66402857D01*
X165254214Y-66257714D01*
X165090928Y-66112571D01*
X164909500Y-65822286D01*
X164601071Y-63354857D01*
X163331072Y-63645143D02*
X163167786Y-63500000D01*
X162859357Y-63354857D01*
X162133643Y-63354857D01*
X161861500Y-63500000D01*
X161734500Y-63645143D01*
X161625643Y-63935429D01*
X161661928Y-64225714D01*
X161861500Y-64661143D01*
X163820928Y-66402857D01*
X161934071Y-66402857D01*
D11*
X174109070Y-80742286D02*
X173680499Y-80742286D01*
X173894785Y-81492286D02*
X173894785Y-80742286D01*
X173430499Y-81492286D02*
X173430499Y-80742286D01*
X173430499Y-81099429D02*
X173001927Y-81099429D01*
X173001927Y-81492286D02*
X173001927Y-80742286D01*
X172644785Y-80742286D02*
X172644785Y-81349429D01*
X172609070Y-81420857D01*
X172573356Y-81456571D01*
X172501927Y-81492286D01*
X172359070Y-81492286D01*
X172287642Y-81456571D01*
X172251927Y-81420857D01*
X172216213Y-81349429D01*
X172216213Y-80742286D01*
X171859071Y-81492286D02*
X171859071Y-80742286D01*
X171430499Y-81492286D01*
X171430499Y-80742286D01*
X171073357Y-81492286D02*
X171073357Y-80742286D01*
X170644785Y-81492286D02*
X170966214Y-81063714D01*
X170644785Y-80742286D02*
X171073357Y-81170857D01*
X170323357Y-81492286D02*
X170323357Y-80742286D01*
X170073356Y-80742286D02*
X169644785Y-80742286D01*
X169859071Y-81492286D02*
X169859071Y-80742286D01*
X168823356Y-81099429D02*
X168573356Y-81099429D01*
X168466213Y-81492286D02*
X168823356Y-81492286D01*
X168823356Y-80742286D01*
X168466213Y-80742286D01*
X167787642Y-81492286D02*
X168144785Y-81492286D01*
X168144785Y-80742286D01*
X167537642Y-81099429D02*
X167287642Y-81099429D01*
X167180499Y-81492286D02*
X167537642Y-81492286D01*
X167537642Y-80742286D01*
X167180499Y-80742286D01*
X166430499Y-81420857D02*
X166466213Y-81456571D01*
X166573356Y-81492286D01*
X166644785Y-81492286D01*
X166751928Y-81456571D01*
X166823356Y-81385143D01*
X166859071Y-81313714D01*
X166894785Y-81170857D01*
X166894785Y-81063714D01*
X166859071Y-80920857D01*
X166823356Y-80849429D01*
X166751928Y-80778000D01*
X166644785Y-80742286D01*
X166573356Y-80742286D01*
X166466213Y-80778000D01*
X166430499Y-80813714D01*
X166216213Y-80742286D02*
X165787642Y-80742286D01*
X166001928Y-81492286D02*
X166001928Y-80742286D01*
X165109070Y-81492286D02*
X165359070Y-81135143D01*
X165537642Y-81492286D02*
X165537642Y-80742286D01*
X165251927Y-80742286D01*
X165180499Y-80778000D01*
X165144784Y-80813714D01*
X165109070Y-80885143D01*
X165109070Y-80992286D01*
X165144784Y-81063714D01*
X165180499Y-81099429D01*
X165251927Y-81135143D01*
X165537642Y-81135143D01*
X164644784Y-80742286D02*
X164501927Y-80742286D01*
X164430499Y-80778000D01*
X164359070Y-80849429D01*
X164323356Y-80992286D01*
X164323356Y-81242286D01*
X164359070Y-81385143D01*
X164430499Y-81456571D01*
X164501927Y-81492286D01*
X164644784Y-81492286D01*
X164716213Y-81456571D01*
X164787642Y-81385143D01*
X164823356Y-81242286D01*
X164823356Y-80992286D01*
X164787642Y-80849429D01*
X164716213Y-80778000D01*
X164644784Y-80742286D01*
X164001928Y-81492286D02*
X164001928Y-80742286D01*
X163573356Y-81492286D01*
X163573356Y-80742286D01*
X163216214Y-81492286D02*
X163216214Y-80742286D01*
X162430499Y-81420857D02*
X162466213Y-81456571D01*
X162573356Y-81492286D01*
X162644785Y-81492286D01*
X162751928Y-81456571D01*
X162823356Y-81385143D01*
X162859071Y-81313714D01*
X162894785Y-81170857D01*
X162894785Y-81063714D01*
X162859071Y-80920857D01*
X162823356Y-80849429D01*
X162751928Y-80778000D01*
X162644785Y-80742286D01*
X162573356Y-80742286D01*
X162466213Y-80778000D01*
X162430499Y-80813714D01*
X162144785Y-81456571D02*
X162037642Y-81492286D01*
X161859071Y-81492286D01*
X161787642Y-81456571D01*
X161751928Y-81420857D01*
X161716213Y-81349429D01*
X161716213Y-81278000D01*
X161751928Y-81206571D01*
X161787642Y-81170857D01*
X161859071Y-81135143D01*
X162001928Y-81099429D01*
X162073356Y-81063714D01*
X162109071Y-81028000D01*
X162144785Y-80956571D01*
X162144785Y-80885143D01*
X162109071Y-80813714D01*
X162073356Y-80778000D01*
X162001928Y-80742286D01*
X161823356Y-80742286D01*
X161716213Y-80778000D01*
D12*
X172918815Y-68392524D02*
X172760065Y-67122524D01*
X172457684Y-67122524D01*
X172283816Y-67183000D01*
X172177982Y-67303952D01*
X172132625Y-67424905D01*
X172102387Y-67666810D01*
X172125066Y-67848238D01*
X172215780Y-68090143D01*
X172291375Y-68211095D01*
X172427447Y-68332048D01*
X172616434Y-68392524D01*
X172918815Y-68392524D01*
X171157447Y-68332048D02*
X171285958Y-68392524D01*
X171527863Y-68392524D01*
X171641256Y-68332048D01*
X171686613Y-68211095D01*
X171626137Y-67727286D01*
X171550542Y-67606333D01*
X171422030Y-67545857D01*
X171180125Y-67545857D01*
X171066733Y-67606333D01*
X171021375Y-67727286D01*
X171036494Y-67848238D01*
X171656375Y-67969190D01*
X170575363Y-67545857D02*
X170378815Y-68392524D01*
X169970602Y-67545857D01*
X169101257Y-68332048D02*
X169229768Y-68392524D01*
X169471673Y-68392524D01*
X169585066Y-68332048D01*
X169630423Y-68211095D01*
X169569947Y-67727286D01*
X169494352Y-67606333D01*
X169365840Y-67545857D01*
X169123935Y-67545857D01*
X169010543Y-67606333D01*
X168965185Y-67727286D01*
X168980304Y-67848238D01*
X169600185Y-67969190D01*
X168322625Y-68392524D02*
X168436019Y-68332048D01*
X168481376Y-68211095D01*
X168345304Y-67122524D01*
X167657387Y-68392524D02*
X167770781Y-68332048D01*
X167823697Y-68271571D01*
X167869054Y-68150619D01*
X167823697Y-67787762D01*
X167748102Y-67666810D01*
X167680067Y-67606333D01*
X167551554Y-67545857D01*
X167370126Y-67545857D01*
X167256734Y-67606333D01*
X167203816Y-67666810D01*
X167158459Y-67787762D01*
X167203816Y-68150619D01*
X167279411Y-68271571D01*
X167347448Y-68332048D01*
X167475959Y-68392524D01*
X167657387Y-68392524D01*
X166583935Y-67545857D02*
X166742685Y-68815857D01*
X166591495Y-67606333D02*
X166462983Y-67545857D01*
X166221078Y-67545857D01*
X166107686Y-67606333D01*
X166054768Y-67666810D01*
X166009411Y-67787762D01*
X166054768Y-68150619D01*
X166130363Y-68271571D01*
X166198400Y-68332048D01*
X166326911Y-68392524D01*
X166568816Y-68392524D01*
X166682209Y-68332048D01*
X165540720Y-68392524D02*
X165434887Y-67545857D01*
X165450006Y-67666810D02*
X165381971Y-67606333D01*
X165253458Y-67545857D01*
X165072030Y-67545857D01*
X164958638Y-67606333D01*
X164913280Y-67727286D01*
X164996434Y-68392524D01*
X164913280Y-67727286D02*
X164837685Y-67606333D01*
X164709173Y-67545857D01*
X164527744Y-67545857D01*
X164414352Y-67606333D01*
X164368995Y-67727286D01*
X164452149Y-68392524D01*
X163356019Y-68332048D02*
X163484530Y-68392524D01*
X163726435Y-68392524D01*
X163839828Y-68332048D01*
X163885185Y-68211095D01*
X163824709Y-67727286D01*
X163749114Y-67606333D01*
X163620602Y-67545857D01*
X163378697Y-67545857D01*
X163265305Y-67606333D01*
X163219947Y-67727286D01*
X163235066Y-67848238D01*
X163854947Y-67969190D01*
X162652983Y-67545857D02*
X162758816Y-68392524D01*
X162668102Y-67666810D02*
X162600067Y-67606333D01*
X162471554Y-67545857D01*
X162290126Y-67545857D01*
X162176734Y-67606333D01*
X162131376Y-67727286D01*
X162214530Y-68392524D01*
X161685364Y-67545857D02*
X161201554Y-67545857D01*
X161451018Y-67122524D02*
X161587090Y-68211095D01*
X161541733Y-68332048D01*
X161428339Y-68392524D01*
X161307387Y-68392524D01*
D14*
X172696214Y-69536571D02*
X171767643Y-69536571D01*
X172267643Y-70108000D01*
X172053357Y-70108000D01*
X171910500Y-70179429D01*
X171839071Y-70250857D01*
X171767643Y-70393714D01*
X171767643Y-70750857D01*
X171839071Y-70893714D01*
X171910500Y-70965143D01*
X172053357Y-71036571D01*
X172481929Y-71036571D01*
X172624786Y-70965143D01*
X172696214Y-70893714D01*
X171124786Y-70893714D02*
X171053358Y-70965143D01*
X171124786Y-71036571D01*
X171196215Y-70965143D01*
X171124786Y-70893714D01*
X171124786Y-71036571D01*
X170553357Y-69536571D02*
X169624786Y-69536571D01*
X170124786Y-70108000D01*
X169910500Y-70108000D01*
X169767643Y-70179429D01*
X169696214Y-70250857D01*
X169624786Y-70393714D01*
X169624786Y-70750857D01*
X169696214Y-70893714D01*
X169767643Y-70965143D01*
X169910500Y-71036571D01*
X170339072Y-71036571D01*
X170481929Y-70965143D01*
X170553357Y-70893714D01*
X169196215Y-69536571D02*
X168696215Y-71036571D01*
X168196215Y-69536571D01*
X166339072Y-70179429D02*
X166481930Y-70108000D01*
X166553358Y-70036571D01*
X166624787Y-69893714D01*
X166624787Y-69822286D01*
X166553358Y-69679429D01*
X166481930Y-69608000D01*
X166339072Y-69536571D01*
X166053358Y-69536571D01*
X165910501Y-69608000D01*
X165839072Y-69679429D01*
X165767644Y-69822286D01*
X165767644Y-69893714D01*
X165839072Y-70036571D01*
X165910501Y-70108000D01*
X166053358Y-70179429D01*
X166339072Y-70179429D01*
X166481930Y-70250857D01*
X166553358Y-70322286D01*
X166624787Y-70465143D01*
X166624787Y-70750857D01*
X166553358Y-70893714D01*
X166481930Y-70965143D01*
X166339072Y-71036571D01*
X166053358Y-71036571D01*
X165910501Y-70965143D01*
X165839072Y-70893714D01*
X165767644Y-70750857D01*
X165767644Y-70465143D01*
X165839072Y-70322286D01*
X165910501Y-70250857D01*
X166053358Y-70179429D01*
X165124787Y-71036571D02*
X165124787Y-69536571D01*
X164624787Y-70608000D01*
X164124787Y-69536571D01*
X164124787Y-71036571D01*
X163410501Y-71036571D02*
X163410501Y-69536571D01*
X163410501Y-70250857D02*
X162553358Y-70250857D01*
X162553358Y-71036571D02*
X162553358Y-69536571D01*
X161981929Y-70036571D02*
X161196215Y-70036571D01*
X161981929Y-71036571D01*
X161196215Y-71036571D01*
X124944213Y-137608571D02*
X124015642Y-137608571D01*
X124515642Y-138180000D01*
X124301356Y-138180000D01*
X124158499Y-138251429D01*
X124087070Y-138322857D01*
X124015642Y-138465714D01*
X124015642Y-138822857D01*
X124087070Y-138965714D01*
X124158499Y-139037143D01*
X124301356Y-139108571D01*
X124729928Y-139108571D01*
X124872785Y-139037143D01*
X124944213Y-138965714D01*
X123372785Y-138965714D02*
X123301357Y-139037143D01*
X123372785Y-139108571D01*
X123444214Y-139037143D01*
X123372785Y-138965714D01*
X123372785Y-139108571D01*
X122801356Y-137608571D02*
X121872785Y-137608571D01*
X122372785Y-138180000D01*
X122158499Y-138180000D01*
X122015642Y-138251429D01*
X121944213Y-138322857D01*
X121872785Y-138465714D01*
X121872785Y-138822857D01*
X121944213Y-138965714D01*
X122015642Y-139037143D01*
X122158499Y-139108571D01*
X122587071Y-139108571D01*
X122729928Y-139037143D01*
X122801356Y-138965714D01*
X121444214Y-137608571D02*
X120944214Y-139108571D01*
X120444214Y-137608571D01*
X118587071Y-138251429D02*
X118729929Y-138180000D01*
X118801357Y-138108571D01*
X118872786Y-137965714D01*
X118872786Y-137894286D01*
X118801357Y-137751429D01*
X118729929Y-137680000D01*
X118587071Y-137608571D01*
X118301357Y-137608571D01*
X118158500Y-137680000D01*
X118087071Y-137751429D01*
X118015643Y-137894286D01*
X118015643Y-137965714D01*
X118087071Y-138108571D01*
X118158500Y-138180000D01*
X118301357Y-138251429D01*
X118587071Y-138251429D01*
X118729929Y-138322857D01*
X118801357Y-138394286D01*
X118872786Y-138537143D01*
X118872786Y-138822857D01*
X118801357Y-138965714D01*
X118729929Y-139037143D01*
X118587071Y-139108571D01*
X118301357Y-139108571D01*
X118158500Y-139037143D01*
X118087071Y-138965714D01*
X118015643Y-138822857D01*
X118015643Y-138537143D01*
X118087071Y-138394286D01*
X118158500Y-138322857D01*
X118301357Y-138251429D01*
X117372786Y-139108571D02*
X117372786Y-137608571D01*
X116872786Y-138680000D01*
X116372786Y-137608571D01*
X116372786Y-139108571D01*
X115658500Y-139108571D02*
X115658500Y-137608571D01*
X115658500Y-138322857D02*
X114801357Y-138322857D01*
X114801357Y-139108571D02*
X114801357Y-137608571D01*
X114229928Y-138108571D02*
X113444214Y-138108571D01*
X114229928Y-139108571D01*
X113444214Y-139108571D01*
D11*
X126357071Y-148814286D02*
X125928500Y-148814286D01*
X126142786Y-149564286D02*
X126142786Y-148814286D01*
X125678500Y-149564286D02*
X125678500Y-148814286D01*
X125678500Y-149171429D02*
X125249928Y-149171429D01*
X125249928Y-149564286D02*
X125249928Y-148814286D01*
X124892786Y-148814286D02*
X124892786Y-149421429D01*
X124857071Y-149492857D01*
X124821357Y-149528571D01*
X124749928Y-149564286D01*
X124607071Y-149564286D01*
X124535643Y-149528571D01*
X124499928Y-149492857D01*
X124464214Y-149421429D01*
X124464214Y-148814286D01*
X124107072Y-149564286D02*
X124107072Y-148814286D01*
X123678500Y-149564286D01*
X123678500Y-148814286D01*
X123321358Y-149564286D02*
X123321358Y-148814286D01*
X122892786Y-149564286D02*
X123214215Y-149135714D01*
X122892786Y-148814286D02*
X123321358Y-149242857D01*
X122571358Y-149564286D02*
X122571358Y-148814286D01*
X122321357Y-148814286D02*
X121892786Y-148814286D01*
X122107072Y-149564286D02*
X122107072Y-148814286D01*
X121071357Y-149171429D02*
X120821357Y-149171429D01*
X120714214Y-149564286D02*
X121071357Y-149564286D01*
X121071357Y-148814286D01*
X120714214Y-148814286D01*
X120035643Y-149564286D02*
X120392786Y-149564286D01*
X120392786Y-148814286D01*
X119785643Y-149171429D02*
X119535643Y-149171429D01*
X119428500Y-149564286D02*
X119785643Y-149564286D01*
X119785643Y-148814286D01*
X119428500Y-148814286D01*
X118678500Y-149492857D02*
X118714214Y-149528571D01*
X118821357Y-149564286D01*
X118892786Y-149564286D01*
X118999929Y-149528571D01*
X119071357Y-149457143D01*
X119107072Y-149385714D01*
X119142786Y-149242857D01*
X119142786Y-149135714D01*
X119107072Y-148992857D01*
X119071357Y-148921429D01*
X118999929Y-148850000D01*
X118892786Y-148814286D01*
X118821357Y-148814286D01*
X118714214Y-148850000D01*
X118678500Y-148885714D01*
X118464214Y-148814286D02*
X118035643Y-148814286D01*
X118249929Y-149564286D02*
X118249929Y-148814286D01*
X117357071Y-149564286D02*
X117607071Y-149207143D01*
X117785643Y-149564286D02*
X117785643Y-148814286D01*
X117499928Y-148814286D01*
X117428500Y-148850000D01*
X117392785Y-148885714D01*
X117357071Y-148957143D01*
X117357071Y-149064286D01*
X117392785Y-149135714D01*
X117428500Y-149171429D01*
X117499928Y-149207143D01*
X117785643Y-149207143D01*
X116892785Y-148814286D02*
X116749928Y-148814286D01*
X116678500Y-148850000D01*
X116607071Y-148921429D01*
X116571357Y-149064286D01*
X116571357Y-149314286D01*
X116607071Y-149457143D01*
X116678500Y-149528571D01*
X116749928Y-149564286D01*
X116892785Y-149564286D01*
X116964214Y-149528571D01*
X117035643Y-149457143D01*
X117071357Y-149314286D01*
X117071357Y-149064286D01*
X117035643Y-148921429D01*
X116964214Y-148850000D01*
X116892785Y-148814286D01*
X116249929Y-149564286D02*
X116249929Y-148814286D01*
X115821357Y-149564286D01*
X115821357Y-148814286D01*
X115464215Y-149564286D02*
X115464215Y-148814286D01*
X114678500Y-149492857D02*
X114714214Y-149528571D01*
X114821357Y-149564286D01*
X114892786Y-149564286D01*
X114999929Y-149528571D01*
X115071357Y-149457143D01*
X115107072Y-149385714D01*
X115142786Y-149242857D01*
X115142786Y-149135714D01*
X115107072Y-148992857D01*
X115071357Y-148921429D01*
X114999929Y-148850000D01*
X114892786Y-148814286D01*
X114821357Y-148814286D01*
X114714214Y-148850000D01*
X114678500Y-148885714D01*
X114392786Y-149528571D02*
X114285643Y-149564286D01*
X114107072Y-149564286D01*
X114035643Y-149528571D01*
X113999929Y-149492857D01*
X113964214Y-149421429D01*
X113964214Y-149350000D01*
X113999929Y-149278571D01*
X114035643Y-149242857D01*
X114107072Y-149207143D01*
X114249929Y-149171429D01*
X114321357Y-149135714D01*
X114357072Y-149100000D01*
X114392786Y-149028571D01*
X114392786Y-148957143D01*
X114357072Y-148885714D01*
X114321357Y-148850000D01*
X114249929Y-148814286D01*
X114071357Y-148814286D01*
X113964214Y-148850000D01*
D13*
X124686784Y-131426857D02*
X122799927Y-131426857D01*
X123961070Y-132588000D01*
X123525642Y-132588000D01*
X123253499Y-132733143D01*
X123126499Y-132878286D01*
X123017641Y-133168571D01*
X123108356Y-133894286D01*
X123289784Y-134184571D01*
X123453070Y-134329714D01*
X123761499Y-134474857D01*
X124632356Y-134474857D01*
X124904499Y-134329714D01*
X125031498Y-134184571D01*
X121675071Y-131717143D02*
X121511785Y-131572000D01*
X121203356Y-131426857D01*
X120477642Y-131426857D01*
X120205499Y-131572000D01*
X120078499Y-131717143D01*
X119969642Y-132007429D01*
X120005927Y-132297714D01*
X120205499Y-132733143D01*
X122164927Y-134474857D01*
X120278070Y-134474857D01*
X118590785Y-131426857D02*
X118899214Y-133894286D01*
X118790356Y-134184571D01*
X118663356Y-134329714D01*
X118391213Y-134474857D01*
X117810642Y-134474857D01*
X117502213Y-134329714D01*
X117338927Y-134184571D01*
X117157499Y-133894286D01*
X116849070Y-131426857D01*
X115579071Y-131717143D02*
X115415785Y-131572000D01*
X115107356Y-131426857D01*
X114381642Y-131426857D01*
X114109499Y-131572000D01*
X113982499Y-131717143D01*
X113873642Y-132007429D01*
X113909927Y-132297714D01*
X114109499Y-132733143D01*
X116068927Y-134474857D01*
X114182070Y-134474857D01*
D12*
X125166814Y-136464524D02*
X125008064Y-135194524D01*
X124705683Y-135194524D01*
X124531815Y-135255000D01*
X124425981Y-135375952D01*
X124380624Y-135496905D01*
X124350386Y-135738810D01*
X124373065Y-135920238D01*
X124463779Y-136162143D01*
X124539374Y-136283095D01*
X124675446Y-136404048D01*
X124864433Y-136464524D01*
X125166814Y-136464524D01*
X123405446Y-136404048D02*
X123533957Y-136464524D01*
X123775862Y-136464524D01*
X123889255Y-136404048D01*
X123934612Y-136283095D01*
X123874136Y-135799286D01*
X123798541Y-135678333D01*
X123670029Y-135617857D01*
X123428124Y-135617857D01*
X123314732Y-135678333D01*
X123269374Y-135799286D01*
X123284493Y-135920238D01*
X123904374Y-136041190D01*
X122823362Y-135617857D02*
X122626814Y-136464524D01*
X122218601Y-135617857D01*
X121349256Y-136404048D02*
X121477767Y-136464524D01*
X121719672Y-136464524D01*
X121833065Y-136404048D01*
X121878422Y-136283095D01*
X121817946Y-135799286D01*
X121742351Y-135678333D01*
X121613839Y-135617857D01*
X121371934Y-135617857D01*
X121258542Y-135678333D01*
X121213184Y-135799286D01*
X121228303Y-135920238D01*
X121848184Y-136041190D01*
X120570624Y-136464524D02*
X120684018Y-136404048D01*
X120729375Y-136283095D01*
X120593303Y-135194524D01*
X119905386Y-136464524D02*
X120018780Y-136404048D01*
X120071696Y-136343571D01*
X120117053Y-136222619D01*
X120071696Y-135859762D01*
X119996101Y-135738810D01*
X119928066Y-135678333D01*
X119799553Y-135617857D01*
X119618125Y-135617857D01*
X119504733Y-135678333D01*
X119451815Y-135738810D01*
X119406458Y-135859762D01*
X119451815Y-136222619D01*
X119527410Y-136343571D01*
X119595447Y-136404048D01*
X119723958Y-136464524D01*
X119905386Y-136464524D01*
X118831934Y-135617857D02*
X118990684Y-136887857D01*
X118839494Y-135678333D02*
X118710982Y-135617857D01*
X118469077Y-135617857D01*
X118355685Y-135678333D01*
X118302767Y-135738810D01*
X118257410Y-135859762D01*
X118302767Y-136222619D01*
X118378362Y-136343571D01*
X118446399Y-136404048D01*
X118574910Y-136464524D01*
X118816815Y-136464524D01*
X118930208Y-136404048D01*
X117788719Y-136464524D02*
X117682886Y-135617857D01*
X117698005Y-135738810D02*
X117629970Y-135678333D01*
X117501457Y-135617857D01*
X117320029Y-135617857D01*
X117206637Y-135678333D01*
X117161279Y-135799286D01*
X117244433Y-136464524D01*
X117161279Y-135799286D02*
X117085684Y-135678333D01*
X116957172Y-135617857D01*
X116775743Y-135617857D01*
X116662351Y-135678333D01*
X116616994Y-135799286D01*
X116700148Y-136464524D01*
X115604018Y-136404048D02*
X115732529Y-136464524D01*
X115974434Y-136464524D01*
X116087827Y-136404048D01*
X116133184Y-136283095D01*
X116072708Y-135799286D01*
X115997113Y-135678333D01*
X115868601Y-135617857D01*
X115626696Y-135617857D01*
X115513304Y-135678333D01*
X115467946Y-135799286D01*
X115483065Y-135920238D01*
X116102946Y-136041190D01*
X114900982Y-135617857D02*
X115006815Y-136464524D01*
X114916101Y-135738810D02*
X114848066Y-135678333D01*
X114719553Y-135617857D01*
X114538125Y-135617857D01*
X114424733Y-135678333D01*
X114379375Y-135799286D01*
X114462529Y-136464524D01*
X113933363Y-135617857D02*
X113449553Y-135617857D01*
X113699017Y-135194524D02*
X113835089Y-136283095D01*
X113789732Y-136404048D01*
X113676338Y-136464524D01*
X113555386Y-136464524D01*
D11*
X174109071Y-148814286D02*
X173680500Y-148814286D01*
X173894786Y-149564286D02*
X173894786Y-148814286D01*
X173430500Y-149564286D02*
X173430500Y-148814286D01*
X173430500Y-149171429D02*
X173001928Y-149171429D01*
X173001928Y-149564286D02*
X173001928Y-148814286D01*
X172644786Y-148814286D02*
X172644786Y-149421429D01*
X172609071Y-149492857D01*
X172573357Y-149528571D01*
X172501928Y-149564286D01*
X172359071Y-149564286D01*
X172287643Y-149528571D01*
X172251928Y-149492857D01*
X172216214Y-149421429D01*
X172216214Y-148814286D01*
X171859072Y-149564286D02*
X171859072Y-148814286D01*
X171430500Y-149564286D01*
X171430500Y-148814286D01*
X171073358Y-149564286D02*
X171073358Y-148814286D01*
X170644786Y-149564286D02*
X170966215Y-149135714D01*
X170644786Y-148814286D02*
X171073358Y-149242857D01*
X170323358Y-149564286D02*
X170323358Y-148814286D01*
X170073357Y-148814286D02*
X169644786Y-148814286D01*
X169859072Y-149564286D02*
X169859072Y-148814286D01*
X168823357Y-149171429D02*
X168573357Y-149171429D01*
X168466214Y-149564286D02*
X168823357Y-149564286D01*
X168823357Y-148814286D01*
X168466214Y-148814286D01*
X167787643Y-149564286D02*
X168144786Y-149564286D01*
X168144786Y-148814286D01*
X167537643Y-149171429D02*
X167287643Y-149171429D01*
X167180500Y-149564286D02*
X167537643Y-149564286D01*
X167537643Y-148814286D01*
X167180500Y-148814286D01*
X166430500Y-149492857D02*
X166466214Y-149528571D01*
X166573357Y-149564286D01*
X166644786Y-149564286D01*
X166751929Y-149528571D01*
X166823357Y-149457143D01*
X166859072Y-149385714D01*
X166894786Y-149242857D01*
X166894786Y-149135714D01*
X166859072Y-148992857D01*
X166823357Y-148921429D01*
X166751929Y-148850000D01*
X166644786Y-148814286D01*
X166573357Y-148814286D01*
X166466214Y-148850000D01*
X166430500Y-148885714D01*
X166216214Y-148814286D02*
X165787643Y-148814286D01*
X166001929Y-149564286D02*
X166001929Y-148814286D01*
X165109071Y-149564286D02*
X165359071Y-149207143D01*
X165537643Y-149564286D02*
X165537643Y-148814286D01*
X165251928Y-148814286D01*
X165180500Y-148850000D01*
X165144785Y-148885714D01*
X165109071Y-148957143D01*
X165109071Y-149064286D01*
X165144785Y-149135714D01*
X165180500Y-149171429D01*
X165251928Y-149207143D01*
X165537643Y-149207143D01*
X164644785Y-148814286D02*
X164501928Y-148814286D01*
X164430500Y-148850000D01*
X164359071Y-148921429D01*
X164323357Y-149064286D01*
X164323357Y-149314286D01*
X164359071Y-149457143D01*
X164430500Y-149528571D01*
X164501928Y-149564286D01*
X164644785Y-149564286D01*
X164716214Y-149528571D01*
X164787643Y-149457143D01*
X164823357Y-149314286D01*
X164823357Y-149064286D01*
X164787643Y-148921429D01*
X164716214Y-148850000D01*
X164644785Y-148814286D01*
X164001929Y-149564286D02*
X164001929Y-148814286D01*
X163573357Y-149564286D01*
X163573357Y-148814286D01*
X163216215Y-149564286D02*
X163216215Y-148814286D01*
X162430500Y-149492857D02*
X162466214Y-149528571D01*
X162573357Y-149564286D01*
X162644786Y-149564286D01*
X162751929Y-149528571D01*
X162823357Y-149457143D01*
X162859072Y-149385714D01*
X162894786Y-149242857D01*
X162894786Y-149135714D01*
X162859072Y-148992857D01*
X162823357Y-148921429D01*
X162751929Y-148850000D01*
X162644786Y-148814286D01*
X162573357Y-148814286D01*
X162466214Y-148850000D01*
X162430500Y-148885714D01*
X162144786Y-149528571D02*
X162037643Y-149564286D01*
X161859072Y-149564286D01*
X161787643Y-149528571D01*
X161751929Y-149492857D01*
X161716214Y-149421429D01*
X161716214Y-149350000D01*
X161751929Y-149278571D01*
X161787643Y-149242857D01*
X161859072Y-149207143D01*
X162001929Y-149171429D01*
X162073357Y-149135714D01*
X162109072Y-149100000D01*
X162144786Y-149028571D01*
X162144786Y-148957143D01*
X162109072Y-148885714D01*
X162073357Y-148850000D01*
X162001929Y-148814286D01*
X161823357Y-148814286D01*
X161716214Y-148850000D01*
D14*
X172696213Y-137608571D02*
X171767642Y-137608571D01*
X172267642Y-138180000D01*
X172053356Y-138180000D01*
X171910499Y-138251429D01*
X171839070Y-138322857D01*
X171767642Y-138465714D01*
X171767642Y-138822857D01*
X171839070Y-138965714D01*
X171910499Y-139037143D01*
X172053356Y-139108571D01*
X172481928Y-139108571D01*
X172624785Y-139037143D01*
X172696213Y-138965714D01*
X171124785Y-138965714D02*
X171053357Y-139037143D01*
X171124785Y-139108571D01*
X171196214Y-139037143D01*
X171124785Y-138965714D01*
X171124785Y-139108571D01*
X170553356Y-137608571D02*
X169624785Y-137608571D01*
X170124785Y-138180000D01*
X169910499Y-138180000D01*
X169767642Y-138251429D01*
X169696213Y-138322857D01*
X169624785Y-138465714D01*
X169624785Y-138822857D01*
X169696213Y-138965714D01*
X169767642Y-139037143D01*
X169910499Y-139108571D01*
X170339071Y-139108571D01*
X170481928Y-139037143D01*
X170553356Y-138965714D01*
X169196214Y-137608571D02*
X168696214Y-139108571D01*
X168196214Y-137608571D01*
X166339071Y-138251429D02*
X166481929Y-138180000D01*
X166553357Y-138108571D01*
X166624786Y-137965714D01*
X166624786Y-137894286D01*
X166553357Y-137751429D01*
X166481929Y-137680000D01*
X166339071Y-137608571D01*
X166053357Y-137608571D01*
X165910500Y-137680000D01*
X165839071Y-137751429D01*
X165767643Y-137894286D01*
X165767643Y-137965714D01*
X165839071Y-138108571D01*
X165910500Y-138180000D01*
X166053357Y-138251429D01*
X166339071Y-138251429D01*
X166481929Y-138322857D01*
X166553357Y-138394286D01*
X166624786Y-138537143D01*
X166624786Y-138822857D01*
X166553357Y-138965714D01*
X166481929Y-139037143D01*
X166339071Y-139108571D01*
X166053357Y-139108571D01*
X165910500Y-139037143D01*
X165839071Y-138965714D01*
X165767643Y-138822857D01*
X165767643Y-138537143D01*
X165839071Y-138394286D01*
X165910500Y-138322857D01*
X166053357Y-138251429D01*
X165124786Y-139108571D02*
X165124786Y-137608571D01*
X164624786Y-138680000D01*
X164124786Y-137608571D01*
X164124786Y-139108571D01*
X163410500Y-139108571D02*
X163410500Y-137608571D01*
X163410500Y-138322857D02*
X162553357Y-138322857D01*
X162553357Y-139108571D02*
X162553357Y-137608571D01*
X161981928Y-138108571D02*
X161196214Y-138108571D01*
X161981928Y-139108571D01*
X161196214Y-139108571D01*
D12*
X172918814Y-136464524D02*
X172760064Y-135194524D01*
X172457683Y-135194524D01*
X172283815Y-135255000D01*
X172177981Y-135375952D01*
X172132624Y-135496905D01*
X172102386Y-135738810D01*
X172125065Y-135920238D01*
X172215779Y-136162143D01*
X172291374Y-136283095D01*
X172427446Y-136404048D01*
X172616433Y-136464524D01*
X172918814Y-136464524D01*
X171157446Y-136404048D02*
X171285957Y-136464524D01*
X171527862Y-136464524D01*
X171641255Y-136404048D01*
X171686612Y-136283095D01*
X171626136Y-135799286D01*
X171550541Y-135678333D01*
X171422029Y-135617857D01*
X171180124Y-135617857D01*
X171066732Y-135678333D01*
X171021374Y-135799286D01*
X171036493Y-135920238D01*
X171656374Y-136041190D01*
X170575362Y-135617857D02*
X170378814Y-136464524D01*
X169970601Y-135617857D01*
X169101256Y-136404048D02*
X169229767Y-136464524D01*
X169471672Y-136464524D01*
X169585065Y-136404048D01*
X169630422Y-136283095D01*
X169569946Y-135799286D01*
X169494351Y-135678333D01*
X169365839Y-135617857D01*
X169123934Y-135617857D01*
X169010542Y-135678333D01*
X168965184Y-135799286D01*
X168980303Y-135920238D01*
X169600184Y-136041190D01*
X168322624Y-136464524D02*
X168436018Y-136404048D01*
X168481375Y-136283095D01*
X168345303Y-135194524D01*
X167657386Y-136464524D02*
X167770780Y-136404048D01*
X167823696Y-136343571D01*
X167869053Y-136222619D01*
X167823696Y-135859762D01*
X167748101Y-135738810D01*
X167680066Y-135678333D01*
X167551553Y-135617857D01*
X167370125Y-135617857D01*
X167256733Y-135678333D01*
X167203815Y-135738810D01*
X167158458Y-135859762D01*
X167203815Y-136222619D01*
X167279410Y-136343571D01*
X167347447Y-136404048D01*
X167475958Y-136464524D01*
X167657386Y-136464524D01*
X166583934Y-135617857D02*
X166742684Y-136887857D01*
X166591494Y-135678333D02*
X166462982Y-135617857D01*
X166221077Y-135617857D01*
X166107685Y-135678333D01*
X166054767Y-135738810D01*
X166009410Y-135859762D01*
X166054767Y-136222619D01*
X166130362Y-136343571D01*
X166198399Y-136404048D01*
X166326910Y-136464524D01*
X166568815Y-136464524D01*
X166682208Y-136404048D01*
X165540719Y-136464524D02*
X165434886Y-135617857D01*
X165450005Y-135738810D02*
X165381970Y-135678333D01*
X165253457Y-135617857D01*
X165072029Y-135617857D01*
X164958637Y-135678333D01*
X164913279Y-135799286D01*
X164996433Y-136464524D01*
X164913279Y-135799286D02*
X164837684Y-135678333D01*
X164709172Y-135617857D01*
X164527743Y-135617857D01*
X164414351Y-135678333D01*
X164368994Y-135799286D01*
X164452148Y-136464524D01*
X163356018Y-136404048D02*
X163484529Y-136464524D01*
X163726434Y-136464524D01*
X163839827Y-136404048D01*
X163885184Y-136283095D01*
X163824708Y-135799286D01*
X163749113Y-135678333D01*
X163620601Y-135617857D01*
X163378696Y-135617857D01*
X163265304Y-135678333D01*
X163219946Y-135799286D01*
X163235065Y-135920238D01*
X163854946Y-136041190D01*
X162652982Y-135617857D02*
X162758815Y-136464524D01*
X162668101Y-135738810D02*
X162600066Y-135678333D01*
X162471553Y-135617857D01*
X162290125Y-135617857D01*
X162176733Y-135678333D01*
X162131375Y-135799286D01*
X162214529Y-136464524D01*
X161685363Y-135617857D02*
X161201553Y-135617857D01*
X161451017Y-135194524D02*
X161587089Y-136283095D01*
X161541732Y-136404048D01*
X161428338Y-136464524D01*
X161307386Y-136464524D01*
D13*
X172438784Y-131426857D02*
X170551927Y-131426857D01*
X171713070Y-132588000D01*
X171277642Y-132588000D01*
X171005499Y-132733143D01*
X170878499Y-132878286D01*
X170769641Y-133168571D01*
X170860356Y-133894286D01*
X171041784Y-134184571D01*
X171205070Y-134329714D01*
X171513499Y-134474857D01*
X172384356Y-134474857D01*
X172656499Y-134329714D01*
X172783498Y-134184571D01*
X169427071Y-131717143D02*
X169263785Y-131572000D01*
X168955356Y-131426857D01*
X168229642Y-131426857D01*
X167957499Y-131572000D01*
X167830499Y-131717143D01*
X167721642Y-132007429D01*
X167757927Y-132297714D01*
X167957499Y-132733143D01*
X169916927Y-134474857D01*
X168030070Y-134474857D01*
X166342785Y-131426857D02*
X166651214Y-133894286D01*
X166542356Y-134184571D01*
X166415356Y-134329714D01*
X166143213Y-134474857D01*
X165562642Y-134474857D01*
X165254213Y-134329714D01*
X165090927Y-134184571D01*
X164909499Y-133894286D01*
X164601070Y-131426857D01*
X163331071Y-131717143D02*
X163167785Y-131572000D01*
X162859356Y-131426857D01*
X162133642Y-131426857D01*
X161861499Y-131572000D01*
X161734499Y-131717143D01*
X161625642Y-132007429D01*
X161661927Y-132297714D01*
X161861499Y-132733143D01*
X163820927Y-134474857D01*
X161934070Y-134474857D01*
D11*
X150233071Y-148814286D02*
X149804500Y-148814286D01*
X150018786Y-149564286D02*
X150018786Y-148814286D01*
X149554500Y-149564286D02*
X149554500Y-148814286D01*
X149554500Y-149171429D02*
X149125928Y-149171429D01*
X149125928Y-149564286D02*
X149125928Y-148814286D01*
X148768786Y-148814286D02*
X148768786Y-149421429D01*
X148733071Y-149492857D01*
X148697357Y-149528571D01*
X148625928Y-149564286D01*
X148483071Y-149564286D01*
X148411643Y-149528571D01*
X148375928Y-149492857D01*
X148340214Y-149421429D01*
X148340214Y-148814286D01*
X147983072Y-149564286D02*
X147983072Y-148814286D01*
X147554500Y-149564286D01*
X147554500Y-148814286D01*
X147197358Y-149564286D02*
X147197358Y-148814286D01*
X146768786Y-149564286D02*
X147090215Y-149135714D01*
X146768786Y-148814286D02*
X147197358Y-149242857D01*
X146447358Y-149564286D02*
X146447358Y-148814286D01*
X146197357Y-148814286D02*
X145768786Y-148814286D01*
X145983072Y-149564286D02*
X145983072Y-148814286D01*
X144947357Y-149171429D02*
X144697357Y-149171429D01*
X144590214Y-149564286D02*
X144947357Y-149564286D01*
X144947357Y-148814286D01*
X144590214Y-148814286D01*
X143911643Y-149564286D02*
X144268786Y-149564286D01*
X144268786Y-148814286D01*
X143661643Y-149171429D02*
X143411643Y-149171429D01*
X143304500Y-149564286D02*
X143661643Y-149564286D01*
X143661643Y-148814286D01*
X143304500Y-148814286D01*
X142554500Y-149492857D02*
X142590214Y-149528571D01*
X142697357Y-149564286D01*
X142768786Y-149564286D01*
X142875929Y-149528571D01*
X142947357Y-149457143D01*
X142983072Y-149385714D01*
X143018786Y-149242857D01*
X143018786Y-149135714D01*
X142983072Y-148992857D01*
X142947357Y-148921429D01*
X142875929Y-148850000D01*
X142768786Y-148814286D01*
X142697357Y-148814286D01*
X142590214Y-148850000D01*
X142554500Y-148885714D01*
X142340214Y-148814286D02*
X141911643Y-148814286D01*
X142125929Y-149564286D02*
X142125929Y-148814286D01*
X141233071Y-149564286D02*
X141483071Y-149207143D01*
X141661643Y-149564286D02*
X141661643Y-148814286D01*
X141375928Y-148814286D01*
X141304500Y-148850000D01*
X141268785Y-148885714D01*
X141233071Y-148957143D01*
X141233071Y-149064286D01*
X141268785Y-149135714D01*
X141304500Y-149171429D01*
X141375928Y-149207143D01*
X141661643Y-149207143D01*
X140768785Y-148814286D02*
X140625928Y-148814286D01*
X140554500Y-148850000D01*
X140483071Y-148921429D01*
X140447357Y-149064286D01*
X140447357Y-149314286D01*
X140483071Y-149457143D01*
X140554500Y-149528571D01*
X140625928Y-149564286D01*
X140768785Y-149564286D01*
X140840214Y-149528571D01*
X140911643Y-149457143D01*
X140947357Y-149314286D01*
X140947357Y-149064286D01*
X140911643Y-148921429D01*
X140840214Y-148850000D01*
X140768785Y-148814286D01*
X140125929Y-149564286D02*
X140125929Y-148814286D01*
X139697357Y-149564286D01*
X139697357Y-148814286D01*
X139340215Y-149564286D02*
X139340215Y-148814286D01*
X138554500Y-149492857D02*
X138590214Y-149528571D01*
X138697357Y-149564286D01*
X138768786Y-149564286D01*
X138875929Y-149528571D01*
X138947357Y-149457143D01*
X138983072Y-149385714D01*
X139018786Y-149242857D01*
X139018786Y-149135714D01*
X138983072Y-148992857D01*
X138947357Y-148921429D01*
X138875929Y-148850000D01*
X138768786Y-148814286D01*
X138697357Y-148814286D01*
X138590214Y-148850000D01*
X138554500Y-148885714D01*
X138268786Y-149528571D02*
X138161643Y-149564286D01*
X137983072Y-149564286D01*
X137911643Y-149528571D01*
X137875929Y-149492857D01*
X137840214Y-149421429D01*
X137840214Y-149350000D01*
X137875929Y-149278571D01*
X137911643Y-149242857D01*
X137983072Y-149207143D01*
X138125929Y-149171429D01*
X138197357Y-149135714D01*
X138233072Y-149100000D01*
X138268786Y-149028571D01*
X138268786Y-148957143D01*
X138233072Y-148885714D01*
X138197357Y-148850000D01*
X138125929Y-148814286D01*
X137947357Y-148814286D01*
X137840214Y-148850000D01*
D12*
X149042814Y-136464524D02*
X148884064Y-135194524D01*
X148581683Y-135194524D01*
X148407815Y-135255000D01*
X148301981Y-135375952D01*
X148256624Y-135496905D01*
X148226386Y-135738810D01*
X148249065Y-135920238D01*
X148339779Y-136162143D01*
X148415374Y-136283095D01*
X148551446Y-136404048D01*
X148740433Y-136464524D01*
X149042814Y-136464524D01*
X147281446Y-136404048D02*
X147409957Y-136464524D01*
X147651862Y-136464524D01*
X147765255Y-136404048D01*
X147810612Y-136283095D01*
X147750136Y-135799286D01*
X147674541Y-135678333D01*
X147546029Y-135617857D01*
X147304124Y-135617857D01*
X147190732Y-135678333D01*
X147145374Y-135799286D01*
X147160493Y-135920238D01*
X147780374Y-136041190D01*
X146699362Y-135617857D02*
X146502814Y-136464524D01*
X146094601Y-135617857D01*
X145225256Y-136404048D02*
X145353767Y-136464524D01*
X145595672Y-136464524D01*
X145709065Y-136404048D01*
X145754422Y-136283095D01*
X145693946Y-135799286D01*
X145618351Y-135678333D01*
X145489839Y-135617857D01*
X145247934Y-135617857D01*
X145134542Y-135678333D01*
X145089184Y-135799286D01*
X145104303Y-135920238D01*
X145724184Y-136041190D01*
X144446624Y-136464524D02*
X144560018Y-136404048D01*
X144605375Y-136283095D01*
X144469303Y-135194524D01*
X143781386Y-136464524D02*
X143894780Y-136404048D01*
X143947696Y-136343571D01*
X143993053Y-136222619D01*
X143947696Y-135859762D01*
X143872101Y-135738810D01*
X143804066Y-135678333D01*
X143675553Y-135617857D01*
X143494125Y-135617857D01*
X143380733Y-135678333D01*
X143327815Y-135738810D01*
X143282458Y-135859762D01*
X143327815Y-136222619D01*
X143403410Y-136343571D01*
X143471447Y-136404048D01*
X143599958Y-136464524D01*
X143781386Y-136464524D01*
X142707934Y-135617857D02*
X142866684Y-136887857D01*
X142715494Y-135678333D02*
X142586982Y-135617857D01*
X142345077Y-135617857D01*
X142231685Y-135678333D01*
X142178767Y-135738810D01*
X142133410Y-135859762D01*
X142178767Y-136222619D01*
X142254362Y-136343571D01*
X142322399Y-136404048D01*
X142450910Y-136464524D01*
X142692815Y-136464524D01*
X142806208Y-136404048D01*
X141664719Y-136464524D02*
X141558886Y-135617857D01*
X141574005Y-135738810D02*
X141505970Y-135678333D01*
X141377457Y-135617857D01*
X141196029Y-135617857D01*
X141082637Y-135678333D01*
X141037279Y-135799286D01*
X141120433Y-136464524D01*
X141037279Y-135799286D02*
X140961684Y-135678333D01*
X140833172Y-135617857D01*
X140651743Y-135617857D01*
X140538351Y-135678333D01*
X140492994Y-135799286D01*
X140576148Y-136464524D01*
X139480018Y-136404048D02*
X139608529Y-136464524D01*
X139850434Y-136464524D01*
X139963827Y-136404048D01*
X140009184Y-136283095D01*
X139948708Y-135799286D01*
X139873113Y-135678333D01*
X139744601Y-135617857D01*
X139502696Y-135617857D01*
X139389304Y-135678333D01*
X139343946Y-135799286D01*
X139359065Y-135920238D01*
X139978946Y-136041190D01*
X138776982Y-135617857D02*
X138882815Y-136464524D01*
X138792101Y-135738810D02*
X138724066Y-135678333D01*
X138595553Y-135617857D01*
X138414125Y-135617857D01*
X138300733Y-135678333D01*
X138255375Y-135799286D01*
X138338529Y-136464524D01*
X137809363Y-135617857D02*
X137325553Y-135617857D01*
X137575017Y-135194524D02*
X137711089Y-136283095D01*
X137665732Y-136404048D01*
X137552338Y-136464524D01*
X137431386Y-136464524D01*
D13*
X148562785Y-131426857D02*
X146675928Y-131426857D01*
X147837071Y-132588000D01*
X147401643Y-132588000D01*
X147129500Y-132733143D01*
X147002500Y-132878286D01*
X146893642Y-133168571D01*
X146984357Y-133894286D01*
X147165785Y-134184571D01*
X147329071Y-134329714D01*
X147637500Y-134474857D01*
X148508357Y-134474857D01*
X148780500Y-134329714D01*
X148907499Y-134184571D01*
X145551072Y-131717143D02*
X145387786Y-131572000D01*
X145079357Y-131426857D01*
X144353643Y-131426857D01*
X144081500Y-131572000D01*
X143954500Y-131717143D01*
X143845643Y-132007429D01*
X143881928Y-132297714D01*
X144081500Y-132733143D01*
X146040928Y-134474857D01*
X144154071Y-134474857D01*
X142466786Y-131426857D02*
X142775215Y-133894286D01*
X142666357Y-134184571D01*
X142539357Y-134329714D01*
X142267214Y-134474857D01*
X141686643Y-134474857D01*
X141378214Y-134329714D01*
X141214928Y-134184571D01*
X141033500Y-133894286D01*
X140725071Y-131426857D01*
X139455072Y-131717143D02*
X139291786Y-131572000D01*
X138983357Y-131426857D01*
X138257643Y-131426857D01*
X137985500Y-131572000D01*
X137858500Y-131717143D01*
X137749643Y-132007429D01*
X137785928Y-132297714D01*
X137985500Y-132733143D01*
X139944928Y-134474857D01*
X138058071Y-134474857D01*
D14*
X148820214Y-137608571D02*
X147891643Y-137608571D01*
X148391643Y-138180000D01*
X148177357Y-138180000D01*
X148034500Y-138251429D01*
X147963071Y-138322857D01*
X147891643Y-138465714D01*
X147891643Y-138822857D01*
X147963071Y-138965714D01*
X148034500Y-139037143D01*
X148177357Y-139108571D01*
X148605929Y-139108571D01*
X148748786Y-139037143D01*
X148820214Y-138965714D01*
X147248786Y-138965714D02*
X147177358Y-139037143D01*
X147248786Y-139108571D01*
X147320215Y-139037143D01*
X147248786Y-138965714D01*
X147248786Y-139108571D01*
X146677357Y-137608571D02*
X145748786Y-137608571D01*
X146248786Y-138180000D01*
X146034500Y-138180000D01*
X145891643Y-138251429D01*
X145820214Y-138322857D01*
X145748786Y-138465714D01*
X145748786Y-138822857D01*
X145820214Y-138965714D01*
X145891643Y-139037143D01*
X146034500Y-139108571D01*
X146463072Y-139108571D01*
X146605929Y-139037143D01*
X146677357Y-138965714D01*
X145320215Y-137608571D02*
X144820215Y-139108571D01*
X144320215Y-137608571D01*
X142463072Y-138251429D02*
X142605930Y-138180000D01*
X142677358Y-138108571D01*
X142748787Y-137965714D01*
X142748787Y-137894286D01*
X142677358Y-137751429D01*
X142605930Y-137680000D01*
X142463072Y-137608571D01*
X142177358Y-137608571D01*
X142034501Y-137680000D01*
X141963072Y-137751429D01*
X141891644Y-137894286D01*
X141891644Y-137965714D01*
X141963072Y-138108571D01*
X142034501Y-138180000D01*
X142177358Y-138251429D01*
X142463072Y-138251429D01*
X142605930Y-138322857D01*
X142677358Y-138394286D01*
X142748787Y-138537143D01*
X142748787Y-138822857D01*
X142677358Y-138965714D01*
X142605930Y-139037143D01*
X142463072Y-139108571D01*
X142177358Y-139108571D01*
X142034501Y-139037143D01*
X141963072Y-138965714D01*
X141891644Y-138822857D01*
X141891644Y-138537143D01*
X141963072Y-138394286D01*
X142034501Y-138322857D01*
X142177358Y-138251429D01*
X141248787Y-139108571D02*
X141248787Y-137608571D01*
X140748787Y-138680000D01*
X140248787Y-137608571D01*
X140248787Y-139108571D01*
X139534501Y-139108571D02*
X139534501Y-137608571D01*
X139534501Y-138322857D02*
X138677358Y-138322857D01*
X138677358Y-139108571D02*
X138677358Y-137608571D01*
X138105929Y-138108571D02*
X137320215Y-138108571D01*
X138105929Y-139108571D01*
X137320215Y-139108571D01*
D13*
X148562786Y-97390857D02*
X146675929Y-97390857D01*
X147837072Y-98552000D01*
X147401644Y-98552000D01*
X147129501Y-98697143D01*
X147002501Y-98842286D01*
X146893643Y-99132571D01*
X146984358Y-99858286D01*
X147165786Y-100148571D01*
X147329072Y-100293714D01*
X147637501Y-100438857D01*
X148508358Y-100438857D01*
X148780501Y-100293714D01*
X148907500Y-100148571D01*
X145551073Y-97681143D02*
X145387787Y-97536000D01*
X145079358Y-97390857D01*
X144353644Y-97390857D01*
X144081501Y-97536000D01*
X143954501Y-97681143D01*
X143845644Y-97971429D01*
X143881929Y-98261714D01*
X144081501Y-98697143D01*
X146040929Y-100438857D01*
X144154072Y-100438857D01*
X142466787Y-97390857D02*
X142775216Y-99858286D01*
X142666358Y-100148571D01*
X142539358Y-100293714D01*
X142267215Y-100438857D01*
X141686644Y-100438857D01*
X141378215Y-100293714D01*
X141214929Y-100148571D01*
X141033501Y-99858286D01*
X140725072Y-97390857D01*
X139455073Y-97681143D02*
X139291787Y-97536000D01*
X138983358Y-97390857D01*
X138257644Y-97390857D01*
X137985501Y-97536000D01*
X137858501Y-97681143D01*
X137749644Y-97971429D01*
X137785929Y-98261714D01*
X137985501Y-98697143D01*
X139944929Y-100438857D01*
X138058072Y-100438857D01*
D12*
X149042814Y-102428524D02*
X148884064Y-101158524D01*
X148581683Y-101158524D01*
X148407815Y-101219000D01*
X148301981Y-101339952D01*
X148256624Y-101460905D01*
X148226386Y-101702810D01*
X148249065Y-101884238D01*
X148339779Y-102126143D01*
X148415374Y-102247095D01*
X148551446Y-102368048D01*
X148740433Y-102428524D01*
X149042814Y-102428524D01*
X147281446Y-102368048D02*
X147409957Y-102428524D01*
X147651862Y-102428524D01*
X147765255Y-102368048D01*
X147810612Y-102247095D01*
X147750136Y-101763286D01*
X147674541Y-101642333D01*
X147546029Y-101581857D01*
X147304124Y-101581857D01*
X147190732Y-101642333D01*
X147145374Y-101763286D01*
X147160493Y-101884238D01*
X147780374Y-102005190D01*
X146699362Y-101581857D02*
X146502814Y-102428524D01*
X146094601Y-101581857D01*
X145225256Y-102368048D02*
X145353767Y-102428524D01*
X145595672Y-102428524D01*
X145709065Y-102368048D01*
X145754422Y-102247095D01*
X145693946Y-101763286D01*
X145618351Y-101642333D01*
X145489839Y-101581857D01*
X145247934Y-101581857D01*
X145134542Y-101642333D01*
X145089184Y-101763286D01*
X145104303Y-101884238D01*
X145724184Y-102005190D01*
X144446624Y-102428524D02*
X144560018Y-102368048D01*
X144605375Y-102247095D01*
X144469303Y-101158524D01*
X143781386Y-102428524D02*
X143894780Y-102368048D01*
X143947696Y-102307571D01*
X143993053Y-102186619D01*
X143947696Y-101823762D01*
X143872101Y-101702810D01*
X143804066Y-101642333D01*
X143675553Y-101581857D01*
X143494125Y-101581857D01*
X143380733Y-101642333D01*
X143327815Y-101702810D01*
X143282458Y-101823762D01*
X143327815Y-102186619D01*
X143403410Y-102307571D01*
X143471447Y-102368048D01*
X143599958Y-102428524D01*
X143781386Y-102428524D01*
X142707934Y-101581857D02*
X142866684Y-102851857D01*
X142715494Y-101642333D02*
X142586982Y-101581857D01*
X142345077Y-101581857D01*
X142231685Y-101642333D01*
X142178767Y-101702810D01*
X142133410Y-101823762D01*
X142178767Y-102186619D01*
X142254362Y-102307571D01*
X142322399Y-102368048D01*
X142450910Y-102428524D01*
X142692815Y-102428524D01*
X142806208Y-102368048D01*
X141664719Y-102428524D02*
X141558886Y-101581857D01*
X141574005Y-101702810D02*
X141505970Y-101642333D01*
X141377457Y-101581857D01*
X141196029Y-101581857D01*
X141082637Y-101642333D01*
X141037279Y-101763286D01*
X141120433Y-102428524D01*
X141037279Y-101763286D02*
X140961684Y-101642333D01*
X140833172Y-101581857D01*
X140651743Y-101581857D01*
X140538351Y-101642333D01*
X140492994Y-101763286D01*
X140576148Y-102428524D01*
X139480018Y-102368048D02*
X139608529Y-102428524D01*
X139850434Y-102428524D01*
X139963827Y-102368048D01*
X140009184Y-102247095D01*
X139948708Y-101763286D01*
X139873113Y-101642333D01*
X139744601Y-101581857D01*
X139502696Y-101581857D01*
X139389304Y-101642333D01*
X139343946Y-101763286D01*
X139359065Y-101884238D01*
X139978946Y-102005190D01*
X138776982Y-101581857D02*
X138882815Y-102428524D01*
X138792101Y-101702810D02*
X138724066Y-101642333D01*
X138595553Y-101581857D01*
X138414125Y-101581857D01*
X138300733Y-101642333D01*
X138255375Y-101763286D01*
X138338529Y-102428524D01*
X137809363Y-101581857D02*
X137325553Y-101581857D01*
X137575017Y-101158524D02*
X137711089Y-102247095D01*
X137665732Y-102368048D01*
X137552338Y-102428524D01*
X137431386Y-102428524D01*
D11*
X150233071Y-114778286D02*
X149804500Y-114778286D01*
X150018786Y-115528286D02*
X150018786Y-114778286D01*
X149554500Y-115528286D02*
X149554500Y-114778286D01*
X149554500Y-115135429D02*
X149125928Y-115135429D01*
X149125928Y-115528286D02*
X149125928Y-114778286D01*
X148768786Y-114778286D02*
X148768786Y-115385429D01*
X148733071Y-115456857D01*
X148697357Y-115492571D01*
X148625928Y-115528286D01*
X148483071Y-115528286D01*
X148411643Y-115492571D01*
X148375928Y-115456857D01*
X148340214Y-115385429D01*
X148340214Y-114778286D01*
X147983072Y-115528286D02*
X147983072Y-114778286D01*
X147554500Y-115528286D01*
X147554500Y-114778286D01*
X147197358Y-115528286D02*
X147197358Y-114778286D01*
X146768786Y-115528286D02*
X147090215Y-115099714D01*
X146768786Y-114778286D02*
X147197358Y-115206857D01*
X146447358Y-115528286D02*
X146447358Y-114778286D01*
X146197357Y-114778286D02*
X145768786Y-114778286D01*
X145983072Y-115528286D02*
X145983072Y-114778286D01*
X144947357Y-115135429D02*
X144697357Y-115135429D01*
X144590214Y-115528286D02*
X144947357Y-115528286D01*
X144947357Y-114778286D01*
X144590214Y-114778286D01*
X143911643Y-115528286D02*
X144268786Y-115528286D01*
X144268786Y-114778286D01*
X143661643Y-115135429D02*
X143411643Y-115135429D01*
X143304500Y-115528286D02*
X143661643Y-115528286D01*
X143661643Y-114778286D01*
X143304500Y-114778286D01*
X142554500Y-115456857D02*
X142590214Y-115492571D01*
X142697357Y-115528286D01*
X142768786Y-115528286D01*
X142875929Y-115492571D01*
X142947357Y-115421143D01*
X142983072Y-115349714D01*
X143018786Y-115206857D01*
X143018786Y-115099714D01*
X142983072Y-114956857D01*
X142947357Y-114885429D01*
X142875929Y-114814000D01*
X142768786Y-114778286D01*
X142697357Y-114778286D01*
X142590214Y-114814000D01*
X142554500Y-114849714D01*
X142340214Y-114778286D02*
X141911643Y-114778286D01*
X142125929Y-115528286D02*
X142125929Y-114778286D01*
X141233071Y-115528286D02*
X141483071Y-115171143D01*
X141661643Y-115528286D02*
X141661643Y-114778286D01*
X141375928Y-114778286D01*
X141304500Y-114814000D01*
X141268785Y-114849714D01*
X141233071Y-114921143D01*
X141233071Y-115028286D01*
X141268785Y-115099714D01*
X141304500Y-115135429D01*
X141375928Y-115171143D01*
X141661643Y-115171143D01*
X140768785Y-114778286D02*
X140625928Y-114778286D01*
X140554500Y-114814000D01*
X140483071Y-114885429D01*
X140447357Y-115028286D01*
X140447357Y-115278286D01*
X140483071Y-115421143D01*
X140554500Y-115492571D01*
X140625928Y-115528286D01*
X140768785Y-115528286D01*
X140840214Y-115492571D01*
X140911643Y-115421143D01*
X140947357Y-115278286D01*
X140947357Y-115028286D01*
X140911643Y-114885429D01*
X140840214Y-114814000D01*
X140768785Y-114778286D01*
X140125929Y-115528286D02*
X140125929Y-114778286D01*
X139697357Y-115528286D01*
X139697357Y-114778286D01*
X139340215Y-115528286D02*
X139340215Y-114778286D01*
X138554500Y-115456857D02*
X138590214Y-115492571D01*
X138697357Y-115528286D01*
X138768786Y-115528286D01*
X138875929Y-115492571D01*
X138947357Y-115421143D01*
X138983072Y-115349714D01*
X139018786Y-115206857D01*
X139018786Y-115099714D01*
X138983072Y-114956857D01*
X138947357Y-114885429D01*
X138875929Y-114814000D01*
X138768786Y-114778286D01*
X138697357Y-114778286D01*
X138590214Y-114814000D01*
X138554500Y-114849714D01*
X138268786Y-115492571D02*
X138161643Y-115528286D01*
X137983072Y-115528286D01*
X137911643Y-115492571D01*
X137875929Y-115456857D01*
X137840214Y-115385429D01*
X137840214Y-115314000D01*
X137875929Y-115242571D01*
X137911643Y-115206857D01*
X137983072Y-115171143D01*
X138125929Y-115135429D01*
X138197357Y-115099714D01*
X138233072Y-115064000D01*
X138268786Y-114992571D01*
X138268786Y-114921143D01*
X138233072Y-114849714D01*
X138197357Y-114814000D01*
X138125929Y-114778286D01*
X137947357Y-114778286D01*
X137840214Y-114814000D01*
D14*
X148820214Y-103572571D02*
X147891643Y-103572571D01*
X148391643Y-104144000D01*
X148177357Y-104144000D01*
X148034500Y-104215429D01*
X147963071Y-104286857D01*
X147891643Y-104429714D01*
X147891643Y-104786857D01*
X147963071Y-104929714D01*
X148034500Y-105001143D01*
X148177357Y-105072571D01*
X148605929Y-105072571D01*
X148748786Y-105001143D01*
X148820214Y-104929714D01*
X147248786Y-104929714D02*
X147177358Y-105001143D01*
X147248786Y-105072571D01*
X147320215Y-105001143D01*
X147248786Y-104929714D01*
X147248786Y-105072571D01*
X146677357Y-103572571D02*
X145748786Y-103572571D01*
X146248786Y-104144000D01*
X146034500Y-104144000D01*
X145891643Y-104215429D01*
X145820214Y-104286857D01*
X145748786Y-104429714D01*
X145748786Y-104786857D01*
X145820214Y-104929714D01*
X145891643Y-105001143D01*
X146034500Y-105072571D01*
X146463072Y-105072571D01*
X146605929Y-105001143D01*
X146677357Y-104929714D01*
X145320215Y-103572571D02*
X144820215Y-105072571D01*
X144320215Y-103572571D01*
X142463072Y-104215429D02*
X142605930Y-104144000D01*
X142677358Y-104072571D01*
X142748787Y-103929714D01*
X142748787Y-103858286D01*
X142677358Y-103715429D01*
X142605930Y-103644000D01*
X142463072Y-103572571D01*
X142177358Y-103572571D01*
X142034501Y-103644000D01*
X141963072Y-103715429D01*
X141891644Y-103858286D01*
X141891644Y-103929714D01*
X141963072Y-104072571D01*
X142034501Y-104144000D01*
X142177358Y-104215429D01*
X142463072Y-104215429D01*
X142605930Y-104286857D01*
X142677358Y-104358286D01*
X142748787Y-104501143D01*
X142748787Y-104786857D01*
X142677358Y-104929714D01*
X142605930Y-105001143D01*
X142463072Y-105072571D01*
X142177358Y-105072571D01*
X142034501Y-105001143D01*
X141963072Y-104929714D01*
X141891644Y-104786857D01*
X141891644Y-104501143D01*
X141963072Y-104358286D01*
X142034501Y-104286857D01*
X142177358Y-104215429D01*
X141248787Y-105072571D02*
X141248787Y-103572571D01*
X140748787Y-104644000D01*
X140248787Y-103572571D01*
X140248787Y-105072571D01*
X139534501Y-105072571D02*
X139534501Y-103572571D01*
X139534501Y-104286857D02*
X138677358Y-104286857D01*
X138677358Y-105072571D02*
X138677358Y-103572571D01*
X138105929Y-104072571D02*
X137320215Y-104072571D01*
X138105929Y-105072571D01*
X137320215Y-105072571D01*
D12*
X172918815Y-102428524D02*
X172760065Y-101158524D01*
X172457684Y-101158524D01*
X172283816Y-101219000D01*
X172177982Y-101339952D01*
X172132625Y-101460905D01*
X172102387Y-101702810D01*
X172125066Y-101884238D01*
X172215780Y-102126143D01*
X172291375Y-102247095D01*
X172427447Y-102368048D01*
X172616434Y-102428524D01*
X172918815Y-102428524D01*
X171157447Y-102368048D02*
X171285958Y-102428524D01*
X171527863Y-102428524D01*
X171641256Y-102368048D01*
X171686613Y-102247095D01*
X171626137Y-101763286D01*
X171550542Y-101642333D01*
X171422030Y-101581857D01*
X171180125Y-101581857D01*
X171066733Y-101642333D01*
X171021375Y-101763286D01*
X171036494Y-101884238D01*
X171656375Y-102005190D01*
X170575363Y-101581857D02*
X170378815Y-102428524D01*
X169970602Y-101581857D01*
X169101257Y-102368048D02*
X169229768Y-102428524D01*
X169471673Y-102428524D01*
X169585066Y-102368048D01*
X169630423Y-102247095D01*
X169569947Y-101763286D01*
X169494352Y-101642333D01*
X169365840Y-101581857D01*
X169123935Y-101581857D01*
X169010543Y-101642333D01*
X168965185Y-101763286D01*
X168980304Y-101884238D01*
X169600185Y-102005190D01*
X168322625Y-102428524D02*
X168436019Y-102368048D01*
X168481376Y-102247095D01*
X168345304Y-101158524D01*
X167657387Y-102428524D02*
X167770781Y-102368048D01*
X167823697Y-102307571D01*
X167869054Y-102186619D01*
X167823697Y-101823762D01*
X167748102Y-101702810D01*
X167680067Y-101642333D01*
X167551554Y-101581857D01*
X167370126Y-101581857D01*
X167256734Y-101642333D01*
X167203816Y-101702810D01*
X167158459Y-101823762D01*
X167203816Y-102186619D01*
X167279411Y-102307571D01*
X167347448Y-102368048D01*
X167475959Y-102428524D01*
X167657387Y-102428524D01*
X166583935Y-101581857D02*
X166742685Y-102851857D01*
X166591495Y-101642333D02*
X166462983Y-101581857D01*
X166221078Y-101581857D01*
X166107686Y-101642333D01*
X166054768Y-101702810D01*
X166009411Y-101823762D01*
X166054768Y-102186619D01*
X166130363Y-102307571D01*
X166198400Y-102368048D01*
X166326911Y-102428524D01*
X166568816Y-102428524D01*
X166682209Y-102368048D01*
X165540720Y-102428524D02*
X165434887Y-101581857D01*
X165450006Y-101702810D02*
X165381971Y-101642333D01*
X165253458Y-101581857D01*
X165072030Y-101581857D01*
X164958638Y-101642333D01*
X164913280Y-101763286D01*
X164996434Y-102428524D01*
X164913280Y-101763286D02*
X164837685Y-101642333D01*
X164709173Y-101581857D01*
X164527744Y-101581857D01*
X164414352Y-101642333D01*
X164368995Y-101763286D01*
X164452149Y-102428524D01*
X163356019Y-102368048D02*
X163484530Y-102428524D01*
X163726435Y-102428524D01*
X163839828Y-102368048D01*
X163885185Y-102247095D01*
X163824709Y-101763286D01*
X163749114Y-101642333D01*
X163620602Y-101581857D01*
X163378697Y-101581857D01*
X163265305Y-101642333D01*
X163219947Y-101763286D01*
X163235066Y-101884238D01*
X163854947Y-102005190D01*
X162652983Y-101581857D02*
X162758816Y-102428524D01*
X162668102Y-101702810D02*
X162600067Y-101642333D01*
X162471554Y-101581857D01*
X162290126Y-101581857D01*
X162176734Y-101642333D01*
X162131376Y-101763286D01*
X162214530Y-102428524D01*
X161685364Y-101581857D02*
X161201554Y-101581857D01*
X161451018Y-101158524D02*
X161587090Y-102247095D01*
X161541733Y-102368048D01*
X161428339Y-102428524D01*
X161307387Y-102428524D01*
D14*
X172696214Y-103572571D02*
X171767643Y-103572571D01*
X172267643Y-104144000D01*
X172053357Y-104144000D01*
X171910500Y-104215429D01*
X171839071Y-104286857D01*
X171767643Y-104429714D01*
X171767643Y-104786857D01*
X171839071Y-104929714D01*
X171910500Y-105001143D01*
X172053357Y-105072571D01*
X172481929Y-105072571D01*
X172624786Y-105001143D01*
X172696214Y-104929714D01*
X171124786Y-104929714D02*
X171053358Y-105001143D01*
X171124786Y-105072571D01*
X171196215Y-105001143D01*
X171124786Y-104929714D01*
X171124786Y-105072571D01*
X170553357Y-103572571D02*
X169624786Y-103572571D01*
X170124786Y-104144000D01*
X169910500Y-104144000D01*
X169767643Y-104215429D01*
X169696214Y-104286857D01*
X169624786Y-104429714D01*
X169624786Y-104786857D01*
X169696214Y-104929714D01*
X169767643Y-105001143D01*
X169910500Y-105072571D01*
X170339072Y-105072571D01*
X170481929Y-105001143D01*
X170553357Y-104929714D01*
X169196215Y-103572571D02*
X168696215Y-105072571D01*
X168196215Y-103572571D01*
X166339072Y-104215429D02*
X166481930Y-104144000D01*
X166553358Y-104072571D01*
X166624787Y-103929714D01*
X166624787Y-103858286D01*
X166553358Y-103715429D01*
X166481930Y-103644000D01*
X166339072Y-103572571D01*
X166053358Y-103572571D01*
X165910501Y-103644000D01*
X165839072Y-103715429D01*
X165767644Y-103858286D01*
X165767644Y-103929714D01*
X165839072Y-104072571D01*
X165910501Y-104144000D01*
X166053358Y-104215429D01*
X166339072Y-104215429D01*
X166481930Y-104286857D01*
X166553358Y-104358286D01*
X166624787Y-104501143D01*
X166624787Y-104786857D01*
X166553358Y-104929714D01*
X166481930Y-105001143D01*
X166339072Y-105072571D01*
X166053358Y-105072571D01*
X165910501Y-105001143D01*
X165839072Y-104929714D01*
X165767644Y-104786857D01*
X165767644Y-104501143D01*
X165839072Y-104358286D01*
X165910501Y-104286857D01*
X166053358Y-104215429D01*
X165124787Y-105072571D02*
X165124787Y-103572571D01*
X164624787Y-104644000D01*
X164124787Y-103572571D01*
X164124787Y-105072571D01*
X163410501Y-105072571D02*
X163410501Y-103572571D01*
X163410501Y-104286857D02*
X162553358Y-104286857D01*
X162553358Y-105072571D02*
X162553358Y-103572571D01*
X161981929Y-104072571D02*
X161196215Y-104072571D01*
X161981929Y-105072571D01*
X161196215Y-105072571D01*
D13*
X172438785Y-97390857D02*
X170551928Y-97390857D01*
X171713071Y-98552000D01*
X171277643Y-98552000D01*
X171005500Y-98697143D01*
X170878500Y-98842286D01*
X170769642Y-99132571D01*
X170860357Y-99858286D01*
X171041785Y-100148571D01*
X171205071Y-100293714D01*
X171513500Y-100438857D01*
X172384357Y-100438857D01*
X172656500Y-100293714D01*
X172783499Y-100148571D01*
X169427072Y-97681143D02*
X169263786Y-97536000D01*
X168955357Y-97390857D01*
X168229643Y-97390857D01*
X167957500Y-97536000D01*
X167830500Y-97681143D01*
X167721643Y-97971429D01*
X167757928Y-98261714D01*
X167957500Y-98697143D01*
X169916928Y-100438857D01*
X168030071Y-100438857D01*
X166342786Y-97390857D02*
X166651215Y-99858286D01*
X166542357Y-100148571D01*
X166415357Y-100293714D01*
X166143214Y-100438857D01*
X165562643Y-100438857D01*
X165254214Y-100293714D01*
X165090928Y-100148571D01*
X164909500Y-99858286D01*
X164601071Y-97390857D01*
X163331072Y-97681143D02*
X163167786Y-97536000D01*
X162859357Y-97390857D01*
X162133643Y-97390857D01*
X161861500Y-97536000D01*
X161734500Y-97681143D01*
X161625643Y-97971429D01*
X161661928Y-98261714D01*
X161861500Y-98697143D01*
X163820928Y-100438857D01*
X161934071Y-100438857D01*
D11*
X174109070Y-114778286D02*
X173680499Y-114778286D01*
X173894785Y-115528286D02*
X173894785Y-114778286D01*
X173430499Y-115528286D02*
X173430499Y-114778286D01*
X173430499Y-115135429D02*
X173001927Y-115135429D01*
X173001927Y-115528286D02*
X173001927Y-114778286D01*
X172644785Y-114778286D02*
X172644785Y-115385429D01*
X172609070Y-115456857D01*
X172573356Y-115492571D01*
X172501927Y-115528286D01*
X172359070Y-115528286D01*
X172287642Y-115492571D01*
X172251927Y-115456857D01*
X172216213Y-115385429D01*
X172216213Y-114778286D01*
X171859071Y-115528286D02*
X171859071Y-114778286D01*
X171430499Y-115528286D01*
X171430499Y-114778286D01*
X171073357Y-115528286D02*
X171073357Y-114778286D01*
X170644785Y-115528286D02*
X170966214Y-115099714D01*
X170644785Y-114778286D02*
X171073357Y-115206857D01*
X170323357Y-115528286D02*
X170323357Y-114778286D01*
X170073356Y-114778286D02*
X169644785Y-114778286D01*
X169859071Y-115528286D02*
X169859071Y-114778286D01*
X168823356Y-115135429D02*
X168573356Y-115135429D01*
X168466213Y-115528286D02*
X168823356Y-115528286D01*
X168823356Y-114778286D01*
X168466213Y-114778286D01*
X167787642Y-115528286D02*
X168144785Y-115528286D01*
X168144785Y-114778286D01*
X167537642Y-115135429D02*
X167287642Y-115135429D01*
X167180499Y-115528286D02*
X167537642Y-115528286D01*
X167537642Y-114778286D01*
X167180499Y-114778286D01*
X166430499Y-115456857D02*
X166466213Y-115492571D01*
X166573356Y-115528286D01*
X166644785Y-115528286D01*
X166751928Y-115492571D01*
X166823356Y-115421143D01*
X166859071Y-115349714D01*
X166894785Y-115206857D01*
X166894785Y-115099714D01*
X166859071Y-114956857D01*
X166823356Y-114885429D01*
X166751928Y-114814000D01*
X166644785Y-114778286D01*
X166573356Y-114778286D01*
X166466213Y-114814000D01*
X166430499Y-114849714D01*
X166216213Y-114778286D02*
X165787642Y-114778286D01*
X166001928Y-115528286D02*
X166001928Y-114778286D01*
X165109070Y-115528286D02*
X165359070Y-115171143D01*
X165537642Y-115528286D02*
X165537642Y-114778286D01*
X165251927Y-114778286D01*
X165180499Y-114814000D01*
X165144784Y-114849714D01*
X165109070Y-114921143D01*
X165109070Y-115028286D01*
X165144784Y-115099714D01*
X165180499Y-115135429D01*
X165251927Y-115171143D01*
X165537642Y-115171143D01*
X164644784Y-114778286D02*
X164501927Y-114778286D01*
X164430499Y-114814000D01*
X164359070Y-114885429D01*
X164323356Y-115028286D01*
X164323356Y-115278286D01*
X164359070Y-115421143D01*
X164430499Y-115492571D01*
X164501927Y-115528286D01*
X164644784Y-115528286D01*
X164716213Y-115492571D01*
X164787642Y-115421143D01*
X164823356Y-115278286D01*
X164823356Y-115028286D01*
X164787642Y-114885429D01*
X164716213Y-114814000D01*
X164644784Y-114778286D01*
X164001928Y-115528286D02*
X164001928Y-114778286D01*
X163573356Y-115528286D01*
X163573356Y-114778286D01*
X163216214Y-115528286D02*
X163216214Y-114778286D01*
X162430499Y-115456857D02*
X162466213Y-115492571D01*
X162573356Y-115528286D01*
X162644785Y-115528286D01*
X162751928Y-115492571D01*
X162823356Y-115421143D01*
X162859071Y-115349714D01*
X162894785Y-115206857D01*
X162894785Y-115099714D01*
X162859071Y-114956857D01*
X162823356Y-114885429D01*
X162751928Y-114814000D01*
X162644785Y-114778286D01*
X162573356Y-114778286D01*
X162466213Y-114814000D01*
X162430499Y-114849714D01*
X162144785Y-115492571D02*
X162037642Y-115528286D01*
X161859071Y-115528286D01*
X161787642Y-115492571D01*
X161751928Y-115456857D01*
X161716213Y-115385429D01*
X161716213Y-115314000D01*
X161751928Y-115242571D01*
X161787642Y-115206857D01*
X161859071Y-115171143D01*
X162001928Y-115135429D01*
X162073356Y-115099714D01*
X162109071Y-115064000D01*
X162144785Y-114992571D01*
X162144785Y-114921143D01*
X162109071Y-114849714D01*
X162073356Y-114814000D01*
X162001928Y-114778286D01*
X161823356Y-114778286D01*
X161716213Y-114814000D01*
D14*
X124944214Y-103572571D02*
X124015643Y-103572571D01*
X124515643Y-104144000D01*
X124301357Y-104144000D01*
X124158500Y-104215429D01*
X124087071Y-104286857D01*
X124015643Y-104429714D01*
X124015643Y-104786857D01*
X124087071Y-104929714D01*
X124158500Y-105001143D01*
X124301357Y-105072571D01*
X124729929Y-105072571D01*
X124872786Y-105001143D01*
X124944214Y-104929714D01*
X123372786Y-104929714D02*
X123301358Y-105001143D01*
X123372786Y-105072571D01*
X123444215Y-105001143D01*
X123372786Y-104929714D01*
X123372786Y-105072571D01*
X122801357Y-103572571D02*
X121872786Y-103572571D01*
X122372786Y-104144000D01*
X122158500Y-104144000D01*
X122015643Y-104215429D01*
X121944214Y-104286857D01*
X121872786Y-104429714D01*
X121872786Y-104786857D01*
X121944214Y-104929714D01*
X122015643Y-105001143D01*
X122158500Y-105072571D01*
X122587072Y-105072571D01*
X122729929Y-105001143D01*
X122801357Y-104929714D01*
X121444215Y-103572571D02*
X120944215Y-105072571D01*
X120444215Y-103572571D01*
X118587072Y-104215429D02*
X118729930Y-104144000D01*
X118801358Y-104072571D01*
X118872787Y-103929714D01*
X118872787Y-103858286D01*
X118801358Y-103715429D01*
X118729930Y-103644000D01*
X118587072Y-103572571D01*
X118301358Y-103572571D01*
X118158501Y-103644000D01*
X118087072Y-103715429D01*
X118015644Y-103858286D01*
X118015644Y-103929714D01*
X118087072Y-104072571D01*
X118158501Y-104144000D01*
X118301358Y-104215429D01*
X118587072Y-104215429D01*
X118729930Y-104286857D01*
X118801358Y-104358286D01*
X118872787Y-104501143D01*
X118872787Y-104786857D01*
X118801358Y-104929714D01*
X118729930Y-105001143D01*
X118587072Y-105072571D01*
X118301358Y-105072571D01*
X118158501Y-105001143D01*
X118087072Y-104929714D01*
X118015644Y-104786857D01*
X118015644Y-104501143D01*
X118087072Y-104358286D01*
X118158501Y-104286857D01*
X118301358Y-104215429D01*
X117372787Y-105072571D02*
X117372787Y-103572571D01*
X116872787Y-104644000D01*
X116372787Y-103572571D01*
X116372787Y-105072571D01*
X115658501Y-105072571D02*
X115658501Y-103572571D01*
X115658501Y-104286857D02*
X114801358Y-104286857D01*
X114801358Y-105072571D02*
X114801358Y-103572571D01*
X114229929Y-104072571D02*
X113444215Y-104072571D01*
X114229929Y-105072571D01*
X113444215Y-105072571D01*
D12*
X125166815Y-102428524D02*
X125008065Y-101158524D01*
X124705684Y-101158524D01*
X124531816Y-101219000D01*
X124425982Y-101339952D01*
X124380625Y-101460905D01*
X124350387Y-101702810D01*
X124373066Y-101884238D01*
X124463780Y-102126143D01*
X124539375Y-102247095D01*
X124675447Y-102368048D01*
X124864434Y-102428524D01*
X125166815Y-102428524D01*
X123405447Y-102368048D02*
X123533958Y-102428524D01*
X123775863Y-102428524D01*
X123889256Y-102368048D01*
X123934613Y-102247095D01*
X123874137Y-101763286D01*
X123798542Y-101642333D01*
X123670030Y-101581857D01*
X123428125Y-101581857D01*
X123314733Y-101642333D01*
X123269375Y-101763286D01*
X123284494Y-101884238D01*
X123904375Y-102005190D01*
X122823363Y-101581857D02*
X122626815Y-102428524D01*
X122218602Y-101581857D01*
X121349257Y-102368048D02*
X121477768Y-102428524D01*
X121719673Y-102428524D01*
X121833066Y-102368048D01*
X121878423Y-102247095D01*
X121817947Y-101763286D01*
X121742352Y-101642333D01*
X121613840Y-101581857D01*
X121371935Y-101581857D01*
X121258543Y-101642333D01*
X121213185Y-101763286D01*
X121228304Y-101884238D01*
X121848185Y-102005190D01*
X120570625Y-102428524D02*
X120684019Y-102368048D01*
X120729376Y-102247095D01*
X120593304Y-101158524D01*
X119905387Y-102428524D02*
X120018781Y-102368048D01*
X120071697Y-102307571D01*
X120117054Y-102186619D01*
X120071697Y-101823762D01*
X119996102Y-101702810D01*
X119928067Y-101642333D01*
X119799554Y-101581857D01*
X119618126Y-101581857D01*
X119504734Y-101642333D01*
X119451816Y-101702810D01*
X119406459Y-101823762D01*
X119451816Y-102186619D01*
X119527411Y-102307571D01*
X119595448Y-102368048D01*
X119723959Y-102428524D01*
X119905387Y-102428524D01*
X118831935Y-101581857D02*
X118990685Y-102851857D01*
X118839495Y-101642333D02*
X118710983Y-101581857D01*
X118469078Y-101581857D01*
X118355686Y-101642333D01*
X118302768Y-101702810D01*
X118257411Y-101823762D01*
X118302768Y-102186619D01*
X118378363Y-102307571D01*
X118446400Y-102368048D01*
X118574911Y-102428524D01*
X118816816Y-102428524D01*
X118930209Y-102368048D01*
X117788720Y-102428524D02*
X117682887Y-101581857D01*
X117698006Y-101702810D02*
X117629971Y-101642333D01*
X117501458Y-101581857D01*
X117320030Y-101581857D01*
X117206638Y-101642333D01*
X117161280Y-101763286D01*
X117244434Y-102428524D01*
X117161280Y-101763286D02*
X117085685Y-101642333D01*
X116957173Y-101581857D01*
X116775744Y-101581857D01*
X116662352Y-101642333D01*
X116616995Y-101763286D01*
X116700149Y-102428524D01*
X115604019Y-102368048D02*
X115732530Y-102428524D01*
X115974435Y-102428524D01*
X116087828Y-102368048D01*
X116133185Y-102247095D01*
X116072709Y-101763286D01*
X115997114Y-101642333D01*
X115868602Y-101581857D01*
X115626697Y-101581857D01*
X115513305Y-101642333D01*
X115467947Y-101763286D01*
X115483066Y-101884238D01*
X116102947Y-102005190D01*
X114900983Y-101581857D02*
X115006816Y-102428524D01*
X114916102Y-101702810D02*
X114848067Y-101642333D01*
X114719554Y-101581857D01*
X114538126Y-101581857D01*
X114424734Y-101642333D01*
X114379376Y-101763286D01*
X114462530Y-102428524D01*
X113933364Y-101581857D02*
X113449554Y-101581857D01*
X113699018Y-101158524D02*
X113835090Y-102247095D01*
X113789733Y-102368048D01*
X113676339Y-102428524D01*
X113555387Y-102428524D01*
D11*
X126357070Y-114778286D02*
X125928499Y-114778286D01*
X126142785Y-115528286D02*
X126142785Y-114778286D01*
X125678499Y-115528286D02*
X125678499Y-114778286D01*
X125678499Y-115135429D02*
X125249927Y-115135429D01*
X125249927Y-115528286D02*
X125249927Y-114778286D01*
X124892785Y-114778286D02*
X124892785Y-115385429D01*
X124857070Y-115456857D01*
X124821356Y-115492571D01*
X124749927Y-115528286D01*
X124607070Y-115528286D01*
X124535642Y-115492571D01*
X124499927Y-115456857D01*
X124464213Y-115385429D01*
X124464213Y-114778286D01*
X124107071Y-115528286D02*
X124107071Y-114778286D01*
X123678499Y-115528286D01*
X123678499Y-114778286D01*
X123321357Y-115528286D02*
X123321357Y-114778286D01*
X122892785Y-115528286D02*
X123214214Y-115099714D01*
X122892785Y-114778286D02*
X123321357Y-115206857D01*
X122571357Y-115528286D02*
X122571357Y-114778286D01*
X122321356Y-114778286D02*
X121892785Y-114778286D01*
X122107071Y-115528286D02*
X122107071Y-114778286D01*
X121071356Y-115135429D02*
X120821356Y-115135429D01*
X120714213Y-115528286D02*
X121071356Y-115528286D01*
X121071356Y-114778286D01*
X120714213Y-114778286D01*
X120035642Y-115528286D02*
X120392785Y-115528286D01*
X120392785Y-114778286D01*
X119785642Y-115135429D02*
X119535642Y-115135429D01*
X119428499Y-115528286D02*
X119785642Y-115528286D01*
X119785642Y-114778286D01*
X119428499Y-114778286D01*
X118678499Y-115456857D02*
X118714213Y-115492571D01*
X118821356Y-115528286D01*
X118892785Y-115528286D01*
X118999928Y-115492571D01*
X119071356Y-115421143D01*
X119107071Y-115349714D01*
X119142785Y-115206857D01*
X119142785Y-115099714D01*
X119107071Y-114956857D01*
X119071356Y-114885429D01*
X118999928Y-114814000D01*
X118892785Y-114778286D01*
X118821356Y-114778286D01*
X118714213Y-114814000D01*
X118678499Y-114849714D01*
X118464213Y-114778286D02*
X118035642Y-114778286D01*
X118249928Y-115528286D02*
X118249928Y-114778286D01*
X117357070Y-115528286D02*
X117607070Y-115171143D01*
X117785642Y-115528286D02*
X117785642Y-114778286D01*
X117499927Y-114778286D01*
X117428499Y-114814000D01*
X117392784Y-114849714D01*
X117357070Y-114921143D01*
X117357070Y-115028286D01*
X117392784Y-115099714D01*
X117428499Y-115135429D01*
X117499927Y-115171143D01*
X117785642Y-115171143D01*
X116892784Y-114778286D02*
X116749927Y-114778286D01*
X116678499Y-114814000D01*
X116607070Y-114885429D01*
X116571356Y-115028286D01*
X116571356Y-115278286D01*
X116607070Y-115421143D01*
X116678499Y-115492571D01*
X116749927Y-115528286D01*
X116892784Y-115528286D01*
X116964213Y-115492571D01*
X117035642Y-115421143D01*
X117071356Y-115278286D01*
X117071356Y-115028286D01*
X117035642Y-114885429D01*
X116964213Y-114814000D01*
X116892784Y-114778286D01*
X116249928Y-115528286D02*
X116249928Y-114778286D01*
X115821356Y-115528286D01*
X115821356Y-114778286D01*
X115464214Y-115528286D02*
X115464214Y-114778286D01*
X114678499Y-115456857D02*
X114714213Y-115492571D01*
X114821356Y-115528286D01*
X114892785Y-115528286D01*
X114999928Y-115492571D01*
X115071356Y-115421143D01*
X115107071Y-115349714D01*
X115142785Y-115206857D01*
X115142785Y-115099714D01*
X115107071Y-114956857D01*
X115071356Y-114885429D01*
X114999928Y-114814000D01*
X114892785Y-114778286D01*
X114821356Y-114778286D01*
X114714213Y-114814000D01*
X114678499Y-114849714D01*
X114392785Y-115492571D02*
X114285642Y-115528286D01*
X114107071Y-115528286D01*
X114035642Y-115492571D01*
X113999928Y-115456857D01*
X113964213Y-115385429D01*
X113964213Y-115314000D01*
X113999928Y-115242571D01*
X114035642Y-115206857D01*
X114107071Y-115171143D01*
X114249928Y-115135429D01*
X114321356Y-115099714D01*
X114357071Y-115064000D01*
X114392785Y-114992571D01*
X114392785Y-114921143D01*
X114357071Y-114849714D01*
X114321356Y-114814000D01*
X114249928Y-114778286D01*
X114071356Y-114778286D01*
X113964213Y-114814000D01*
D13*
X124686785Y-97390857D02*
X122799928Y-97390857D01*
X123961071Y-98552000D01*
X123525643Y-98552000D01*
X123253500Y-98697143D01*
X123126500Y-98842286D01*
X123017642Y-99132571D01*
X123108357Y-99858286D01*
X123289785Y-100148571D01*
X123453071Y-100293714D01*
X123761500Y-100438857D01*
X124632357Y-100438857D01*
X124904500Y-100293714D01*
X125031499Y-100148571D01*
X121675072Y-97681143D02*
X121511786Y-97536000D01*
X121203357Y-97390857D01*
X120477643Y-97390857D01*
X120205500Y-97536000D01*
X120078500Y-97681143D01*
X119969643Y-97971429D01*
X120005928Y-98261714D01*
X120205500Y-98697143D01*
X122164928Y-100438857D01*
X120278071Y-100438857D01*
X118590786Y-97390857D02*
X118899215Y-99858286D01*
X118790357Y-100148571D01*
X118663357Y-100293714D01*
X118391214Y-100438857D01*
X117810643Y-100438857D01*
X117502214Y-100293714D01*
X117338928Y-100148571D01*
X117157500Y-99858286D01*
X116849071Y-97390857D01*
X115579072Y-97681143D02*
X115415786Y-97536000D01*
X115107357Y-97390857D01*
X114381643Y-97390857D01*
X114109500Y-97536000D01*
X113982500Y-97681143D01*
X113873643Y-97971429D01*
X113909928Y-98261714D01*
X114109500Y-98697143D01*
X116068928Y-100438857D01*
X114182071Y-100438857D01*
D15*
G36*
X160531145Y-78720280D02*
X160541282Y-78748466D01*
X160557712Y-78791983D01*
X160582588Y-78858720D01*
X160614327Y-78944361D01*
X160651347Y-79044591D01*
X160692063Y-79155096D01*
X160734894Y-79271559D01*
X160778255Y-79389667D01*
X160820563Y-79505103D01*
X160860235Y-79613553D01*
X160895688Y-79710701D01*
X160925338Y-79792233D01*
X160947603Y-79853832D01*
X160960899Y-79891185D01*
X160964032Y-79900684D01*
X160947804Y-79902675D01*
X160901936Y-79904765D01*
X160830655Y-79906853D01*
X160738189Y-79908838D01*
X160628763Y-79910617D01*
X160506604Y-79912090D01*
X160476908Y-79912377D01*
X159989783Y-79916867D01*
X160551194Y-80659173D01*
X160656870Y-80798761D01*
X160756803Y-80930499D01*
X160849061Y-81051856D01*
X160931712Y-81160304D01*
X161002823Y-81253314D01*
X161060463Y-81328356D01*
X161102699Y-81382901D01*
X161127599Y-81414420D01*
X161133355Y-81421173D01*
X161147429Y-81429999D01*
X161145438Y-81411084D01*
X161144285Y-81407000D01*
X161133786Y-81369649D01*
X161116745Y-81307666D01*
X161094435Y-81225800D01*
X161068135Y-81128801D01*
X161039121Y-81021418D01*
X161008668Y-80908400D01*
X160978054Y-80794498D01*
X160948555Y-80684459D01*
X160921446Y-80583034D01*
X160898006Y-80494973D01*
X160879509Y-80425023D01*
X160867233Y-80377936D01*
X160862453Y-80358460D01*
X160862433Y-80358256D01*
X160878652Y-80355773D01*
X160924453Y-80353529D01*
X160995552Y-80351610D01*
X161087664Y-80350104D01*
X161196506Y-80349096D01*
X161317793Y-80348674D01*
X161336566Y-80348666D01*
X161459333Y-80348377D01*
X161570289Y-80347560D01*
X161665152Y-80346292D01*
X161739635Y-80344649D01*
X161789456Y-80342707D01*
X161810330Y-80340544D01*
X161810699Y-80340209D01*
X161800596Y-80325927D01*
X161771752Y-80287840D01*
X161726366Y-80228757D01*
X161666638Y-80151491D01*
X161594765Y-80058852D01*
X161512948Y-79953653D01*
X161423384Y-79838704D01*
X161328273Y-79716817D01*
X161229814Y-79590803D01*
X161130205Y-79463473D01*
X161031646Y-79337639D01*
X160936335Y-79216112D01*
X160846471Y-79101702D01*
X160764253Y-78997223D01*
X160691881Y-78905484D01*
X160631552Y-78829298D01*
X160585466Y-78771475D01*
X160555821Y-78734826D01*
X160545833Y-78723067D01*
X160531129Y-78709877D01*
X160531145Y-78720280D01*
X160531145Y-78720280D01*
G37*
X160531145Y-78720280D02*
X160541282Y-78748466D01*
X160557712Y-78791983D01*
X160582588Y-78858720D01*
X160614327Y-78944361D01*
X160651347Y-79044591D01*
X160692063Y-79155096D01*
X160734894Y-79271559D01*
X160778255Y-79389667D01*
X160820563Y-79505103D01*
X160860235Y-79613553D01*
X160895688Y-79710701D01*
X160925338Y-79792233D01*
X160947603Y-79853832D01*
X160960899Y-79891185D01*
X160964032Y-79900684D01*
X160947804Y-79902675D01*
X160901936Y-79904765D01*
X160830655Y-79906853D01*
X160738189Y-79908838D01*
X160628763Y-79910617D01*
X160506604Y-79912090D01*
X160476908Y-79912377D01*
X159989783Y-79916867D01*
X160551194Y-80659173D01*
X160656870Y-80798761D01*
X160756803Y-80930499D01*
X160849061Y-81051856D01*
X160931712Y-81160304D01*
X161002823Y-81253314D01*
X161060463Y-81328356D01*
X161102699Y-81382901D01*
X161127599Y-81414420D01*
X161133355Y-81421173D01*
X161147429Y-81429999D01*
X161145438Y-81411084D01*
X161144285Y-81407000D01*
X161133786Y-81369649D01*
X161116745Y-81307666D01*
X161094435Y-81225800D01*
X161068135Y-81128801D01*
X161039121Y-81021418D01*
X161008668Y-80908400D01*
X160978054Y-80794498D01*
X160948555Y-80684459D01*
X160921446Y-80583034D01*
X160898006Y-80494973D01*
X160879509Y-80425023D01*
X160867233Y-80377936D01*
X160862453Y-80358460D01*
X160862433Y-80358256D01*
X160878652Y-80355773D01*
X160924453Y-80353529D01*
X160995552Y-80351610D01*
X161087664Y-80350104D01*
X161196506Y-80349096D01*
X161317793Y-80348674D01*
X161336566Y-80348666D01*
X161459333Y-80348377D01*
X161570289Y-80347560D01*
X161665152Y-80346292D01*
X161739635Y-80344649D01*
X161789456Y-80342707D01*
X161810330Y-80340544D01*
X161810699Y-80340209D01*
X161800596Y-80325927D01*
X161771752Y-80287840D01*
X161726366Y-80228757D01*
X161666638Y-80151491D01*
X161594765Y-80058852D01*
X161512948Y-79953653D01*
X161423384Y-79838704D01*
X161328273Y-79716817D01*
X161229814Y-79590803D01*
X161130205Y-79463473D01*
X161031646Y-79337639D01*
X160936335Y-79216112D01*
X160846471Y-79101702D01*
X160764253Y-78997223D01*
X160691881Y-78905484D01*
X160631552Y-78829298D01*
X160585466Y-78771475D01*
X160555821Y-78734826D01*
X160545833Y-78723067D01*
X160531129Y-78709877D01*
X160531145Y-78720280D01*
D11*
X127000000Y-54610002D02*
X127000000Y-82550002D01*
X127000000Y-82550002D02*
X129540000Y-82550002D01*
X129540000Y-82550002D02*
X129540000Y-54610002D01*
X126720000Y-51790002D02*
X126720000Y-53340002D01*
X127000000Y-54610002D02*
X129540000Y-54610002D01*
X129820000Y-53340002D02*
X129820000Y-51790002D01*
X129820000Y-51790002D02*
X126720000Y-51790002D01*
D15*
G36*
X112779145Y-78720280D02*
X112789282Y-78748466D01*
X112805712Y-78791983D01*
X112830588Y-78858720D01*
X112862327Y-78944361D01*
X112899347Y-79044591D01*
X112940063Y-79155096D01*
X112982894Y-79271559D01*
X113026255Y-79389667D01*
X113068563Y-79505103D01*
X113108235Y-79613553D01*
X113143688Y-79710701D01*
X113173338Y-79792233D01*
X113195603Y-79853832D01*
X113208899Y-79891185D01*
X113212032Y-79900684D01*
X113195804Y-79902675D01*
X113149936Y-79904765D01*
X113078655Y-79906853D01*
X112986189Y-79908838D01*
X112876763Y-79910617D01*
X112754604Y-79912090D01*
X112724908Y-79912377D01*
X112237783Y-79916867D01*
X112799194Y-80659173D01*
X112904870Y-80798761D01*
X113004803Y-80930499D01*
X113097061Y-81051856D01*
X113179712Y-81160304D01*
X113250823Y-81253314D01*
X113308463Y-81328356D01*
X113350699Y-81382901D01*
X113375599Y-81414420D01*
X113381355Y-81421173D01*
X113395429Y-81429999D01*
X113393438Y-81411084D01*
X113392285Y-81407000D01*
X113381786Y-81369649D01*
X113364745Y-81307666D01*
X113342435Y-81225800D01*
X113316135Y-81128801D01*
X113287121Y-81021418D01*
X113256668Y-80908400D01*
X113226054Y-80794498D01*
X113196555Y-80684459D01*
X113169446Y-80583034D01*
X113146006Y-80494973D01*
X113127509Y-80425023D01*
X113115233Y-80377936D01*
X113110453Y-80358460D01*
X113110433Y-80358256D01*
X113126652Y-80355773D01*
X113172453Y-80353529D01*
X113243552Y-80351610D01*
X113335664Y-80350104D01*
X113444506Y-80349096D01*
X113565793Y-80348674D01*
X113584566Y-80348666D01*
X113707333Y-80348377D01*
X113818289Y-80347560D01*
X113913152Y-80346292D01*
X113987635Y-80344649D01*
X114037456Y-80342707D01*
X114058330Y-80340544D01*
X114058699Y-80340209D01*
X114048596Y-80325927D01*
X114019752Y-80287840D01*
X113974366Y-80228757D01*
X113914638Y-80151491D01*
X113842765Y-80058852D01*
X113760948Y-79953653D01*
X113671384Y-79838704D01*
X113576273Y-79716817D01*
X113477814Y-79590803D01*
X113378205Y-79463473D01*
X113279646Y-79337639D01*
X113184335Y-79216112D01*
X113094471Y-79101702D01*
X113012253Y-78997223D01*
X112939881Y-78905484D01*
X112879552Y-78829298D01*
X112833466Y-78771475D01*
X112803821Y-78734826D01*
X112793833Y-78723067D01*
X112779129Y-78709877D01*
X112779145Y-78720280D01*
X112779145Y-78720280D01*
G37*
X112779145Y-78720280D02*
X112789282Y-78748466D01*
X112805712Y-78791983D01*
X112830588Y-78858720D01*
X112862327Y-78944361D01*
X112899347Y-79044591D01*
X112940063Y-79155096D01*
X112982894Y-79271559D01*
X113026255Y-79389667D01*
X113068563Y-79505103D01*
X113108235Y-79613553D01*
X113143688Y-79710701D01*
X113173338Y-79792233D01*
X113195603Y-79853832D01*
X113208899Y-79891185D01*
X113212032Y-79900684D01*
X113195804Y-79902675D01*
X113149936Y-79904765D01*
X113078655Y-79906853D01*
X112986189Y-79908838D01*
X112876763Y-79910617D01*
X112754604Y-79912090D01*
X112724908Y-79912377D01*
X112237783Y-79916867D01*
X112799194Y-80659173D01*
X112904870Y-80798761D01*
X113004803Y-80930499D01*
X113097061Y-81051856D01*
X113179712Y-81160304D01*
X113250823Y-81253314D01*
X113308463Y-81328356D01*
X113350699Y-81382901D01*
X113375599Y-81414420D01*
X113381355Y-81421173D01*
X113395429Y-81429999D01*
X113393438Y-81411084D01*
X113392285Y-81407000D01*
X113381786Y-81369649D01*
X113364745Y-81307666D01*
X113342435Y-81225800D01*
X113316135Y-81128801D01*
X113287121Y-81021418D01*
X113256668Y-80908400D01*
X113226054Y-80794498D01*
X113196555Y-80684459D01*
X113169446Y-80583034D01*
X113146006Y-80494973D01*
X113127509Y-80425023D01*
X113115233Y-80377936D01*
X113110453Y-80358460D01*
X113110433Y-80358256D01*
X113126652Y-80355773D01*
X113172453Y-80353529D01*
X113243552Y-80351610D01*
X113335664Y-80350104D01*
X113444506Y-80349096D01*
X113565793Y-80348674D01*
X113584566Y-80348666D01*
X113707333Y-80348377D01*
X113818289Y-80347560D01*
X113913152Y-80346292D01*
X113987635Y-80344649D01*
X114037456Y-80342707D01*
X114058330Y-80340544D01*
X114058699Y-80340209D01*
X114048596Y-80325927D01*
X114019752Y-80287840D01*
X113974366Y-80228757D01*
X113914638Y-80151491D01*
X113842765Y-80058852D01*
X113760948Y-79953653D01*
X113671384Y-79838704D01*
X113576273Y-79716817D01*
X113477814Y-79590803D01*
X113378205Y-79463473D01*
X113279646Y-79337639D01*
X113184335Y-79216112D01*
X113094471Y-79101702D01*
X113012253Y-78997223D01*
X112939881Y-78905484D01*
X112879552Y-78829298D01*
X112833466Y-78771475D01*
X112803821Y-78734826D01*
X112793833Y-78723067D01*
X112779129Y-78709877D01*
X112779145Y-78720280D01*
G36*
X136655146Y-78720280D02*
X136665283Y-78748466D01*
X136681713Y-78791983D01*
X136706589Y-78858720D01*
X136738328Y-78944361D01*
X136775348Y-79044591D01*
X136816064Y-79155096D01*
X136858895Y-79271559D01*
X136902256Y-79389667D01*
X136944564Y-79505103D01*
X136984236Y-79613553D01*
X137019689Y-79710701D01*
X137049339Y-79792233D01*
X137071604Y-79853832D01*
X137084900Y-79891185D01*
X137088033Y-79900684D01*
X137071805Y-79902675D01*
X137025937Y-79904765D01*
X136954656Y-79906853D01*
X136862190Y-79908838D01*
X136752764Y-79910617D01*
X136630605Y-79912090D01*
X136600909Y-79912377D01*
X136113784Y-79916867D01*
X136675195Y-80659173D01*
X136780871Y-80798761D01*
X136880804Y-80930499D01*
X136973062Y-81051856D01*
X137055713Y-81160304D01*
X137126824Y-81253314D01*
X137184464Y-81328356D01*
X137226700Y-81382901D01*
X137251600Y-81414420D01*
X137257356Y-81421173D01*
X137271430Y-81429999D01*
X137269439Y-81411084D01*
X137268286Y-81407000D01*
X137257787Y-81369649D01*
X137240746Y-81307666D01*
X137218436Y-81225800D01*
X137192136Y-81128801D01*
X137163122Y-81021418D01*
X137132669Y-80908400D01*
X137102055Y-80794498D01*
X137072556Y-80684459D01*
X137045447Y-80583034D01*
X137022007Y-80494973D01*
X137003510Y-80425023D01*
X136991234Y-80377936D01*
X136986454Y-80358460D01*
X136986434Y-80358256D01*
X137002653Y-80355773D01*
X137048454Y-80353529D01*
X137119553Y-80351610D01*
X137211665Y-80350104D01*
X137320507Y-80349096D01*
X137441794Y-80348674D01*
X137460567Y-80348666D01*
X137583334Y-80348377D01*
X137694290Y-80347560D01*
X137789153Y-80346292D01*
X137863636Y-80344649D01*
X137913457Y-80342707D01*
X137934331Y-80340544D01*
X137934700Y-80340209D01*
X137924597Y-80325927D01*
X137895753Y-80287840D01*
X137850367Y-80228757D01*
X137790639Y-80151491D01*
X137718766Y-80058852D01*
X137636949Y-79953653D01*
X137547385Y-79838704D01*
X137452274Y-79716817D01*
X137353815Y-79590803D01*
X137254206Y-79463473D01*
X137155647Y-79337639D01*
X137060336Y-79216112D01*
X136970472Y-79101702D01*
X136888254Y-78997223D01*
X136815882Y-78905484D01*
X136755553Y-78829298D01*
X136709467Y-78771475D01*
X136679822Y-78734826D01*
X136669834Y-78723067D01*
X136655130Y-78709877D01*
X136655146Y-78720280D01*
X136655146Y-78720280D01*
G37*
X136655146Y-78720280D02*
X136665283Y-78748466D01*
X136681713Y-78791983D01*
X136706589Y-78858720D01*
X136738328Y-78944361D01*
X136775348Y-79044591D01*
X136816064Y-79155096D01*
X136858895Y-79271559D01*
X136902256Y-79389667D01*
X136944564Y-79505103D01*
X136984236Y-79613553D01*
X137019689Y-79710701D01*
X137049339Y-79792233D01*
X137071604Y-79853832D01*
X137084900Y-79891185D01*
X137088033Y-79900684D01*
X137071805Y-79902675D01*
X137025937Y-79904765D01*
X136954656Y-79906853D01*
X136862190Y-79908838D01*
X136752764Y-79910617D01*
X136630605Y-79912090D01*
X136600909Y-79912377D01*
X136113784Y-79916867D01*
X136675195Y-80659173D01*
X136780871Y-80798761D01*
X136880804Y-80930499D01*
X136973062Y-81051856D01*
X137055713Y-81160304D01*
X137126824Y-81253314D01*
X137184464Y-81328356D01*
X137226700Y-81382901D01*
X137251600Y-81414420D01*
X137257356Y-81421173D01*
X137271430Y-81429999D01*
X137269439Y-81411084D01*
X137268286Y-81407000D01*
X137257787Y-81369649D01*
X137240746Y-81307666D01*
X137218436Y-81225800D01*
X137192136Y-81128801D01*
X137163122Y-81021418D01*
X137132669Y-80908400D01*
X137102055Y-80794498D01*
X137072556Y-80684459D01*
X137045447Y-80583034D01*
X137022007Y-80494973D01*
X137003510Y-80425023D01*
X136991234Y-80377936D01*
X136986454Y-80358460D01*
X136986434Y-80358256D01*
X137002653Y-80355773D01*
X137048454Y-80353529D01*
X137119553Y-80351610D01*
X137211665Y-80350104D01*
X137320507Y-80349096D01*
X137441794Y-80348674D01*
X137460567Y-80348666D01*
X137583334Y-80348377D01*
X137694290Y-80347560D01*
X137789153Y-80346292D01*
X137863636Y-80344649D01*
X137913457Y-80342707D01*
X137934331Y-80340544D01*
X137934700Y-80340209D01*
X137924597Y-80325927D01*
X137895753Y-80287840D01*
X137850367Y-80228757D01*
X137790639Y-80151491D01*
X137718766Y-80058852D01*
X137636949Y-79953653D01*
X137547385Y-79838704D01*
X137452274Y-79716817D01*
X137353815Y-79590803D01*
X137254206Y-79463473D01*
X137155647Y-79337639D01*
X137060336Y-79216112D01*
X136970472Y-79101702D01*
X136888254Y-78997223D01*
X136815882Y-78905484D01*
X136755553Y-78829298D01*
X136709467Y-78771475D01*
X136679822Y-78734826D01*
X136669834Y-78723067D01*
X136655130Y-78709877D01*
X136655146Y-78720280D01*
D11*
X109220000Y-54610000D02*
X109220000Y-82550000D01*
X109220000Y-82550000D02*
X111760000Y-82550000D01*
X111760000Y-82550000D02*
X111760000Y-54610000D01*
X108940000Y-51790000D02*
X108940000Y-53340000D01*
X109220000Y-54610000D02*
X111760000Y-54610000D01*
X112040000Y-53340000D02*
X112040000Y-51790000D01*
X112040000Y-51790000D02*
X108940000Y-51790000D01*
X156972000Y-54610000D02*
X156972000Y-82550000D01*
X156972000Y-82550000D02*
X159512000Y-82550000D01*
X159512000Y-82550000D02*
X159512000Y-54610000D01*
X156692000Y-51790000D02*
X156692000Y-53340000D01*
X156972000Y-54610000D02*
X159512000Y-54610000D01*
X159792000Y-53340000D02*
X159792000Y-51790000D01*
X159792000Y-51790000D02*
X156692000Y-51790000D01*
X150876000Y-54609999D02*
X150876000Y-82549999D01*
X150876000Y-82549999D02*
X153416000Y-82549999D01*
X153416000Y-82549999D02*
X153416000Y-54609999D01*
X150596000Y-51789999D02*
X150596000Y-53339999D01*
X150876000Y-54609999D02*
X153416000Y-54609999D01*
X153696000Y-53339999D02*
X153696000Y-51789999D01*
X153696000Y-51789999D02*
X150596000Y-51789999D01*
X133096000Y-54610001D02*
X133096000Y-82550001D01*
X133096000Y-82550001D02*
X135636000Y-82550001D01*
X135636000Y-82550001D02*
X135636000Y-54610001D01*
X132816000Y-51790001D02*
X132816000Y-53340001D01*
X133096000Y-54610001D02*
X135636000Y-54610001D01*
X135916000Y-53340001D02*
X135916000Y-51790001D01*
X135916000Y-51790001D02*
X132816000Y-51790001D01*
X174752000Y-54610002D02*
X174752000Y-82550002D01*
X174752000Y-82550002D02*
X177292000Y-82550002D01*
X177292000Y-82550002D02*
X177292000Y-54610002D01*
X174472000Y-51790002D02*
X174472000Y-53340002D01*
X174752000Y-54610002D02*
X177292000Y-54610002D01*
X177572000Y-53340002D02*
X177572000Y-51790002D01*
X177572000Y-51790002D02*
X174472000Y-51790002D01*
D15*
G36*
X112779146Y-146792280D02*
X112789283Y-146820466D01*
X112805713Y-146863983D01*
X112830589Y-146930720D01*
X112862328Y-147016361D01*
X112899348Y-147116591D01*
X112940064Y-147227096D01*
X112982895Y-147343559D01*
X113026256Y-147461667D01*
X113068564Y-147577103D01*
X113108236Y-147685553D01*
X113143689Y-147782701D01*
X113173339Y-147864233D01*
X113195604Y-147925832D01*
X113208900Y-147963185D01*
X113212033Y-147972684D01*
X113195805Y-147974675D01*
X113149937Y-147976765D01*
X113078656Y-147978853D01*
X112986190Y-147980838D01*
X112876764Y-147982617D01*
X112754605Y-147984090D01*
X112724909Y-147984377D01*
X112237784Y-147988867D01*
X112799195Y-148731173D01*
X112904871Y-148870761D01*
X113004804Y-149002499D01*
X113097062Y-149123856D01*
X113179713Y-149232304D01*
X113250824Y-149325314D01*
X113308464Y-149400356D01*
X113350700Y-149454901D01*
X113375600Y-149486420D01*
X113381356Y-149493173D01*
X113395430Y-149501999D01*
X113393439Y-149483084D01*
X113392286Y-149479000D01*
X113381787Y-149441649D01*
X113364746Y-149379666D01*
X113342436Y-149297800D01*
X113316136Y-149200801D01*
X113287122Y-149093418D01*
X113256669Y-148980400D01*
X113226055Y-148866498D01*
X113196556Y-148756459D01*
X113169447Y-148655034D01*
X113146007Y-148566973D01*
X113127510Y-148497023D01*
X113115234Y-148449936D01*
X113110454Y-148430460D01*
X113110434Y-148430256D01*
X113126653Y-148427773D01*
X113172454Y-148425529D01*
X113243553Y-148423610D01*
X113335665Y-148422104D01*
X113444507Y-148421096D01*
X113565794Y-148420674D01*
X113584567Y-148420666D01*
X113707334Y-148420377D01*
X113818290Y-148419560D01*
X113913153Y-148418292D01*
X113987636Y-148416649D01*
X114037457Y-148414707D01*
X114058331Y-148412544D01*
X114058700Y-148412209D01*
X114048597Y-148397927D01*
X114019753Y-148359840D01*
X113974367Y-148300757D01*
X113914639Y-148223491D01*
X113842766Y-148130852D01*
X113760949Y-148025653D01*
X113671385Y-147910704D01*
X113576274Y-147788817D01*
X113477815Y-147662803D01*
X113378206Y-147535473D01*
X113279647Y-147409639D01*
X113184336Y-147288112D01*
X113094472Y-147173702D01*
X113012254Y-147069223D01*
X112939882Y-146977484D01*
X112879553Y-146901298D01*
X112833467Y-146843475D01*
X112803822Y-146806826D01*
X112793834Y-146795067D01*
X112779130Y-146781877D01*
X112779146Y-146792280D01*
X112779146Y-146792280D01*
G37*
X112779146Y-146792280D02*
X112789283Y-146820466D01*
X112805713Y-146863983D01*
X112830589Y-146930720D01*
X112862328Y-147016361D01*
X112899348Y-147116591D01*
X112940064Y-147227096D01*
X112982895Y-147343559D01*
X113026256Y-147461667D01*
X113068564Y-147577103D01*
X113108236Y-147685553D01*
X113143689Y-147782701D01*
X113173339Y-147864233D01*
X113195604Y-147925832D01*
X113208900Y-147963185D01*
X113212033Y-147972684D01*
X113195805Y-147974675D01*
X113149937Y-147976765D01*
X113078656Y-147978853D01*
X112986190Y-147980838D01*
X112876764Y-147982617D01*
X112754605Y-147984090D01*
X112724909Y-147984377D01*
X112237784Y-147988867D01*
X112799195Y-148731173D01*
X112904871Y-148870761D01*
X113004804Y-149002499D01*
X113097062Y-149123856D01*
X113179713Y-149232304D01*
X113250824Y-149325314D01*
X113308464Y-149400356D01*
X113350700Y-149454901D01*
X113375600Y-149486420D01*
X113381356Y-149493173D01*
X113395430Y-149501999D01*
X113393439Y-149483084D01*
X113392286Y-149479000D01*
X113381787Y-149441649D01*
X113364746Y-149379666D01*
X113342436Y-149297800D01*
X113316136Y-149200801D01*
X113287122Y-149093418D01*
X113256669Y-148980400D01*
X113226055Y-148866498D01*
X113196556Y-148756459D01*
X113169447Y-148655034D01*
X113146007Y-148566973D01*
X113127510Y-148497023D01*
X113115234Y-148449936D01*
X113110454Y-148430460D01*
X113110434Y-148430256D01*
X113126653Y-148427773D01*
X113172454Y-148425529D01*
X113243553Y-148423610D01*
X113335665Y-148422104D01*
X113444507Y-148421096D01*
X113565794Y-148420674D01*
X113584567Y-148420666D01*
X113707334Y-148420377D01*
X113818290Y-148419560D01*
X113913153Y-148418292D01*
X113987636Y-148416649D01*
X114037457Y-148414707D01*
X114058331Y-148412544D01*
X114058700Y-148412209D01*
X114048597Y-148397927D01*
X114019753Y-148359840D01*
X113974367Y-148300757D01*
X113914639Y-148223491D01*
X113842766Y-148130852D01*
X113760949Y-148025653D01*
X113671385Y-147910704D01*
X113576274Y-147788817D01*
X113477815Y-147662803D01*
X113378206Y-147535473D01*
X113279647Y-147409639D01*
X113184336Y-147288112D01*
X113094472Y-147173702D01*
X113012254Y-147069223D01*
X112939882Y-146977484D01*
X112879553Y-146901298D01*
X112833467Y-146843475D01*
X112803822Y-146806826D01*
X112793834Y-146795067D01*
X112779130Y-146781877D01*
X112779146Y-146792280D01*
D11*
X109220000Y-122682000D02*
X109220000Y-150622000D01*
X109220000Y-150622000D02*
X111760000Y-150622000D01*
X111760000Y-150622000D02*
X111760000Y-122682000D01*
X108940000Y-119862000D02*
X108940000Y-121412000D01*
X109220000Y-122682000D02*
X111760000Y-122682000D01*
X112040000Y-121412000D02*
X112040000Y-119862000D01*
X112040000Y-119862000D02*
X108940000Y-119862000D01*
X127000000Y-122682000D02*
X127000000Y-150622000D01*
X127000000Y-150622000D02*
X129540000Y-150622000D01*
X129540000Y-150622000D02*
X129540000Y-122682000D01*
X126720000Y-119862000D02*
X126720000Y-121412000D01*
X127000000Y-122682000D02*
X129540000Y-122682000D01*
X129820000Y-121412000D02*
X129820000Y-119862000D01*
X129820000Y-119862000D02*
X126720000Y-119862000D01*
D15*
G36*
X136655146Y-146792280D02*
X136665283Y-146820466D01*
X136681713Y-146863983D01*
X136706589Y-146930720D01*
X136738328Y-147016361D01*
X136775348Y-147116591D01*
X136816064Y-147227096D01*
X136858895Y-147343559D01*
X136902256Y-147461667D01*
X136944564Y-147577103D01*
X136984236Y-147685553D01*
X137019689Y-147782701D01*
X137049339Y-147864233D01*
X137071604Y-147925832D01*
X137084900Y-147963185D01*
X137088033Y-147972684D01*
X137071805Y-147974675D01*
X137025937Y-147976765D01*
X136954656Y-147978853D01*
X136862190Y-147980838D01*
X136752764Y-147982617D01*
X136630605Y-147984090D01*
X136600909Y-147984377D01*
X136113784Y-147988867D01*
X136675195Y-148731173D01*
X136780871Y-148870761D01*
X136880804Y-149002499D01*
X136973062Y-149123856D01*
X137055713Y-149232304D01*
X137126824Y-149325314D01*
X137184464Y-149400356D01*
X137226700Y-149454901D01*
X137251600Y-149486420D01*
X137257356Y-149493173D01*
X137271430Y-149501999D01*
X137269439Y-149483084D01*
X137268286Y-149479000D01*
X137257787Y-149441649D01*
X137240746Y-149379666D01*
X137218436Y-149297800D01*
X137192136Y-149200801D01*
X137163122Y-149093418D01*
X137132669Y-148980400D01*
X137102055Y-148866498D01*
X137072556Y-148756459D01*
X137045447Y-148655034D01*
X137022007Y-148566973D01*
X137003510Y-148497023D01*
X136991234Y-148449936D01*
X136986454Y-148430460D01*
X136986434Y-148430256D01*
X137002653Y-148427773D01*
X137048454Y-148425529D01*
X137119553Y-148423610D01*
X137211665Y-148422104D01*
X137320507Y-148421096D01*
X137441794Y-148420674D01*
X137460567Y-148420666D01*
X137583334Y-148420377D01*
X137694290Y-148419560D01*
X137789153Y-148418292D01*
X137863636Y-148416649D01*
X137913457Y-148414707D01*
X137934331Y-148412544D01*
X137934700Y-148412209D01*
X137924597Y-148397927D01*
X137895753Y-148359840D01*
X137850367Y-148300757D01*
X137790639Y-148223491D01*
X137718766Y-148130852D01*
X137636949Y-148025653D01*
X137547385Y-147910704D01*
X137452274Y-147788817D01*
X137353815Y-147662803D01*
X137254206Y-147535473D01*
X137155647Y-147409639D01*
X137060336Y-147288112D01*
X136970472Y-147173702D01*
X136888254Y-147069223D01*
X136815882Y-146977484D01*
X136755553Y-146901298D01*
X136709467Y-146843475D01*
X136679822Y-146806826D01*
X136669834Y-146795067D01*
X136655130Y-146781877D01*
X136655146Y-146792280D01*
X136655146Y-146792280D01*
G37*
X136655146Y-146792280D02*
X136665283Y-146820466D01*
X136681713Y-146863983D01*
X136706589Y-146930720D01*
X136738328Y-147016361D01*
X136775348Y-147116591D01*
X136816064Y-147227096D01*
X136858895Y-147343559D01*
X136902256Y-147461667D01*
X136944564Y-147577103D01*
X136984236Y-147685553D01*
X137019689Y-147782701D01*
X137049339Y-147864233D01*
X137071604Y-147925832D01*
X137084900Y-147963185D01*
X137088033Y-147972684D01*
X137071805Y-147974675D01*
X137025937Y-147976765D01*
X136954656Y-147978853D01*
X136862190Y-147980838D01*
X136752764Y-147982617D01*
X136630605Y-147984090D01*
X136600909Y-147984377D01*
X136113784Y-147988867D01*
X136675195Y-148731173D01*
X136780871Y-148870761D01*
X136880804Y-149002499D01*
X136973062Y-149123856D01*
X137055713Y-149232304D01*
X137126824Y-149325314D01*
X137184464Y-149400356D01*
X137226700Y-149454901D01*
X137251600Y-149486420D01*
X137257356Y-149493173D01*
X137271430Y-149501999D01*
X137269439Y-149483084D01*
X137268286Y-149479000D01*
X137257787Y-149441649D01*
X137240746Y-149379666D01*
X137218436Y-149297800D01*
X137192136Y-149200801D01*
X137163122Y-149093418D01*
X137132669Y-148980400D01*
X137102055Y-148866498D01*
X137072556Y-148756459D01*
X137045447Y-148655034D01*
X137022007Y-148566973D01*
X137003510Y-148497023D01*
X136991234Y-148449936D01*
X136986454Y-148430460D01*
X136986434Y-148430256D01*
X137002653Y-148427773D01*
X137048454Y-148425529D01*
X137119553Y-148423610D01*
X137211665Y-148422104D01*
X137320507Y-148421096D01*
X137441794Y-148420674D01*
X137460567Y-148420666D01*
X137583334Y-148420377D01*
X137694290Y-148419560D01*
X137789153Y-148418292D01*
X137863636Y-148416649D01*
X137913457Y-148414707D01*
X137934331Y-148412544D01*
X137934700Y-148412209D01*
X137924597Y-148397927D01*
X137895753Y-148359840D01*
X137850367Y-148300757D01*
X137790639Y-148223491D01*
X137718766Y-148130852D01*
X137636949Y-148025653D01*
X137547385Y-147910704D01*
X137452274Y-147788817D01*
X137353815Y-147662803D01*
X137254206Y-147535473D01*
X137155647Y-147409639D01*
X137060336Y-147288112D01*
X136970472Y-147173702D01*
X136888254Y-147069223D01*
X136815882Y-146977484D01*
X136755553Y-146901298D01*
X136709467Y-146843475D01*
X136679822Y-146806826D01*
X136669834Y-146795067D01*
X136655130Y-146781877D01*
X136655146Y-146792280D01*
D11*
X133096000Y-122682000D02*
X133096000Y-150622000D01*
X133096000Y-150622000D02*
X135636000Y-150622000D01*
X135636000Y-150622000D02*
X135636000Y-122682000D01*
X132816000Y-119862000D02*
X132816000Y-121412000D01*
X133096000Y-122682000D02*
X135636000Y-122682000D01*
X135916000Y-121412000D02*
X135916000Y-119862000D01*
X135916000Y-119862000D02*
X132816000Y-119862000D01*
X150876000Y-122682000D02*
X150876000Y-150622000D01*
X150876000Y-150622000D02*
X153416000Y-150622000D01*
X153416000Y-150622000D02*
X153416000Y-122682000D01*
X150596000Y-119862000D02*
X150596000Y-121412000D01*
X150876000Y-122682000D02*
X153416000Y-122682000D01*
X153696000Y-121412000D02*
X153696000Y-119862000D01*
X153696000Y-119862000D02*
X150596000Y-119862000D01*
X156972000Y-122682000D02*
X156972000Y-150622000D01*
X156972000Y-150622000D02*
X159512000Y-150622000D01*
X159512000Y-150622000D02*
X159512000Y-122682000D01*
X156692000Y-119862000D02*
X156692000Y-121412000D01*
X156972000Y-122682000D02*
X159512000Y-122682000D01*
X159792000Y-121412000D02*
X159792000Y-119862000D01*
X159792000Y-119862000D02*
X156692000Y-119862000D01*
D15*
G36*
X160531146Y-146792280D02*
X160541283Y-146820466D01*
X160557713Y-146863983D01*
X160582589Y-146930720D01*
X160614328Y-147016361D01*
X160651348Y-147116591D01*
X160692064Y-147227096D01*
X160734895Y-147343559D01*
X160778256Y-147461667D01*
X160820564Y-147577103D01*
X160860236Y-147685553D01*
X160895689Y-147782701D01*
X160925339Y-147864233D01*
X160947604Y-147925832D01*
X160960900Y-147963185D01*
X160964033Y-147972684D01*
X160947805Y-147974675D01*
X160901937Y-147976765D01*
X160830656Y-147978853D01*
X160738190Y-147980838D01*
X160628764Y-147982617D01*
X160506605Y-147984090D01*
X160476909Y-147984377D01*
X159989784Y-147988867D01*
X160551195Y-148731173D01*
X160656871Y-148870761D01*
X160756804Y-149002499D01*
X160849062Y-149123856D01*
X160931713Y-149232304D01*
X161002824Y-149325314D01*
X161060464Y-149400356D01*
X161102700Y-149454901D01*
X161127600Y-149486420D01*
X161133356Y-149493173D01*
X161147430Y-149501999D01*
X161145439Y-149483084D01*
X161144286Y-149479000D01*
X161133787Y-149441649D01*
X161116746Y-149379666D01*
X161094436Y-149297800D01*
X161068136Y-149200801D01*
X161039122Y-149093418D01*
X161008669Y-148980400D01*
X160978055Y-148866498D01*
X160948556Y-148756459D01*
X160921447Y-148655034D01*
X160898007Y-148566973D01*
X160879510Y-148497023D01*
X160867234Y-148449936D01*
X160862454Y-148430460D01*
X160862434Y-148430256D01*
X160878653Y-148427773D01*
X160924454Y-148425529D01*
X160995553Y-148423610D01*
X161087665Y-148422104D01*
X161196507Y-148421096D01*
X161317794Y-148420674D01*
X161336567Y-148420666D01*
X161459334Y-148420377D01*
X161570290Y-148419560D01*
X161665153Y-148418292D01*
X161739636Y-148416649D01*
X161789457Y-148414707D01*
X161810331Y-148412544D01*
X161810700Y-148412209D01*
X161800597Y-148397927D01*
X161771753Y-148359840D01*
X161726367Y-148300757D01*
X161666639Y-148223491D01*
X161594766Y-148130852D01*
X161512949Y-148025653D01*
X161423385Y-147910704D01*
X161328274Y-147788817D01*
X161229815Y-147662803D01*
X161130206Y-147535473D01*
X161031647Y-147409639D01*
X160936336Y-147288112D01*
X160846472Y-147173702D01*
X160764254Y-147069223D01*
X160691882Y-146977484D01*
X160631553Y-146901298D01*
X160585467Y-146843475D01*
X160555822Y-146806826D01*
X160545834Y-146795067D01*
X160531130Y-146781877D01*
X160531146Y-146792280D01*
X160531146Y-146792280D01*
G37*
X160531146Y-146792280D02*
X160541283Y-146820466D01*
X160557713Y-146863983D01*
X160582589Y-146930720D01*
X160614328Y-147016361D01*
X160651348Y-147116591D01*
X160692064Y-147227096D01*
X160734895Y-147343559D01*
X160778256Y-147461667D01*
X160820564Y-147577103D01*
X160860236Y-147685553D01*
X160895689Y-147782701D01*
X160925339Y-147864233D01*
X160947604Y-147925832D01*
X160960900Y-147963185D01*
X160964033Y-147972684D01*
X160947805Y-147974675D01*
X160901937Y-147976765D01*
X160830656Y-147978853D01*
X160738190Y-147980838D01*
X160628764Y-147982617D01*
X160506605Y-147984090D01*
X160476909Y-147984377D01*
X159989784Y-147988867D01*
X160551195Y-148731173D01*
X160656871Y-148870761D01*
X160756804Y-149002499D01*
X160849062Y-149123856D01*
X160931713Y-149232304D01*
X161002824Y-149325314D01*
X161060464Y-149400356D01*
X161102700Y-149454901D01*
X161127600Y-149486420D01*
X161133356Y-149493173D01*
X161147430Y-149501999D01*
X161145439Y-149483084D01*
X161144286Y-149479000D01*
X161133787Y-149441649D01*
X161116746Y-149379666D01*
X161094436Y-149297800D01*
X161068136Y-149200801D01*
X161039122Y-149093418D01*
X161008669Y-148980400D01*
X160978055Y-148866498D01*
X160948556Y-148756459D01*
X160921447Y-148655034D01*
X160898007Y-148566973D01*
X160879510Y-148497023D01*
X160867234Y-148449936D01*
X160862454Y-148430460D01*
X160862434Y-148430256D01*
X160878653Y-148427773D01*
X160924454Y-148425529D01*
X160995553Y-148423610D01*
X161087665Y-148422104D01*
X161196507Y-148421096D01*
X161317794Y-148420674D01*
X161336567Y-148420666D01*
X161459334Y-148420377D01*
X161570290Y-148419560D01*
X161665153Y-148418292D01*
X161739636Y-148416649D01*
X161789457Y-148414707D01*
X161810331Y-148412544D01*
X161810700Y-148412209D01*
X161800597Y-148397927D01*
X161771753Y-148359840D01*
X161726367Y-148300757D01*
X161666639Y-148223491D01*
X161594766Y-148130852D01*
X161512949Y-148025653D01*
X161423385Y-147910704D01*
X161328274Y-147788817D01*
X161229815Y-147662803D01*
X161130206Y-147535473D01*
X161031647Y-147409639D01*
X160936336Y-147288112D01*
X160846472Y-147173702D01*
X160764254Y-147069223D01*
X160691882Y-146977484D01*
X160631553Y-146901298D01*
X160585467Y-146843475D01*
X160555822Y-146806826D01*
X160545834Y-146795067D01*
X160531130Y-146781877D01*
X160531146Y-146792280D01*
D11*
X174752000Y-122682000D02*
X174752000Y-150622000D01*
X174752000Y-150622000D02*
X177292000Y-150622000D01*
X177292000Y-150622000D02*
X177292000Y-122682000D01*
X174472000Y-119862000D02*
X174472000Y-121412000D01*
X174752000Y-122682000D02*
X177292000Y-122682000D01*
X177572000Y-121412000D02*
X177572000Y-119862000D01*
X177572000Y-119862000D02*
X174472000Y-119862000D01*
X174752000Y-88646002D02*
X174752000Y-116586002D01*
X174752000Y-116586002D02*
X177292000Y-116586002D01*
X177292000Y-116586002D02*
X177292000Y-88646002D01*
X174472000Y-85826002D02*
X174472000Y-87376002D01*
X174752000Y-88646002D02*
X177292000Y-88646002D01*
X177572000Y-87376002D02*
X177572000Y-85826002D01*
X177572000Y-85826002D02*
X174472000Y-85826002D01*
X150876000Y-88645999D02*
X150876000Y-116585999D01*
X150876000Y-116585999D02*
X153416000Y-116585999D01*
X153416000Y-116585999D02*
X153416000Y-88645999D01*
X150596000Y-85825999D02*
X150596000Y-87375999D01*
X150876000Y-88645999D02*
X153416000Y-88645999D01*
X153696000Y-87375999D02*
X153696000Y-85825999D01*
X153696000Y-85825999D02*
X150596000Y-85825999D01*
X133096000Y-88646001D02*
X133096000Y-116586001D01*
X133096000Y-116586001D02*
X135636000Y-116586001D01*
X135636000Y-116586001D02*
X135636000Y-88646001D01*
X132816000Y-85826001D02*
X132816000Y-87376001D01*
X133096000Y-88646001D02*
X135636000Y-88646001D01*
X135916000Y-87376001D02*
X135916000Y-85826001D01*
X135916000Y-85826001D02*
X132816000Y-85826001D01*
D15*
G36*
X160531145Y-112756280D02*
X160541282Y-112784466D01*
X160557712Y-112827983D01*
X160582588Y-112894720D01*
X160614327Y-112980361D01*
X160651347Y-113080591D01*
X160692063Y-113191096D01*
X160734894Y-113307559D01*
X160778255Y-113425667D01*
X160820563Y-113541103D01*
X160860235Y-113649553D01*
X160895688Y-113746701D01*
X160925338Y-113828233D01*
X160947603Y-113889832D01*
X160960899Y-113927185D01*
X160964032Y-113936684D01*
X160947804Y-113938675D01*
X160901936Y-113940765D01*
X160830655Y-113942853D01*
X160738189Y-113944838D01*
X160628763Y-113946617D01*
X160506604Y-113948090D01*
X160476908Y-113948377D01*
X159989783Y-113952867D01*
X160551194Y-114695173D01*
X160656870Y-114834761D01*
X160756803Y-114966499D01*
X160849061Y-115087856D01*
X160931712Y-115196304D01*
X161002823Y-115289314D01*
X161060463Y-115364356D01*
X161102699Y-115418901D01*
X161127599Y-115450420D01*
X161133355Y-115457173D01*
X161147429Y-115465999D01*
X161145438Y-115447084D01*
X161144285Y-115443000D01*
X161133786Y-115405649D01*
X161116745Y-115343666D01*
X161094435Y-115261800D01*
X161068135Y-115164801D01*
X161039121Y-115057418D01*
X161008668Y-114944400D01*
X160978054Y-114830498D01*
X160948555Y-114720459D01*
X160921446Y-114619034D01*
X160898006Y-114530973D01*
X160879509Y-114461023D01*
X160867233Y-114413936D01*
X160862453Y-114394460D01*
X160862433Y-114394256D01*
X160878652Y-114391773D01*
X160924453Y-114389529D01*
X160995552Y-114387610D01*
X161087664Y-114386104D01*
X161196506Y-114385096D01*
X161317793Y-114384674D01*
X161336566Y-114384666D01*
X161459333Y-114384377D01*
X161570289Y-114383560D01*
X161665152Y-114382292D01*
X161739635Y-114380649D01*
X161789456Y-114378707D01*
X161810330Y-114376544D01*
X161810699Y-114376209D01*
X161800596Y-114361927D01*
X161771752Y-114323840D01*
X161726366Y-114264757D01*
X161666638Y-114187491D01*
X161594765Y-114094852D01*
X161512948Y-113989653D01*
X161423384Y-113874704D01*
X161328273Y-113752817D01*
X161229814Y-113626803D01*
X161130205Y-113499473D01*
X161031646Y-113373639D01*
X160936335Y-113252112D01*
X160846471Y-113137702D01*
X160764253Y-113033223D01*
X160691881Y-112941484D01*
X160631552Y-112865298D01*
X160585466Y-112807475D01*
X160555821Y-112770826D01*
X160545833Y-112759067D01*
X160531129Y-112745877D01*
X160531145Y-112756280D01*
X160531145Y-112756280D01*
G37*
X160531145Y-112756280D02*
X160541282Y-112784466D01*
X160557712Y-112827983D01*
X160582588Y-112894720D01*
X160614327Y-112980361D01*
X160651347Y-113080591D01*
X160692063Y-113191096D01*
X160734894Y-113307559D01*
X160778255Y-113425667D01*
X160820563Y-113541103D01*
X160860235Y-113649553D01*
X160895688Y-113746701D01*
X160925338Y-113828233D01*
X160947603Y-113889832D01*
X160960899Y-113927185D01*
X160964032Y-113936684D01*
X160947804Y-113938675D01*
X160901936Y-113940765D01*
X160830655Y-113942853D01*
X160738189Y-113944838D01*
X160628763Y-113946617D01*
X160506604Y-113948090D01*
X160476908Y-113948377D01*
X159989783Y-113952867D01*
X160551194Y-114695173D01*
X160656870Y-114834761D01*
X160756803Y-114966499D01*
X160849061Y-115087856D01*
X160931712Y-115196304D01*
X161002823Y-115289314D01*
X161060463Y-115364356D01*
X161102699Y-115418901D01*
X161127599Y-115450420D01*
X161133355Y-115457173D01*
X161147429Y-115465999D01*
X161145438Y-115447084D01*
X161144285Y-115443000D01*
X161133786Y-115405649D01*
X161116745Y-115343666D01*
X161094435Y-115261800D01*
X161068135Y-115164801D01*
X161039121Y-115057418D01*
X161008668Y-114944400D01*
X160978054Y-114830498D01*
X160948555Y-114720459D01*
X160921446Y-114619034D01*
X160898006Y-114530973D01*
X160879509Y-114461023D01*
X160867233Y-114413936D01*
X160862453Y-114394460D01*
X160862433Y-114394256D01*
X160878652Y-114391773D01*
X160924453Y-114389529D01*
X160995552Y-114387610D01*
X161087664Y-114386104D01*
X161196506Y-114385096D01*
X161317793Y-114384674D01*
X161336566Y-114384666D01*
X161459333Y-114384377D01*
X161570289Y-114383560D01*
X161665152Y-114382292D01*
X161739635Y-114380649D01*
X161789456Y-114378707D01*
X161810330Y-114376544D01*
X161810699Y-114376209D01*
X161800596Y-114361927D01*
X161771752Y-114323840D01*
X161726366Y-114264757D01*
X161666638Y-114187491D01*
X161594765Y-114094852D01*
X161512948Y-113989653D01*
X161423384Y-113874704D01*
X161328273Y-113752817D01*
X161229814Y-113626803D01*
X161130205Y-113499473D01*
X161031646Y-113373639D01*
X160936335Y-113252112D01*
X160846471Y-113137702D01*
X160764253Y-113033223D01*
X160691881Y-112941484D01*
X160631552Y-112865298D01*
X160585466Y-112807475D01*
X160555821Y-112770826D01*
X160545833Y-112759067D01*
X160531129Y-112745877D01*
X160531145Y-112756280D01*
D11*
X156972000Y-88646000D02*
X156972000Y-116586000D01*
X156972000Y-116586000D02*
X159512000Y-116586000D01*
X159512000Y-116586000D02*
X159512000Y-88646000D01*
X156692000Y-85826000D02*
X156692000Y-87376000D01*
X156972000Y-88646000D02*
X159512000Y-88646000D01*
X159792000Y-87376000D02*
X159792000Y-85826000D01*
X159792000Y-85826000D02*
X156692000Y-85826000D01*
D15*
G36*
X136655146Y-112756280D02*
X136665283Y-112784466D01*
X136681713Y-112827983D01*
X136706589Y-112894720D01*
X136738328Y-112980361D01*
X136775348Y-113080591D01*
X136816064Y-113191096D01*
X136858895Y-113307559D01*
X136902256Y-113425667D01*
X136944564Y-113541103D01*
X136984236Y-113649553D01*
X137019689Y-113746701D01*
X137049339Y-113828233D01*
X137071604Y-113889832D01*
X137084900Y-113927185D01*
X137088033Y-113936684D01*
X137071805Y-113938675D01*
X137025937Y-113940765D01*
X136954656Y-113942853D01*
X136862190Y-113944838D01*
X136752764Y-113946617D01*
X136630605Y-113948090D01*
X136600909Y-113948377D01*
X136113784Y-113952867D01*
X136675195Y-114695173D01*
X136780871Y-114834761D01*
X136880804Y-114966499D01*
X136973062Y-115087856D01*
X137055713Y-115196304D01*
X137126824Y-115289314D01*
X137184464Y-115364356D01*
X137226700Y-115418901D01*
X137251600Y-115450420D01*
X137257356Y-115457173D01*
X137271430Y-115465999D01*
X137269439Y-115447084D01*
X137268286Y-115443000D01*
X137257787Y-115405649D01*
X137240746Y-115343666D01*
X137218436Y-115261800D01*
X137192136Y-115164801D01*
X137163122Y-115057418D01*
X137132669Y-114944400D01*
X137102055Y-114830498D01*
X137072556Y-114720459D01*
X137045447Y-114619034D01*
X137022007Y-114530973D01*
X137003510Y-114461023D01*
X136991234Y-114413936D01*
X136986454Y-114394460D01*
X136986434Y-114394256D01*
X137002653Y-114391773D01*
X137048454Y-114389529D01*
X137119553Y-114387610D01*
X137211665Y-114386104D01*
X137320507Y-114385096D01*
X137441794Y-114384674D01*
X137460567Y-114384666D01*
X137583334Y-114384377D01*
X137694290Y-114383560D01*
X137789153Y-114382292D01*
X137863636Y-114380649D01*
X137913457Y-114378707D01*
X137934331Y-114376544D01*
X137934700Y-114376209D01*
X137924597Y-114361927D01*
X137895753Y-114323840D01*
X137850367Y-114264757D01*
X137790639Y-114187491D01*
X137718766Y-114094852D01*
X137636949Y-113989653D01*
X137547385Y-113874704D01*
X137452274Y-113752817D01*
X137353815Y-113626803D01*
X137254206Y-113499473D01*
X137155647Y-113373639D01*
X137060336Y-113252112D01*
X136970472Y-113137702D01*
X136888254Y-113033223D01*
X136815882Y-112941484D01*
X136755553Y-112865298D01*
X136709467Y-112807475D01*
X136679822Y-112770826D01*
X136669834Y-112759067D01*
X136655130Y-112745877D01*
X136655146Y-112756280D01*
X136655146Y-112756280D01*
G37*
X136655146Y-112756280D02*
X136665283Y-112784466D01*
X136681713Y-112827983D01*
X136706589Y-112894720D01*
X136738328Y-112980361D01*
X136775348Y-113080591D01*
X136816064Y-113191096D01*
X136858895Y-113307559D01*
X136902256Y-113425667D01*
X136944564Y-113541103D01*
X136984236Y-113649553D01*
X137019689Y-113746701D01*
X137049339Y-113828233D01*
X137071604Y-113889832D01*
X137084900Y-113927185D01*
X137088033Y-113936684D01*
X137071805Y-113938675D01*
X137025937Y-113940765D01*
X136954656Y-113942853D01*
X136862190Y-113944838D01*
X136752764Y-113946617D01*
X136630605Y-113948090D01*
X136600909Y-113948377D01*
X136113784Y-113952867D01*
X136675195Y-114695173D01*
X136780871Y-114834761D01*
X136880804Y-114966499D01*
X136973062Y-115087856D01*
X137055713Y-115196304D01*
X137126824Y-115289314D01*
X137184464Y-115364356D01*
X137226700Y-115418901D01*
X137251600Y-115450420D01*
X137257356Y-115457173D01*
X137271430Y-115465999D01*
X137269439Y-115447084D01*
X137268286Y-115443000D01*
X137257787Y-115405649D01*
X137240746Y-115343666D01*
X137218436Y-115261800D01*
X137192136Y-115164801D01*
X137163122Y-115057418D01*
X137132669Y-114944400D01*
X137102055Y-114830498D01*
X137072556Y-114720459D01*
X137045447Y-114619034D01*
X137022007Y-114530973D01*
X137003510Y-114461023D01*
X136991234Y-114413936D01*
X136986454Y-114394460D01*
X136986434Y-114394256D01*
X137002653Y-114391773D01*
X137048454Y-114389529D01*
X137119553Y-114387610D01*
X137211665Y-114386104D01*
X137320507Y-114385096D01*
X137441794Y-114384674D01*
X137460567Y-114384666D01*
X137583334Y-114384377D01*
X137694290Y-114383560D01*
X137789153Y-114382292D01*
X137863636Y-114380649D01*
X137913457Y-114378707D01*
X137934331Y-114376544D01*
X137934700Y-114376209D01*
X137924597Y-114361927D01*
X137895753Y-114323840D01*
X137850367Y-114264757D01*
X137790639Y-114187491D01*
X137718766Y-114094852D01*
X137636949Y-113989653D01*
X137547385Y-113874704D01*
X137452274Y-113752817D01*
X137353815Y-113626803D01*
X137254206Y-113499473D01*
X137155647Y-113373639D01*
X137060336Y-113252112D01*
X136970472Y-113137702D01*
X136888254Y-113033223D01*
X136815882Y-112941484D01*
X136755553Y-112865298D01*
X136709467Y-112807475D01*
X136679822Y-112770826D01*
X136669834Y-112759067D01*
X136655130Y-112745877D01*
X136655146Y-112756280D01*
G36*
X112779145Y-112756280D02*
X112789282Y-112784466D01*
X112805712Y-112827983D01*
X112830588Y-112894720D01*
X112862327Y-112980361D01*
X112899347Y-113080591D01*
X112940063Y-113191096D01*
X112982894Y-113307559D01*
X113026255Y-113425667D01*
X113068563Y-113541103D01*
X113108235Y-113649553D01*
X113143688Y-113746701D01*
X113173338Y-113828233D01*
X113195603Y-113889832D01*
X113208899Y-113927185D01*
X113212032Y-113936684D01*
X113195804Y-113938675D01*
X113149936Y-113940765D01*
X113078655Y-113942853D01*
X112986189Y-113944838D01*
X112876763Y-113946617D01*
X112754604Y-113948090D01*
X112724908Y-113948377D01*
X112237783Y-113952867D01*
X112799194Y-114695173D01*
X112904870Y-114834761D01*
X113004803Y-114966499D01*
X113097061Y-115087856D01*
X113179712Y-115196304D01*
X113250823Y-115289314D01*
X113308463Y-115364356D01*
X113350699Y-115418901D01*
X113375599Y-115450420D01*
X113381355Y-115457173D01*
X113395429Y-115465999D01*
X113393438Y-115447084D01*
X113392285Y-115443000D01*
X113381786Y-115405649D01*
X113364745Y-115343666D01*
X113342435Y-115261800D01*
X113316135Y-115164801D01*
X113287121Y-115057418D01*
X113256668Y-114944400D01*
X113226054Y-114830498D01*
X113196555Y-114720459D01*
X113169446Y-114619034D01*
X113146006Y-114530973D01*
X113127509Y-114461023D01*
X113115233Y-114413936D01*
X113110453Y-114394460D01*
X113110433Y-114394256D01*
X113126652Y-114391773D01*
X113172453Y-114389529D01*
X113243552Y-114387610D01*
X113335664Y-114386104D01*
X113444506Y-114385096D01*
X113565793Y-114384674D01*
X113584566Y-114384666D01*
X113707333Y-114384377D01*
X113818289Y-114383560D01*
X113913152Y-114382292D01*
X113987635Y-114380649D01*
X114037456Y-114378707D01*
X114058330Y-114376544D01*
X114058699Y-114376209D01*
X114048596Y-114361927D01*
X114019752Y-114323840D01*
X113974366Y-114264757D01*
X113914638Y-114187491D01*
X113842765Y-114094852D01*
X113760948Y-113989653D01*
X113671384Y-113874704D01*
X113576273Y-113752817D01*
X113477814Y-113626803D01*
X113378205Y-113499473D01*
X113279646Y-113373639D01*
X113184335Y-113252112D01*
X113094471Y-113137702D01*
X113012253Y-113033223D01*
X112939881Y-112941484D01*
X112879552Y-112865298D01*
X112833466Y-112807475D01*
X112803821Y-112770826D01*
X112793833Y-112759067D01*
X112779129Y-112745877D01*
X112779145Y-112756280D01*
X112779145Y-112756280D01*
G37*
X112779145Y-112756280D02*
X112789282Y-112784466D01*
X112805712Y-112827983D01*
X112830588Y-112894720D01*
X112862327Y-112980361D01*
X112899347Y-113080591D01*
X112940063Y-113191096D01*
X112982894Y-113307559D01*
X113026255Y-113425667D01*
X113068563Y-113541103D01*
X113108235Y-113649553D01*
X113143688Y-113746701D01*
X113173338Y-113828233D01*
X113195603Y-113889832D01*
X113208899Y-113927185D01*
X113212032Y-113936684D01*
X113195804Y-113938675D01*
X113149936Y-113940765D01*
X113078655Y-113942853D01*
X112986189Y-113944838D01*
X112876763Y-113946617D01*
X112754604Y-113948090D01*
X112724908Y-113948377D01*
X112237783Y-113952867D01*
X112799194Y-114695173D01*
X112904870Y-114834761D01*
X113004803Y-114966499D01*
X113097061Y-115087856D01*
X113179712Y-115196304D01*
X113250823Y-115289314D01*
X113308463Y-115364356D01*
X113350699Y-115418901D01*
X113375599Y-115450420D01*
X113381355Y-115457173D01*
X113395429Y-115465999D01*
X113393438Y-115447084D01*
X113392285Y-115443000D01*
X113381786Y-115405649D01*
X113364745Y-115343666D01*
X113342435Y-115261800D01*
X113316135Y-115164801D01*
X113287121Y-115057418D01*
X113256668Y-114944400D01*
X113226054Y-114830498D01*
X113196555Y-114720459D01*
X113169446Y-114619034D01*
X113146006Y-114530973D01*
X113127509Y-114461023D01*
X113115233Y-114413936D01*
X113110453Y-114394460D01*
X113110433Y-114394256D01*
X113126652Y-114391773D01*
X113172453Y-114389529D01*
X113243552Y-114387610D01*
X113335664Y-114386104D01*
X113444506Y-114385096D01*
X113565793Y-114384674D01*
X113584566Y-114384666D01*
X113707333Y-114384377D01*
X113818289Y-114383560D01*
X113913152Y-114382292D01*
X113987635Y-114380649D01*
X114037456Y-114378707D01*
X114058330Y-114376544D01*
X114058699Y-114376209D01*
X114048596Y-114361927D01*
X114019752Y-114323840D01*
X113974366Y-114264757D01*
X113914638Y-114187491D01*
X113842765Y-114094852D01*
X113760948Y-113989653D01*
X113671384Y-113874704D01*
X113576273Y-113752817D01*
X113477814Y-113626803D01*
X113378205Y-113499473D01*
X113279646Y-113373639D01*
X113184335Y-113252112D01*
X113094471Y-113137702D01*
X113012253Y-113033223D01*
X112939881Y-112941484D01*
X112879552Y-112865298D01*
X112833466Y-112807475D01*
X112803821Y-112770826D01*
X112793833Y-112759067D01*
X112779129Y-112745877D01*
X112779145Y-112756280D01*
D11*
X127000000Y-88646002D02*
X127000000Y-116586002D01*
X127000000Y-116586002D02*
X129540000Y-116586002D01*
X129540000Y-116586002D02*
X129540000Y-88646002D01*
X126720000Y-85826002D02*
X126720000Y-87376002D01*
X127000000Y-88646002D02*
X129540000Y-88646002D01*
X129820000Y-87376002D02*
X129820000Y-85826002D01*
X129820000Y-85826002D02*
X126720000Y-85826002D01*
X109220000Y-88646000D02*
X109220000Y-116586000D01*
X109220000Y-116586000D02*
X111760000Y-116586000D01*
X111760000Y-116586000D02*
X111760000Y-88646000D01*
X108940000Y-85826000D02*
X108940000Y-87376000D01*
X109220000Y-88646000D02*
X111760000Y-88646000D01*
X112040000Y-87376000D02*
X112040000Y-85826000D01*
X112040000Y-85826000D02*
X108940000Y-85826000D01*
M02*
