G04 #@! TF.FileFunction,Profile,NP*
%FSLAX46Y46*%
G04 Gerber Fmt 4.6, Leading zero omitted, Abs format (unit mm)*
G04 Created by KiCad (PCBNEW 4.0.5+dfsg1-4) date Fri Mar 30 22:23:14 2018*
%MOMM*%
%LPD*%
G01*
G04 APERTURE LIST*
%ADD10C,0.100000*%
%ADD11C,0.150000*%
G04 APERTURE END LIST*
D10*
D11*
X95250000Y-47498000D02*
X95250000Y-105410000D01*
X180594000Y-47498000D02*
X95250000Y-47498000D01*
X180594000Y-105410000D02*
X180594000Y-47498000D01*
X95250000Y-105410000D02*
X180594000Y-105410000D01*
X99060000Y-101600000D02*
X108077000Y-101600000D01*
X110617000Y-101600000D02*
X120396000Y-101600000D01*
X120396000Y-101600000D02*
X126873000Y-101600000D01*
X129413000Y-101600000D02*
X139192000Y-101600000D01*
X139192000Y-101600000D02*
X145669000Y-101600000D01*
X148209000Y-101600000D02*
X157988000Y-101600000D01*
X157988000Y-101600000D02*
X164465000Y-101600000D01*
X167005000Y-101600000D02*
X176784000Y-101600000D01*
X176784000Y-75184000D02*
X176784000Y-65786000D01*
X176784000Y-87122000D02*
X176784000Y-75184000D01*
X176784000Y-101600000D02*
X176784000Y-89662000D01*
X176784000Y-63246000D02*
X176784000Y-51308000D01*
X101600000Y-99060000D02*
X101600000Y-89662000D01*
X101600000Y-87122000D02*
X101600000Y-77724000D01*
X101600000Y-63246000D02*
X101600000Y-53848000D01*
X101600000Y-75184000D02*
X101600000Y-65786000D01*
X99060000Y-87122000D02*
X99060000Y-77724000D01*
X99060000Y-101600000D02*
X99060000Y-89662000D01*
X99060000Y-77724000D02*
X99060000Y-65786000D01*
X99060000Y-63246000D02*
X99060000Y-51308000D01*
X157988000Y-99060000D02*
X164465000Y-99060000D01*
X157988000Y-99060000D02*
X157988000Y-89662000D01*
X167005000Y-53848000D02*
X174244000Y-53848000D01*
X174244000Y-75184000D02*
X174244000Y-65786000D01*
X167005000Y-51308000D02*
X176784000Y-51308000D01*
X167005000Y-75184000D02*
X174244000Y-75184000D01*
X174244000Y-63246000D02*
X174244000Y-53848000D01*
X157988000Y-51308000D02*
X164465000Y-51308000D01*
X157988000Y-63246000D02*
X157988000Y-53848000D01*
X157988000Y-53848000D02*
X164465000Y-53848000D01*
X157988000Y-75184000D02*
X157988000Y-65786000D01*
X157988000Y-87122000D02*
X157988000Y-77724000D01*
X157988000Y-75184000D02*
X164465000Y-75184000D01*
X157988000Y-77724000D02*
X164465000Y-77724000D01*
X174244000Y-99060000D02*
X174244000Y-89662000D01*
X174244000Y-87122000D02*
X174244000Y-77724000D01*
X167005000Y-99060000D02*
X174244000Y-99060000D01*
X167005000Y-77724000D02*
X174244000Y-77724000D01*
X155448000Y-87122000D02*
X155448000Y-77724000D01*
X155448000Y-75184000D02*
X155448000Y-65786000D01*
X155448000Y-99060000D02*
X155448000Y-89662000D01*
X155448000Y-63246000D02*
X155448000Y-53848000D01*
X136652000Y-87122000D02*
X136652000Y-77724000D01*
X136652000Y-63246000D02*
X136652000Y-53848000D01*
X136652000Y-75184000D02*
X136652000Y-65786000D01*
X136652000Y-99060000D02*
X136652000Y-89662000D01*
X139192000Y-87122000D02*
X139192000Y-77724000D01*
X139192000Y-99060000D02*
X145669000Y-99060000D01*
X148209000Y-99060000D02*
X155448000Y-99060000D01*
X148209000Y-77724000D02*
X155448000Y-77724000D01*
X139192000Y-99060000D02*
X139192000Y-89662000D01*
X139192000Y-75184000D02*
X139192000Y-65786000D01*
X139192000Y-63246000D02*
X139192000Y-53848000D01*
X139192000Y-53848000D02*
X145669000Y-53848000D01*
X148209000Y-53848000D02*
X155448000Y-53848000D01*
X139192000Y-51308000D02*
X145669000Y-51308000D01*
X148209000Y-51308000D02*
X157988000Y-51308000D01*
X139192000Y-77724000D02*
X145669000Y-77724000D01*
X148209000Y-75184000D02*
X155448000Y-75184000D01*
X139192000Y-75184000D02*
X145669000Y-75184000D01*
X120396000Y-63246000D02*
X120396000Y-53848000D01*
X120396000Y-75184000D02*
X120396000Y-65786000D01*
X117856000Y-63246000D02*
X117856000Y-53848000D01*
X117856000Y-75184000D02*
X117856000Y-65786000D01*
X120396000Y-99060000D02*
X120396000Y-89662000D01*
X120396000Y-87122000D02*
X120396000Y-77724000D01*
X117856000Y-87122000D02*
X117856000Y-77724000D01*
X117856000Y-99060000D02*
X117856000Y-89662000D01*
X129413000Y-99060000D02*
X136652000Y-99060000D01*
X120396000Y-99060000D02*
X126873000Y-99060000D01*
X120396000Y-51308000D02*
X126873000Y-51308000D01*
X120396000Y-53848000D02*
X126873000Y-53848000D01*
X129413000Y-53848000D02*
X136652000Y-53848000D01*
X129413000Y-51308000D02*
X139192000Y-51308000D01*
X129413000Y-75184000D02*
X136652000Y-75184000D01*
X120396000Y-75184000D02*
X126873000Y-75184000D01*
X129413000Y-77724000D02*
X136652000Y-77724000D01*
X120396000Y-77724000D02*
X126873000Y-77724000D01*
X101600000Y-53848000D02*
X108077000Y-53848000D01*
X110617000Y-53848000D02*
X117856000Y-53848000D01*
X110617000Y-51308000D02*
X120396000Y-51308000D01*
X99060000Y-51308000D02*
X108077000Y-51308000D01*
X110617000Y-99060000D02*
X117856000Y-99060000D01*
X101600000Y-99060000D02*
X108077000Y-99060000D01*
X110617000Y-77724000D02*
X117856000Y-77724000D01*
X101600000Y-77724000D02*
X108077000Y-77724000D01*
X110617000Y-75184000D02*
X117856000Y-75184000D01*
X101600000Y-75184000D02*
X108077000Y-75184000D01*
X99060000Y-87122000D02*
X101600000Y-87122000D01*
X101600000Y-89662000D02*
X99060000Y-89662000D01*
X99060000Y-63246000D02*
X101600000Y-63246000D01*
X101600000Y-65786000D02*
X99060000Y-65786000D01*
X174244000Y-87122000D02*
X176784000Y-87122000D01*
X176784000Y-89662000D02*
X174244000Y-89662000D01*
X174244000Y-63246000D02*
X176784000Y-63246000D01*
X176784000Y-65786000D02*
X174244000Y-65786000D01*
X155448000Y-87122000D02*
X157988000Y-87122000D01*
X157988000Y-89662000D02*
X155448000Y-89662000D01*
X167005000Y-75184000D02*
X167005000Y-77724000D01*
X164465000Y-77724000D02*
X164465000Y-75184000D01*
X167005000Y-99060000D02*
X167005000Y-101600000D01*
X164465000Y-101600000D02*
X164465000Y-99060000D01*
X155448000Y-63246000D02*
X157988000Y-63246000D01*
X157988000Y-65786000D02*
X155448000Y-65786000D01*
X167005000Y-51308000D02*
X167005000Y-53848000D01*
X164465000Y-53848000D02*
X164465000Y-51308000D01*
X136652000Y-63246000D02*
X139192000Y-63246000D01*
X139192000Y-65786000D02*
X136652000Y-65786000D01*
X148209000Y-51308000D02*
X148209000Y-53848000D01*
X145669000Y-53848000D02*
X145669000Y-51308000D01*
X148209000Y-75184000D02*
X148209000Y-77724000D01*
X145669000Y-77724000D02*
X145669000Y-75184000D01*
X148209000Y-99060000D02*
X148209000Y-101600000D01*
X145669000Y-101600000D02*
X145669000Y-99060000D01*
X136652000Y-87122000D02*
X139192000Y-87122000D01*
X139192000Y-89662000D02*
X136652000Y-89662000D01*
X117856000Y-63246000D02*
X120396000Y-63246000D01*
X120396000Y-65786000D02*
X117856000Y-65786000D01*
X117856000Y-87122000D02*
X120396000Y-87122000D01*
X120396000Y-89662000D02*
X117856000Y-89662000D01*
X129413000Y-51308000D02*
X129413000Y-53848000D01*
X126873000Y-53848000D02*
X126873000Y-51308000D01*
X129413000Y-75184000D02*
X129413000Y-77724000D01*
X126873000Y-77724000D02*
X126873000Y-75184000D01*
X129413000Y-99060000D02*
X129413000Y-101600000D01*
X126873000Y-101600000D02*
X126873000Y-99060000D01*
X110617000Y-51308000D02*
X110617000Y-53848000D01*
X108077000Y-53848000D02*
X108077000Y-51308000D01*
X110617000Y-99060000D02*
X110617000Y-101600000D01*
X108077000Y-101600000D02*
X108077000Y-99060000D01*
X110617000Y-75184000D02*
X110617000Y-77724000D01*
X108077000Y-77724000D02*
X108077000Y-75184000D01*
M02*
