G04 #@! TF.FileFunction,Copper,L2,Bot,Signal*
%FSLAX46Y46*%
G04 Gerber Fmt 4.6, Leading zero omitted, Abs format (unit mm)*
G04 Created by KiCad (PCBNEW 4.0.5+dfsg1-4) date Fri Mar 30 22:23:14 2018*
%MOMM*%
%LPD*%
G01*
G04 APERTURE LIST*
%ADD10C,0.100000*%
%ADD11C,0.150000*%
%ADD12R,1.700000X1.700000*%
%ADD13O,1.700000X1.700000*%
%ADD14C,0.600000*%
%ADD15C,0.203200*%
%ADD16C,0.152400*%
G04 APERTURE END LIST*
D10*
D11*
X159142357Y-78653000D02*
X159178071Y-78617286D01*
X159213786Y-78510143D01*
X159213786Y-78438714D01*
X159178071Y-78331571D01*
X159106643Y-78260143D01*
X159035214Y-78224428D01*
X158892357Y-78188714D01*
X158785214Y-78188714D01*
X158642357Y-78224428D01*
X158570929Y-78260143D01*
X158499500Y-78331571D01*
X158463786Y-78438714D01*
X158463786Y-78510143D01*
X158499500Y-78617286D01*
X158535214Y-78653000D01*
X159213786Y-78974428D02*
X158463786Y-78974428D01*
X158463786Y-79153000D01*
X158499500Y-79260143D01*
X158570929Y-79331571D01*
X158642357Y-79367286D01*
X158785214Y-79403000D01*
X158892357Y-79403000D01*
X159035214Y-79367286D01*
X159106643Y-79331571D01*
X159178071Y-79260143D01*
X159213786Y-79153000D01*
X159213786Y-78974428D01*
X159213786Y-79724428D02*
X158463786Y-79724428D01*
X158999500Y-79974428D01*
X158463786Y-80224428D01*
X159213786Y-80224428D01*
X159213786Y-81581572D02*
X158856643Y-81331572D01*
X159213786Y-81153000D02*
X158463786Y-81153000D01*
X158463786Y-81438715D01*
X158499500Y-81510143D01*
X158535214Y-81545858D01*
X158606643Y-81581572D01*
X158713786Y-81581572D01*
X158785214Y-81545858D01*
X158820929Y-81510143D01*
X158856643Y-81438715D01*
X158856643Y-81153000D01*
X158820929Y-81903000D02*
X158820929Y-82153000D01*
X159213786Y-82260143D02*
X159213786Y-81903000D01*
X158463786Y-81903000D01*
X158463786Y-82260143D01*
X158463786Y-82474429D02*
X159213786Y-82724429D01*
X158463786Y-82974429D01*
X158999500Y-83760143D02*
X158999500Y-84117286D01*
X159213786Y-83688715D02*
X158463786Y-83938715D01*
X159213786Y-84188715D01*
X160488786Y-78653000D02*
X160488786Y-78224428D01*
X160488786Y-78438714D02*
X159738786Y-78438714D01*
X159845929Y-78367285D01*
X159917357Y-78295857D01*
X159953071Y-78224428D01*
X159738786Y-79117286D02*
X159738786Y-79188714D01*
X159774500Y-79260143D01*
X159810214Y-79295857D01*
X159881643Y-79331571D01*
X160024500Y-79367286D01*
X160203071Y-79367286D01*
X160345929Y-79331571D01*
X160417357Y-79295857D01*
X160453071Y-79260143D01*
X160488786Y-79188714D01*
X160488786Y-79117286D01*
X160453071Y-79045857D01*
X160417357Y-79010143D01*
X160345929Y-78974428D01*
X160203071Y-78938714D01*
X160024500Y-78938714D01*
X159881643Y-78974428D01*
X159810214Y-79010143D01*
X159774500Y-79045857D01*
X159738786Y-79117286D01*
X160203071Y-79688714D02*
X160203071Y-80260143D01*
X160488786Y-81010143D02*
X160488786Y-80581571D01*
X160488786Y-80795857D02*
X159738786Y-80795857D01*
X159845929Y-80724428D01*
X159917357Y-80653000D01*
X159953071Y-80581571D01*
X159738786Y-81688714D02*
X159738786Y-81331571D01*
X160095929Y-81295857D01*
X160060214Y-81331571D01*
X160024500Y-81403000D01*
X160024500Y-81581571D01*
X160060214Y-81653000D01*
X160095929Y-81688714D01*
X160167357Y-81724429D01*
X160345929Y-81724429D01*
X160417357Y-81688714D01*
X160453071Y-81653000D01*
X160488786Y-81581571D01*
X160488786Y-81403000D01*
X160453071Y-81331571D01*
X160417357Y-81295857D01*
X160203071Y-82045857D02*
X160203071Y-82617286D01*
X160488786Y-83367286D02*
X160488786Y-82938714D01*
X160488786Y-83153000D02*
X159738786Y-83153000D01*
X159845929Y-83081571D01*
X159917357Y-83010143D01*
X159953071Y-82938714D01*
X159738786Y-83617286D02*
X159738786Y-84117286D01*
X160488786Y-83795857D01*
X159142357Y-54777000D02*
X159178071Y-54741286D01*
X159213786Y-54634143D01*
X159213786Y-54562714D01*
X159178071Y-54455571D01*
X159106643Y-54384143D01*
X159035214Y-54348428D01*
X158892357Y-54312714D01*
X158785214Y-54312714D01*
X158642357Y-54348428D01*
X158570929Y-54384143D01*
X158499500Y-54455571D01*
X158463786Y-54562714D01*
X158463786Y-54634143D01*
X158499500Y-54741286D01*
X158535214Y-54777000D01*
X159213786Y-55098428D02*
X158463786Y-55098428D01*
X158463786Y-55277000D01*
X158499500Y-55384143D01*
X158570929Y-55455571D01*
X158642357Y-55491286D01*
X158785214Y-55527000D01*
X158892357Y-55527000D01*
X159035214Y-55491286D01*
X159106643Y-55455571D01*
X159178071Y-55384143D01*
X159213786Y-55277000D01*
X159213786Y-55098428D01*
X159213786Y-55848428D02*
X158463786Y-55848428D01*
X158999500Y-56098428D01*
X158463786Y-56348428D01*
X159213786Y-56348428D01*
X159213786Y-57705572D02*
X158856643Y-57455572D01*
X159213786Y-57277000D02*
X158463786Y-57277000D01*
X158463786Y-57562715D01*
X158499500Y-57634143D01*
X158535214Y-57669858D01*
X158606643Y-57705572D01*
X158713786Y-57705572D01*
X158785214Y-57669858D01*
X158820929Y-57634143D01*
X158856643Y-57562715D01*
X158856643Y-57277000D01*
X158820929Y-58027000D02*
X158820929Y-58277000D01*
X159213786Y-58384143D02*
X159213786Y-58027000D01*
X158463786Y-58027000D01*
X158463786Y-58384143D01*
X158463786Y-58598429D02*
X159213786Y-58848429D01*
X158463786Y-59098429D01*
X158999500Y-59884143D02*
X158999500Y-60241286D01*
X159213786Y-59812715D02*
X158463786Y-60062715D01*
X159213786Y-60312715D01*
X160488786Y-54777000D02*
X160488786Y-54348428D01*
X160488786Y-54562714D02*
X159738786Y-54562714D01*
X159845929Y-54491285D01*
X159917357Y-54419857D01*
X159953071Y-54348428D01*
X159738786Y-55241286D02*
X159738786Y-55312714D01*
X159774500Y-55384143D01*
X159810214Y-55419857D01*
X159881643Y-55455571D01*
X160024500Y-55491286D01*
X160203071Y-55491286D01*
X160345929Y-55455571D01*
X160417357Y-55419857D01*
X160453071Y-55384143D01*
X160488786Y-55312714D01*
X160488786Y-55241286D01*
X160453071Y-55169857D01*
X160417357Y-55134143D01*
X160345929Y-55098428D01*
X160203071Y-55062714D01*
X160024500Y-55062714D01*
X159881643Y-55098428D01*
X159810214Y-55134143D01*
X159774500Y-55169857D01*
X159738786Y-55241286D01*
X160203071Y-55812714D02*
X160203071Y-56384143D01*
X160488786Y-57134143D02*
X160488786Y-56705571D01*
X160488786Y-56919857D02*
X159738786Y-56919857D01*
X159845929Y-56848428D01*
X159917357Y-56777000D01*
X159953071Y-56705571D01*
X159738786Y-57812714D02*
X159738786Y-57455571D01*
X160095929Y-57419857D01*
X160060214Y-57455571D01*
X160024500Y-57527000D01*
X160024500Y-57705571D01*
X160060214Y-57777000D01*
X160095929Y-57812714D01*
X160167357Y-57848429D01*
X160345929Y-57848429D01*
X160417357Y-57812714D01*
X160453071Y-57777000D01*
X160488786Y-57705571D01*
X160488786Y-57527000D01*
X160453071Y-57455571D01*
X160417357Y-57419857D01*
X160203071Y-58169857D02*
X160203071Y-58741286D01*
X160488786Y-59491286D02*
X160488786Y-59062714D01*
X160488786Y-59277000D02*
X159738786Y-59277000D01*
X159845929Y-59205571D01*
X159917357Y-59134143D01*
X159953071Y-59062714D01*
X159738786Y-59741286D02*
X159738786Y-60241286D01*
X160488786Y-59919857D01*
X140346357Y-54777000D02*
X140382071Y-54741286D01*
X140417786Y-54634143D01*
X140417786Y-54562714D01*
X140382071Y-54455571D01*
X140310643Y-54384143D01*
X140239214Y-54348428D01*
X140096357Y-54312714D01*
X139989214Y-54312714D01*
X139846357Y-54348428D01*
X139774929Y-54384143D01*
X139703500Y-54455571D01*
X139667786Y-54562714D01*
X139667786Y-54634143D01*
X139703500Y-54741286D01*
X139739214Y-54777000D01*
X140417786Y-55098428D02*
X139667786Y-55098428D01*
X139667786Y-55277000D01*
X139703500Y-55384143D01*
X139774929Y-55455571D01*
X139846357Y-55491286D01*
X139989214Y-55527000D01*
X140096357Y-55527000D01*
X140239214Y-55491286D01*
X140310643Y-55455571D01*
X140382071Y-55384143D01*
X140417786Y-55277000D01*
X140417786Y-55098428D01*
X140417786Y-55848428D02*
X139667786Y-55848428D01*
X140203500Y-56098428D01*
X139667786Y-56348428D01*
X140417786Y-56348428D01*
X140417786Y-57705572D02*
X140060643Y-57455572D01*
X140417786Y-57277000D02*
X139667786Y-57277000D01*
X139667786Y-57562715D01*
X139703500Y-57634143D01*
X139739214Y-57669858D01*
X139810643Y-57705572D01*
X139917786Y-57705572D01*
X139989214Y-57669858D01*
X140024929Y-57634143D01*
X140060643Y-57562715D01*
X140060643Y-57277000D01*
X140024929Y-58027000D02*
X140024929Y-58277000D01*
X140417786Y-58384143D02*
X140417786Y-58027000D01*
X139667786Y-58027000D01*
X139667786Y-58384143D01*
X139667786Y-58598429D02*
X140417786Y-58848429D01*
X139667786Y-59098429D01*
X140203500Y-59884143D02*
X140203500Y-60241286D01*
X140417786Y-59812715D02*
X139667786Y-60062715D01*
X140417786Y-60312715D01*
X141692786Y-54777000D02*
X141692786Y-54348428D01*
X141692786Y-54562714D02*
X140942786Y-54562714D01*
X141049929Y-54491285D01*
X141121357Y-54419857D01*
X141157071Y-54348428D01*
X140942786Y-55241286D02*
X140942786Y-55312714D01*
X140978500Y-55384143D01*
X141014214Y-55419857D01*
X141085643Y-55455571D01*
X141228500Y-55491286D01*
X141407071Y-55491286D01*
X141549929Y-55455571D01*
X141621357Y-55419857D01*
X141657071Y-55384143D01*
X141692786Y-55312714D01*
X141692786Y-55241286D01*
X141657071Y-55169857D01*
X141621357Y-55134143D01*
X141549929Y-55098428D01*
X141407071Y-55062714D01*
X141228500Y-55062714D01*
X141085643Y-55098428D01*
X141014214Y-55134143D01*
X140978500Y-55169857D01*
X140942786Y-55241286D01*
X141407071Y-55812714D02*
X141407071Y-56384143D01*
X141692786Y-57134143D02*
X141692786Y-56705571D01*
X141692786Y-56919857D02*
X140942786Y-56919857D01*
X141049929Y-56848428D01*
X141121357Y-56777000D01*
X141157071Y-56705571D01*
X140942786Y-57812714D02*
X140942786Y-57455571D01*
X141299929Y-57419857D01*
X141264214Y-57455571D01*
X141228500Y-57527000D01*
X141228500Y-57705571D01*
X141264214Y-57777000D01*
X141299929Y-57812714D01*
X141371357Y-57848429D01*
X141549929Y-57848429D01*
X141621357Y-57812714D01*
X141657071Y-57777000D01*
X141692786Y-57705571D01*
X141692786Y-57527000D01*
X141657071Y-57455571D01*
X141621357Y-57419857D01*
X141407071Y-58169857D02*
X141407071Y-58741286D01*
X141692786Y-59491286D02*
X141692786Y-59062714D01*
X141692786Y-59277000D02*
X140942786Y-59277000D01*
X141049929Y-59205571D01*
X141121357Y-59134143D01*
X141157071Y-59062714D01*
X140942786Y-59741286D02*
X140942786Y-60241286D01*
X141692786Y-59919857D01*
X140346357Y-78653000D02*
X140382071Y-78617286D01*
X140417786Y-78510143D01*
X140417786Y-78438714D01*
X140382071Y-78331571D01*
X140310643Y-78260143D01*
X140239214Y-78224428D01*
X140096357Y-78188714D01*
X139989214Y-78188714D01*
X139846357Y-78224428D01*
X139774929Y-78260143D01*
X139703500Y-78331571D01*
X139667786Y-78438714D01*
X139667786Y-78510143D01*
X139703500Y-78617286D01*
X139739214Y-78653000D01*
X140417786Y-78974428D02*
X139667786Y-78974428D01*
X139667786Y-79153000D01*
X139703500Y-79260143D01*
X139774929Y-79331571D01*
X139846357Y-79367286D01*
X139989214Y-79403000D01*
X140096357Y-79403000D01*
X140239214Y-79367286D01*
X140310643Y-79331571D01*
X140382071Y-79260143D01*
X140417786Y-79153000D01*
X140417786Y-78974428D01*
X140417786Y-79724428D02*
X139667786Y-79724428D01*
X140203500Y-79974428D01*
X139667786Y-80224428D01*
X140417786Y-80224428D01*
X140417786Y-81581572D02*
X140060643Y-81331572D01*
X140417786Y-81153000D02*
X139667786Y-81153000D01*
X139667786Y-81438715D01*
X139703500Y-81510143D01*
X139739214Y-81545858D01*
X139810643Y-81581572D01*
X139917786Y-81581572D01*
X139989214Y-81545858D01*
X140024929Y-81510143D01*
X140060643Y-81438715D01*
X140060643Y-81153000D01*
X140024929Y-81903000D02*
X140024929Y-82153000D01*
X140417786Y-82260143D02*
X140417786Y-81903000D01*
X139667786Y-81903000D01*
X139667786Y-82260143D01*
X139667786Y-82474429D02*
X140417786Y-82724429D01*
X139667786Y-82974429D01*
X140203500Y-83760143D02*
X140203500Y-84117286D01*
X140417786Y-83688715D02*
X139667786Y-83938715D01*
X140417786Y-84188715D01*
X141692786Y-78653000D02*
X141692786Y-78224428D01*
X141692786Y-78438714D02*
X140942786Y-78438714D01*
X141049929Y-78367285D01*
X141121357Y-78295857D01*
X141157071Y-78224428D01*
X140942786Y-79117286D02*
X140942786Y-79188714D01*
X140978500Y-79260143D01*
X141014214Y-79295857D01*
X141085643Y-79331571D01*
X141228500Y-79367286D01*
X141407071Y-79367286D01*
X141549929Y-79331571D01*
X141621357Y-79295857D01*
X141657071Y-79260143D01*
X141692786Y-79188714D01*
X141692786Y-79117286D01*
X141657071Y-79045857D01*
X141621357Y-79010143D01*
X141549929Y-78974428D01*
X141407071Y-78938714D01*
X141228500Y-78938714D01*
X141085643Y-78974428D01*
X141014214Y-79010143D01*
X140978500Y-79045857D01*
X140942786Y-79117286D01*
X141407071Y-79688714D02*
X141407071Y-80260143D01*
X141692786Y-81010143D02*
X141692786Y-80581571D01*
X141692786Y-80795857D02*
X140942786Y-80795857D01*
X141049929Y-80724428D01*
X141121357Y-80653000D01*
X141157071Y-80581571D01*
X140942786Y-81688714D02*
X140942786Y-81331571D01*
X141299929Y-81295857D01*
X141264214Y-81331571D01*
X141228500Y-81403000D01*
X141228500Y-81581571D01*
X141264214Y-81653000D01*
X141299929Y-81688714D01*
X141371357Y-81724429D01*
X141549929Y-81724429D01*
X141621357Y-81688714D01*
X141657071Y-81653000D01*
X141692786Y-81581571D01*
X141692786Y-81403000D01*
X141657071Y-81331571D01*
X141621357Y-81295857D01*
X141407071Y-82045857D02*
X141407071Y-82617286D01*
X141692786Y-83367286D02*
X141692786Y-82938714D01*
X141692786Y-83153000D02*
X140942786Y-83153000D01*
X141049929Y-83081571D01*
X141121357Y-83010143D01*
X141157071Y-82938714D01*
X140942786Y-83617286D02*
X140942786Y-84117286D01*
X141692786Y-83795857D01*
X121550357Y-54777000D02*
X121586071Y-54741286D01*
X121621786Y-54634143D01*
X121621786Y-54562714D01*
X121586071Y-54455571D01*
X121514643Y-54384143D01*
X121443214Y-54348428D01*
X121300357Y-54312714D01*
X121193214Y-54312714D01*
X121050357Y-54348428D01*
X120978929Y-54384143D01*
X120907500Y-54455571D01*
X120871786Y-54562714D01*
X120871786Y-54634143D01*
X120907500Y-54741286D01*
X120943214Y-54777000D01*
X121621786Y-55098428D02*
X120871786Y-55098428D01*
X120871786Y-55277000D01*
X120907500Y-55384143D01*
X120978929Y-55455571D01*
X121050357Y-55491286D01*
X121193214Y-55527000D01*
X121300357Y-55527000D01*
X121443214Y-55491286D01*
X121514643Y-55455571D01*
X121586071Y-55384143D01*
X121621786Y-55277000D01*
X121621786Y-55098428D01*
X121621786Y-55848428D02*
X120871786Y-55848428D01*
X121407500Y-56098428D01*
X120871786Y-56348428D01*
X121621786Y-56348428D01*
X121621786Y-57705572D02*
X121264643Y-57455572D01*
X121621786Y-57277000D02*
X120871786Y-57277000D01*
X120871786Y-57562715D01*
X120907500Y-57634143D01*
X120943214Y-57669858D01*
X121014643Y-57705572D01*
X121121786Y-57705572D01*
X121193214Y-57669858D01*
X121228929Y-57634143D01*
X121264643Y-57562715D01*
X121264643Y-57277000D01*
X121228929Y-58027000D02*
X121228929Y-58277000D01*
X121621786Y-58384143D02*
X121621786Y-58027000D01*
X120871786Y-58027000D01*
X120871786Y-58384143D01*
X120871786Y-58598429D02*
X121621786Y-58848429D01*
X120871786Y-59098429D01*
X121407500Y-59884143D02*
X121407500Y-60241286D01*
X121621786Y-59812715D02*
X120871786Y-60062715D01*
X121621786Y-60312715D01*
X122896786Y-54777000D02*
X122896786Y-54348428D01*
X122896786Y-54562714D02*
X122146786Y-54562714D01*
X122253929Y-54491285D01*
X122325357Y-54419857D01*
X122361071Y-54348428D01*
X122146786Y-55241286D02*
X122146786Y-55312714D01*
X122182500Y-55384143D01*
X122218214Y-55419857D01*
X122289643Y-55455571D01*
X122432500Y-55491286D01*
X122611071Y-55491286D01*
X122753929Y-55455571D01*
X122825357Y-55419857D01*
X122861071Y-55384143D01*
X122896786Y-55312714D01*
X122896786Y-55241286D01*
X122861071Y-55169857D01*
X122825357Y-55134143D01*
X122753929Y-55098428D01*
X122611071Y-55062714D01*
X122432500Y-55062714D01*
X122289643Y-55098428D01*
X122218214Y-55134143D01*
X122182500Y-55169857D01*
X122146786Y-55241286D01*
X122611071Y-55812714D02*
X122611071Y-56384143D01*
X122896786Y-57134143D02*
X122896786Y-56705571D01*
X122896786Y-56919857D02*
X122146786Y-56919857D01*
X122253929Y-56848428D01*
X122325357Y-56777000D01*
X122361071Y-56705571D01*
X122146786Y-57812714D02*
X122146786Y-57455571D01*
X122503929Y-57419857D01*
X122468214Y-57455571D01*
X122432500Y-57527000D01*
X122432500Y-57705571D01*
X122468214Y-57777000D01*
X122503929Y-57812714D01*
X122575357Y-57848429D01*
X122753929Y-57848429D01*
X122825357Y-57812714D01*
X122861071Y-57777000D01*
X122896786Y-57705571D01*
X122896786Y-57527000D01*
X122861071Y-57455571D01*
X122825357Y-57419857D01*
X122611071Y-58169857D02*
X122611071Y-58741286D01*
X122896786Y-59491286D02*
X122896786Y-59062714D01*
X122896786Y-59277000D02*
X122146786Y-59277000D01*
X122253929Y-59205571D01*
X122325357Y-59134143D01*
X122361071Y-59062714D01*
X122146786Y-59741286D02*
X122146786Y-60241286D01*
X122896786Y-59919857D01*
X121550357Y-78653000D02*
X121586071Y-78617286D01*
X121621786Y-78510143D01*
X121621786Y-78438714D01*
X121586071Y-78331571D01*
X121514643Y-78260143D01*
X121443214Y-78224428D01*
X121300357Y-78188714D01*
X121193214Y-78188714D01*
X121050357Y-78224428D01*
X120978929Y-78260143D01*
X120907500Y-78331571D01*
X120871786Y-78438714D01*
X120871786Y-78510143D01*
X120907500Y-78617286D01*
X120943214Y-78653000D01*
X121621786Y-78974428D02*
X120871786Y-78974428D01*
X120871786Y-79153000D01*
X120907500Y-79260143D01*
X120978929Y-79331571D01*
X121050357Y-79367286D01*
X121193214Y-79403000D01*
X121300357Y-79403000D01*
X121443214Y-79367286D01*
X121514643Y-79331571D01*
X121586071Y-79260143D01*
X121621786Y-79153000D01*
X121621786Y-78974428D01*
X121621786Y-79724428D02*
X120871786Y-79724428D01*
X121407500Y-79974428D01*
X120871786Y-80224428D01*
X121621786Y-80224428D01*
X121621786Y-81581572D02*
X121264643Y-81331572D01*
X121621786Y-81153000D02*
X120871786Y-81153000D01*
X120871786Y-81438715D01*
X120907500Y-81510143D01*
X120943214Y-81545858D01*
X121014643Y-81581572D01*
X121121786Y-81581572D01*
X121193214Y-81545858D01*
X121228929Y-81510143D01*
X121264643Y-81438715D01*
X121264643Y-81153000D01*
X121228929Y-81903000D02*
X121228929Y-82153000D01*
X121621786Y-82260143D02*
X121621786Y-81903000D01*
X120871786Y-81903000D01*
X120871786Y-82260143D01*
X120871786Y-82474429D02*
X121621786Y-82724429D01*
X120871786Y-82974429D01*
X121407500Y-83760143D02*
X121407500Y-84117286D01*
X121621786Y-83688715D02*
X120871786Y-83938715D01*
X121621786Y-84188715D01*
X122896786Y-78653000D02*
X122896786Y-78224428D01*
X122896786Y-78438714D02*
X122146786Y-78438714D01*
X122253929Y-78367285D01*
X122325357Y-78295857D01*
X122361071Y-78224428D01*
X122146786Y-79117286D02*
X122146786Y-79188714D01*
X122182500Y-79260143D01*
X122218214Y-79295857D01*
X122289643Y-79331571D01*
X122432500Y-79367286D01*
X122611071Y-79367286D01*
X122753929Y-79331571D01*
X122825357Y-79295857D01*
X122861071Y-79260143D01*
X122896786Y-79188714D01*
X122896786Y-79117286D01*
X122861071Y-79045857D01*
X122825357Y-79010143D01*
X122753929Y-78974428D01*
X122611071Y-78938714D01*
X122432500Y-78938714D01*
X122289643Y-78974428D01*
X122218214Y-79010143D01*
X122182500Y-79045857D01*
X122146786Y-79117286D01*
X122611071Y-79688714D02*
X122611071Y-80260143D01*
X122896786Y-81010143D02*
X122896786Y-80581571D01*
X122896786Y-80795857D02*
X122146786Y-80795857D01*
X122253929Y-80724428D01*
X122325357Y-80653000D01*
X122361071Y-80581571D01*
X122146786Y-81688714D02*
X122146786Y-81331571D01*
X122503929Y-81295857D01*
X122468214Y-81331571D01*
X122432500Y-81403000D01*
X122432500Y-81581571D01*
X122468214Y-81653000D01*
X122503929Y-81688714D01*
X122575357Y-81724429D01*
X122753929Y-81724429D01*
X122825357Y-81688714D01*
X122861071Y-81653000D01*
X122896786Y-81581571D01*
X122896786Y-81403000D01*
X122861071Y-81331571D01*
X122825357Y-81295857D01*
X122611071Y-82045857D02*
X122611071Y-82617286D01*
X122896786Y-83367286D02*
X122896786Y-82938714D01*
X122896786Y-83153000D02*
X122146786Y-83153000D01*
X122253929Y-83081571D01*
X122325357Y-83010143D01*
X122361071Y-82938714D01*
X122146786Y-83617286D02*
X122146786Y-84117286D01*
X122896786Y-83795857D01*
X102754357Y-78653000D02*
X102790071Y-78617286D01*
X102825786Y-78510143D01*
X102825786Y-78438714D01*
X102790071Y-78331571D01*
X102718643Y-78260143D01*
X102647214Y-78224428D01*
X102504357Y-78188714D01*
X102397214Y-78188714D01*
X102254357Y-78224428D01*
X102182929Y-78260143D01*
X102111500Y-78331571D01*
X102075786Y-78438714D01*
X102075786Y-78510143D01*
X102111500Y-78617286D01*
X102147214Y-78653000D01*
X102825786Y-78974428D02*
X102075786Y-78974428D01*
X102075786Y-79153000D01*
X102111500Y-79260143D01*
X102182929Y-79331571D01*
X102254357Y-79367286D01*
X102397214Y-79403000D01*
X102504357Y-79403000D01*
X102647214Y-79367286D01*
X102718643Y-79331571D01*
X102790071Y-79260143D01*
X102825786Y-79153000D01*
X102825786Y-78974428D01*
X102825786Y-79724428D02*
X102075786Y-79724428D01*
X102611500Y-79974428D01*
X102075786Y-80224428D01*
X102825786Y-80224428D01*
X102825786Y-81581572D02*
X102468643Y-81331572D01*
X102825786Y-81153000D02*
X102075786Y-81153000D01*
X102075786Y-81438715D01*
X102111500Y-81510143D01*
X102147214Y-81545858D01*
X102218643Y-81581572D01*
X102325786Y-81581572D01*
X102397214Y-81545858D01*
X102432929Y-81510143D01*
X102468643Y-81438715D01*
X102468643Y-81153000D01*
X102432929Y-81903000D02*
X102432929Y-82153000D01*
X102825786Y-82260143D02*
X102825786Y-81903000D01*
X102075786Y-81903000D01*
X102075786Y-82260143D01*
X102075786Y-82474429D02*
X102825786Y-82724429D01*
X102075786Y-82974429D01*
X102611500Y-83760143D02*
X102611500Y-84117286D01*
X102825786Y-83688715D02*
X102075786Y-83938715D01*
X102825786Y-84188715D01*
X104100786Y-78653000D02*
X104100786Y-78224428D01*
X104100786Y-78438714D02*
X103350786Y-78438714D01*
X103457929Y-78367285D01*
X103529357Y-78295857D01*
X103565071Y-78224428D01*
X103350786Y-79117286D02*
X103350786Y-79188714D01*
X103386500Y-79260143D01*
X103422214Y-79295857D01*
X103493643Y-79331571D01*
X103636500Y-79367286D01*
X103815071Y-79367286D01*
X103957929Y-79331571D01*
X104029357Y-79295857D01*
X104065071Y-79260143D01*
X104100786Y-79188714D01*
X104100786Y-79117286D01*
X104065071Y-79045857D01*
X104029357Y-79010143D01*
X103957929Y-78974428D01*
X103815071Y-78938714D01*
X103636500Y-78938714D01*
X103493643Y-78974428D01*
X103422214Y-79010143D01*
X103386500Y-79045857D01*
X103350786Y-79117286D01*
X103815071Y-79688714D02*
X103815071Y-80260143D01*
X104100786Y-81010143D02*
X104100786Y-80581571D01*
X104100786Y-80795857D02*
X103350786Y-80795857D01*
X103457929Y-80724428D01*
X103529357Y-80653000D01*
X103565071Y-80581571D01*
X103350786Y-81688714D02*
X103350786Y-81331571D01*
X103707929Y-81295857D01*
X103672214Y-81331571D01*
X103636500Y-81403000D01*
X103636500Y-81581571D01*
X103672214Y-81653000D01*
X103707929Y-81688714D01*
X103779357Y-81724429D01*
X103957929Y-81724429D01*
X104029357Y-81688714D01*
X104065071Y-81653000D01*
X104100786Y-81581571D01*
X104100786Y-81403000D01*
X104065071Y-81331571D01*
X104029357Y-81295857D01*
X103815071Y-82045857D02*
X103815071Y-82617286D01*
X104100786Y-83367286D02*
X104100786Y-82938714D01*
X104100786Y-83153000D02*
X103350786Y-83153000D01*
X103457929Y-83081571D01*
X103529357Y-83010143D01*
X103565071Y-82938714D01*
X103350786Y-83617286D02*
X103350786Y-84117286D01*
X104100786Y-83795857D01*
X102754357Y-54777000D02*
X102790071Y-54741286D01*
X102825786Y-54634143D01*
X102825786Y-54562714D01*
X102790071Y-54455571D01*
X102718643Y-54384143D01*
X102647214Y-54348428D01*
X102504357Y-54312714D01*
X102397214Y-54312714D01*
X102254357Y-54348428D01*
X102182929Y-54384143D01*
X102111500Y-54455571D01*
X102075786Y-54562714D01*
X102075786Y-54634143D01*
X102111500Y-54741286D01*
X102147214Y-54777000D01*
X102825786Y-55098428D02*
X102075786Y-55098428D01*
X102075786Y-55277000D01*
X102111500Y-55384143D01*
X102182929Y-55455571D01*
X102254357Y-55491286D01*
X102397214Y-55527000D01*
X102504357Y-55527000D01*
X102647214Y-55491286D01*
X102718643Y-55455571D01*
X102790071Y-55384143D01*
X102825786Y-55277000D01*
X102825786Y-55098428D01*
X102825786Y-55848428D02*
X102075786Y-55848428D01*
X102611500Y-56098428D01*
X102075786Y-56348428D01*
X102825786Y-56348428D01*
X102825786Y-57705572D02*
X102468643Y-57455572D01*
X102825786Y-57277000D02*
X102075786Y-57277000D01*
X102075786Y-57562715D01*
X102111500Y-57634143D01*
X102147214Y-57669858D01*
X102218643Y-57705572D01*
X102325786Y-57705572D01*
X102397214Y-57669858D01*
X102432929Y-57634143D01*
X102468643Y-57562715D01*
X102468643Y-57277000D01*
X102432929Y-58027000D02*
X102432929Y-58277000D01*
X102825786Y-58384143D02*
X102825786Y-58027000D01*
X102075786Y-58027000D01*
X102075786Y-58384143D01*
X102075786Y-58598429D02*
X102825786Y-58848429D01*
X102075786Y-59098429D01*
X102611500Y-59884143D02*
X102611500Y-60241286D01*
X102825786Y-59812715D02*
X102075786Y-60062715D01*
X102825786Y-60312715D01*
X104100786Y-54777000D02*
X104100786Y-54348428D01*
X104100786Y-54562714D02*
X103350786Y-54562714D01*
X103457929Y-54491285D01*
X103529357Y-54419857D01*
X103565071Y-54348428D01*
X103350786Y-55241286D02*
X103350786Y-55312714D01*
X103386500Y-55384143D01*
X103422214Y-55419857D01*
X103493643Y-55455571D01*
X103636500Y-55491286D01*
X103815071Y-55491286D01*
X103957929Y-55455571D01*
X104029357Y-55419857D01*
X104065071Y-55384143D01*
X104100786Y-55312714D01*
X104100786Y-55241286D01*
X104065071Y-55169857D01*
X104029357Y-55134143D01*
X103957929Y-55098428D01*
X103815071Y-55062714D01*
X103636500Y-55062714D01*
X103493643Y-55098428D01*
X103422214Y-55134143D01*
X103386500Y-55169857D01*
X103350786Y-55241286D01*
X103815071Y-55812714D02*
X103815071Y-56384143D01*
X104100786Y-57134143D02*
X104100786Y-56705571D01*
X104100786Y-56919857D02*
X103350786Y-56919857D01*
X103457929Y-56848428D01*
X103529357Y-56777000D01*
X103565071Y-56705571D01*
X103350786Y-57812714D02*
X103350786Y-57455571D01*
X103707929Y-57419857D01*
X103672214Y-57455571D01*
X103636500Y-57527000D01*
X103636500Y-57705571D01*
X103672214Y-57777000D01*
X103707929Y-57812714D01*
X103779357Y-57848429D01*
X103957929Y-57848429D01*
X104029357Y-57812714D01*
X104065071Y-57777000D01*
X104100786Y-57705571D01*
X104100786Y-57527000D01*
X104065071Y-57455571D01*
X104029357Y-57419857D01*
X103815071Y-58169857D02*
X103815071Y-58741286D01*
X104100786Y-59491286D02*
X104100786Y-59062714D01*
X104100786Y-59277000D02*
X103350786Y-59277000D01*
X103457929Y-59205571D01*
X103529357Y-59134143D01*
X103565071Y-59062714D01*
X103350786Y-59741286D02*
X103350786Y-60241286D01*
X104100786Y-59919857D01*
D12*
X172466000Y-79502000D03*
D13*
X172466000Y-82042000D03*
X172466000Y-84582000D03*
X172466000Y-87122000D03*
X172466000Y-89662000D03*
X172466000Y-92202000D03*
X172466000Y-94742000D03*
X172466000Y-97282000D03*
D12*
X172466000Y-55626000D03*
D13*
X172466000Y-58166000D03*
X172466000Y-60706000D03*
X172466000Y-63246000D03*
X172466000Y-65786000D03*
X172466000Y-68326000D03*
X172466000Y-70866000D03*
X172466000Y-73406000D03*
D14*
X163322000Y-88773000D03*
X163322000Y-91059000D03*
X165608000Y-89916000D03*
X165608000Y-88773000D03*
X163322000Y-89916000D03*
X163322000Y-92202000D03*
X165608000Y-87630001D03*
X161417000Y-94996000D03*
X160147000Y-97536000D03*
D12*
X160020000Y-91567000D03*
D14*
X161417000Y-97536000D03*
X164211000Y-97155000D03*
X162306000Y-94615000D03*
X162687000Y-97155000D03*
X163322000Y-94488000D03*
X165608000Y-93345000D03*
X165608000Y-92202000D03*
X165608000Y-91059000D03*
X165608000Y-94488000D03*
X165608000Y-97663000D03*
X165608000Y-95631000D03*
X167894000Y-95631000D03*
X167894000Y-92202000D03*
X167894000Y-89916000D03*
X167894000Y-91059000D03*
X161417000Y-73660000D03*
X164211000Y-73279000D03*
X163322000Y-70612000D03*
X162306000Y-70739000D03*
X162687000Y-73279000D03*
D12*
X160020000Y-67691000D03*
D14*
X163322000Y-64897000D03*
X163322000Y-66040000D03*
X161417000Y-71120000D03*
X160147000Y-73660000D03*
X165608000Y-63754001D03*
X165608000Y-64897000D03*
X167894000Y-68326000D03*
X165608000Y-66040000D03*
X167894000Y-66040000D03*
X167894000Y-67183000D03*
X165608000Y-69469000D03*
X165608000Y-67183000D03*
X163322000Y-68326000D03*
X163322000Y-67183000D03*
X165608000Y-68326000D03*
X167894000Y-71755000D03*
X165608000Y-73787000D03*
X165608000Y-71755000D03*
X165608000Y-70612000D03*
D12*
X153670000Y-79502000D03*
D13*
X153670000Y-82042000D03*
X153670000Y-84582000D03*
X153670000Y-87122000D03*
X153670000Y-89662000D03*
X153670000Y-92202000D03*
X153670000Y-94742000D03*
X153670000Y-97282000D03*
D12*
X153670000Y-55626000D03*
D13*
X153670000Y-58166000D03*
X153670000Y-60706000D03*
X153670000Y-63246000D03*
X153670000Y-65786000D03*
X153670000Y-68326000D03*
X153670000Y-70866000D03*
X153670000Y-73406000D03*
D12*
X141224000Y-67691000D03*
D14*
X144526000Y-68326000D03*
X144526000Y-67183000D03*
X146812000Y-67183000D03*
X149098000Y-68326000D03*
X149098000Y-67183000D03*
X146812000Y-68326000D03*
X146812000Y-63754001D03*
X146812000Y-64897000D03*
X146812000Y-66040000D03*
X149098000Y-66040000D03*
X144526000Y-64897000D03*
X144526000Y-66040000D03*
X143510000Y-70739000D03*
X142621000Y-71120000D03*
X146812000Y-70612000D03*
X149098000Y-71755000D03*
X142621000Y-73660000D03*
X143891000Y-73279000D03*
X141351000Y-73660000D03*
X144526000Y-70612000D03*
X146812000Y-69469000D03*
X146812000Y-71755000D03*
X145415000Y-73279000D03*
X146812000Y-73787000D03*
X149098000Y-95631000D03*
X146812000Y-97663000D03*
X146812000Y-88773000D03*
X146812000Y-87630001D03*
X146812000Y-89916000D03*
X149098000Y-89916000D03*
X146812000Y-91059000D03*
X149098000Y-92202000D03*
X149098000Y-91059000D03*
X146812000Y-92202000D03*
X146812000Y-95631000D03*
X146812000Y-94488000D03*
X146812000Y-93345000D03*
X142621000Y-97536000D03*
X141351000Y-97536000D03*
D12*
X141224000Y-91567000D03*
D14*
X144526000Y-88773000D03*
X144526000Y-92202000D03*
X144526000Y-89916000D03*
X144526000Y-91059000D03*
X144526000Y-94488000D03*
X145415000Y-97155000D03*
X143510000Y-94615000D03*
X143891000Y-97155000D03*
X142621000Y-94996000D03*
D12*
X134874000Y-55626000D03*
D13*
X134874000Y-58166000D03*
X134874000Y-60706000D03*
X134874000Y-63246000D03*
X134874000Y-65786000D03*
X134874000Y-68326000D03*
X134874000Y-70866000D03*
X134874000Y-73406000D03*
D12*
X134874000Y-79502000D03*
D13*
X134874000Y-82042000D03*
X134874000Y-84582000D03*
X134874000Y-87122000D03*
X134874000Y-89662000D03*
X134874000Y-92202000D03*
X134874000Y-94742000D03*
X134874000Y-97282000D03*
D12*
X122428000Y-67691000D03*
D14*
X124714000Y-70739000D03*
X123825000Y-71120000D03*
X125730000Y-70612000D03*
X123825000Y-73660000D03*
X125095000Y-73279000D03*
X122555000Y-73660000D03*
X128016000Y-70612000D03*
X126619000Y-73279000D03*
X130302000Y-71755000D03*
X128016000Y-73787000D03*
X128016000Y-71755000D03*
X130302000Y-67183000D03*
X130302000Y-68326000D03*
X130302000Y-66040000D03*
X128016000Y-66040000D03*
X125730000Y-64897000D03*
X125730000Y-67183000D03*
X128016000Y-64897000D03*
X125730000Y-66040000D03*
X128016000Y-63754001D03*
X128016000Y-67183000D03*
X128016000Y-69469000D03*
X128016000Y-68326000D03*
X125730000Y-68326000D03*
X128016000Y-95631000D03*
X128016000Y-94488000D03*
X128016000Y-92202000D03*
X128016000Y-93345000D03*
X128016000Y-88773000D03*
X128016000Y-87630001D03*
D12*
X122428000Y-91567000D03*
D14*
X125730000Y-88773000D03*
X125730000Y-91059000D03*
X125730000Y-89916000D03*
X125730000Y-92202000D03*
X125730000Y-94488000D03*
X126619000Y-97155000D03*
X124714000Y-94615000D03*
X125095000Y-97155000D03*
X128016000Y-97663000D03*
X123825000Y-94996000D03*
X122555000Y-97536000D03*
X123825000Y-97536000D03*
X130302000Y-92202000D03*
X130302000Y-95631000D03*
X130302000Y-91059000D03*
X130302000Y-89916000D03*
X128016000Y-89916000D03*
X128016000Y-91059000D03*
D12*
X116078000Y-79502000D03*
D13*
X116078000Y-82042000D03*
X116078000Y-84582000D03*
X116078000Y-87122000D03*
X116078000Y-89662000D03*
X116078000Y-92202000D03*
X116078000Y-94742000D03*
X116078000Y-97282000D03*
D14*
X105918000Y-94615000D03*
X105029000Y-94996000D03*
X111506000Y-91059000D03*
X111506000Y-92202000D03*
X106934000Y-94488000D03*
X109220000Y-94488000D03*
X109220000Y-93345000D03*
X107823000Y-97155000D03*
X105029000Y-97536000D03*
X103759000Y-97536000D03*
X106299000Y-97155000D03*
X109220000Y-95631000D03*
X111506000Y-95631000D03*
X109220000Y-97663000D03*
X109220000Y-91059000D03*
X109220000Y-92202000D03*
X109220000Y-89916000D03*
X109220000Y-88773000D03*
X111506000Y-89916000D03*
X109220000Y-87630001D03*
D12*
X103632000Y-91567000D03*
D14*
X106934000Y-92202000D03*
X106934000Y-89916000D03*
X106934000Y-91059000D03*
X106934000Y-88773000D03*
X105918000Y-70739000D03*
X105029000Y-71120000D03*
X103759000Y-73660000D03*
X105029000Y-73660000D03*
X106299000Y-73279000D03*
X107823000Y-73279000D03*
X109220000Y-73787000D03*
X106934000Y-64897000D03*
X106934000Y-66040000D03*
X106934000Y-67183000D03*
X106934000Y-68326000D03*
X106934000Y-70612000D03*
X111506000Y-71755000D03*
X111506000Y-68326000D03*
X111506000Y-67183000D03*
X111506000Y-66040000D03*
X109220000Y-71755000D03*
X109220000Y-70612000D03*
X109220000Y-69469000D03*
X109220000Y-68326000D03*
X109220000Y-63754001D03*
X109220000Y-64897000D03*
X109220000Y-66040000D03*
D12*
X103632000Y-67691000D03*
X116078000Y-55626000D03*
D13*
X116078000Y-58166000D03*
X116078000Y-60706000D03*
X116078000Y-63246000D03*
X116078000Y-65786000D03*
X116078000Y-68326000D03*
X116078000Y-70866000D03*
X116078000Y-73406000D03*
D14*
X109220000Y-67183000D03*
X166421500Y-81495500D03*
X164746500Y-83170500D03*
X166421500Y-83170500D03*
X164746500Y-81495500D03*
X164746500Y-59294500D03*
X166421500Y-57619500D03*
X166421500Y-59294500D03*
X164746500Y-57619500D03*
X147625500Y-57619500D03*
X145950500Y-57619500D03*
X147625500Y-59294500D03*
X145950500Y-59294500D03*
X145950500Y-81495500D03*
X147625500Y-83170500D03*
X145950500Y-83170500D03*
X147625500Y-81495500D03*
X128829500Y-83170500D03*
X127154500Y-83170500D03*
X128829500Y-81495500D03*
X127154500Y-81495500D03*
X127154500Y-59294500D03*
X128829500Y-57619500D03*
X128829500Y-59294500D03*
X127154500Y-57619500D03*
X108358500Y-83170500D03*
X110033500Y-81495500D03*
X108358500Y-81495500D03*
X110033500Y-83170500D03*
X110033500Y-59294500D03*
X108358500Y-59294500D03*
X108358500Y-57619500D03*
X110033500Y-57619500D03*
X165100000Y-78994000D03*
X165100000Y-55118000D03*
X146304000Y-55118000D03*
X146304000Y-78994000D03*
X127508000Y-78994000D03*
X127508000Y-55118000D03*
X108712000Y-78994000D03*
X108712000Y-55118000D03*
X169204884Y-79085846D03*
X169204884Y-55209846D03*
X150408884Y-55209846D03*
X150408884Y-79085846D03*
X131612884Y-79085846D03*
X131612884Y-55209846D03*
X112816884Y-79085846D03*
X112816884Y-55209846D03*
X168021000Y-79079797D03*
X168021000Y-55203797D03*
X149225000Y-55203797D03*
X149225000Y-79079797D03*
X130429000Y-79079797D03*
X130429000Y-55203797D03*
X111633000Y-79079797D03*
X111633000Y-55203797D03*
X168021000Y-79883000D03*
X168021000Y-56007000D03*
X149225000Y-56007000D03*
X149225000Y-79883000D03*
X130429000Y-79883000D03*
X130429000Y-56007000D03*
X111633000Y-79883000D03*
X111633000Y-56007000D03*
D15*
X172085000Y-84582000D02*
X169809685Y-82306685D01*
X169809685Y-82306685D02*
X169809685Y-78795541D01*
X169809685Y-78795541D02*
X169489140Y-78474996D01*
X165619004Y-78474996D02*
X165100000Y-78994000D01*
X169489140Y-78474996D02*
X165619004Y-78474996D01*
X165619004Y-54598996D02*
X165100000Y-55118000D01*
X169809685Y-54919541D02*
X169489140Y-54598996D01*
X169809685Y-58430685D02*
X169809685Y-54919541D01*
X169489140Y-54598996D02*
X165619004Y-54598996D01*
X172085000Y-60706000D02*
X169809685Y-58430685D01*
X153289000Y-60706000D02*
X151013685Y-58430685D01*
X151013685Y-54919541D02*
X150693140Y-54598996D01*
X146823004Y-54598996D02*
X146304000Y-55118000D01*
X151013685Y-58430685D02*
X151013685Y-54919541D01*
X150693140Y-54598996D02*
X146823004Y-54598996D01*
X151013685Y-78795541D02*
X150693140Y-78474996D01*
X150693140Y-78474996D02*
X146823004Y-78474996D01*
X146823004Y-78474996D02*
X146304000Y-78994000D01*
X153289000Y-84582000D02*
X151013685Y-82306685D01*
X151013685Y-82306685D02*
X151013685Y-78795541D01*
X128027004Y-54598996D02*
X127508000Y-55118000D01*
X132217685Y-58430685D02*
X132217685Y-54919541D01*
X134493000Y-60706000D02*
X132217685Y-58430685D01*
X132217685Y-54919541D02*
X131897140Y-54598996D01*
X131897140Y-54598996D02*
X128027004Y-54598996D01*
X134493000Y-84582000D02*
X132217685Y-82306685D01*
X132217685Y-78795541D02*
X131897140Y-78474996D01*
X132217685Y-82306685D02*
X132217685Y-78795541D01*
X131897140Y-78474996D02*
X128027004Y-78474996D01*
X128027004Y-78474996D02*
X127508000Y-78994000D01*
X113101140Y-78474996D02*
X109231004Y-78474996D01*
X113421685Y-82306685D02*
X113421685Y-78795541D01*
X113421685Y-78795541D02*
X113101140Y-78474996D01*
X109231004Y-78474996D02*
X108712000Y-78994000D01*
X115697000Y-84582000D02*
X113421685Y-82306685D01*
X115697000Y-60706000D02*
X113421685Y-58430685D01*
X113421685Y-58430685D02*
X113421685Y-54919541D01*
X113421685Y-54919541D02*
X113101140Y-54598996D01*
X113101140Y-54598996D02*
X109231004Y-54598996D01*
X109231004Y-54598996D02*
X108712000Y-55118000D01*
X168833820Y-81102180D02*
X168833820Y-83870820D01*
X169204884Y-79085846D02*
X169032211Y-79258519D01*
X168833820Y-83870820D02*
X172085000Y-87122000D01*
X169032211Y-79258519D02*
X169032211Y-80903789D01*
X169032211Y-80903789D02*
X168833820Y-81102180D01*
X168833820Y-59994820D02*
X172085000Y-63246000D01*
X169032211Y-55382519D02*
X169032211Y-57027789D01*
X169204884Y-55209846D02*
X169032211Y-55382519D01*
X169032211Y-57027789D02*
X168833820Y-57226180D01*
X168833820Y-57226180D02*
X168833820Y-59994820D01*
X150037820Y-59994820D02*
X153289000Y-63246000D01*
X150236211Y-55382519D02*
X150236211Y-57027789D01*
X150408884Y-55209846D02*
X150236211Y-55382519D01*
X150037820Y-57226180D02*
X150037820Y-59994820D01*
X150236211Y-57027789D02*
X150037820Y-57226180D01*
X150408884Y-79085846D02*
X150236211Y-79258519D01*
X150037820Y-83870820D02*
X153289000Y-87122000D01*
X150236211Y-79258519D02*
X150236211Y-80903789D01*
X150236211Y-80903789D02*
X150037820Y-81102180D01*
X150037820Y-81102180D02*
X150037820Y-83870820D01*
X131241820Y-57226180D02*
X131241820Y-59994820D01*
X131241820Y-59994820D02*
X134493000Y-63246000D01*
X131612884Y-55209846D02*
X131440211Y-55382519D01*
X131440211Y-57027789D02*
X131241820Y-57226180D01*
X131440211Y-55382519D02*
X131440211Y-57027789D01*
X131241820Y-81102180D02*
X131241820Y-83870820D01*
X131241820Y-83870820D02*
X134493000Y-87122000D01*
X131612884Y-79085846D02*
X131440211Y-79258519D01*
X131440211Y-79258519D02*
X131440211Y-80903789D01*
X131440211Y-80903789D02*
X131241820Y-81102180D01*
X112816884Y-79085846D02*
X112644211Y-79258519D01*
X112644211Y-79258519D02*
X112644211Y-80903789D01*
X112644211Y-80903789D02*
X112445820Y-81102180D01*
X112445820Y-83870820D02*
X115697000Y-87122000D01*
X112445820Y-81102180D02*
X112445820Y-83870820D01*
X112445820Y-57226180D02*
X112445820Y-59994820D01*
X112445820Y-59994820D02*
X115697000Y-63246000D01*
X112816884Y-55209846D02*
X112644211Y-55382519D01*
X112644211Y-55382519D02*
X112644211Y-57027789D01*
X112644211Y-57027789D02*
X112445820Y-57226180D01*
X168427410Y-86131410D02*
X168427410Y-80492590D01*
X169189410Y-86766410D02*
X172085000Y-89662000D01*
X169189410Y-86766410D02*
X169062410Y-86766410D01*
X169062410Y-86766410D02*
X168427410Y-86131410D01*
X168445264Y-79079797D02*
X168625801Y-79260334D01*
X168625801Y-79260334D02*
X168625801Y-80294199D01*
X168625801Y-80294199D02*
X168427410Y-80492590D01*
X168021000Y-79079797D02*
X168445264Y-79079797D01*
X169189410Y-62890410D02*
X172085000Y-65786000D01*
X168021000Y-55203797D02*
X168445264Y-55203797D01*
X168445264Y-55203797D02*
X168625801Y-55384334D01*
X168625801Y-55384334D02*
X168625801Y-56418199D01*
X169189410Y-62890410D02*
X169062410Y-62890410D01*
X168625801Y-56418199D02*
X168427410Y-56616590D01*
X168427410Y-62255410D02*
X168427410Y-56616590D01*
X169062410Y-62890410D02*
X168427410Y-62255410D01*
X150393410Y-62890410D02*
X153289000Y-65786000D01*
X149829801Y-55384334D02*
X149829801Y-56418199D01*
X149649264Y-55203797D02*
X149829801Y-55384334D01*
X149225000Y-55203797D02*
X149649264Y-55203797D01*
X149829801Y-56418199D02*
X149631410Y-56616590D01*
X150393410Y-62890410D02*
X150266410Y-62890410D01*
X149631410Y-62255410D02*
X149631410Y-56616590D01*
X150266410Y-62890410D02*
X149631410Y-62255410D01*
X149225000Y-79079797D02*
X149649264Y-79079797D01*
X149649264Y-79079797D02*
X149829801Y-79260334D01*
X149631410Y-86131410D02*
X149631410Y-80492590D01*
X149829801Y-80294199D02*
X149631410Y-80492590D01*
X150266410Y-86766410D02*
X149631410Y-86131410D01*
X150393410Y-86766410D02*
X150266410Y-86766410D01*
X150393410Y-86766410D02*
X153289000Y-89662000D01*
X149829801Y-79260334D02*
X149829801Y-80294199D01*
X130835410Y-62255410D02*
X130835410Y-56616590D01*
X131470410Y-62890410D02*
X130835410Y-62255410D01*
X131597410Y-62890410D02*
X131470410Y-62890410D01*
X131597410Y-62890410D02*
X134493000Y-65786000D01*
X130853264Y-55203797D02*
X131033801Y-55384334D01*
X131033801Y-55384334D02*
X131033801Y-56418199D01*
X131033801Y-56418199D02*
X130835410Y-56616590D01*
X130429000Y-55203797D02*
X130853264Y-55203797D01*
X131470410Y-86766410D02*
X130835410Y-86131410D01*
X131597410Y-86766410D02*
X134493000Y-89662000D01*
X131597410Y-86766410D02*
X131470410Y-86766410D01*
X130835410Y-86131410D02*
X130835410Y-80492590D01*
X130853264Y-79079797D02*
X131033801Y-79260334D01*
X131033801Y-80294199D02*
X130835410Y-80492590D01*
X131033801Y-79260334D02*
X131033801Y-80294199D01*
X130429000Y-79079797D02*
X130853264Y-79079797D01*
X112057264Y-79079797D02*
X112237801Y-79260334D01*
X112237801Y-79260334D02*
X112237801Y-80294199D01*
X112801410Y-86766410D02*
X115697000Y-89662000D01*
X111633000Y-79079797D02*
X112057264Y-79079797D01*
X112801410Y-86766410D02*
X112674410Y-86766410D01*
X112039410Y-86131410D02*
X112039410Y-80492590D01*
X112237801Y-80294199D02*
X112039410Y-80492590D01*
X112674410Y-86766410D02*
X112039410Y-86131410D01*
X112039410Y-62255410D02*
X112039410Y-56616590D01*
X112801410Y-62890410D02*
X112674410Y-62890410D01*
X112674410Y-62890410D02*
X112039410Y-62255410D01*
X112801410Y-62890410D02*
X115697000Y-65786000D01*
X111633000Y-55203797D02*
X112057264Y-55203797D01*
X112057264Y-55203797D02*
X112237801Y-55384334D01*
X112237801Y-55384334D02*
X112237801Y-56418199D01*
X112237801Y-56418199D02*
X112039410Y-56616590D01*
X168021000Y-88138000D02*
X168021000Y-80010000D01*
X172085000Y-92202000D02*
X168021000Y-88138000D01*
X168021000Y-80010000D02*
X168021000Y-79883000D01*
X168021000Y-64262000D02*
X168021000Y-56134000D01*
X172085000Y-68326000D02*
X168021000Y-64262000D01*
X168021000Y-56134000D02*
X168021000Y-56007000D01*
X149225000Y-64262000D02*
X149225000Y-56134000D01*
X153289000Y-68326000D02*
X149225000Y-64262000D01*
X149225000Y-56134000D02*
X149225000Y-56007000D01*
X149225000Y-80010000D02*
X149225000Y-79883000D01*
X149225000Y-88138000D02*
X149225000Y-80010000D01*
X153289000Y-92202000D02*
X149225000Y-88138000D01*
X130429000Y-64262000D02*
X130429000Y-56134000D01*
X134493000Y-68326000D02*
X130429000Y-64262000D01*
X130429000Y-56134000D02*
X130429000Y-56007000D01*
X130429000Y-88138000D02*
X130429000Y-80010000D01*
X134493000Y-92202000D02*
X130429000Y-88138000D01*
X130429000Y-80010000D02*
X130429000Y-79883000D01*
X115697000Y-92202000D02*
X111633000Y-88138000D01*
X111633000Y-88138000D02*
X111633000Y-80010000D01*
X111633000Y-80010000D02*
X111633000Y-79883000D01*
X111633000Y-56134000D02*
X111633000Y-56007000D01*
X111633000Y-64262000D02*
X111633000Y-56134000D01*
X115697000Y-68326000D02*
X111633000Y-64262000D01*
D16*
G36*
X117552400Y-74880400D02*
X101903600Y-74880400D01*
X101903600Y-73406000D01*
X114978269Y-73406000D01*
X115060373Y-73818762D01*
X115294184Y-74168685D01*
X115644107Y-74402496D01*
X116056869Y-74484600D01*
X116099131Y-74484600D01*
X116511893Y-74402496D01*
X116861816Y-74168685D01*
X117095627Y-73818762D01*
X117177731Y-73406000D01*
X117095627Y-72993238D01*
X116861816Y-72643315D01*
X116511893Y-72409504D01*
X116099131Y-72327400D01*
X116056869Y-72327400D01*
X115644107Y-72409504D01*
X115294184Y-72643315D01*
X115060373Y-72993238D01*
X114978269Y-73406000D01*
X101903600Y-73406000D01*
X101903600Y-70866000D01*
X114978269Y-70866000D01*
X115060373Y-71278762D01*
X115294184Y-71628685D01*
X115644107Y-71862496D01*
X116056869Y-71944600D01*
X116099131Y-71944600D01*
X116511893Y-71862496D01*
X116861816Y-71628685D01*
X117095627Y-71278762D01*
X117177731Y-70866000D01*
X117095627Y-70453238D01*
X116861816Y-70103315D01*
X116511893Y-69869504D01*
X116099131Y-69787400D01*
X116056869Y-69787400D01*
X115644107Y-69869504D01*
X115294184Y-70103315D01*
X115060373Y-70453238D01*
X114978269Y-70866000D01*
X101903600Y-70866000D01*
X101903600Y-66841000D01*
X102548922Y-66841000D01*
X102548922Y-68541000D01*
X102564862Y-68625714D01*
X102614928Y-68703518D01*
X102691320Y-68755715D01*
X102782000Y-68774078D01*
X104482000Y-68774078D01*
X104566714Y-68758138D01*
X104644518Y-68708072D01*
X104696715Y-68631680D01*
X104715078Y-68541000D01*
X104715078Y-66841000D01*
X104699138Y-66756286D01*
X104649072Y-66678482D01*
X104572680Y-66626285D01*
X104482000Y-66607922D01*
X102782000Y-66607922D01*
X102697286Y-66623862D01*
X102619482Y-66673928D01*
X102567285Y-66750320D01*
X102548922Y-66841000D01*
X101903600Y-66841000D01*
X101903600Y-60612743D01*
X104665100Y-60612743D01*
X104665100Y-55222684D01*
X108183308Y-55222684D01*
X108263613Y-55417037D01*
X108412181Y-55565864D01*
X108606394Y-55646508D01*
X108816684Y-55646692D01*
X109011037Y-55566387D01*
X109159864Y-55417819D01*
X109240508Y-55223606D01*
X109240654Y-55056319D01*
X109367777Y-54929196D01*
X111174665Y-54929196D01*
X111104492Y-55098191D01*
X111104308Y-55308481D01*
X111184613Y-55502834D01*
X111287047Y-55605447D01*
X111185136Y-55707181D01*
X111104492Y-55901394D01*
X111104308Y-56111684D01*
X111184613Y-56306037D01*
X111302800Y-56424430D01*
X111302800Y-64262000D01*
X111327935Y-64388362D01*
X111399513Y-64495487D01*
X115020038Y-68116012D01*
X114978269Y-68326000D01*
X115060373Y-68738762D01*
X115294184Y-69088685D01*
X115644107Y-69322496D01*
X116056869Y-69404600D01*
X116099131Y-69404600D01*
X116511893Y-69322496D01*
X116861816Y-69088685D01*
X117095627Y-68738762D01*
X117177731Y-68326000D01*
X117095627Y-67913238D01*
X116861816Y-67563315D01*
X116511893Y-67329504D01*
X116099131Y-67247400D01*
X116056869Y-67247400D01*
X115644107Y-67329504D01*
X115358389Y-67520415D01*
X111963200Y-64125226D01*
X111963200Y-62646174D01*
X112440921Y-63123894D01*
X112440923Y-63123897D01*
X112548048Y-63195475D01*
X112662210Y-63218184D01*
X115020039Y-65576012D01*
X114978269Y-65786000D01*
X115060373Y-66198762D01*
X115294184Y-66548685D01*
X115644107Y-66782496D01*
X116056869Y-66864600D01*
X116099131Y-66864600D01*
X116511893Y-66782496D01*
X116861816Y-66548685D01*
X117095627Y-66198762D01*
X117177731Y-65786000D01*
X117095627Y-65373238D01*
X116861816Y-65023315D01*
X116511893Y-64789504D01*
X116099131Y-64707400D01*
X116056869Y-64707400D01*
X115644107Y-64789504D01*
X115358388Y-64980415D01*
X113034897Y-62656923D01*
X112927772Y-62585345D01*
X112813610Y-62562637D01*
X112369610Y-62118636D01*
X112369610Y-60385584D01*
X115020038Y-63036012D01*
X114978269Y-63246000D01*
X115060373Y-63658762D01*
X115294184Y-64008685D01*
X115644107Y-64242496D01*
X116056869Y-64324600D01*
X116099131Y-64324600D01*
X116511893Y-64242496D01*
X116861816Y-64008685D01*
X117095627Y-63658762D01*
X117177731Y-63246000D01*
X117095627Y-62833238D01*
X116861816Y-62483315D01*
X116511893Y-62249504D01*
X116099131Y-62167400D01*
X116056869Y-62167400D01*
X115644107Y-62249504D01*
X115358389Y-62440415D01*
X112776020Y-59858046D01*
X112776020Y-57362954D01*
X112877695Y-57261278D01*
X112877698Y-57261276D01*
X112949276Y-57154151D01*
X112974411Y-57027789D01*
X112974411Y-55716704D01*
X113091485Y-55668330D01*
X113091485Y-58430685D01*
X113116620Y-58557047D01*
X113188198Y-58664172D01*
X115020039Y-60496012D01*
X114978269Y-60706000D01*
X115060373Y-61118762D01*
X115294184Y-61468685D01*
X115644107Y-61702496D01*
X116056869Y-61784600D01*
X116099131Y-61784600D01*
X116511893Y-61702496D01*
X116861816Y-61468685D01*
X117095627Y-61118762D01*
X117177731Y-60706000D01*
X117095627Y-60293238D01*
X116861816Y-59943315D01*
X116511893Y-59709504D01*
X116099131Y-59627400D01*
X116056869Y-59627400D01*
X115644107Y-59709504D01*
X115358388Y-59900415D01*
X113966007Y-58508033D01*
X115055068Y-58508033D01*
X115112809Y-58647480D01*
X115370534Y-58980192D01*
X115735964Y-59188951D01*
X115900200Y-59172713D01*
X115900200Y-58343800D01*
X116255800Y-58343800D01*
X116255800Y-59172713D01*
X116420036Y-59188951D01*
X116785466Y-58980192D01*
X117043191Y-58647480D01*
X117100932Y-58508033D01*
X117083856Y-58343800D01*
X116255800Y-58343800D01*
X115900200Y-58343800D01*
X115072144Y-58343800D01*
X115055068Y-58508033D01*
X113966007Y-58508033D01*
X113751885Y-58293911D01*
X113751885Y-57823967D01*
X115055068Y-57823967D01*
X115072144Y-57988200D01*
X115900200Y-57988200D01*
X115900200Y-57159287D01*
X116255800Y-57159287D01*
X116255800Y-57988200D01*
X117083856Y-57988200D01*
X117100932Y-57823967D01*
X117043191Y-57684520D01*
X116785466Y-57351808D01*
X116420036Y-57143049D01*
X116255800Y-57159287D01*
X115900200Y-57159287D01*
X115735964Y-57143049D01*
X115370534Y-57351808D01*
X115112809Y-57684520D01*
X115055068Y-57823967D01*
X113751885Y-57823967D01*
X113751885Y-54919541D01*
X113726750Y-54793179D01*
X113715272Y-54776000D01*
X114994922Y-54776000D01*
X114994922Y-56476000D01*
X115010862Y-56560714D01*
X115060928Y-56638518D01*
X115137320Y-56690715D01*
X115228000Y-56709078D01*
X116928000Y-56709078D01*
X117012714Y-56693138D01*
X117090518Y-56643072D01*
X117142715Y-56566680D01*
X117161078Y-56476000D01*
X117161078Y-54776000D01*
X117145138Y-54691286D01*
X117095072Y-54613482D01*
X117018680Y-54561285D01*
X116928000Y-54542922D01*
X115228000Y-54542922D01*
X115143286Y-54558862D01*
X115065482Y-54608928D01*
X115013285Y-54685320D01*
X114994922Y-54776000D01*
X113715272Y-54776000D01*
X113655172Y-54686054D01*
X113334627Y-54365509D01*
X113227502Y-54293931D01*
X113101140Y-54268796D01*
X109231004Y-54268796D01*
X109104642Y-54293931D01*
X108997517Y-54365509D01*
X108997515Y-54365512D01*
X108773573Y-54589453D01*
X108607316Y-54589308D01*
X108412963Y-54669613D01*
X108264136Y-54818181D01*
X108183492Y-55012394D01*
X108183308Y-55222684D01*
X104665100Y-55222684D01*
X104665100Y-54151600D01*
X117552400Y-54151600D01*
X117552400Y-74880400D01*
X117552400Y-74880400D01*
G37*
X117552400Y-74880400D02*
X101903600Y-74880400D01*
X101903600Y-73406000D01*
X114978269Y-73406000D01*
X115060373Y-73818762D01*
X115294184Y-74168685D01*
X115644107Y-74402496D01*
X116056869Y-74484600D01*
X116099131Y-74484600D01*
X116511893Y-74402496D01*
X116861816Y-74168685D01*
X117095627Y-73818762D01*
X117177731Y-73406000D01*
X117095627Y-72993238D01*
X116861816Y-72643315D01*
X116511893Y-72409504D01*
X116099131Y-72327400D01*
X116056869Y-72327400D01*
X115644107Y-72409504D01*
X115294184Y-72643315D01*
X115060373Y-72993238D01*
X114978269Y-73406000D01*
X101903600Y-73406000D01*
X101903600Y-70866000D01*
X114978269Y-70866000D01*
X115060373Y-71278762D01*
X115294184Y-71628685D01*
X115644107Y-71862496D01*
X116056869Y-71944600D01*
X116099131Y-71944600D01*
X116511893Y-71862496D01*
X116861816Y-71628685D01*
X117095627Y-71278762D01*
X117177731Y-70866000D01*
X117095627Y-70453238D01*
X116861816Y-70103315D01*
X116511893Y-69869504D01*
X116099131Y-69787400D01*
X116056869Y-69787400D01*
X115644107Y-69869504D01*
X115294184Y-70103315D01*
X115060373Y-70453238D01*
X114978269Y-70866000D01*
X101903600Y-70866000D01*
X101903600Y-66841000D01*
X102548922Y-66841000D01*
X102548922Y-68541000D01*
X102564862Y-68625714D01*
X102614928Y-68703518D01*
X102691320Y-68755715D01*
X102782000Y-68774078D01*
X104482000Y-68774078D01*
X104566714Y-68758138D01*
X104644518Y-68708072D01*
X104696715Y-68631680D01*
X104715078Y-68541000D01*
X104715078Y-66841000D01*
X104699138Y-66756286D01*
X104649072Y-66678482D01*
X104572680Y-66626285D01*
X104482000Y-66607922D01*
X102782000Y-66607922D01*
X102697286Y-66623862D01*
X102619482Y-66673928D01*
X102567285Y-66750320D01*
X102548922Y-66841000D01*
X101903600Y-66841000D01*
X101903600Y-60612743D01*
X104665100Y-60612743D01*
X104665100Y-55222684D01*
X108183308Y-55222684D01*
X108263613Y-55417037D01*
X108412181Y-55565864D01*
X108606394Y-55646508D01*
X108816684Y-55646692D01*
X109011037Y-55566387D01*
X109159864Y-55417819D01*
X109240508Y-55223606D01*
X109240654Y-55056319D01*
X109367777Y-54929196D01*
X111174665Y-54929196D01*
X111104492Y-55098191D01*
X111104308Y-55308481D01*
X111184613Y-55502834D01*
X111287047Y-55605447D01*
X111185136Y-55707181D01*
X111104492Y-55901394D01*
X111104308Y-56111684D01*
X111184613Y-56306037D01*
X111302800Y-56424430D01*
X111302800Y-64262000D01*
X111327935Y-64388362D01*
X111399513Y-64495487D01*
X115020038Y-68116012D01*
X114978269Y-68326000D01*
X115060373Y-68738762D01*
X115294184Y-69088685D01*
X115644107Y-69322496D01*
X116056869Y-69404600D01*
X116099131Y-69404600D01*
X116511893Y-69322496D01*
X116861816Y-69088685D01*
X117095627Y-68738762D01*
X117177731Y-68326000D01*
X117095627Y-67913238D01*
X116861816Y-67563315D01*
X116511893Y-67329504D01*
X116099131Y-67247400D01*
X116056869Y-67247400D01*
X115644107Y-67329504D01*
X115358389Y-67520415D01*
X111963200Y-64125226D01*
X111963200Y-62646174D01*
X112440921Y-63123894D01*
X112440923Y-63123897D01*
X112548048Y-63195475D01*
X112662210Y-63218184D01*
X115020039Y-65576012D01*
X114978269Y-65786000D01*
X115060373Y-66198762D01*
X115294184Y-66548685D01*
X115644107Y-66782496D01*
X116056869Y-66864600D01*
X116099131Y-66864600D01*
X116511893Y-66782496D01*
X116861816Y-66548685D01*
X117095627Y-66198762D01*
X117177731Y-65786000D01*
X117095627Y-65373238D01*
X116861816Y-65023315D01*
X116511893Y-64789504D01*
X116099131Y-64707400D01*
X116056869Y-64707400D01*
X115644107Y-64789504D01*
X115358388Y-64980415D01*
X113034897Y-62656923D01*
X112927772Y-62585345D01*
X112813610Y-62562637D01*
X112369610Y-62118636D01*
X112369610Y-60385584D01*
X115020038Y-63036012D01*
X114978269Y-63246000D01*
X115060373Y-63658762D01*
X115294184Y-64008685D01*
X115644107Y-64242496D01*
X116056869Y-64324600D01*
X116099131Y-64324600D01*
X116511893Y-64242496D01*
X116861816Y-64008685D01*
X117095627Y-63658762D01*
X117177731Y-63246000D01*
X117095627Y-62833238D01*
X116861816Y-62483315D01*
X116511893Y-62249504D01*
X116099131Y-62167400D01*
X116056869Y-62167400D01*
X115644107Y-62249504D01*
X115358389Y-62440415D01*
X112776020Y-59858046D01*
X112776020Y-57362954D01*
X112877695Y-57261278D01*
X112877698Y-57261276D01*
X112949276Y-57154151D01*
X112974411Y-57027789D01*
X112974411Y-55716704D01*
X113091485Y-55668330D01*
X113091485Y-58430685D01*
X113116620Y-58557047D01*
X113188198Y-58664172D01*
X115020039Y-60496012D01*
X114978269Y-60706000D01*
X115060373Y-61118762D01*
X115294184Y-61468685D01*
X115644107Y-61702496D01*
X116056869Y-61784600D01*
X116099131Y-61784600D01*
X116511893Y-61702496D01*
X116861816Y-61468685D01*
X117095627Y-61118762D01*
X117177731Y-60706000D01*
X117095627Y-60293238D01*
X116861816Y-59943315D01*
X116511893Y-59709504D01*
X116099131Y-59627400D01*
X116056869Y-59627400D01*
X115644107Y-59709504D01*
X115358388Y-59900415D01*
X113966007Y-58508033D01*
X115055068Y-58508033D01*
X115112809Y-58647480D01*
X115370534Y-58980192D01*
X115735964Y-59188951D01*
X115900200Y-59172713D01*
X115900200Y-58343800D01*
X116255800Y-58343800D01*
X116255800Y-59172713D01*
X116420036Y-59188951D01*
X116785466Y-58980192D01*
X117043191Y-58647480D01*
X117100932Y-58508033D01*
X117083856Y-58343800D01*
X116255800Y-58343800D01*
X115900200Y-58343800D01*
X115072144Y-58343800D01*
X115055068Y-58508033D01*
X113966007Y-58508033D01*
X113751885Y-58293911D01*
X113751885Y-57823967D01*
X115055068Y-57823967D01*
X115072144Y-57988200D01*
X115900200Y-57988200D01*
X115900200Y-57159287D01*
X116255800Y-57159287D01*
X116255800Y-57988200D01*
X117083856Y-57988200D01*
X117100932Y-57823967D01*
X117043191Y-57684520D01*
X116785466Y-57351808D01*
X116420036Y-57143049D01*
X116255800Y-57159287D01*
X115900200Y-57159287D01*
X115735964Y-57143049D01*
X115370534Y-57351808D01*
X115112809Y-57684520D01*
X115055068Y-57823967D01*
X113751885Y-57823967D01*
X113751885Y-54919541D01*
X113726750Y-54793179D01*
X113715272Y-54776000D01*
X114994922Y-54776000D01*
X114994922Y-56476000D01*
X115010862Y-56560714D01*
X115060928Y-56638518D01*
X115137320Y-56690715D01*
X115228000Y-56709078D01*
X116928000Y-56709078D01*
X117012714Y-56693138D01*
X117090518Y-56643072D01*
X117142715Y-56566680D01*
X117161078Y-56476000D01*
X117161078Y-54776000D01*
X117145138Y-54691286D01*
X117095072Y-54613482D01*
X117018680Y-54561285D01*
X116928000Y-54542922D01*
X115228000Y-54542922D01*
X115143286Y-54558862D01*
X115065482Y-54608928D01*
X115013285Y-54685320D01*
X114994922Y-54776000D01*
X113715272Y-54776000D01*
X113655172Y-54686054D01*
X113334627Y-54365509D01*
X113227502Y-54293931D01*
X113101140Y-54268796D01*
X109231004Y-54268796D01*
X109104642Y-54293931D01*
X108997517Y-54365509D01*
X108997515Y-54365512D01*
X108773573Y-54589453D01*
X108607316Y-54589308D01*
X108412963Y-54669613D01*
X108264136Y-54818181D01*
X108183492Y-55012394D01*
X108183308Y-55222684D01*
X104665100Y-55222684D01*
X104665100Y-54151600D01*
X117552400Y-54151600D01*
X117552400Y-74880400D01*
G36*
X117552400Y-98756400D02*
X101903600Y-98756400D01*
X101903600Y-97282000D01*
X114978269Y-97282000D01*
X115060373Y-97694762D01*
X115294184Y-98044685D01*
X115644107Y-98278496D01*
X116056869Y-98360600D01*
X116099131Y-98360600D01*
X116511893Y-98278496D01*
X116861816Y-98044685D01*
X117095627Y-97694762D01*
X117177731Y-97282000D01*
X117095627Y-96869238D01*
X116861816Y-96519315D01*
X116511893Y-96285504D01*
X116099131Y-96203400D01*
X116056869Y-96203400D01*
X115644107Y-96285504D01*
X115294184Y-96519315D01*
X115060373Y-96869238D01*
X114978269Y-97282000D01*
X101903600Y-97282000D01*
X101903600Y-94742000D01*
X114978269Y-94742000D01*
X115060373Y-95154762D01*
X115294184Y-95504685D01*
X115644107Y-95738496D01*
X116056869Y-95820600D01*
X116099131Y-95820600D01*
X116511893Y-95738496D01*
X116861816Y-95504685D01*
X117095627Y-95154762D01*
X117177731Y-94742000D01*
X117095627Y-94329238D01*
X116861816Y-93979315D01*
X116511893Y-93745504D01*
X116099131Y-93663400D01*
X116056869Y-93663400D01*
X115644107Y-93745504D01*
X115294184Y-93979315D01*
X115060373Y-94329238D01*
X114978269Y-94742000D01*
X101903600Y-94742000D01*
X101903600Y-90717000D01*
X102548922Y-90717000D01*
X102548922Y-92417000D01*
X102564862Y-92501714D01*
X102614928Y-92579518D01*
X102691320Y-92631715D01*
X102782000Y-92650078D01*
X104482000Y-92650078D01*
X104566714Y-92634138D01*
X104644518Y-92584072D01*
X104696715Y-92507680D01*
X104715078Y-92417000D01*
X104715078Y-90717000D01*
X104699138Y-90632286D01*
X104649072Y-90554482D01*
X104572680Y-90502285D01*
X104482000Y-90483922D01*
X102782000Y-90483922D01*
X102697286Y-90499862D01*
X102619482Y-90549928D01*
X102567285Y-90626320D01*
X102548922Y-90717000D01*
X101903600Y-90717000D01*
X101903600Y-84488743D01*
X104665100Y-84488743D01*
X104665100Y-79098684D01*
X108183308Y-79098684D01*
X108263613Y-79293037D01*
X108412181Y-79441864D01*
X108606394Y-79522508D01*
X108816684Y-79522692D01*
X109011037Y-79442387D01*
X109159864Y-79293819D01*
X109240508Y-79099606D01*
X109240654Y-78932319D01*
X109367777Y-78805196D01*
X111174665Y-78805196D01*
X111104492Y-78974191D01*
X111104308Y-79184481D01*
X111184613Y-79378834D01*
X111287047Y-79481447D01*
X111185136Y-79583181D01*
X111104492Y-79777394D01*
X111104308Y-79987684D01*
X111184613Y-80182037D01*
X111302800Y-80300430D01*
X111302800Y-88138000D01*
X111327935Y-88264362D01*
X111399513Y-88371487D01*
X115020038Y-91992012D01*
X114978269Y-92202000D01*
X115060373Y-92614762D01*
X115294184Y-92964685D01*
X115644107Y-93198496D01*
X116056869Y-93280600D01*
X116099131Y-93280600D01*
X116511893Y-93198496D01*
X116861816Y-92964685D01*
X117095627Y-92614762D01*
X117177731Y-92202000D01*
X117095627Y-91789238D01*
X116861816Y-91439315D01*
X116511893Y-91205504D01*
X116099131Y-91123400D01*
X116056869Y-91123400D01*
X115644107Y-91205504D01*
X115358389Y-91396415D01*
X111963200Y-88001226D01*
X111963200Y-86522174D01*
X112440921Y-86999894D01*
X112440923Y-86999897D01*
X112548048Y-87071475D01*
X112662210Y-87094184D01*
X115020039Y-89452012D01*
X114978269Y-89662000D01*
X115060373Y-90074762D01*
X115294184Y-90424685D01*
X115644107Y-90658496D01*
X116056869Y-90740600D01*
X116099131Y-90740600D01*
X116511893Y-90658496D01*
X116861816Y-90424685D01*
X117095627Y-90074762D01*
X117177731Y-89662000D01*
X117095627Y-89249238D01*
X116861816Y-88899315D01*
X116511893Y-88665504D01*
X116099131Y-88583400D01*
X116056869Y-88583400D01*
X115644107Y-88665504D01*
X115358388Y-88856415D01*
X113034897Y-86532923D01*
X112927772Y-86461345D01*
X112813610Y-86438637D01*
X112369610Y-85994636D01*
X112369610Y-84261584D01*
X115020038Y-86912012D01*
X114978269Y-87122000D01*
X115060373Y-87534762D01*
X115294184Y-87884685D01*
X115644107Y-88118496D01*
X116056869Y-88200600D01*
X116099131Y-88200600D01*
X116511893Y-88118496D01*
X116861816Y-87884685D01*
X117095627Y-87534762D01*
X117177731Y-87122000D01*
X117095627Y-86709238D01*
X116861816Y-86359315D01*
X116511893Y-86125504D01*
X116099131Y-86043400D01*
X116056869Y-86043400D01*
X115644107Y-86125504D01*
X115358389Y-86316415D01*
X112776020Y-83734046D01*
X112776020Y-81238954D01*
X112877695Y-81137278D01*
X112877698Y-81137276D01*
X112949276Y-81030151D01*
X112974411Y-80903789D01*
X112974411Y-79592704D01*
X113091485Y-79544330D01*
X113091485Y-82306685D01*
X113116620Y-82433047D01*
X113188198Y-82540172D01*
X115020039Y-84372012D01*
X114978269Y-84582000D01*
X115060373Y-84994762D01*
X115294184Y-85344685D01*
X115644107Y-85578496D01*
X116056869Y-85660600D01*
X116099131Y-85660600D01*
X116511893Y-85578496D01*
X116861816Y-85344685D01*
X117095627Y-84994762D01*
X117177731Y-84582000D01*
X117095627Y-84169238D01*
X116861816Y-83819315D01*
X116511893Y-83585504D01*
X116099131Y-83503400D01*
X116056869Y-83503400D01*
X115644107Y-83585504D01*
X115358388Y-83776415D01*
X113966007Y-82384033D01*
X115055068Y-82384033D01*
X115112809Y-82523480D01*
X115370534Y-82856192D01*
X115735964Y-83064951D01*
X115900200Y-83048713D01*
X115900200Y-82219800D01*
X116255800Y-82219800D01*
X116255800Y-83048713D01*
X116420036Y-83064951D01*
X116785466Y-82856192D01*
X117043191Y-82523480D01*
X117100932Y-82384033D01*
X117083856Y-82219800D01*
X116255800Y-82219800D01*
X115900200Y-82219800D01*
X115072144Y-82219800D01*
X115055068Y-82384033D01*
X113966007Y-82384033D01*
X113751885Y-82169911D01*
X113751885Y-81699967D01*
X115055068Y-81699967D01*
X115072144Y-81864200D01*
X115900200Y-81864200D01*
X115900200Y-81035287D01*
X116255800Y-81035287D01*
X116255800Y-81864200D01*
X117083856Y-81864200D01*
X117100932Y-81699967D01*
X117043191Y-81560520D01*
X116785466Y-81227808D01*
X116420036Y-81019049D01*
X116255800Y-81035287D01*
X115900200Y-81035287D01*
X115735964Y-81019049D01*
X115370534Y-81227808D01*
X115112809Y-81560520D01*
X115055068Y-81699967D01*
X113751885Y-81699967D01*
X113751885Y-78795541D01*
X113726750Y-78669179D01*
X113715272Y-78652000D01*
X114994922Y-78652000D01*
X114994922Y-80352000D01*
X115010862Y-80436714D01*
X115060928Y-80514518D01*
X115137320Y-80566715D01*
X115228000Y-80585078D01*
X116928000Y-80585078D01*
X117012714Y-80569138D01*
X117090518Y-80519072D01*
X117142715Y-80442680D01*
X117161078Y-80352000D01*
X117161078Y-78652000D01*
X117145138Y-78567286D01*
X117095072Y-78489482D01*
X117018680Y-78437285D01*
X116928000Y-78418922D01*
X115228000Y-78418922D01*
X115143286Y-78434862D01*
X115065482Y-78484928D01*
X115013285Y-78561320D01*
X114994922Y-78652000D01*
X113715272Y-78652000D01*
X113655172Y-78562054D01*
X113334627Y-78241509D01*
X113227502Y-78169931D01*
X113101140Y-78144796D01*
X109231004Y-78144796D01*
X109104642Y-78169931D01*
X108997517Y-78241509D01*
X108997515Y-78241512D01*
X108773573Y-78465453D01*
X108607316Y-78465308D01*
X108412963Y-78545613D01*
X108264136Y-78694181D01*
X108183492Y-78888394D01*
X108183308Y-79098684D01*
X104665100Y-79098684D01*
X104665100Y-78027600D01*
X117552400Y-78027600D01*
X117552400Y-98756400D01*
X117552400Y-98756400D01*
G37*
X117552400Y-98756400D02*
X101903600Y-98756400D01*
X101903600Y-97282000D01*
X114978269Y-97282000D01*
X115060373Y-97694762D01*
X115294184Y-98044685D01*
X115644107Y-98278496D01*
X116056869Y-98360600D01*
X116099131Y-98360600D01*
X116511893Y-98278496D01*
X116861816Y-98044685D01*
X117095627Y-97694762D01*
X117177731Y-97282000D01*
X117095627Y-96869238D01*
X116861816Y-96519315D01*
X116511893Y-96285504D01*
X116099131Y-96203400D01*
X116056869Y-96203400D01*
X115644107Y-96285504D01*
X115294184Y-96519315D01*
X115060373Y-96869238D01*
X114978269Y-97282000D01*
X101903600Y-97282000D01*
X101903600Y-94742000D01*
X114978269Y-94742000D01*
X115060373Y-95154762D01*
X115294184Y-95504685D01*
X115644107Y-95738496D01*
X116056869Y-95820600D01*
X116099131Y-95820600D01*
X116511893Y-95738496D01*
X116861816Y-95504685D01*
X117095627Y-95154762D01*
X117177731Y-94742000D01*
X117095627Y-94329238D01*
X116861816Y-93979315D01*
X116511893Y-93745504D01*
X116099131Y-93663400D01*
X116056869Y-93663400D01*
X115644107Y-93745504D01*
X115294184Y-93979315D01*
X115060373Y-94329238D01*
X114978269Y-94742000D01*
X101903600Y-94742000D01*
X101903600Y-90717000D01*
X102548922Y-90717000D01*
X102548922Y-92417000D01*
X102564862Y-92501714D01*
X102614928Y-92579518D01*
X102691320Y-92631715D01*
X102782000Y-92650078D01*
X104482000Y-92650078D01*
X104566714Y-92634138D01*
X104644518Y-92584072D01*
X104696715Y-92507680D01*
X104715078Y-92417000D01*
X104715078Y-90717000D01*
X104699138Y-90632286D01*
X104649072Y-90554482D01*
X104572680Y-90502285D01*
X104482000Y-90483922D01*
X102782000Y-90483922D01*
X102697286Y-90499862D01*
X102619482Y-90549928D01*
X102567285Y-90626320D01*
X102548922Y-90717000D01*
X101903600Y-90717000D01*
X101903600Y-84488743D01*
X104665100Y-84488743D01*
X104665100Y-79098684D01*
X108183308Y-79098684D01*
X108263613Y-79293037D01*
X108412181Y-79441864D01*
X108606394Y-79522508D01*
X108816684Y-79522692D01*
X109011037Y-79442387D01*
X109159864Y-79293819D01*
X109240508Y-79099606D01*
X109240654Y-78932319D01*
X109367777Y-78805196D01*
X111174665Y-78805196D01*
X111104492Y-78974191D01*
X111104308Y-79184481D01*
X111184613Y-79378834D01*
X111287047Y-79481447D01*
X111185136Y-79583181D01*
X111104492Y-79777394D01*
X111104308Y-79987684D01*
X111184613Y-80182037D01*
X111302800Y-80300430D01*
X111302800Y-88138000D01*
X111327935Y-88264362D01*
X111399513Y-88371487D01*
X115020038Y-91992012D01*
X114978269Y-92202000D01*
X115060373Y-92614762D01*
X115294184Y-92964685D01*
X115644107Y-93198496D01*
X116056869Y-93280600D01*
X116099131Y-93280600D01*
X116511893Y-93198496D01*
X116861816Y-92964685D01*
X117095627Y-92614762D01*
X117177731Y-92202000D01*
X117095627Y-91789238D01*
X116861816Y-91439315D01*
X116511893Y-91205504D01*
X116099131Y-91123400D01*
X116056869Y-91123400D01*
X115644107Y-91205504D01*
X115358389Y-91396415D01*
X111963200Y-88001226D01*
X111963200Y-86522174D01*
X112440921Y-86999894D01*
X112440923Y-86999897D01*
X112548048Y-87071475D01*
X112662210Y-87094184D01*
X115020039Y-89452012D01*
X114978269Y-89662000D01*
X115060373Y-90074762D01*
X115294184Y-90424685D01*
X115644107Y-90658496D01*
X116056869Y-90740600D01*
X116099131Y-90740600D01*
X116511893Y-90658496D01*
X116861816Y-90424685D01*
X117095627Y-90074762D01*
X117177731Y-89662000D01*
X117095627Y-89249238D01*
X116861816Y-88899315D01*
X116511893Y-88665504D01*
X116099131Y-88583400D01*
X116056869Y-88583400D01*
X115644107Y-88665504D01*
X115358388Y-88856415D01*
X113034897Y-86532923D01*
X112927772Y-86461345D01*
X112813610Y-86438637D01*
X112369610Y-85994636D01*
X112369610Y-84261584D01*
X115020038Y-86912012D01*
X114978269Y-87122000D01*
X115060373Y-87534762D01*
X115294184Y-87884685D01*
X115644107Y-88118496D01*
X116056869Y-88200600D01*
X116099131Y-88200600D01*
X116511893Y-88118496D01*
X116861816Y-87884685D01*
X117095627Y-87534762D01*
X117177731Y-87122000D01*
X117095627Y-86709238D01*
X116861816Y-86359315D01*
X116511893Y-86125504D01*
X116099131Y-86043400D01*
X116056869Y-86043400D01*
X115644107Y-86125504D01*
X115358389Y-86316415D01*
X112776020Y-83734046D01*
X112776020Y-81238954D01*
X112877695Y-81137278D01*
X112877698Y-81137276D01*
X112949276Y-81030151D01*
X112974411Y-80903789D01*
X112974411Y-79592704D01*
X113091485Y-79544330D01*
X113091485Y-82306685D01*
X113116620Y-82433047D01*
X113188198Y-82540172D01*
X115020039Y-84372012D01*
X114978269Y-84582000D01*
X115060373Y-84994762D01*
X115294184Y-85344685D01*
X115644107Y-85578496D01*
X116056869Y-85660600D01*
X116099131Y-85660600D01*
X116511893Y-85578496D01*
X116861816Y-85344685D01*
X117095627Y-84994762D01*
X117177731Y-84582000D01*
X117095627Y-84169238D01*
X116861816Y-83819315D01*
X116511893Y-83585504D01*
X116099131Y-83503400D01*
X116056869Y-83503400D01*
X115644107Y-83585504D01*
X115358388Y-83776415D01*
X113966007Y-82384033D01*
X115055068Y-82384033D01*
X115112809Y-82523480D01*
X115370534Y-82856192D01*
X115735964Y-83064951D01*
X115900200Y-83048713D01*
X115900200Y-82219800D01*
X116255800Y-82219800D01*
X116255800Y-83048713D01*
X116420036Y-83064951D01*
X116785466Y-82856192D01*
X117043191Y-82523480D01*
X117100932Y-82384033D01*
X117083856Y-82219800D01*
X116255800Y-82219800D01*
X115900200Y-82219800D01*
X115072144Y-82219800D01*
X115055068Y-82384033D01*
X113966007Y-82384033D01*
X113751885Y-82169911D01*
X113751885Y-81699967D01*
X115055068Y-81699967D01*
X115072144Y-81864200D01*
X115900200Y-81864200D01*
X115900200Y-81035287D01*
X116255800Y-81035287D01*
X116255800Y-81864200D01*
X117083856Y-81864200D01*
X117100932Y-81699967D01*
X117043191Y-81560520D01*
X116785466Y-81227808D01*
X116420036Y-81019049D01*
X116255800Y-81035287D01*
X115900200Y-81035287D01*
X115735964Y-81019049D01*
X115370534Y-81227808D01*
X115112809Y-81560520D01*
X115055068Y-81699967D01*
X113751885Y-81699967D01*
X113751885Y-78795541D01*
X113726750Y-78669179D01*
X113715272Y-78652000D01*
X114994922Y-78652000D01*
X114994922Y-80352000D01*
X115010862Y-80436714D01*
X115060928Y-80514518D01*
X115137320Y-80566715D01*
X115228000Y-80585078D01*
X116928000Y-80585078D01*
X117012714Y-80569138D01*
X117090518Y-80519072D01*
X117142715Y-80442680D01*
X117161078Y-80352000D01*
X117161078Y-78652000D01*
X117145138Y-78567286D01*
X117095072Y-78489482D01*
X117018680Y-78437285D01*
X116928000Y-78418922D01*
X115228000Y-78418922D01*
X115143286Y-78434862D01*
X115065482Y-78484928D01*
X115013285Y-78561320D01*
X114994922Y-78652000D01*
X113715272Y-78652000D01*
X113655172Y-78562054D01*
X113334627Y-78241509D01*
X113227502Y-78169931D01*
X113101140Y-78144796D01*
X109231004Y-78144796D01*
X109104642Y-78169931D01*
X108997517Y-78241509D01*
X108997515Y-78241512D01*
X108773573Y-78465453D01*
X108607316Y-78465308D01*
X108412963Y-78545613D01*
X108264136Y-78694181D01*
X108183492Y-78888394D01*
X108183308Y-79098684D01*
X104665100Y-79098684D01*
X104665100Y-78027600D01*
X117552400Y-78027600D01*
X117552400Y-98756400D01*
G36*
X136348400Y-98756400D02*
X120699600Y-98756400D01*
X120699600Y-97282000D01*
X133774269Y-97282000D01*
X133856373Y-97694762D01*
X134090184Y-98044685D01*
X134440107Y-98278496D01*
X134852869Y-98360600D01*
X134895131Y-98360600D01*
X135307893Y-98278496D01*
X135657816Y-98044685D01*
X135891627Y-97694762D01*
X135973731Y-97282000D01*
X135891627Y-96869238D01*
X135657816Y-96519315D01*
X135307893Y-96285504D01*
X134895131Y-96203400D01*
X134852869Y-96203400D01*
X134440107Y-96285504D01*
X134090184Y-96519315D01*
X133856373Y-96869238D01*
X133774269Y-97282000D01*
X120699600Y-97282000D01*
X120699600Y-94742000D01*
X133774269Y-94742000D01*
X133856373Y-95154762D01*
X134090184Y-95504685D01*
X134440107Y-95738496D01*
X134852869Y-95820600D01*
X134895131Y-95820600D01*
X135307893Y-95738496D01*
X135657816Y-95504685D01*
X135891627Y-95154762D01*
X135973731Y-94742000D01*
X135891627Y-94329238D01*
X135657816Y-93979315D01*
X135307893Y-93745504D01*
X134895131Y-93663400D01*
X134852869Y-93663400D01*
X134440107Y-93745504D01*
X134090184Y-93979315D01*
X133856373Y-94329238D01*
X133774269Y-94742000D01*
X120699600Y-94742000D01*
X120699600Y-90717000D01*
X121344922Y-90717000D01*
X121344922Y-92417000D01*
X121360862Y-92501714D01*
X121410928Y-92579518D01*
X121487320Y-92631715D01*
X121578000Y-92650078D01*
X123278000Y-92650078D01*
X123362714Y-92634138D01*
X123440518Y-92584072D01*
X123492715Y-92507680D01*
X123511078Y-92417000D01*
X123511078Y-90717000D01*
X123495138Y-90632286D01*
X123445072Y-90554482D01*
X123368680Y-90502285D01*
X123278000Y-90483922D01*
X121578000Y-90483922D01*
X121493286Y-90499862D01*
X121415482Y-90549928D01*
X121363285Y-90626320D01*
X121344922Y-90717000D01*
X120699600Y-90717000D01*
X120699600Y-84488743D01*
X123461100Y-84488743D01*
X123461100Y-79098684D01*
X126979308Y-79098684D01*
X127059613Y-79293037D01*
X127208181Y-79441864D01*
X127402394Y-79522508D01*
X127612684Y-79522692D01*
X127807037Y-79442387D01*
X127955864Y-79293819D01*
X128036508Y-79099606D01*
X128036654Y-78932319D01*
X128163777Y-78805196D01*
X129970665Y-78805196D01*
X129900492Y-78974191D01*
X129900308Y-79184481D01*
X129980613Y-79378834D01*
X130083047Y-79481447D01*
X129981136Y-79583181D01*
X129900492Y-79777394D01*
X129900308Y-79987684D01*
X129980613Y-80182037D01*
X130098800Y-80300430D01*
X130098800Y-88138000D01*
X130123935Y-88264362D01*
X130195513Y-88371487D01*
X133816038Y-91992012D01*
X133774269Y-92202000D01*
X133856373Y-92614762D01*
X134090184Y-92964685D01*
X134440107Y-93198496D01*
X134852869Y-93280600D01*
X134895131Y-93280600D01*
X135307893Y-93198496D01*
X135657816Y-92964685D01*
X135891627Y-92614762D01*
X135973731Y-92202000D01*
X135891627Y-91789238D01*
X135657816Y-91439315D01*
X135307893Y-91205504D01*
X134895131Y-91123400D01*
X134852869Y-91123400D01*
X134440107Y-91205504D01*
X134154389Y-91396415D01*
X130759200Y-88001226D01*
X130759200Y-86522174D01*
X131236921Y-86999894D01*
X131236923Y-86999897D01*
X131344048Y-87071475D01*
X131458210Y-87094184D01*
X133816039Y-89452012D01*
X133774269Y-89662000D01*
X133856373Y-90074762D01*
X134090184Y-90424685D01*
X134440107Y-90658496D01*
X134852869Y-90740600D01*
X134895131Y-90740600D01*
X135307893Y-90658496D01*
X135657816Y-90424685D01*
X135891627Y-90074762D01*
X135973731Y-89662000D01*
X135891627Y-89249238D01*
X135657816Y-88899315D01*
X135307893Y-88665504D01*
X134895131Y-88583400D01*
X134852869Y-88583400D01*
X134440107Y-88665504D01*
X134154388Y-88856415D01*
X131830897Y-86532923D01*
X131723772Y-86461345D01*
X131609610Y-86438637D01*
X131165610Y-85994636D01*
X131165610Y-84261584D01*
X133816038Y-86912012D01*
X133774269Y-87122000D01*
X133856373Y-87534762D01*
X134090184Y-87884685D01*
X134440107Y-88118496D01*
X134852869Y-88200600D01*
X134895131Y-88200600D01*
X135307893Y-88118496D01*
X135657816Y-87884685D01*
X135891627Y-87534762D01*
X135973731Y-87122000D01*
X135891627Y-86709238D01*
X135657816Y-86359315D01*
X135307893Y-86125504D01*
X134895131Y-86043400D01*
X134852869Y-86043400D01*
X134440107Y-86125504D01*
X134154389Y-86316415D01*
X131572020Y-83734046D01*
X131572020Y-81238954D01*
X131673695Y-81137278D01*
X131673698Y-81137276D01*
X131745276Y-81030151D01*
X131770411Y-80903789D01*
X131770411Y-79592704D01*
X131887485Y-79544330D01*
X131887485Y-82306685D01*
X131912620Y-82433047D01*
X131984198Y-82540172D01*
X133816039Y-84372012D01*
X133774269Y-84582000D01*
X133856373Y-84994762D01*
X134090184Y-85344685D01*
X134440107Y-85578496D01*
X134852869Y-85660600D01*
X134895131Y-85660600D01*
X135307893Y-85578496D01*
X135657816Y-85344685D01*
X135891627Y-84994762D01*
X135973731Y-84582000D01*
X135891627Y-84169238D01*
X135657816Y-83819315D01*
X135307893Y-83585504D01*
X134895131Y-83503400D01*
X134852869Y-83503400D01*
X134440107Y-83585504D01*
X134154388Y-83776415D01*
X132762007Y-82384033D01*
X133851068Y-82384033D01*
X133908809Y-82523480D01*
X134166534Y-82856192D01*
X134531964Y-83064951D01*
X134696200Y-83048713D01*
X134696200Y-82219800D01*
X135051800Y-82219800D01*
X135051800Y-83048713D01*
X135216036Y-83064951D01*
X135581466Y-82856192D01*
X135839191Y-82523480D01*
X135896932Y-82384033D01*
X135879856Y-82219800D01*
X135051800Y-82219800D01*
X134696200Y-82219800D01*
X133868144Y-82219800D01*
X133851068Y-82384033D01*
X132762007Y-82384033D01*
X132547885Y-82169911D01*
X132547885Y-81699967D01*
X133851068Y-81699967D01*
X133868144Y-81864200D01*
X134696200Y-81864200D01*
X134696200Y-81035287D01*
X135051800Y-81035287D01*
X135051800Y-81864200D01*
X135879856Y-81864200D01*
X135896932Y-81699967D01*
X135839191Y-81560520D01*
X135581466Y-81227808D01*
X135216036Y-81019049D01*
X135051800Y-81035287D01*
X134696200Y-81035287D01*
X134531964Y-81019049D01*
X134166534Y-81227808D01*
X133908809Y-81560520D01*
X133851068Y-81699967D01*
X132547885Y-81699967D01*
X132547885Y-78795541D01*
X132522750Y-78669179D01*
X132511272Y-78652000D01*
X133790922Y-78652000D01*
X133790922Y-80352000D01*
X133806862Y-80436714D01*
X133856928Y-80514518D01*
X133933320Y-80566715D01*
X134024000Y-80585078D01*
X135724000Y-80585078D01*
X135808714Y-80569138D01*
X135886518Y-80519072D01*
X135938715Y-80442680D01*
X135957078Y-80352000D01*
X135957078Y-78652000D01*
X135941138Y-78567286D01*
X135891072Y-78489482D01*
X135814680Y-78437285D01*
X135724000Y-78418922D01*
X134024000Y-78418922D01*
X133939286Y-78434862D01*
X133861482Y-78484928D01*
X133809285Y-78561320D01*
X133790922Y-78652000D01*
X132511272Y-78652000D01*
X132451172Y-78562054D01*
X132130627Y-78241509D01*
X132023502Y-78169931D01*
X131897140Y-78144796D01*
X128027004Y-78144796D01*
X127900642Y-78169931D01*
X127793517Y-78241509D01*
X127793515Y-78241512D01*
X127569573Y-78465453D01*
X127403316Y-78465308D01*
X127208963Y-78545613D01*
X127060136Y-78694181D01*
X126979492Y-78888394D01*
X126979308Y-79098684D01*
X123461100Y-79098684D01*
X123461100Y-78027600D01*
X136348400Y-78027600D01*
X136348400Y-98756400D01*
X136348400Y-98756400D01*
G37*
X136348400Y-98756400D02*
X120699600Y-98756400D01*
X120699600Y-97282000D01*
X133774269Y-97282000D01*
X133856373Y-97694762D01*
X134090184Y-98044685D01*
X134440107Y-98278496D01*
X134852869Y-98360600D01*
X134895131Y-98360600D01*
X135307893Y-98278496D01*
X135657816Y-98044685D01*
X135891627Y-97694762D01*
X135973731Y-97282000D01*
X135891627Y-96869238D01*
X135657816Y-96519315D01*
X135307893Y-96285504D01*
X134895131Y-96203400D01*
X134852869Y-96203400D01*
X134440107Y-96285504D01*
X134090184Y-96519315D01*
X133856373Y-96869238D01*
X133774269Y-97282000D01*
X120699600Y-97282000D01*
X120699600Y-94742000D01*
X133774269Y-94742000D01*
X133856373Y-95154762D01*
X134090184Y-95504685D01*
X134440107Y-95738496D01*
X134852869Y-95820600D01*
X134895131Y-95820600D01*
X135307893Y-95738496D01*
X135657816Y-95504685D01*
X135891627Y-95154762D01*
X135973731Y-94742000D01*
X135891627Y-94329238D01*
X135657816Y-93979315D01*
X135307893Y-93745504D01*
X134895131Y-93663400D01*
X134852869Y-93663400D01*
X134440107Y-93745504D01*
X134090184Y-93979315D01*
X133856373Y-94329238D01*
X133774269Y-94742000D01*
X120699600Y-94742000D01*
X120699600Y-90717000D01*
X121344922Y-90717000D01*
X121344922Y-92417000D01*
X121360862Y-92501714D01*
X121410928Y-92579518D01*
X121487320Y-92631715D01*
X121578000Y-92650078D01*
X123278000Y-92650078D01*
X123362714Y-92634138D01*
X123440518Y-92584072D01*
X123492715Y-92507680D01*
X123511078Y-92417000D01*
X123511078Y-90717000D01*
X123495138Y-90632286D01*
X123445072Y-90554482D01*
X123368680Y-90502285D01*
X123278000Y-90483922D01*
X121578000Y-90483922D01*
X121493286Y-90499862D01*
X121415482Y-90549928D01*
X121363285Y-90626320D01*
X121344922Y-90717000D01*
X120699600Y-90717000D01*
X120699600Y-84488743D01*
X123461100Y-84488743D01*
X123461100Y-79098684D01*
X126979308Y-79098684D01*
X127059613Y-79293037D01*
X127208181Y-79441864D01*
X127402394Y-79522508D01*
X127612684Y-79522692D01*
X127807037Y-79442387D01*
X127955864Y-79293819D01*
X128036508Y-79099606D01*
X128036654Y-78932319D01*
X128163777Y-78805196D01*
X129970665Y-78805196D01*
X129900492Y-78974191D01*
X129900308Y-79184481D01*
X129980613Y-79378834D01*
X130083047Y-79481447D01*
X129981136Y-79583181D01*
X129900492Y-79777394D01*
X129900308Y-79987684D01*
X129980613Y-80182037D01*
X130098800Y-80300430D01*
X130098800Y-88138000D01*
X130123935Y-88264362D01*
X130195513Y-88371487D01*
X133816038Y-91992012D01*
X133774269Y-92202000D01*
X133856373Y-92614762D01*
X134090184Y-92964685D01*
X134440107Y-93198496D01*
X134852869Y-93280600D01*
X134895131Y-93280600D01*
X135307893Y-93198496D01*
X135657816Y-92964685D01*
X135891627Y-92614762D01*
X135973731Y-92202000D01*
X135891627Y-91789238D01*
X135657816Y-91439315D01*
X135307893Y-91205504D01*
X134895131Y-91123400D01*
X134852869Y-91123400D01*
X134440107Y-91205504D01*
X134154389Y-91396415D01*
X130759200Y-88001226D01*
X130759200Y-86522174D01*
X131236921Y-86999894D01*
X131236923Y-86999897D01*
X131344048Y-87071475D01*
X131458210Y-87094184D01*
X133816039Y-89452012D01*
X133774269Y-89662000D01*
X133856373Y-90074762D01*
X134090184Y-90424685D01*
X134440107Y-90658496D01*
X134852869Y-90740600D01*
X134895131Y-90740600D01*
X135307893Y-90658496D01*
X135657816Y-90424685D01*
X135891627Y-90074762D01*
X135973731Y-89662000D01*
X135891627Y-89249238D01*
X135657816Y-88899315D01*
X135307893Y-88665504D01*
X134895131Y-88583400D01*
X134852869Y-88583400D01*
X134440107Y-88665504D01*
X134154388Y-88856415D01*
X131830897Y-86532923D01*
X131723772Y-86461345D01*
X131609610Y-86438637D01*
X131165610Y-85994636D01*
X131165610Y-84261584D01*
X133816038Y-86912012D01*
X133774269Y-87122000D01*
X133856373Y-87534762D01*
X134090184Y-87884685D01*
X134440107Y-88118496D01*
X134852869Y-88200600D01*
X134895131Y-88200600D01*
X135307893Y-88118496D01*
X135657816Y-87884685D01*
X135891627Y-87534762D01*
X135973731Y-87122000D01*
X135891627Y-86709238D01*
X135657816Y-86359315D01*
X135307893Y-86125504D01*
X134895131Y-86043400D01*
X134852869Y-86043400D01*
X134440107Y-86125504D01*
X134154389Y-86316415D01*
X131572020Y-83734046D01*
X131572020Y-81238954D01*
X131673695Y-81137278D01*
X131673698Y-81137276D01*
X131745276Y-81030151D01*
X131770411Y-80903789D01*
X131770411Y-79592704D01*
X131887485Y-79544330D01*
X131887485Y-82306685D01*
X131912620Y-82433047D01*
X131984198Y-82540172D01*
X133816039Y-84372012D01*
X133774269Y-84582000D01*
X133856373Y-84994762D01*
X134090184Y-85344685D01*
X134440107Y-85578496D01*
X134852869Y-85660600D01*
X134895131Y-85660600D01*
X135307893Y-85578496D01*
X135657816Y-85344685D01*
X135891627Y-84994762D01*
X135973731Y-84582000D01*
X135891627Y-84169238D01*
X135657816Y-83819315D01*
X135307893Y-83585504D01*
X134895131Y-83503400D01*
X134852869Y-83503400D01*
X134440107Y-83585504D01*
X134154388Y-83776415D01*
X132762007Y-82384033D01*
X133851068Y-82384033D01*
X133908809Y-82523480D01*
X134166534Y-82856192D01*
X134531964Y-83064951D01*
X134696200Y-83048713D01*
X134696200Y-82219800D01*
X135051800Y-82219800D01*
X135051800Y-83048713D01*
X135216036Y-83064951D01*
X135581466Y-82856192D01*
X135839191Y-82523480D01*
X135896932Y-82384033D01*
X135879856Y-82219800D01*
X135051800Y-82219800D01*
X134696200Y-82219800D01*
X133868144Y-82219800D01*
X133851068Y-82384033D01*
X132762007Y-82384033D01*
X132547885Y-82169911D01*
X132547885Y-81699967D01*
X133851068Y-81699967D01*
X133868144Y-81864200D01*
X134696200Y-81864200D01*
X134696200Y-81035287D01*
X135051800Y-81035287D01*
X135051800Y-81864200D01*
X135879856Y-81864200D01*
X135896932Y-81699967D01*
X135839191Y-81560520D01*
X135581466Y-81227808D01*
X135216036Y-81019049D01*
X135051800Y-81035287D01*
X134696200Y-81035287D01*
X134531964Y-81019049D01*
X134166534Y-81227808D01*
X133908809Y-81560520D01*
X133851068Y-81699967D01*
X132547885Y-81699967D01*
X132547885Y-78795541D01*
X132522750Y-78669179D01*
X132511272Y-78652000D01*
X133790922Y-78652000D01*
X133790922Y-80352000D01*
X133806862Y-80436714D01*
X133856928Y-80514518D01*
X133933320Y-80566715D01*
X134024000Y-80585078D01*
X135724000Y-80585078D01*
X135808714Y-80569138D01*
X135886518Y-80519072D01*
X135938715Y-80442680D01*
X135957078Y-80352000D01*
X135957078Y-78652000D01*
X135941138Y-78567286D01*
X135891072Y-78489482D01*
X135814680Y-78437285D01*
X135724000Y-78418922D01*
X134024000Y-78418922D01*
X133939286Y-78434862D01*
X133861482Y-78484928D01*
X133809285Y-78561320D01*
X133790922Y-78652000D01*
X132511272Y-78652000D01*
X132451172Y-78562054D01*
X132130627Y-78241509D01*
X132023502Y-78169931D01*
X131897140Y-78144796D01*
X128027004Y-78144796D01*
X127900642Y-78169931D01*
X127793517Y-78241509D01*
X127793515Y-78241512D01*
X127569573Y-78465453D01*
X127403316Y-78465308D01*
X127208963Y-78545613D01*
X127060136Y-78694181D01*
X126979492Y-78888394D01*
X126979308Y-79098684D01*
X123461100Y-79098684D01*
X123461100Y-78027600D01*
X136348400Y-78027600D01*
X136348400Y-98756400D01*
G36*
X136348400Y-74880400D02*
X120699600Y-74880400D01*
X120699600Y-73406000D01*
X133774269Y-73406000D01*
X133856373Y-73818762D01*
X134090184Y-74168685D01*
X134440107Y-74402496D01*
X134852869Y-74484600D01*
X134895131Y-74484600D01*
X135307893Y-74402496D01*
X135657816Y-74168685D01*
X135891627Y-73818762D01*
X135973731Y-73406000D01*
X135891627Y-72993238D01*
X135657816Y-72643315D01*
X135307893Y-72409504D01*
X134895131Y-72327400D01*
X134852869Y-72327400D01*
X134440107Y-72409504D01*
X134090184Y-72643315D01*
X133856373Y-72993238D01*
X133774269Y-73406000D01*
X120699600Y-73406000D01*
X120699600Y-70866000D01*
X133774269Y-70866000D01*
X133856373Y-71278762D01*
X134090184Y-71628685D01*
X134440107Y-71862496D01*
X134852869Y-71944600D01*
X134895131Y-71944600D01*
X135307893Y-71862496D01*
X135657816Y-71628685D01*
X135891627Y-71278762D01*
X135973731Y-70866000D01*
X135891627Y-70453238D01*
X135657816Y-70103315D01*
X135307893Y-69869504D01*
X134895131Y-69787400D01*
X134852869Y-69787400D01*
X134440107Y-69869504D01*
X134090184Y-70103315D01*
X133856373Y-70453238D01*
X133774269Y-70866000D01*
X120699600Y-70866000D01*
X120699600Y-66841000D01*
X121344922Y-66841000D01*
X121344922Y-68541000D01*
X121360862Y-68625714D01*
X121410928Y-68703518D01*
X121487320Y-68755715D01*
X121578000Y-68774078D01*
X123278000Y-68774078D01*
X123362714Y-68758138D01*
X123440518Y-68708072D01*
X123492715Y-68631680D01*
X123511078Y-68541000D01*
X123511078Y-66841000D01*
X123495138Y-66756286D01*
X123445072Y-66678482D01*
X123368680Y-66626285D01*
X123278000Y-66607922D01*
X121578000Y-66607922D01*
X121493286Y-66623862D01*
X121415482Y-66673928D01*
X121363285Y-66750320D01*
X121344922Y-66841000D01*
X120699600Y-66841000D01*
X120699600Y-60612743D01*
X123461100Y-60612743D01*
X123461100Y-55222684D01*
X126979308Y-55222684D01*
X127059613Y-55417037D01*
X127208181Y-55565864D01*
X127402394Y-55646508D01*
X127612684Y-55646692D01*
X127807037Y-55566387D01*
X127955864Y-55417819D01*
X128036508Y-55223606D01*
X128036654Y-55056319D01*
X128163777Y-54929196D01*
X129970665Y-54929196D01*
X129900492Y-55098191D01*
X129900308Y-55308481D01*
X129980613Y-55502834D01*
X130083047Y-55605447D01*
X129981136Y-55707181D01*
X129900492Y-55901394D01*
X129900308Y-56111684D01*
X129980613Y-56306037D01*
X130098800Y-56424430D01*
X130098800Y-64262000D01*
X130123935Y-64388362D01*
X130195513Y-64495487D01*
X133816038Y-68116012D01*
X133774269Y-68326000D01*
X133856373Y-68738762D01*
X134090184Y-69088685D01*
X134440107Y-69322496D01*
X134852869Y-69404600D01*
X134895131Y-69404600D01*
X135307893Y-69322496D01*
X135657816Y-69088685D01*
X135891627Y-68738762D01*
X135973731Y-68326000D01*
X135891627Y-67913238D01*
X135657816Y-67563315D01*
X135307893Y-67329504D01*
X134895131Y-67247400D01*
X134852869Y-67247400D01*
X134440107Y-67329504D01*
X134154389Y-67520415D01*
X130759200Y-64125226D01*
X130759200Y-62646174D01*
X131236921Y-63123894D01*
X131236923Y-63123897D01*
X131344048Y-63195475D01*
X131458210Y-63218184D01*
X133816039Y-65576012D01*
X133774269Y-65786000D01*
X133856373Y-66198762D01*
X134090184Y-66548685D01*
X134440107Y-66782496D01*
X134852869Y-66864600D01*
X134895131Y-66864600D01*
X135307893Y-66782496D01*
X135657816Y-66548685D01*
X135891627Y-66198762D01*
X135973731Y-65786000D01*
X135891627Y-65373238D01*
X135657816Y-65023315D01*
X135307893Y-64789504D01*
X134895131Y-64707400D01*
X134852869Y-64707400D01*
X134440107Y-64789504D01*
X134154388Y-64980415D01*
X131830897Y-62656923D01*
X131723772Y-62585345D01*
X131609610Y-62562637D01*
X131165610Y-62118636D01*
X131165610Y-60385584D01*
X133816038Y-63036012D01*
X133774269Y-63246000D01*
X133856373Y-63658762D01*
X134090184Y-64008685D01*
X134440107Y-64242496D01*
X134852869Y-64324600D01*
X134895131Y-64324600D01*
X135307893Y-64242496D01*
X135657816Y-64008685D01*
X135891627Y-63658762D01*
X135973731Y-63246000D01*
X135891627Y-62833238D01*
X135657816Y-62483315D01*
X135307893Y-62249504D01*
X134895131Y-62167400D01*
X134852869Y-62167400D01*
X134440107Y-62249504D01*
X134154389Y-62440415D01*
X131572020Y-59858046D01*
X131572020Y-57362954D01*
X131673695Y-57261278D01*
X131673698Y-57261276D01*
X131745276Y-57154151D01*
X131770411Y-57027789D01*
X131770411Y-55716704D01*
X131887485Y-55668330D01*
X131887485Y-58430685D01*
X131912620Y-58557047D01*
X131984198Y-58664172D01*
X133816039Y-60496012D01*
X133774269Y-60706000D01*
X133856373Y-61118762D01*
X134090184Y-61468685D01*
X134440107Y-61702496D01*
X134852869Y-61784600D01*
X134895131Y-61784600D01*
X135307893Y-61702496D01*
X135657816Y-61468685D01*
X135891627Y-61118762D01*
X135973731Y-60706000D01*
X135891627Y-60293238D01*
X135657816Y-59943315D01*
X135307893Y-59709504D01*
X134895131Y-59627400D01*
X134852869Y-59627400D01*
X134440107Y-59709504D01*
X134154388Y-59900415D01*
X132762007Y-58508033D01*
X133851068Y-58508033D01*
X133908809Y-58647480D01*
X134166534Y-58980192D01*
X134531964Y-59188951D01*
X134696200Y-59172713D01*
X134696200Y-58343800D01*
X135051800Y-58343800D01*
X135051800Y-59172713D01*
X135216036Y-59188951D01*
X135581466Y-58980192D01*
X135839191Y-58647480D01*
X135896932Y-58508033D01*
X135879856Y-58343800D01*
X135051800Y-58343800D01*
X134696200Y-58343800D01*
X133868144Y-58343800D01*
X133851068Y-58508033D01*
X132762007Y-58508033D01*
X132547885Y-58293911D01*
X132547885Y-57823967D01*
X133851068Y-57823967D01*
X133868144Y-57988200D01*
X134696200Y-57988200D01*
X134696200Y-57159287D01*
X135051800Y-57159287D01*
X135051800Y-57988200D01*
X135879856Y-57988200D01*
X135896932Y-57823967D01*
X135839191Y-57684520D01*
X135581466Y-57351808D01*
X135216036Y-57143049D01*
X135051800Y-57159287D01*
X134696200Y-57159287D01*
X134531964Y-57143049D01*
X134166534Y-57351808D01*
X133908809Y-57684520D01*
X133851068Y-57823967D01*
X132547885Y-57823967D01*
X132547885Y-54919541D01*
X132522750Y-54793179D01*
X132511272Y-54776000D01*
X133790922Y-54776000D01*
X133790922Y-56476000D01*
X133806862Y-56560714D01*
X133856928Y-56638518D01*
X133933320Y-56690715D01*
X134024000Y-56709078D01*
X135724000Y-56709078D01*
X135808714Y-56693138D01*
X135886518Y-56643072D01*
X135938715Y-56566680D01*
X135957078Y-56476000D01*
X135957078Y-54776000D01*
X135941138Y-54691286D01*
X135891072Y-54613482D01*
X135814680Y-54561285D01*
X135724000Y-54542922D01*
X134024000Y-54542922D01*
X133939286Y-54558862D01*
X133861482Y-54608928D01*
X133809285Y-54685320D01*
X133790922Y-54776000D01*
X132511272Y-54776000D01*
X132451172Y-54686054D01*
X132130627Y-54365509D01*
X132023502Y-54293931D01*
X131897140Y-54268796D01*
X128027004Y-54268796D01*
X127900642Y-54293931D01*
X127793517Y-54365509D01*
X127793515Y-54365512D01*
X127569573Y-54589453D01*
X127403316Y-54589308D01*
X127208963Y-54669613D01*
X127060136Y-54818181D01*
X126979492Y-55012394D01*
X126979308Y-55222684D01*
X123461100Y-55222684D01*
X123461100Y-54151600D01*
X136348400Y-54151600D01*
X136348400Y-74880400D01*
X136348400Y-74880400D01*
G37*
X136348400Y-74880400D02*
X120699600Y-74880400D01*
X120699600Y-73406000D01*
X133774269Y-73406000D01*
X133856373Y-73818762D01*
X134090184Y-74168685D01*
X134440107Y-74402496D01*
X134852869Y-74484600D01*
X134895131Y-74484600D01*
X135307893Y-74402496D01*
X135657816Y-74168685D01*
X135891627Y-73818762D01*
X135973731Y-73406000D01*
X135891627Y-72993238D01*
X135657816Y-72643315D01*
X135307893Y-72409504D01*
X134895131Y-72327400D01*
X134852869Y-72327400D01*
X134440107Y-72409504D01*
X134090184Y-72643315D01*
X133856373Y-72993238D01*
X133774269Y-73406000D01*
X120699600Y-73406000D01*
X120699600Y-70866000D01*
X133774269Y-70866000D01*
X133856373Y-71278762D01*
X134090184Y-71628685D01*
X134440107Y-71862496D01*
X134852869Y-71944600D01*
X134895131Y-71944600D01*
X135307893Y-71862496D01*
X135657816Y-71628685D01*
X135891627Y-71278762D01*
X135973731Y-70866000D01*
X135891627Y-70453238D01*
X135657816Y-70103315D01*
X135307893Y-69869504D01*
X134895131Y-69787400D01*
X134852869Y-69787400D01*
X134440107Y-69869504D01*
X134090184Y-70103315D01*
X133856373Y-70453238D01*
X133774269Y-70866000D01*
X120699600Y-70866000D01*
X120699600Y-66841000D01*
X121344922Y-66841000D01*
X121344922Y-68541000D01*
X121360862Y-68625714D01*
X121410928Y-68703518D01*
X121487320Y-68755715D01*
X121578000Y-68774078D01*
X123278000Y-68774078D01*
X123362714Y-68758138D01*
X123440518Y-68708072D01*
X123492715Y-68631680D01*
X123511078Y-68541000D01*
X123511078Y-66841000D01*
X123495138Y-66756286D01*
X123445072Y-66678482D01*
X123368680Y-66626285D01*
X123278000Y-66607922D01*
X121578000Y-66607922D01*
X121493286Y-66623862D01*
X121415482Y-66673928D01*
X121363285Y-66750320D01*
X121344922Y-66841000D01*
X120699600Y-66841000D01*
X120699600Y-60612743D01*
X123461100Y-60612743D01*
X123461100Y-55222684D01*
X126979308Y-55222684D01*
X127059613Y-55417037D01*
X127208181Y-55565864D01*
X127402394Y-55646508D01*
X127612684Y-55646692D01*
X127807037Y-55566387D01*
X127955864Y-55417819D01*
X128036508Y-55223606D01*
X128036654Y-55056319D01*
X128163777Y-54929196D01*
X129970665Y-54929196D01*
X129900492Y-55098191D01*
X129900308Y-55308481D01*
X129980613Y-55502834D01*
X130083047Y-55605447D01*
X129981136Y-55707181D01*
X129900492Y-55901394D01*
X129900308Y-56111684D01*
X129980613Y-56306037D01*
X130098800Y-56424430D01*
X130098800Y-64262000D01*
X130123935Y-64388362D01*
X130195513Y-64495487D01*
X133816038Y-68116012D01*
X133774269Y-68326000D01*
X133856373Y-68738762D01*
X134090184Y-69088685D01*
X134440107Y-69322496D01*
X134852869Y-69404600D01*
X134895131Y-69404600D01*
X135307893Y-69322496D01*
X135657816Y-69088685D01*
X135891627Y-68738762D01*
X135973731Y-68326000D01*
X135891627Y-67913238D01*
X135657816Y-67563315D01*
X135307893Y-67329504D01*
X134895131Y-67247400D01*
X134852869Y-67247400D01*
X134440107Y-67329504D01*
X134154389Y-67520415D01*
X130759200Y-64125226D01*
X130759200Y-62646174D01*
X131236921Y-63123894D01*
X131236923Y-63123897D01*
X131344048Y-63195475D01*
X131458210Y-63218184D01*
X133816039Y-65576012D01*
X133774269Y-65786000D01*
X133856373Y-66198762D01*
X134090184Y-66548685D01*
X134440107Y-66782496D01*
X134852869Y-66864600D01*
X134895131Y-66864600D01*
X135307893Y-66782496D01*
X135657816Y-66548685D01*
X135891627Y-66198762D01*
X135973731Y-65786000D01*
X135891627Y-65373238D01*
X135657816Y-65023315D01*
X135307893Y-64789504D01*
X134895131Y-64707400D01*
X134852869Y-64707400D01*
X134440107Y-64789504D01*
X134154388Y-64980415D01*
X131830897Y-62656923D01*
X131723772Y-62585345D01*
X131609610Y-62562637D01*
X131165610Y-62118636D01*
X131165610Y-60385584D01*
X133816038Y-63036012D01*
X133774269Y-63246000D01*
X133856373Y-63658762D01*
X134090184Y-64008685D01*
X134440107Y-64242496D01*
X134852869Y-64324600D01*
X134895131Y-64324600D01*
X135307893Y-64242496D01*
X135657816Y-64008685D01*
X135891627Y-63658762D01*
X135973731Y-63246000D01*
X135891627Y-62833238D01*
X135657816Y-62483315D01*
X135307893Y-62249504D01*
X134895131Y-62167400D01*
X134852869Y-62167400D01*
X134440107Y-62249504D01*
X134154389Y-62440415D01*
X131572020Y-59858046D01*
X131572020Y-57362954D01*
X131673695Y-57261278D01*
X131673698Y-57261276D01*
X131745276Y-57154151D01*
X131770411Y-57027789D01*
X131770411Y-55716704D01*
X131887485Y-55668330D01*
X131887485Y-58430685D01*
X131912620Y-58557047D01*
X131984198Y-58664172D01*
X133816039Y-60496012D01*
X133774269Y-60706000D01*
X133856373Y-61118762D01*
X134090184Y-61468685D01*
X134440107Y-61702496D01*
X134852869Y-61784600D01*
X134895131Y-61784600D01*
X135307893Y-61702496D01*
X135657816Y-61468685D01*
X135891627Y-61118762D01*
X135973731Y-60706000D01*
X135891627Y-60293238D01*
X135657816Y-59943315D01*
X135307893Y-59709504D01*
X134895131Y-59627400D01*
X134852869Y-59627400D01*
X134440107Y-59709504D01*
X134154388Y-59900415D01*
X132762007Y-58508033D01*
X133851068Y-58508033D01*
X133908809Y-58647480D01*
X134166534Y-58980192D01*
X134531964Y-59188951D01*
X134696200Y-59172713D01*
X134696200Y-58343800D01*
X135051800Y-58343800D01*
X135051800Y-59172713D01*
X135216036Y-59188951D01*
X135581466Y-58980192D01*
X135839191Y-58647480D01*
X135896932Y-58508033D01*
X135879856Y-58343800D01*
X135051800Y-58343800D01*
X134696200Y-58343800D01*
X133868144Y-58343800D01*
X133851068Y-58508033D01*
X132762007Y-58508033D01*
X132547885Y-58293911D01*
X132547885Y-57823967D01*
X133851068Y-57823967D01*
X133868144Y-57988200D01*
X134696200Y-57988200D01*
X134696200Y-57159287D01*
X135051800Y-57159287D01*
X135051800Y-57988200D01*
X135879856Y-57988200D01*
X135896932Y-57823967D01*
X135839191Y-57684520D01*
X135581466Y-57351808D01*
X135216036Y-57143049D01*
X135051800Y-57159287D01*
X134696200Y-57159287D01*
X134531964Y-57143049D01*
X134166534Y-57351808D01*
X133908809Y-57684520D01*
X133851068Y-57823967D01*
X132547885Y-57823967D01*
X132547885Y-54919541D01*
X132522750Y-54793179D01*
X132511272Y-54776000D01*
X133790922Y-54776000D01*
X133790922Y-56476000D01*
X133806862Y-56560714D01*
X133856928Y-56638518D01*
X133933320Y-56690715D01*
X134024000Y-56709078D01*
X135724000Y-56709078D01*
X135808714Y-56693138D01*
X135886518Y-56643072D01*
X135938715Y-56566680D01*
X135957078Y-56476000D01*
X135957078Y-54776000D01*
X135941138Y-54691286D01*
X135891072Y-54613482D01*
X135814680Y-54561285D01*
X135724000Y-54542922D01*
X134024000Y-54542922D01*
X133939286Y-54558862D01*
X133861482Y-54608928D01*
X133809285Y-54685320D01*
X133790922Y-54776000D01*
X132511272Y-54776000D01*
X132451172Y-54686054D01*
X132130627Y-54365509D01*
X132023502Y-54293931D01*
X131897140Y-54268796D01*
X128027004Y-54268796D01*
X127900642Y-54293931D01*
X127793517Y-54365509D01*
X127793515Y-54365512D01*
X127569573Y-54589453D01*
X127403316Y-54589308D01*
X127208963Y-54669613D01*
X127060136Y-54818181D01*
X126979492Y-55012394D01*
X126979308Y-55222684D01*
X123461100Y-55222684D01*
X123461100Y-54151600D01*
X136348400Y-54151600D01*
X136348400Y-74880400D01*
G36*
X155144400Y-98756400D02*
X139495600Y-98756400D01*
X139495600Y-97282000D01*
X152570269Y-97282000D01*
X152652373Y-97694762D01*
X152886184Y-98044685D01*
X153236107Y-98278496D01*
X153648869Y-98360600D01*
X153691131Y-98360600D01*
X154103893Y-98278496D01*
X154453816Y-98044685D01*
X154687627Y-97694762D01*
X154769731Y-97282000D01*
X154687627Y-96869238D01*
X154453816Y-96519315D01*
X154103893Y-96285504D01*
X153691131Y-96203400D01*
X153648869Y-96203400D01*
X153236107Y-96285504D01*
X152886184Y-96519315D01*
X152652373Y-96869238D01*
X152570269Y-97282000D01*
X139495600Y-97282000D01*
X139495600Y-94742000D01*
X152570269Y-94742000D01*
X152652373Y-95154762D01*
X152886184Y-95504685D01*
X153236107Y-95738496D01*
X153648869Y-95820600D01*
X153691131Y-95820600D01*
X154103893Y-95738496D01*
X154453816Y-95504685D01*
X154687627Y-95154762D01*
X154769731Y-94742000D01*
X154687627Y-94329238D01*
X154453816Y-93979315D01*
X154103893Y-93745504D01*
X153691131Y-93663400D01*
X153648869Y-93663400D01*
X153236107Y-93745504D01*
X152886184Y-93979315D01*
X152652373Y-94329238D01*
X152570269Y-94742000D01*
X139495600Y-94742000D01*
X139495600Y-90717000D01*
X140140922Y-90717000D01*
X140140922Y-92417000D01*
X140156862Y-92501714D01*
X140206928Y-92579518D01*
X140283320Y-92631715D01*
X140374000Y-92650078D01*
X142074000Y-92650078D01*
X142158714Y-92634138D01*
X142236518Y-92584072D01*
X142288715Y-92507680D01*
X142307078Y-92417000D01*
X142307078Y-90717000D01*
X142291138Y-90632286D01*
X142241072Y-90554482D01*
X142164680Y-90502285D01*
X142074000Y-90483922D01*
X140374000Y-90483922D01*
X140289286Y-90499862D01*
X140211482Y-90549928D01*
X140159285Y-90626320D01*
X140140922Y-90717000D01*
X139495600Y-90717000D01*
X139495600Y-84488743D01*
X142257100Y-84488743D01*
X142257100Y-79098684D01*
X145775308Y-79098684D01*
X145855613Y-79293037D01*
X146004181Y-79441864D01*
X146198394Y-79522508D01*
X146408684Y-79522692D01*
X146603037Y-79442387D01*
X146751864Y-79293819D01*
X146832508Y-79099606D01*
X146832654Y-78932319D01*
X146959777Y-78805196D01*
X148766665Y-78805196D01*
X148696492Y-78974191D01*
X148696308Y-79184481D01*
X148776613Y-79378834D01*
X148879047Y-79481447D01*
X148777136Y-79583181D01*
X148696492Y-79777394D01*
X148696308Y-79987684D01*
X148776613Y-80182037D01*
X148894800Y-80300430D01*
X148894800Y-88138000D01*
X148919935Y-88264362D01*
X148991513Y-88371487D01*
X152612038Y-91992012D01*
X152570269Y-92202000D01*
X152652373Y-92614762D01*
X152886184Y-92964685D01*
X153236107Y-93198496D01*
X153648869Y-93280600D01*
X153691131Y-93280600D01*
X154103893Y-93198496D01*
X154453816Y-92964685D01*
X154687627Y-92614762D01*
X154769731Y-92202000D01*
X154687627Y-91789238D01*
X154453816Y-91439315D01*
X154103893Y-91205504D01*
X153691131Y-91123400D01*
X153648869Y-91123400D01*
X153236107Y-91205504D01*
X152950389Y-91396415D01*
X149555200Y-88001226D01*
X149555200Y-86522174D01*
X150032921Y-86999894D01*
X150032923Y-86999897D01*
X150140048Y-87071475D01*
X150254210Y-87094184D01*
X152612039Y-89452012D01*
X152570269Y-89662000D01*
X152652373Y-90074762D01*
X152886184Y-90424685D01*
X153236107Y-90658496D01*
X153648869Y-90740600D01*
X153691131Y-90740600D01*
X154103893Y-90658496D01*
X154453816Y-90424685D01*
X154687627Y-90074762D01*
X154769731Y-89662000D01*
X154687627Y-89249238D01*
X154453816Y-88899315D01*
X154103893Y-88665504D01*
X153691131Y-88583400D01*
X153648869Y-88583400D01*
X153236107Y-88665504D01*
X152950388Y-88856415D01*
X150626897Y-86532923D01*
X150519772Y-86461345D01*
X150405610Y-86438637D01*
X149961610Y-85994636D01*
X149961610Y-84261584D01*
X152612038Y-86912012D01*
X152570269Y-87122000D01*
X152652373Y-87534762D01*
X152886184Y-87884685D01*
X153236107Y-88118496D01*
X153648869Y-88200600D01*
X153691131Y-88200600D01*
X154103893Y-88118496D01*
X154453816Y-87884685D01*
X154687627Y-87534762D01*
X154769731Y-87122000D01*
X154687627Y-86709238D01*
X154453816Y-86359315D01*
X154103893Y-86125504D01*
X153691131Y-86043400D01*
X153648869Y-86043400D01*
X153236107Y-86125504D01*
X152950389Y-86316415D01*
X150368020Y-83734046D01*
X150368020Y-81238954D01*
X150469695Y-81137278D01*
X150469698Y-81137276D01*
X150541276Y-81030151D01*
X150566411Y-80903789D01*
X150566411Y-79592704D01*
X150683485Y-79544330D01*
X150683485Y-82306685D01*
X150708620Y-82433047D01*
X150780198Y-82540172D01*
X152612039Y-84372012D01*
X152570269Y-84582000D01*
X152652373Y-84994762D01*
X152886184Y-85344685D01*
X153236107Y-85578496D01*
X153648869Y-85660600D01*
X153691131Y-85660600D01*
X154103893Y-85578496D01*
X154453816Y-85344685D01*
X154687627Y-84994762D01*
X154769731Y-84582000D01*
X154687627Y-84169238D01*
X154453816Y-83819315D01*
X154103893Y-83585504D01*
X153691131Y-83503400D01*
X153648869Y-83503400D01*
X153236107Y-83585504D01*
X152950388Y-83776415D01*
X151558007Y-82384033D01*
X152647068Y-82384033D01*
X152704809Y-82523480D01*
X152962534Y-82856192D01*
X153327964Y-83064951D01*
X153492200Y-83048713D01*
X153492200Y-82219800D01*
X153847800Y-82219800D01*
X153847800Y-83048713D01*
X154012036Y-83064951D01*
X154377466Y-82856192D01*
X154635191Y-82523480D01*
X154692932Y-82384033D01*
X154675856Y-82219800D01*
X153847800Y-82219800D01*
X153492200Y-82219800D01*
X152664144Y-82219800D01*
X152647068Y-82384033D01*
X151558007Y-82384033D01*
X151343885Y-82169911D01*
X151343885Y-81699967D01*
X152647068Y-81699967D01*
X152664144Y-81864200D01*
X153492200Y-81864200D01*
X153492200Y-81035287D01*
X153847800Y-81035287D01*
X153847800Y-81864200D01*
X154675856Y-81864200D01*
X154692932Y-81699967D01*
X154635191Y-81560520D01*
X154377466Y-81227808D01*
X154012036Y-81019049D01*
X153847800Y-81035287D01*
X153492200Y-81035287D01*
X153327964Y-81019049D01*
X152962534Y-81227808D01*
X152704809Y-81560520D01*
X152647068Y-81699967D01*
X151343885Y-81699967D01*
X151343885Y-78795541D01*
X151318750Y-78669179D01*
X151307272Y-78652000D01*
X152586922Y-78652000D01*
X152586922Y-80352000D01*
X152602862Y-80436714D01*
X152652928Y-80514518D01*
X152729320Y-80566715D01*
X152820000Y-80585078D01*
X154520000Y-80585078D01*
X154604714Y-80569138D01*
X154682518Y-80519072D01*
X154734715Y-80442680D01*
X154753078Y-80352000D01*
X154753078Y-78652000D01*
X154737138Y-78567286D01*
X154687072Y-78489482D01*
X154610680Y-78437285D01*
X154520000Y-78418922D01*
X152820000Y-78418922D01*
X152735286Y-78434862D01*
X152657482Y-78484928D01*
X152605285Y-78561320D01*
X152586922Y-78652000D01*
X151307272Y-78652000D01*
X151247172Y-78562054D01*
X150926627Y-78241509D01*
X150819502Y-78169931D01*
X150693140Y-78144796D01*
X146823004Y-78144796D01*
X146696642Y-78169931D01*
X146589517Y-78241509D01*
X146589515Y-78241512D01*
X146365573Y-78465453D01*
X146199316Y-78465308D01*
X146004963Y-78545613D01*
X145856136Y-78694181D01*
X145775492Y-78888394D01*
X145775308Y-79098684D01*
X142257100Y-79098684D01*
X142257100Y-78027600D01*
X155144400Y-78027600D01*
X155144400Y-98756400D01*
X155144400Y-98756400D01*
G37*
X155144400Y-98756400D02*
X139495600Y-98756400D01*
X139495600Y-97282000D01*
X152570269Y-97282000D01*
X152652373Y-97694762D01*
X152886184Y-98044685D01*
X153236107Y-98278496D01*
X153648869Y-98360600D01*
X153691131Y-98360600D01*
X154103893Y-98278496D01*
X154453816Y-98044685D01*
X154687627Y-97694762D01*
X154769731Y-97282000D01*
X154687627Y-96869238D01*
X154453816Y-96519315D01*
X154103893Y-96285504D01*
X153691131Y-96203400D01*
X153648869Y-96203400D01*
X153236107Y-96285504D01*
X152886184Y-96519315D01*
X152652373Y-96869238D01*
X152570269Y-97282000D01*
X139495600Y-97282000D01*
X139495600Y-94742000D01*
X152570269Y-94742000D01*
X152652373Y-95154762D01*
X152886184Y-95504685D01*
X153236107Y-95738496D01*
X153648869Y-95820600D01*
X153691131Y-95820600D01*
X154103893Y-95738496D01*
X154453816Y-95504685D01*
X154687627Y-95154762D01*
X154769731Y-94742000D01*
X154687627Y-94329238D01*
X154453816Y-93979315D01*
X154103893Y-93745504D01*
X153691131Y-93663400D01*
X153648869Y-93663400D01*
X153236107Y-93745504D01*
X152886184Y-93979315D01*
X152652373Y-94329238D01*
X152570269Y-94742000D01*
X139495600Y-94742000D01*
X139495600Y-90717000D01*
X140140922Y-90717000D01*
X140140922Y-92417000D01*
X140156862Y-92501714D01*
X140206928Y-92579518D01*
X140283320Y-92631715D01*
X140374000Y-92650078D01*
X142074000Y-92650078D01*
X142158714Y-92634138D01*
X142236518Y-92584072D01*
X142288715Y-92507680D01*
X142307078Y-92417000D01*
X142307078Y-90717000D01*
X142291138Y-90632286D01*
X142241072Y-90554482D01*
X142164680Y-90502285D01*
X142074000Y-90483922D01*
X140374000Y-90483922D01*
X140289286Y-90499862D01*
X140211482Y-90549928D01*
X140159285Y-90626320D01*
X140140922Y-90717000D01*
X139495600Y-90717000D01*
X139495600Y-84488743D01*
X142257100Y-84488743D01*
X142257100Y-79098684D01*
X145775308Y-79098684D01*
X145855613Y-79293037D01*
X146004181Y-79441864D01*
X146198394Y-79522508D01*
X146408684Y-79522692D01*
X146603037Y-79442387D01*
X146751864Y-79293819D01*
X146832508Y-79099606D01*
X146832654Y-78932319D01*
X146959777Y-78805196D01*
X148766665Y-78805196D01*
X148696492Y-78974191D01*
X148696308Y-79184481D01*
X148776613Y-79378834D01*
X148879047Y-79481447D01*
X148777136Y-79583181D01*
X148696492Y-79777394D01*
X148696308Y-79987684D01*
X148776613Y-80182037D01*
X148894800Y-80300430D01*
X148894800Y-88138000D01*
X148919935Y-88264362D01*
X148991513Y-88371487D01*
X152612038Y-91992012D01*
X152570269Y-92202000D01*
X152652373Y-92614762D01*
X152886184Y-92964685D01*
X153236107Y-93198496D01*
X153648869Y-93280600D01*
X153691131Y-93280600D01*
X154103893Y-93198496D01*
X154453816Y-92964685D01*
X154687627Y-92614762D01*
X154769731Y-92202000D01*
X154687627Y-91789238D01*
X154453816Y-91439315D01*
X154103893Y-91205504D01*
X153691131Y-91123400D01*
X153648869Y-91123400D01*
X153236107Y-91205504D01*
X152950389Y-91396415D01*
X149555200Y-88001226D01*
X149555200Y-86522174D01*
X150032921Y-86999894D01*
X150032923Y-86999897D01*
X150140048Y-87071475D01*
X150254210Y-87094184D01*
X152612039Y-89452012D01*
X152570269Y-89662000D01*
X152652373Y-90074762D01*
X152886184Y-90424685D01*
X153236107Y-90658496D01*
X153648869Y-90740600D01*
X153691131Y-90740600D01*
X154103893Y-90658496D01*
X154453816Y-90424685D01*
X154687627Y-90074762D01*
X154769731Y-89662000D01*
X154687627Y-89249238D01*
X154453816Y-88899315D01*
X154103893Y-88665504D01*
X153691131Y-88583400D01*
X153648869Y-88583400D01*
X153236107Y-88665504D01*
X152950388Y-88856415D01*
X150626897Y-86532923D01*
X150519772Y-86461345D01*
X150405610Y-86438637D01*
X149961610Y-85994636D01*
X149961610Y-84261584D01*
X152612038Y-86912012D01*
X152570269Y-87122000D01*
X152652373Y-87534762D01*
X152886184Y-87884685D01*
X153236107Y-88118496D01*
X153648869Y-88200600D01*
X153691131Y-88200600D01*
X154103893Y-88118496D01*
X154453816Y-87884685D01*
X154687627Y-87534762D01*
X154769731Y-87122000D01*
X154687627Y-86709238D01*
X154453816Y-86359315D01*
X154103893Y-86125504D01*
X153691131Y-86043400D01*
X153648869Y-86043400D01*
X153236107Y-86125504D01*
X152950389Y-86316415D01*
X150368020Y-83734046D01*
X150368020Y-81238954D01*
X150469695Y-81137278D01*
X150469698Y-81137276D01*
X150541276Y-81030151D01*
X150566411Y-80903789D01*
X150566411Y-79592704D01*
X150683485Y-79544330D01*
X150683485Y-82306685D01*
X150708620Y-82433047D01*
X150780198Y-82540172D01*
X152612039Y-84372012D01*
X152570269Y-84582000D01*
X152652373Y-84994762D01*
X152886184Y-85344685D01*
X153236107Y-85578496D01*
X153648869Y-85660600D01*
X153691131Y-85660600D01*
X154103893Y-85578496D01*
X154453816Y-85344685D01*
X154687627Y-84994762D01*
X154769731Y-84582000D01*
X154687627Y-84169238D01*
X154453816Y-83819315D01*
X154103893Y-83585504D01*
X153691131Y-83503400D01*
X153648869Y-83503400D01*
X153236107Y-83585504D01*
X152950388Y-83776415D01*
X151558007Y-82384033D01*
X152647068Y-82384033D01*
X152704809Y-82523480D01*
X152962534Y-82856192D01*
X153327964Y-83064951D01*
X153492200Y-83048713D01*
X153492200Y-82219800D01*
X153847800Y-82219800D01*
X153847800Y-83048713D01*
X154012036Y-83064951D01*
X154377466Y-82856192D01*
X154635191Y-82523480D01*
X154692932Y-82384033D01*
X154675856Y-82219800D01*
X153847800Y-82219800D01*
X153492200Y-82219800D01*
X152664144Y-82219800D01*
X152647068Y-82384033D01*
X151558007Y-82384033D01*
X151343885Y-82169911D01*
X151343885Y-81699967D01*
X152647068Y-81699967D01*
X152664144Y-81864200D01*
X153492200Y-81864200D01*
X153492200Y-81035287D01*
X153847800Y-81035287D01*
X153847800Y-81864200D01*
X154675856Y-81864200D01*
X154692932Y-81699967D01*
X154635191Y-81560520D01*
X154377466Y-81227808D01*
X154012036Y-81019049D01*
X153847800Y-81035287D01*
X153492200Y-81035287D01*
X153327964Y-81019049D01*
X152962534Y-81227808D01*
X152704809Y-81560520D01*
X152647068Y-81699967D01*
X151343885Y-81699967D01*
X151343885Y-78795541D01*
X151318750Y-78669179D01*
X151307272Y-78652000D01*
X152586922Y-78652000D01*
X152586922Y-80352000D01*
X152602862Y-80436714D01*
X152652928Y-80514518D01*
X152729320Y-80566715D01*
X152820000Y-80585078D01*
X154520000Y-80585078D01*
X154604714Y-80569138D01*
X154682518Y-80519072D01*
X154734715Y-80442680D01*
X154753078Y-80352000D01*
X154753078Y-78652000D01*
X154737138Y-78567286D01*
X154687072Y-78489482D01*
X154610680Y-78437285D01*
X154520000Y-78418922D01*
X152820000Y-78418922D01*
X152735286Y-78434862D01*
X152657482Y-78484928D01*
X152605285Y-78561320D01*
X152586922Y-78652000D01*
X151307272Y-78652000D01*
X151247172Y-78562054D01*
X150926627Y-78241509D01*
X150819502Y-78169931D01*
X150693140Y-78144796D01*
X146823004Y-78144796D01*
X146696642Y-78169931D01*
X146589517Y-78241509D01*
X146589515Y-78241512D01*
X146365573Y-78465453D01*
X146199316Y-78465308D01*
X146004963Y-78545613D01*
X145856136Y-78694181D01*
X145775492Y-78888394D01*
X145775308Y-79098684D01*
X142257100Y-79098684D01*
X142257100Y-78027600D01*
X155144400Y-78027600D01*
X155144400Y-98756400D01*
G36*
X155144400Y-74880400D02*
X139495600Y-74880400D01*
X139495600Y-73406000D01*
X152570269Y-73406000D01*
X152652373Y-73818762D01*
X152886184Y-74168685D01*
X153236107Y-74402496D01*
X153648869Y-74484600D01*
X153691131Y-74484600D01*
X154103893Y-74402496D01*
X154453816Y-74168685D01*
X154687627Y-73818762D01*
X154769731Y-73406000D01*
X154687627Y-72993238D01*
X154453816Y-72643315D01*
X154103893Y-72409504D01*
X153691131Y-72327400D01*
X153648869Y-72327400D01*
X153236107Y-72409504D01*
X152886184Y-72643315D01*
X152652373Y-72993238D01*
X152570269Y-73406000D01*
X139495600Y-73406000D01*
X139495600Y-70866000D01*
X152570269Y-70866000D01*
X152652373Y-71278762D01*
X152886184Y-71628685D01*
X153236107Y-71862496D01*
X153648869Y-71944600D01*
X153691131Y-71944600D01*
X154103893Y-71862496D01*
X154453816Y-71628685D01*
X154687627Y-71278762D01*
X154769731Y-70866000D01*
X154687627Y-70453238D01*
X154453816Y-70103315D01*
X154103893Y-69869504D01*
X153691131Y-69787400D01*
X153648869Y-69787400D01*
X153236107Y-69869504D01*
X152886184Y-70103315D01*
X152652373Y-70453238D01*
X152570269Y-70866000D01*
X139495600Y-70866000D01*
X139495600Y-66841000D01*
X140140922Y-66841000D01*
X140140922Y-68541000D01*
X140156862Y-68625714D01*
X140206928Y-68703518D01*
X140283320Y-68755715D01*
X140374000Y-68774078D01*
X142074000Y-68774078D01*
X142158714Y-68758138D01*
X142236518Y-68708072D01*
X142288715Y-68631680D01*
X142307078Y-68541000D01*
X142307078Y-66841000D01*
X142291138Y-66756286D01*
X142241072Y-66678482D01*
X142164680Y-66626285D01*
X142074000Y-66607922D01*
X140374000Y-66607922D01*
X140289286Y-66623862D01*
X140211482Y-66673928D01*
X140159285Y-66750320D01*
X140140922Y-66841000D01*
X139495600Y-66841000D01*
X139495600Y-60612743D01*
X142257100Y-60612743D01*
X142257100Y-55222684D01*
X145775308Y-55222684D01*
X145855613Y-55417037D01*
X146004181Y-55565864D01*
X146198394Y-55646508D01*
X146408684Y-55646692D01*
X146603037Y-55566387D01*
X146751864Y-55417819D01*
X146832508Y-55223606D01*
X146832654Y-55056319D01*
X146959777Y-54929196D01*
X148766665Y-54929196D01*
X148696492Y-55098191D01*
X148696308Y-55308481D01*
X148776613Y-55502834D01*
X148879047Y-55605447D01*
X148777136Y-55707181D01*
X148696492Y-55901394D01*
X148696308Y-56111684D01*
X148776613Y-56306037D01*
X148894800Y-56424430D01*
X148894800Y-64262000D01*
X148919935Y-64388362D01*
X148991513Y-64495487D01*
X152612038Y-68116012D01*
X152570269Y-68326000D01*
X152652373Y-68738762D01*
X152886184Y-69088685D01*
X153236107Y-69322496D01*
X153648869Y-69404600D01*
X153691131Y-69404600D01*
X154103893Y-69322496D01*
X154453816Y-69088685D01*
X154687627Y-68738762D01*
X154769731Y-68326000D01*
X154687627Y-67913238D01*
X154453816Y-67563315D01*
X154103893Y-67329504D01*
X153691131Y-67247400D01*
X153648869Y-67247400D01*
X153236107Y-67329504D01*
X152950389Y-67520415D01*
X149555200Y-64125226D01*
X149555200Y-62646174D01*
X150032921Y-63123894D01*
X150032923Y-63123897D01*
X150140048Y-63195475D01*
X150254210Y-63218184D01*
X152612039Y-65576012D01*
X152570269Y-65786000D01*
X152652373Y-66198762D01*
X152886184Y-66548685D01*
X153236107Y-66782496D01*
X153648869Y-66864600D01*
X153691131Y-66864600D01*
X154103893Y-66782496D01*
X154453816Y-66548685D01*
X154687627Y-66198762D01*
X154769731Y-65786000D01*
X154687627Y-65373238D01*
X154453816Y-65023315D01*
X154103893Y-64789504D01*
X153691131Y-64707400D01*
X153648869Y-64707400D01*
X153236107Y-64789504D01*
X152950388Y-64980415D01*
X150626897Y-62656923D01*
X150519772Y-62585345D01*
X150405610Y-62562637D01*
X149961610Y-62118636D01*
X149961610Y-60385584D01*
X152612038Y-63036012D01*
X152570269Y-63246000D01*
X152652373Y-63658762D01*
X152886184Y-64008685D01*
X153236107Y-64242496D01*
X153648869Y-64324600D01*
X153691131Y-64324600D01*
X154103893Y-64242496D01*
X154453816Y-64008685D01*
X154687627Y-63658762D01*
X154769731Y-63246000D01*
X154687627Y-62833238D01*
X154453816Y-62483315D01*
X154103893Y-62249504D01*
X153691131Y-62167400D01*
X153648869Y-62167400D01*
X153236107Y-62249504D01*
X152950389Y-62440415D01*
X150368020Y-59858046D01*
X150368020Y-57362954D01*
X150469695Y-57261278D01*
X150469698Y-57261276D01*
X150541276Y-57154151D01*
X150566411Y-57027789D01*
X150566411Y-55716704D01*
X150683485Y-55668330D01*
X150683485Y-58430685D01*
X150708620Y-58557047D01*
X150780198Y-58664172D01*
X152612039Y-60496012D01*
X152570269Y-60706000D01*
X152652373Y-61118762D01*
X152886184Y-61468685D01*
X153236107Y-61702496D01*
X153648869Y-61784600D01*
X153691131Y-61784600D01*
X154103893Y-61702496D01*
X154453816Y-61468685D01*
X154687627Y-61118762D01*
X154769731Y-60706000D01*
X154687627Y-60293238D01*
X154453816Y-59943315D01*
X154103893Y-59709504D01*
X153691131Y-59627400D01*
X153648869Y-59627400D01*
X153236107Y-59709504D01*
X152950388Y-59900415D01*
X151558007Y-58508033D01*
X152647068Y-58508033D01*
X152704809Y-58647480D01*
X152962534Y-58980192D01*
X153327964Y-59188951D01*
X153492200Y-59172713D01*
X153492200Y-58343800D01*
X153847800Y-58343800D01*
X153847800Y-59172713D01*
X154012036Y-59188951D01*
X154377466Y-58980192D01*
X154635191Y-58647480D01*
X154692932Y-58508033D01*
X154675856Y-58343800D01*
X153847800Y-58343800D01*
X153492200Y-58343800D01*
X152664144Y-58343800D01*
X152647068Y-58508033D01*
X151558007Y-58508033D01*
X151343885Y-58293911D01*
X151343885Y-57823967D01*
X152647068Y-57823967D01*
X152664144Y-57988200D01*
X153492200Y-57988200D01*
X153492200Y-57159287D01*
X153847800Y-57159287D01*
X153847800Y-57988200D01*
X154675856Y-57988200D01*
X154692932Y-57823967D01*
X154635191Y-57684520D01*
X154377466Y-57351808D01*
X154012036Y-57143049D01*
X153847800Y-57159287D01*
X153492200Y-57159287D01*
X153327964Y-57143049D01*
X152962534Y-57351808D01*
X152704809Y-57684520D01*
X152647068Y-57823967D01*
X151343885Y-57823967D01*
X151343885Y-54919541D01*
X151318750Y-54793179D01*
X151307272Y-54776000D01*
X152586922Y-54776000D01*
X152586922Y-56476000D01*
X152602862Y-56560714D01*
X152652928Y-56638518D01*
X152729320Y-56690715D01*
X152820000Y-56709078D01*
X154520000Y-56709078D01*
X154604714Y-56693138D01*
X154682518Y-56643072D01*
X154734715Y-56566680D01*
X154753078Y-56476000D01*
X154753078Y-54776000D01*
X154737138Y-54691286D01*
X154687072Y-54613482D01*
X154610680Y-54561285D01*
X154520000Y-54542922D01*
X152820000Y-54542922D01*
X152735286Y-54558862D01*
X152657482Y-54608928D01*
X152605285Y-54685320D01*
X152586922Y-54776000D01*
X151307272Y-54776000D01*
X151247172Y-54686054D01*
X150926627Y-54365509D01*
X150819502Y-54293931D01*
X150693140Y-54268796D01*
X146823004Y-54268796D01*
X146696642Y-54293931D01*
X146589517Y-54365509D01*
X146589515Y-54365512D01*
X146365573Y-54589453D01*
X146199316Y-54589308D01*
X146004963Y-54669613D01*
X145856136Y-54818181D01*
X145775492Y-55012394D01*
X145775308Y-55222684D01*
X142257100Y-55222684D01*
X142257100Y-54151600D01*
X155144400Y-54151600D01*
X155144400Y-74880400D01*
X155144400Y-74880400D01*
G37*
X155144400Y-74880400D02*
X139495600Y-74880400D01*
X139495600Y-73406000D01*
X152570269Y-73406000D01*
X152652373Y-73818762D01*
X152886184Y-74168685D01*
X153236107Y-74402496D01*
X153648869Y-74484600D01*
X153691131Y-74484600D01*
X154103893Y-74402496D01*
X154453816Y-74168685D01*
X154687627Y-73818762D01*
X154769731Y-73406000D01*
X154687627Y-72993238D01*
X154453816Y-72643315D01*
X154103893Y-72409504D01*
X153691131Y-72327400D01*
X153648869Y-72327400D01*
X153236107Y-72409504D01*
X152886184Y-72643315D01*
X152652373Y-72993238D01*
X152570269Y-73406000D01*
X139495600Y-73406000D01*
X139495600Y-70866000D01*
X152570269Y-70866000D01*
X152652373Y-71278762D01*
X152886184Y-71628685D01*
X153236107Y-71862496D01*
X153648869Y-71944600D01*
X153691131Y-71944600D01*
X154103893Y-71862496D01*
X154453816Y-71628685D01*
X154687627Y-71278762D01*
X154769731Y-70866000D01*
X154687627Y-70453238D01*
X154453816Y-70103315D01*
X154103893Y-69869504D01*
X153691131Y-69787400D01*
X153648869Y-69787400D01*
X153236107Y-69869504D01*
X152886184Y-70103315D01*
X152652373Y-70453238D01*
X152570269Y-70866000D01*
X139495600Y-70866000D01*
X139495600Y-66841000D01*
X140140922Y-66841000D01*
X140140922Y-68541000D01*
X140156862Y-68625714D01*
X140206928Y-68703518D01*
X140283320Y-68755715D01*
X140374000Y-68774078D01*
X142074000Y-68774078D01*
X142158714Y-68758138D01*
X142236518Y-68708072D01*
X142288715Y-68631680D01*
X142307078Y-68541000D01*
X142307078Y-66841000D01*
X142291138Y-66756286D01*
X142241072Y-66678482D01*
X142164680Y-66626285D01*
X142074000Y-66607922D01*
X140374000Y-66607922D01*
X140289286Y-66623862D01*
X140211482Y-66673928D01*
X140159285Y-66750320D01*
X140140922Y-66841000D01*
X139495600Y-66841000D01*
X139495600Y-60612743D01*
X142257100Y-60612743D01*
X142257100Y-55222684D01*
X145775308Y-55222684D01*
X145855613Y-55417037D01*
X146004181Y-55565864D01*
X146198394Y-55646508D01*
X146408684Y-55646692D01*
X146603037Y-55566387D01*
X146751864Y-55417819D01*
X146832508Y-55223606D01*
X146832654Y-55056319D01*
X146959777Y-54929196D01*
X148766665Y-54929196D01*
X148696492Y-55098191D01*
X148696308Y-55308481D01*
X148776613Y-55502834D01*
X148879047Y-55605447D01*
X148777136Y-55707181D01*
X148696492Y-55901394D01*
X148696308Y-56111684D01*
X148776613Y-56306037D01*
X148894800Y-56424430D01*
X148894800Y-64262000D01*
X148919935Y-64388362D01*
X148991513Y-64495487D01*
X152612038Y-68116012D01*
X152570269Y-68326000D01*
X152652373Y-68738762D01*
X152886184Y-69088685D01*
X153236107Y-69322496D01*
X153648869Y-69404600D01*
X153691131Y-69404600D01*
X154103893Y-69322496D01*
X154453816Y-69088685D01*
X154687627Y-68738762D01*
X154769731Y-68326000D01*
X154687627Y-67913238D01*
X154453816Y-67563315D01*
X154103893Y-67329504D01*
X153691131Y-67247400D01*
X153648869Y-67247400D01*
X153236107Y-67329504D01*
X152950389Y-67520415D01*
X149555200Y-64125226D01*
X149555200Y-62646174D01*
X150032921Y-63123894D01*
X150032923Y-63123897D01*
X150140048Y-63195475D01*
X150254210Y-63218184D01*
X152612039Y-65576012D01*
X152570269Y-65786000D01*
X152652373Y-66198762D01*
X152886184Y-66548685D01*
X153236107Y-66782496D01*
X153648869Y-66864600D01*
X153691131Y-66864600D01*
X154103893Y-66782496D01*
X154453816Y-66548685D01*
X154687627Y-66198762D01*
X154769731Y-65786000D01*
X154687627Y-65373238D01*
X154453816Y-65023315D01*
X154103893Y-64789504D01*
X153691131Y-64707400D01*
X153648869Y-64707400D01*
X153236107Y-64789504D01*
X152950388Y-64980415D01*
X150626897Y-62656923D01*
X150519772Y-62585345D01*
X150405610Y-62562637D01*
X149961610Y-62118636D01*
X149961610Y-60385584D01*
X152612038Y-63036012D01*
X152570269Y-63246000D01*
X152652373Y-63658762D01*
X152886184Y-64008685D01*
X153236107Y-64242496D01*
X153648869Y-64324600D01*
X153691131Y-64324600D01*
X154103893Y-64242496D01*
X154453816Y-64008685D01*
X154687627Y-63658762D01*
X154769731Y-63246000D01*
X154687627Y-62833238D01*
X154453816Y-62483315D01*
X154103893Y-62249504D01*
X153691131Y-62167400D01*
X153648869Y-62167400D01*
X153236107Y-62249504D01*
X152950389Y-62440415D01*
X150368020Y-59858046D01*
X150368020Y-57362954D01*
X150469695Y-57261278D01*
X150469698Y-57261276D01*
X150541276Y-57154151D01*
X150566411Y-57027789D01*
X150566411Y-55716704D01*
X150683485Y-55668330D01*
X150683485Y-58430685D01*
X150708620Y-58557047D01*
X150780198Y-58664172D01*
X152612039Y-60496012D01*
X152570269Y-60706000D01*
X152652373Y-61118762D01*
X152886184Y-61468685D01*
X153236107Y-61702496D01*
X153648869Y-61784600D01*
X153691131Y-61784600D01*
X154103893Y-61702496D01*
X154453816Y-61468685D01*
X154687627Y-61118762D01*
X154769731Y-60706000D01*
X154687627Y-60293238D01*
X154453816Y-59943315D01*
X154103893Y-59709504D01*
X153691131Y-59627400D01*
X153648869Y-59627400D01*
X153236107Y-59709504D01*
X152950388Y-59900415D01*
X151558007Y-58508033D01*
X152647068Y-58508033D01*
X152704809Y-58647480D01*
X152962534Y-58980192D01*
X153327964Y-59188951D01*
X153492200Y-59172713D01*
X153492200Y-58343800D01*
X153847800Y-58343800D01*
X153847800Y-59172713D01*
X154012036Y-59188951D01*
X154377466Y-58980192D01*
X154635191Y-58647480D01*
X154692932Y-58508033D01*
X154675856Y-58343800D01*
X153847800Y-58343800D01*
X153492200Y-58343800D01*
X152664144Y-58343800D01*
X152647068Y-58508033D01*
X151558007Y-58508033D01*
X151343885Y-58293911D01*
X151343885Y-57823967D01*
X152647068Y-57823967D01*
X152664144Y-57988200D01*
X153492200Y-57988200D01*
X153492200Y-57159287D01*
X153847800Y-57159287D01*
X153847800Y-57988200D01*
X154675856Y-57988200D01*
X154692932Y-57823967D01*
X154635191Y-57684520D01*
X154377466Y-57351808D01*
X154012036Y-57143049D01*
X153847800Y-57159287D01*
X153492200Y-57159287D01*
X153327964Y-57143049D01*
X152962534Y-57351808D01*
X152704809Y-57684520D01*
X152647068Y-57823967D01*
X151343885Y-57823967D01*
X151343885Y-54919541D01*
X151318750Y-54793179D01*
X151307272Y-54776000D01*
X152586922Y-54776000D01*
X152586922Y-56476000D01*
X152602862Y-56560714D01*
X152652928Y-56638518D01*
X152729320Y-56690715D01*
X152820000Y-56709078D01*
X154520000Y-56709078D01*
X154604714Y-56693138D01*
X154682518Y-56643072D01*
X154734715Y-56566680D01*
X154753078Y-56476000D01*
X154753078Y-54776000D01*
X154737138Y-54691286D01*
X154687072Y-54613482D01*
X154610680Y-54561285D01*
X154520000Y-54542922D01*
X152820000Y-54542922D01*
X152735286Y-54558862D01*
X152657482Y-54608928D01*
X152605285Y-54685320D01*
X152586922Y-54776000D01*
X151307272Y-54776000D01*
X151247172Y-54686054D01*
X150926627Y-54365509D01*
X150819502Y-54293931D01*
X150693140Y-54268796D01*
X146823004Y-54268796D01*
X146696642Y-54293931D01*
X146589517Y-54365509D01*
X146589515Y-54365512D01*
X146365573Y-54589453D01*
X146199316Y-54589308D01*
X146004963Y-54669613D01*
X145856136Y-54818181D01*
X145775492Y-55012394D01*
X145775308Y-55222684D01*
X142257100Y-55222684D01*
X142257100Y-54151600D01*
X155144400Y-54151600D01*
X155144400Y-74880400D01*
G36*
X173940400Y-74880400D02*
X158291600Y-74880400D01*
X158291600Y-73406000D01*
X171366269Y-73406000D01*
X171448373Y-73818762D01*
X171682184Y-74168685D01*
X172032107Y-74402496D01*
X172444869Y-74484600D01*
X172487131Y-74484600D01*
X172899893Y-74402496D01*
X173249816Y-74168685D01*
X173483627Y-73818762D01*
X173565731Y-73406000D01*
X173483627Y-72993238D01*
X173249816Y-72643315D01*
X172899893Y-72409504D01*
X172487131Y-72327400D01*
X172444869Y-72327400D01*
X172032107Y-72409504D01*
X171682184Y-72643315D01*
X171448373Y-72993238D01*
X171366269Y-73406000D01*
X158291600Y-73406000D01*
X158291600Y-70866000D01*
X171366269Y-70866000D01*
X171448373Y-71278762D01*
X171682184Y-71628685D01*
X172032107Y-71862496D01*
X172444869Y-71944600D01*
X172487131Y-71944600D01*
X172899893Y-71862496D01*
X173249816Y-71628685D01*
X173483627Y-71278762D01*
X173565731Y-70866000D01*
X173483627Y-70453238D01*
X173249816Y-70103315D01*
X172899893Y-69869504D01*
X172487131Y-69787400D01*
X172444869Y-69787400D01*
X172032107Y-69869504D01*
X171682184Y-70103315D01*
X171448373Y-70453238D01*
X171366269Y-70866000D01*
X158291600Y-70866000D01*
X158291600Y-66841000D01*
X158936922Y-66841000D01*
X158936922Y-68541000D01*
X158952862Y-68625714D01*
X159002928Y-68703518D01*
X159079320Y-68755715D01*
X159170000Y-68774078D01*
X160870000Y-68774078D01*
X160954714Y-68758138D01*
X161032518Y-68708072D01*
X161084715Y-68631680D01*
X161103078Y-68541000D01*
X161103078Y-66841000D01*
X161087138Y-66756286D01*
X161037072Y-66678482D01*
X160960680Y-66626285D01*
X160870000Y-66607922D01*
X159170000Y-66607922D01*
X159085286Y-66623862D01*
X159007482Y-66673928D01*
X158955285Y-66750320D01*
X158936922Y-66841000D01*
X158291600Y-66841000D01*
X158291600Y-60612743D01*
X161053100Y-60612743D01*
X161053100Y-55222684D01*
X164571308Y-55222684D01*
X164651613Y-55417037D01*
X164800181Y-55565864D01*
X164994394Y-55646508D01*
X165204684Y-55646692D01*
X165399037Y-55566387D01*
X165547864Y-55417819D01*
X165628508Y-55223606D01*
X165628654Y-55056319D01*
X165755777Y-54929196D01*
X167562665Y-54929196D01*
X167492492Y-55098191D01*
X167492308Y-55308481D01*
X167572613Y-55502834D01*
X167675047Y-55605447D01*
X167573136Y-55707181D01*
X167492492Y-55901394D01*
X167492308Y-56111684D01*
X167572613Y-56306037D01*
X167690800Y-56424430D01*
X167690800Y-64262000D01*
X167715935Y-64388362D01*
X167787513Y-64495487D01*
X171408038Y-68116012D01*
X171366269Y-68326000D01*
X171448373Y-68738762D01*
X171682184Y-69088685D01*
X172032107Y-69322496D01*
X172444869Y-69404600D01*
X172487131Y-69404600D01*
X172899893Y-69322496D01*
X173249816Y-69088685D01*
X173483627Y-68738762D01*
X173565731Y-68326000D01*
X173483627Y-67913238D01*
X173249816Y-67563315D01*
X172899893Y-67329504D01*
X172487131Y-67247400D01*
X172444869Y-67247400D01*
X172032107Y-67329504D01*
X171746389Y-67520415D01*
X168351200Y-64125226D01*
X168351200Y-62646174D01*
X168828921Y-63123894D01*
X168828923Y-63123897D01*
X168936048Y-63195475D01*
X169050210Y-63218184D01*
X171408039Y-65576012D01*
X171366269Y-65786000D01*
X171448373Y-66198762D01*
X171682184Y-66548685D01*
X172032107Y-66782496D01*
X172444869Y-66864600D01*
X172487131Y-66864600D01*
X172899893Y-66782496D01*
X173249816Y-66548685D01*
X173483627Y-66198762D01*
X173565731Y-65786000D01*
X173483627Y-65373238D01*
X173249816Y-65023315D01*
X172899893Y-64789504D01*
X172487131Y-64707400D01*
X172444869Y-64707400D01*
X172032107Y-64789504D01*
X171746388Y-64980415D01*
X169422897Y-62656923D01*
X169315772Y-62585345D01*
X169201610Y-62562637D01*
X168757610Y-62118636D01*
X168757610Y-60385584D01*
X171408038Y-63036012D01*
X171366269Y-63246000D01*
X171448373Y-63658762D01*
X171682184Y-64008685D01*
X172032107Y-64242496D01*
X172444869Y-64324600D01*
X172487131Y-64324600D01*
X172899893Y-64242496D01*
X173249816Y-64008685D01*
X173483627Y-63658762D01*
X173565731Y-63246000D01*
X173483627Y-62833238D01*
X173249816Y-62483315D01*
X172899893Y-62249504D01*
X172487131Y-62167400D01*
X172444869Y-62167400D01*
X172032107Y-62249504D01*
X171746389Y-62440415D01*
X169164020Y-59858046D01*
X169164020Y-57362954D01*
X169265695Y-57261278D01*
X169265698Y-57261276D01*
X169337276Y-57154151D01*
X169362411Y-57027789D01*
X169362411Y-55716704D01*
X169479485Y-55668330D01*
X169479485Y-58430685D01*
X169504620Y-58557047D01*
X169576198Y-58664172D01*
X171408039Y-60496012D01*
X171366269Y-60706000D01*
X171448373Y-61118762D01*
X171682184Y-61468685D01*
X172032107Y-61702496D01*
X172444869Y-61784600D01*
X172487131Y-61784600D01*
X172899893Y-61702496D01*
X173249816Y-61468685D01*
X173483627Y-61118762D01*
X173565731Y-60706000D01*
X173483627Y-60293238D01*
X173249816Y-59943315D01*
X172899893Y-59709504D01*
X172487131Y-59627400D01*
X172444869Y-59627400D01*
X172032107Y-59709504D01*
X171746388Y-59900415D01*
X170354007Y-58508033D01*
X171443068Y-58508033D01*
X171500809Y-58647480D01*
X171758534Y-58980192D01*
X172123964Y-59188951D01*
X172288200Y-59172713D01*
X172288200Y-58343800D01*
X172643800Y-58343800D01*
X172643800Y-59172713D01*
X172808036Y-59188951D01*
X173173466Y-58980192D01*
X173431191Y-58647480D01*
X173488932Y-58508033D01*
X173471856Y-58343800D01*
X172643800Y-58343800D01*
X172288200Y-58343800D01*
X171460144Y-58343800D01*
X171443068Y-58508033D01*
X170354007Y-58508033D01*
X170139885Y-58293911D01*
X170139885Y-57823967D01*
X171443068Y-57823967D01*
X171460144Y-57988200D01*
X172288200Y-57988200D01*
X172288200Y-57159287D01*
X172643800Y-57159287D01*
X172643800Y-57988200D01*
X173471856Y-57988200D01*
X173488932Y-57823967D01*
X173431191Y-57684520D01*
X173173466Y-57351808D01*
X172808036Y-57143049D01*
X172643800Y-57159287D01*
X172288200Y-57159287D01*
X172123964Y-57143049D01*
X171758534Y-57351808D01*
X171500809Y-57684520D01*
X171443068Y-57823967D01*
X170139885Y-57823967D01*
X170139885Y-54919541D01*
X170114750Y-54793179D01*
X170103272Y-54776000D01*
X171382922Y-54776000D01*
X171382922Y-56476000D01*
X171398862Y-56560714D01*
X171448928Y-56638518D01*
X171525320Y-56690715D01*
X171616000Y-56709078D01*
X173316000Y-56709078D01*
X173400714Y-56693138D01*
X173478518Y-56643072D01*
X173530715Y-56566680D01*
X173549078Y-56476000D01*
X173549078Y-54776000D01*
X173533138Y-54691286D01*
X173483072Y-54613482D01*
X173406680Y-54561285D01*
X173316000Y-54542922D01*
X171616000Y-54542922D01*
X171531286Y-54558862D01*
X171453482Y-54608928D01*
X171401285Y-54685320D01*
X171382922Y-54776000D01*
X170103272Y-54776000D01*
X170043172Y-54686054D01*
X169722627Y-54365509D01*
X169615502Y-54293931D01*
X169489140Y-54268796D01*
X165619004Y-54268796D01*
X165492642Y-54293931D01*
X165385517Y-54365509D01*
X165385515Y-54365512D01*
X165161573Y-54589453D01*
X164995316Y-54589308D01*
X164800963Y-54669613D01*
X164652136Y-54818181D01*
X164571492Y-55012394D01*
X164571308Y-55222684D01*
X161053100Y-55222684D01*
X161053100Y-54151600D01*
X173940400Y-54151600D01*
X173940400Y-74880400D01*
X173940400Y-74880400D01*
G37*
X173940400Y-74880400D02*
X158291600Y-74880400D01*
X158291600Y-73406000D01*
X171366269Y-73406000D01*
X171448373Y-73818762D01*
X171682184Y-74168685D01*
X172032107Y-74402496D01*
X172444869Y-74484600D01*
X172487131Y-74484600D01*
X172899893Y-74402496D01*
X173249816Y-74168685D01*
X173483627Y-73818762D01*
X173565731Y-73406000D01*
X173483627Y-72993238D01*
X173249816Y-72643315D01*
X172899893Y-72409504D01*
X172487131Y-72327400D01*
X172444869Y-72327400D01*
X172032107Y-72409504D01*
X171682184Y-72643315D01*
X171448373Y-72993238D01*
X171366269Y-73406000D01*
X158291600Y-73406000D01*
X158291600Y-70866000D01*
X171366269Y-70866000D01*
X171448373Y-71278762D01*
X171682184Y-71628685D01*
X172032107Y-71862496D01*
X172444869Y-71944600D01*
X172487131Y-71944600D01*
X172899893Y-71862496D01*
X173249816Y-71628685D01*
X173483627Y-71278762D01*
X173565731Y-70866000D01*
X173483627Y-70453238D01*
X173249816Y-70103315D01*
X172899893Y-69869504D01*
X172487131Y-69787400D01*
X172444869Y-69787400D01*
X172032107Y-69869504D01*
X171682184Y-70103315D01*
X171448373Y-70453238D01*
X171366269Y-70866000D01*
X158291600Y-70866000D01*
X158291600Y-66841000D01*
X158936922Y-66841000D01*
X158936922Y-68541000D01*
X158952862Y-68625714D01*
X159002928Y-68703518D01*
X159079320Y-68755715D01*
X159170000Y-68774078D01*
X160870000Y-68774078D01*
X160954714Y-68758138D01*
X161032518Y-68708072D01*
X161084715Y-68631680D01*
X161103078Y-68541000D01*
X161103078Y-66841000D01*
X161087138Y-66756286D01*
X161037072Y-66678482D01*
X160960680Y-66626285D01*
X160870000Y-66607922D01*
X159170000Y-66607922D01*
X159085286Y-66623862D01*
X159007482Y-66673928D01*
X158955285Y-66750320D01*
X158936922Y-66841000D01*
X158291600Y-66841000D01*
X158291600Y-60612743D01*
X161053100Y-60612743D01*
X161053100Y-55222684D01*
X164571308Y-55222684D01*
X164651613Y-55417037D01*
X164800181Y-55565864D01*
X164994394Y-55646508D01*
X165204684Y-55646692D01*
X165399037Y-55566387D01*
X165547864Y-55417819D01*
X165628508Y-55223606D01*
X165628654Y-55056319D01*
X165755777Y-54929196D01*
X167562665Y-54929196D01*
X167492492Y-55098191D01*
X167492308Y-55308481D01*
X167572613Y-55502834D01*
X167675047Y-55605447D01*
X167573136Y-55707181D01*
X167492492Y-55901394D01*
X167492308Y-56111684D01*
X167572613Y-56306037D01*
X167690800Y-56424430D01*
X167690800Y-64262000D01*
X167715935Y-64388362D01*
X167787513Y-64495487D01*
X171408038Y-68116012D01*
X171366269Y-68326000D01*
X171448373Y-68738762D01*
X171682184Y-69088685D01*
X172032107Y-69322496D01*
X172444869Y-69404600D01*
X172487131Y-69404600D01*
X172899893Y-69322496D01*
X173249816Y-69088685D01*
X173483627Y-68738762D01*
X173565731Y-68326000D01*
X173483627Y-67913238D01*
X173249816Y-67563315D01*
X172899893Y-67329504D01*
X172487131Y-67247400D01*
X172444869Y-67247400D01*
X172032107Y-67329504D01*
X171746389Y-67520415D01*
X168351200Y-64125226D01*
X168351200Y-62646174D01*
X168828921Y-63123894D01*
X168828923Y-63123897D01*
X168936048Y-63195475D01*
X169050210Y-63218184D01*
X171408039Y-65576012D01*
X171366269Y-65786000D01*
X171448373Y-66198762D01*
X171682184Y-66548685D01*
X172032107Y-66782496D01*
X172444869Y-66864600D01*
X172487131Y-66864600D01*
X172899893Y-66782496D01*
X173249816Y-66548685D01*
X173483627Y-66198762D01*
X173565731Y-65786000D01*
X173483627Y-65373238D01*
X173249816Y-65023315D01*
X172899893Y-64789504D01*
X172487131Y-64707400D01*
X172444869Y-64707400D01*
X172032107Y-64789504D01*
X171746388Y-64980415D01*
X169422897Y-62656923D01*
X169315772Y-62585345D01*
X169201610Y-62562637D01*
X168757610Y-62118636D01*
X168757610Y-60385584D01*
X171408038Y-63036012D01*
X171366269Y-63246000D01*
X171448373Y-63658762D01*
X171682184Y-64008685D01*
X172032107Y-64242496D01*
X172444869Y-64324600D01*
X172487131Y-64324600D01*
X172899893Y-64242496D01*
X173249816Y-64008685D01*
X173483627Y-63658762D01*
X173565731Y-63246000D01*
X173483627Y-62833238D01*
X173249816Y-62483315D01*
X172899893Y-62249504D01*
X172487131Y-62167400D01*
X172444869Y-62167400D01*
X172032107Y-62249504D01*
X171746389Y-62440415D01*
X169164020Y-59858046D01*
X169164020Y-57362954D01*
X169265695Y-57261278D01*
X169265698Y-57261276D01*
X169337276Y-57154151D01*
X169362411Y-57027789D01*
X169362411Y-55716704D01*
X169479485Y-55668330D01*
X169479485Y-58430685D01*
X169504620Y-58557047D01*
X169576198Y-58664172D01*
X171408039Y-60496012D01*
X171366269Y-60706000D01*
X171448373Y-61118762D01*
X171682184Y-61468685D01*
X172032107Y-61702496D01*
X172444869Y-61784600D01*
X172487131Y-61784600D01*
X172899893Y-61702496D01*
X173249816Y-61468685D01*
X173483627Y-61118762D01*
X173565731Y-60706000D01*
X173483627Y-60293238D01*
X173249816Y-59943315D01*
X172899893Y-59709504D01*
X172487131Y-59627400D01*
X172444869Y-59627400D01*
X172032107Y-59709504D01*
X171746388Y-59900415D01*
X170354007Y-58508033D01*
X171443068Y-58508033D01*
X171500809Y-58647480D01*
X171758534Y-58980192D01*
X172123964Y-59188951D01*
X172288200Y-59172713D01*
X172288200Y-58343800D01*
X172643800Y-58343800D01*
X172643800Y-59172713D01*
X172808036Y-59188951D01*
X173173466Y-58980192D01*
X173431191Y-58647480D01*
X173488932Y-58508033D01*
X173471856Y-58343800D01*
X172643800Y-58343800D01*
X172288200Y-58343800D01*
X171460144Y-58343800D01*
X171443068Y-58508033D01*
X170354007Y-58508033D01*
X170139885Y-58293911D01*
X170139885Y-57823967D01*
X171443068Y-57823967D01*
X171460144Y-57988200D01*
X172288200Y-57988200D01*
X172288200Y-57159287D01*
X172643800Y-57159287D01*
X172643800Y-57988200D01*
X173471856Y-57988200D01*
X173488932Y-57823967D01*
X173431191Y-57684520D01*
X173173466Y-57351808D01*
X172808036Y-57143049D01*
X172643800Y-57159287D01*
X172288200Y-57159287D01*
X172123964Y-57143049D01*
X171758534Y-57351808D01*
X171500809Y-57684520D01*
X171443068Y-57823967D01*
X170139885Y-57823967D01*
X170139885Y-54919541D01*
X170114750Y-54793179D01*
X170103272Y-54776000D01*
X171382922Y-54776000D01*
X171382922Y-56476000D01*
X171398862Y-56560714D01*
X171448928Y-56638518D01*
X171525320Y-56690715D01*
X171616000Y-56709078D01*
X173316000Y-56709078D01*
X173400714Y-56693138D01*
X173478518Y-56643072D01*
X173530715Y-56566680D01*
X173549078Y-56476000D01*
X173549078Y-54776000D01*
X173533138Y-54691286D01*
X173483072Y-54613482D01*
X173406680Y-54561285D01*
X173316000Y-54542922D01*
X171616000Y-54542922D01*
X171531286Y-54558862D01*
X171453482Y-54608928D01*
X171401285Y-54685320D01*
X171382922Y-54776000D01*
X170103272Y-54776000D01*
X170043172Y-54686054D01*
X169722627Y-54365509D01*
X169615502Y-54293931D01*
X169489140Y-54268796D01*
X165619004Y-54268796D01*
X165492642Y-54293931D01*
X165385517Y-54365509D01*
X165385515Y-54365512D01*
X165161573Y-54589453D01*
X164995316Y-54589308D01*
X164800963Y-54669613D01*
X164652136Y-54818181D01*
X164571492Y-55012394D01*
X164571308Y-55222684D01*
X161053100Y-55222684D01*
X161053100Y-54151600D01*
X173940400Y-54151600D01*
X173940400Y-74880400D01*
G36*
X173940400Y-98756400D02*
X158291600Y-98756400D01*
X158291600Y-97282000D01*
X171366269Y-97282000D01*
X171448373Y-97694762D01*
X171682184Y-98044685D01*
X172032107Y-98278496D01*
X172444869Y-98360600D01*
X172487131Y-98360600D01*
X172899893Y-98278496D01*
X173249816Y-98044685D01*
X173483627Y-97694762D01*
X173565731Y-97282000D01*
X173483627Y-96869238D01*
X173249816Y-96519315D01*
X172899893Y-96285504D01*
X172487131Y-96203400D01*
X172444869Y-96203400D01*
X172032107Y-96285504D01*
X171682184Y-96519315D01*
X171448373Y-96869238D01*
X171366269Y-97282000D01*
X158291600Y-97282000D01*
X158291600Y-94742000D01*
X171366269Y-94742000D01*
X171448373Y-95154762D01*
X171682184Y-95504685D01*
X172032107Y-95738496D01*
X172444869Y-95820600D01*
X172487131Y-95820600D01*
X172899893Y-95738496D01*
X173249816Y-95504685D01*
X173483627Y-95154762D01*
X173565731Y-94742000D01*
X173483627Y-94329238D01*
X173249816Y-93979315D01*
X172899893Y-93745504D01*
X172487131Y-93663400D01*
X172444869Y-93663400D01*
X172032107Y-93745504D01*
X171682184Y-93979315D01*
X171448373Y-94329238D01*
X171366269Y-94742000D01*
X158291600Y-94742000D01*
X158291600Y-90717000D01*
X158936922Y-90717000D01*
X158936922Y-92417000D01*
X158952862Y-92501714D01*
X159002928Y-92579518D01*
X159079320Y-92631715D01*
X159170000Y-92650078D01*
X160870000Y-92650078D01*
X160954714Y-92634138D01*
X161032518Y-92584072D01*
X161084715Y-92507680D01*
X161103078Y-92417000D01*
X161103078Y-90717000D01*
X161087138Y-90632286D01*
X161037072Y-90554482D01*
X160960680Y-90502285D01*
X160870000Y-90483922D01*
X159170000Y-90483922D01*
X159085286Y-90499862D01*
X159007482Y-90549928D01*
X158955285Y-90626320D01*
X158936922Y-90717000D01*
X158291600Y-90717000D01*
X158291600Y-84488743D01*
X161053100Y-84488743D01*
X161053100Y-79098684D01*
X164571308Y-79098684D01*
X164651613Y-79293037D01*
X164800181Y-79441864D01*
X164994394Y-79522508D01*
X165204684Y-79522692D01*
X165399037Y-79442387D01*
X165547864Y-79293819D01*
X165628508Y-79099606D01*
X165628654Y-78932319D01*
X165755777Y-78805196D01*
X167562665Y-78805196D01*
X167492492Y-78974191D01*
X167492308Y-79184481D01*
X167572613Y-79378834D01*
X167675047Y-79481447D01*
X167573136Y-79583181D01*
X167492492Y-79777394D01*
X167492308Y-79987684D01*
X167572613Y-80182037D01*
X167690800Y-80300430D01*
X167690800Y-88138000D01*
X167715935Y-88264362D01*
X167787513Y-88371487D01*
X171408038Y-91992012D01*
X171366269Y-92202000D01*
X171448373Y-92614762D01*
X171682184Y-92964685D01*
X172032107Y-93198496D01*
X172444869Y-93280600D01*
X172487131Y-93280600D01*
X172899893Y-93198496D01*
X173249816Y-92964685D01*
X173483627Y-92614762D01*
X173565731Y-92202000D01*
X173483627Y-91789238D01*
X173249816Y-91439315D01*
X172899893Y-91205504D01*
X172487131Y-91123400D01*
X172444869Y-91123400D01*
X172032107Y-91205504D01*
X171746389Y-91396415D01*
X168351200Y-88001226D01*
X168351200Y-86522174D01*
X168828921Y-86999894D01*
X168828923Y-86999897D01*
X168936048Y-87071475D01*
X169050210Y-87094184D01*
X171408039Y-89452012D01*
X171366269Y-89662000D01*
X171448373Y-90074762D01*
X171682184Y-90424685D01*
X172032107Y-90658496D01*
X172444869Y-90740600D01*
X172487131Y-90740600D01*
X172899893Y-90658496D01*
X173249816Y-90424685D01*
X173483627Y-90074762D01*
X173565731Y-89662000D01*
X173483627Y-89249238D01*
X173249816Y-88899315D01*
X172899893Y-88665504D01*
X172487131Y-88583400D01*
X172444869Y-88583400D01*
X172032107Y-88665504D01*
X171746388Y-88856415D01*
X169422897Y-86532923D01*
X169315772Y-86461345D01*
X169201610Y-86438637D01*
X168757610Y-85994636D01*
X168757610Y-84261584D01*
X171408038Y-86912012D01*
X171366269Y-87122000D01*
X171448373Y-87534762D01*
X171682184Y-87884685D01*
X172032107Y-88118496D01*
X172444869Y-88200600D01*
X172487131Y-88200600D01*
X172899893Y-88118496D01*
X173249816Y-87884685D01*
X173483627Y-87534762D01*
X173565731Y-87122000D01*
X173483627Y-86709238D01*
X173249816Y-86359315D01*
X172899893Y-86125504D01*
X172487131Y-86043400D01*
X172444869Y-86043400D01*
X172032107Y-86125504D01*
X171746389Y-86316415D01*
X169164020Y-83734046D01*
X169164020Y-81238954D01*
X169265695Y-81137278D01*
X169265698Y-81137276D01*
X169337276Y-81030151D01*
X169362411Y-80903789D01*
X169362411Y-79592704D01*
X169479485Y-79544330D01*
X169479485Y-82306685D01*
X169504620Y-82433047D01*
X169576198Y-82540172D01*
X171408039Y-84372012D01*
X171366269Y-84582000D01*
X171448373Y-84994762D01*
X171682184Y-85344685D01*
X172032107Y-85578496D01*
X172444869Y-85660600D01*
X172487131Y-85660600D01*
X172899893Y-85578496D01*
X173249816Y-85344685D01*
X173483627Y-84994762D01*
X173565731Y-84582000D01*
X173483627Y-84169238D01*
X173249816Y-83819315D01*
X172899893Y-83585504D01*
X172487131Y-83503400D01*
X172444869Y-83503400D01*
X172032107Y-83585504D01*
X171746388Y-83776415D01*
X170354007Y-82384033D01*
X171443068Y-82384033D01*
X171500809Y-82523480D01*
X171758534Y-82856192D01*
X172123964Y-83064951D01*
X172288200Y-83048713D01*
X172288200Y-82219800D01*
X172643800Y-82219800D01*
X172643800Y-83048713D01*
X172808036Y-83064951D01*
X173173466Y-82856192D01*
X173431191Y-82523480D01*
X173488932Y-82384033D01*
X173471856Y-82219800D01*
X172643800Y-82219800D01*
X172288200Y-82219800D01*
X171460144Y-82219800D01*
X171443068Y-82384033D01*
X170354007Y-82384033D01*
X170139885Y-82169911D01*
X170139885Y-81699967D01*
X171443068Y-81699967D01*
X171460144Y-81864200D01*
X172288200Y-81864200D01*
X172288200Y-81035287D01*
X172643800Y-81035287D01*
X172643800Y-81864200D01*
X173471856Y-81864200D01*
X173488932Y-81699967D01*
X173431191Y-81560520D01*
X173173466Y-81227808D01*
X172808036Y-81019049D01*
X172643800Y-81035287D01*
X172288200Y-81035287D01*
X172123964Y-81019049D01*
X171758534Y-81227808D01*
X171500809Y-81560520D01*
X171443068Y-81699967D01*
X170139885Y-81699967D01*
X170139885Y-78795541D01*
X170114750Y-78669179D01*
X170103272Y-78652000D01*
X171382922Y-78652000D01*
X171382922Y-80352000D01*
X171398862Y-80436714D01*
X171448928Y-80514518D01*
X171525320Y-80566715D01*
X171616000Y-80585078D01*
X173316000Y-80585078D01*
X173400714Y-80569138D01*
X173478518Y-80519072D01*
X173530715Y-80442680D01*
X173549078Y-80352000D01*
X173549078Y-78652000D01*
X173533138Y-78567286D01*
X173483072Y-78489482D01*
X173406680Y-78437285D01*
X173316000Y-78418922D01*
X171616000Y-78418922D01*
X171531286Y-78434862D01*
X171453482Y-78484928D01*
X171401285Y-78561320D01*
X171382922Y-78652000D01*
X170103272Y-78652000D01*
X170043172Y-78562054D01*
X169722627Y-78241509D01*
X169615502Y-78169931D01*
X169489140Y-78144796D01*
X165619004Y-78144796D01*
X165492642Y-78169931D01*
X165385517Y-78241509D01*
X165385515Y-78241512D01*
X165161573Y-78465453D01*
X164995316Y-78465308D01*
X164800963Y-78545613D01*
X164652136Y-78694181D01*
X164571492Y-78888394D01*
X164571308Y-79098684D01*
X161053100Y-79098684D01*
X161053100Y-78027600D01*
X173940400Y-78027600D01*
X173940400Y-98756400D01*
X173940400Y-98756400D01*
G37*
X173940400Y-98756400D02*
X158291600Y-98756400D01*
X158291600Y-97282000D01*
X171366269Y-97282000D01*
X171448373Y-97694762D01*
X171682184Y-98044685D01*
X172032107Y-98278496D01*
X172444869Y-98360600D01*
X172487131Y-98360600D01*
X172899893Y-98278496D01*
X173249816Y-98044685D01*
X173483627Y-97694762D01*
X173565731Y-97282000D01*
X173483627Y-96869238D01*
X173249816Y-96519315D01*
X172899893Y-96285504D01*
X172487131Y-96203400D01*
X172444869Y-96203400D01*
X172032107Y-96285504D01*
X171682184Y-96519315D01*
X171448373Y-96869238D01*
X171366269Y-97282000D01*
X158291600Y-97282000D01*
X158291600Y-94742000D01*
X171366269Y-94742000D01*
X171448373Y-95154762D01*
X171682184Y-95504685D01*
X172032107Y-95738496D01*
X172444869Y-95820600D01*
X172487131Y-95820600D01*
X172899893Y-95738496D01*
X173249816Y-95504685D01*
X173483627Y-95154762D01*
X173565731Y-94742000D01*
X173483627Y-94329238D01*
X173249816Y-93979315D01*
X172899893Y-93745504D01*
X172487131Y-93663400D01*
X172444869Y-93663400D01*
X172032107Y-93745504D01*
X171682184Y-93979315D01*
X171448373Y-94329238D01*
X171366269Y-94742000D01*
X158291600Y-94742000D01*
X158291600Y-90717000D01*
X158936922Y-90717000D01*
X158936922Y-92417000D01*
X158952862Y-92501714D01*
X159002928Y-92579518D01*
X159079320Y-92631715D01*
X159170000Y-92650078D01*
X160870000Y-92650078D01*
X160954714Y-92634138D01*
X161032518Y-92584072D01*
X161084715Y-92507680D01*
X161103078Y-92417000D01*
X161103078Y-90717000D01*
X161087138Y-90632286D01*
X161037072Y-90554482D01*
X160960680Y-90502285D01*
X160870000Y-90483922D01*
X159170000Y-90483922D01*
X159085286Y-90499862D01*
X159007482Y-90549928D01*
X158955285Y-90626320D01*
X158936922Y-90717000D01*
X158291600Y-90717000D01*
X158291600Y-84488743D01*
X161053100Y-84488743D01*
X161053100Y-79098684D01*
X164571308Y-79098684D01*
X164651613Y-79293037D01*
X164800181Y-79441864D01*
X164994394Y-79522508D01*
X165204684Y-79522692D01*
X165399037Y-79442387D01*
X165547864Y-79293819D01*
X165628508Y-79099606D01*
X165628654Y-78932319D01*
X165755777Y-78805196D01*
X167562665Y-78805196D01*
X167492492Y-78974191D01*
X167492308Y-79184481D01*
X167572613Y-79378834D01*
X167675047Y-79481447D01*
X167573136Y-79583181D01*
X167492492Y-79777394D01*
X167492308Y-79987684D01*
X167572613Y-80182037D01*
X167690800Y-80300430D01*
X167690800Y-88138000D01*
X167715935Y-88264362D01*
X167787513Y-88371487D01*
X171408038Y-91992012D01*
X171366269Y-92202000D01*
X171448373Y-92614762D01*
X171682184Y-92964685D01*
X172032107Y-93198496D01*
X172444869Y-93280600D01*
X172487131Y-93280600D01*
X172899893Y-93198496D01*
X173249816Y-92964685D01*
X173483627Y-92614762D01*
X173565731Y-92202000D01*
X173483627Y-91789238D01*
X173249816Y-91439315D01*
X172899893Y-91205504D01*
X172487131Y-91123400D01*
X172444869Y-91123400D01*
X172032107Y-91205504D01*
X171746389Y-91396415D01*
X168351200Y-88001226D01*
X168351200Y-86522174D01*
X168828921Y-86999894D01*
X168828923Y-86999897D01*
X168936048Y-87071475D01*
X169050210Y-87094184D01*
X171408039Y-89452012D01*
X171366269Y-89662000D01*
X171448373Y-90074762D01*
X171682184Y-90424685D01*
X172032107Y-90658496D01*
X172444869Y-90740600D01*
X172487131Y-90740600D01*
X172899893Y-90658496D01*
X173249816Y-90424685D01*
X173483627Y-90074762D01*
X173565731Y-89662000D01*
X173483627Y-89249238D01*
X173249816Y-88899315D01*
X172899893Y-88665504D01*
X172487131Y-88583400D01*
X172444869Y-88583400D01*
X172032107Y-88665504D01*
X171746388Y-88856415D01*
X169422897Y-86532923D01*
X169315772Y-86461345D01*
X169201610Y-86438637D01*
X168757610Y-85994636D01*
X168757610Y-84261584D01*
X171408038Y-86912012D01*
X171366269Y-87122000D01*
X171448373Y-87534762D01*
X171682184Y-87884685D01*
X172032107Y-88118496D01*
X172444869Y-88200600D01*
X172487131Y-88200600D01*
X172899893Y-88118496D01*
X173249816Y-87884685D01*
X173483627Y-87534762D01*
X173565731Y-87122000D01*
X173483627Y-86709238D01*
X173249816Y-86359315D01*
X172899893Y-86125504D01*
X172487131Y-86043400D01*
X172444869Y-86043400D01*
X172032107Y-86125504D01*
X171746389Y-86316415D01*
X169164020Y-83734046D01*
X169164020Y-81238954D01*
X169265695Y-81137278D01*
X169265698Y-81137276D01*
X169337276Y-81030151D01*
X169362411Y-80903789D01*
X169362411Y-79592704D01*
X169479485Y-79544330D01*
X169479485Y-82306685D01*
X169504620Y-82433047D01*
X169576198Y-82540172D01*
X171408039Y-84372012D01*
X171366269Y-84582000D01*
X171448373Y-84994762D01*
X171682184Y-85344685D01*
X172032107Y-85578496D01*
X172444869Y-85660600D01*
X172487131Y-85660600D01*
X172899893Y-85578496D01*
X173249816Y-85344685D01*
X173483627Y-84994762D01*
X173565731Y-84582000D01*
X173483627Y-84169238D01*
X173249816Y-83819315D01*
X172899893Y-83585504D01*
X172487131Y-83503400D01*
X172444869Y-83503400D01*
X172032107Y-83585504D01*
X171746388Y-83776415D01*
X170354007Y-82384033D01*
X171443068Y-82384033D01*
X171500809Y-82523480D01*
X171758534Y-82856192D01*
X172123964Y-83064951D01*
X172288200Y-83048713D01*
X172288200Y-82219800D01*
X172643800Y-82219800D01*
X172643800Y-83048713D01*
X172808036Y-83064951D01*
X173173466Y-82856192D01*
X173431191Y-82523480D01*
X173488932Y-82384033D01*
X173471856Y-82219800D01*
X172643800Y-82219800D01*
X172288200Y-82219800D01*
X171460144Y-82219800D01*
X171443068Y-82384033D01*
X170354007Y-82384033D01*
X170139885Y-82169911D01*
X170139885Y-81699967D01*
X171443068Y-81699967D01*
X171460144Y-81864200D01*
X172288200Y-81864200D01*
X172288200Y-81035287D01*
X172643800Y-81035287D01*
X172643800Y-81864200D01*
X173471856Y-81864200D01*
X173488932Y-81699967D01*
X173431191Y-81560520D01*
X173173466Y-81227808D01*
X172808036Y-81019049D01*
X172643800Y-81035287D01*
X172288200Y-81035287D01*
X172123964Y-81019049D01*
X171758534Y-81227808D01*
X171500809Y-81560520D01*
X171443068Y-81699967D01*
X170139885Y-81699967D01*
X170139885Y-78795541D01*
X170114750Y-78669179D01*
X170103272Y-78652000D01*
X171382922Y-78652000D01*
X171382922Y-80352000D01*
X171398862Y-80436714D01*
X171448928Y-80514518D01*
X171525320Y-80566715D01*
X171616000Y-80585078D01*
X173316000Y-80585078D01*
X173400714Y-80569138D01*
X173478518Y-80519072D01*
X173530715Y-80442680D01*
X173549078Y-80352000D01*
X173549078Y-78652000D01*
X173533138Y-78567286D01*
X173483072Y-78489482D01*
X173406680Y-78437285D01*
X173316000Y-78418922D01*
X171616000Y-78418922D01*
X171531286Y-78434862D01*
X171453482Y-78484928D01*
X171401285Y-78561320D01*
X171382922Y-78652000D01*
X170103272Y-78652000D01*
X170043172Y-78562054D01*
X169722627Y-78241509D01*
X169615502Y-78169931D01*
X169489140Y-78144796D01*
X165619004Y-78144796D01*
X165492642Y-78169931D01*
X165385517Y-78241509D01*
X165385515Y-78241512D01*
X165161573Y-78465453D01*
X164995316Y-78465308D01*
X164800963Y-78545613D01*
X164652136Y-78694181D01*
X164571492Y-78888394D01*
X164571308Y-79098684D01*
X161053100Y-79098684D01*
X161053100Y-78027600D01*
X173940400Y-78027600D01*
X173940400Y-98756400D01*
M02*
