M48
;DRILL file {KiCad 4.0.5+dfsg1-4} date Fri Mar 30 22:23:17 2018
;FORMAT={-:-/ absolute / inch / decimal}
FMAT,2
INCH,TZ
T1C0.016
T2C0.039
%
G90
G05
M72
T1
X4.085Y-2.9
X4.085Y-3.84
X4.135Y-2.8
X4.135Y-2.9
X4.135Y-3.74
X4.135Y-3.84
X4.17Y-2.785
X4.17Y-3.725
X4.185Y-2.885
X4.185Y-3.825
X4.21Y-2.555
X4.21Y-2.6
X4.21Y-2.645
X4.21Y-2.69
X4.21Y-2.78
X4.21Y-3.495
X4.21Y-3.54
X4.21Y-3.585
X4.21Y-3.63
X4.21Y-3.72
X4.245Y-2.885
X4.245Y-3.825
X4.2661Y-2.2685
X4.2661Y-2.3344
X4.2661Y-3.2085
X4.2661Y-3.2744
X4.28Y-2.17
X4.28Y-3.11
X4.3Y-2.51
X4.3Y-2.555
X4.3Y-2.6
X4.3Y-2.645
X4.3Y-2.69
X4.3Y-2.735
X4.3Y-2.78
X4.3Y-2.825
X4.3Y-2.905
X4.3Y-3.45
X4.3Y-3.495
X4.3Y-3.54
X4.3Y-3.585
X4.3Y-3.63
X4.3Y-3.675
X4.3Y-3.72
X4.3Y-3.765
X4.3Y-3.845
X4.332Y-2.2685
X4.332Y-2.3344
X4.332Y-3.2085
X4.332Y-3.2744
X4.39Y-2.6
X4.39Y-2.645
X4.39Y-2.69
X4.39Y-2.825
X4.39Y-3.54
X4.39Y-3.585
X4.39Y-3.63
X4.39Y-3.765
X4.395Y-2.1734
X4.395Y-2.205
X4.395Y-3.1134
X4.395Y-3.145
X4.4416Y-2.1736
X4.4416Y-3.1136
X4.825Y-2.9
X4.825Y-3.84
X4.875Y-2.8
X4.875Y-2.9
X4.875Y-3.74
X4.875Y-3.84
X4.91Y-2.785
X4.91Y-3.725
X4.925Y-2.885
X4.925Y-3.825
X4.95Y-2.555
X4.95Y-2.6
X4.95Y-2.645
X4.95Y-2.69
X4.95Y-2.78
X4.95Y-3.495
X4.95Y-3.54
X4.95Y-3.585
X4.95Y-3.63
X4.95Y-3.72
X4.985Y-2.885
X4.985Y-3.825
X5.0061Y-2.2685
X5.0061Y-2.3344
X5.0061Y-3.2085
X5.0061Y-3.2744
X5.02Y-2.17
X5.02Y-3.11
X5.04Y-2.51
X5.04Y-2.555
X5.04Y-2.6
X5.04Y-2.645
X5.04Y-2.69
X5.04Y-2.735
X5.04Y-2.78
X5.04Y-2.825
X5.04Y-2.905
X5.04Y-3.45
X5.04Y-3.495
X5.04Y-3.54
X5.04Y-3.585
X5.04Y-3.63
X5.04Y-3.675
X5.04Y-3.72
X5.04Y-3.765
X5.04Y-3.845
X5.072Y-2.2685
X5.072Y-2.3344
X5.072Y-3.2085
X5.072Y-3.2744
X5.13Y-2.6
X5.13Y-2.645
X5.13Y-2.69
X5.13Y-2.825
X5.13Y-3.54
X5.13Y-3.585
X5.13Y-3.63
X5.13Y-3.765
X5.135Y-2.1734
X5.135Y-2.205
X5.135Y-3.1134
X5.135Y-3.145
X5.1816Y-2.1736
X5.1816Y-3.1136
X5.565Y-2.9
X5.565Y-3.84
X5.615Y-2.8
X5.615Y-2.9
X5.615Y-3.74
X5.615Y-3.84
X5.65Y-2.785
X5.65Y-3.725
X5.665Y-2.885
X5.665Y-3.825
X5.69Y-2.555
X5.69Y-2.6
X5.69Y-2.645
X5.69Y-2.69
X5.69Y-2.78
X5.69Y-3.495
X5.69Y-3.54
X5.69Y-3.585
X5.69Y-3.63
X5.69Y-3.72
X5.725Y-2.885
X5.725Y-3.825
X5.7461Y-2.2685
X5.7461Y-2.3344
X5.7461Y-3.2085
X5.7461Y-3.2744
X5.76Y-2.17
X5.76Y-3.11
X5.78Y-2.51
X5.78Y-2.555
X5.78Y-2.6
X5.78Y-2.645
X5.78Y-2.69
X5.78Y-2.735
X5.78Y-2.78
X5.78Y-2.825
X5.78Y-2.905
X5.78Y-3.45
X5.78Y-3.495
X5.78Y-3.54
X5.78Y-3.585
X5.78Y-3.63
X5.78Y-3.675
X5.78Y-3.72
X5.78Y-3.765
X5.78Y-3.845
X5.812Y-2.2685
X5.812Y-2.3344
X5.812Y-3.2085
X5.812Y-3.2744
X5.87Y-2.6
X5.87Y-2.645
X5.87Y-2.69
X5.87Y-2.825
X5.87Y-3.54
X5.87Y-3.585
X5.87Y-3.63
X5.87Y-3.765
X5.875Y-2.1734
X5.875Y-2.205
X5.875Y-3.1134
X5.875Y-3.145
X5.9216Y-2.1736
X5.9216Y-3.1136
X6.305Y-2.9
X6.305Y-3.84
X6.355Y-2.8
X6.355Y-2.9
X6.355Y-3.74
X6.355Y-3.84
X6.39Y-2.785
X6.39Y-3.725
X6.405Y-2.885
X6.405Y-3.825
X6.43Y-2.555
X6.43Y-2.6
X6.43Y-2.645
X6.43Y-2.69
X6.43Y-2.78
X6.43Y-3.495
X6.43Y-3.54
X6.43Y-3.585
X6.43Y-3.63
X6.43Y-3.72
X6.465Y-2.885
X6.465Y-3.825
X6.4861Y-2.2685
X6.4861Y-2.3344
X6.4861Y-3.2085
X6.4861Y-3.2744
X6.5Y-2.17
X6.5Y-3.11
X6.52Y-2.51
X6.52Y-2.555
X6.52Y-2.6
X6.52Y-2.645
X6.52Y-2.69
X6.52Y-2.735
X6.52Y-2.78
X6.52Y-2.825
X6.52Y-2.905
X6.52Y-3.45
X6.52Y-3.495
X6.52Y-3.54
X6.52Y-3.585
X6.52Y-3.63
X6.52Y-3.675
X6.52Y-3.72
X6.52Y-3.765
X6.52Y-3.845
X6.552Y-2.2685
X6.552Y-2.3344
X6.552Y-3.2085
X6.552Y-3.2744
X6.61Y-2.6
X6.61Y-2.645
X6.61Y-2.69
X6.61Y-2.825
X6.61Y-3.54
X6.61Y-3.585
X6.61Y-3.63
X6.61Y-3.765
X6.615Y-2.1734
X6.615Y-2.205
X6.615Y-3.1134
X6.615Y-3.145
X6.6616Y-2.1736
X6.6616Y-3.1136
T2
X4.08Y-2.665
X4.08Y-3.605
X4.57Y-2.19
X4.57Y-2.29
X4.57Y-2.39
X4.57Y-2.49
X4.57Y-2.59
X4.57Y-2.69
X4.57Y-2.79
X4.57Y-2.89
X4.57Y-3.13
X4.57Y-3.23
X4.57Y-3.33
X4.57Y-3.43
X4.57Y-3.53
X4.57Y-3.63
X4.57Y-3.73
X4.57Y-3.83
X4.82Y-2.665
X4.82Y-3.605
X5.31Y-2.19
X5.31Y-2.29
X5.31Y-2.39
X5.31Y-2.49
X5.31Y-2.59
X5.31Y-2.69
X5.31Y-2.79
X5.31Y-2.89
X5.31Y-3.13
X5.31Y-3.23
X5.31Y-3.33
X5.31Y-3.43
X5.31Y-3.53
X5.31Y-3.63
X5.31Y-3.73
X5.31Y-3.83
X5.56Y-2.665
X5.56Y-3.605
X6.05Y-2.19
X6.05Y-2.29
X6.05Y-2.39
X6.05Y-2.49
X6.05Y-2.59
X6.05Y-2.69
X6.05Y-2.79
X6.05Y-2.89
X6.05Y-3.13
X6.05Y-3.23
X6.05Y-3.33
X6.05Y-3.43
X6.05Y-3.53
X6.05Y-3.63
X6.05Y-3.73
X6.05Y-3.83
X6.3Y-2.665
X6.3Y-3.605
X6.79Y-2.19
X6.79Y-2.29
X6.79Y-2.39
X6.79Y-2.49
X6.79Y-2.59
X6.79Y-2.69
X6.79Y-2.79
X6.79Y-2.89
X6.79Y-3.13
X6.79Y-3.23
X6.79Y-3.33
X6.79Y-3.43
X6.79Y-3.53
X6.79Y-3.63
X6.79Y-3.73
X6.79Y-3.83
T0
M30
