M48
;DRILL file {KiCad 4.0.5+dfsg1-4} date Fri Mar 30 22:23:17 2018
;FORMAT={-:-/ absolute / inch / decimal}
FMAT,2
INCH,TZ
T1C0.025
%
G90
G05
M72
T1
X3.92Y-2.51
X3.92Y-2.54
X3.92Y-2.57
X3.92Y-3.45
X3.92Y-3.48
X3.92Y-3.51
X3.98Y-2.51
X3.98Y-2.54
X3.98Y-2.57
X3.98Y-3.45
X3.98Y-3.48
X3.98Y-3.51
X4.275Y-2.04
X4.275Y-2.1
X4.275Y-2.98
X4.275Y-3.04
X4.275Y-3.92
X4.275Y-3.98
X4.305Y-2.04
X4.305Y-2.1
X4.305Y-2.98
X4.305Y-3.04
X4.305Y-3.92
X4.305Y-3.98
X4.335Y-2.04
X4.335Y-2.1
X4.335Y-2.98
X4.335Y-3.04
X4.335Y-3.92
X4.335Y-3.98
X4.66Y-2.51
X4.66Y-2.54
X4.66Y-2.57
X4.66Y-3.45
X4.66Y-3.48
X4.66Y-3.51
X4.72Y-2.51
X4.72Y-2.54
X4.72Y-2.57
X4.72Y-3.45
X4.72Y-3.48
X4.72Y-3.51
X5.015Y-2.04
X5.015Y-2.1
X5.015Y-2.98
X5.015Y-3.04
X5.015Y-3.92
X5.015Y-3.98
X5.045Y-2.04
X5.045Y-2.1
X5.045Y-2.98
X5.045Y-3.04
X5.045Y-3.92
X5.045Y-3.98
X5.075Y-2.04
X5.075Y-2.1
X5.075Y-2.98
X5.075Y-3.04
X5.075Y-3.92
X5.075Y-3.98
X5.4Y-2.51
X5.4Y-2.54
X5.4Y-2.57
X5.4Y-3.45
X5.4Y-3.48
X5.4Y-3.51
X5.46Y-2.51
X5.46Y-2.54
X5.46Y-2.57
X5.46Y-3.45
X5.46Y-3.48
X5.46Y-3.51
X5.755Y-2.04
X5.755Y-2.1
X5.755Y-2.98
X5.755Y-3.04
X5.755Y-3.92
X5.755Y-3.98
X5.785Y-2.04
X5.785Y-2.1
X5.785Y-2.98
X5.785Y-3.04
X5.785Y-3.92
X5.785Y-3.98
X5.815Y-2.04
X5.815Y-2.1
X5.815Y-2.98
X5.815Y-3.04
X5.815Y-3.92
X5.815Y-3.98
X6.14Y-2.51
X6.14Y-2.54
X6.14Y-2.57
X6.14Y-3.45
X6.14Y-3.48
X6.14Y-3.51
X6.2Y-2.51
X6.2Y-2.54
X6.2Y-2.57
X6.2Y-3.45
X6.2Y-3.48
X6.2Y-3.51
X6.495Y-2.04
X6.495Y-2.1
X6.495Y-2.98
X6.495Y-3.04
X6.495Y-3.92
X6.495Y-3.98
X6.525Y-2.04
X6.525Y-2.1
X6.525Y-2.98
X6.525Y-3.04
X6.525Y-3.92
X6.525Y-3.98
X6.555Y-2.04
X6.555Y-2.1
X6.555Y-2.98
X6.555Y-3.04
X6.555Y-3.92
X6.555Y-3.98
X6.88Y-2.51
X6.88Y-2.54
X6.88Y-2.57
X6.88Y-3.45
X6.88Y-3.48
X6.88Y-3.51
X6.94Y-2.51
X6.94Y-2.54
X6.94Y-2.57
X6.94Y-3.45
X6.94Y-3.48
X6.94Y-3.51
T0
M30
