G04 #@! TF.FileFunction,Legend,Bot*
%FSLAX46Y46*%
G04 Gerber Fmt 4.6, Leading zero omitted, Abs format (unit mm)*
G04 Created by KiCad (PCBNEW 4.0.5+dfsg1-4) date Fri Mar 30 22:23:14 2018*
%MOMM*%
%LPD*%
G01*
G04 APERTURE LIST*
%ADD10C,0.100000*%
%ADD11C,0.300000*%
%ADD12C,0.150000*%
%ADD13C,0.120000*%
%ADD14C,0.010000*%
G04 APERTURE END LIST*
D10*
D11*
X164207000Y-84463430D02*
X164207000Y-85177716D01*
X164635571Y-84320573D02*
X163135571Y-84820573D01*
X164635571Y-85320573D01*
X163135571Y-85677716D02*
X164635571Y-86677716D01*
X163135571Y-86677716D02*
X164635571Y-85677716D01*
X163135571Y-87963430D02*
X163135571Y-87249144D01*
X163849857Y-87177715D01*
X163778429Y-87249144D01*
X163707000Y-87392001D01*
X163707000Y-87749144D01*
X163778429Y-87892001D01*
X163849857Y-87963430D01*
X163992714Y-88034858D01*
X164349857Y-88034858D01*
X164492714Y-87963430D01*
X164564143Y-87892001D01*
X164635571Y-87749144D01*
X164635571Y-87392001D01*
X164564143Y-87249144D01*
X164492714Y-87177715D01*
X163135571Y-88963429D02*
X163135571Y-89106286D01*
X163207000Y-89249143D01*
X163278429Y-89320572D01*
X163421286Y-89392001D01*
X163707000Y-89463429D01*
X164064143Y-89463429D01*
X164349857Y-89392001D01*
X164492714Y-89320572D01*
X164564143Y-89249143D01*
X164635571Y-89106286D01*
X164635571Y-88963429D01*
X164564143Y-88820572D01*
X164492714Y-88749143D01*
X164349857Y-88677715D01*
X164064143Y-88606286D01*
X163707000Y-88606286D01*
X163421286Y-88677715D01*
X163278429Y-88749143D01*
X163207000Y-88820572D01*
X163135571Y-88963429D01*
X163635571Y-90749143D02*
X164635571Y-90749143D01*
X163064143Y-90392000D02*
X164135571Y-90034857D01*
X164135571Y-90963429D01*
X163135571Y-91392000D02*
X163135571Y-92320571D01*
X163707000Y-91820571D01*
X163707000Y-92034857D01*
X163778429Y-92177714D01*
X163849857Y-92249143D01*
X163992714Y-92320571D01*
X164349857Y-92320571D01*
X164492714Y-92249143D01*
X164564143Y-92177714D01*
X164635571Y-92034857D01*
X164635571Y-91606285D01*
X164564143Y-91463428D01*
X164492714Y-91392000D01*
X164207000Y-60587430D02*
X164207000Y-61301716D01*
X164635571Y-60444573D02*
X163135571Y-60944573D01*
X164635571Y-61444573D01*
X163135571Y-61801716D02*
X164635571Y-62801716D01*
X163135571Y-62801716D02*
X164635571Y-61801716D01*
X163135571Y-64087430D02*
X163135571Y-63373144D01*
X163849857Y-63301715D01*
X163778429Y-63373144D01*
X163707000Y-63516001D01*
X163707000Y-63873144D01*
X163778429Y-64016001D01*
X163849857Y-64087430D01*
X163992714Y-64158858D01*
X164349857Y-64158858D01*
X164492714Y-64087430D01*
X164564143Y-64016001D01*
X164635571Y-63873144D01*
X164635571Y-63516001D01*
X164564143Y-63373144D01*
X164492714Y-63301715D01*
X163135571Y-65087429D02*
X163135571Y-65230286D01*
X163207000Y-65373143D01*
X163278429Y-65444572D01*
X163421286Y-65516001D01*
X163707000Y-65587429D01*
X164064143Y-65587429D01*
X164349857Y-65516001D01*
X164492714Y-65444572D01*
X164564143Y-65373143D01*
X164635571Y-65230286D01*
X164635571Y-65087429D01*
X164564143Y-64944572D01*
X164492714Y-64873143D01*
X164349857Y-64801715D01*
X164064143Y-64730286D01*
X163707000Y-64730286D01*
X163421286Y-64801715D01*
X163278429Y-64873143D01*
X163207000Y-64944572D01*
X163135571Y-65087429D01*
X163635571Y-66873143D02*
X164635571Y-66873143D01*
X163064143Y-66516000D02*
X164135571Y-66158857D01*
X164135571Y-67087429D01*
X163135571Y-67516000D02*
X163135571Y-68444571D01*
X163707000Y-67944571D01*
X163707000Y-68158857D01*
X163778429Y-68301714D01*
X163849857Y-68373143D01*
X163992714Y-68444571D01*
X164349857Y-68444571D01*
X164492714Y-68373143D01*
X164564143Y-68301714D01*
X164635571Y-68158857D01*
X164635571Y-67730285D01*
X164564143Y-67587428D01*
X164492714Y-67516000D01*
D12*
X167175571Y-57002607D02*
X165675571Y-57190107D01*
X165675571Y-57547250D01*
X165747000Y-57752606D01*
X165889857Y-57877607D01*
X166032714Y-57931178D01*
X166318429Y-57966892D01*
X166532714Y-57940107D01*
X166818429Y-57832963D01*
X166961286Y-57743678D01*
X167104143Y-57582963D01*
X167175571Y-57359750D01*
X167175571Y-57002607D01*
X166389857Y-58600821D02*
X166389857Y-59100821D01*
X167175571Y-59216893D02*
X167175571Y-58502607D01*
X165675571Y-58690107D01*
X165675571Y-59404393D01*
X165675571Y-59832964D02*
X167175571Y-60145464D01*
X165675571Y-60832964D01*
X166389857Y-61243678D02*
X166389857Y-61743678D01*
X167175571Y-61859750D02*
X167175571Y-61145464D01*
X165675571Y-61332964D01*
X165675571Y-62047250D01*
X167175571Y-63216893D02*
X167175571Y-62502607D01*
X165675571Y-62690107D01*
X165675571Y-64190107D02*
X165675571Y-64475821D01*
X165747000Y-64609750D01*
X165889857Y-64734750D01*
X166175571Y-64770464D01*
X166675571Y-64707964D01*
X166961286Y-64600821D01*
X167104143Y-64440107D01*
X167175571Y-64288321D01*
X167175571Y-64002607D01*
X167104143Y-63868678D01*
X166961286Y-63743678D01*
X166675571Y-63707964D01*
X166175571Y-63770464D01*
X165889857Y-63877607D01*
X165747000Y-64038321D01*
X165675571Y-64190107D01*
X167175571Y-65288322D02*
X165675571Y-65475822D01*
X165675571Y-66047250D01*
X165747000Y-66181179D01*
X165818429Y-66243678D01*
X165961286Y-66297250D01*
X166175571Y-66270465D01*
X166318429Y-66181178D01*
X166389857Y-66100822D01*
X166461286Y-65949035D01*
X166461286Y-65377607D01*
X167175571Y-66788322D02*
X165675571Y-66975822D01*
X166747000Y-67341893D01*
X165675571Y-67975822D01*
X167175571Y-67788322D01*
X166389857Y-68600822D02*
X166389857Y-69100822D01*
X167175571Y-69216894D02*
X167175571Y-68502608D01*
X165675571Y-68690108D01*
X165675571Y-69404394D01*
X167175571Y-69859751D02*
X165675571Y-70047251D01*
X167175571Y-70716894D01*
X165675571Y-70904394D01*
X165675571Y-71404394D02*
X165675571Y-72261537D01*
X167175571Y-71645466D02*
X165675571Y-71832966D01*
X167175571Y-80878607D02*
X165675571Y-81066107D01*
X165675571Y-81423250D01*
X165747000Y-81628606D01*
X165889857Y-81753607D01*
X166032714Y-81807178D01*
X166318429Y-81842892D01*
X166532714Y-81816107D01*
X166818429Y-81708963D01*
X166961286Y-81619678D01*
X167104143Y-81458963D01*
X167175571Y-81235750D01*
X167175571Y-80878607D01*
X166389857Y-82476821D02*
X166389857Y-82976821D01*
X167175571Y-83092893D02*
X167175571Y-82378607D01*
X165675571Y-82566107D01*
X165675571Y-83280393D01*
X165675571Y-83708964D02*
X167175571Y-84021464D01*
X165675571Y-84708964D01*
X166389857Y-85119678D02*
X166389857Y-85619678D01*
X167175571Y-85735750D02*
X167175571Y-85021464D01*
X165675571Y-85208964D01*
X165675571Y-85923250D01*
X167175571Y-87092893D02*
X167175571Y-86378607D01*
X165675571Y-86566107D01*
X165675571Y-88066107D02*
X165675571Y-88351821D01*
X165747000Y-88485750D01*
X165889857Y-88610750D01*
X166175571Y-88646464D01*
X166675571Y-88583964D01*
X166961286Y-88476821D01*
X167104143Y-88316107D01*
X167175571Y-88164321D01*
X167175571Y-87878607D01*
X167104143Y-87744678D01*
X166961286Y-87619678D01*
X166675571Y-87583964D01*
X166175571Y-87646464D01*
X165889857Y-87753607D01*
X165747000Y-87914321D01*
X165675571Y-88066107D01*
X167175571Y-89164322D02*
X165675571Y-89351822D01*
X165675571Y-89923250D01*
X165747000Y-90057179D01*
X165818429Y-90119678D01*
X165961286Y-90173250D01*
X166175571Y-90146465D01*
X166318429Y-90057178D01*
X166389857Y-89976822D01*
X166461286Y-89825035D01*
X166461286Y-89253607D01*
X167175571Y-90664322D02*
X165675571Y-90851822D01*
X166747000Y-91217893D01*
X165675571Y-91851822D01*
X167175571Y-91664322D01*
X166389857Y-92476822D02*
X166389857Y-92976822D01*
X167175571Y-93092894D02*
X167175571Y-92378608D01*
X165675571Y-92566108D01*
X165675571Y-93280394D01*
X167175571Y-93735751D02*
X165675571Y-93923251D01*
X167175571Y-94592894D01*
X165675571Y-94780394D01*
X165675571Y-95280394D02*
X165675571Y-96137537D01*
X167175571Y-95521466D02*
X165675571Y-95708966D01*
X148379571Y-57002607D02*
X146879571Y-57190107D01*
X146879571Y-57547250D01*
X146951000Y-57752606D01*
X147093857Y-57877607D01*
X147236714Y-57931178D01*
X147522429Y-57966892D01*
X147736714Y-57940107D01*
X148022429Y-57832963D01*
X148165286Y-57743678D01*
X148308143Y-57582963D01*
X148379571Y-57359750D01*
X148379571Y-57002607D01*
X147593857Y-58600821D02*
X147593857Y-59100821D01*
X148379571Y-59216893D02*
X148379571Y-58502607D01*
X146879571Y-58690107D01*
X146879571Y-59404393D01*
X146879571Y-59832964D02*
X148379571Y-60145464D01*
X146879571Y-60832964D01*
X147593857Y-61243678D02*
X147593857Y-61743678D01*
X148379571Y-61859750D02*
X148379571Y-61145464D01*
X146879571Y-61332964D01*
X146879571Y-62047250D01*
X148379571Y-63216893D02*
X148379571Y-62502607D01*
X146879571Y-62690107D01*
X146879571Y-64190107D02*
X146879571Y-64475821D01*
X146951000Y-64609750D01*
X147093857Y-64734750D01*
X147379571Y-64770464D01*
X147879571Y-64707964D01*
X148165286Y-64600821D01*
X148308143Y-64440107D01*
X148379571Y-64288321D01*
X148379571Y-64002607D01*
X148308143Y-63868678D01*
X148165286Y-63743678D01*
X147879571Y-63707964D01*
X147379571Y-63770464D01*
X147093857Y-63877607D01*
X146951000Y-64038321D01*
X146879571Y-64190107D01*
X148379571Y-65288322D02*
X146879571Y-65475822D01*
X146879571Y-66047250D01*
X146951000Y-66181179D01*
X147022429Y-66243678D01*
X147165286Y-66297250D01*
X147379571Y-66270465D01*
X147522429Y-66181178D01*
X147593857Y-66100822D01*
X147665286Y-65949035D01*
X147665286Y-65377607D01*
X148379571Y-66788322D02*
X146879571Y-66975822D01*
X147951000Y-67341893D01*
X146879571Y-67975822D01*
X148379571Y-67788322D01*
X147593857Y-68600822D02*
X147593857Y-69100822D01*
X148379571Y-69216894D02*
X148379571Y-68502608D01*
X146879571Y-68690108D01*
X146879571Y-69404394D01*
X148379571Y-69859751D02*
X146879571Y-70047251D01*
X148379571Y-70716894D01*
X146879571Y-70904394D01*
X146879571Y-71404394D02*
X146879571Y-72261537D01*
X148379571Y-71645466D02*
X146879571Y-71832966D01*
X148379571Y-80878607D02*
X146879571Y-81066107D01*
X146879571Y-81423250D01*
X146951000Y-81628606D01*
X147093857Y-81753607D01*
X147236714Y-81807178D01*
X147522429Y-81842892D01*
X147736714Y-81816107D01*
X148022429Y-81708963D01*
X148165286Y-81619678D01*
X148308143Y-81458963D01*
X148379571Y-81235750D01*
X148379571Y-80878607D01*
X147593857Y-82476821D02*
X147593857Y-82976821D01*
X148379571Y-83092893D02*
X148379571Y-82378607D01*
X146879571Y-82566107D01*
X146879571Y-83280393D01*
X146879571Y-83708964D02*
X148379571Y-84021464D01*
X146879571Y-84708964D01*
X147593857Y-85119678D02*
X147593857Y-85619678D01*
X148379571Y-85735750D02*
X148379571Y-85021464D01*
X146879571Y-85208964D01*
X146879571Y-85923250D01*
X148379571Y-87092893D02*
X148379571Y-86378607D01*
X146879571Y-86566107D01*
X146879571Y-88066107D02*
X146879571Y-88351821D01*
X146951000Y-88485750D01*
X147093857Y-88610750D01*
X147379571Y-88646464D01*
X147879571Y-88583964D01*
X148165286Y-88476821D01*
X148308143Y-88316107D01*
X148379571Y-88164321D01*
X148379571Y-87878607D01*
X148308143Y-87744678D01*
X148165286Y-87619678D01*
X147879571Y-87583964D01*
X147379571Y-87646464D01*
X147093857Y-87753607D01*
X146951000Y-87914321D01*
X146879571Y-88066107D01*
X148379571Y-89164322D02*
X146879571Y-89351822D01*
X146879571Y-89923250D01*
X146951000Y-90057179D01*
X147022429Y-90119678D01*
X147165286Y-90173250D01*
X147379571Y-90146465D01*
X147522429Y-90057178D01*
X147593857Y-89976822D01*
X147665286Y-89825035D01*
X147665286Y-89253607D01*
X148379571Y-90664322D02*
X146879571Y-90851822D01*
X147951000Y-91217893D01*
X146879571Y-91851822D01*
X148379571Y-91664322D01*
X147593857Y-92476822D02*
X147593857Y-92976822D01*
X148379571Y-93092894D02*
X148379571Y-92378608D01*
X146879571Y-92566108D01*
X146879571Y-93280394D01*
X148379571Y-93735751D02*
X146879571Y-93923251D01*
X148379571Y-94592894D01*
X146879571Y-94780394D01*
X146879571Y-95280394D02*
X146879571Y-96137537D01*
X148379571Y-95521466D02*
X146879571Y-95708966D01*
D11*
X145411000Y-60587430D02*
X145411000Y-61301716D01*
X145839571Y-60444573D02*
X144339571Y-60944573D01*
X145839571Y-61444573D01*
X144339571Y-61801716D02*
X145839571Y-62801716D01*
X144339571Y-62801716D02*
X145839571Y-61801716D01*
X144339571Y-64087430D02*
X144339571Y-63373144D01*
X145053857Y-63301715D01*
X144982429Y-63373144D01*
X144911000Y-63516001D01*
X144911000Y-63873144D01*
X144982429Y-64016001D01*
X145053857Y-64087430D01*
X145196714Y-64158858D01*
X145553857Y-64158858D01*
X145696714Y-64087430D01*
X145768143Y-64016001D01*
X145839571Y-63873144D01*
X145839571Y-63516001D01*
X145768143Y-63373144D01*
X145696714Y-63301715D01*
X144339571Y-65087429D02*
X144339571Y-65230286D01*
X144411000Y-65373143D01*
X144482429Y-65444572D01*
X144625286Y-65516001D01*
X144911000Y-65587429D01*
X145268143Y-65587429D01*
X145553857Y-65516001D01*
X145696714Y-65444572D01*
X145768143Y-65373143D01*
X145839571Y-65230286D01*
X145839571Y-65087429D01*
X145768143Y-64944572D01*
X145696714Y-64873143D01*
X145553857Y-64801715D01*
X145268143Y-64730286D01*
X144911000Y-64730286D01*
X144625286Y-64801715D01*
X144482429Y-64873143D01*
X144411000Y-64944572D01*
X144339571Y-65087429D01*
X144839571Y-66873143D02*
X145839571Y-66873143D01*
X144268143Y-66516000D02*
X145339571Y-66158857D01*
X145339571Y-67087429D01*
X144339571Y-67516000D02*
X144339571Y-68444571D01*
X144911000Y-67944571D01*
X144911000Y-68158857D01*
X144982429Y-68301714D01*
X145053857Y-68373143D01*
X145196714Y-68444571D01*
X145553857Y-68444571D01*
X145696714Y-68373143D01*
X145768143Y-68301714D01*
X145839571Y-68158857D01*
X145839571Y-67730285D01*
X145768143Y-67587428D01*
X145696714Y-67516000D01*
X145411000Y-84463430D02*
X145411000Y-85177716D01*
X145839571Y-84320573D02*
X144339571Y-84820573D01*
X145839571Y-85320573D01*
X144339571Y-85677716D02*
X145839571Y-86677716D01*
X144339571Y-86677716D02*
X145839571Y-85677716D01*
X144339571Y-87963430D02*
X144339571Y-87249144D01*
X145053857Y-87177715D01*
X144982429Y-87249144D01*
X144911000Y-87392001D01*
X144911000Y-87749144D01*
X144982429Y-87892001D01*
X145053857Y-87963430D01*
X145196714Y-88034858D01*
X145553857Y-88034858D01*
X145696714Y-87963430D01*
X145768143Y-87892001D01*
X145839571Y-87749144D01*
X145839571Y-87392001D01*
X145768143Y-87249144D01*
X145696714Y-87177715D01*
X144339571Y-88963429D02*
X144339571Y-89106286D01*
X144411000Y-89249143D01*
X144482429Y-89320572D01*
X144625286Y-89392001D01*
X144911000Y-89463429D01*
X145268143Y-89463429D01*
X145553857Y-89392001D01*
X145696714Y-89320572D01*
X145768143Y-89249143D01*
X145839571Y-89106286D01*
X145839571Y-88963429D01*
X145768143Y-88820572D01*
X145696714Y-88749143D01*
X145553857Y-88677715D01*
X145268143Y-88606286D01*
X144911000Y-88606286D01*
X144625286Y-88677715D01*
X144482429Y-88749143D01*
X144411000Y-88820572D01*
X144339571Y-88963429D01*
X144839571Y-90749143D02*
X145839571Y-90749143D01*
X144268143Y-90392000D02*
X145339571Y-90034857D01*
X145339571Y-90963429D01*
X144339571Y-91392000D02*
X144339571Y-92320571D01*
X144911000Y-91820571D01*
X144911000Y-92034857D01*
X144982429Y-92177714D01*
X145053857Y-92249143D01*
X145196714Y-92320571D01*
X145553857Y-92320571D01*
X145696714Y-92249143D01*
X145768143Y-92177714D01*
X145839571Y-92034857D01*
X145839571Y-91606285D01*
X145768143Y-91463428D01*
X145696714Y-91392000D01*
D12*
X129583571Y-80878607D02*
X128083571Y-81066107D01*
X128083571Y-81423250D01*
X128155000Y-81628606D01*
X128297857Y-81753607D01*
X128440714Y-81807178D01*
X128726429Y-81842892D01*
X128940714Y-81816107D01*
X129226429Y-81708963D01*
X129369286Y-81619678D01*
X129512143Y-81458963D01*
X129583571Y-81235750D01*
X129583571Y-80878607D01*
X128797857Y-82476821D02*
X128797857Y-82976821D01*
X129583571Y-83092893D02*
X129583571Y-82378607D01*
X128083571Y-82566107D01*
X128083571Y-83280393D01*
X128083571Y-83708964D02*
X129583571Y-84021464D01*
X128083571Y-84708964D01*
X128797857Y-85119678D02*
X128797857Y-85619678D01*
X129583571Y-85735750D02*
X129583571Y-85021464D01*
X128083571Y-85208964D01*
X128083571Y-85923250D01*
X129583571Y-87092893D02*
X129583571Y-86378607D01*
X128083571Y-86566107D01*
X128083571Y-88066107D02*
X128083571Y-88351821D01*
X128155000Y-88485750D01*
X128297857Y-88610750D01*
X128583571Y-88646464D01*
X129083571Y-88583964D01*
X129369286Y-88476821D01*
X129512143Y-88316107D01*
X129583571Y-88164321D01*
X129583571Y-87878607D01*
X129512143Y-87744678D01*
X129369286Y-87619678D01*
X129083571Y-87583964D01*
X128583571Y-87646464D01*
X128297857Y-87753607D01*
X128155000Y-87914321D01*
X128083571Y-88066107D01*
X129583571Y-89164322D02*
X128083571Y-89351822D01*
X128083571Y-89923250D01*
X128155000Y-90057179D01*
X128226429Y-90119678D01*
X128369286Y-90173250D01*
X128583571Y-90146465D01*
X128726429Y-90057178D01*
X128797857Y-89976822D01*
X128869286Y-89825035D01*
X128869286Y-89253607D01*
X129583571Y-90664322D02*
X128083571Y-90851822D01*
X129155000Y-91217893D01*
X128083571Y-91851822D01*
X129583571Y-91664322D01*
X128797857Y-92476822D02*
X128797857Y-92976822D01*
X129583571Y-93092894D02*
X129583571Y-92378608D01*
X128083571Y-92566108D01*
X128083571Y-93280394D01*
X129583571Y-93735751D02*
X128083571Y-93923251D01*
X129583571Y-94592894D01*
X128083571Y-94780394D01*
X128083571Y-95280394D02*
X128083571Y-96137537D01*
X129583571Y-95521466D02*
X128083571Y-95708966D01*
D11*
X126615000Y-60587430D02*
X126615000Y-61301716D01*
X127043571Y-60444573D02*
X125543571Y-60944573D01*
X127043571Y-61444573D01*
X125543571Y-61801716D02*
X127043571Y-62801716D01*
X125543571Y-62801716D02*
X127043571Y-61801716D01*
X125543571Y-64087430D02*
X125543571Y-63373144D01*
X126257857Y-63301715D01*
X126186429Y-63373144D01*
X126115000Y-63516001D01*
X126115000Y-63873144D01*
X126186429Y-64016001D01*
X126257857Y-64087430D01*
X126400714Y-64158858D01*
X126757857Y-64158858D01*
X126900714Y-64087430D01*
X126972143Y-64016001D01*
X127043571Y-63873144D01*
X127043571Y-63516001D01*
X126972143Y-63373144D01*
X126900714Y-63301715D01*
X125543571Y-65087429D02*
X125543571Y-65230286D01*
X125615000Y-65373143D01*
X125686429Y-65444572D01*
X125829286Y-65516001D01*
X126115000Y-65587429D01*
X126472143Y-65587429D01*
X126757857Y-65516001D01*
X126900714Y-65444572D01*
X126972143Y-65373143D01*
X127043571Y-65230286D01*
X127043571Y-65087429D01*
X126972143Y-64944572D01*
X126900714Y-64873143D01*
X126757857Y-64801715D01*
X126472143Y-64730286D01*
X126115000Y-64730286D01*
X125829286Y-64801715D01*
X125686429Y-64873143D01*
X125615000Y-64944572D01*
X125543571Y-65087429D01*
X126043571Y-66873143D02*
X127043571Y-66873143D01*
X125472143Y-66516000D02*
X126543571Y-66158857D01*
X126543571Y-67087429D01*
X125543571Y-67516000D02*
X125543571Y-68444571D01*
X126115000Y-67944571D01*
X126115000Y-68158857D01*
X126186429Y-68301714D01*
X126257857Y-68373143D01*
X126400714Y-68444571D01*
X126757857Y-68444571D01*
X126900714Y-68373143D01*
X126972143Y-68301714D01*
X127043571Y-68158857D01*
X127043571Y-67730285D01*
X126972143Y-67587428D01*
X126900714Y-67516000D01*
D12*
X129583571Y-57002607D02*
X128083571Y-57190107D01*
X128083571Y-57547250D01*
X128155000Y-57752606D01*
X128297857Y-57877607D01*
X128440714Y-57931178D01*
X128726429Y-57966892D01*
X128940714Y-57940107D01*
X129226429Y-57832963D01*
X129369286Y-57743678D01*
X129512143Y-57582963D01*
X129583571Y-57359750D01*
X129583571Y-57002607D01*
X128797857Y-58600821D02*
X128797857Y-59100821D01*
X129583571Y-59216893D02*
X129583571Y-58502607D01*
X128083571Y-58690107D01*
X128083571Y-59404393D01*
X128083571Y-59832964D02*
X129583571Y-60145464D01*
X128083571Y-60832964D01*
X128797857Y-61243678D02*
X128797857Y-61743678D01*
X129583571Y-61859750D02*
X129583571Y-61145464D01*
X128083571Y-61332964D01*
X128083571Y-62047250D01*
X129583571Y-63216893D02*
X129583571Y-62502607D01*
X128083571Y-62690107D01*
X128083571Y-64190107D02*
X128083571Y-64475821D01*
X128155000Y-64609750D01*
X128297857Y-64734750D01*
X128583571Y-64770464D01*
X129083571Y-64707964D01*
X129369286Y-64600821D01*
X129512143Y-64440107D01*
X129583571Y-64288321D01*
X129583571Y-64002607D01*
X129512143Y-63868678D01*
X129369286Y-63743678D01*
X129083571Y-63707964D01*
X128583571Y-63770464D01*
X128297857Y-63877607D01*
X128155000Y-64038321D01*
X128083571Y-64190107D01*
X129583571Y-65288322D02*
X128083571Y-65475822D01*
X128083571Y-66047250D01*
X128155000Y-66181179D01*
X128226429Y-66243678D01*
X128369286Y-66297250D01*
X128583571Y-66270465D01*
X128726429Y-66181178D01*
X128797857Y-66100822D01*
X128869286Y-65949035D01*
X128869286Y-65377607D01*
X129583571Y-66788322D02*
X128083571Y-66975822D01*
X129155000Y-67341893D01*
X128083571Y-67975822D01*
X129583571Y-67788322D01*
X128797857Y-68600822D02*
X128797857Y-69100822D01*
X129583571Y-69216894D02*
X129583571Y-68502608D01*
X128083571Y-68690108D01*
X128083571Y-69404394D01*
X129583571Y-69859751D02*
X128083571Y-70047251D01*
X129583571Y-70716894D01*
X128083571Y-70904394D01*
X128083571Y-71404394D02*
X128083571Y-72261537D01*
X129583571Y-71645466D02*
X128083571Y-71832966D01*
D11*
X126615000Y-84463430D02*
X126615000Y-85177716D01*
X127043571Y-84320573D02*
X125543571Y-84820573D01*
X127043571Y-85320573D01*
X125543571Y-85677716D02*
X127043571Y-86677716D01*
X125543571Y-86677716D02*
X127043571Y-85677716D01*
X125543571Y-87963430D02*
X125543571Y-87249144D01*
X126257857Y-87177715D01*
X126186429Y-87249144D01*
X126115000Y-87392001D01*
X126115000Y-87749144D01*
X126186429Y-87892001D01*
X126257857Y-87963430D01*
X126400714Y-88034858D01*
X126757857Y-88034858D01*
X126900714Y-87963430D01*
X126972143Y-87892001D01*
X127043571Y-87749144D01*
X127043571Y-87392001D01*
X126972143Y-87249144D01*
X126900714Y-87177715D01*
X125543571Y-88963429D02*
X125543571Y-89106286D01*
X125615000Y-89249143D01*
X125686429Y-89320572D01*
X125829286Y-89392001D01*
X126115000Y-89463429D01*
X126472143Y-89463429D01*
X126757857Y-89392001D01*
X126900714Y-89320572D01*
X126972143Y-89249143D01*
X127043571Y-89106286D01*
X127043571Y-88963429D01*
X126972143Y-88820572D01*
X126900714Y-88749143D01*
X126757857Y-88677715D01*
X126472143Y-88606286D01*
X126115000Y-88606286D01*
X125829286Y-88677715D01*
X125686429Y-88749143D01*
X125615000Y-88820572D01*
X125543571Y-88963429D01*
X126043571Y-90749143D02*
X127043571Y-90749143D01*
X125472143Y-90392000D02*
X126543571Y-90034857D01*
X126543571Y-90963429D01*
X125543571Y-91392000D02*
X125543571Y-92320571D01*
X126115000Y-91820571D01*
X126115000Y-92034857D01*
X126186429Y-92177714D01*
X126257857Y-92249143D01*
X126400714Y-92320571D01*
X126757857Y-92320571D01*
X126900714Y-92249143D01*
X126972143Y-92177714D01*
X127043571Y-92034857D01*
X127043571Y-91606285D01*
X126972143Y-91463428D01*
X126900714Y-91392000D01*
D12*
X110787571Y-80878607D02*
X109287571Y-81066107D01*
X109287571Y-81423250D01*
X109359000Y-81628606D01*
X109501857Y-81753607D01*
X109644714Y-81807178D01*
X109930429Y-81842892D01*
X110144714Y-81816107D01*
X110430429Y-81708963D01*
X110573286Y-81619678D01*
X110716143Y-81458963D01*
X110787571Y-81235750D01*
X110787571Y-80878607D01*
X110001857Y-82476821D02*
X110001857Y-82976821D01*
X110787571Y-83092893D02*
X110787571Y-82378607D01*
X109287571Y-82566107D01*
X109287571Y-83280393D01*
X109287571Y-83708964D02*
X110787571Y-84021464D01*
X109287571Y-84708964D01*
X110001857Y-85119678D02*
X110001857Y-85619678D01*
X110787571Y-85735750D02*
X110787571Y-85021464D01*
X109287571Y-85208964D01*
X109287571Y-85923250D01*
X110787571Y-87092893D02*
X110787571Y-86378607D01*
X109287571Y-86566107D01*
X109287571Y-88066107D02*
X109287571Y-88351821D01*
X109359000Y-88485750D01*
X109501857Y-88610750D01*
X109787571Y-88646464D01*
X110287571Y-88583964D01*
X110573286Y-88476821D01*
X110716143Y-88316107D01*
X110787571Y-88164321D01*
X110787571Y-87878607D01*
X110716143Y-87744678D01*
X110573286Y-87619678D01*
X110287571Y-87583964D01*
X109787571Y-87646464D01*
X109501857Y-87753607D01*
X109359000Y-87914321D01*
X109287571Y-88066107D01*
X110787571Y-89164322D02*
X109287571Y-89351822D01*
X109287571Y-89923250D01*
X109359000Y-90057179D01*
X109430429Y-90119678D01*
X109573286Y-90173250D01*
X109787571Y-90146465D01*
X109930429Y-90057178D01*
X110001857Y-89976822D01*
X110073286Y-89825035D01*
X110073286Y-89253607D01*
X110787571Y-90664322D02*
X109287571Y-90851822D01*
X110359000Y-91217893D01*
X109287571Y-91851822D01*
X110787571Y-91664322D01*
X110001857Y-92476822D02*
X110001857Y-92976822D01*
X110787571Y-93092894D02*
X110787571Y-92378608D01*
X109287571Y-92566108D01*
X109287571Y-93280394D01*
X110787571Y-93735751D02*
X109287571Y-93923251D01*
X110787571Y-94592894D01*
X109287571Y-94780394D01*
X109287571Y-95280394D02*
X109287571Y-96137537D01*
X110787571Y-95521466D02*
X109287571Y-95708966D01*
D11*
X107819000Y-84463430D02*
X107819000Y-85177716D01*
X108247571Y-84320573D02*
X106747571Y-84820573D01*
X108247571Y-85320573D01*
X106747571Y-85677716D02*
X108247571Y-86677716D01*
X106747571Y-86677716D02*
X108247571Y-85677716D01*
X106747571Y-87963430D02*
X106747571Y-87249144D01*
X107461857Y-87177715D01*
X107390429Y-87249144D01*
X107319000Y-87392001D01*
X107319000Y-87749144D01*
X107390429Y-87892001D01*
X107461857Y-87963430D01*
X107604714Y-88034858D01*
X107961857Y-88034858D01*
X108104714Y-87963430D01*
X108176143Y-87892001D01*
X108247571Y-87749144D01*
X108247571Y-87392001D01*
X108176143Y-87249144D01*
X108104714Y-87177715D01*
X106747571Y-88963429D02*
X106747571Y-89106286D01*
X106819000Y-89249143D01*
X106890429Y-89320572D01*
X107033286Y-89392001D01*
X107319000Y-89463429D01*
X107676143Y-89463429D01*
X107961857Y-89392001D01*
X108104714Y-89320572D01*
X108176143Y-89249143D01*
X108247571Y-89106286D01*
X108247571Y-88963429D01*
X108176143Y-88820572D01*
X108104714Y-88749143D01*
X107961857Y-88677715D01*
X107676143Y-88606286D01*
X107319000Y-88606286D01*
X107033286Y-88677715D01*
X106890429Y-88749143D01*
X106819000Y-88820572D01*
X106747571Y-88963429D01*
X107247571Y-90749143D02*
X108247571Y-90749143D01*
X106676143Y-90392000D02*
X107747571Y-90034857D01*
X107747571Y-90963429D01*
X106747571Y-91392000D02*
X106747571Y-92320571D01*
X107319000Y-91820571D01*
X107319000Y-92034857D01*
X107390429Y-92177714D01*
X107461857Y-92249143D01*
X107604714Y-92320571D01*
X107961857Y-92320571D01*
X108104714Y-92249143D01*
X108176143Y-92177714D01*
X108247571Y-92034857D01*
X108247571Y-91606285D01*
X108176143Y-91463428D01*
X108104714Y-91392000D01*
D12*
X110787571Y-57002607D02*
X109287571Y-57190107D01*
X109287571Y-57547250D01*
X109359000Y-57752606D01*
X109501857Y-57877607D01*
X109644714Y-57931178D01*
X109930429Y-57966892D01*
X110144714Y-57940107D01*
X110430429Y-57832963D01*
X110573286Y-57743678D01*
X110716143Y-57582963D01*
X110787571Y-57359750D01*
X110787571Y-57002607D01*
X110001857Y-58600821D02*
X110001857Y-59100821D01*
X110787571Y-59216893D02*
X110787571Y-58502607D01*
X109287571Y-58690107D01*
X109287571Y-59404393D01*
X109287571Y-59832964D02*
X110787571Y-60145464D01*
X109287571Y-60832964D01*
X110001857Y-61243678D02*
X110001857Y-61743678D01*
X110787571Y-61859750D02*
X110787571Y-61145464D01*
X109287571Y-61332964D01*
X109287571Y-62047250D01*
X110787571Y-63216893D02*
X110787571Y-62502607D01*
X109287571Y-62690107D01*
X109287571Y-64190107D02*
X109287571Y-64475821D01*
X109359000Y-64609750D01*
X109501857Y-64734750D01*
X109787571Y-64770464D01*
X110287571Y-64707964D01*
X110573286Y-64600821D01*
X110716143Y-64440107D01*
X110787571Y-64288321D01*
X110787571Y-64002607D01*
X110716143Y-63868678D01*
X110573286Y-63743678D01*
X110287571Y-63707964D01*
X109787571Y-63770464D01*
X109501857Y-63877607D01*
X109359000Y-64038321D01*
X109287571Y-64190107D01*
X110787571Y-65288322D02*
X109287571Y-65475822D01*
X109287571Y-66047250D01*
X109359000Y-66181179D01*
X109430429Y-66243678D01*
X109573286Y-66297250D01*
X109787571Y-66270465D01*
X109930429Y-66181178D01*
X110001857Y-66100822D01*
X110073286Y-65949035D01*
X110073286Y-65377607D01*
X110787571Y-66788322D02*
X109287571Y-66975822D01*
X110359000Y-67341893D01*
X109287571Y-67975822D01*
X110787571Y-67788322D01*
X110001857Y-68600822D02*
X110001857Y-69100822D01*
X110787571Y-69216894D02*
X110787571Y-68502608D01*
X109287571Y-68690108D01*
X109287571Y-69404394D01*
X110787571Y-69859751D02*
X109287571Y-70047251D01*
X110787571Y-70716894D01*
X109287571Y-70904394D01*
X109287571Y-71404394D02*
X109287571Y-72261537D01*
X110787571Y-71645466D02*
X109287571Y-71832966D01*
D11*
X107819000Y-60587430D02*
X107819000Y-61301716D01*
X108247571Y-60444573D02*
X106747571Y-60944573D01*
X108247571Y-61444573D01*
X106747571Y-61801716D02*
X108247571Y-62801716D01*
X106747571Y-62801716D02*
X108247571Y-61801716D01*
X106747571Y-64087430D02*
X106747571Y-63373144D01*
X107461857Y-63301715D01*
X107390429Y-63373144D01*
X107319000Y-63516001D01*
X107319000Y-63873144D01*
X107390429Y-64016001D01*
X107461857Y-64087430D01*
X107604714Y-64158858D01*
X107961857Y-64158858D01*
X108104714Y-64087430D01*
X108176143Y-64016001D01*
X108247571Y-63873144D01*
X108247571Y-63516001D01*
X108176143Y-63373144D01*
X108104714Y-63301715D01*
X106747571Y-65087429D02*
X106747571Y-65230286D01*
X106819000Y-65373143D01*
X106890429Y-65444572D01*
X107033286Y-65516001D01*
X107319000Y-65587429D01*
X107676143Y-65587429D01*
X107961857Y-65516001D01*
X108104714Y-65444572D01*
X108176143Y-65373143D01*
X108247571Y-65230286D01*
X108247571Y-65087429D01*
X108176143Y-64944572D01*
X108104714Y-64873143D01*
X107961857Y-64801715D01*
X107676143Y-64730286D01*
X107319000Y-64730286D01*
X107033286Y-64801715D01*
X106890429Y-64873143D01*
X106819000Y-64944572D01*
X106747571Y-65087429D01*
X107247571Y-66873143D02*
X108247571Y-66873143D01*
X106676143Y-66516000D02*
X107747571Y-66158857D01*
X107747571Y-67087429D01*
X106747571Y-67516000D02*
X106747571Y-68444571D01*
X107319000Y-67944571D01*
X107319000Y-68158857D01*
X107390429Y-68301714D01*
X107461857Y-68373143D01*
X107604714Y-68444571D01*
X107961857Y-68444571D01*
X108104714Y-68373143D01*
X108176143Y-68301714D01*
X108247571Y-68158857D01*
X108247571Y-67730285D01*
X108176143Y-67587428D01*
X108104714Y-67516000D01*
D13*
X173796000Y-98612000D02*
X171136000Y-98612000D01*
X173796000Y-80772000D02*
X173796000Y-98612000D01*
X171136000Y-80772000D02*
X171136000Y-98612000D01*
X173796000Y-80772000D02*
X171136000Y-80772000D01*
X173796000Y-79502000D02*
X173796000Y-78172000D01*
X173796000Y-78172000D02*
X172466000Y-78172000D01*
D14*
G36*
X161436720Y-95697646D02*
X161408534Y-95707783D01*
X161365017Y-95724213D01*
X161298280Y-95749089D01*
X161212639Y-95780828D01*
X161112409Y-95817848D01*
X161001904Y-95858564D01*
X160885441Y-95901395D01*
X160767333Y-95944756D01*
X160651897Y-95987064D01*
X160543447Y-96026736D01*
X160446299Y-96062189D01*
X160364767Y-96091839D01*
X160303168Y-96114104D01*
X160265815Y-96127400D01*
X160256316Y-96130533D01*
X160254325Y-96114305D01*
X160252235Y-96068437D01*
X160250147Y-95997156D01*
X160248162Y-95904690D01*
X160246383Y-95795264D01*
X160244910Y-95673105D01*
X160244623Y-95643409D01*
X160240133Y-95156284D01*
X159497827Y-95717695D01*
X159358239Y-95823371D01*
X159226501Y-95923304D01*
X159105144Y-96015562D01*
X158996696Y-96098213D01*
X158903686Y-96169324D01*
X158828644Y-96226964D01*
X158774099Y-96269200D01*
X158742580Y-96294100D01*
X158735827Y-96299856D01*
X158727001Y-96313930D01*
X158745916Y-96311939D01*
X158750000Y-96310786D01*
X158787351Y-96300287D01*
X158849334Y-96283246D01*
X158931200Y-96260936D01*
X159028199Y-96234636D01*
X159135582Y-96205622D01*
X159248600Y-96175169D01*
X159362502Y-96144555D01*
X159472541Y-96115056D01*
X159573966Y-96087947D01*
X159662027Y-96064507D01*
X159731977Y-96046010D01*
X159779064Y-96033734D01*
X159798540Y-96028954D01*
X159798744Y-96028934D01*
X159801227Y-96045153D01*
X159803471Y-96090954D01*
X159805390Y-96162053D01*
X159806896Y-96254165D01*
X159807904Y-96363007D01*
X159808326Y-96484294D01*
X159808334Y-96503067D01*
X159808623Y-96625834D01*
X159809440Y-96736790D01*
X159810708Y-96831653D01*
X159812351Y-96906136D01*
X159814293Y-96955957D01*
X159816456Y-96976831D01*
X159816791Y-96977200D01*
X159831073Y-96967097D01*
X159869160Y-96938253D01*
X159928243Y-96892867D01*
X160005509Y-96833139D01*
X160098148Y-96761266D01*
X160203347Y-96679449D01*
X160318296Y-96589885D01*
X160440183Y-96494774D01*
X160566197Y-96396315D01*
X160693527Y-96296706D01*
X160819361Y-96198147D01*
X160940888Y-96102836D01*
X161055298Y-96012972D01*
X161159777Y-95930754D01*
X161251516Y-95858382D01*
X161327702Y-95798053D01*
X161385525Y-95751967D01*
X161422174Y-95722322D01*
X161433933Y-95712334D01*
X161447123Y-95697630D01*
X161436720Y-95697646D01*
X161436720Y-95697646D01*
G37*
X161436720Y-95697646D02*
X161408534Y-95707783D01*
X161365017Y-95724213D01*
X161298280Y-95749089D01*
X161212639Y-95780828D01*
X161112409Y-95817848D01*
X161001904Y-95858564D01*
X160885441Y-95901395D01*
X160767333Y-95944756D01*
X160651897Y-95987064D01*
X160543447Y-96026736D01*
X160446299Y-96062189D01*
X160364767Y-96091839D01*
X160303168Y-96114104D01*
X160265815Y-96127400D01*
X160256316Y-96130533D01*
X160254325Y-96114305D01*
X160252235Y-96068437D01*
X160250147Y-95997156D01*
X160248162Y-95904690D01*
X160246383Y-95795264D01*
X160244910Y-95673105D01*
X160244623Y-95643409D01*
X160240133Y-95156284D01*
X159497827Y-95717695D01*
X159358239Y-95823371D01*
X159226501Y-95923304D01*
X159105144Y-96015562D01*
X158996696Y-96098213D01*
X158903686Y-96169324D01*
X158828644Y-96226964D01*
X158774099Y-96269200D01*
X158742580Y-96294100D01*
X158735827Y-96299856D01*
X158727001Y-96313930D01*
X158745916Y-96311939D01*
X158750000Y-96310786D01*
X158787351Y-96300287D01*
X158849334Y-96283246D01*
X158931200Y-96260936D01*
X159028199Y-96234636D01*
X159135582Y-96205622D01*
X159248600Y-96175169D01*
X159362502Y-96144555D01*
X159472541Y-96115056D01*
X159573966Y-96087947D01*
X159662027Y-96064507D01*
X159731977Y-96046010D01*
X159779064Y-96033734D01*
X159798540Y-96028954D01*
X159798744Y-96028934D01*
X159801227Y-96045153D01*
X159803471Y-96090954D01*
X159805390Y-96162053D01*
X159806896Y-96254165D01*
X159807904Y-96363007D01*
X159808326Y-96484294D01*
X159808334Y-96503067D01*
X159808623Y-96625834D01*
X159809440Y-96736790D01*
X159810708Y-96831653D01*
X159812351Y-96906136D01*
X159814293Y-96955957D01*
X159816456Y-96976831D01*
X159816791Y-96977200D01*
X159831073Y-96967097D01*
X159869160Y-96938253D01*
X159928243Y-96892867D01*
X160005509Y-96833139D01*
X160098148Y-96761266D01*
X160203347Y-96679449D01*
X160318296Y-96589885D01*
X160440183Y-96494774D01*
X160566197Y-96396315D01*
X160693527Y-96296706D01*
X160819361Y-96198147D01*
X160940888Y-96102836D01*
X161055298Y-96012972D01*
X161159777Y-95930754D01*
X161251516Y-95858382D01*
X161327702Y-95798053D01*
X161385525Y-95751967D01*
X161422174Y-95722322D01*
X161433933Y-95712334D01*
X161447123Y-95697630D01*
X161436720Y-95697646D01*
D13*
X173796000Y-74736000D02*
X171136000Y-74736000D01*
X173796000Y-56896000D02*
X173796000Y-74736000D01*
X171136000Y-56896000D02*
X171136000Y-74736000D01*
X173796000Y-56896000D02*
X171136000Y-56896000D01*
X173796000Y-55626000D02*
X173796000Y-54296000D01*
X173796000Y-54296000D02*
X172466000Y-54296000D01*
D14*
G36*
X161436720Y-71821646D02*
X161408534Y-71831783D01*
X161365017Y-71848213D01*
X161298280Y-71873089D01*
X161212639Y-71904828D01*
X161112409Y-71941848D01*
X161001904Y-71982564D01*
X160885441Y-72025395D01*
X160767333Y-72068756D01*
X160651897Y-72111064D01*
X160543447Y-72150736D01*
X160446299Y-72186189D01*
X160364767Y-72215839D01*
X160303168Y-72238104D01*
X160265815Y-72251400D01*
X160256316Y-72254533D01*
X160254325Y-72238305D01*
X160252235Y-72192437D01*
X160250147Y-72121156D01*
X160248162Y-72028690D01*
X160246383Y-71919264D01*
X160244910Y-71797105D01*
X160244623Y-71767409D01*
X160240133Y-71280284D01*
X159497827Y-71841695D01*
X159358239Y-71947371D01*
X159226501Y-72047304D01*
X159105144Y-72139562D01*
X158996696Y-72222213D01*
X158903686Y-72293324D01*
X158828644Y-72350964D01*
X158774099Y-72393200D01*
X158742580Y-72418100D01*
X158735827Y-72423856D01*
X158727001Y-72437930D01*
X158745916Y-72435939D01*
X158750000Y-72434786D01*
X158787351Y-72424287D01*
X158849334Y-72407246D01*
X158931200Y-72384936D01*
X159028199Y-72358636D01*
X159135582Y-72329622D01*
X159248600Y-72299169D01*
X159362502Y-72268555D01*
X159472541Y-72239056D01*
X159573966Y-72211947D01*
X159662027Y-72188507D01*
X159731977Y-72170010D01*
X159779064Y-72157734D01*
X159798540Y-72152954D01*
X159798744Y-72152934D01*
X159801227Y-72169153D01*
X159803471Y-72214954D01*
X159805390Y-72286053D01*
X159806896Y-72378165D01*
X159807904Y-72487007D01*
X159808326Y-72608294D01*
X159808334Y-72627067D01*
X159808623Y-72749834D01*
X159809440Y-72860790D01*
X159810708Y-72955653D01*
X159812351Y-73030136D01*
X159814293Y-73079957D01*
X159816456Y-73100831D01*
X159816791Y-73101200D01*
X159831073Y-73091097D01*
X159869160Y-73062253D01*
X159928243Y-73016867D01*
X160005509Y-72957139D01*
X160098148Y-72885266D01*
X160203347Y-72803449D01*
X160318296Y-72713885D01*
X160440183Y-72618774D01*
X160566197Y-72520315D01*
X160693527Y-72420706D01*
X160819361Y-72322147D01*
X160940888Y-72226836D01*
X161055298Y-72136972D01*
X161159777Y-72054754D01*
X161251516Y-71982382D01*
X161327702Y-71922053D01*
X161385525Y-71875967D01*
X161422174Y-71846322D01*
X161433933Y-71836334D01*
X161447123Y-71821630D01*
X161436720Y-71821646D01*
X161436720Y-71821646D01*
G37*
X161436720Y-71821646D02*
X161408534Y-71831783D01*
X161365017Y-71848213D01*
X161298280Y-71873089D01*
X161212639Y-71904828D01*
X161112409Y-71941848D01*
X161001904Y-71982564D01*
X160885441Y-72025395D01*
X160767333Y-72068756D01*
X160651897Y-72111064D01*
X160543447Y-72150736D01*
X160446299Y-72186189D01*
X160364767Y-72215839D01*
X160303168Y-72238104D01*
X160265815Y-72251400D01*
X160256316Y-72254533D01*
X160254325Y-72238305D01*
X160252235Y-72192437D01*
X160250147Y-72121156D01*
X160248162Y-72028690D01*
X160246383Y-71919264D01*
X160244910Y-71797105D01*
X160244623Y-71767409D01*
X160240133Y-71280284D01*
X159497827Y-71841695D01*
X159358239Y-71947371D01*
X159226501Y-72047304D01*
X159105144Y-72139562D01*
X158996696Y-72222213D01*
X158903686Y-72293324D01*
X158828644Y-72350964D01*
X158774099Y-72393200D01*
X158742580Y-72418100D01*
X158735827Y-72423856D01*
X158727001Y-72437930D01*
X158745916Y-72435939D01*
X158750000Y-72434786D01*
X158787351Y-72424287D01*
X158849334Y-72407246D01*
X158931200Y-72384936D01*
X159028199Y-72358636D01*
X159135582Y-72329622D01*
X159248600Y-72299169D01*
X159362502Y-72268555D01*
X159472541Y-72239056D01*
X159573966Y-72211947D01*
X159662027Y-72188507D01*
X159731977Y-72170010D01*
X159779064Y-72157734D01*
X159798540Y-72152954D01*
X159798744Y-72152934D01*
X159801227Y-72169153D01*
X159803471Y-72214954D01*
X159805390Y-72286053D01*
X159806896Y-72378165D01*
X159807904Y-72487007D01*
X159808326Y-72608294D01*
X159808334Y-72627067D01*
X159808623Y-72749834D01*
X159809440Y-72860790D01*
X159810708Y-72955653D01*
X159812351Y-73030136D01*
X159814293Y-73079957D01*
X159816456Y-73100831D01*
X159816791Y-73101200D01*
X159831073Y-73091097D01*
X159869160Y-73062253D01*
X159928243Y-73016867D01*
X160005509Y-72957139D01*
X160098148Y-72885266D01*
X160203347Y-72803449D01*
X160318296Y-72713885D01*
X160440183Y-72618774D01*
X160566197Y-72520315D01*
X160693527Y-72420706D01*
X160819361Y-72322147D01*
X160940888Y-72226836D01*
X161055298Y-72136972D01*
X161159777Y-72054754D01*
X161251516Y-71982382D01*
X161327702Y-71922053D01*
X161385525Y-71875967D01*
X161422174Y-71846322D01*
X161433933Y-71836334D01*
X161447123Y-71821630D01*
X161436720Y-71821646D01*
D13*
X155000000Y-98612000D02*
X152340000Y-98612000D01*
X155000000Y-80772000D02*
X155000000Y-98612000D01*
X152340000Y-80772000D02*
X152340000Y-98612000D01*
X155000000Y-80772000D02*
X152340000Y-80772000D01*
X155000000Y-79502000D02*
X155000000Y-78172000D01*
X155000000Y-78172000D02*
X153670000Y-78172000D01*
D14*
G36*
X142640720Y-95697646D02*
X142612534Y-95707783D01*
X142569017Y-95724213D01*
X142502280Y-95749089D01*
X142416639Y-95780828D01*
X142316409Y-95817848D01*
X142205904Y-95858564D01*
X142089441Y-95901395D01*
X141971333Y-95944756D01*
X141855897Y-95987064D01*
X141747447Y-96026736D01*
X141650299Y-96062189D01*
X141568767Y-96091839D01*
X141507168Y-96114104D01*
X141469815Y-96127400D01*
X141460316Y-96130533D01*
X141458325Y-96114305D01*
X141456235Y-96068437D01*
X141454147Y-95997156D01*
X141452162Y-95904690D01*
X141450383Y-95795264D01*
X141448910Y-95673105D01*
X141448623Y-95643409D01*
X141444133Y-95156284D01*
X140701827Y-95717695D01*
X140562239Y-95823371D01*
X140430501Y-95923304D01*
X140309144Y-96015562D01*
X140200696Y-96098213D01*
X140107686Y-96169324D01*
X140032644Y-96226964D01*
X139978099Y-96269200D01*
X139946580Y-96294100D01*
X139939827Y-96299856D01*
X139931001Y-96313930D01*
X139949916Y-96311939D01*
X139954000Y-96310786D01*
X139991351Y-96300287D01*
X140053334Y-96283246D01*
X140135200Y-96260936D01*
X140232199Y-96234636D01*
X140339582Y-96205622D01*
X140452600Y-96175169D01*
X140566502Y-96144555D01*
X140676541Y-96115056D01*
X140777966Y-96087947D01*
X140866027Y-96064507D01*
X140935977Y-96046010D01*
X140983064Y-96033734D01*
X141002540Y-96028954D01*
X141002744Y-96028934D01*
X141005227Y-96045153D01*
X141007471Y-96090954D01*
X141009390Y-96162053D01*
X141010896Y-96254165D01*
X141011904Y-96363007D01*
X141012326Y-96484294D01*
X141012334Y-96503067D01*
X141012623Y-96625834D01*
X141013440Y-96736790D01*
X141014708Y-96831653D01*
X141016351Y-96906136D01*
X141018293Y-96955957D01*
X141020456Y-96976831D01*
X141020791Y-96977200D01*
X141035073Y-96967097D01*
X141073160Y-96938253D01*
X141132243Y-96892867D01*
X141209509Y-96833139D01*
X141302148Y-96761266D01*
X141407347Y-96679449D01*
X141522296Y-96589885D01*
X141644183Y-96494774D01*
X141770197Y-96396315D01*
X141897527Y-96296706D01*
X142023361Y-96198147D01*
X142144888Y-96102836D01*
X142259298Y-96012972D01*
X142363777Y-95930754D01*
X142455516Y-95858382D01*
X142531702Y-95798053D01*
X142589525Y-95751967D01*
X142626174Y-95722322D01*
X142637933Y-95712334D01*
X142651123Y-95697630D01*
X142640720Y-95697646D01*
X142640720Y-95697646D01*
G37*
X142640720Y-95697646D02*
X142612534Y-95707783D01*
X142569017Y-95724213D01*
X142502280Y-95749089D01*
X142416639Y-95780828D01*
X142316409Y-95817848D01*
X142205904Y-95858564D01*
X142089441Y-95901395D01*
X141971333Y-95944756D01*
X141855897Y-95987064D01*
X141747447Y-96026736D01*
X141650299Y-96062189D01*
X141568767Y-96091839D01*
X141507168Y-96114104D01*
X141469815Y-96127400D01*
X141460316Y-96130533D01*
X141458325Y-96114305D01*
X141456235Y-96068437D01*
X141454147Y-95997156D01*
X141452162Y-95904690D01*
X141450383Y-95795264D01*
X141448910Y-95673105D01*
X141448623Y-95643409D01*
X141444133Y-95156284D01*
X140701827Y-95717695D01*
X140562239Y-95823371D01*
X140430501Y-95923304D01*
X140309144Y-96015562D01*
X140200696Y-96098213D01*
X140107686Y-96169324D01*
X140032644Y-96226964D01*
X139978099Y-96269200D01*
X139946580Y-96294100D01*
X139939827Y-96299856D01*
X139931001Y-96313930D01*
X139949916Y-96311939D01*
X139954000Y-96310786D01*
X139991351Y-96300287D01*
X140053334Y-96283246D01*
X140135200Y-96260936D01*
X140232199Y-96234636D01*
X140339582Y-96205622D01*
X140452600Y-96175169D01*
X140566502Y-96144555D01*
X140676541Y-96115056D01*
X140777966Y-96087947D01*
X140866027Y-96064507D01*
X140935977Y-96046010D01*
X140983064Y-96033734D01*
X141002540Y-96028954D01*
X141002744Y-96028934D01*
X141005227Y-96045153D01*
X141007471Y-96090954D01*
X141009390Y-96162053D01*
X141010896Y-96254165D01*
X141011904Y-96363007D01*
X141012326Y-96484294D01*
X141012334Y-96503067D01*
X141012623Y-96625834D01*
X141013440Y-96736790D01*
X141014708Y-96831653D01*
X141016351Y-96906136D01*
X141018293Y-96955957D01*
X141020456Y-96976831D01*
X141020791Y-96977200D01*
X141035073Y-96967097D01*
X141073160Y-96938253D01*
X141132243Y-96892867D01*
X141209509Y-96833139D01*
X141302148Y-96761266D01*
X141407347Y-96679449D01*
X141522296Y-96589885D01*
X141644183Y-96494774D01*
X141770197Y-96396315D01*
X141897527Y-96296706D01*
X142023361Y-96198147D01*
X142144888Y-96102836D01*
X142259298Y-96012972D01*
X142363777Y-95930754D01*
X142455516Y-95858382D01*
X142531702Y-95798053D01*
X142589525Y-95751967D01*
X142626174Y-95722322D01*
X142637933Y-95712334D01*
X142651123Y-95697630D01*
X142640720Y-95697646D01*
D13*
X155000000Y-74736000D02*
X152340000Y-74736000D01*
X155000000Y-56896000D02*
X155000000Y-74736000D01*
X152340000Y-56896000D02*
X152340000Y-74736000D01*
X155000000Y-56896000D02*
X152340000Y-56896000D01*
X155000000Y-55626000D02*
X155000000Y-54296000D01*
X155000000Y-54296000D02*
X153670000Y-54296000D01*
D14*
G36*
X142640720Y-71821646D02*
X142612534Y-71831783D01*
X142569017Y-71848213D01*
X142502280Y-71873089D01*
X142416639Y-71904828D01*
X142316409Y-71941848D01*
X142205904Y-71982564D01*
X142089441Y-72025395D01*
X141971333Y-72068756D01*
X141855897Y-72111064D01*
X141747447Y-72150736D01*
X141650299Y-72186189D01*
X141568767Y-72215839D01*
X141507168Y-72238104D01*
X141469815Y-72251400D01*
X141460316Y-72254533D01*
X141458325Y-72238305D01*
X141456235Y-72192437D01*
X141454147Y-72121156D01*
X141452162Y-72028690D01*
X141450383Y-71919264D01*
X141448910Y-71797105D01*
X141448623Y-71767409D01*
X141444133Y-71280284D01*
X140701827Y-71841695D01*
X140562239Y-71947371D01*
X140430501Y-72047304D01*
X140309144Y-72139562D01*
X140200696Y-72222213D01*
X140107686Y-72293324D01*
X140032644Y-72350964D01*
X139978099Y-72393200D01*
X139946580Y-72418100D01*
X139939827Y-72423856D01*
X139931001Y-72437930D01*
X139949916Y-72435939D01*
X139954000Y-72434786D01*
X139991351Y-72424287D01*
X140053334Y-72407246D01*
X140135200Y-72384936D01*
X140232199Y-72358636D01*
X140339582Y-72329622D01*
X140452600Y-72299169D01*
X140566502Y-72268555D01*
X140676541Y-72239056D01*
X140777966Y-72211947D01*
X140866027Y-72188507D01*
X140935977Y-72170010D01*
X140983064Y-72157734D01*
X141002540Y-72152954D01*
X141002744Y-72152934D01*
X141005227Y-72169153D01*
X141007471Y-72214954D01*
X141009390Y-72286053D01*
X141010896Y-72378165D01*
X141011904Y-72487007D01*
X141012326Y-72608294D01*
X141012334Y-72627067D01*
X141012623Y-72749834D01*
X141013440Y-72860790D01*
X141014708Y-72955653D01*
X141016351Y-73030136D01*
X141018293Y-73079957D01*
X141020456Y-73100831D01*
X141020791Y-73101200D01*
X141035073Y-73091097D01*
X141073160Y-73062253D01*
X141132243Y-73016867D01*
X141209509Y-72957139D01*
X141302148Y-72885266D01*
X141407347Y-72803449D01*
X141522296Y-72713885D01*
X141644183Y-72618774D01*
X141770197Y-72520315D01*
X141897527Y-72420706D01*
X142023361Y-72322147D01*
X142144888Y-72226836D01*
X142259298Y-72136972D01*
X142363777Y-72054754D01*
X142455516Y-71982382D01*
X142531702Y-71922053D01*
X142589525Y-71875967D01*
X142626174Y-71846322D01*
X142637933Y-71836334D01*
X142651123Y-71821630D01*
X142640720Y-71821646D01*
X142640720Y-71821646D01*
G37*
X142640720Y-71821646D02*
X142612534Y-71831783D01*
X142569017Y-71848213D01*
X142502280Y-71873089D01*
X142416639Y-71904828D01*
X142316409Y-71941848D01*
X142205904Y-71982564D01*
X142089441Y-72025395D01*
X141971333Y-72068756D01*
X141855897Y-72111064D01*
X141747447Y-72150736D01*
X141650299Y-72186189D01*
X141568767Y-72215839D01*
X141507168Y-72238104D01*
X141469815Y-72251400D01*
X141460316Y-72254533D01*
X141458325Y-72238305D01*
X141456235Y-72192437D01*
X141454147Y-72121156D01*
X141452162Y-72028690D01*
X141450383Y-71919264D01*
X141448910Y-71797105D01*
X141448623Y-71767409D01*
X141444133Y-71280284D01*
X140701827Y-71841695D01*
X140562239Y-71947371D01*
X140430501Y-72047304D01*
X140309144Y-72139562D01*
X140200696Y-72222213D01*
X140107686Y-72293324D01*
X140032644Y-72350964D01*
X139978099Y-72393200D01*
X139946580Y-72418100D01*
X139939827Y-72423856D01*
X139931001Y-72437930D01*
X139949916Y-72435939D01*
X139954000Y-72434786D01*
X139991351Y-72424287D01*
X140053334Y-72407246D01*
X140135200Y-72384936D01*
X140232199Y-72358636D01*
X140339582Y-72329622D01*
X140452600Y-72299169D01*
X140566502Y-72268555D01*
X140676541Y-72239056D01*
X140777966Y-72211947D01*
X140866027Y-72188507D01*
X140935977Y-72170010D01*
X140983064Y-72157734D01*
X141002540Y-72152954D01*
X141002744Y-72152934D01*
X141005227Y-72169153D01*
X141007471Y-72214954D01*
X141009390Y-72286053D01*
X141010896Y-72378165D01*
X141011904Y-72487007D01*
X141012326Y-72608294D01*
X141012334Y-72627067D01*
X141012623Y-72749834D01*
X141013440Y-72860790D01*
X141014708Y-72955653D01*
X141016351Y-73030136D01*
X141018293Y-73079957D01*
X141020456Y-73100831D01*
X141020791Y-73101200D01*
X141035073Y-73091097D01*
X141073160Y-73062253D01*
X141132243Y-73016867D01*
X141209509Y-72957139D01*
X141302148Y-72885266D01*
X141407347Y-72803449D01*
X141522296Y-72713885D01*
X141644183Y-72618774D01*
X141770197Y-72520315D01*
X141897527Y-72420706D01*
X142023361Y-72322147D01*
X142144888Y-72226836D01*
X142259298Y-72136972D01*
X142363777Y-72054754D01*
X142455516Y-71982382D01*
X142531702Y-71922053D01*
X142589525Y-71875967D01*
X142626174Y-71846322D01*
X142637933Y-71836334D01*
X142651123Y-71821630D01*
X142640720Y-71821646D01*
D13*
X136204000Y-74736000D02*
X133544000Y-74736000D01*
X136204000Y-56896000D02*
X136204000Y-74736000D01*
X133544000Y-56896000D02*
X133544000Y-74736000D01*
X136204000Y-56896000D02*
X133544000Y-56896000D01*
X136204000Y-55626000D02*
X136204000Y-54296000D01*
X136204000Y-54296000D02*
X134874000Y-54296000D01*
D14*
G36*
X123844720Y-71821646D02*
X123816534Y-71831783D01*
X123773017Y-71848213D01*
X123706280Y-71873089D01*
X123620639Y-71904828D01*
X123520409Y-71941848D01*
X123409904Y-71982564D01*
X123293441Y-72025395D01*
X123175333Y-72068756D01*
X123059897Y-72111064D01*
X122951447Y-72150736D01*
X122854299Y-72186189D01*
X122772767Y-72215839D01*
X122711168Y-72238104D01*
X122673815Y-72251400D01*
X122664316Y-72254533D01*
X122662325Y-72238305D01*
X122660235Y-72192437D01*
X122658147Y-72121156D01*
X122656162Y-72028690D01*
X122654383Y-71919264D01*
X122652910Y-71797105D01*
X122652623Y-71767409D01*
X122648133Y-71280284D01*
X121905827Y-71841695D01*
X121766239Y-71947371D01*
X121634501Y-72047304D01*
X121513144Y-72139562D01*
X121404696Y-72222213D01*
X121311686Y-72293324D01*
X121236644Y-72350964D01*
X121182099Y-72393200D01*
X121150580Y-72418100D01*
X121143827Y-72423856D01*
X121135001Y-72437930D01*
X121153916Y-72435939D01*
X121158000Y-72434786D01*
X121195351Y-72424287D01*
X121257334Y-72407246D01*
X121339200Y-72384936D01*
X121436199Y-72358636D01*
X121543582Y-72329622D01*
X121656600Y-72299169D01*
X121770502Y-72268555D01*
X121880541Y-72239056D01*
X121981966Y-72211947D01*
X122070027Y-72188507D01*
X122139977Y-72170010D01*
X122187064Y-72157734D01*
X122206540Y-72152954D01*
X122206744Y-72152934D01*
X122209227Y-72169153D01*
X122211471Y-72214954D01*
X122213390Y-72286053D01*
X122214896Y-72378165D01*
X122215904Y-72487007D01*
X122216326Y-72608294D01*
X122216334Y-72627067D01*
X122216623Y-72749834D01*
X122217440Y-72860790D01*
X122218708Y-72955653D01*
X122220351Y-73030136D01*
X122222293Y-73079957D01*
X122224456Y-73100831D01*
X122224791Y-73101200D01*
X122239073Y-73091097D01*
X122277160Y-73062253D01*
X122336243Y-73016867D01*
X122413509Y-72957139D01*
X122506148Y-72885266D01*
X122611347Y-72803449D01*
X122726296Y-72713885D01*
X122848183Y-72618774D01*
X122974197Y-72520315D01*
X123101527Y-72420706D01*
X123227361Y-72322147D01*
X123348888Y-72226836D01*
X123463298Y-72136972D01*
X123567777Y-72054754D01*
X123659516Y-71982382D01*
X123735702Y-71922053D01*
X123793525Y-71875967D01*
X123830174Y-71846322D01*
X123841933Y-71836334D01*
X123855123Y-71821630D01*
X123844720Y-71821646D01*
X123844720Y-71821646D01*
G37*
X123844720Y-71821646D02*
X123816534Y-71831783D01*
X123773017Y-71848213D01*
X123706280Y-71873089D01*
X123620639Y-71904828D01*
X123520409Y-71941848D01*
X123409904Y-71982564D01*
X123293441Y-72025395D01*
X123175333Y-72068756D01*
X123059897Y-72111064D01*
X122951447Y-72150736D01*
X122854299Y-72186189D01*
X122772767Y-72215839D01*
X122711168Y-72238104D01*
X122673815Y-72251400D01*
X122664316Y-72254533D01*
X122662325Y-72238305D01*
X122660235Y-72192437D01*
X122658147Y-72121156D01*
X122656162Y-72028690D01*
X122654383Y-71919264D01*
X122652910Y-71797105D01*
X122652623Y-71767409D01*
X122648133Y-71280284D01*
X121905827Y-71841695D01*
X121766239Y-71947371D01*
X121634501Y-72047304D01*
X121513144Y-72139562D01*
X121404696Y-72222213D01*
X121311686Y-72293324D01*
X121236644Y-72350964D01*
X121182099Y-72393200D01*
X121150580Y-72418100D01*
X121143827Y-72423856D01*
X121135001Y-72437930D01*
X121153916Y-72435939D01*
X121158000Y-72434786D01*
X121195351Y-72424287D01*
X121257334Y-72407246D01*
X121339200Y-72384936D01*
X121436199Y-72358636D01*
X121543582Y-72329622D01*
X121656600Y-72299169D01*
X121770502Y-72268555D01*
X121880541Y-72239056D01*
X121981966Y-72211947D01*
X122070027Y-72188507D01*
X122139977Y-72170010D01*
X122187064Y-72157734D01*
X122206540Y-72152954D01*
X122206744Y-72152934D01*
X122209227Y-72169153D01*
X122211471Y-72214954D01*
X122213390Y-72286053D01*
X122214896Y-72378165D01*
X122215904Y-72487007D01*
X122216326Y-72608294D01*
X122216334Y-72627067D01*
X122216623Y-72749834D01*
X122217440Y-72860790D01*
X122218708Y-72955653D01*
X122220351Y-73030136D01*
X122222293Y-73079957D01*
X122224456Y-73100831D01*
X122224791Y-73101200D01*
X122239073Y-73091097D01*
X122277160Y-73062253D01*
X122336243Y-73016867D01*
X122413509Y-72957139D01*
X122506148Y-72885266D01*
X122611347Y-72803449D01*
X122726296Y-72713885D01*
X122848183Y-72618774D01*
X122974197Y-72520315D01*
X123101527Y-72420706D01*
X123227361Y-72322147D01*
X123348888Y-72226836D01*
X123463298Y-72136972D01*
X123567777Y-72054754D01*
X123659516Y-71982382D01*
X123735702Y-71922053D01*
X123793525Y-71875967D01*
X123830174Y-71846322D01*
X123841933Y-71836334D01*
X123855123Y-71821630D01*
X123844720Y-71821646D01*
D13*
X136204000Y-98612000D02*
X133544000Y-98612000D01*
X136204000Y-80772000D02*
X136204000Y-98612000D01*
X133544000Y-80772000D02*
X133544000Y-98612000D01*
X136204000Y-80772000D02*
X133544000Y-80772000D01*
X136204000Y-79502000D02*
X136204000Y-78172000D01*
X136204000Y-78172000D02*
X134874000Y-78172000D01*
D14*
G36*
X123844720Y-95697646D02*
X123816534Y-95707783D01*
X123773017Y-95724213D01*
X123706280Y-95749089D01*
X123620639Y-95780828D01*
X123520409Y-95817848D01*
X123409904Y-95858564D01*
X123293441Y-95901395D01*
X123175333Y-95944756D01*
X123059897Y-95987064D01*
X122951447Y-96026736D01*
X122854299Y-96062189D01*
X122772767Y-96091839D01*
X122711168Y-96114104D01*
X122673815Y-96127400D01*
X122664316Y-96130533D01*
X122662325Y-96114305D01*
X122660235Y-96068437D01*
X122658147Y-95997156D01*
X122656162Y-95904690D01*
X122654383Y-95795264D01*
X122652910Y-95673105D01*
X122652623Y-95643409D01*
X122648133Y-95156284D01*
X121905827Y-95717695D01*
X121766239Y-95823371D01*
X121634501Y-95923304D01*
X121513144Y-96015562D01*
X121404696Y-96098213D01*
X121311686Y-96169324D01*
X121236644Y-96226964D01*
X121182099Y-96269200D01*
X121150580Y-96294100D01*
X121143827Y-96299856D01*
X121135001Y-96313930D01*
X121153916Y-96311939D01*
X121158000Y-96310786D01*
X121195351Y-96300287D01*
X121257334Y-96283246D01*
X121339200Y-96260936D01*
X121436199Y-96234636D01*
X121543582Y-96205622D01*
X121656600Y-96175169D01*
X121770502Y-96144555D01*
X121880541Y-96115056D01*
X121981966Y-96087947D01*
X122070027Y-96064507D01*
X122139977Y-96046010D01*
X122187064Y-96033734D01*
X122206540Y-96028954D01*
X122206744Y-96028934D01*
X122209227Y-96045153D01*
X122211471Y-96090954D01*
X122213390Y-96162053D01*
X122214896Y-96254165D01*
X122215904Y-96363007D01*
X122216326Y-96484294D01*
X122216334Y-96503067D01*
X122216623Y-96625834D01*
X122217440Y-96736790D01*
X122218708Y-96831653D01*
X122220351Y-96906136D01*
X122222293Y-96955957D01*
X122224456Y-96976831D01*
X122224791Y-96977200D01*
X122239073Y-96967097D01*
X122277160Y-96938253D01*
X122336243Y-96892867D01*
X122413509Y-96833139D01*
X122506148Y-96761266D01*
X122611347Y-96679449D01*
X122726296Y-96589885D01*
X122848183Y-96494774D01*
X122974197Y-96396315D01*
X123101527Y-96296706D01*
X123227361Y-96198147D01*
X123348888Y-96102836D01*
X123463298Y-96012972D01*
X123567777Y-95930754D01*
X123659516Y-95858382D01*
X123735702Y-95798053D01*
X123793525Y-95751967D01*
X123830174Y-95722322D01*
X123841933Y-95712334D01*
X123855123Y-95697630D01*
X123844720Y-95697646D01*
X123844720Y-95697646D01*
G37*
X123844720Y-95697646D02*
X123816534Y-95707783D01*
X123773017Y-95724213D01*
X123706280Y-95749089D01*
X123620639Y-95780828D01*
X123520409Y-95817848D01*
X123409904Y-95858564D01*
X123293441Y-95901395D01*
X123175333Y-95944756D01*
X123059897Y-95987064D01*
X122951447Y-96026736D01*
X122854299Y-96062189D01*
X122772767Y-96091839D01*
X122711168Y-96114104D01*
X122673815Y-96127400D01*
X122664316Y-96130533D01*
X122662325Y-96114305D01*
X122660235Y-96068437D01*
X122658147Y-95997156D01*
X122656162Y-95904690D01*
X122654383Y-95795264D01*
X122652910Y-95673105D01*
X122652623Y-95643409D01*
X122648133Y-95156284D01*
X121905827Y-95717695D01*
X121766239Y-95823371D01*
X121634501Y-95923304D01*
X121513144Y-96015562D01*
X121404696Y-96098213D01*
X121311686Y-96169324D01*
X121236644Y-96226964D01*
X121182099Y-96269200D01*
X121150580Y-96294100D01*
X121143827Y-96299856D01*
X121135001Y-96313930D01*
X121153916Y-96311939D01*
X121158000Y-96310786D01*
X121195351Y-96300287D01*
X121257334Y-96283246D01*
X121339200Y-96260936D01*
X121436199Y-96234636D01*
X121543582Y-96205622D01*
X121656600Y-96175169D01*
X121770502Y-96144555D01*
X121880541Y-96115056D01*
X121981966Y-96087947D01*
X122070027Y-96064507D01*
X122139977Y-96046010D01*
X122187064Y-96033734D01*
X122206540Y-96028954D01*
X122206744Y-96028934D01*
X122209227Y-96045153D01*
X122211471Y-96090954D01*
X122213390Y-96162053D01*
X122214896Y-96254165D01*
X122215904Y-96363007D01*
X122216326Y-96484294D01*
X122216334Y-96503067D01*
X122216623Y-96625834D01*
X122217440Y-96736790D01*
X122218708Y-96831653D01*
X122220351Y-96906136D01*
X122222293Y-96955957D01*
X122224456Y-96976831D01*
X122224791Y-96977200D01*
X122239073Y-96967097D01*
X122277160Y-96938253D01*
X122336243Y-96892867D01*
X122413509Y-96833139D01*
X122506148Y-96761266D01*
X122611347Y-96679449D01*
X122726296Y-96589885D01*
X122848183Y-96494774D01*
X122974197Y-96396315D01*
X123101527Y-96296706D01*
X123227361Y-96198147D01*
X123348888Y-96102836D01*
X123463298Y-96012972D01*
X123567777Y-95930754D01*
X123659516Y-95858382D01*
X123735702Y-95798053D01*
X123793525Y-95751967D01*
X123830174Y-95722322D01*
X123841933Y-95712334D01*
X123855123Y-95697630D01*
X123844720Y-95697646D01*
D13*
X117408000Y-98612000D02*
X114748000Y-98612000D01*
X117408000Y-80772000D02*
X117408000Y-98612000D01*
X114748000Y-80772000D02*
X114748000Y-98612000D01*
X117408000Y-80772000D02*
X114748000Y-80772000D01*
X117408000Y-79502000D02*
X117408000Y-78172000D01*
X117408000Y-78172000D02*
X116078000Y-78172000D01*
D14*
G36*
X105048720Y-95697646D02*
X105020534Y-95707783D01*
X104977017Y-95724213D01*
X104910280Y-95749089D01*
X104824639Y-95780828D01*
X104724409Y-95817848D01*
X104613904Y-95858564D01*
X104497441Y-95901395D01*
X104379333Y-95944756D01*
X104263897Y-95987064D01*
X104155447Y-96026736D01*
X104058299Y-96062189D01*
X103976767Y-96091839D01*
X103915168Y-96114104D01*
X103877815Y-96127400D01*
X103868316Y-96130533D01*
X103866325Y-96114305D01*
X103864235Y-96068437D01*
X103862147Y-95997156D01*
X103860162Y-95904690D01*
X103858383Y-95795264D01*
X103856910Y-95673105D01*
X103856623Y-95643409D01*
X103852133Y-95156284D01*
X103109827Y-95717695D01*
X102970239Y-95823371D01*
X102838501Y-95923304D01*
X102717144Y-96015562D01*
X102608696Y-96098213D01*
X102515686Y-96169324D01*
X102440644Y-96226964D01*
X102386099Y-96269200D01*
X102354580Y-96294100D01*
X102347827Y-96299856D01*
X102339001Y-96313930D01*
X102357916Y-96311939D01*
X102362000Y-96310786D01*
X102399351Y-96300287D01*
X102461334Y-96283246D01*
X102543200Y-96260936D01*
X102640199Y-96234636D01*
X102747582Y-96205622D01*
X102860600Y-96175169D01*
X102974502Y-96144555D01*
X103084541Y-96115056D01*
X103185966Y-96087947D01*
X103274027Y-96064507D01*
X103343977Y-96046010D01*
X103391064Y-96033734D01*
X103410540Y-96028954D01*
X103410744Y-96028934D01*
X103413227Y-96045153D01*
X103415471Y-96090954D01*
X103417390Y-96162053D01*
X103418896Y-96254165D01*
X103419904Y-96363007D01*
X103420326Y-96484294D01*
X103420334Y-96503067D01*
X103420623Y-96625834D01*
X103421440Y-96736790D01*
X103422708Y-96831653D01*
X103424351Y-96906136D01*
X103426293Y-96955957D01*
X103428456Y-96976831D01*
X103428791Y-96977200D01*
X103443073Y-96967097D01*
X103481160Y-96938253D01*
X103540243Y-96892867D01*
X103617509Y-96833139D01*
X103710148Y-96761266D01*
X103815347Y-96679449D01*
X103930296Y-96589885D01*
X104052183Y-96494774D01*
X104178197Y-96396315D01*
X104305527Y-96296706D01*
X104431361Y-96198147D01*
X104552888Y-96102836D01*
X104667298Y-96012972D01*
X104771777Y-95930754D01*
X104863516Y-95858382D01*
X104939702Y-95798053D01*
X104997525Y-95751967D01*
X105034174Y-95722322D01*
X105045933Y-95712334D01*
X105059123Y-95697630D01*
X105048720Y-95697646D01*
X105048720Y-95697646D01*
G37*
X105048720Y-95697646D02*
X105020534Y-95707783D01*
X104977017Y-95724213D01*
X104910280Y-95749089D01*
X104824639Y-95780828D01*
X104724409Y-95817848D01*
X104613904Y-95858564D01*
X104497441Y-95901395D01*
X104379333Y-95944756D01*
X104263897Y-95987064D01*
X104155447Y-96026736D01*
X104058299Y-96062189D01*
X103976767Y-96091839D01*
X103915168Y-96114104D01*
X103877815Y-96127400D01*
X103868316Y-96130533D01*
X103866325Y-96114305D01*
X103864235Y-96068437D01*
X103862147Y-95997156D01*
X103860162Y-95904690D01*
X103858383Y-95795264D01*
X103856910Y-95673105D01*
X103856623Y-95643409D01*
X103852133Y-95156284D01*
X103109827Y-95717695D01*
X102970239Y-95823371D01*
X102838501Y-95923304D01*
X102717144Y-96015562D01*
X102608696Y-96098213D01*
X102515686Y-96169324D01*
X102440644Y-96226964D01*
X102386099Y-96269200D01*
X102354580Y-96294100D01*
X102347827Y-96299856D01*
X102339001Y-96313930D01*
X102357916Y-96311939D01*
X102362000Y-96310786D01*
X102399351Y-96300287D01*
X102461334Y-96283246D01*
X102543200Y-96260936D01*
X102640199Y-96234636D01*
X102747582Y-96205622D01*
X102860600Y-96175169D01*
X102974502Y-96144555D01*
X103084541Y-96115056D01*
X103185966Y-96087947D01*
X103274027Y-96064507D01*
X103343977Y-96046010D01*
X103391064Y-96033734D01*
X103410540Y-96028954D01*
X103410744Y-96028934D01*
X103413227Y-96045153D01*
X103415471Y-96090954D01*
X103417390Y-96162053D01*
X103418896Y-96254165D01*
X103419904Y-96363007D01*
X103420326Y-96484294D01*
X103420334Y-96503067D01*
X103420623Y-96625834D01*
X103421440Y-96736790D01*
X103422708Y-96831653D01*
X103424351Y-96906136D01*
X103426293Y-96955957D01*
X103428456Y-96976831D01*
X103428791Y-96977200D01*
X103443073Y-96967097D01*
X103481160Y-96938253D01*
X103540243Y-96892867D01*
X103617509Y-96833139D01*
X103710148Y-96761266D01*
X103815347Y-96679449D01*
X103930296Y-96589885D01*
X104052183Y-96494774D01*
X104178197Y-96396315D01*
X104305527Y-96296706D01*
X104431361Y-96198147D01*
X104552888Y-96102836D01*
X104667298Y-96012972D01*
X104771777Y-95930754D01*
X104863516Y-95858382D01*
X104939702Y-95798053D01*
X104997525Y-95751967D01*
X105034174Y-95722322D01*
X105045933Y-95712334D01*
X105059123Y-95697630D01*
X105048720Y-95697646D01*
D13*
X117408000Y-74736000D02*
X114748000Y-74736000D01*
X117408000Y-56896000D02*
X117408000Y-74736000D01*
X114748000Y-56896000D02*
X114748000Y-74736000D01*
X117408000Y-56896000D02*
X114748000Y-56896000D01*
X117408000Y-55626000D02*
X117408000Y-54296000D01*
X117408000Y-54296000D02*
X116078000Y-54296000D01*
D14*
G36*
X105048720Y-71821646D02*
X105020534Y-71831783D01*
X104977017Y-71848213D01*
X104910280Y-71873089D01*
X104824639Y-71904828D01*
X104724409Y-71941848D01*
X104613904Y-71982564D01*
X104497441Y-72025395D01*
X104379333Y-72068756D01*
X104263897Y-72111064D01*
X104155447Y-72150736D01*
X104058299Y-72186189D01*
X103976767Y-72215839D01*
X103915168Y-72238104D01*
X103877815Y-72251400D01*
X103868316Y-72254533D01*
X103866325Y-72238305D01*
X103864235Y-72192437D01*
X103862147Y-72121156D01*
X103860162Y-72028690D01*
X103858383Y-71919264D01*
X103856910Y-71797105D01*
X103856623Y-71767409D01*
X103852133Y-71280284D01*
X103109827Y-71841695D01*
X102970239Y-71947371D01*
X102838501Y-72047304D01*
X102717144Y-72139562D01*
X102608696Y-72222213D01*
X102515686Y-72293324D01*
X102440644Y-72350964D01*
X102386099Y-72393200D01*
X102354580Y-72418100D01*
X102347827Y-72423856D01*
X102339001Y-72437930D01*
X102357916Y-72435939D01*
X102362000Y-72434786D01*
X102399351Y-72424287D01*
X102461334Y-72407246D01*
X102543200Y-72384936D01*
X102640199Y-72358636D01*
X102747582Y-72329622D01*
X102860600Y-72299169D01*
X102974502Y-72268555D01*
X103084541Y-72239056D01*
X103185966Y-72211947D01*
X103274027Y-72188507D01*
X103343977Y-72170010D01*
X103391064Y-72157734D01*
X103410540Y-72152954D01*
X103410744Y-72152934D01*
X103413227Y-72169153D01*
X103415471Y-72214954D01*
X103417390Y-72286053D01*
X103418896Y-72378165D01*
X103419904Y-72487007D01*
X103420326Y-72608294D01*
X103420334Y-72627067D01*
X103420623Y-72749834D01*
X103421440Y-72860790D01*
X103422708Y-72955653D01*
X103424351Y-73030136D01*
X103426293Y-73079957D01*
X103428456Y-73100831D01*
X103428791Y-73101200D01*
X103443073Y-73091097D01*
X103481160Y-73062253D01*
X103540243Y-73016867D01*
X103617509Y-72957139D01*
X103710148Y-72885266D01*
X103815347Y-72803449D01*
X103930296Y-72713885D01*
X104052183Y-72618774D01*
X104178197Y-72520315D01*
X104305527Y-72420706D01*
X104431361Y-72322147D01*
X104552888Y-72226836D01*
X104667298Y-72136972D01*
X104771777Y-72054754D01*
X104863516Y-71982382D01*
X104939702Y-71922053D01*
X104997525Y-71875967D01*
X105034174Y-71846322D01*
X105045933Y-71836334D01*
X105059123Y-71821630D01*
X105048720Y-71821646D01*
X105048720Y-71821646D01*
G37*
X105048720Y-71821646D02*
X105020534Y-71831783D01*
X104977017Y-71848213D01*
X104910280Y-71873089D01*
X104824639Y-71904828D01*
X104724409Y-71941848D01*
X104613904Y-71982564D01*
X104497441Y-72025395D01*
X104379333Y-72068756D01*
X104263897Y-72111064D01*
X104155447Y-72150736D01*
X104058299Y-72186189D01*
X103976767Y-72215839D01*
X103915168Y-72238104D01*
X103877815Y-72251400D01*
X103868316Y-72254533D01*
X103866325Y-72238305D01*
X103864235Y-72192437D01*
X103862147Y-72121156D01*
X103860162Y-72028690D01*
X103858383Y-71919264D01*
X103856910Y-71797105D01*
X103856623Y-71767409D01*
X103852133Y-71280284D01*
X103109827Y-71841695D01*
X102970239Y-71947371D01*
X102838501Y-72047304D01*
X102717144Y-72139562D01*
X102608696Y-72222213D01*
X102515686Y-72293324D01*
X102440644Y-72350964D01*
X102386099Y-72393200D01*
X102354580Y-72418100D01*
X102347827Y-72423856D01*
X102339001Y-72437930D01*
X102357916Y-72435939D01*
X102362000Y-72434786D01*
X102399351Y-72424287D01*
X102461334Y-72407246D01*
X102543200Y-72384936D01*
X102640199Y-72358636D01*
X102747582Y-72329622D01*
X102860600Y-72299169D01*
X102974502Y-72268555D01*
X103084541Y-72239056D01*
X103185966Y-72211947D01*
X103274027Y-72188507D01*
X103343977Y-72170010D01*
X103391064Y-72157734D01*
X103410540Y-72152954D01*
X103410744Y-72152934D01*
X103413227Y-72169153D01*
X103415471Y-72214954D01*
X103417390Y-72286053D01*
X103418896Y-72378165D01*
X103419904Y-72487007D01*
X103420326Y-72608294D01*
X103420334Y-72627067D01*
X103420623Y-72749834D01*
X103421440Y-72860790D01*
X103422708Y-72955653D01*
X103424351Y-73030136D01*
X103426293Y-73079957D01*
X103428456Y-73100831D01*
X103428791Y-73101200D01*
X103443073Y-73091097D01*
X103481160Y-73062253D01*
X103540243Y-73016867D01*
X103617509Y-72957139D01*
X103710148Y-72885266D01*
X103815347Y-72803449D01*
X103930296Y-72713885D01*
X104052183Y-72618774D01*
X104178197Y-72520315D01*
X104305527Y-72420706D01*
X104431361Y-72322147D01*
X104552888Y-72226836D01*
X104667298Y-72136972D01*
X104771777Y-72054754D01*
X104863516Y-71982382D01*
X104939702Y-71922053D01*
X104997525Y-71875967D01*
X105034174Y-71846322D01*
X105045933Y-71836334D01*
X105059123Y-71821630D01*
X105048720Y-71821646D01*
M02*
