G04 #@! TF.FileFunction,Legend,Top*
%FSLAX46Y46*%
G04 Gerber Fmt 4.6, Leading zero omitted, Abs format (unit mm)*
G04 Created by KiCad (PCBNEW 4.0.5+dfsg1-4) date Fri Mar 30 22:23:14 2018*
%MOMM*%
%LPD*%
G01*
G04 APERTURE LIST*
%ADD10C,0.100000*%
%ADD11C,0.150000*%
%ADD12C,0.120000*%
G04 APERTURE END LIST*
D10*
D11*
X169251572Y-79051286D02*
X169501572Y-79801286D01*
X169751572Y-79051286D01*
X170430143Y-79729857D02*
X170394429Y-79765571D01*
X170287286Y-79801286D01*
X170215857Y-79801286D01*
X170108714Y-79765571D01*
X170037286Y-79694143D01*
X170001571Y-79622714D01*
X169965857Y-79479857D01*
X169965857Y-79372714D01*
X170001571Y-79229857D01*
X170037286Y-79158429D01*
X170108714Y-79087000D01*
X170215857Y-79051286D01*
X170287286Y-79051286D01*
X170394429Y-79087000D01*
X170430143Y-79122714D01*
X171180143Y-79729857D02*
X171144429Y-79765571D01*
X171037286Y-79801286D01*
X170965857Y-79801286D01*
X170858714Y-79765571D01*
X170787286Y-79694143D01*
X170751571Y-79622714D01*
X170715857Y-79479857D01*
X170715857Y-79372714D01*
X170751571Y-79229857D01*
X170787286Y-79158429D01*
X170858714Y-79087000D01*
X170965857Y-79051286D01*
X171037286Y-79051286D01*
X171144429Y-79087000D01*
X171180143Y-79122714D01*
X169608715Y-81637000D02*
X169537286Y-81601286D01*
X169430143Y-81601286D01*
X169323000Y-81637000D01*
X169251572Y-81708429D01*
X169215857Y-81779857D01*
X169180143Y-81922714D01*
X169180143Y-82029857D01*
X169215857Y-82172714D01*
X169251572Y-82244143D01*
X169323000Y-82315571D01*
X169430143Y-82351286D01*
X169501572Y-82351286D01*
X169608715Y-82315571D01*
X169644429Y-82279857D01*
X169644429Y-82029857D01*
X169501572Y-82029857D01*
X169965857Y-82351286D02*
X169965857Y-81601286D01*
X170394429Y-82351286D01*
X170394429Y-81601286D01*
X170751571Y-82351286D02*
X170751571Y-81601286D01*
X170930143Y-81601286D01*
X171037286Y-81637000D01*
X171108714Y-81708429D01*
X171144429Y-81779857D01*
X171180143Y-81922714D01*
X171180143Y-82029857D01*
X171144429Y-82172714D01*
X171108714Y-82244143D01*
X171037286Y-82315571D01*
X170930143Y-82351286D01*
X170751571Y-82351286D01*
X169608714Y-84901286D02*
X169608714Y-84151286D01*
X170394429Y-84901286D02*
X170144429Y-84544143D01*
X169965857Y-84901286D02*
X169965857Y-84151286D01*
X170251572Y-84151286D01*
X170323000Y-84187000D01*
X170358715Y-84222714D01*
X170394429Y-84294143D01*
X170394429Y-84401286D01*
X170358715Y-84472714D01*
X170323000Y-84508429D01*
X170251572Y-84544143D01*
X169965857Y-84544143D01*
X171215857Y-84972714D02*
X171144429Y-84937000D01*
X171073000Y-84865571D01*
X170965857Y-84758429D01*
X170894429Y-84722714D01*
X170823000Y-84722714D01*
X170858715Y-84901286D02*
X170787286Y-84865571D01*
X170715857Y-84794143D01*
X170680143Y-84651286D01*
X170680143Y-84401286D01*
X170715857Y-84258429D01*
X170787286Y-84187000D01*
X170858715Y-84151286D01*
X171001572Y-84151286D01*
X171073000Y-84187000D01*
X171144429Y-84258429D01*
X171180143Y-84401286D01*
X171180143Y-84651286D01*
X171144429Y-84794143D01*
X171073000Y-84865571D01*
X171001572Y-84901286D01*
X170858715Y-84901286D01*
X168787285Y-87451286D02*
X168787285Y-86701286D01*
X169037285Y-87237000D01*
X169287285Y-86701286D01*
X169287285Y-87451286D01*
X169787286Y-86701286D02*
X169930143Y-86701286D01*
X170001571Y-86737000D01*
X170073000Y-86808429D01*
X170108714Y-86951286D01*
X170108714Y-87201286D01*
X170073000Y-87344143D01*
X170001571Y-87415571D01*
X169930143Y-87451286D01*
X169787286Y-87451286D01*
X169715857Y-87415571D01*
X169644428Y-87344143D01*
X169608714Y-87201286D01*
X169608714Y-86951286D01*
X169644428Y-86808429D01*
X169715857Y-86737000D01*
X169787286Y-86701286D01*
X170394428Y-87415571D02*
X170501571Y-87451286D01*
X170680142Y-87451286D01*
X170751571Y-87415571D01*
X170787285Y-87379857D01*
X170823000Y-87308429D01*
X170823000Y-87237000D01*
X170787285Y-87165571D01*
X170751571Y-87129857D01*
X170680142Y-87094143D01*
X170537285Y-87058429D01*
X170465857Y-87022714D01*
X170430142Y-86987000D01*
X170394428Y-86915571D01*
X170394428Y-86844143D01*
X170430142Y-86772714D01*
X170465857Y-86737000D01*
X170537285Y-86701286D01*
X170715857Y-86701286D01*
X170823000Y-86737000D01*
X171144428Y-87451286D02*
X171144428Y-86701286D01*
X168787285Y-90001286D02*
X168787285Y-89251286D01*
X169037285Y-89787000D01*
X169287285Y-89251286D01*
X169287285Y-90001286D01*
X169644428Y-90001286D02*
X169644428Y-89251286D01*
X169965857Y-89965571D02*
X170073000Y-90001286D01*
X170251571Y-90001286D01*
X170323000Y-89965571D01*
X170358714Y-89929857D01*
X170394429Y-89858429D01*
X170394429Y-89787000D01*
X170358714Y-89715571D01*
X170323000Y-89679857D01*
X170251571Y-89644143D01*
X170108714Y-89608429D01*
X170037286Y-89572714D01*
X170001571Y-89537000D01*
X169965857Y-89465571D01*
X169965857Y-89394143D01*
X170001571Y-89322714D01*
X170037286Y-89287000D01*
X170108714Y-89251286D01*
X170287286Y-89251286D01*
X170394429Y-89287000D01*
X170858715Y-89251286D02*
X171001572Y-89251286D01*
X171073000Y-89287000D01*
X171144429Y-89358429D01*
X171180143Y-89501286D01*
X171180143Y-89751286D01*
X171144429Y-89894143D01*
X171073000Y-89965571D01*
X171001572Y-90001286D01*
X170858715Y-90001286D01*
X170787286Y-89965571D01*
X170715857Y-89894143D01*
X170680143Y-89751286D01*
X170680143Y-89501286D01*
X170715857Y-89358429D01*
X170787286Y-89287000D01*
X170858715Y-89251286D01*
X169823000Y-92479857D02*
X169787286Y-92515571D01*
X169680143Y-92551286D01*
X169608714Y-92551286D01*
X169501571Y-92515571D01*
X169430143Y-92444143D01*
X169394428Y-92372714D01*
X169358714Y-92229857D01*
X169358714Y-92122714D01*
X169394428Y-91979857D01*
X169430143Y-91908429D01*
X169501571Y-91837000D01*
X169608714Y-91801286D01*
X169680143Y-91801286D01*
X169787286Y-91837000D01*
X169823000Y-91872714D01*
X170501571Y-92551286D02*
X170144428Y-92551286D01*
X170144428Y-91801286D01*
X170751571Y-92551286D02*
X170751571Y-91801286D01*
X171180143Y-92551286D02*
X170858714Y-92122714D01*
X171180143Y-91801286D02*
X170751571Y-92229857D01*
X169465857Y-95065571D02*
X169573000Y-95101286D01*
X169751571Y-95101286D01*
X169823000Y-95065571D01*
X169858714Y-95029857D01*
X169894429Y-94958429D01*
X169894429Y-94887000D01*
X169858714Y-94815571D01*
X169823000Y-94779857D01*
X169751571Y-94744143D01*
X169608714Y-94708429D01*
X169537286Y-94672714D01*
X169501571Y-94637000D01*
X169465857Y-94565571D01*
X169465857Y-94494143D01*
X169501571Y-94422714D01*
X169537286Y-94387000D01*
X169608714Y-94351286D01*
X169787286Y-94351286D01*
X169894429Y-94387000D01*
X170215857Y-94708429D02*
X170465857Y-94708429D01*
X170573000Y-95101286D02*
X170215857Y-95101286D01*
X170215857Y-94351286D01*
X170573000Y-94351286D01*
X171251571Y-95101286D02*
X170894428Y-95101286D01*
X170894428Y-94351286D01*
X167287285Y-97615571D02*
X167394428Y-97651286D01*
X167572999Y-97651286D01*
X167644428Y-97615571D01*
X167680142Y-97579857D01*
X167715857Y-97508429D01*
X167715857Y-97437000D01*
X167680142Y-97365571D01*
X167644428Y-97329857D01*
X167572999Y-97294143D01*
X167430142Y-97258429D01*
X167358714Y-97222714D01*
X167322999Y-97187000D01*
X167287285Y-97115571D01*
X167287285Y-97044143D01*
X167322999Y-96972714D01*
X167358714Y-96937000D01*
X167430142Y-96901286D01*
X167608714Y-96901286D01*
X167715857Y-96937000D01*
X168180143Y-97294143D02*
X168180143Y-97651286D01*
X167930143Y-96901286D02*
X168180143Y-97294143D01*
X168430143Y-96901286D01*
X168644428Y-97615571D02*
X168751571Y-97651286D01*
X168930142Y-97651286D01*
X169001571Y-97615571D01*
X169037285Y-97579857D01*
X169073000Y-97508429D01*
X169073000Y-97437000D01*
X169037285Y-97365571D01*
X169001571Y-97329857D01*
X168930142Y-97294143D01*
X168787285Y-97258429D01*
X168715857Y-97222714D01*
X168680142Y-97187000D01*
X168644428Y-97115571D01*
X168644428Y-97044143D01*
X168680142Y-96972714D01*
X168715857Y-96937000D01*
X168787285Y-96901286D01*
X168965857Y-96901286D01*
X169073000Y-96937000D01*
X169823000Y-97579857D02*
X169787286Y-97615571D01*
X169680143Y-97651286D01*
X169608714Y-97651286D01*
X169501571Y-97615571D01*
X169430143Y-97544143D01*
X169394428Y-97472714D01*
X169358714Y-97329857D01*
X169358714Y-97222714D01*
X169394428Y-97079857D01*
X169430143Y-97008429D01*
X169501571Y-96937000D01*
X169608714Y-96901286D01*
X169680143Y-96901286D01*
X169787286Y-96937000D01*
X169823000Y-96972714D01*
X170501571Y-97651286D02*
X170144428Y-97651286D01*
X170144428Y-96901286D01*
X170751571Y-97651286D02*
X170751571Y-96901286D01*
X171180143Y-97651286D02*
X170858714Y-97222714D01*
X171180143Y-96901286D02*
X170751571Y-97329857D01*
X169251572Y-55175286D02*
X169501572Y-55925286D01*
X169751572Y-55175286D01*
X170430143Y-55853857D02*
X170394429Y-55889571D01*
X170287286Y-55925286D01*
X170215857Y-55925286D01*
X170108714Y-55889571D01*
X170037286Y-55818143D01*
X170001571Y-55746714D01*
X169965857Y-55603857D01*
X169965857Y-55496714D01*
X170001571Y-55353857D01*
X170037286Y-55282429D01*
X170108714Y-55211000D01*
X170215857Y-55175286D01*
X170287286Y-55175286D01*
X170394429Y-55211000D01*
X170430143Y-55246714D01*
X171180143Y-55853857D02*
X171144429Y-55889571D01*
X171037286Y-55925286D01*
X170965857Y-55925286D01*
X170858714Y-55889571D01*
X170787286Y-55818143D01*
X170751571Y-55746714D01*
X170715857Y-55603857D01*
X170715857Y-55496714D01*
X170751571Y-55353857D01*
X170787286Y-55282429D01*
X170858714Y-55211000D01*
X170965857Y-55175286D01*
X171037286Y-55175286D01*
X171144429Y-55211000D01*
X171180143Y-55246714D01*
X169608715Y-57761000D02*
X169537286Y-57725286D01*
X169430143Y-57725286D01*
X169323000Y-57761000D01*
X169251572Y-57832429D01*
X169215857Y-57903857D01*
X169180143Y-58046714D01*
X169180143Y-58153857D01*
X169215857Y-58296714D01*
X169251572Y-58368143D01*
X169323000Y-58439571D01*
X169430143Y-58475286D01*
X169501572Y-58475286D01*
X169608715Y-58439571D01*
X169644429Y-58403857D01*
X169644429Y-58153857D01*
X169501572Y-58153857D01*
X169965857Y-58475286D02*
X169965857Y-57725286D01*
X170394429Y-58475286D01*
X170394429Y-57725286D01*
X170751571Y-58475286D02*
X170751571Y-57725286D01*
X170930143Y-57725286D01*
X171037286Y-57761000D01*
X171108714Y-57832429D01*
X171144429Y-57903857D01*
X171180143Y-58046714D01*
X171180143Y-58153857D01*
X171144429Y-58296714D01*
X171108714Y-58368143D01*
X171037286Y-58439571D01*
X170930143Y-58475286D01*
X170751571Y-58475286D01*
X169608714Y-61025286D02*
X169608714Y-60275286D01*
X170394429Y-61025286D02*
X170144429Y-60668143D01*
X169965857Y-61025286D02*
X169965857Y-60275286D01*
X170251572Y-60275286D01*
X170323000Y-60311000D01*
X170358715Y-60346714D01*
X170394429Y-60418143D01*
X170394429Y-60525286D01*
X170358715Y-60596714D01*
X170323000Y-60632429D01*
X170251572Y-60668143D01*
X169965857Y-60668143D01*
X171215857Y-61096714D02*
X171144429Y-61061000D01*
X171073000Y-60989571D01*
X170965857Y-60882429D01*
X170894429Y-60846714D01*
X170823000Y-60846714D01*
X170858715Y-61025286D02*
X170787286Y-60989571D01*
X170715857Y-60918143D01*
X170680143Y-60775286D01*
X170680143Y-60525286D01*
X170715857Y-60382429D01*
X170787286Y-60311000D01*
X170858715Y-60275286D01*
X171001572Y-60275286D01*
X171073000Y-60311000D01*
X171144429Y-60382429D01*
X171180143Y-60525286D01*
X171180143Y-60775286D01*
X171144429Y-60918143D01*
X171073000Y-60989571D01*
X171001572Y-61025286D01*
X170858715Y-61025286D01*
X168787285Y-63575286D02*
X168787285Y-62825286D01*
X169037285Y-63361000D01*
X169287285Y-62825286D01*
X169287285Y-63575286D01*
X169787286Y-62825286D02*
X169930143Y-62825286D01*
X170001571Y-62861000D01*
X170073000Y-62932429D01*
X170108714Y-63075286D01*
X170108714Y-63325286D01*
X170073000Y-63468143D01*
X170001571Y-63539571D01*
X169930143Y-63575286D01*
X169787286Y-63575286D01*
X169715857Y-63539571D01*
X169644428Y-63468143D01*
X169608714Y-63325286D01*
X169608714Y-63075286D01*
X169644428Y-62932429D01*
X169715857Y-62861000D01*
X169787286Y-62825286D01*
X170394428Y-63539571D02*
X170501571Y-63575286D01*
X170680142Y-63575286D01*
X170751571Y-63539571D01*
X170787285Y-63503857D01*
X170823000Y-63432429D01*
X170823000Y-63361000D01*
X170787285Y-63289571D01*
X170751571Y-63253857D01*
X170680142Y-63218143D01*
X170537285Y-63182429D01*
X170465857Y-63146714D01*
X170430142Y-63111000D01*
X170394428Y-63039571D01*
X170394428Y-62968143D01*
X170430142Y-62896714D01*
X170465857Y-62861000D01*
X170537285Y-62825286D01*
X170715857Y-62825286D01*
X170823000Y-62861000D01*
X171144428Y-63575286D02*
X171144428Y-62825286D01*
X168787285Y-66125286D02*
X168787285Y-65375286D01*
X169037285Y-65911000D01*
X169287285Y-65375286D01*
X169287285Y-66125286D01*
X169644428Y-66125286D02*
X169644428Y-65375286D01*
X169965857Y-66089571D02*
X170073000Y-66125286D01*
X170251571Y-66125286D01*
X170323000Y-66089571D01*
X170358714Y-66053857D01*
X170394429Y-65982429D01*
X170394429Y-65911000D01*
X170358714Y-65839571D01*
X170323000Y-65803857D01*
X170251571Y-65768143D01*
X170108714Y-65732429D01*
X170037286Y-65696714D01*
X170001571Y-65661000D01*
X169965857Y-65589571D01*
X169965857Y-65518143D01*
X170001571Y-65446714D01*
X170037286Y-65411000D01*
X170108714Y-65375286D01*
X170287286Y-65375286D01*
X170394429Y-65411000D01*
X170858715Y-65375286D02*
X171001572Y-65375286D01*
X171073000Y-65411000D01*
X171144429Y-65482429D01*
X171180143Y-65625286D01*
X171180143Y-65875286D01*
X171144429Y-66018143D01*
X171073000Y-66089571D01*
X171001572Y-66125286D01*
X170858715Y-66125286D01*
X170787286Y-66089571D01*
X170715857Y-66018143D01*
X170680143Y-65875286D01*
X170680143Y-65625286D01*
X170715857Y-65482429D01*
X170787286Y-65411000D01*
X170858715Y-65375286D01*
X169823000Y-68603857D02*
X169787286Y-68639571D01*
X169680143Y-68675286D01*
X169608714Y-68675286D01*
X169501571Y-68639571D01*
X169430143Y-68568143D01*
X169394428Y-68496714D01*
X169358714Y-68353857D01*
X169358714Y-68246714D01*
X169394428Y-68103857D01*
X169430143Y-68032429D01*
X169501571Y-67961000D01*
X169608714Y-67925286D01*
X169680143Y-67925286D01*
X169787286Y-67961000D01*
X169823000Y-67996714D01*
X170501571Y-68675286D02*
X170144428Y-68675286D01*
X170144428Y-67925286D01*
X170751571Y-68675286D02*
X170751571Y-67925286D01*
X171180143Y-68675286D02*
X170858714Y-68246714D01*
X171180143Y-67925286D02*
X170751571Y-68353857D01*
X169465857Y-71189571D02*
X169573000Y-71225286D01*
X169751571Y-71225286D01*
X169823000Y-71189571D01*
X169858714Y-71153857D01*
X169894429Y-71082429D01*
X169894429Y-71011000D01*
X169858714Y-70939571D01*
X169823000Y-70903857D01*
X169751571Y-70868143D01*
X169608714Y-70832429D01*
X169537286Y-70796714D01*
X169501571Y-70761000D01*
X169465857Y-70689571D01*
X169465857Y-70618143D01*
X169501571Y-70546714D01*
X169537286Y-70511000D01*
X169608714Y-70475286D01*
X169787286Y-70475286D01*
X169894429Y-70511000D01*
X170215857Y-70832429D02*
X170465857Y-70832429D01*
X170573000Y-71225286D02*
X170215857Y-71225286D01*
X170215857Y-70475286D01*
X170573000Y-70475286D01*
X171251571Y-71225286D02*
X170894428Y-71225286D01*
X170894428Y-70475286D01*
X167287285Y-73739571D02*
X167394428Y-73775286D01*
X167572999Y-73775286D01*
X167644428Y-73739571D01*
X167680142Y-73703857D01*
X167715857Y-73632429D01*
X167715857Y-73561000D01*
X167680142Y-73489571D01*
X167644428Y-73453857D01*
X167572999Y-73418143D01*
X167430142Y-73382429D01*
X167358714Y-73346714D01*
X167322999Y-73311000D01*
X167287285Y-73239571D01*
X167287285Y-73168143D01*
X167322999Y-73096714D01*
X167358714Y-73061000D01*
X167430142Y-73025286D01*
X167608714Y-73025286D01*
X167715857Y-73061000D01*
X168180143Y-73418143D02*
X168180143Y-73775286D01*
X167930143Y-73025286D02*
X168180143Y-73418143D01*
X168430143Y-73025286D01*
X168644428Y-73739571D02*
X168751571Y-73775286D01*
X168930142Y-73775286D01*
X169001571Y-73739571D01*
X169037285Y-73703857D01*
X169073000Y-73632429D01*
X169073000Y-73561000D01*
X169037285Y-73489571D01*
X169001571Y-73453857D01*
X168930142Y-73418143D01*
X168787285Y-73382429D01*
X168715857Y-73346714D01*
X168680142Y-73311000D01*
X168644428Y-73239571D01*
X168644428Y-73168143D01*
X168680142Y-73096714D01*
X168715857Y-73061000D01*
X168787285Y-73025286D01*
X168965857Y-73025286D01*
X169073000Y-73061000D01*
X169823000Y-73703857D02*
X169787286Y-73739571D01*
X169680143Y-73775286D01*
X169608714Y-73775286D01*
X169501571Y-73739571D01*
X169430143Y-73668143D01*
X169394428Y-73596714D01*
X169358714Y-73453857D01*
X169358714Y-73346714D01*
X169394428Y-73203857D01*
X169430143Y-73132429D01*
X169501571Y-73061000D01*
X169608714Y-73025286D01*
X169680143Y-73025286D01*
X169787286Y-73061000D01*
X169823000Y-73096714D01*
X170501571Y-73775286D02*
X170144428Y-73775286D01*
X170144428Y-73025286D01*
X170751571Y-73775286D02*
X170751571Y-73025286D01*
X171180143Y-73775286D02*
X170858714Y-73346714D01*
X171180143Y-73025286D02*
X170751571Y-73453857D01*
X150455572Y-55175286D02*
X150705572Y-55925286D01*
X150955572Y-55175286D01*
X151634143Y-55853857D02*
X151598429Y-55889571D01*
X151491286Y-55925286D01*
X151419857Y-55925286D01*
X151312714Y-55889571D01*
X151241286Y-55818143D01*
X151205571Y-55746714D01*
X151169857Y-55603857D01*
X151169857Y-55496714D01*
X151205571Y-55353857D01*
X151241286Y-55282429D01*
X151312714Y-55211000D01*
X151419857Y-55175286D01*
X151491286Y-55175286D01*
X151598429Y-55211000D01*
X151634143Y-55246714D01*
X152384143Y-55853857D02*
X152348429Y-55889571D01*
X152241286Y-55925286D01*
X152169857Y-55925286D01*
X152062714Y-55889571D01*
X151991286Y-55818143D01*
X151955571Y-55746714D01*
X151919857Y-55603857D01*
X151919857Y-55496714D01*
X151955571Y-55353857D01*
X151991286Y-55282429D01*
X152062714Y-55211000D01*
X152169857Y-55175286D01*
X152241286Y-55175286D01*
X152348429Y-55211000D01*
X152384143Y-55246714D01*
X150812715Y-57761000D02*
X150741286Y-57725286D01*
X150634143Y-57725286D01*
X150527000Y-57761000D01*
X150455572Y-57832429D01*
X150419857Y-57903857D01*
X150384143Y-58046714D01*
X150384143Y-58153857D01*
X150419857Y-58296714D01*
X150455572Y-58368143D01*
X150527000Y-58439571D01*
X150634143Y-58475286D01*
X150705572Y-58475286D01*
X150812715Y-58439571D01*
X150848429Y-58403857D01*
X150848429Y-58153857D01*
X150705572Y-58153857D01*
X151169857Y-58475286D02*
X151169857Y-57725286D01*
X151598429Y-58475286D01*
X151598429Y-57725286D01*
X151955571Y-58475286D02*
X151955571Y-57725286D01*
X152134143Y-57725286D01*
X152241286Y-57761000D01*
X152312714Y-57832429D01*
X152348429Y-57903857D01*
X152384143Y-58046714D01*
X152384143Y-58153857D01*
X152348429Y-58296714D01*
X152312714Y-58368143D01*
X152241286Y-58439571D01*
X152134143Y-58475286D01*
X151955571Y-58475286D01*
X150812714Y-61025286D02*
X150812714Y-60275286D01*
X151598429Y-61025286D02*
X151348429Y-60668143D01*
X151169857Y-61025286D02*
X151169857Y-60275286D01*
X151455572Y-60275286D01*
X151527000Y-60311000D01*
X151562715Y-60346714D01*
X151598429Y-60418143D01*
X151598429Y-60525286D01*
X151562715Y-60596714D01*
X151527000Y-60632429D01*
X151455572Y-60668143D01*
X151169857Y-60668143D01*
X152419857Y-61096714D02*
X152348429Y-61061000D01*
X152277000Y-60989571D01*
X152169857Y-60882429D01*
X152098429Y-60846714D01*
X152027000Y-60846714D01*
X152062715Y-61025286D02*
X151991286Y-60989571D01*
X151919857Y-60918143D01*
X151884143Y-60775286D01*
X151884143Y-60525286D01*
X151919857Y-60382429D01*
X151991286Y-60311000D01*
X152062715Y-60275286D01*
X152205572Y-60275286D01*
X152277000Y-60311000D01*
X152348429Y-60382429D01*
X152384143Y-60525286D01*
X152384143Y-60775286D01*
X152348429Y-60918143D01*
X152277000Y-60989571D01*
X152205572Y-61025286D01*
X152062715Y-61025286D01*
X149991285Y-63575286D02*
X149991285Y-62825286D01*
X150241285Y-63361000D01*
X150491285Y-62825286D01*
X150491285Y-63575286D01*
X150991286Y-62825286D02*
X151134143Y-62825286D01*
X151205571Y-62861000D01*
X151277000Y-62932429D01*
X151312714Y-63075286D01*
X151312714Y-63325286D01*
X151277000Y-63468143D01*
X151205571Y-63539571D01*
X151134143Y-63575286D01*
X150991286Y-63575286D01*
X150919857Y-63539571D01*
X150848428Y-63468143D01*
X150812714Y-63325286D01*
X150812714Y-63075286D01*
X150848428Y-62932429D01*
X150919857Y-62861000D01*
X150991286Y-62825286D01*
X151598428Y-63539571D02*
X151705571Y-63575286D01*
X151884142Y-63575286D01*
X151955571Y-63539571D01*
X151991285Y-63503857D01*
X152027000Y-63432429D01*
X152027000Y-63361000D01*
X151991285Y-63289571D01*
X151955571Y-63253857D01*
X151884142Y-63218143D01*
X151741285Y-63182429D01*
X151669857Y-63146714D01*
X151634142Y-63111000D01*
X151598428Y-63039571D01*
X151598428Y-62968143D01*
X151634142Y-62896714D01*
X151669857Y-62861000D01*
X151741285Y-62825286D01*
X151919857Y-62825286D01*
X152027000Y-62861000D01*
X152348428Y-63575286D02*
X152348428Y-62825286D01*
X149991285Y-66125286D02*
X149991285Y-65375286D01*
X150241285Y-65911000D01*
X150491285Y-65375286D01*
X150491285Y-66125286D01*
X150848428Y-66125286D02*
X150848428Y-65375286D01*
X151169857Y-66089571D02*
X151277000Y-66125286D01*
X151455571Y-66125286D01*
X151527000Y-66089571D01*
X151562714Y-66053857D01*
X151598429Y-65982429D01*
X151598429Y-65911000D01*
X151562714Y-65839571D01*
X151527000Y-65803857D01*
X151455571Y-65768143D01*
X151312714Y-65732429D01*
X151241286Y-65696714D01*
X151205571Y-65661000D01*
X151169857Y-65589571D01*
X151169857Y-65518143D01*
X151205571Y-65446714D01*
X151241286Y-65411000D01*
X151312714Y-65375286D01*
X151491286Y-65375286D01*
X151598429Y-65411000D01*
X152062715Y-65375286D02*
X152205572Y-65375286D01*
X152277000Y-65411000D01*
X152348429Y-65482429D01*
X152384143Y-65625286D01*
X152384143Y-65875286D01*
X152348429Y-66018143D01*
X152277000Y-66089571D01*
X152205572Y-66125286D01*
X152062715Y-66125286D01*
X151991286Y-66089571D01*
X151919857Y-66018143D01*
X151884143Y-65875286D01*
X151884143Y-65625286D01*
X151919857Y-65482429D01*
X151991286Y-65411000D01*
X152062715Y-65375286D01*
X151027000Y-68603857D02*
X150991286Y-68639571D01*
X150884143Y-68675286D01*
X150812714Y-68675286D01*
X150705571Y-68639571D01*
X150634143Y-68568143D01*
X150598428Y-68496714D01*
X150562714Y-68353857D01*
X150562714Y-68246714D01*
X150598428Y-68103857D01*
X150634143Y-68032429D01*
X150705571Y-67961000D01*
X150812714Y-67925286D01*
X150884143Y-67925286D01*
X150991286Y-67961000D01*
X151027000Y-67996714D01*
X151705571Y-68675286D02*
X151348428Y-68675286D01*
X151348428Y-67925286D01*
X151955571Y-68675286D02*
X151955571Y-67925286D01*
X152384143Y-68675286D02*
X152062714Y-68246714D01*
X152384143Y-67925286D02*
X151955571Y-68353857D01*
X150669857Y-71189571D02*
X150777000Y-71225286D01*
X150955571Y-71225286D01*
X151027000Y-71189571D01*
X151062714Y-71153857D01*
X151098429Y-71082429D01*
X151098429Y-71011000D01*
X151062714Y-70939571D01*
X151027000Y-70903857D01*
X150955571Y-70868143D01*
X150812714Y-70832429D01*
X150741286Y-70796714D01*
X150705571Y-70761000D01*
X150669857Y-70689571D01*
X150669857Y-70618143D01*
X150705571Y-70546714D01*
X150741286Y-70511000D01*
X150812714Y-70475286D01*
X150991286Y-70475286D01*
X151098429Y-70511000D01*
X151419857Y-70832429D02*
X151669857Y-70832429D01*
X151777000Y-71225286D02*
X151419857Y-71225286D01*
X151419857Y-70475286D01*
X151777000Y-70475286D01*
X152455571Y-71225286D02*
X152098428Y-71225286D01*
X152098428Y-70475286D01*
X148491285Y-73739571D02*
X148598428Y-73775286D01*
X148776999Y-73775286D01*
X148848428Y-73739571D01*
X148884142Y-73703857D01*
X148919857Y-73632429D01*
X148919857Y-73561000D01*
X148884142Y-73489571D01*
X148848428Y-73453857D01*
X148776999Y-73418143D01*
X148634142Y-73382429D01*
X148562714Y-73346714D01*
X148526999Y-73311000D01*
X148491285Y-73239571D01*
X148491285Y-73168143D01*
X148526999Y-73096714D01*
X148562714Y-73061000D01*
X148634142Y-73025286D01*
X148812714Y-73025286D01*
X148919857Y-73061000D01*
X149384143Y-73418143D02*
X149384143Y-73775286D01*
X149134143Y-73025286D02*
X149384143Y-73418143D01*
X149634143Y-73025286D01*
X149848428Y-73739571D02*
X149955571Y-73775286D01*
X150134142Y-73775286D01*
X150205571Y-73739571D01*
X150241285Y-73703857D01*
X150277000Y-73632429D01*
X150277000Y-73561000D01*
X150241285Y-73489571D01*
X150205571Y-73453857D01*
X150134142Y-73418143D01*
X149991285Y-73382429D01*
X149919857Y-73346714D01*
X149884142Y-73311000D01*
X149848428Y-73239571D01*
X149848428Y-73168143D01*
X149884142Y-73096714D01*
X149919857Y-73061000D01*
X149991285Y-73025286D01*
X150169857Y-73025286D01*
X150277000Y-73061000D01*
X151027000Y-73703857D02*
X150991286Y-73739571D01*
X150884143Y-73775286D01*
X150812714Y-73775286D01*
X150705571Y-73739571D01*
X150634143Y-73668143D01*
X150598428Y-73596714D01*
X150562714Y-73453857D01*
X150562714Y-73346714D01*
X150598428Y-73203857D01*
X150634143Y-73132429D01*
X150705571Y-73061000D01*
X150812714Y-73025286D01*
X150884143Y-73025286D01*
X150991286Y-73061000D01*
X151027000Y-73096714D01*
X151705571Y-73775286D02*
X151348428Y-73775286D01*
X151348428Y-73025286D01*
X151955571Y-73775286D02*
X151955571Y-73025286D01*
X152384143Y-73775286D02*
X152062714Y-73346714D01*
X152384143Y-73025286D02*
X151955571Y-73453857D01*
X150455572Y-79051286D02*
X150705572Y-79801286D01*
X150955572Y-79051286D01*
X151634143Y-79729857D02*
X151598429Y-79765571D01*
X151491286Y-79801286D01*
X151419857Y-79801286D01*
X151312714Y-79765571D01*
X151241286Y-79694143D01*
X151205571Y-79622714D01*
X151169857Y-79479857D01*
X151169857Y-79372714D01*
X151205571Y-79229857D01*
X151241286Y-79158429D01*
X151312714Y-79087000D01*
X151419857Y-79051286D01*
X151491286Y-79051286D01*
X151598429Y-79087000D01*
X151634143Y-79122714D01*
X152384143Y-79729857D02*
X152348429Y-79765571D01*
X152241286Y-79801286D01*
X152169857Y-79801286D01*
X152062714Y-79765571D01*
X151991286Y-79694143D01*
X151955571Y-79622714D01*
X151919857Y-79479857D01*
X151919857Y-79372714D01*
X151955571Y-79229857D01*
X151991286Y-79158429D01*
X152062714Y-79087000D01*
X152169857Y-79051286D01*
X152241286Y-79051286D01*
X152348429Y-79087000D01*
X152384143Y-79122714D01*
X150812715Y-81637000D02*
X150741286Y-81601286D01*
X150634143Y-81601286D01*
X150527000Y-81637000D01*
X150455572Y-81708429D01*
X150419857Y-81779857D01*
X150384143Y-81922714D01*
X150384143Y-82029857D01*
X150419857Y-82172714D01*
X150455572Y-82244143D01*
X150527000Y-82315571D01*
X150634143Y-82351286D01*
X150705572Y-82351286D01*
X150812715Y-82315571D01*
X150848429Y-82279857D01*
X150848429Y-82029857D01*
X150705572Y-82029857D01*
X151169857Y-82351286D02*
X151169857Y-81601286D01*
X151598429Y-82351286D01*
X151598429Y-81601286D01*
X151955571Y-82351286D02*
X151955571Y-81601286D01*
X152134143Y-81601286D01*
X152241286Y-81637000D01*
X152312714Y-81708429D01*
X152348429Y-81779857D01*
X152384143Y-81922714D01*
X152384143Y-82029857D01*
X152348429Y-82172714D01*
X152312714Y-82244143D01*
X152241286Y-82315571D01*
X152134143Y-82351286D01*
X151955571Y-82351286D01*
X150812714Y-84901286D02*
X150812714Y-84151286D01*
X151598429Y-84901286D02*
X151348429Y-84544143D01*
X151169857Y-84901286D02*
X151169857Y-84151286D01*
X151455572Y-84151286D01*
X151527000Y-84187000D01*
X151562715Y-84222714D01*
X151598429Y-84294143D01*
X151598429Y-84401286D01*
X151562715Y-84472714D01*
X151527000Y-84508429D01*
X151455572Y-84544143D01*
X151169857Y-84544143D01*
X152419857Y-84972714D02*
X152348429Y-84937000D01*
X152277000Y-84865571D01*
X152169857Y-84758429D01*
X152098429Y-84722714D01*
X152027000Y-84722714D01*
X152062715Y-84901286D02*
X151991286Y-84865571D01*
X151919857Y-84794143D01*
X151884143Y-84651286D01*
X151884143Y-84401286D01*
X151919857Y-84258429D01*
X151991286Y-84187000D01*
X152062715Y-84151286D01*
X152205572Y-84151286D01*
X152277000Y-84187000D01*
X152348429Y-84258429D01*
X152384143Y-84401286D01*
X152384143Y-84651286D01*
X152348429Y-84794143D01*
X152277000Y-84865571D01*
X152205572Y-84901286D01*
X152062715Y-84901286D01*
X149991285Y-87451286D02*
X149991285Y-86701286D01*
X150241285Y-87237000D01*
X150491285Y-86701286D01*
X150491285Y-87451286D01*
X150991286Y-86701286D02*
X151134143Y-86701286D01*
X151205571Y-86737000D01*
X151277000Y-86808429D01*
X151312714Y-86951286D01*
X151312714Y-87201286D01*
X151277000Y-87344143D01*
X151205571Y-87415571D01*
X151134143Y-87451286D01*
X150991286Y-87451286D01*
X150919857Y-87415571D01*
X150848428Y-87344143D01*
X150812714Y-87201286D01*
X150812714Y-86951286D01*
X150848428Y-86808429D01*
X150919857Y-86737000D01*
X150991286Y-86701286D01*
X151598428Y-87415571D02*
X151705571Y-87451286D01*
X151884142Y-87451286D01*
X151955571Y-87415571D01*
X151991285Y-87379857D01*
X152027000Y-87308429D01*
X152027000Y-87237000D01*
X151991285Y-87165571D01*
X151955571Y-87129857D01*
X151884142Y-87094143D01*
X151741285Y-87058429D01*
X151669857Y-87022714D01*
X151634142Y-86987000D01*
X151598428Y-86915571D01*
X151598428Y-86844143D01*
X151634142Y-86772714D01*
X151669857Y-86737000D01*
X151741285Y-86701286D01*
X151919857Y-86701286D01*
X152027000Y-86737000D01*
X152348428Y-87451286D02*
X152348428Y-86701286D01*
X149991285Y-90001286D02*
X149991285Y-89251286D01*
X150241285Y-89787000D01*
X150491285Y-89251286D01*
X150491285Y-90001286D01*
X150848428Y-90001286D02*
X150848428Y-89251286D01*
X151169857Y-89965571D02*
X151277000Y-90001286D01*
X151455571Y-90001286D01*
X151527000Y-89965571D01*
X151562714Y-89929857D01*
X151598429Y-89858429D01*
X151598429Y-89787000D01*
X151562714Y-89715571D01*
X151527000Y-89679857D01*
X151455571Y-89644143D01*
X151312714Y-89608429D01*
X151241286Y-89572714D01*
X151205571Y-89537000D01*
X151169857Y-89465571D01*
X151169857Y-89394143D01*
X151205571Y-89322714D01*
X151241286Y-89287000D01*
X151312714Y-89251286D01*
X151491286Y-89251286D01*
X151598429Y-89287000D01*
X152062715Y-89251286D02*
X152205572Y-89251286D01*
X152277000Y-89287000D01*
X152348429Y-89358429D01*
X152384143Y-89501286D01*
X152384143Y-89751286D01*
X152348429Y-89894143D01*
X152277000Y-89965571D01*
X152205572Y-90001286D01*
X152062715Y-90001286D01*
X151991286Y-89965571D01*
X151919857Y-89894143D01*
X151884143Y-89751286D01*
X151884143Y-89501286D01*
X151919857Y-89358429D01*
X151991286Y-89287000D01*
X152062715Y-89251286D01*
X151027000Y-92479857D02*
X150991286Y-92515571D01*
X150884143Y-92551286D01*
X150812714Y-92551286D01*
X150705571Y-92515571D01*
X150634143Y-92444143D01*
X150598428Y-92372714D01*
X150562714Y-92229857D01*
X150562714Y-92122714D01*
X150598428Y-91979857D01*
X150634143Y-91908429D01*
X150705571Y-91837000D01*
X150812714Y-91801286D01*
X150884143Y-91801286D01*
X150991286Y-91837000D01*
X151027000Y-91872714D01*
X151705571Y-92551286D02*
X151348428Y-92551286D01*
X151348428Y-91801286D01*
X151955571Y-92551286D02*
X151955571Y-91801286D01*
X152384143Y-92551286D02*
X152062714Y-92122714D01*
X152384143Y-91801286D02*
X151955571Y-92229857D01*
X150669857Y-95065571D02*
X150777000Y-95101286D01*
X150955571Y-95101286D01*
X151027000Y-95065571D01*
X151062714Y-95029857D01*
X151098429Y-94958429D01*
X151098429Y-94887000D01*
X151062714Y-94815571D01*
X151027000Y-94779857D01*
X150955571Y-94744143D01*
X150812714Y-94708429D01*
X150741286Y-94672714D01*
X150705571Y-94637000D01*
X150669857Y-94565571D01*
X150669857Y-94494143D01*
X150705571Y-94422714D01*
X150741286Y-94387000D01*
X150812714Y-94351286D01*
X150991286Y-94351286D01*
X151098429Y-94387000D01*
X151419857Y-94708429D02*
X151669857Y-94708429D01*
X151777000Y-95101286D02*
X151419857Y-95101286D01*
X151419857Y-94351286D01*
X151777000Y-94351286D01*
X152455571Y-95101286D02*
X152098428Y-95101286D01*
X152098428Y-94351286D01*
X148491285Y-97615571D02*
X148598428Y-97651286D01*
X148776999Y-97651286D01*
X148848428Y-97615571D01*
X148884142Y-97579857D01*
X148919857Y-97508429D01*
X148919857Y-97437000D01*
X148884142Y-97365571D01*
X148848428Y-97329857D01*
X148776999Y-97294143D01*
X148634142Y-97258429D01*
X148562714Y-97222714D01*
X148526999Y-97187000D01*
X148491285Y-97115571D01*
X148491285Y-97044143D01*
X148526999Y-96972714D01*
X148562714Y-96937000D01*
X148634142Y-96901286D01*
X148812714Y-96901286D01*
X148919857Y-96937000D01*
X149384143Y-97294143D02*
X149384143Y-97651286D01*
X149134143Y-96901286D02*
X149384143Y-97294143D01*
X149634143Y-96901286D01*
X149848428Y-97615571D02*
X149955571Y-97651286D01*
X150134142Y-97651286D01*
X150205571Y-97615571D01*
X150241285Y-97579857D01*
X150277000Y-97508429D01*
X150277000Y-97437000D01*
X150241285Y-97365571D01*
X150205571Y-97329857D01*
X150134142Y-97294143D01*
X149991285Y-97258429D01*
X149919857Y-97222714D01*
X149884142Y-97187000D01*
X149848428Y-97115571D01*
X149848428Y-97044143D01*
X149884142Y-96972714D01*
X149919857Y-96937000D01*
X149991285Y-96901286D01*
X150169857Y-96901286D01*
X150277000Y-96937000D01*
X151027000Y-97579857D02*
X150991286Y-97615571D01*
X150884143Y-97651286D01*
X150812714Y-97651286D01*
X150705571Y-97615571D01*
X150634143Y-97544143D01*
X150598428Y-97472714D01*
X150562714Y-97329857D01*
X150562714Y-97222714D01*
X150598428Y-97079857D01*
X150634143Y-97008429D01*
X150705571Y-96937000D01*
X150812714Y-96901286D01*
X150884143Y-96901286D01*
X150991286Y-96937000D01*
X151027000Y-96972714D01*
X151705571Y-97651286D02*
X151348428Y-97651286D01*
X151348428Y-96901286D01*
X151955571Y-97651286D02*
X151955571Y-96901286D01*
X152384143Y-97651286D02*
X152062714Y-97222714D01*
X152384143Y-96901286D02*
X151955571Y-97329857D01*
X131659572Y-55175286D02*
X131909572Y-55925286D01*
X132159572Y-55175286D01*
X132838143Y-55853857D02*
X132802429Y-55889571D01*
X132695286Y-55925286D01*
X132623857Y-55925286D01*
X132516714Y-55889571D01*
X132445286Y-55818143D01*
X132409571Y-55746714D01*
X132373857Y-55603857D01*
X132373857Y-55496714D01*
X132409571Y-55353857D01*
X132445286Y-55282429D01*
X132516714Y-55211000D01*
X132623857Y-55175286D01*
X132695286Y-55175286D01*
X132802429Y-55211000D01*
X132838143Y-55246714D01*
X133588143Y-55853857D02*
X133552429Y-55889571D01*
X133445286Y-55925286D01*
X133373857Y-55925286D01*
X133266714Y-55889571D01*
X133195286Y-55818143D01*
X133159571Y-55746714D01*
X133123857Y-55603857D01*
X133123857Y-55496714D01*
X133159571Y-55353857D01*
X133195286Y-55282429D01*
X133266714Y-55211000D01*
X133373857Y-55175286D01*
X133445286Y-55175286D01*
X133552429Y-55211000D01*
X133588143Y-55246714D01*
X132016715Y-57761000D02*
X131945286Y-57725286D01*
X131838143Y-57725286D01*
X131731000Y-57761000D01*
X131659572Y-57832429D01*
X131623857Y-57903857D01*
X131588143Y-58046714D01*
X131588143Y-58153857D01*
X131623857Y-58296714D01*
X131659572Y-58368143D01*
X131731000Y-58439571D01*
X131838143Y-58475286D01*
X131909572Y-58475286D01*
X132016715Y-58439571D01*
X132052429Y-58403857D01*
X132052429Y-58153857D01*
X131909572Y-58153857D01*
X132373857Y-58475286D02*
X132373857Y-57725286D01*
X132802429Y-58475286D01*
X132802429Y-57725286D01*
X133159571Y-58475286D02*
X133159571Y-57725286D01*
X133338143Y-57725286D01*
X133445286Y-57761000D01*
X133516714Y-57832429D01*
X133552429Y-57903857D01*
X133588143Y-58046714D01*
X133588143Y-58153857D01*
X133552429Y-58296714D01*
X133516714Y-58368143D01*
X133445286Y-58439571D01*
X133338143Y-58475286D01*
X133159571Y-58475286D01*
X132016714Y-61025286D02*
X132016714Y-60275286D01*
X132802429Y-61025286D02*
X132552429Y-60668143D01*
X132373857Y-61025286D02*
X132373857Y-60275286D01*
X132659572Y-60275286D01*
X132731000Y-60311000D01*
X132766715Y-60346714D01*
X132802429Y-60418143D01*
X132802429Y-60525286D01*
X132766715Y-60596714D01*
X132731000Y-60632429D01*
X132659572Y-60668143D01*
X132373857Y-60668143D01*
X133623857Y-61096714D02*
X133552429Y-61061000D01*
X133481000Y-60989571D01*
X133373857Y-60882429D01*
X133302429Y-60846714D01*
X133231000Y-60846714D01*
X133266715Y-61025286D02*
X133195286Y-60989571D01*
X133123857Y-60918143D01*
X133088143Y-60775286D01*
X133088143Y-60525286D01*
X133123857Y-60382429D01*
X133195286Y-60311000D01*
X133266715Y-60275286D01*
X133409572Y-60275286D01*
X133481000Y-60311000D01*
X133552429Y-60382429D01*
X133588143Y-60525286D01*
X133588143Y-60775286D01*
X133552429Y-60918143D01*
X133481000Y-60989571D01*
X133409572Y-61025286D01*
X133266715Y-61025286D01*
X131195285Y-63575286D02*
X131195285Y-62825286D01*
X131445285Y-63361000D01*
X131695285Y-62825286D01*
X131695285Y-63575286D01*
X132195286Y-62825286D02*
X132338143Y-62825286D01*
X132409571Y-62861000D01*
X132481000Y-62932429D01*
X132516714Y-63075286D01*
X132516714Y-63325286D01*
X132481000Y-63468143D01*
X132409571Y-63539571D01*
X132338143Y-63575286D01*
X132195286Y-63575286D01*
X132123857Y-63539571D01*
X132052428Y-63468143D01*
X132016714Y-63325286D01*
X132016714Y-63075286D01*
X132052428Y-62932429D01*
X132123857Y-62861000D01*
X132195286Y-62825286D01*
X132802428Y-63539571D02*
X132909571Y-63575286D01*
X133088142Y-63575286D01*
X133159571Y-63539571D01*
X133195285Y-63503857D01*
X133231000Y-63432429D01*
X133231000Y-63361000D01*
X133195285Y-63289571D01*
X133159571Y-63253857D01*
X133088142Y-63218143D01*
X132945285Y-63182429D01*
X132873857Y-63146714D01*
X132838142Y-63111000D01*
X132802428Y-63039571D01*
X132802428Y-62968143D01*
X132838142Y-62896714D01*
X132873857Y-62861000D01*
X132945285Y-62825286D01*
X133123857Y-62825286D01*
X133231000Y-62861000D01*
X133552428Y-63575286D02*
X133552428Y-62825286D01*
X131195285Y-66125286D02*
X131195285Y-65375286D01*
X131445285Y-65911000D01*
X131695285Y-65375286D01*
X131695285Y-66125286D01*
X132052428Y-66125286D02*
X132052428Y-65375286D01*
X132373857Y-66089571D02*
X132481000Y-66125286D01*
X132659571Y-66125286D01*
X132731000Y-66089571D01*
X132766714Y-66053857D01*
X132802429Y-65982429D01*
X132802429Y-65911000D01*
X132766714Y-65839571D01*
X132731000Y-65803857D01*
X132659571Y-65768143D01*
X132516714Y-65732429D01*
X132445286Y-65696714D01*
X132409571Y-65661000D01*
X132373857Y-65589571D01*
X132373857Y-65518143D01*
X132409571Y-65446714D01*
X132445286Y-65411000D01*
X132516714Y-65375286D01*
X132695286Y-65375286D01*
X132802429Y-65411000D01*
X133266715Y-65375286D02*
X133409572Y-65375286D01*
X133481000Y-65411000D01*
X133552429Y-65482429D01*
X133588143Y-65625286D01*
X133588143Y-65875286D01*
X133552429Y-66018143D01*
X133481000Y-66089571D01*
X133409572Y-66125286D01*
X133266715Y-66125286D01*
X133195286Y-66089571D01*
X133123857Y-66018143D01*
X133088143Y-65875286D01*
X133088143Y-65625286D01*
X133123857Y-65482429D01*
X133195286Y-65411000D01*
X133266715Y-65375286D01*
X132231000Y-68603857D02*
X132195286Y-68639571D01*
X132088143Y-68675286D01*
X132016714Y-68675286D01*
X131909571Y-68639571D01*
X131838143Y-68568143D01*
X131802428Y-68496714D01*
X131766714Y-68353857D01*
X131766714Y-68246714D01*
X131802428Y-68103857D01*
X131838143Y-68032429D01*
X131909571Y-67961000D01*
X132016714Y-67925286D01*
X132088143Y-67925286D01*
X132195286Y-67961000D01*
X132231000Y-67996714D01*
X132909571Y-68675286D02*
X132552428Y-68675286D01*
X132552428Y-67925286D01*
X133159571Y-68675286D02*
X133159571Y-67925286D01*
X133588143Y-68675286D02*
X133266714Y-68246714D01*
X133588143Y-67925286D02*
X133159571Y-68353857D01*
X131873857Y-71189571D02*
X131981000Y-71225286D01*
X132159571Y-71225286D01*
X132231000Y-71189571D01*
X132266714Y-71153857D01*
X132302429Y-71082429D01*
X132302429Y-71011000D01*
X132266714Y-70939571D01*
X132231000Y-70903857D01*
X132159571Y-70868143D01*
X132016714Y-70832429D01*
X131945286Y-70796714D01*
X131909571Y-70761000D01*
X131873857Y-70689571D01*
X131873857Y-70618143D01*
X131909571Y-70546714D01*
X131945286Y-70511000D01*
X132016714Y-70475286D01*
X132195286Y-70475286D01*
X132302429Y-70511000D01*
X132623857Y-70832429D02*
X132873857Y-70832429D01*
X132981000Y-71225286D02*
X132623857Y-71225286D01*
X132623857Y-70475286D01*
X132981000Y-70475286D01*
X133659571Y-71225286D02*
X133302428Y-71225286D01*
X133302428Y-70475286D01*
X129695285Y-73739571D02*
X129802428Y-73775286D01*
X129980999Y-73775286D01*
X130052428Y-73739571D01*
X130088142Y-73703857D01*
X130123857Y-73632429D01*
X130123857Y-73561000D01*
X130088142Y-73489571D01*
X130052428Y-73453857D01*
X129980999Y-73418143D01*
X129838142Y-73382429D01*
X129766714Y-73346714D01*
X129730999Y-73311000D01*
X129695285Y-73239571D01*
X129695285Y-73168143D01*
X129730999Y-73096714D01*
X129766714Y-73061000D01*
X129838142Y-73025286D01*
X130016714Y-73025286D01*
X130123857Y-73061000D01*
X130588143Y-73418143D02*
X130588143Y-73775286D01*
X130338143Y-73025286D02*
X130588143Y-73418143D01*
X130838143Y-73025286D01*
X131052428Y-73739571D02*
X131159571Y-73775286D01*
X131338142Y-73775286D01*
X131409571Y-73739571D01*
X131445285Y-73703857D01*
X131481000Y-73632429D01*
X131481000Y-73561000D01*
X131445285Y-73489571D01*
X131409571Y-73453857D01*
X131338142Y-73418143D01*
X131195285Y-73382429D01*
X131123857Y-73346714D01*
X131088142Y-73311000D01*
X131052428Y-73239571D01*
X131052428Y-73168143D01*
X131088142Y-73096714D01*
X131123857Y-73061000D01*
X131195285Y-73025286D01*
X131373857Y-73025286D01*
X131481000Y-73061000D01*
X132231000Y-73703857D02*
X132195286Y-73739571D01*
X132088143Y-73775286D01*
X132016714Y-73775286D01*
X131909571Y-73739571D01*
X131838143Y-73668143D01*
X131802428Y-73596714D01*
X131766714Y-73453857D01*
X131766714Y-73346714D01*
X131802428Y-73203857D01*
X131838143Y-73132429D01*
X131909571Y-73061000D01*
X132016714Y-73025286D01*
X132088143Y-73025286D01*
X132195286Y-73061000D01*
X132231000Y-73096714D01*
X132909571Y-73775286D02*
X132552428Y-73775286D01*
X132552428Y-73025286D01*
X133159571Y-73775286D02*
X133159571Y-73025286D01*
X133588143Y-73775286D02*
X133266714Y-73346714D01*
X133588143Y-73025286D02*
X133159571Y-73453857D01*
X131659572Y-79051286D02*
X131909572Y-79801286D01*
X132159572Y-79051286D01*
X132838143Y-79729857D02*
X132802429Y-79765571D01*
X132695286Y-79801286D01*
X132623857Y-79801286D01*
X132516714Y-79765571D01*
X132445286Y-79694143D01*
X132409571Y-79622714D01*
X132373857Y-79479857D01*
X132373857Y-79372714D01*
X132409571Y-79229857D01*
X132445286Y-79158429D01*
X132516714Y-79087000D01*
X132623857Y-79051286D01*
X132695286Y-79051286D01*
X132802429Y-79087000D01*
X132838143Y-79122714D01*
X133588143Y-79729857D02*
X133552429Y-79765571D01*
X133445286Y-79801286D01*
X133373857Y-79801286D01*
X133266714Y-79765571D01*
X133195286Y-79694143D01*
X133159571Y-79622714D01*
X133123857Y-79479857D01*
X133123857Y-79372714D01*
X133159571Y-79229857D01*
X133195286Y-79158429D01*
X133266714Y-79087000D01*
X133373857Y-79051286D01*
X133445286Y-79051286D01*
X133552429Y-79087000D01*
X133588143Y-79122714D01*
X132016715Y-81637000D02*
X131945286Y-81601286D01*
X131838143Y-81601286D01*
X131731000Y-81637000D01*
X131659572Y-81708429D01*
X131623857Y-81779857D01*
X131588143Y-81922714D01*
X131588143Y-82029857D01*
X131623857Y-82172714D01*
X131659572Y-82244143D01*
X131731000Y-82315571D01*
X131838143Y-82351286D01*
X131909572Y-82351286D01*
X132016715Y-82315571D01*
X132052429Y-82279857D01*
X132052429Y-82029857D01*
X131909572Y-82029857D01*
X132373857Y-82351286D02*
X132373857Y-81601286D01*
X132802429Y-82351286D01*
X132802429Y-81601286D01*
X133159571Y-82351286D02*
X133159571Y-81601286D01*
X133338143Y-81601286D01*
X133445286Y-81637000D01*
X133516714Y-81708429D01*
X133552429Y-81779857D01*
X133588143Y-81922714D01*
X133588143Y-82029857D01*
X133552429Y-82172714D01*
X133516714Y-82244143D01*
X133445286Y-82315571D01*
X133338143Y-82351286D01*
X133159571Y-82351286D01*
X132016714Y-84901286D02*
X132016714Y-84151286D01*
X132802429Y-84901286D02*
X132552429Y-84544143D01*
X132373857Y-84901286D02*
X132373857Y-84151286D01*
X132659572Y-84151286D01*
X132731000Y-84187000D01*
X132766715Y-84222714D01*
X132802429Y-84294143D01*
X132802429Y-84401286D01*
X132766715Y-84472714D01*
X132731000Y-84508429D01*
X132659572Y-84544143D01*
X132373857Y-84544143D01*
X133623857Y-84972714D02*
X133552429Y-84937000D01*
X133481000Y-84865571D01*
X133373857Y-84758429D01*
X133302429Y-84722714D01*
X133231000Y-84722714D01*
X133266715Y-84901286D02*
X133195286Y-84865571D01*
X133123857Y-84794143D01*
X133088143Y-84651286D01*
X133088143Y-84401286D01*
X133123857Y-84258429D01*
X133195286Y-84187000D01*
X133266715Y-84151286D01*
X133409572Y-84151286D01*
X133481000Y-84187000D01*
X133552429Y-84258429D01*
X133588143Y-84401286D01*
X133588143Y-84651286D01*
X133552429Y-84794143D01*
X133481000Y-84865571D01*
X133409572Y-84901286D01*
X133266715Y-84901286D01*
X131195285Y-87451286D02*
X131195285Y-86701286D01*
X131445285Y-87237000D01*
X131695285Y-86701286D01*
X131695285Y-87451286D01*
X132195286Y-86701286D02*
X132338143Y-86701286D01*
X132409571Y-86737000D01*
X132481000Y-86808429D01*
X132516714Y-86951286D01*
X132516714Y-87201286D01*
X132481000Y-87344143D01*
X132409571Y-87415571D01*
X132338143Y-87451286D01*
X132195286Y-87451286D01*
X132123857Y-87415571D01*
X132052428Y-87344143D01*
X132016714Y-87201286D01*
X132016714Y-86951286D01*
X132052428Y-86808429D01*
X132123857Y-86737000D01*
X132195286Y-86701286D01*
X132802428Y-87415571D02*
X132909571Y-87451286D01*
X133088142Y-87451286D01*
X133159571Y-87415571D01*
X133195285Y-87379857D01*
X133231000Y-87308429D01*
X133231000Y-87237000D01*
X133195285Y-87165571D01*
X133159571Y-87129857D01*
X133088142Y-87094143D01*
X132945285Y-87058429D01*
X132873857Y-87022714D01*
X132838142Y-86987000D01*
X132802428Y-86915571D01*
X132802428Y-86844143D01*
X132838142Y-86772714D01*
X132873857Y-86737000D01*
X132945285Y-86701286D01*
X133123857Y-86701286D01*
X133231000Y-86737000D01*
X133552428Y-87451286D02*
X133552428Y-86701286D01*
X131195285Y-90001286D02*
X131195285Y-89251286D01*
X131445285Y-89787000D01*
X131695285Y-89251286D01*
X131695285Y-90001286D01*
X132052428Y-90001286D02*
X132052428Y-89251286D01*
X132373857Y-89965571D02*
X132481000Y-90001286D01*
X132659571Y-90001286D01*
X132731000Y-89965571D01*
X132766714Y-89929857D01*
X132802429Y-89858429D01*
X132802429Y-89787000D01*
X132766714Y-89715571D01*
X132731000Y-89679857D01*
X132659571Y-89644143D01*
X132516714Y-89608429D01*
X132445286Y-89572714D01*
X132409571Y-89537000D01*
X132373857Y-89465571D01*
X132373857Y-89394143D01*
X132409571Y-89322714D01*
X132445286Y-89287000D01*
X132516714Y-89251286D01*
X132695286Y-89251286D01*
X132802429Y-89287000D01*
X133266715Y-89251286D02*
X133409572Y-89251286D01*
X133481000Y-89287000D01*
X133552429Y-89358429D01*
X133588143Y-89501286D01*
X133588143Y-89751286D01*
X133552429Y-89894143D01*
X133481000Y-89965571D01*
X133409572Y-90001286D01*
X133266715Y-90001286D01*
X133195286Y-89965571D01*
X133123857Y-89894143D01*
X133088143Y-89751286D01*
X133088143Y-89501286D01*
X133123857Y-89358429D01*
X133195286Y-89287000D01*
X133266715Y-89251286D01*
X132231000Y-92479857D02*
X132195286Y-92515571D01*
X132088143Y-92551286D01*
X132016714Y-92551286D01*
X131909571Y-92515571D01*
X131838143Y-92444143D01*
X131802428Y-92372714D01*
X131766714Y-92229857D01*
X131766714Y-92122714D01*
X131802428Y-91979857D01*
X131838143Y-91908429D01*
X131909571Y-91837000D01*
X132016714Y-91801286D01*
X132088143Y-91801286D01*
X132195286Y-91837000D01*
X132231000Y-91872714D01*
X132909571Y-92551286D02*
X132552428Y-92551286D01*
X132552428Y-91801286D01*
X133159571Y-92551286D02*
X133159571Y-91801286D01*
X133588143Y-92551286D02*
X133266714Y-92122714D01*
X133588143Y-91801286D02*
X133159571Y-92229857D01*
X131873857Y-95065571D02*
X131981000Y-95101286D01*
X132159571Y-95101286D01*
X132231000Y-95065571D01*
X132266714Y-95029857D01*
X132302429Y-94958429D01*
X132302429Y-94887000D01*
X132266714Y-94815571D01*
X132231000Y-94779857D01*
X132159571Y-94744143D01*
X132016714Y-94708429D01*
X131945286Y-94672714D01*
X131909571Y-94637000D01*
X131873857Y-94565571D01*
X131873857Y-94494143D01*
X131909571Y-94422714D01*
X131945286Y-94387000D01*
X132016714Y-94351286D01*
X132195286Y-94351286D01*
X132302429Y-94387000D01*
X132623857Y-94708429D02*
X132873857Y-94708429D01*
X132981000Y-95101286D02*
X132623857Y-95101286D01*
X132623857Y-94351286D01*
X132981000Y-94351286D01*
X133659571Y-95101286D02*
X133302428Y-95101286D01*
X133302428Y-94351286D01*
X129695285Y-97615571D02*
X129802428Y-97651286D01*
X129980999Y-97651286D01*
X130052428Y-97615571D01*
X130088142Y-97579857D01*
X130123857Y-97508429D01*
X130123857Y-97437000D01*
X130088142Y-97365571D01*
X130052428Y-97329857D01*
X129980999Y-97294143D01*
X129838142Y-97258429D01*
X129766714Y-97222714D01*
X129730999Y-97187000D01*
X129695285Y-97115571D01*
X129695285Y-97044143D01*
X129730999Y-96972714D01*
X129766714Y-96937000D01*
X129838142Y-96901286D01*
X130016714Y-96901286D01*
X130123857Y-96937000D01*
X130588143Y-97294143D02*
X130588143Y-97651286D01*
X130338143Y-96901286D02*
X130588143Y-97294143D01*
X130838143Y-96901286D01*
X131052428Y-97615571D02*
X131159571Y-97651286D01*
X131338142Y-97651286D01*
X131409571Y-97615571D01*
X131445285Y-97579857D01*
X131481000Y-97508429D01*
X131481000Y-97437000D01*
X131445285Y-97365571D01*
X131409571Y-97329857D01*
X131338142Y-97294143D01*
X131195285Y-97258429D01*
X131123857Y-97222714D01*
X131088142Y-97187000D01*
X131052428Y-97115571D01*
X131052428Y-97044143D01*
X131088142Y-96972714D01*
X131123857Y-96937000D01*
X131195285Y-96901286D01*
X131373857Y-96901286D01*
X131481000Y-96937000D01*
X132231000Y-97579857D02*
X132195286Y-97615571D01*
X132088143Y-97651286D01*
X132016714Y-97651286D01*
X131909571Y-97615571D01*
X131838143Y-97544143D01*
X131802428Y-97472714D01*
X131766714Y-97329857D01*
X131766714Y-97222714D01*
X131802428Y-97079857D01*
X131838143Y-97008429D01*
X131909571Y-96937000D01*
X132016714Y-96901286D01*
X132088143Y-96901286D01*
X132195286Y-96937000D01*
X132231000Y-96972714D01*
X132909571Y-97651286D02*
X132552428Y-97651286D01*
X132552428Y-96901286D01*
X133159571Y-97651286D02*
X133159571Y-96901286D01*
X133588143Y-97651286D02*
X133266714Y-97222714D01*
X133588143Y-96901286D02*
X133159571Y-97329857D01*
X112863572Y-79051286D02*
X113113572Y-79801286D01*
X113363572Y-79051286D01*
X114042143Y-79729857D02*
X114006429Y-79765571D01*
X113899286Y-79801286D01*
X113827857Y-79801286D01*
X113720714Y-79765571D01*
X113649286Y-79694143D01*
X113613571Y-79622714D01*
X113577857Y-79479857D01*
X113577857Y-79372714D01*
X113613571Y-79229857D01*
X113649286Y-79158429D01*
X113720714Y-79087000D01*
X113827857Y-79051286D01*
X113899286Y-79051286D01*
X114006429Y-79087000D01*
X114042143Y-79122714D01*
X114792143Y-79729857D02*
X114756429Y-79765571D01*
X114649286Y-79801286D01*
X114577857Y-79801286D01*
X114470714Y-79765571D01*
X114399286Y-79694143D01*
X114363571Y-79622714D01*
X114327857Y-79479857D01*
X114327857Y-79372714D01*
X114363571Y-79229857D01*
X114399286Y-79158429D01*
X114470714Y-79087000D01*
X114577857Y-79051286D01*
X114649286Y-79051286D01*
X114756429Y-79087000D01*
X114792143Y-79122714D01*
X113220715Y-81637000D02*
X113149286Y-81601286D01*
X113042143Y-81601286D01*
X112935000Y-81637000D01*
X112863572Y-81708429D01*
X112827857Y-81779857D01*
X112792143Y-81922714D01*
X112792143Y-82029857D01*
X112827857Y-82172714D01*
X112863572Y-82244143D01*
X112935000Y-82315571D01*
X113042143Y-82351286D01*
X113113572Y-82351286D01*
X113220715Y-82315571D01*
X113256429Y-82279857D01*
X113256429Y-82029857D01*
X113113572Y-82029857D01*
X113577857Y-82351286D02*
X113577857Y-81601286D01*
X114006429Y-82351286D01*
X114006429Y-81601286D01*
X114363571Y-82351286D02*
X114363571Y-81601286D01*
X114542143Y-81601286D01*
X114649286Y-81637000D01*
X114720714Y-81708429D01*
X114756429Y-81779857D01*
X114792143Y-81922714D01*
X114792143Y-82029857D01*
X114756429Y-82172714D01*
X114720714Y-82244143D01*
X114649286Y-82315571D01*
X114542143Y-82351286D01*
X114363571Y-82351286D01*
X113220714Y-84901286D02*
X113220714Y-84151286D01*
X114006429Y-84901286D02*
X113756429Y-84544143D01*
X113577857Y-84901286D02*
X113577857Y-84151286D01*
X113863572Y-84151286D01*
X113935000Y-84187000D01*
X113970715Y-84222714D01*
X114006429Y-84294143D01*
X114006429Y-84401286D01*
X113970715Y-84472714D01*
X113935000Y-84508429D01*
X113863572Y-84544143D01*
X113577857Y-84544143D01*
X114827857Y-84972714D02*
X114756429Y-84937000D01*
X114685000Y-84865571D01*
X114577857Y-84758429D01*
X114506429Y-84722714D01*
X114435000Y-84722714D01*
X114470715Y-84901286D02*
X114399286Y-84865571D01*
X114327857Y-84794143D01*
X114292143Y-84651286D01*
X114292143Y-84401286D01*
X114327857Y-84258429D01*
X114399286Y-84187000D01*
X114470715Y-84151286D01*
X114613572Y-84151286D01*
X114685000Y-84187000D01*
X114756429Y-84258429D01*
X114792143Y-84401286D01*
X114792143Y-84651286D01*
X114756429Y-84794143D01*
X114685000Y-84865571D01*
X114613572Y-84901286D01*
X114470715Y-84901286D01*
X112399285Y-87451286D02*
X112399285Y-86701286D01*
X112649285Y-87237000D01*
X112899285Y-86701286D01*
X112899285Y-87451286D01*
X113399286Y-86701286D02*
X113542143Y-86701286D01*
X113613571Y-86737000D01*
X113685000Y-86808429D01*
X113720714Y-86951286D01*
X113720714Y-87201286D01*
X113685000Y-87344143D01*
X113613571Y-87415571D01*
X113542143Y-87451286D01*
X113399286Y-87451286D01*
X113327857Y-87415571D01*
X113256428Y-87344143D01*
X113220714Y-87201286D01*
X113220714Y-86951286D01*
X113256428Y-86808429D01*
X113327857Y-86737000D01*
X113399286Y-86701286D01*
X114006428Y-87415571D02*
X114113571Y-87451286D01*
X114292142Y-87451286D01*
X114363571Y-87415571D01*
X114399285Y-87379857D01*
X114435000Y-87308429D01*
X114435000Y-87237000D01*
X114399285Y-87165571D01*
X114363571Y-87129857D01*
X114292142Y-87094143D01*
X114149285Y-87058429D01*
X114077857Y-87022714D01*
X114042142Y-86987000D01*
X114006428Y-86915571D01*
X114006428Y-86844143D01*
X114042142Y-86772714D01*
X114077857Y-86737000D01*
X114149285Y-86701286D01*
X114327857Y-86701286D01*
X114435000Y-86737000D01*
X114756428Y-87451286D02*
X114756428Y-86701286D01*
X112399285Y-90001286D02*
X112399285Y-89251286D01*
X112649285Y-89787000D01*
X112899285Y-89251286D01*
X112899285Y-90001286D01*
X113256428Y-90001286D02*
X113256428Y-89251286D01*
X113577857Y-89965571D02*
X113685000Y-90001286D01*
X113863571Y-90001286D01*
X113935000Y-89965571D01*
X113970714Y-89929857D01*
X114006429Y-89858429D01*
X114006429Y-89787000D01*
X113970714Y-89715571D01*
X113935000Y-89679857D01*
X113863571Y-89644143D01*
X113720714Y-89608429D01*
X113649286Y-89572714D01*
X113613571Y-89537000D01*
X113577857Y-89465571D01*
X113577857Y-89394143D01*
X113613571Y-89322714D01*
X113649286Y-89287000D01*
X113720714Y-89251286D01*
X113899286Y-89251286D01*
X114006429Y-89287000D01*
X114470715Y-89251286D02*
X114613572Y-89251286D01*
X114685000Y-89287000D01*
X114756429Y-89358429D01*
X114792143Y-89501286D01*
X114792143Y-89751286D01*
X114756429Y-89894143D01*
X114685000Y-89965571D01*
X114613572Y-90001286D01*
X114470715Y-90001286D01*
X114399286Y-89965571D01*
X114327857Y-89894143D01*
X114292143Y-89751286D01*
X114292143Y-89501286D01*
X114327857Y-89358429D01*
X114399286Y-89287000D01*
X114470715Y-89251286D01*
X113435000Y-92479857D02*
X113399286Y-92515571D01*
X113292143Y-92551286D01*
X113220714Y-92551286D01*
X113113571Y-92515571D01*
X113042143Y-92444143D01*
X113006428Y-92372714D01*
X112970714Y-92229857D01*
X112970714Y-92122714D01*
X113006428Y-91979857D01*
X113042143Y-91908429D01*
X113113571Y-91837000D01*
X113220714Y-91801286D01*
X113292143Y-91801286D01*
X113399286Y-91837000D01*
X113435000Y-91872714D01*
X114113571Y-92551286D02*
X113756428Y-92551286D01*
X113756428Y-91801286D01*
X114363571Y-92551286D02*
X114363571Y-91801286D01*
X114792143Y-92551286D02*
X114470714Y-92122714D01*
X114792143Y-91801286D02*
X114363571Y-92229857D01*
X113077857Y-95065571D02*
X113185000Y-95101286D01*
X113363571Y-95101286D01*
X113435000Y-95065571D01*
X113470714Y-95029857D01*
X113506429Y-94958429D01*
X113506429Y-94887000D01*
X113470714Y-94815571D01*
X113435000Y-94779857D01*
X113363571Y-94744143D01*
X113220714Y-94708429D01*
X113149286Y-94672714D01*
X113113571Y-94637000D01*
X113077857Y-94565571D01*
X113077857Y-94494143D01*
X113113571Y-94422714D01*
X113149286Y-94387000D01*
X113220714Y-94351286D01*
X113399286Y-94351286D01*
X113506429Y-94387000D01*
X113827857Y-94708429D02*
X114077857Y-94708429D01*
X114185000Y-95101286D02*
X113827857Y-95101286D01*
X113827857Y-94351286D01*
X114185000Y-94351286D01*
X114863571Y-95101286D02*
X114506428Y-95101286D01*
X114506428Y-94351286D01*
X110899285Y-97615571D02*
X111006428Y-97651286D01*
X111184999Y-97651286D01*
X111256428Y-97615571D01*
X111292142Y-97579857D01*
X111327857Y-97508429D01*
X111327857Y-97437000D01*
X111292142Y-97365571D01*
X111256428Y-97329857D01*
X111184999Y-97294143D01*
X111042142Y-97258429D01*
X110970714Y-97222714D01*
X110934999Y-97187000D01*
X110899285Y-97115571D01*
X110899285Y-97044143D01*
X110934999Y-96972714D01*
X110970714Y-96937000D01*
X111042142Y-96901286D01*
X111220714Y-96901286D01*
X111327857Y-96937000D01*
X111792143Y-97294143D02*
X111792143Y-97651286D01*
X111542143Y-96901286D02*
X111792143Y-97294143D01*
X112042143Y-96901286D01*
X112256428Y-97615571D02*
X112363571Y-97651286D01*
X112542142Y-97651286D01*
X112613571Y-97615571D01*
X112649285Y-97579857D01*
X112685000Y-97508429D01*
X112685000Y-97437000D01*
X112649285Y-97365571D01*
X112613571Y-97329857D01*
X112542142Y-97294143D01*
X112399285Y-97258429D01*
X112327857Y-97222714D01*
X112292142Y-97187000D01*
X112256428Y-97115571D01*
X112256428Y-97044143D01*
X112292142Y-96972714D01*
X112327857Y-96937000D01*
X112399285Y-96901286D01*
X112577857Y-96901286D01*
X112685000Y-96937000D01*
X113435000Y-97579857D02*
X113399286Y-97615571D01*
X113292143Y-97651286D01*
X113220714Y-97651286D01*
X113113571Y-97615571D01*
X113042143Y-97544143D01*
X113006428Y-97472714D01*
X112970714Y-97329857D01*
X112970714Y-97222714D01*
X113006428Y-97079857D01*
X113042143Y-97008429D01*
X113113571Y-96937000D01*
X113220714Y-96901286D01*
X113292143Y-96901286D01*
X113399286Y-96937000D01*
X113435000Y-96972714D01*
X114113571Y-97651286D02*
X113756428Y-97651286D01*
X113756428Y-96901286D01*
X114363571Y-97651286D02*
X114363571Y-96901286D01*
X114792143Y-97651286D02*
X114470714Y-97222714D01*
X114792143Y-96901286D02*
X114363571Y-97329857D01*
X112863572Y-55175286D02*
X113113572Y-55925286D01*
X113363572Y-55175286D01*
X114042143Y-55853857D02*
X114006429Y-55889571D01*
X113899286Y-55925286D01*
X113827857Y-55925286D01*
X113720714Y-55889571D01*
X113649286Y-55818143D01*
X113613571Y-55746714D01*
X113577857Y-55603857D01*
X113577857Y-55496714D01*
X113613571Y-55353857D01*
X113649286Y-55282429D01*
X113720714Y-55211000D01*
X113827857Y-55175286D01*
X113899286Y-55175286D01*
X114006429Y-55211000D01*
X114042143Y-55246714D01*
X114792143Y-55853857D02*
X114756429Y-55889571D01*
X114649286Y-55925286D01*
X114577857Y-55925286D01*
X114470714Y-55889571D01*
X114399286Y-55818143D01*
X114363571Y-55746714D01*
X114327857Y-55603857D01*
X114327857Y-55496714D01*
X114363571Y-55353857D01*
X114399286Y-55282429D01*
X114470714Y-55211000D01*
X114577857Y-55175286D01*
X114649286Y-55175286D01*
X114756429Y-55211000D01*
X114792143Y-55246714D01*
X113220715Y-57761000D02*
X113149286Y-57725286D01*
X113042143Y-57725286D01*
X112935000Y-57761000D01*
X112863572Y-57832429D01*
X112827857Y-57903857D01*
X112792143Y-58046714D01*
X112792143Y-58153857D01*
X112827857Y-58296714D01*
X112863572Y-58368143D01*
X112935000Y-58439571D01*
X113042143Y-58475286D01*
X113113572Y-58475286D01*
X113220715Y-58439571D01*
X113256429Y-58403857D01*
X113256429Y-58153857D01*
X113113572Y-58153857D01*
X113577857Y-58475286D02*
X113577857Y-57725286D01*
X114006429Y-58475286D01*
X114006429Y-57725286D01*
X114363571Y-58475286D02*
X114363571Y-57725286D01*
X114542143Y-57725286D01*
X114649286Y-57761000D01*
X114720714Y-57832429D01*
X114756429Y-57903857D01*
X114792143Y-58046714D01*
X114792143Y-58153857D01*
X114756429Y-58296714D01*
X114720714Y-58368143D01*
X114649286Y-58439571D01*
X114542143Y-58475286D01*
X114363571Y-58475286D01*
X113220714Y-61025286D02*
X113220714Y-60275286D01*
X114006429Y-61025286D02*
X113756429Y-60668143D01*
X113577857Y-61025286D02*
X113577857Y-60275286D01*
X113863572Y-60275286D01*
X113935000Y-60311000D01*
X113970715Y-60346714D01*
X114006429Y-60418143D01*
X114006429Y-60525286D01*
X113970715Y-60596714D01*
X113935000Y-60632429D01*
X113863572Y-60668143D01*
X113577857Y-60668143D01*
X114827857Y-61096714D02*
X114756429Y-61061000D01*
X114685000Y-60989571D01*
X114577857Y-60882429D01*
X114506429Y-60846714D01*
X114435000Y-60846714D01*
X114470715Y-61025286D02*
X114399286Y-60989571D01*
X114327857Y-60918143D01*
X114292143Y-60775286D01*
X114292143Y-60525286D01*
X114327857Y-60382429D01*
X114399286Y-60311000D01*
X114470715Y-60275286D01*
X114613572Y-60275286D01*
X114685000Y-60311000D01*
X114756429Y-60382429D01*
X114792143Y-60525286D01*
X114792143Y-60775286D01*
X114756429Y-60918143D01*
X114685000Y-60989571D01*
X114613572Y-61025286D01*
X114470715Y-61025286D01*
X112399285Y-63575286D02*
X112399285Y-62825286D01*
X112649285Y-63361000D01*
X112899285Y-62825286D01*
X112899285Y-63575286D01*
X113399286Y-62825286D02*
X113542143Y-62825286D01*
X113613571Y-62861000D01*
X113685000Y-62932429D01*
X113720714Y-63075286D01*
X113720714Y-63325286D01*
X113685000Y-63468143D01*
X113613571Y-63539571D01*
X113542143Y-63575286D01*
X113399286Y-63575286D01*
X113327857Y-63539571D01*
X113256428Y-63468143D01*
X113220714Y-63325286D01*
X113220714Y-63075286D01*
X113256428Y-62932429D01*
X113327857Y-62861000D01*
X113399286Y-62825286D01*
X114006428Y-63539571D02*
X114113571Y-63575286D01*
X114292142Y-63575286D01*
X114363571Y-63539571D01*
X114399285Y-63503857D01*
X114435000Y-63432429D01*
X114435000Y-63361000D01*
X114399285Y-63289571D01*
X114363571Y-63253857D01*
X114292142Y-63218143D01*
X114149285Y-63182429D01*
X114077857Y-63146714D01*
X114042142Y-63111000D01*
X114006428Y-63039571D01*
X114006428Y-62968143D01*
X114042142Y-62896714D01*
X114077857Y-62861000D01*
X114149285Y-62825286D01*
X114327857Y-62825286D01*
X114435000Y-62861000D01*
X114756428Y-63575286D02*
X114756428Y-62825286D01*
X112399285Y-66125286D02*
X112399285Y-65375286D01*
X112649285Y-65911000D01*
X112899285Y-65375286D01*
X112899285Y-66125286D01*
X113256428Y-66125286D02*
X113256428Y-65375286D01*
X113577857Y-66089571D02*
X113685000Y-66125286D01*
X113863571Y-66125286D01*
X113935000Y-66089571D01*
X113970714Y-66053857D01*
X114006429Y-65982429D01*
X114006429Y-65911000D01*
X113970714Y-65839571D01*
X113935000Y-65803857D01*
X113863571Y-65768143D01*
X113720714Y-65732429D01*
X113649286Y-65696714D01*
X113613571Y-65661000D01*
X113577857Y-65589571D01*
X113577857Y-65518143D01*
X113613571Y-65446714D01*
X113649286Y-65411000D01*
X113720714Y-65375286D01*
X113899286Y-65375286D01*
X114006429Y-65411000D01*
X114470715Y-65375286D02*
X114613572Y-65375286D01*
X114685000Y-65411000D01*
X114756429Y-65482429D01*
X114792143Y-65625286D01*
X114792143Y-65875286D01*
X114756429Y-66018143D01*
X114685000Y-66089571D01*
X114613572Y-66125286D01*
X114470715Y-66125286D01*
X114399286Y-66089571D01*
X114327857Y-66018143D01*
X114292143Y-65875286D01*
X114292143Y-65625286D01*
X114327857Y-65482429D01*
X114399286Y-65411000D01*
X114470715Y-65375286D01*
X113435000Y-68603857D02*
X113399286Y-68639571D01*
X113292143Y-68675286D01*
X113220714Y-68675286D01*
X113113571Y-68639571D01*
X113042143Y-68568143D01*
X113006428Y-68496714D01*
X112970714Y-68353857D01*
X112970714Y-68246714D01*
X113006428Y-68103857D01*
X113042143Y-68032429D01*
X113113571Y-67961000D01*
X113220714Y-67925286D01*
X113292143Y-67925286D01*
X113399286Y-67961000D01*
X113435000Y-67996714D01*
X114113571Y-68675286D02*
X113756428Y-68675286D01*
X113756428Y-67925286D01*
X114363571Y-68675286D02*
X114363571Y-67925286D01*
X114792143Y-68675286D02*
X114470714Y-68246714D01*
X114792143Y-67925286D02*
X114363571Y-68353857D01*
X113077857Y-71189571D02*
X113185000Y-71225286D01*
X113363571Y-71225286D01*
X113435000Y-71189571D01*
X113470714Y-71153857D01*
X113506429Y-71082429D01*
X113506429Y-71011000D01*
X113470714Y-70939571D01*
X113435000Y-70903857D01*
X113363571Y-70868143D01*
X113220714Y-70832429D01*
X113149286Y-70796714D01*
X113113571Y-70761000D01*
X113077857Y-70689571D01*
X113077857Y-70618143D01*
X113113571Y-70546714D01*
X113149286Y-70511000D01*
X113220714Y-70475286D01*
X113399286Y-70475286D01*
X113506429Y-70511000D01*
X113827857Y-70832429D02*
X114077857Y-70832429D01*
X114185000Y-71225286D02*
X113827857Y-71225286D01*
X113827857Y-70475286D01*
X114185000Y-70475286D01*
X114863571Y-71225286D02*
X114506428Y-71225286D01*
X114506428Y-70475286D01*
X110899285Y-73739571D02*
X111006428Y-73775286D01*
X111184999Y-73775286D01*
X111256428Y-73739571D01*
X111292142Y-73703857D01*
X111327857Y-73632429D01*
X111327857Y-73561000D01*
X111292142Y-73489571D01*
X111256428Y-73453857D01*
X111184999Y-73418143D01*
X111042142Y-73382429D01*
X110970714Y-73346714D01*
X110934999Y-73311000D01*
X110899285Y-73239571D01*
X110899285Y-73168143D01*
X110934999Y-73096714D01*
X110970714Y-73061000D01*
X111042142Y-73025286D01*
X111220714Y-73025286D01*
X111327857Y-73061000D01*
X111792143Y-73418143D02*
X111792143Y-73775286D01*
X111542143Y-73025286D02*
X111792143Y-73418143D01*
X112042143Y-73025286D01*
X112256428Y-73739571D02*
X112363571Y-73775286D01*
X112542142Y-73775286D01*
X112613571Y-73739571D01*
X112649285Y-73703857D01*
X112685000Y-73632429D01*
X112685000Y-73561000D01*
X112649285Y-73489571D01*
X112613571Y-73453857D01*
X112542142Y-73418143D01*
X112399285Y-73382429D01*
X112327857Y-73346714D01*
X112292142Y-73311000D01*
X112256428Y-73239571D01*
X112256428Y-73168143D01*
X112292142Y-73096714D01*
X112327857Y-73061000D01*
X112399285Y-73025286D01*
X112577857Y-73025286D01*
X112685000Y-73061000D01*
X113435000Y-73703857D02*
X113399286Y-73739571D01*
X113292143Y-73775286D01*
X113220714Y-73775286D01*
X113113571Y-73739571D01*
X113042143Y-73668143D01*
X113006428Y-73596714D01*
X112970714Y-73453857D01*
X112970714Y-73346714D01*
X113006428Y-73203857D01*
X113042143Y-73132429D01*
X113113571Y-73061000D01*
X113220714Y-73025286D01*
X113292143Y-73025286D01*
X113399286Y-73061000D01*
X113435000Y-73096714D01*
X114113571Y-73775286D02*
X113756428Y-73775286D01*
X113756428Y-73025286D01*
X114363571Y-73775286D02*
X114363571Y-73025286D01*
X114792143Y-73775286D02*
X114470714Y-73346714D01*
X114792143Y-73025286D02*
X114363571Y-73453857D01*
D12*
X165062000Y-89531000D02*
X165062000Y-89031000D01*
X164122000Y-89031000D02*
X164122000Y-89531000D01*
X160278000Y-80099000D02*
X160778000Y-80099000D01*
X160778000Y-79159000D02*
X160278000Y-79159000D01*
X161675000Y-79083000D02*
X162175000Y-79083000D01*
X162175000Y-78143000D02*
X161675000Y-78143000D01*
X158220000Y-80993000D02*
X158220000Y-86893000D01*
X158220000Y-86893000D02*
X161820000Y-86893000D01*
X161820000Y-86893000D02*
X161820000Y-80993000D01*
X160320000Y-88227000D02*
X160820000Y-88227000D01*
X160820000Y-87287000D02*
X160320000Y-87287000D01*
D11*
X162959000Y-79708000D02*
X163709000Y-79708000D01*
X168209000Y-84958000D02*
X167459000Y-84958000D01*
X168209000Y-79708000D02*
X167459000Y-79708000D01*
X162959000Y-84958000D02*
X162959000Y-84208000D01*
X168209000Y-84958000D02*
X168209000Y-84208000D01*
X168209000Y-79708000D02*
X168209000Y-80458000D01*
X162959000Y-79708000D02*
X162959000Y-80458000D01*
D12*
X167517000Y-86703000D02*
X168017000Y-86703000D01*
X168017000Y-85763000D02*
X167517000Y-85763000D01*
X163699001Y-85763000D02*
X163199001Y-85763000D01*
X163199001Y-86703000D02*
X163699001Y-86703000D01*
X164283200Y-87033000D02*
X163783200Y-87033000D01*
X163783200Y-87973000D02*
X164283200Y-87973000D01*
X166932799Y-87973000D02*
X167432799Y-87973000D01*
X167432799Y-87033000D02*
X166932799Y-87033000D01*
X159711200Y-92874999D02*
X159211200Y-92874999D01*
X159211200Y-93814999D02*
X159711200Y-93814999D01*
X158690000Y-90237000D02*
X158690000Y-92897000D01*
X158750000Y-90237000D02*
X158690000Y-90237000D01*
X158750000Y-92897000D02*
X158690000Y-92897000D01*
X158750000Y-90237000D02*
X158750000Y-92897000D01*
X160020000Y-90237000D02*
X161350000Y-90237000D01*
X161350000Y-90237000D02*
X161350000Y-91567000D01*
X159550000Y-94619000D02*
X159550000Y-95119000D01*
X160490000Y-95119000D02*
X160490000Y-94619000D01*
X159211200Y-96863000D02*
X159711200Y-96863000D01*
X159711200Y-95923000D02*
X159211200Y-95923000D01*
X165062000Y-95373000D02*
X165062000Y-94873000D01*
X164122000Y-94873000D02*
X164122000Y-95373000D01*
X165062000Y-91817000D02*
X165062000Y-91317000D01*
X164122000Y-91317000D02*
X164122000Y-91817000D01*
X164308600Y-92874999D02*
X163808600Y-92874999D01*
X163808600Y-93814999D02*
X164308600Y-93814999D01*
X167094000Y-96389000D02*
X167094000Y-95889000D01*
X166154000Y-95889000D02*
X166154000Y-96389000D01*
X166932800Y-94831000D02*
X167432800Y-94831000D01*
X167432800Y-93891000D02*
X166932800Y-93891000D01*
X167094001Y-89404000D02*
X167094001Y-88904000D01*
X166154001Y-88904000D02*
X166154001Y-89404000D01*
X167094001Y-91690000D02*
X167094001Y-91190000D01*
X166154001Y-91190000D02*
X166154001Y-91690000D01*
X166932800Y-93688000D02*
X167432800Y-93688000D01*
X167432800Y-92748000D02*
X166932800Y-92748000D01*
X158690000Y-66361000D02*
X158690000Y-69021000D01*
X158750000Y-66361000D02*
X158690000Y-66361000D01*
X158750000Y-69021000D02*
X158690000Y-69021000D01*
X158750000Y-66361000D02*
X158750000Y-69021000D01*
X160020000Y-66361000D02*
X161350000Y-66361000D01*
X161350000Y-66361000D02*
X161350000Y-67691000D01*
X159711200Y-68998999D02*
X159211200Y-68998999D01*
X159211200Y-69938999D02*
X159711200Y-69938999D01*
X160320000Y-64351000D02*
X160820000Y-64351000D01*
X160820000Y-63411000D02*
X160320000Y-63411000D01*
X159550000Y-70743000D02*
X159550000Y-71243000D01*
X160490000Y-71243000D02*
X160490000Y-70743000D01*
X159211200Y-72987000D02*
X159711200Y-72987000D01*
X159711200Y-72047000D02*
X159211200Y-72047000D01*
X167094001Y-65528000D02*
X167094001Y-65028000D01*
X166154001Y-65028000D02*
X166154001Y-65528000D01*
X166932799Y-64097000D02*
X167432799Y-64097000D01*
X167432799Y-63157000D02*
X166932799Y-63157000D01*
X164283200Y-63157000D02*
X163783200Y-63157000D01*
X163783200Y-64097000D02*
X164283200Y-64097000D01*
X165062000Y-65655000D02*
X165062000Y-65155000D01*
X164122000Y-65155000D02*
X164122000Y-65655000D01*
X166932800Y-69812000D02*
X167432800Y-69812000D01*
X167432800Y-68872000D02*
X166932800Y-68872000D01*
X165062000Y-67941000D02*
X165062000Y-67441000D01*
X164122000Y-67441000D02*
X164122000Y-67941000D01*
X167094001Y-67814000D02*
X167094001Y-67314000D01*
X166154001Y-67314000D02*
X166154001Y-67814000D01*
D11*
X162959000Y-55832000D02*
X163709000Y-55832000D01*
X168209000Y-61082000D02*
X167459000Y-61082000D01*
X168209000Y-55832000D02*
X167459000Y-55832000D01*
X162959000Y-61082000D02*
X162959000Y-60332000D01*
X168209000Y-61082000D02*
X168209000Y-60332000D01*
X168209000Y-55832000D02*
X168209000Y-56582000D01*
X162959000Y-55832000D02*
X162959000Y-56582000D01*
D12*
X163699001Y-61887000D02*
X163199001Y-61887000D01*
X163199001Y-62827000D02*
X163699001Y-62827000D01*
X158220000Y-57117000D02*
X158220000Y-63017000D01*
X158220000Y-63017000D02*
X161820000Y-63017000D01*
X161820000Y-63017000D02*
X161820000Y-57117000D01*
X167517000Y-62827000D02*
X168017000Y-62827000D01*
X168017000Y-61887000D02*
X167517000Y-61887000D01*
X160278000Y-56223000D02*
X160778000Y-56223000D01*
X160778000Y-55283000D02*
X160278000Y-55283000D01*
X161675000Y-55207000D02*
X162175000Y-55207000D01*
X162175000Y-54267000D02*
X161675000Y-54267000D01*
X164308600Y-68998999D02*
X163808600Y-68998999D01*
X163808600Y-69938999D02*
X164308600Y-69938999D01*
X167094000Y-72513000D02*
X167094000Y-72013000D01*
X166154000Y-72013000D02*
X166154000Y-72513000D01*
X165062000Y-71497000D02*
X165062000Y-70997000D01*
X164122000Y-70997000D02*
X164122000Y-71497000D01*
X166932800Y-70955000D02*
X167432800Y-70955000D01*
X167432800Y-70015000D02*
X166932800Y-70015000D01*
X139894000Y-66361000D02*
X139894000Y-69021000D01*
X139954000Y-66361000D02*
X139894000Y-66361000D01*
X139954000Y-69021000D02*
X139894000Y-69021000D01*
X139954000Y-66361000D02*
X139954000Y-69021000D01*
X141224000Y-66361000D02*
X142554000Y-66361000D01*
X142554000Y-66361000D02*
X142554000Y-67691000D01*
X141524000Y-64351000D02*
X142024000Y-64351000D01*
X142024000Y-63411000D02*
X141524000Y-63411000D01*
X148136800Y-69812000D02*
X148636800Y-69812000D01*
X148636800Y-68872000D02*
X148136800Y-68872000D01*
X148298001Y-67814000D02*
X148298001Y-67314000D01*
X147358001Y-67314000D02*
X147358001Y-67814000D01*
X144903001Y-61887000D02*
X144403001Y-61887000D01*
X144403001Y-62827000D02*
X144903001Y-62827000D01*
X139424000Y-57117000D02*
X139424000Y-63017000D01*
X139424000Y-63017000D02*
X143024000Y-63017000D01*
X143024000Y-63017000D02*
X143024000Y-57117000D01*
X141482000Y-56223000D02*
X141982000Y-56223000D01*
X141982000Y-55283000D02*
X141482000Y-55283000D01*
D11*
X144163000Y-55832000D02*
X144913000Y-55832000D01*
X149413000Y-61082000D02*
X148663000Y-61082000D01*
X149413000Y-55832000D02*
X148663000Y-55832000D01*
X144163000Y-61082000D02*
X144163000Y-60332000D01*
X149413000Y-61082000D02*
X149413000Y-60332000D01*
X149413000Y-55832000D02*
X149413000Y-56582000D01*
X144163000Y-55832000D02*
X144163000Y-56582000D01*
D12*
X148721000Y-62827000D02*
X149221000Y-62827000D01*
X149221000Y-61887000D02*
X148721000Y-61887000D01*
X142879000Y-55207000D02*
X143379000Y-55207000D01*
X143379000Y-54267000D02*
X142879000Y-54267000D01*
X148298001Y-65528000D02*
X148298001Y-65028000D01*
X147358001Y-65028000D02*
X147358001Y-65528000D01*
X148136799Y-64097000D02*
X148636799Y-64097000D01*
X148636799Y-63157000D02*
X148136799Y-63157000D01*
X145487200Y-63157000D02*
X144987200Y-63157000D01*
X144987200Y-64097000D02*
X145487200Y-64097000D01*
X146266000Y-67941000D02*
X146266000Y-67441000D01*
X145326000Y-67441000D02*
X145326000Y-67941000D01*
X146266000Y-65655000D02*
X146266000Y-65155000D01*
X145326000Y-65155000D02*
X145326000Y-65655000D01*
X140915200Y-68998999D02*
X140415200Y-68998999D01*
X140415200Y-69938999D02*
X140915200Y-69938999D01*
X140754000Y-70743000D02*
X140754000Y-71243000D01*
X141694000Y-71243000D02*
X141694000Y-70743000D01*
X148136800Y-70955000D02*
X148636800Y-70955000D01*
X148636800Y-70015000D02*
X148136800Y-70015000D01*
X148298000Y-72513000D02*
X148298000Y-72013000D01*
X147358000Y-72013000D02*
X147358000Y-72513000D01*
X142879000Y-79083000D02*
X143379000Y-79083000D01*
X143379000Y-78143000D02*
X142879000Y-78143000D01*
X141482000Y-80099000D02*
X141982000Y-80099000D01*
X141982000Y-79159000D02*
X141482000Y-79159000D01*
D11*
X144163000Y-79708000D02*
X144913000Y-79708000D01*
X149413000Y-84958000D02*
X148663000Y-84958000D01*
X149413000Y-79708000D02*
X148663000Y-79708000D01*
X144163000Y-84958000D02*
X144163000Y-84208000D01*
X149413000Y-84958000D02*
X149413000Y-84208000D01*
X149413000Y-79708000D02*
X149413000Y-80458000D01*
X144163000Y-79708000D02*
X144163000Y-80458000D01*
D12*
X148721000Y-86703000D02*
X149221000Y-86703000D01*
X149221000Y-85763000D02*
X148721000Y-85763000D01*
X144903001Y-85763000D02*
X144403001Y-85763000D01*
X144403001Y-86703000D02*
X144903001Y-86703000D01*
X139424000Y-80993000D02*
X139424000Y-86893000D01*
X139424000Y-86893000D02*
X143024000Y-86893000D01*
X143024000Y-86893000D02*
X143024000Y-80993000D01*
X140415200Y-72987000D02*
X140915200Y-72987000D01*
X140915200Y-72047000D02*
X140415200Y-72047000D01*
X145512600Y-68998999D02*
X145012600Y-68998999D01*
X145012600Y-69938999D02*
X145512600Y-69938999D01*
X146266000Y-71497000D02*
X146266000Y-70997000D01*
X145326000Y-70997000D02*
X145326000Y-71497000D01*
X148298000Y-96389000D02*
X148298000Y-95889000D01*
X147358000Y-95889000D02*
X147358000Y-96389000D01*
X148136799Y-87973000D02*
X148636799Y-87973000D01*
X148636799Y-87033000D02*
X148136799Y-87033000D01*
X146266000Y-89531000D02*
X146266000Y-89031000D01*
X145326000Y-89031000D02*
X145326000Y-89531000D01*
X148298001Y-89404000D02*
X148298001Y-88904000D01*
X147358001Y-88904000D02*
X147358001Y-89404000D01*
X145487200Y-87033000D02*
X144987200Y-87033000D01*
X144987200Y-87973000D02*
X145487200Y-87973000D01*
X148136800Y-93688000D02*
X148636800Y-93688000D01*
X148636800Y-92748000D02*
X148136800Y-92748000D01*
X148136800Y-94831000D02*
X148636800Y-94831000D01*
X148636800Y-93891000D02*
X148136800Y-93891000D01*
X148298001Y-91690000D02*
X148298001Y-91190000D01*
X147358001Y-91190000D02*
X147358001Y-91690000D01*
X146266000Y-91817000D02*
X146266000Y-91317000D01*
X145326000Y-91317000D02*
X145326000Y-91817000D01*
X146266000Y-95373000D02*
X146266000Y-94873000D01*
X145326000Y-94873000D02*
X145326000Y-95373000D01*
X145512600Y-92874999D02*
X145012600Y-92874999D01*
X145012600Y-93814999D02*
X145512600Y-93814999D01*
X140754000Y-94619000D02*
X140754000Y-95119000D01*
X141694000Y-95119000D02*
X141694000Y-94619000D01*
X140415200Y-96863000D02*
X140915200Y-96863000D01*
X140915200Y-95923000D02*
X140415200Y-95923000D01*
X141524000Y-88227000D02*
X142024000Y-88227000D01*
X142024000Y-87287000D02*
X141524000Y-87287000D01*
X140915200Y-92874999D02*
X140415200Y-92874999D01*
X140415200Y-93814999D02*
X140915200Y-93814999D01*
X139894000Y-90237000D02*
X139894000Y-92897000D01*
X139954000Y-90237000D02*
X139894000Y-90237000D01*
X139954000Y-92897000D02*
X139894000Y-92897000D01*
X139954000Y-90237000D02*
X139954000Y-92897000D01*
X141224000Y-90237000D02*
X142554000Y-90237000D01*
X142554000Y-90237000D02*
X142554000Y-91567000D01*
X121098000Y-66361000D02*
X121098000Y-69021000D01*
X121158000Y-66361000D02*
X121098000Y-66361000D01*
X121158000Y-69021000D02*
X121098000Y-69021000D01*
X121158000Y-66361000D02*
X121158000Y-69021000D01*
X122428000Y-66361000D02*
X123758000Y-66361000D01*
X123758000Y-66361000D02*
X123758000Y-67691000D01*
X122119200Y-68998999D02*
X121619200Y-68998999D01*
X121619200Y-69938999D02*
X122119200Y-69938999D01*
X121958000Y-70743000D02*
X121958000Y-71243000D01*
X122898000Y-71243000D02*
X122898000Y-70743000D01*
X121619200Y-72987000D02*
X122119200Y-72987000D01*
X122119200Y-72047000D02*
X121619200Y-72047000D01*
X129340800Y-70955000D02*
X129840800Y-70955000D01*
X129840800Y-70015000D02*
X129340800Y-70015000D01*
X129502000Y-72513000D02*
X129502000Y-72013000D01*
X128562000Y-72013000D02*
X128562000Y-72513000D01*
X127470000Y-71497000D02*
X127470000Y-70997000D01*
X126530000Y-70997000D02*
X126530000Y-71497000D01*
X129340800Y-69812000D02*
X129840800Y-69812000D01*
X129840800Y-68872000D02*
X129340800Y-68872000D01*
X129502001Y-67814000D02*
X129502001Y-67314000D01*
X128562001Y-67314000D02*
X128562001Y-67814000D01*
X129502001Y-65528000D02*
X129502001Y-65028000D01*
X128562001Y-65028000D02*
X128562001Y-65528000D01*
X127470000Y-65655000D02*
X127470000Y-65155000D01*
X126530000Y-65155000D02*
X126530000Y-65655000D01*
X129925000Y-62827000D02*
X130425000Y-62827000D01*
X130425000Y-61887000D02*
X129925000Y-61887000D01*
X122686000Y-56223000D02*
X123186000Y-56223000D01*
X123186000Y-55283000D02*
X122686000Y-55283000D01*
D11*
X125367000Y-55832000D02*
X126117000Y-55832000D01*
X130617000Y-61082000D02*
X129867000Y-61082000D01*
X130617000Y-55832000D02*
X129867000Y-55832000D01*
X125367000Y-61082000D02*
X125367000Y-60332000D01*
X130617000Y-61082000D02*
X130617000Y-60332000D01*
X130617000Y-55832000D02*
X130617000Y-56582000D01*
X125367000Y-55832000D02*
X125367000Y-56582000D01*
D12*
X120628000Y-57117000D02*
X120628000Y-63017000D01*
X120628000Y-63017000D02*
X124228000Y-63017000D01*
X124228000Y-63017000D02*
X124228000Y-57117000D01*
X124083000Y-55207000D02*
X124583000Y-55207000D01*
X124583000Y-54267000D02*
X124083000Y-54267000D01*
X129340799Y-64097000D02*
X129840799Y-64097000D01*
X129840799Y-63157000D02*
X129340799Y-63157000D01*
X126691200Y-63157000D02*
X126191200Y-63157000D01*
X126191200Y-64097000D02*
X126691200Y-64097000D01*
X122728000Y-64351000D02*
X123228000Y-64351000D01*
X123228000Y-63411000D02*
X122728000Y-63411000D01*
X126107001Y-61887000D02*
X125607001Y-61887000D01*
X125607001Y-62827000D02*
X126107001Y-62827000D01*
X127470000Y-67941000D02*
X127470000Y-67441000D01*
X126530000Y-67441000D02*
X126530000Y-67941000D01*
X126716600Y-68998999D02*
X126216600Y-68998999D01*
X126216600Y-69938999D02*
X126716600Y-69938999D01*
X126716600Y-92874999D02*
X126216600Y-92874999D01*
X126216600Y-93814999D02*
X126716600Y-93814999D01*
X127470000Y-89531000D02*
X127470000Y-89031000D01*
X126530000Y-89031000D02*
X126530000Y-89531000D01*
X129502001Y-89404000D02*
X129502001Y-88904000D01*
X128562001Y-88904000D02*
X128562001Y-89404000D01*
X129340799Y-87973000D02*
X129840799Y-87973000D01*
X129840799Y-87033000D02*
X129340799Y-87033000D01*
X126691200Y-87033000D02*
X126191200Y-87033000D01*
X126191200Y-87973000D02*
X126691200Y-87973000D01*
X121098000Y-90237000D02*
X121098000Y-92897000D01*
X121158000Y-90237000D02*
X121098000Y-90237000D01*
X121158000Y-92897000D02*
X121098000Y-92897000D01*
X121158000Y-90237000D02*
X121158000Y-92897000D01*
X122428000Y-90237000D02*
X123758000Y-90237000D01*
X123758000Y-90237000D02*
X123758000Y-91567000D01*
X122728000Y-88227000D02*
X123228000Y-88227000D01*
X123228000Y-87287000D02*
X122728000Y-87287000D01*
X122686000Y-80099000D02*
X123186000Y-80099000D01*
X123186000Y-79159000D02*
X122686000Y-79159000D01*
X124083000Y-79083000D02*
X124583000Y-79083000D01*
X124583000Y-78143000D02*
X124083000Y-78143000D01*
D11*
X125367000Y-79708000D02*
X126117000Y-79708000D01*
X130617000Y-84958000D02*
X129867000Y-84958000D01*
X130617000Y-79708000D02*
X129867000Y-79708000D01*
X125367000Y-84958000D02*
X125367000Y-84208000D01*
X130617000Y-84958000D02*
X130617000Y-84208000D01*
X130617000Y-79708000D02*
X130617000Y-80458000D01*
X125367000Y-79708000D02*
X125367000Y-80458000D01*
D12*
X120628000Y-80993000D02*
X120628000Y-86893000D01*
X120628000Y-86893000D02*
X124228000Y-86893000D01*
X124228000Y-86893000D02*
X124228000Y-80993000D01*
X129925000Y-86703000D02*
X130425000Y-86703000D01*
X130425000Y-85763000D02*
X129925000Y-85763000D01*
X126107001Y-85763000D02*
X125607001Y-85763000D01*
X125607001Y-86703000D02*
X126107001Y-86703000D01*
X129502000Y-96389000D02*
X129502000Y-95889000D01*
X128562000Y-95889000D02*
X128562000Y-96389000D01*
X127470000Y-95373000D02*
X127470000Y-94873000D01*
X126530000Y-94873000D02*
X126530000Y-95373000D01*
X121619200Y-96863000D02*
X122119200Y-96863000D01*
X122119200Y-95923000D02*
X121619200Y-95923000D01*
X121958000Y-94619000D02*
X121958000Y-95119000D01*
X122898000Y-95119000D02*
X122898000Y-94619000D01*
X122119200Y-92874999D02*
X121619200Y-92874999D01*
X121619200Y-93814999D02*
X122119200Y-93814999D01*
X129340800Y-94831000D02*
X129840800Y-94831000D01*
X129840800Y-93891000D02*
X129340800Y-93891000D01*
X129340800Y-93688000D02*
X129840800Y-93688000D01*
X129840800Y-92748000D02*
X129340800Y-92748000D01*
X127470000Y-91817000D02*
X127470000Y-91317000D01*
X126530000Y-91317000D02*
X126530000Y-91817000D01*
X129502001Y-91690000D02*
X129502001Y-91190000D01*
X128562001Y-91190000D02*
X128562001Y-91690000D01*
X103323200Y-92874999D02*
X102823200Y-92874999D01*
X102823200Y-93814999D02*
X103323200Y-93814999D01*
X103162000Y-94619000D02*
X103162000Y-95119000D01*
X104102000Y-95119000D02*
X104102000Y-94619000D01*
X110544800Y-94831000D02*
X111044800Y-94831000D01*
X111044800Y-93891000D02*
X110544800Y-93891000D01*
X110706001Y-91690000D02*
X110706001Y-91190000D01*
X109766001Y-91190000D02*
X109766001Y-91690000D01*
X107920600Y-92874999D02*
X107420600Y-92874999D01*
X107420600Y-93814999D02*
X107920600Y-93814999D01*
X108674000Y-95373000D02*
X108674000Y-94873000D01*
X107734000Y-94873000D02*
X107734000Y-95373000D01*
X102823200Y-96863000D02*
X103323200Y-96863000D01*
X103323200Y-95923000D02*
X102823200Y-95923000D01*
X110706000Y-96389000D02*
X110706000Y-95889000D01*
X109766000Y-95889000D02*
X109766000Y-96389000D01*
X110544800Y-93688000D02*
X111044800Y-93688000D01*
X111044800Y-92748000D02*
X110544800Y-92748000D01*
X108674000Y-91817000D02*
X108674000Y-91317000D01*
X107734000Y-91317000D02*
X107734000Y-91817000D01*
X110706001Y-89404000D02*
X110706001Y-88904000D01*
X109766001Y-88904000D02*
X109766001Y-89404000D01*
X110544799Y-87973000D02*
X111044799Y-87973000D01*
X111044799Y-87033000D02*
X110544799Y-87033000D01*
X108674000Y-89531000D02*
X108674000Y-89031000D01*
X107734000Y-89031000D02*
X107734000Y-89531000D01*
X102302000Y-90237000D02*
X102302000Y-92897000D01*
X102362000Y-90237000D02*
X102302000Y-90237000D01*
X102362000Y-92897000D02*
X102302000Y-92897000D01*
X102362000Y-90237000D02*
X102362000Y-92897000D01*
X103632000Y-90237000D02*
X104962000Y-90237000D01*
X104962000Y-90237000D02*
X104962000Y-91567000D01*
X111129000Y-86703000D02*
X111629000Y-86703000D01*
X111629000Y-85763000D02*
X111129000Y-85763000D01*
X105287000Y-79083000D02*
X105787000Y-79083000D01*
X105787000Y-78143000D02*
X105287000Y-78143000D01*
X107895200Y-87033000D02*
X107395200Y-87033000D01*
X107395200Y-87973000D02*
X107895200Y-87973000D01*
X103932000Y-88227000D02*
X104432000Y-88227000D01*
X104432000Y-87287000D02*
X103932000Y-87287000D01*
X103890000Y-80099000D02*
X104390000Y-80099000D01*
X104390000Y-79159000D02*
X103890000Y-79159000D01*
X107311001Y-85763000D02*
X106811001Y-85763000D01*
X106811001Y-86703000D02*
X107311001Y-86703000D01*
D11*
X106571000Y-79708000D02*
X107321000Y-79708000D01*
X111821000Y-84958000D02*
X111071000Y-84958000D01*
X111821000Y-79708000D02*
X111071000Y-79708000D01*
X106571000Y-84958000D02*
X106571000Y-84208000D01*
X111821000Y-84958000D02*
X111821000Y-84208000D01*
X111821000Y-79708000D02*
X111821000Y-80458000D01*
X106571000Y-79708000D02*
X106571000Y-80458000D01*
D12*
X101832000Y-80993000D02*
X101832000Y-86893000D01*
X101832000Y-86893000D02*
X105432000Y-86893000D01*
X105432000Y-86893000D02*
X105432000Y-80993000D01*
X102302000Y-66361000D02*
X102302000Y-69021000D01*
X102362000Y-66361000D02*
X102302000Y-66361000D01*
X102362000Y-69021000D02*
X102302000Y-69021000D01*
X102362000Y-66361000D02*
X102362000Y-69021000D01*
X103632000Y-66361000D02*
X104962000Y-66361000D01*
X104962000Y-66361000D02*
X104962000Y-67691000D01*
X103323200Y-68998999D02*
X102823200Y-68998999D01*
X102823200Y-69938999D02*
X103323200Y-69938999D01*
X102823200Y-72987000D02*
X103323200Y-72987000D01*
X103323200Y-72047000D02*
X102823200Y-72047000D01*
X110706000Y-72513000D02*
X110706000Y-72013000D01*
X109766000Y-72013000D02*
X109766000Y-72513000D01*
X107920600Y-68998999D02*
X107420600Y-68998999D01*
X107420600Y-69938999D02*
X107920600Y-69938999D01*
X110544800Y-69812000D02*
X111044800Y-69812000D01*
X111044800Y-68872000D02*
X110544800Y-68872000D01*
X108674000Y-65655000D02*
X108674000Y-65155000D01*
X107734000Y-65155000D02*
X107734000Y-65655000D01*
X110706001Y-65528000D02*
X110706001Y-65028000D01*
X109766001Y-65028000D02*
X109766001Y-65528000D01*
X107311001Y-61887000D02*
X106811001Y-61887000D01*
X106811001Y-62827000D02*
X107311001Y-62827000D01*
X111129000Y-62827000D02*
X111629000Y-62827000D01*
X111629000Y-61887000D02*
X111129000Y-61887000D01*
X103162000Y-70743000D02*
X103162000Y-71243000D01*
X104102000Y-71243000D02*
X104102000Y-70743000D01*
X108674000Y-71497000D02*
X108674000Y-70997000D01*
X107734000Y-70997000D02*
X107734000Y-71497000D01*
X110544800Y-70955000D02*
X111044800Y-70955000D01*
X111044800Y-70015000D02*
X110544800Y-70015000D01*
X108674000Y-67941000D02*
X108674000Y-67441000D01*
X107734000Y-67441000D02*
X107734000Y-67941000D01*
X110706001Y-67814000D02*
X110706001Y-67314000D01*
X109766001Y-67314000D02*
X109766001Y-67814000D01*
X107895200Y-63157000D02*
X107395200Y-63157000D01*
X107395200Y-64097000D02*
X107895200Y-64097000D01*
X110544799Y-64097000D02*
X111044799Y-64097000D01*
X111044799Y-63157000D02*
X110544799Y-63157000D01*
D11*
X106571000Y-55832000D02*
X107321000Y-55832000D01*
X111821000Y-61082000D02*
X111071000Y-61082000D01*
X111821000Y-55832000D02*
X111071000Y-55832000D01*
X106571000Y-61082000D02*
X106571000Y-60332000D01*
X111821000Y-61082000D02*
X111821000Y-60332000D01*
X111821000Y-55832000D02*
X111821000Y-56582000D01*
X106571000Y-55832000D02*
X106571000Y-56582000D01*
D12*
X101832000Y-57117000D02*
X101832000Y-63017000D01*
X101832000Y-63017000D02*
X105432000Y-63017000D01*
X105432000Y-63017000D02*
X105432000Y-57117000D01*
X103932000Y-64351000D02*
X104432000Y-64351000D01*
X104432000Y-63411000D02*
X103932000Y-63411000D01*
X103890000Y-56223000D02*
X104390000Y-56223000D01*
X104390000Y-55283000D02*
X103890000Y-55283000D01*
X105287000Y-55207000D02*
X105787000Y-55207000D01*
X105787000Y-54267000D02*
X105287000Y-54267000D01*
D11*
M02*
