M48
;DRILL file {KiCad 4.0.5+dfsg1-4} date Mon Jul 16 11:57:47 2018
;FORMAT={-:-/ absolute / inch / decimal}
FMAT,2
INCH,TZ
T1C0.025
T2C0.126
%
G90
G05
M72
T1
X4.545Y-2.08
X4.545Y-2.11
X4.545Y-2.14
X4.545Y-2.49
X4.545Y-2.52
X4.545Y-2.55
X4.545Y-2.815
X4.545Y-2.845
X4.545Y-2.875
X4.545Y-3.225
X4.545Y-3.255
X4.545Y-3.285
X4.545Y-3.55
X4.545Y-3.58
X4.545Y-3.61
X4.545Y-3.96
X4.545Y-3.99
X4.545Y-4.02
X4.545Y-4.285
X4.545Y-4.315
X4.545Y-4.345
X4.545Y-4.695
X4.545Y-4.725
X4.545Y-4.755
X4.545Y-5.02
X4.545Y-5.05
X4.545Y-5.08
X4.545Y-5.43
X4.545Y-5.46
X4.545Y-5.49
X4.605Y-2.08
X4.605Y-2.11
X4.605Y-2.14
X4.605Y-2.49
X4.605Y-2.52
X4.605Y-2.55
X4.605Y-2.815
X4.605Y-2.845
X4.605Y-2.875
X4.605Y-3.225
X4.605Y-3.255
X4.605Y-3.285
X4.605Y-3.55
X4.605Y-3.58
X4.605Y-3.61
X4.605Y-3.96
X4.605Y-3.99
X4.605Y-4.02
X4.605Y-4.285
X4.605Y-4.315
X4.605Y-4.345
X4.605Y-4.695
X4.605Y-4.725
X4.605Y-4.755
X4.605Y-5.02
X4.605Y-5.05
X4.605Y-5.08
X4.605Y-5.43
X4.605Y-5.46
X4.605Y-5.49
X5.385Y-2.08
X5.385Y-2.11
X5.385Y-2.14
X5.385Y-2.49
X5.385Y-2.52
X5.385Y-2.55
X5.385Y-2.815
X5.385Y-2.845
X5.385Y-2.875
X5.385Y-3.225
X5.385Y-3.255
X5.385Y-3.285
X5.385Y-3.55
X5.385Y-3.58
X5.385Y-3.61
X5.385Y-3.96
X5.385Y-3.99
X5.385Y-4.02
X5.385Y-4.285
X5.385Y-4.315
X5.385Y-4.345
X5.385Y-4.695
X5.385Y-4.725
X5.385Y-4.755
X5.385Y-5.02
X5.385Y-5.05
X5.385Y-5.08
X5.385Y-5.43
X5.385Y-5.46
X5.385Y-5.49
X5.445Y-2.08
X5.445Y-2.11
X5.445Y-2.14
X5.445Y-2.49
X5.445Y-2.52
X5.445Y-2.55
X5.445Y-2.815
X5.445Y-2.845
X5.445Y-2.875
X5.445Y-3.225
X5.445Y-3.255
X5.445Y-3.285
X5.445Y-3.55
X5.445Y-3.58
X5.445Y-3.61
X5.445Y-3.96
X5.445Y-3.99
X5.445Y-4.02
X5.445Y-4.285
X5.445Y-4.315
X5.445Y-4.345
X5.445Y-4.695
X5.445Y-4.725
X5.445Y-4.755
X5.445Y-5.02
X5.445Y-5.05
X5.445Y-5.08
X5.445Y-5.43
X5.445Y-5.46
X5.445Y-5.49
X6.225Y-2.08
X6.225Y-2.11
X6.225Y-2.14
X6.225Y-2.49
X6.225Y-2.52
X6.225Y-2.55
X6.225Y-2.815
X6.225Y-2.845
X6.225Y-2.875
X6.225Y-3.225
X6.225Y-3.255
X6.225Y-3.285
X6.225Y-3.55
X6.225Y-3.58
X6.225Y-3.61
X6.225Y-3.96
X6.225Y-3.99
X6.225Y-4.02
X6.225Y-4.285
X6.225Y-4.315
X6.225Y-4.345
X6.225Y-4.695
X6.225Y-4.725
X6.225Y-4.755
X6.225Y-5.02
X6.225Y-5.05
X6.225Y-5.08
X6.225Y-5.43
X6.225Y-5.46
X6.225Y-5.49
X6.285Y-2.08
X6.285Y-2.11
X6.285Y-2.14
X6.285Y-2.49
X6.285Y-2.52
X6.285Y-2.55
X6.285Y-2.815
X6.285Y-2.845
X6.285Y-2.875
X6.285Y-3.225
X6.285Y-3.255
X6.285Y-3.285
X6.285Y-3.55
X6.285Y-3.58
X6.285Y-3.61
X6.285Y-3.96
X6.285Y-3.99
X6.285Y-4.02
X6.285Y-4.285
X6.285Y-4.315
X6.285Y-4.345
X6.285Y-4.695
X6.285Y-4.725
X6.285Y-4.755
X6.285Y-5.02
X6.285Y-5.05
X6.285Y-5.08
X6.285Y-5.43
X6.285Y-5.46
X6.285Y-5.49
X7.065Y-2.08
X7.065Y-2.11
X7.065Y-2.14
X7.065Y-2.49
X7.065Y-2.52
X7.065Y-2.55
X7.065Y-2.815
X7.065Y-2.845
X7.065Y-2.875
X7.065Y-3.225
X7.065Y-3.255
X7.065Y-3.285
X7.065Y-3.55
X7.065Y-3.58
X7.065Y-3.61
X7.065Y-3.96
X7.065Y-3.99
X7.065Y-4.02
X7.065Y-4.285
X7.065Y-4.315
X7.065Y-4.345
X7.065Y-4.695
X7.065Y-4.725
X7.065Y-4.755
X7.065Y-5.02
X7.065Y-5.05
X7.065Y-5.08
X7.065Y-5.43
X7.065Y-5.46
X7.065Y-5.49
X7.125Y-2.08
X7.125Y-2.11
X7.125Y-2.14
X7.125Y-2.49
X7.125Y-2.52
X7.125Y-2.55
X7.125Y-2.815
X7.125Y-2.845
X7.125Y-2.875
X7.125Y-3.225
X7.125Y-3.255
X7.125Y-3.285
X7.125Y-3.55
X7.125Y-3.58
X7.125Y-3.61
X7.125Y-3.96
X7.125Y-3.99
X7.125Y-4.02
X7.125Y-4.285
X7.125Y-4.315
X7.125Y-4.345
X7.125Y-4.695
X7.125Y-4.725
X7.125Y-4.755
X7.125Y-5.02
X7.125Y-5.05
X7.125Y-5.08
X7.125Y-5.43
X7.125Y-5.46
X7.125Y-5.49
T2
X4.375Y-2.3075
X4.375Y-5.2625
X7.295Y-2.3075
X7.295Y-5.2625
T0
M30
