M48
;DRILL file {KiCad 4.0.5+dfsg1-4} date Mon Jul 16 11:57:47 2018
;FORMAT={-:-/ absolute / inch / decimal}
FMAT,2
INCH,TZ
T1C0.016
T2C0.039
%
G90
G05
M72
T1
X4.75Y-2.425
X4.75Y-3.16
X4.75Y-3.895
X4.75Y-4.63
X4.75Y-5.365
X4.775Y-2.4
X4.775Y-3.135
X4.775Y-3.87
X4.775Y-4.605
X4.775Y-5.34
X4.795Y-2.195
X4.795Y-2.93
X4.795Y-3.665
X4.795Y-4.4
X4.795Y-5.135
X4.8558Y-2.4008
X4.8558Y-3.1358
X4.8558Y-3.8708
X4.8558Y-4.6058
X4.8558Y-5.3408
X4.915Y-2.285
X4.915Y-3.02
X4.915Y-3.755
X4.915Y-4.49
X4.915Y-5.225
X4.93Y-2.115
X4.93Y-2.3481
X4.93Y-2.85
X4.93Y-3.0831
X4.93Y-3.585
X4.93Y-3.8181
X4.93Y-4.32
X4.93Y-4.5531
X4.93Y-5.055
X4.93Y-5.2881
X4.934Y-2.3957
X4.934Y-3.1307
X4.934Y-3.8657
X4.934Y-4.6007
X4.934Y-5.3357
X4.9565Y-2.2803
X4.9565Y-3.0153
X4.9565Y-3.7503
X4.9565Y-4.4853
X4.9565Y-5.2203
X4.97Y-2.16
X4.97Y-2.895
X4.97Y-3.63
X4.97Y-4.365
X4.97Y-5.1
X5.015Y-2.165
X5.015Y-2.9
X5.015Y-3.635
X5.015Y-4.37
X5.015Y-5.105
X5.0185Y-2.3146
X5.0185Y-3.0496
X5.0185Y-3.7846
X5.0185Y-4.5196
X5.0185Y-5.2546
X5.0274Y-2.035
X5.0274Y-2.77
X5.0274Y-3.505
X5.0274Y-4.24
X5.0274Y-4.975
X5.0289Y-2.095
X5.0289Y-2.83
X5.0289Y-3.565
X5.0289Y-4.3
X5.0289Y-5.035
X5.0414Y-2.38
X5.0414Y-3.115
X5.0414Y-3.85
X5.0414Y-4.585
X5.0414Y-5.32
X5.0439Y-2.3308
X5.0439Y-3.0658
X5.0439Y-3.8008
X5.0439Y-4.5358
X5.0439Y-5.2708
X5.135Y-2.415
X5.135Y-3.15
X5.135Y-3.885
X5.135Y-4.62
X5.135Y-5.355
X5.215Y-2.23
X5.215Y-2.965
X5.215Y-3.7
X5.215Y-4.435
X5.215Y-5.17
X5.2158Y-2.2644
X5.2158Y-2.9994
X5.2158Y-3.7344
X5.2158Y-4.4694
X5.2158Y-5.2044
X5.59Y-2.425
X5.59Y-3.16
X5.59Y-3.895
X5.59Y-4.63
X5.59Y-5.365
X5.615Y-2.4
X5.615Y-3.135
X5.615Y-3.87
X5.615Y-4.605
X5.615Y-5.34
X5.635Y-2.195
X5.635Y-2.93
X5.635Y-3.665
X5.635Y-4.4
X5.635Y-5.135
X5.6958Y-2.4008
X5.6958Y-3.1358
X5.6958Y-3.8708
X5.6958Y-4.6058
X5.6958Y-5.3408
X5.755Y-2.285
X5.755Y-3.02
X5.755Y-3.755
X5.755Y-4.49
X5.755Y-5.225
X5.77Y-2.115
X5.77Y-2.3481
X5.77Y-2.85
X5.77Y-3.0831
X5.77Y-3.585
X5.77Y-3.8181
X5.77Y-4.32
X5.77Y-4.5531
X5.77Y-5.055
X5.77Y-5.2881
X5.774Y-2.3957
X5.774Y-3.1307
X5.774Y-3.8657
X5.774Y-4.6007
X5.774Y-5.3357
X5.7965Y-2.2803
X5.7965Y-3.0153
X5.7965Y-3.7503
X5.7965Y-4.4853
X5.7965Y-5.2203
X5.81Y-2.16
X5.81Y-2.895
X5.81Y-3.63
X5.81Y-4.365
X5.81Y-5.1
X5.855Y-2.165
X5.855Y-2.9
X5.855Y-3.635
X5.855Y-4.37
X5.855Y-5.105
X5.8585Y-2.3146
X5.8585Y-3.0496
X5.8585Y-3.7846
X5.8585Y-4.5196
X5.8585Y-5.2546
X5.8674Y-2.035
X5.8674Y-2.77
X5.8674Y-3.505
X5.8674Y-4.24
X5.8674Y-4.975
X5.8689Y-2.095
X5.8689Y-2.83
X5.8689Y-3.565
X5.8689Y-4.3
X5.8689Y-5.035
X5.8814Y-2.38
X5.8814Y-3.115
X5.8814Y-3.85
X5.8814Y-4.585
X5.8814Y-5.32
X5.8839Y-2.3308
X5.8839Y-3.0658
X5.8839Y-3.8008
X5.8839Y-4.5358
X5.8839Y-5.2708
X5.975Y-2.415
X5.975Y-3.15
X5.975Y-3.885
X5.975Y-4.62
X5.975Y-5.355
X6.055Y-2.23
X6.055Y-2.965
X6.055Y-3.7
X6.055Y-4.435
X6.055Y-5.17
X6.0558Y-2.2644
X6.0558Y-2.9994
X6.0558Y-3.7344
X6.0558Y-4.4694
X6.0558Y-5.2044
X6.43Y-2.425
X6.43Y-3.16
X6.43Y-3.895
X6.43Y-4.63
X6.43Y-5.365
X6.455Y-2.4
X6.455Y-3.135
X6.455Y-3.87
X6.455Y-4.605
X6.455Y-5.34
X6.475Y-2.195
X6.475Y-2.93
X6.475Y-3.665
X6.475Y-4.4
X6.475Y-5.135
X6.5358Y-2.4008
X6.5358Y-3.1358
X6.5358Y-3.8708
X6.5358Y-4.6058
X6.5358Y-5.3408
X6.595Y-2.285
X6.595Y-3.02
X6.595Y-3.755
X6.595Y-4.49
X6.595Y-5.225
X6.61Y-2.115
X6.61Y-2.3481
X6.61Y-2.85
X6.61Y-3.0831
X6.61Y-3.585
X6.61Y-3.8181
X6.61Y-4.32
X6.61Y-4.5531
X6.61Y-5.055
X6.61Y-5.2881
X6.614Y-2.3957
X6.614Y-3.1307
X6.614Y-3.8657
X6.614Y-4.6007
X6.614Y-5.3357
X6.6365Y-2.2803
X6.6365Y-3.0153
X6.6365Y-3.7503
X6.6365Y-4.4853
X6.6365Y-5.2203
X6.65Y-2.16
X6.65Y-2.895
X6.65Y-3.63
X6.65Y-4.365
X6.65Y-5.1
X6.695Y-2.165
X6.695Y-2.9
X6.695Y-3.635
X6.695Y-4.37
X6.695Y-5.105
X6.6985Y-2.3146
X6.6985Y-3.0496
X6.6985Y-3.7846
X6.6985Y-4.5196
X6.6985Y-5.2546
X6.7074Y-2.035
X6.7074Y-2.77
X6.7074Y-3.505
X6.7074Y-4.24
X6.7074Y-4.975
X6.7089Y-2.095
X6.7089Y-2.83
X6.7089Y-3.565
X6.7089Y-4.3
X6.7089Y-5.035
X6.7214Y-2.38
X6.7214Y-3.115
X6.7214Y-3.85
X6.7214Y-4.585
X6.7214Y-5.32
X6.7239Y-2.3308
X6.7239Y-3.0658
X6.7239Y-3.8008
X6.7239Y-4.5358
X6.7239Y-5.2708
X6.815Y-2.415
X6.815Y-3.15
X6.815Y-3.885
X6.815Y-4.62
X6.815Y-5.355
X6.895Y-2.23
X6.895Y-2.965
X6.895Y-3.7
X6.895Y-4.435
X6.895Y-5.17
X6.8958Y-2.2644
X6.8958Y-2.9994
X6.8958Y-3.7344
X6.8958Y-4.4694
X6.8958Y-5.2044
T2
X4.695Y-2.065
X4.695Y-2.165
X4.695Y-2.265
X4.695Y-2.365
X4.695Y-2.465
X4.695Y-2.565
X4.695Y-2.8
X4.695Y-2.9
X4.695Y-3.
X4.695Y-3.1
X4.695Y-3.2
X4.695Y-3.3
X4.695Y-3.535
X4.695Y-3.635
X4.695Y-3.735
X4.695Y-3.835
X4.695Y-3.935
X4.695Y-4.035
X4.695Y-4.27
X4.695Y-4.37
X4.695Y-4.47
X4.695Y-4.57
X4.695Y-4.67
X4.695Y-4.77
X4.695Y-5.005
X4.695Y-5.105
X4.695Y-5.205
X4.695Y-5.305
X4.695Y-5.405
X4.695Y-5.505
X5.295Y-2.065
X5.295Y-2.165
X5.295Y-2.265
X5.295Y-2.365
X5.295Y-2.465
X5.295Y-2.565
X5.295Y-2.8
X5.295Y-2.9
X5.295Y-3.
X5.295Y-3.1
X5.295Y-3.2
X5.295Y-3.3
X5.295Y-3.535
X5.295Y-3.635
X5.295Y-3.735
X5.295Y-3.835
X5.295Y-3.935
X5.295Y-4.035
X5.295Y-4.27
X5.295Y-4.37
X5.295Y-4.47
X5.295Y-4.57
X5.295Y-4.67
X5.295Y-4.77
X5.295Y-5.005
X5.295Y-5.105
X5.295Y-5.205
X5.295Y-5.305
X5.295Y-5.405
X5.295Y-5.505
X5.535Y-2.065
X5.535Y-2.165
X5.535Y-2.265
X5.535Y-2.365
X5.535Y-2.465
X5.535Y-2.565
X5.535Y-2.8
X5.535Y-2.9
X5.535Y-3.
X5.535Y-3.1
X5.535Y-3.2
X5.535Y-3.3
X5.535Y-3.535
X5.535Y-3.635
X5.535Y-3.735
X5.535Y-3.835
X5.535Y-3.935
X5.535Y-4.035
X5.535Y-4.27
X5.535Y-4.37
X5.535Y-4.47
X5.535Y-4.57
X5.535Y-4.67
X5.535Y-4.77
X5.535Y-5.005
X5.535Y-5.105
X5.535Y-5.205
X5.535Y-5.305
X5.535Y-5.405
X5.535Y-5.505
X6.135Y-2.065
X6.135Y-2.165
X6.135Y-2.265
X6.135Y-2.365
X6.135Y-2.465
X6.135Y-2.565
X6.135Y-2.8
X6.135Y-2.9
X6.135Y-3.
X6.135Y-3.1
X6.135Y-3.2
X6.135Y-3.3
X6.135Y-3.535
X6.135Y-3.635
X6.135Y-3.735
X6.135Y-3.835
X6.135Y-3.935
X6.135Y-4.035
X6.135Y-4.27
X6.135Y-4.37
X6.135Y-4.47
X6.135Y-4.57
X6.135Y-4.67
X6.135Y-4.77
X6.135Y-5.005
X6.135Y-5.105
X6.135Y-5.205
X6.135Y-5.305
X6.135Y-5.405
X6.135Y-5.505
X6.375Y-2.065
X6.375Y-2.165
X6.375Y-2.265
X6.375Y-2.365
X6.375Y-2.465
X6.375Y-2.565
X6.375Y-2.8
X6.375Y-2.9
X6.375Y-3.
X6.375Y-3.1
X6.375Y-3.2
X6.375Y-3.3
X6.375Y-3.535
X6.375Y-3.635
X6.375Y-3.735
X6.375Y-3.835
X6.375Y-3.935
X6.375Y-4.035
X6.375Y-4.27
X6.375Y-4.37
X6.375Y-4.47
X6.375Y-4.57
X6.375Y-4.67
X6.375Y-4.77
X6.375Y-5.005
X6.375Y-5.105
X6.375Y-5.205
X6.375Y-5.305
X6.375Y-5.405
X6.375Y-5.505
X6.975Y-2.065
X6.975Y-2.165
X6.975Y-2.265
X6.975Y-2.365
X6.975Y-2.465
X6.975Y-2.565
X6.975Y-2.8
X6.975Y-2.9
X6.975Y-3.
X6.975Y-3.1
X6.975Y-3.2
X6.975Y-3.3
X6.975Y-3.535
X6.975Y-3.635
X6.975Y-3.735
X6.975Y-3.835
X6.975Y-3.935
X6.975Y-4.035
X6.975Y-4.27
X6.975Y-4.37
X6.975Y-4.47
X6.975Y-4.57
X6.975Y-4.67
X6.975Y-4.77
X6.975Y-5.005
X6.975Y-5.105
X6.975Y-5.205
X6.975Y-5.305
X6.975Y-5.405
X6.975Y-5.505
T0
M30
