G04 #@! TF.FileFunction,Legend,Top*
%FSLAX46Y46*%
G04 Gerber Fmt 4.6, Leading zero omitted, Abs format (unit mm)*
G04 Created by KiCad (PCBNEW 4.0.5+dfsg1-4) date Mon Jul 16 11:57:44 2018*
%MOMM*%
%LPD*%
G01*
G04 APERTURE LIST*
%ADD10C,0.100000*%
%ADD11C,0.150000*%
%ADD12C,0.200000*%
%ADD13C,0.120000*%
G04 APERTURE END LIST*
D10*
D11*
X147064000Y-127044214D02*
X147314000Y-127401357D01*
X147492572Y-127044214D02*
X147492572Y-127794214D01*
X147206857Y-127794214D01*
X147135429Y-127758500D01*
X147099714Y-127722786D01*
X147064000Y-127651357D01*
X147064000Y-127544214D01*
X147099714Y-127472786D01*
X147135429Y-127437071D01*
X147206857Y-127401357D01*
X147492572Y-127401357D01*
X146814000Y-127794214D02*
X146314000Y-127044214D01*
X146314000Y-127794214D02*
X146814000Y-127044214D01*
X147510428Y-126519214D02*
X147081857Y-126519214D01*
X147296143Y-125769214D02*
X147296143Y-126519214D01*
X146903285Y-126519214D02*
X146403285Y-125769214D01*
X146403285Y-126519214D02*
X146903285Y-125769214D01*
X141773714Y-126384143D02*
X142523714Y-126384143D01*
X142523714Y-126538905D01*
X142488000Y-126631762D01*
X142416571Y-126693667D01*
X142345143Y-126724619D01*
X142202286Y-126755571D01*
X142095143Y-126755571D01*
X141952286Y-126724619D01*
X141880857Y-126693667D01*
X141809429Y-126631762D01*
X141773714Y-126538905D01*
X141773714Y-126384143D01*
X142523714Y-126941286D02*
X142523714Y-127312714D01*
X141773714Y-127127000D02*
X142523714Y-127127000D01*
X141773714Y-127900809D02*
X142130857Y-127684143D01*
X141773714Y-127529381D02*
X142523714Y-127529381D01*
X142523714Y-127777000D01*
X142488000Y-127838905D01*
X142452286Y-127869857D01*
X142380857Y-127900809D01*
X142273714Y-127900809D01*
X142202286Y-127869857D01*
X142166571Y-127838905D01*
X142130857Y-127777000D01*
X142130857Y-127529381D01*
X141773714Y-129431190D02*
X142130857Y-129214524D01*
X141773714Y-129059762D02*
X142523714Y-129059762D01*
X142523714Y-129307381D01*
X142488000Y-129369286D01*
X142452286Y-129400238D01*
X142380857Y-129431190D01*
X142273714Y-129431190D01*
X142202286Y-129400238D01*
X142166571Y-129369286D01*
X142130857Y-129307381D01*
X142130857Y-129059762D01*
X142523714Y-129647857D02*
X141773714Y-130081190D01*
X142523714Y-130081190D02*
X141773714Y-129647857D01*
X125728000Y-127044214D02*
X125978000Y-127401357D01*
X126156572Y-127044214D02*
X126156572Y-127794214D01*
X125870857Y-127794214D01*
X125799429Y-127758500D01*
X125763714Y-127722786D01*
X125728000Y-127651357D01*
X125728000Y-127544214D01*
X125763714Y-127472786D01*
X125799429Y-127437071D01*
X125870857Y-127401357D01*
X126156572Y-127401357D01*
X125478000Y-127794214D02*
X124978000Y-127044214D01*
X124978000Y-127794214D02*
X125478000Y-127044214D01*
X126174428Y-126519214D02*
X125745857Y-126519214D01*
X125960143Y-125769214D02*
X125960143Y-126519214D01*
X125567285Y-126519214D02*
X125067285Y-125769214D01*
X125067285Y-126519214D02*
X125567285Y-125769214D01*
X132629714Y-126646762D02*
X133379714Y-126646762D01*
X132629714Y-127018190D01*
X133379714Y-127018190D01*
X132701143Y-127699142D02*
X132665429Y-127668190D01*
X132629714Y-127575333D01*
X132629714Y-127513428D01*
X132665429Y-127420571D01*
X132736857Y-127358666D01*
X132808286Y-127327714D01*
X132951143Y-127296762D01*
X133058286Y-127296762D01*
X133201143Y-127327714D01*
X133272571Y-127358666D01*
X133344000Y-127420571D01*
X133379714Y-127513428D01*
X133379714Y-127575333D01*
X133344000Y-127668190D01*
X133308286Y-127699142D01*
D12*
X132969000Y-128143000D02*
X132969000Y-140589000D01*
D11*
X121152000Y-139306238D02*
X121187714Y-139244333D01*
X121187714Y-139151476D01*
X121152000Y-139058619D01*
X121080571Y-138996714D01*
X121009143Y-138965762D01*
X120866286Y-138934810D01*
X120759143Y-138934810D01*
X120616286Y-138965762D01*
X120544857Y-138996714D01*
X120473429Y-139058619D01*
X120437714Y-139151476D01*
X120437714Y-139213381D01*
X120473429Y-139306238D01*
X120509143Y-139337190D01*
X120759143Y-139337190D01*
X120759143Y-139213381D01*
X120437714Y-139615762D02*
X121187714Y-139615762D01*
X120437714Y-139987190D01*
X121187714Y-139987190D01*
X120437714Y-140296714D02*
X121187714Y-140296714D01*
X121187714Y-140451476D01*
X121152000Y-140544333D01*
X121080571Y-140606238D01*
X121009143Y-140637190D01*
X120866286Y-140668142D01*
X120759143Y-140668142D01*
X120616286Y-140637190D01*
X120544857Y-140606238D01*
X120473429Y-140544333D01*
X120437714Y-140451476D01*
X120437714Y-140296714D01*
X120509143Y-136924190D02*
X120473429Y-136893238D01*
X120437714Y-136800381D01*
X120437714Y-136738476D01*
X120473429Y-136645619D01*
X120544857Y-136583714D01*
X120616286Y-136552762D01*
X120759143Y-136521810D01*
X120866286Y-136521810D01*
X121009143Y-136552762D01*
X121080571Y-136583714D01*
X121152000Y-136645619D01*
X121187714Y-136738476D01*
X121187714Y-136800381D01*
X121152000Y-136893238D01*
X121116286Y-136924190D01*
X121187714Y-137109905D02*
X121187714Y-137481333D01*
X120437714Y-137295619D02*
X121187714Y-137295619D01*
X120473429Y-137667048D02*
X120437714Y-137759905D01*
X120437714Y-137914667D01*
X120473429Y-137976571D01*
X120509143Y-138007524D01*
X120580571Y-138038476D01*
X120652000Y-138038476D01*
X120723429Y-138007524D01*
X120759143Y-137976571D01*
X120794857Y-137914667D01*
X120830571Y-137790857D01*
X120866286Y-137728952D01*
X120902000Y-137698000D01*
X120973429Y-137667048D01*
X121044857Y-137667048D01*
X121116286Y-137698000D01*
X121152000Y-137728952D01*
X121187714Y-137790857D01*
X121187714Y-137945619D01*
X121152000Y-138038476D01*
X120437714Y-126384143D02*
X121187714Y-126384143D01*
X121187714Y-126538905D01*
X121152000Y-126631762D01*
X121080571Y-126693667D01*
X121009143Y-126724619D01*
X120866286Y-126755571D01*
X120759143Y-126755571D01*
X120616286Y-126724619D01*
X120544857Y-126693667D01*
X120473429Y-126631762D01*
X120437714Y-126538905D01*
X120437714Y-126384143D01*
X121187714Y-126941286D02*
X121187714Y-127312714D01*
X120437714Y-127127000D02*
X121187714Y-127127000D01*
X120437714Y-127900809D02*
X120794857Y-127684143D01*
X120437714Y-127529381D02*
X121187714Y-127529381D01*
X121187714Y-127777000D01*
X121152000Y-127838905D01*
X121116286Y-127869857D01*
X121044857Y-127900809D01*
X120937714Y-127900809D01*
X120866286Y-127869857D01*
X120830571Y-127838905D01*
X120794857Y-127777000D01*
X120794857Y-127529381D01*
X121187714Y-133950857D02*
X121187714Y-134353238D01*
X120902000Y-134136571D01*
X120902000Y-134229429D01*
X120866286Y-134291333D01*
X120830571Y-134322286D01*
X120759143Y-134353238D01*
X120580571Y-134353238D01*
X120509143Y-134322286D01*
X120473429Y-134291333D01*
X120437714Y-134229429D01*
X120437714Y-134043714D01*
X120473429Y-133981810D01*
X120509143Y-133950857D01*
X121187714Y-134538953D02*
X120437714Y-134755619D01*
X121187714Y-134972286D01*
X121187714Y-135127048D02*
X121187714Y-135529429D01*
X120902000Y-135312762D01*
X120902000Y-135405620D01*
X120866286Y-135467524D01*
X120830571Y-135498477D01*
X120759143Y-135529429D01*
X120580571Y-135529429D01*
X120509143Y-135498477D01*
X120473429Y-135467524D01*
X120437714Y-135405620D01*
X120437714Y-135219905D01*
X120473429Y-135158001D01*
X120509143Y-135127048D01*
X121187714Y-131633905D02*
X121187714Y-132005333D01*
X120437714Y-131819619D02*
X121187714Y-131819619D01*
X121187714Y-132160095D02*
X120437714Y-132593428D01*
X121187714Y-132593428D02*
X120437714Y-132160095D01*
X120437714Y-129431190D02*
X120794857Y-129214524D01*
X120437714Y-129059762D02*
X121187714Y-129059762D01*
X121187714Y-129307381D01*
X121152000Y-129369286D01*
X121116286Y-129400238D01*
X121044857Y-129431190D01*
X120937714Y-129431190D01*
X120866286Y-129400238D01*
X120830571Y-129369286D01*
X120794857Y-129307381D01*
X120794857Y-129059762D01*
X121187714Y-129647857D02*
X120437714Y-130081190D01*
X121187714Y-130081190D02*
X120437714Y-129647857D01*
X163181143Y-136924190D02*
X163145429Y-136893238D01*
X163109714Y-136800381D01*
X163109714Y-136738476D01*
X163145429Y-136645619D01*
X163216857Y-136583714D01*
X163288286Y-136552762D01*
X163431143Y-136521810D01*
X163538286Y-136521810D01*
X163681143Y-136552762D01*
X163752571Y-136583714D01*
X163824000Y-136645619D01*
X163859714Y-136738476D01*
X163859714Y-136800381D01*
X163824000Y-136893238D01*
X163788286Y-136924190D01*
X163859714Y-137109905D02*
X163859714Y-137481333D01*
X163109714Y-137295619D02*
X163859714Y-137295619D01*
X163145429Y-137667048D02*
X163109714Y-137759905D01*
X163109714Y-137914667D01*
X163145429Y-137976571D01*
X163181143Y-138007524D01*
X163252571Y-138038476D01*
X163324000Y-138038476D01*
X163395429Y-138007524D01*
X163431143Y-137976571D01*
X163466857Y-137914667D01*
X163502571Y-137790857D01*
X163538286Y-137728952D01*
X163574000Y-137698000D01*
X163645429Y-137667048D01*
X163716857Y-137667048D01*
X163788286Y-137698000D01*
X163824000Y-137728952D01*
X163859714Y-137790857D01*
X163859714Y-137945619D01*
X163824000Y-138038476D01*
X163824000Y-139306238D02*
X163859714Y-139244333D01*
X163859714Y-139151476D01*
X163824000Y-139058619D01*
X163752571Y-138996714D01*
X163681143Y-138965762D01*
X163538286Y-138934810D01*
X163431143Y-138934810D01*
X163288286Y-138965762D01*
X163216857Y-138996714D01*
X163145429Y-139058619D01*
X163109714Y-139151476D01*
X163109714Y-139213381D01*
X163145429Y-139306238D01*
X163181143Y-139337190D01*
X163431143Y-139337190D01*
X163431143Y-139213381D01*
X163109714Y-139615762D02*
X163859714Y-139615762D01*
X163109714Y-139987190D01*
X163859714Y-139987190D01*
X163109714Y-140296714D02*
X163859714Y-140296714D01*
X163859714Y-140451476D01*
X163824000Y-140544333D01*
X163752571Y-140606238D01*
X163681143Y-140637190D01*
X163538286Y-140668142D01*
X163431143Y-140668142D01*
X163288286Y-140637190D01*
X163216857Y-140606238D01*
X163145429Y-140544333D01*
X163109714Y-140451476D01*
X163109714Y-140296714D01*
X168400000Y-127044214D02*
X168650000Y-127401357D01*
X168828572Y-127044214D02*
X168828572Y-127794214D01*
X168542857Y-127794214D01*
X168471429Y-127758500D01*
X168435714Y-127722786D01*
X168400000Y-127651357D01*
X168400000Y-127544214D01*
X168435714Y-127472786D01*
X168471429Y-127437071D01*
X168542857Y-127401357D01*
X168828572Y-127401357D01*
X168150000Y-127794214D02*
X167650000Y-127044214D01*
X167650000Y-127794214D02*
X168150000Y-127044214D01*
X168846428Y-126519214D02*
X168417857Y-126519214D01*
X168632143Y-125769214D02*
X168632143Y-126519214D01*
X168239285Y-126519214D02*
X167739285Y-125769214D01*
X167739285Y-126519214D02*
X168239285Y-125769214D01*
D12*
X175641000Y-128143000D02*
X175641000Y-140589000D01*
D11*
X175301714Y-126646762D02*
X176051714Y-126646762D01*
X175301714Y-127018190D01*
X176051714Y-127018190D01*
X175373143Y-127699142D02*
X175337429Y-127668190D01*
X175301714Y-127575333D01*
X175301714Y-127513428D01*
X175337429Y-127420571D01*
X175408857Y-127358666D01*
X175480286Y-127327714D01*
X175623143Y-127296762D01*
X175730286Y-127296762D01*
X175873143Y-127327714D01*
X175944571Y-127358666D01*
X176016000Y-127420571D01*
X176051714Y-127513428D01*
X176051714Y-127575333D01*
X176016000Y-127668190D01*
X175980286Y-127699142D01*
X142523714Y-131633905D02*
X142523714Y-132005333D01*
X141773714Y-131819619D02*
X142523714Y-131819619D01*
X142523714Y-132160095D02*
X141773714Y-132593428D01*
X142523714Y-132593428D02*
X141773714Y-132160095D01*
X142523714Y-133950857D02*
X142523714Y-134353238D01*
X142238000Y-134136571D01*
X142238000Y-134229429D01*
X142202286Y-134291333D01*
X142166571Y-134322286D01*
X142095143Y-134353238D01*
X141916571Y-134353238D01*
X141845143Y-134322286D01*
X141809429Y-134291333D01*
X141773714Y-134229429D01*
X141773714Y-134043714D01*
X141809429Y-133981810D01*
X141845143Y-133950857D01*
X142523714Y-134538953D02*
X141773714Y-134755619D01*
X142523714Y-134972286D01*
X142523714Y-135127048D02*
X142523714Y-135529429D01*
X142238000Y-135312762D01*
X142238000Y-135405620D01*
X142202286Y-135467524D01*
X142166571Y-135498477D01*
X142095143Y-135529429D01*
X141916571Y-135529429D01*
X141845143Y-135498477D01*
X141809429Y-135467524D01*
X141773714Y-135405620D01*
X141773714Y-135219905D01*
X141809429Y-135158001D01*
X141845143Y-135127048D01*
X141845143Y-136924190D02*
X141809429Y-136893238D01*
X141773714Y-136800381D01*
X141773714Y-136738476D01*
X141809429Y-136645619D01*
X141880857Y-136583714D01*
X141952286Y-136552762D01*
X142095143Y-136521810D01*
X142202286Y-136521810D01*
X142345143Y-136552762D01*
X142416571Y-136583714D01*
X142488000Y-136645619D01*
X142523714Y-136738476D01*
X142523714Y-136800381D01*
X142488000Y-136893238D01*
X142452286Y-136924190D01*
X142523714Y-137109905D02*
X142523714Y-137481333D01*
X141773714Y-137295619D02*
X142523714Y-137295619D01*
X141809429Y-137667048D02*
X141773714Y-137759905D01*
X141773714Y-137914667D01*
X141809429Y-137976571D01*
X141845143Y-138007524D01*
X141916571Y-138038476D01*
X141988000Y-138038476D01*
X142059429Y-138007524D01*
X142095143Y-137976571D01*
X142130857Y-137914667D01*
X142166571Y-137790857D01*
X142202286Y-137728952D01*
X142238000Y-137698000D01*
X142309429Y-137667048D01*
X142380857Y-137667048D01*
X142452286Y-137698000D01*
X142488000Y-137728952D01*
X142523714Y-137790857D01*
X142523714Y-137945619D01*
X142488000Y-138038476D01*
X142488000Y-139306238D02*
X142523714Y-139244333D01*
X142523714Y-139151476D01*
X142488000Y-139058619D01*
X142416571Y-138996714D01*
X142345143Y-138965762D01*
X142202286Y-138934810D01*
X142095143Y-138934810D01*
X141952286Y-138965762D01*
X141880857Y-138996714D01*
X141809429Y-139058619D01*
X141773714Y-139151476D01*
X141773714Y-139213381D01*
X141809429Y-139306238D01*
X141845143Y-139337190D01*
X142095143Y-139337190D01*
X142095143Y-139213381D01*
X141773714Y-139615762D02*
X142523714Y-139615762D01*
X141773714Y-139987190D01*
X142523714Y-139987190D01*
X141773714Y-140296714D02*
X142523714Y-140296714D01*
X142523714Y-140451476D01*
X142488000Y-140544333D01*
X142416571Y-140606238D01*
X142345143Y-140637190D01*
X142202286Y-140668142D01*
X142095143Y-140668142D01*
X141952286Y-140637190D01*
X141880857Y-140606238D01*
X141809429Y-140544333D01*
X141773714Y-140451476D01*
X141773714Y-140296714D01*
X163109714Y-129431190D02*
X163466857Y-129214524D01*
X163109714Y-129059762D02*
X163859714Y-129059762D01*
X163859714Y-129307381D01*
X163824000Y-129369286D01*
X163788286Y-129400238D01*
X163716857Y-129431190D01*
X163609714Y-129431190D01*
X163538286Y-129400238D01*
X163502571Y-129369286D01*
X163466857Y-129307381D01*
X163466857Y-129059762D01*
X163859714Y-129647857D02*
X163109714Y-130081190D01*
X163859714Y-130081190D02*
X163109714Y-129647857D01*
X163859714Y-131633905D02*
X163859714Y-132005333D01*
X163109714Y-131819619D02*
X163859714Y-131819619D01*
X163859714Y-132160095D02*
X163109714Y-132593428D01*
X163859714Y-132593428D02*
X163109714Y-132160095D01*
X163859714Y-133950857D02*
X163859714Y-134353238D01*
X163574000Y-134136571D01*
X163574000Y-134229429D01*
X163538286Y-134291333D01*
X163502571Y-134322286D01*
X163431143Y-134353238D01*
X163252571Y-134353238D01*
X163181143Y-134322286D01*
X163145429Y-134291333D01*
X163109714Y-134229429D01*
X163109714Y-134043714D01*
X163145429Y-133981810D01*
X163181143Y-133950857D01*
X163859714Y-134538953D02*
X163109714Y-134755619D01*
X163859714Y-134972286D01*
X163859714Y-135127048D02*
X163859714Y-135529429D01*
X163574000Y-135312762D01*
X163574000Y-135405620D01*
X163538286Y-135467524D01*
X163502571Y-135498477D01*
X163431143Y-135529429D01*
X163252571Y-135529429D01*
X163181143Y-135498477D01*
X163145429Y-135467524D01*
X163109714Y-135405620D01*
X163109714Y-135219905D01*
X163145429Y-135158001D01*
X163181143Y-135127048D01*
X163109714Y-126384143D02*
X163859714Y-126384143D01*
X163859714Y-126538905D01*
X163824000Y-126631762D01*
X163752571Y-126693667D01*
X163681143Y-126724619D01*
X163538286Y-126755571D01*
X163431143Y-126755571D01*
X163288286Y-126724619D01*
X163216857Y-126693667D01*
X163145429Y-126631762D01*
X163109714Y-126538905D01*
X163109714Y-126384143D01*
X163859714Y-126941286D02*
X163859714Y-127312714D01*
X163109714Y-127127000D02*
X163859714Y-127127000D01*
X163109714Y-127900809D02*
X163466857Y-127684143D01*
X163109714Y-127529381D02*
X163859714Y-127529381D01*
X163859714Y-127777000D01*
X163824000Y-127838905D01*
X163788286Y-127869857D01*
X163716857Y-127900809D01*
X163609714Y-127900809D01*
X163538286Y-127869857D01*
X163502571Y-127838905D01*
X163466857Y-127777000D01*
X163466857Y-127529381D01*
D12*
X154305000Y-128143000D02*
X154305000Y-140589000D01*
D11*
X153965714Y-126646762D02*
X154715714Y-126646762D01*
X153965714Y-127018190D01*
X154715714Y-127018190D01*
X154037143Y-127699142D02*
X154001429Y-127668190D01*
X153965714Y-127575333D01*
X153965714Y-127513428D01*
X154001429Y-127420571D01*
X154072857Y-127358666D01*
X154144286Y-127327714D01*
X154287143Y-127296762D01*
X154394286Y-127296762D01*
X154537143Y-127327714D01*
X154608571Y-127358666D01*
X154680000Y-127420571D01*
X154715714Y-127513428D01*
X154715714Y-127575333D01*
X154680000Y-127668190D01*
X154644286Y-127699142D01*
X125728000Y-108375214D02*
X125978000Y-108732357D01*
X126156572Y-108375214D02*
X126156572Y-109125214D01*
X125870857Y-109125214D01*
X125799429Y-109089500D01*
X125763714Y-109053786D01*
X125728000Y-108982357D01*
X125728000Y-108875214D01*
X125763714Y-108803786D01*
X125799429Y-108768071D01*
X125870857Y-108732357D01*
X126156572Y-108732357D01*
X125478000Y-109125214D02*
X124978000Y-108375214D01*
X124978000Y-109125214D02*
X125478000Y-108375214D01*
X126174428Y-107850214D02*
X125745857Y-107850214D01*
X125960143Y-107100214D02*
X125960143Y-107850214D01*
X125567285Y-107850214D02*
X125067285Y-107100214D01*
X125067285Y-107850214D02*
X125567285Y-107100214D01*
X120437714Y-107715143D02*
X121187714Y-107715143D01*
X121187714Y-107869905D01*
X121152000Y-107962762D01*
X121080571Y-108024667D01*
X121009143Y-108055619D01*
X120866286Y-108086571D01*
X120759143Y-108086571D01*
X120616286Y-108055619D01*
X120544857Y-108024667D01*
X120473429Y-107962762D01*
X120437714Y-107869905D01*
X120437714Y-107715143D01*
X121187714Y-108272286D02*
X121187714Y-108643714D01*
X120437714Y-108458000D02*
X121187714Y-108458000D01*
X120437714Y-109231809D02*
X120794857Y-109015143D01*
X120437714Y-108860381D02*
X121187714Y-108860381D01*
X121187714Y-109108000D01*
X121152000Y-109169905D01*
X121116286Y-109200857D01*
X121044857Y-109231809D01*
X120937714Y-109231809D01*
X120866286Y-109200857D01*
X120830571Y-109169905D01*
X120794857Y-109108000D01*
X120794857Y-108860381D01*
X121187714Y-115281857D02*
X121187714Y-115684238D01*
X120902000Y-115467571D01*
X120902000Y-115560429D01*
X120866286Y-115622333D01*
X120830571Y-115653286D01*
X120759143Y-115684238D01*
X120580571Y-115684238D01*
X120509143Y-115653286D01*
X120473429Y-115622333D01*
X120437714Y-115560429D01*
X120437714Y-115374714D01*
X120473429Y-115312810D01*
X120509143Y-115281857D01*
X121187714Y-115869953D02*
X120437714Y-116086619D01*
X121187714Y-116303286D01*
X121187714Y-116458048D02*
X121187714Y-116860429D01*
X120902000Y-116643762D01*
X120902000Y-116736620D01*
X120866286Y-116798524D01*
X120830571Y-116829477D01*
X120759143Y-116860429D01*
X120580571Y-116860429D01*
X120509143Y-116829477D01*
X120473429Y-116798524D01*
X120437714Y-116736620D01*
X120437714Y-116550905D01*
X120473429Y-116489001D01*
X120509143Y-116458048D01*
X121187714Y-112964905D02*
X121187714Y-113336333D01*
X120437714Y-113150619D02*
X121187714Y-113150619D01*
X121187714Y-113491095D02*
X120437714Y-113924428D01*
X121187714Y-113924428D02*
X120437714Y-113491095D01*
X120437714Y-110762190D02*
X120794857Y-110545524D01*
X120437714Y-110390762D02*
X121187714Y-110390762D01*
X121187714Y-110638381D01*
X121152000Y-110700286D01*
X121116286Y-110731238D01*
X121044857Y-110762190D01*
X120937714Y-110762190D01*
X120866286Y-110731238D01*
X120830571Y-110700286D01*
X120794857Y-110638381D01*
X120794857Y-110390762D01*
X121187714Y-110978857D02*
X120437714Y-111412190D01*
X121187714Y-111412190D02*
X120437714Y-110978857D01*
X121152000Y-120637238D02*
X121187714Y-120575333D01*
X121187714Y-120482476D01*
X121152000Y-120389619D01*
X121080571Y-120327714D01*
X121009143Y-120296762D01*
X120866286Y-120265810D01*
X120759143Y-120265810D01*
X120616286Y-120296762D01*
X120544857Y-120327714D01*
X120473429Y-120389619D01*
X120437714Y-120482476D01*
X120437714Y-120544381D01*
X120473429Y-120637238D01*
X120509143Y-120668190D01*
X120759143Y-120668190D01*
X120759143Y-120544381D01*
X120437714Y-120946762D02*
X121187714Y-120946762D01*
X120437714Y-121318190D01*
X121187714Y-121318190D01*
X120437714Y-121627714D02*
X121187714Y-121627714D01*
X121187714Y-121782476D01*
X121152000Y-121875333D01*
X121080571Y-121937238D01*
X121009143Y-121968190D01*
X120866286Y-121999142D01*
X120759143Y-121999142D01*
X120616286Y-121968190D01*
X120544857Y-121937238D01*
X120473429Y-121875333D01*
X120437714Y-121782476D01*
X120437714Y-121627714D01*
X120509143Y-118255190D02*
X120473429Y-118224238D01*
X120437714Y-118131381D01*
X120437714Y-118069476D01*
X120473429Y-117976619D01*
X120544857Y-117914714D01*
X120616286Y-117883762D01*
X120759143Y-117852810D01*
X120866286Y-117852810D01*
X121009143Y-117883762D01*
X121080571Y-117914714D01*
X121152000Y-117976619D01*
X121187714Y-118069476D01*
X121187714Y-118131381D01*
X121152000Y-118224238D01*
X121116286Y-118255190D01*
X121187714Y-118440905D02*
X121187714Y-118812333D01*
X120437714Y-118626619D02*
X121187714Y-118626619D01*
X120473429Y-118998048D02*
X120437714Y-119090905D01*
X120437714Y-119245667D01*
X120473429Y-119307571D01*
X120509143Y-119338524D01*
X120580571Y-119369476D01*
X120652000Y-119369476D01*
X120723429Y-119338524D01*
X120759143Y-119307571D01*
X120794857Y-119245667D01*
X120830571Y-119121857D01*
X120866286Y-119059952D01*
X120902000Y-119029000D01*
X120973429Y-118998048D01*
X121044857Y-118998048D01*
X121116286Y-119029000D01*
X121152000Y-119059952D01*
X121187714Y-119121857D01*
X121187714Y-119276619D01*
X121152000Y-119369476D01*
X132629714Y-107977762D02*
X133379714Y-107977762D01*
X132629714Y-108349190D01*
X133379714Y-108349190D01*
X132701143Y-109030142D02*
X132665429Y-108999190D01*
X132629714Y-108906333D01*
X132629714Y-108844428D01*
X132665429Y-108751571D01*
X132736857Y-108689666D01*
X132808286Y-108658714D01*
X132951143Y-108627762D01*
X133058286Y-108627762D01*
X133201143Y-108658714D01*
X133272571Y-108689666D01*
X133344000Y-108751571D01*
X133379714Y-108844428D01*
X133379714Y-108906333D01*
X133344000Y-108999190D01*
X133308286Y-109030142D01*
X142523714Y-112964905D02*
X142523714Y-113336333D01*
X141773714Y-113150619D02*
X142523714Y-113150619D01*
X142523714Y-113491095D02*
X141773714Y-113924428D01*
X142523714Y-113924428D02*
X141773714Y-113491095D01*
X141773714Y-107715143D02*
X142523714Y-107715143D01*
X142523714Y-107869905D01*
X142488000Y-107962762D01*
X142416571Y-108024667D01*
X142345143Y-108055619D01*
X142202286Y-108086571D01*
X142095143Y-108086571D01*
X141952286Y-108055619D01*
X141880857Y-108024667D01*
X141809429Y-107962762D01*
X141773714Y-107869905D01*
X141773714Y-107715143D01*
X142523714Y-108272286D02*
X142523714Y-108643714D01*
X141773714Y-108458000D02*
X142523714Y-108458000D01*
X141773714Y-109231809D02*
X142130857Y-109015143D01*
X141773714Y-108860381D02*
X142523714Y-108860381D01*
X142523714Y-109108000D01*
X142488000Y-109169905D01*
X142452286Y-109200857D01*
X142380857Y-109231809D01*
X142273714Y-109231809D01*
X142202286Y-109200857D01*
X142166571Y-109169905D01*
X142130857Y-109108000D01*
X142130857Y-108860381D01*
X141773714Y-110762190D02*
X142130857Y-110545524D01*
X141773714Y-110390762D02*
X142523714Y-110390762D01*
X142523714Y-110638381D01*
X142488000Y-110700286D01*
X142452286Y-110731238D01*
X142380857Y-110762190D01*
X142273714Y-110762190D01*
X142202286Y-110731238D01*
X142166571Y-110700286D01*
X142130857Y-110638381D01*
X142130857Y-110390762D01*
X142523714Y-110978857D02*
X141773714Y-111412190D01*
X142523714Y-111412190D02*
X141773714Y-110978857D01*
X142523714Y-115281857D02*
X142523714Y-115684238D01*
X142238000Y-115467571D01*
X142238000Y-115560429D01*
X142202286Y-115622333D01*
X142166571Y-115653286D01*
X142095143Y-115684238D01*
X141916571Y-115684238D01*
X141845143Y-115653286D01*
X141809429Y-115622333D01*
X141773714Y-115560429D01*
X141773714Y-115374714D01*
X141809429Y-115312810D01*
X141845143Y-115281857D01*
X142523714Y-115869953D02*
X141773714Y-116086619D01*
X142523714Y-116303286D01*
X142523714Y-116458048D02*
X142523714Y-116860429D01*
X142238000Y-116643762D01*
X142238000Y-116736620D01*
X142202286Y-116798524D01*
X142166571Y-116829477D01*
X142095143Y-116860429D01*
X141916571Y-116860429D01*
X141845143Y-116829477D01*
X141809429Y-116798524D01*
X141773714Y-116736620D01*
X141773714Y-116550905D01*
X141809429Y-116489001D01*
X141845143Y-116458048D01*
D12*
X132969000Y-109474000D02*
X132969000Y-121920000D01*
D11*
X141845143Y-118255190D02*
X141809429Y-118224238D01*
X141773714Y-118131381D01*
X141773714Y-118069476D01*
X141809429Y-117976619D01*
X141880857Y-117914714D01*
X141952286Y-117883762D01*
X142095143Y-117852810D01*
X142202286Y-117852810D01*
X142345143Y-117883762D01*
X142416571Y-117914714D01*
X142488000Y-117976619D01*
X142523714Y-118069476D01*
X142523714Y-118131381D01*
X142488000Y-118224238D01*
X142452286Y-118255190D01*
X142523714Y-118440905D02*
X142523714Y-118812333D01*
X141773714Y-118626619D02*
X142523714Y-118626619D01*
X141809429Y-118998048D02*
X141773714Y-119090905D01*
X141773714Y-119245667D01*
X141809429Y-119307571D01*
X141845143Y-119338524D01*
X141916571Y-119369476D01*
X141988000Y-119369476D01*
X142059429Y-119338524D01*
X142095143Y-119307571D01*
X142130857Y-119245667D01*
X142166571Y-119121857D01*
X142202286Y-119059952D01*
X142238000Y-119029000D01*
X142309429Y-118998048D01*
X142380857Y-118998048D01*
X142452286Y-119029000D01*
X142488000Y-119059952D01*
X142523714Y-119121857D01*
X142523714Y-119276619D01*
X142488000Y-119369476D01*
X142488000Y-120637238D02*
X142523714Y-120575333D01*
X142523714Y-120482476D01*
X142488000Y-120389619D01*
X142416571Y-120327714D01*
X142345143Y-120296762D01*
X142202286Y-120265810D01*
X142095143Y-120265810D01*
X141952286Y-120296762D01*
X141880857Y-120327714D01*
X141809429Y-120389619D01*
X141773714Y-120482476D01*
X141773714Y-120544381D01*
X141809429Y-120637238D01*
X141845143Y-120668190D01*
X142095143Y-120668190D01*
X142095143Y-120544381D01*
X141773714Y-120946762D02*
X142523714Y-120946762D01*
X141773714Y-121318190D01*
X142523714Y-121318190D01*
X141773714Y-121627714D02*
X142523714Y-121627714D01*
X142523714Y-121782476D01*
X142488000Y-121875333D01*
X142416571Y-121937238D01*
X142345143Y-121968190D01*
X142202286Y-121999142D01*
X142095143Y-121999142D01*
X141952286Y-121968190D01*
X141880857Y-121937238D01*
X141809429Y-121875333D01*
X141773714Y-121782476D01*
X141773714Y-121627714D01*
X153965714Y-107977762D02*
X154715714Y-107977762D01*
X153965714Y-108349190D01*
X154715714Y-108349190D01*
X154037143Y-109030142D02*
X154001429Y-108999190D01*
X153965714Y-108906333D01*
X153965714Y-108844428D01*
X154001429Y-108751571D01*
X154072857Y-108689666D01*
X154144286Y-108658714D01*
X154287143Y-108627762D01*
X154394286Y-108627762D01*
X154537143Y-108658714D01*
X154608571Y-108689666D01*
X154680000Y-108751571D01*
X154715714Y-108844428D01*
X154715714Y-108906333D01*
X154680000Y-108999190D01*
X154644286Y-109030142D01*
X147064000Y-108375214D02*
X147314000Y-108732357D01*
X147492572Y-108375214D02*
X147492572Y-109125214D01*
X147206857Y-109125214D01*
X147135429Y-109089500D01*
X147099714Y-109053786D01*
X147064000Y-108982357D01*
X147064000Y-108875214D01*
X147099714Y-108803786D01*
X147135429Y-108768071D01*
X147206857Y-108732357D01*
X147492572Y-108732357D01*
X146814000Y-109125214D02*
X146314000Y-108375214D01*
X146314000Y-109125214D02*
X146814000Y-108375214D01*
X147510428Y-107850214D02*
X147081857Y-107850214D01*
X147296143Y-107100214D02*
X147296143Y-107850214D01*
X146903285Y-107850214D02*
X146403285Y-107100214D01*
X146403285Y-107850214D02*
X146903285Y-107100214D01*
D12*
X154305000Y-109474000D02*
X154305000Y-121920000D01*
X175641000Y-109474000D02*
X175641000Y-121920000D01*
D11*
X163181143Y-118255190D02*
X163145429Y-118224238D01*
X163109714Y-118131381D01*
X163109714Y-118069476D01*
X163145429Y-117976619D01*
X163216857Y-117914714D01*
X163288286Y-117883762D01*
X163431143Y-117852810D01*
X163538286Y-117852810D01*
X163681143Y-117883762D01*
X163752571Y-117914714D01*
X163824000Y-117976619D01*
X163859714Y-118069476D01*
X163859714Y-118131381D01*
X163824000Y-118224238D01*
X163788286Y-118255190D01*
X163859714Y-118440905D02*
X163859714Y-118812333D01*
X163109714Y-118626619D02*
X163859714Y-118626619D01*
X163145429Y-118998048D02*
X163109714Y-119090905D01*
X163109714Y-119245667D01*
X163145429Y-119307571D01*
X163181143Y-119338524D01*
X163252571Y-119369476D01*
X163324000Y-119369476D01*
X163395429Y-119338524D01*
X163431143Y-119307571D01*
X163466857Y-119245667D01*
X163502571Y-119121857D01*
X163538286Y-119059952D01*
X163574000Y-119029000D01*
X163645429Y-118998048D01*
X163716857Y-118998048D01*
X163788286Y-119029000D01*
X163824000Y-119059952D01*
X163859714Y-119121857D01*
X163859714Y-119276619D01*
X163824000Y-119369476D01*
X163824000Y-120637238D02*
X163859714Y-120575333D01*
X163859714Y-120482476D01*
X163824000Y-120389619D01*
X163752571Y-120327714D01*
X163681143Y-120296762D01*
X163538286Y-120265810D01*
X163431143Y-120265810D01*
X163288286Y-120296762D01*
X163216857Y-120327714D01*
X163145429Y-120389619D01*
X163109714Y-120482476D01*
X163109714Y-120544381D01*
X163145429Y-120637238D01*
X163181143Y-120668190D01*
X163431143Y-120668190D01*
X163431143Y-120544381D01*
X163109714Y-120946762D02*
X163859714Y-120946762D01*
X163109714Y-121318190D01*
X163859714Y-121318190D01*
X163109714Y-121627714D02*
X163859714Y-121627714D01*
X163859714Y-121782476D01*
X163824000Y-121875333D01*
X163752571Y-121937238D01*
X163681143Y-121968190D01*
X163538286Y-121999142D01*
X163431143Y-121999142D01*
X163288286Y-121968190D01*
X163216857Y-121937238D01*
X163145429Y-121875333D01*
X163109714Y-121782476D01*
X163109714Y-121627714D01*
X163859714Y-115281857D02*
X163859714Y-115684238D01*
X163574000Y-115467571D01*
X163574000Y-115560429D01*
X163538286Y-115622333D01*
X163502571Y-115653286D01*
X163431143Y-115684238D01*
X163252571Y-115684238D01*
X163181143Y-115653286D01*
X163145429Y-115622333D01*
X163109714Y-115560429D01*
X163109714Y-115374714D01*
X163145429Y-115312810D01*
X163181143Y-115281857D01*
X163859714Y-115869953D02*
X163109714Y-116086619D01*
X163859714Y-116303286D01*
X163859714Y-116458048D02*
X163859714Y-116860429D01*
X163574000Y-116643762D01*
X163574000Y-116736620D01*
X163538286Y-116798524D01*
X163502571Y-116829477D01*
X163431143Y-116860429D01*
X163252571Y-116860429D01*
X163181143Y-116829477D01*
X163145429Y-116798524D01*
X163109714Y-116736620D01*
X163109714Y-116550905D01*
X163145429Y-116489001D01*
X163181143Y-116458048D01*
X163859714Y-112964905D02*
X163859714Y-113336333D01*
X163109714Y-113150619D02*
X163859714Y-113150619D01*
X163859714Y-113491095D02*
X163109714Y-113924428D01*
X163859714Y-113924428D02*
X163109714Y-113491095D01*
X163109714Y-107715143D02*
X163859714Y-107715143D01*
X163859714Y-107869905D01*
X163824000Y-107962762D01*
X163752571Y-108024667D01*
X163681143Y-108055619D01*
X163538286Y-108086571D01*
X163431143Y-108086571D01*
X163288286Y-108055619D01*
X163216857Y-108024667D01*
X163145429Y-107962762D01*
X163109714Y-107869905D01*
X163109714Y-107715143D01*
X163859714Y-108272286D02*
X163859714Y-108643714D01*
X163109714Y-108458000D02*
X163859714Y-108458000D01*
X163109714Y-109231809D02*
X163466857Y-109015143D01*
X163109714Y-108860381D02*
X163859714Y-108860381D01*
X163859714Y-109108000D01*
X163824000Y-109169905D01*
X163788286Y-109200857D01*
X163716857Y-109231809D01*
X163609714Y-109231809D01*
X163538286Y-109200857D01*
X163502571Y-109169905D01*
X163466857Y-109108000D01*
X163466857Y-108860381D01*
X163109714Y-110762190D02*
X163466857Y-110545524D01*
X163109714Y-110390762D02*
X163859714Y-110390762D01*
X163859714Y-110638381D01*
X163824000Y-110700286D01*
X163788286Y-110731238D01*
X163716857Y-110762190D01*
X163609714Y-110762190D01*
X163538286Y-110731238D01*
X163502571Y-110700286D01*
X163466857Y-110638381D01*
X163466857Y-110390762D01*
X163859714Y-110978857D02*
X163109714Y-111412190D01*
X163859714Y-111412190D02*
X163109714Y-110978857D01*
X168400000Y-108375214D02*
X168650000Y-108732357D01*
X168828572Y-108375214D02*
X168828572Y-109125214D01*
X168542857Y-109125214D01*
X168471429Y-109089500D01*
X168435714Y-109053786D01*
X168400000Y-108982357D01*
X168400000Y-108875214D01*
X168435714Y-108803786D01*
X168471429Y-108768071D01*
X168542857Y-108732357D01*
X168828572Y-108732357D01*
X168150000Y-109125214D02*
X167650000Y-108375214D01*
X167650000Y-109125214D02*
X168150000Y-108375214D01*
X168846428Y-107850214D02*
X168417857Y-107850214D01*
X168632143Y-107100214D02*
X168632143Y-107850214D01*
X168239285Y-107850214D02*
X167739285Y-107100214D01*
X167739285Y-107850214D02*
X168239285Y-107100214D01*
X175301714Y-107977762D02*
X176051714Y-107977762D01*
X175301714Y-108349190D01*
X176051714Y-108349190D01*
X175373143Y-109030142D02*
X175337429Y-108999190D01*
X175301714Y-108906333D01*
X175301714Y-108844428D01*
X175337429Y-108751571D01*
X175408857Y-108689666D01*
X175480286Y-108658714D01*
X175623143Y-108627762D01*
X175730286Y-108627762D01*
X175873143Y-108658714D01*
X175944571Y-108689666D01*
X176016000Y-108751571D01*
X176051714Y-108844428D01*
X176051714Y-108906333D01*
X176016000Y-108999190D01*
X175980286Y-109030142D01*
X142523714Y-96612857D02*
X142523714Y-97015238D01*
X142238000Y-96798571D01*
X142238000Y-96891429D01*
X142202286Y-96953333D01*
X142166571Y-96984286D01*
X142095143Y-97015238D01*
X141916571Y-97015238D01*
X141845143Y-96984286D01*
X141809429Y-96953333D01*
X141773714Y-96891429D01*
X141773714Y-96705714D01*
X141809429Y-96643810D01*
X141845143Y-96612857D01*
X142523714Y-97200953D02*
X141773714Y-97417619D01*
X142523714Y-97634286D01*
X142523714Y-97789048D02*
X142523714Y-98191429D01*
X142238000Y-97974762D01*
X142238000Y-98067620D01*
X142202286Y-98129524D01*
X142166571Y-98160477D01*
X142095143Y-98191429D01*
X141916571Y-98191429D01*
X141845143Y-98160477D01*
X141809429Y-98129524D01*
X141773714Y-98067620D01*
X141773714Y-97881905D01*
X141809429Y-97820001D01*
X141845143Y-97789048D01*
X142523714Y-94295905D02*
X142523714Y-94667333D01*
X141773714Y-94481619D02*
X142523714Y-94481619D01*
X142523714Y-94822095D02*
X141773714Y-95255428D01*
X142523714Y-95255428D02*
X141773714Y-94822095D01*
X141773714Y-89046143D02*
X142523714Y-89046143D01*
X142523714Y-89200905D01*
X142488000Y-89293762D01*
X142416571Y-89355667D01*
X142345143Y-89386619D01*
X142202286Y-89417571D01*
X142095143Y-89417571D01*
X141952286Y-89386619D01*
X141880857Y-89355667D01*
X141809429Y-89293762D01*
X141773714Y-89200905D01*
X141773714Y-89046143D01*
X142523714Y-89603286D02*
X142523714Y-89974714D01*
X141773714Y-89789000D02*
X142523714Y-89789000D01*
X141773714Y-90562809D02*
X142130857Y-90346143D01*
X141773714Y-90191381D02*
X142523714Y-90191381D01*
X142523714Y-90439000D01*
X142488000Y-90500905D01*
X142452286Y-90531857D01*
X142380857Y-90562809D01*
X142273714Y-90562809D01*
X142202286Y-90531857D01*
X142166571Y-90500905D01*
X142130857Y-90439000D01*
X142130857Y-90191381D01*
X141773714Y-92093190D02*
X142130857Y-91876524D01*
X141773714Y-91721762D02*
X142523714Y-91721762D01*
X142523714Y-91969381D01*
X142488000Y-92031286D01*
X142452286Y-92062238D01*
X142380857Y-92093190D01*
X142273714Y-92093190D01*
X142202286Y-92062238D01*
X142166571Y-92031286D01*
X142130857Y-91969381D01*
X142130857Y-91721762D01*
X142523714Y-92309857D02*
X141773714Y-92743190D01*
X142523714Y-92743190D02*
X141773714Y-92309857D01*
X142488000Y-101968238D02*
X142523714Y-101906333D01*
X142523714Y-101813476D01*
X142488000Y-101720619D01*
X142416571Y-101658714D01*
X142345143Y-101627762D01*
X142202286Y-101596810D01*
X142095143Y-101596810D01*
X141952286Y-101627762D01*
X141880857Y-101658714D01*
X141809429Y-101720619D01*
X141773714Y-101813476D01*
X141773714Y-101875381D01*
X141809429Y-101968238D01*
X141845143Y-101999190D01*
X142095143Y-101999190D01*
X142095143Y-101875381D01*
X141773714Y-102277762D02*
X142523714Y-102277762D01*
X141773714Y-102649190D01*
X142523714Y-102649190D01*
X141773714Y-102958714D02*
X142523714Y-102958714D01*
X142523714Y-103113476D01*
X142488000Y-103206333D01*
X142416571Y-103268238D01*
X142345143Y-103299190D01*
X142202286Y-103330142D01*
X142095143Y-103330142D01*
X141952286Y-103299190D01*
X141880857Y-103268238D01*
X141809429Y-103206333D01*
X141773714Y-103113476D01*
X141773714Y-102958714D01*
X141845143Y-99586190D02*
X141809429Y-99555238D01*
X141773714Y-99462381D01*
X141773714Y-99400476D01*
X141809429Y-99307619D01*
X141880857Y-99245714D01*
X141952286Y-99214762D01*
X142095143Y-99183810D01*
X142202286Y-99183810D01*
X142345143Y-99214762D01*
X142416571Y-99245714D01*
X142488000Y-99307619D01*
X142523714Y-99400476D01*
X142523714Y-99462381D01*
X142488000Y-99555238D01*
X142452286Y-99586190D01*
X142523714Y-99771905D02*
X142523714Y-100143333D01*
X141773714Y-99957619D02*
X142523714Y-99957619D01*
X141809429Y-100329048D02*
X141773714Y-100421905D01*
X141773714Y-100576667D01*
X141809429Y-100638571D01*
X141845143Y-100669524D01*
X141916571Y-100700476D01*
X141988000Y-100700476D01*
X142059429Y-100669524D01*
X142095143Y-100638571D01*
X142130857Y-100576667D01*
X142166571Y-100452857D01*
X142202286Y-100390952D01*
X142238000Y-100360000D01*
X142309429Y-100329048D01*
X142380857Y-100329048D01*
X142452286Y-100360000D01*
X142488000Y-100390952D01*
X142523714Y-100452857D01*
X142523714Y-100607619D01*
X142488000Y-100700476D01*
X132629714Y-89308762D02*
X133379714Y-89308762D01*
X132629714Y-89680190D01*
X133379714Y-89680190D01*
X132701143Y-90361142D02*
X132665429Y-90330190D01*
X132629714Y-90237333D01*
X132629714Y-90175428D01*
X132665429Y-90082571D01*
X132736857Y-90020666D01*
X132808286Y-89989714D01*
X132951143Y-89958762D01*
X133058286Y-89958762D01*
X133201143Y-89989714D01*
X133272571Y-90020666D01*
X133344000Y-90082571D01*
X133379714Y-90175428D01*
X133379714Y-90237333D01*
X133344000Y-90330190D01*
X133308286Y-90361142D01*
D12*
X132969000Y-90805000D02*
X132969000Y-103251000D01*
D11*
X121187714Y-94295905D02*
X121187714Y-94667333D01*
X120437714Y-94481619D02*
X121187714Y-94481619D01*
X121187714Y-94822095D02*
X120437714Y-95255428D01*
X121187714Y-95255428D02*
X120437714Y-94822095D01*
X121187714Y-96612857D02*
X121187714Y-97015238D01*
X120902000Y-96798571D01*
X120902000Y-96891429D01*
X120866286Y-96953333D01*
X120830571Y-96984286D01*
X120759143Y-97015238D01*
X120580571Y-97015238D01*
X120509143Y-96984286D01*
X120473429Y-96953333D01*
X120437714Y-96891429D01*
X120437714Y-96705714D01*
X120473429Y-96643810D01*
X120509143Y-96612857D01*
X121187714Y-97200953D02*
X120437714Y-97417619D01*
X121187714Y-97634286D01*
X121187714Y-97789048D02*
X121187714Y-98191429D01*
X120902000Y-97974762D01*
X120902000Y-98067620D01*
X120866286Y-98129524D01*
X120830571Y-98160477D01*
X120759143Y-98191429D01*
X120580571Y-98191429D01*
X120509143Y-98160477D01*
X120473429Y-98129524D01*
X120437714Y-98067620D01*
X120437714Y-97881905D01*
X120473429Y-97820001D01*
X120509143Y-97789048D01*
X121152000Y-101968238D02*
X121187714Y-101906333D01*
X121187714Y-101813476D01*
X121152000Y-101720619D01*
X121080571Y-101658714D01*
X121009143Y-101627762D01*
X120866286Y-101596810D01*
X120759143Y-101596810D01*
X120616286Y-101627762D01*
X120544857Y-101658714D01*
X120473429Y-101720619D01*
X120437714Y-101813476D01*
X120437714Y-101875381D01*
X120473429Y-101968238D01*
X120509143Y-101999190D01*
X120759143Y-101999190D01*
X120759143Y-101875381D01*
X120437714Y-102277762D02*
X121187714Y-102277762D01*
X120437714Y-102649190D01*
X121187714Y-102649190D01*
X120437714Y-102958714D02*
X121187714Y-102958714D01*
X121187714Y-103113476D01*
X121152000Y-103206333D01*
X121080571Y-103268238D01*
X121009143Y-103299190D01*
X120866286Y-103330142D01*
X120759143Y-103330142D01*
X120616286Y-103299190D01*
X120544857Y-103268238D01*
X120473429Y-103206333D01*
X120437714Y-103113476D01*
X120437714Y-102958714D01*
X120509143Y-99586190D02*
X120473429Y-99555238D01*
X120437714Y-99462381D01*
X120437714Y-99400476D01*
X120473429Y-99307619D01*
X120544857Y-99245714D01*
X120616286Y-99214762D01*
X120759143Y-99183810D01*
X120866286Y-99183810D01*
X121009143Y-99214762D01*
X121080571Y-99245714D01*
X121152000Y-99307619D01*
X121187714Y-99400476D01*
X121187714Y-99462381D01*
X121152000Y-99555238D01*
X121116286Y-99586190D01*
X121187714Y-99771905D02*
X121187714Y-100143333D01*
X120437714Y-99957619D02*
X121187714Y-99957619D01*
X120473429Y-100329048D02*
X120437714Y-100421905D01*
X120437714Y-100576667D01*
X120473429Y-100638571D01*
X120509143Y-100669524D01*
X120580571Y-100700476D01*
X120652000Y-100700476D01*
X120723429Y-100669524D01*
X120759143Y-100638571D01*
X120794857Y-100576667D01*
X120830571Y-100452857D01*
X120866286Y-100390952D01*
X120902000Y-100360000D01*
X120973429Y-100329048D01*
X121044857Y-100329048D01*
X121116286Y-100360000D01*
X121152000Y-100390952D01*
X121187714Y-100452857D01*
X121187714Y-100607619D01*
X121152000Y-100700476D01*
X125728000Y-89706214D02*
X125978000Y-90063357D01*
X126156572Y-89706214D02*
X126156572Y-90456214D01*
X125870857Y-90456214D01*
X125799429Y-90420500D01*
X125763714Y-90384786D01*
X125728000Y-90313357D01*
X125728000Y-90206214D01*
X125763714Y-90134786D01*
X125799429Y-90099071D01*
X125870857Y-90063357D01*
X126156572Y-90063357D01*
X125478000Y-90456214D02*
X124978000Y-89706214D01*
X124978000Y-90456214D02*
X125478000Y-89706214D01*
X126174428Y-89181214D02*
X125745857Y-89181214D01*
X125960143Y-88431214D02*
X125960143Y-89181214D01*
X125567285Y-89181214D02*
X125067285Y-88431214D01*
X125067285Y-89181214D02*
X125567285Y-88431214D01*
X120437714Y-92093190D02*
X120794857Y-91876524D01*
X120437714Y-91721762D02*
X121187714Y-91721762D01*
X121187714Y-91969381D01*
X121152000Y-92031286D01*
X121116286Y-92062238D01*
X121044857Y-92093190D01*
X120937714Y-92093190D01*
X120866286Y-92062238D01*
X120830571Y-92031286D01*
X120794857Y-91969381D01*
X120794857Y-91721762D01*
X121187714Y-92309857D02*
X120437714Y-92743190D01*
X121187714Y-92743190D02*
X120437714Y-92309857D01*
X120437714Y-89046143D02*
X121187714Y-89046143D01*
X121187714Y-89200905D01*
X121152000Y-89293762D01*
X121080571Y-89355667D01*
X121009143Y-89386619D01*
X120866286Y-89417571D01*
X120759143Y-89417571D01*
X120616286Y-89386619D01*
X120544857Y-89355667D01*
X120473429Y-89293762D01*
X120437714Y-89200905D01*
X120437714Y-89046143D01*
X121187714Y-89603286D02*
X121187714Y-89974714D01*
X120437714Y-89789000D02*
X121187714Y-89789000D01*
X120437714Y-90562809D02*
X120794857Y-90346143D01*
X120437714Y-90191381D02*
X121187714Y-90191381D01*
X121187714Y-90439000D01*
X121152000Y-90500905D01*
X121116286Y-90531857D01*
X121044857Y-90562809D01*
X120937714Y-90562809D01*
X120866286Y-90531857D01*
X120830571Y-90500905D01*
X120794857Y-90439000D01*
X120794857Y-90191381D01*
X163181143Y-99586190D02*
X163145429Y-99555238D01*
X163109714Y-99462381D01*
X163109714Y-99400476D01*
X163145429Y-99307619D01*
X163216857Y-99245714D01*
X163288286Y-99214762D01*
X163431143Y-99183810D01*
X163538286Y-99183810D01*
X163681143Y-99214762D01*
X163752571Y-99245714D01*
X163824000Y-99307619D01*
X163859714Y-99400476D01*
X163859714Y-99462381D01*
X163824000Y-99555238D01*
X163788286Y-99586190D01*
X163859714Y-99771905D02*
X163859714Y-100143333D01*
X163109714Y-99957619D02*
X163859714Y-99957619D01*
X163145429Y-100329048D02*
X163109714Y-100421905D01*
X163109714Y-100576667D01*
X163145429Y-100638571D01*
X163181143Y-100669524D01*
X163252571Y-100700476D01*
X163324000Y-100700476D01*
X163395429Y-100669524D01*
X163431143Y-100638571D01*
X163466857Y-100576667D01*
X163502571Y-100452857D01*
X163538286Y-100390952D01*
X163574000Y-100360000D01*
X163645429Y-100329048D01*
X163716857Y-100329048D01*
X163788286Y-100360000D01*
X163824000Y-100390952D01*
X163859714Y-100452857D01*
X163859714Y-100607619D01*
X163824000Y-100700476D01*
X163859714Y-96612857D02*
X163859714Y-97015238D01*
X163574000Y-96798571D01*
X163574000Y-96891429D01*
X163538286Y-96953333D01*
X163502571Y-96984286D01*
X163431143Y-97015238D01*
X163252571Y-97015238D01*
X163181143Y-96984286D01*
X163145429Y-96953333D01*
X163109714Y-96891429D01*
X163109714Y-96705714D01*
X163145429Y-96643810D01*
X163181143Y-96612857D01*
X163859714Y-97200953D02*
X163109714Y-97417619D01*
X163859714Y-97634286D01*
X163859714Y-97789048D02*
X163859714Y-98191429D01*
X163574000Y-97974762D01*
X163574000Y-98067620D01*
X163538286Y-98129524D01*
X163502571Y-98160477D01*
X163431143Y-98191429D01*
X163252571Y-98191429D01*
X163181143Y-98160477D01*
X163145429Y-98129524D01*
X163109714Y-98067620D01*
X163109714Y-97881905D01*
X163145429Y-97820001D01*
X163181143Y-97789048D01*
D12*
X175641000Y-90805000D02*
X175641000Y-103251000D01*
D11*
X163824000Y-101968238D02*
X163859714Y-101906333D01*
X163859714Y-101813476D01*
X163824000Y-101720619D01*
X163752571Y-101658714D01*
X163681143Y-101627762D01*
X163538286Y-101596810D01*
X163431143Y-101596810D01*
X163288286Y-101627762D01*
X163216857Y-101658714D01*
X163145429Y-101720619D01*
X163109714Y-101813476D01*
X163109714Y-101875381D01*
X163145429Y-101968238D01*
X163181143Y-101999190D01*
X163431143Y-101999190D01*
X163431143Y-101875381D01*
X163109714Y-102277762D02*
X163859714Y-102277762D01*
X163109714Y-102649190D01*
X163859714Y-102649190D01*
X163109714Y-102958714D02*
X163859714Y-102958714D01*
X163859714Y-103113476D01*
X163824000Y-103206333D01*
X163752571Y-103268238D01*
X163681143Y-103299190D01*
X163538286Y-103330142D01*
X163431143Y-103330142D01*
X163288286Y-103299190D01*
X163216857Y-103268238D01*
X163145429Y-103206333D01*
X163109714Y-103113476D01*
X163109714Y-102958714D01*
X147064000Y-89706214D02*
X147314000Y-90063357D01*
X147492572Y-89706214D02*
X147492572Y-90456214D01*
X147206857Y-90456214D01*
X147135429Y-90420500D01*
X147099714Y-90384786D01*
X147064000Y-90313357D01*
X147064000Y-90206214D01*
X147099714Y-90134786D01*
X147135429Y-90099071D01*
X147206857Y-90063357D01*
X147492572Y-90063357D01*
X146814000Y-90456214D02*
X146314000Y-89706214D01*
X146314000Y-90456214D02*
X146814000Y-89706214D01*
X147510428Y-89181214D02*
X147081857Y-89181214D01*
X147296143Y-88431214D02*
X147296143Y-89181214D01*
X146903285Y-89181214D02*
X146403285Y-88431214D01*
X146403285Y-89181214D02*
X146903285Y-88431214D01*
X153965714Y-89308762D02*
X154715714Y-89308762D01*
X153965714Y-89680190D01*
X154715714Y-89680190D01*
X154037143Y-90361142D02*
X154001429Y-90330190D01*
X153965714Y-90237333D01*
X153965714Y-90175428D01*
X154001429Y-90082571D01*
X154072857Y-90020666D01*
X154144286Y-89989714D01*
X154287143Y-89958762D01*
X154394286Y-89958762D01*
X154537143Y-89989714D01*
X154608571Y-90020666D01*
X154680000Y-90082571D01*
X154715714Y-90175428D01*
X154715714Y-90237333D01*
X154680000Y-90330190D01*
X154644286Y-90361142D01*
D12*
X154305000Y-90805000D02*
X154305000Y-103251000D01*
D11*
X168400000Y-89706214D02*
X168650000Y-90063357D01*
X168828572Y-89706214D02*
X168828572Y-90456214D01*
X168542857Y-90456214D01*
X168471429Y-90420500D01*
X168435714Y-90384786D01*
X168400000Y-90313357D01*
X168400000Y-90206214D01*
X168435714Y-90134786D01*
X168471429Y-90099071D01*
X168542857Y-90063357D01*
X168828572Y-90063357D01*
X168150000Y-90456214D02*
X167650000Y-89706214D01*
X167650000Y-90456214D02*
X168150000Y-89706214D01*
X168846428Y-89181214D02*
X168417857Y-89181214D01*
X168632143Y-88431214D02*
X168632143Y-89181214D01*
X168239285Y-89181214D02*
X167739285Y-88431214D01*
X167739285Y-89181214D02*
X168239285Y-88431214D01*
X163859714Y-94295905D02*
X163859714Y-94667333D01*
X163109714Y-94481619D02*
X163859714Y-94481619D01*
X163859714Y-94822095D02*
X163109714Y-95255428D01*
X163859714Y-95255428D02*
X163109714Y-94822095D01*
X163109714Y-89046143D02*
X163859714Y-89046143D01*
X163859714Y-89200905D01*
X163824000Y-89293762D01*
X163752571Y-89355667D01*
X163681143Y-89386619D01*
X163538286Y-89417571D01*
X163431143Y-89417571D01*
X163288286Y-89386619D01*
X163216857Y-89355667D01*
X163145429Y-89293762D01*
X163109714Y-89200905D01*
X163109714Y-89046143D01*
X163859714Y-89603286D02*
X163859714Y-89974714D01*
X163109714Y-89789000D02*
X163859714Y-89789000D01*
X163109714Y-90562809D02*
X163466857Y-90346143D01*
X163109714Y-90191381D02*
X163859714Y-90191381D01*
X163859714Y-90439000D01*
X163824000Y-90500905D01*
X163788286Y-90531857D01*
X163716857Y-90562809D01*
X163609714Y-90562809D01*
X163538286Y-90531857D01*
X163502571Y-90500905D01*
X163466857Y-90439000D01*
X163466857Y-90191381D01*
X163109714Y-92093190D02*
X163466857Y-91876524D01*
X163109714Y-91721762D02*
X163859714Y-91721762D01*
X163859714Y-91969381D01*
X163824000Y-92031286D01*
X163788286Y-92062238D01*
X163716857Y-92093190D01*
X163609714Y-92093190D01*
X163538286Y-92062238D01*
X163502571Y-92031286D01*
X163466857Y-91969381D01*
X163466857Y-91721762D01*
X163859714Y-92309857D02*
X163109714Y-92743190D01*
X163859714Y-92743190D02*
X163109714Y-92309857D01*
X175301714Y-89308762D02*
X176051714Y-89308762D01*
X175301714Y-89680190D01*
X176051714Y-89680190D01*
X175373143Y-90361142D02*
X175337429Y-90330190D01*
X175301714Y-90237333D01*
X175301714Y-90175428D01*
X175337429Y-90082571D01*
X175408857Y-90020666D01*
X175480286Y-89989714D01*
X175623143Y-89958762D01*
X175730286Y-89958762D01*
X175873143Y-89989714D01*
X175944571Y-90020666D01*
X176016000Y-90082571D01*
X176051714Y-90175428D01*
X176051714Y-90237333D01*
X176016000Y-90330190D01*
X175980286Y-90361142D01*
X153965714Y-70639762D02*
X154715714Y-70639762D01*
X153965714Y-71011190D01*
X154715714Y-71011190D01*
X154037143Y-71692142D02*
X154001429Y-71661190D01*
X153965714Y-71568333D01*
X153965714Y-71506428D01*
X154001429Y-71413571D01*
X154072857Y-71351666D01*
X154144286Y-71320714D01*
X154287143Y-71289762D01*
X154394286Y-71289762D01*
X154537143Y-71320714D01*
X154608571Y-71351666D01*
X154680000Y-71413571D01*
X154715714Y-71506428D01*
X154715714Y-71568333D01*
X154680000Y-71661190D01*
X154644286Y-71692142D01*
D12*
X154305000Y-72136000D02*
X154305000Y-84582000D01*
D11*
X147064000Y-71037214D02*
X147314000Y-71394357D01*
X147492572Y-71037214D02*
X147492572Y-71787214D01*
X147206857Y-71787214D01*
X147135429Y-71751500D01*
X147099714Y-71715786D01*
X147064000Y-71644357D01*
X147064000Y-71537214D01*
X147099714Y-71465786D01*
X147135429Y-71430071D01*
X147206857Y-71394357D01*
X147492572Y-71394357D01*
X146814000Y-71787214D02*
X146314000Y-71037214D01*
X146314000Y-71787214D02*
X146814000Y-71037214D01*
X147510428Y-70512214D02*
X147081857Y-70512214D01*
X147296143Y-69762214D02*
X147296143Y-70512214D01*
X146903285Y-70512214D02*
X146403285Y-69762214D01*
X146403285Y-70512214D02*
X146903285Y-69762214D01*
D12*
X175641000Y-72136000D02*
X175641000Y-84582000D01*
D11*
X163859714Y-77943857D02*
X163859714Y-78346238D01*
X163574000Y-78129571D01*
X163574000Y-78222429D01*
X163538286Y-78284333D01*
X163502571Y-78315286D01*
X163431143Y-78346238D01*
X163252571Y-78346238D01*
X163181143Y-78315286D01*
X163145429Y-78284333D01*
X163109714Y-78222429D01*
X163109714Y-78036714D01*
X163145429Y-77974810D01*
X163181143Y-77943857D01*
X163859714Y-78531953D02*
X163109714Y-78748619D01*
X163859714Y-78965286D01*
X163859714Y-79120048D02*
X163859714Y-79522429D01*
X163574000Y-79305762D01*
X163574000Y-79398620D01*
X163538286Y-79460524D01*
X163502571Y-79491477D01*
X163431143Y-79522429D01*
X163252571Y-79522429D01*
X163181143Y-79491477D01*
X163145429Y-79460524D01*
X163109714Y-79398620D01*
X163109714Y-79212905D01*
X163145429Y-79151001D01*
X163181143Y-79120048D01*
X163859714Y-75626905D02*
X163859714Y-75998333D01*
X163109714Y-75812619D02*
X163859714Y-75812619D01*
X163859714Y-76153095D02*
X163109714Y-76586428D01*
X163859714Y-76586428D02*
X163109714Y-76153095D01*
X163824000Y-83299238D02*
X163859714Y-83237333D01*
X163859714Y-83144476D01*
X163824000Y-83051619D01*
X163752571Y-82989714D01*
X163681143Y-82958762D01*
X163538286Y-82927810D01*
X163431143Y-82927810D01*
X163288286Y-82958762D01*
X163216857Y-82989714D01*
X163145429Y-83051619D01*
X163109714Y-83144476D01*
X163109714Y-83206381D01*
X163145429Y-83299238D01*
X163181143Y-83330190D01*
X163431143Y-83330190D01*
X163431143Y-83206381D01*
X163109714Y-83608762D02*
X163859714Y-83608762D01*
X163109714Y-83980190D01*
X163859714Y-83980190D01*
X163109714Y-84289714D02*
X163859714Y-84289714D01*
X163859714Y-84444476D01*
X163824000Y-84537333D01*
X163752571Y-84599238D01*
X163681143Y-84630190D01*
X163538286Y-84661142D01*
X163431143Y-84661142D01*
X163288286Y-84630190D01*
X163216857Y-84599238D01*
X163145429Y-84537333D01*
X163109714Y-84444476D01*
X163109714Y-84289714D01*
X163181143Y-80917190D02*
X163145429Y-80886238D01*
X163109714Y-80793381D01*
X163109714Y-80731476D01*
X163145429Y-80638619D01*
X163216857Y-80576714D01*
X163288286Y-80545762D01*
X163431143Y-80514810D01*
X163538286Y-80514810D01*
X163681143Y-80545762D01*
X163752571Y-80576714D01*
X163824000Y-80638619D01*
X163859714Y-80731476D01*
X163859714Y-80793381D01*
X163824000Y-80886238D01*
X163788286Y-80917190D01*
X163859714Y-81102905D02*
X163859714Y-81474333D01*
X163109714Y-81288619D02*
X163859714Y-81288619D01*
X163145429Y-81660048D02*
X163109714Y-81752905D01*
X163109714Y-81907667D01*
X163145429Y-81969571D01*
X163181143Y-82000524D01*
X163252571Y-82031476D01*
X163324000Y-82031476D01*
X163395429Y-82000524D01*
X163431143Y-81969571D01*
X163466857Y-81907667D01*
X163502571Y-81783857D01*
X163538286Y-81721952D01*
X163574000Y-81691000D01*
X163645429Y-81660048D01*
X163716857Y-81660048D01*
X163788286Y-81691000D01*
X163824000Y-81721952D01*
X163859714Y-81783857D01*
X163859714Y-81938619D01*
X163824000Y-82031476D01*
X163109714Y-70377143D02*
X163859714Y-70377143D01*
X163859714Y-70531905D01*
X163824000Y-70624762D01*
X163752571Y-70686667D01*
X163681143Y-70717619D01*
X163538286Y-70748571D01*
X163431143Y-70748571D01*
X163288286Y-70717619D01*
X163216857Y-70686667D01*
X163145429Y-70624762D01*
X163109714Y-70531905D01*
X163109714Y-70377143D01*
X163859714Y-70934286D02*
X163859714Y-71305714D01*
X163109714Y-71120000D02*
X163859714Y-71120000D01*
X163109714Y-71893809D02*
X163466857Y-71677143D01*
X163109714Y-71522381D02*
X163859714Y-71522381D01*
X163859714Y-71770000D01*
X163824000Y-71831905D01*
X163788286Y-71862857D01*
X163716857Y-71893809D01*
X163609714Y-71893809D01*
X163538286Y-71862857D01*
X163502571Y-71831905D01*
X163466857Y-71770000D01*
X163466857Y-71522381D01*
X163109714Y-73424190D02*
X163466857Y-73207524D01*
X163109714Y-73052762D02*
X163859714Y-73052762D01*
X163859714Y-73300381D01*
X163824000Y-73362286D01*
X163788286Y-73393238D01*
X163716857Y-73424190D01*
X163609714Y-73424190D01*
X163538286Y-73393238D01*
X163502571Y-73362286D01*
X163466857Y-73300381D01*
X163466857Y-73052762D01*
X163859714Y-73640857D02*
X163109714Y-74074190D01*
X163859714Y-74074190D02*
X163109714Y-73640857D01*
X175301714Y-70639762D02*
X176051714Y-70639762D01*
X175301714Y-71011190D01*
X176051714Y-71011190D01*
X175373143Y-71692142D02*
X175337429Y-71661190D01*
X175301714Y-71568333D01*
X175301714Y-71506428D01*
X175337429Y-71413571D01*
X175408857Y-71351666D01*
X175480286Y-71320714D01*
X175623143Y-71289762D01*
X175730286Y-71289762D01*
X175873143Y-71320714D01*
X175944571Y-71351666D01*
X176016000Y-71413571D01*
X176051714Y-71506428D01*
X176051714Y-71568333D01*
X176016000Y-71661190D01*
X175980286Y-71692142D01*
X168400000Y-71037214D02*
X168650000Y-71394357D01*
X168828572Y-71037214D02*
X168828572Y-71787214D01*
X168542857Y-71787214D01*
X168471429Y-71751500D01*
X168435714Y-71715786D01*
X168400000Y-71644357D01*
X168400000Y-71537214D01*
X168435714Y-71465786D01*
X168471429Y-71430071D01*
X168542857Y-71394357D01*
X168828572Y-71394357D01*
X168150000Y-71787214D02*
X167650000Y-71037214D01*
X167650000Y-71787214D02*
X168150000Y-71037214D01*
X168846428Y-70512214D02*
X168417857Y-70512214D01*
X168632143Y-69762214D02*
X168632143Y-70512214D01*
X168239285Y-70512214D02*
X167739285Y-69762214D01*
X167739285Y-70512214D02*
X168239285Y-69762214D01*
X132629714Y-70639762D02*
X133379714Y-70639762D01*
X132629714Y-71011190D01*
X133379714Y-71011190D01*
X132701143Y-71692142D02*
X132665429Y-71661190D01*
X132629714Y-71568333D01*
X132629714Y-71506428D01*
X132665429Y-71413571D01*
X132736857Y-71351666D01*
X132808286Y-71320714D01*
X132951143Y-71289762D01*
X133058286Y-71289762D01*
X133201143Y-71320714D01*
X133272571Y-71351666D01*
X133344000Y-71413571D01*
X133379714Y-71506428D01*
X133379714Y-71568333D01*
X133344000Y-71661190D01*
X133308286Y-71692142D01*
X142523714Y-77943857D02*
X142523714Y-78346238D01*
X142238000Y-78129571D01*
X142238000Y-78222429D01*
X142202286Y-78284333D01*
X142166571Y-78315286D01*
X142095143Y-78346238D01*
X141916571Y-78346238D01*
X141845143Y-78315286D01*
X141809429Y-78284333D01*
X141773714Y-78222429D01*
X141773714Y-78036714D01*
X141809429Y-77974810D01*
X141845143Y-77943857D01*
X142523714Y-78531953D02*
X141773714Y-78748619D01*
X142523714Y-78965286D01*
X142523714Y-79120048D02*
X142523714Y-79522429D01*
X142238000Y-79305762D01*
X142238000Y-79398620D01*
X142202286Y-79460524D01*
X142166571Y-79491477D01*
X142095143Y-79522429D01*
X141916571Y-79522429D01*
X141845143Y-79491477D01*
X141809429Y-79460524D01*
X141773714Y-79398620D01*
X141773714Y-79212905D01*
X141809429Y-79151001D01*
X141845143Y-79120048D01*
X141773714Y-70377143D02*
X142523714Y-70377143D01*
X142523714Y-70531905D01*
X142488000Y-70624762D01*
X142416571Y-70686667D01*
X142345143Y-70717619D01*
X142202286Y-70748571D01*
X142095143Y-70748571D01*
X141952286Y-70717619D01*
X141880857Y-70686667D01*
X141809429Y-70624762D01*
X141773714Y-70531905D01*
X141773714Y-70377143D01*
X142523714Y-70934286D02*
X142523714Y-71305714D01*
X141773714Y-71120000D02*
X142523714Y-71120000D01*
X141773714Y-71893809D02*
X142130857Y-71677143D01*
X141773714Y-71522381D02*
X142523714Y-71522381D01*
X142523714Y-71770000D01*
X142488000Y-71831905D01*
X142452286Y-71862857D01*
X142380857Y-71893809D01*
X142273714Y-71893809D01*
X142202286Y-71862857D01*
X142166571Y-71831905D01*
X142130857Y-71770000D01*
X142130857Y-71522381D01*
X142523714Y-75626905D02*
X142523714Y-75998333D01*
X141773714Y-75812619D02*
X142523714Y-75812619D01*
X142523714Y-76153095D02*
X141773714Y-76586428D01*
X142523714Y-76586428D02*
X141773714Y-76153095D01*
X141773714Y-73424190D02*
X142130857Y-73207524D01*
X141773714Y-73052762D02*
X142523714Y-73052762D01*
X142523714Y-73300381D01*
X142488000Y-73362286D01*
X142452286Y-73393238D01*
X142380857Y-73424190D01*
X142273714Y-73424190D01*
X142202286Y-73393238D01*
X142166571Y-73362286D01*
X142130857Y-73300381D01*
X142130857Y-73052762D01*
X142523714Y-73640857D02*
X141773714Y-74074190D01*
X142523714Y-74074190D02*
X141773714Y-73640857D01*
D12*
X132969000Y-72136000D02*
X132969000Y-84582000D01*
D11*
X142488000Y-83299238D02*
X142523714Y-83237333D01*
X142523714Y-83144476D01*
X142488000Y-83051619D01*
X142416571Y-82989714D01*
X142345143Y-82958762D01*
X142202286Y-82927810D01*
X142095143Y-82927810D01*
X141952286Y-82958762D01*
X141880857Y-82989714D01*
X141809429Y-83051619D01*
X141773714Y-83144476D01*
X141773714Y-83206381D01*
X141809429Y-83299238D01*
X141845143Y-83330190D01*
X142095143Y-83330190D01*
X142095143Y-83206381D01*
X141773714Y-83608762D02*
X142523714Y-83608762D01*
X141773714Y-83980190D01*
X142523714Y-83980190D01*
X141773714Y-84289714D02*
X142523714Y-84289714D01*
X142523714Y-84444476D01*
X142488000Y-84537333D01*
X142416571Y-84599238D01*
X142345143Y-84630190D01*
X142202286Y-84661142D01*
X142095143Y-84661142D01*
X141952286Y-84630190D01*
X141880857Y-84599238D01*
X141809429Y-84537333D01*
X141773714Y-84444476D01*
X141773714Y-84289714D01*
X141845143Y-80917190D02*
X141809429Y-80886238D01*
X141773714Y-80793381D01*
X141773714Y-80731476D01*
X141809429Y-80638619D01*
X141880857Y-80576714D01*
X141952286Y-80545762D01*
X142095143Y-80514810D01*
X142202286Y-80514810D01*
X142345143Y-80545762D01*
X142416571Y-80576714D01*
X142488000Y-80638619D01*
X142523714Y-80731476D01*
X142523714Y-80793381D01*
X142488000Y-80886238D01*
X142452286Y-80917190D01*
X142523714Y-81102905D02*
X142523714Y-81474333D01*
X141773714Y-81288619D02*
X142523714Y-81288619D01*
X141809429Y-81660048D02*
X141773714Y-81752905D01*
X141773714Y-81907667D01*
X141809429Y-81969571D01*
X141845143Y-82000524D01*
X141916571Y-82031476D01*
X141988000Y-82031476D01*
X142059429Y-82000524D01*
X142095143Y-81969571D01*
X142130857Y-81907667D01*
X142166571Y-81783857D01*
X142202286Y-81721952D01*
X142238000Y-81691000D01*
X142309429Y-81660048D01*
X142380857Y-81660048D01*
X142452286Y-81691000D01*
X142488000Y-81721952D01*
X142523714Y-81783857D01*
X142523714Y-81938619D01*
X142488000Y-82031476D01*
X121152000Y-83299238D02*
X121187714Y-83237333D01*
X121187714Y-83144476D01*
X121152000Y-83051619D01*
X121080571Y-82989714D01*
X121009143Y-82958762D01*
X120866286Y-82927810D01*
X120759143Y-82927810D01*
X120616286Y-82958762D01*
X120544857Y-82989714D01*
X120473429Y-83051619D01*
X120437714Y-83144476D01*
X120437714Y-83206381D01*
X120473429Y-83299238D01*
X120509143Y-83330190D01*
X120759143Y-83330190D01*
X120759143Y-83206381D01*
X120437714Y-83608762D02*
X121187714Y-83608762D01*
X120437714Y-83980190D01*
X121187714Y-83980190D01*
X120437714Y-84289714D02*
X121187714Y-84289714D01*
X121187714Y-84444476D01*
X121152000Y-84537333D01*
X121080571Y-84599238D01*
X121009143Y-84630190D01*
X120866286Y-84661142D01*
X120759143Y-84661142D01*
X120616286Y-84630190D01*
X120544857Y-84599238D01*
X120473429Y-84537333D01*
X120437714Y-84444476D01*
X120437714Y-84289714D01*
X125728000Y-71037214D02*
X125978000Y-71394357D01*
X126156572Y-71037214D02*
X126156572Y-71787214D01*
X125870857Y-71787214D01*
X125799429Y-71751500D01*
X125763714Y-71715786D01*
X125728000Y-71644357D01*
X125728000Y-71537214D01*
X125763714Y-71465786D01*
X125799429Y-71430071D01*
X125870857Y-71394357D01*
X126156572Y-71394357D01*
X125478000Y-71787214D02*
X124978000Y-71037214D01*
X124978000Y-71787214D02*
X125478000Y-71037214D01*
X126174428Y-70512214D02*
X125745857Y-70512214D01*
X125960143Y-69762214D02*
X125960143Y-70512214D01*
X125567285Y-70512214D02*
X125067285Y-69762214D01*
X125067285Y-70512214D02*
X125567285Y-69762214D01*
X120437714Y-70377143D02*
X121187714Y-70377143D01*
X121187714Y-70531905D01*
X121152000Y-70624762D01*
X121080571Y-70686667D01*
X121009143Y-70717619D01*
X120866286Y-70748571D01*
X120759143Y-70748571D01*
X120616286Y-70717619D01*
X120544857Y-70686667D01*
X120473429Y-70624762D01*
X120437714Y-70531905D01*
X120437714Y-70377143D01*
X121187714Y-70934286D02*
X121187714Y-71305714D01*
X120437714Y-71120000D02*
X121187714Y-71120000D01*
X120437714Y-71893809D02*
X120794857Y-71677143D01*
X120437714Y-71522381D02*
X121187714Y-71522381D01*
X121187714Y-71770000D01*
X121152000Y-71831905D01*
X121116286Y-71862857D01*
X121044857Y-71893809D01*
X120937714Y-71893809D01*
X120866286Y-71862857D01*
X120830571Y-71831905D01*
X120794857Y-71770000D01*
X120794857Y-71522381D01*
X120437714Y-73424190D02*
X120794857Y-73207524D01*
X120437714Y-73052762D02*
X121187714Y-73052762D01*
X121187714Y-73300381D01*
X121152000Y-73362286D01*
X121116286Y-73393238D01*
X121044857Y-73424190D01*
X120937714Y-73424190D01*
X120866286Y-73393238D01*
X120830571Y-73362286D01*
X120794857Y-73300381D01*
X120794857Y-73052762D01*
X121187714Y-73640857D02*
X120437714Y-74074190D01*
X121187714Y-74074190D02*
X120437714Y-73640857D01*
X121187714Y-75626905D02*
X121187714Y-75998333D01*
X120437714Y-75812619D02*
X121187714Y-75812619D01*
X121187714Y-76153095D02*
X120437714Y-76586428D01*
X121187714Y-76586428D02*
X120437714Y-76153095D01*
X120509143Y-80917190D02*
X120473429Y-80886238D01*
X120437714Y-80793381D01*
X120437714Y-80731476D01*
X120473429Y-80638619D01*
X120544857Y-80576714D01*
X120616286Y-80545762D01*
X120759143Y-80514810D01*
X120866286Y-80514810D01*
X121009143Y-80545762D01*
X121080571Y-80576714D01*
X121152000Y-80638619D01*
X121187714Y-80731476D01*
X121187714Y-80793381D01*
X121152000Y-80886238D01*
X121116286Y-80917190D01*
X121187714Y-81102905D02*
X121187714Y-81474333D01*
X120437714Y-81288619D02*
X121187714Y-81288619D01*
X120473429Y-81660048D02*
X120437714Y-81752905D01*
X120437714Y-81907667D01*
X120473429Y-81969571D01*
X120509143Y-82000524D01*
X120580571Y-82031476D01*
X120652000Y-82031476D01*
X120723429Y-82000524D01*
X120759143Y-81969571D01*
X120794857Y-81907667D01*
X120830571Y-81783857D01*
X120866286Y-81721952D01*
X120902000Y-81691000D01*
X120973429Y-81660048D01*
X121044857Y-81660048D01*
X121116286Y-81691000D01*
X121152000Y-81721952D01*
X121187714Y-81783857D01*
X121187714Y-81938619D01*
X121152000Y-82031476D01*
X121187714Y-77943857D02*
X121187714Y-78346238D01*
X120902000Y-78129571D01*
X120902000Y-78222429D01*
X120866286Y-78284333D01*
X120830571Y-78315286D01*
X120759143Y-78346238D01*
X120580571Y-78346238D01*
X120509143Y-78315286D01*
X120473429Y-78284333D01*
X120437714Y-78222429D01*
X120437714Y-78036714D01*
X120473429Y-77974810D01*
X120509143Y-77943857D01*
X121187714Y-78531953D02*
X120437714Y-78748619D01*
X121187714Y-78965286D01*
X121187714Y-79120048D02*
X121187714Y-79522429D01*
X120902000Y-79305762D01*
X120902000Y-79398620D01*
X120866286Y-79460524D01*
X120830571Y-79491477D01*
X120759143Y-79522429D01*
X120580571Y-79522429D01*
X120509143Y-79491477D01*
X120473429Y-79460524D01*
X120437714Y-79398620D01*
X120437714Y-79212905D01*
X120473429Y-79151001D01*
X120509143Y-79120048D01*
X175301714Y-51970762D02*
X176051714Y-51970762D01*
X175301714Y-52342190D01*
X176051714Y-52342190D01*
X175373143Y-53023142D02*
X175337429Y-52992190D01*
X175301714Y-52899333D01*
X175301714Y-52837428D01*
X175337429Y-52744571D01*
X175408857Y-52682666D01*
X175480286Y-52651714D01*
X175623143Y-52620762D01*
X175730286Y-52620762D01*
X175873143Y-52651714D01*
X175944571Y-52682666D01*
X176016000Y-52744571D01*
X176051714Y-52837428D01*
X176051714Y-52899333D01*
X176016000Y-52992190D01*
X175980286Y-53023142D01*
D12*
X175641000Y-53467000D02*
X175641000Y-65913000D01*
D11*
X163859714Y-59274857D02*
X163859714Y-59677238D01*
X163574000Y-59460571D01*
X163574000Y-59553429D01*
X163538286Y-59615333D01*
X163502571Y-59646286D01*
X163431143Y-59677238D01*
X163252571Y-59677238D01*
X163181143Y-59646286D01*
X163145429Y-59615333D01*
X163109714Y-59553429D01*
X163109714Y-59367714D01*
X163145429Y-59305810D01*
X163181143Y-59274857D01*
X163859714Y-59862953D02*
X163109714Y-60079619D01*
X163859714Y-60296286D01*
X163859714Y-60451048D02*
X163859714Y-60853429D01*
X163574000Y-60636762D01*
X163574000Y-60729620D01*
X163538286Y-60791524D01*
X163502571Y-60822477D01*
X163431143Y-60853429D01*
X163252571Y-60853429D01*
X163181143Y-60822477D01*
X163145429Y-60791524D01*
X163109714Y-60729620D01*
X163109714Y-60543905D01*
X163145429Y-60482001D01*
X163181143Y-60451048D01*
X163181143Y-62248190D02*
X163145429Y-62217238D01*
X163109714Y-62124381D01*
X163109714Y-62062476D01*
X163145429Y-61969619D01*
X163216857Y-61907714D01*
X163288286Y-61876762D01*
X163431143Y-61845810D01*
X163538286Y-61845810D01*
X163681143Y-61876762D01*
X163752571Y-61907714D01*
X163824000Y-61969619D01*
X163859714Y-62062476D01*
X163859714Y-62124381D01*
X163824000Y-62217238D01*
X163788286Y-62248190D01*
X163859714Y-62433905D02*
X163859714Y-62805333D01*
X163109714Y-62619619D02*
X163859714Y-62619619D01*
X163145429Y-62991048D02*
X163109714Y-63083905D01*
X163109714Y-63238667D01*
X163145429Y-63300571D01*
X163181143Y-63331524D01*
X163252571Y-63362476D01*
X163324000Y-63362476D01*
X163395429Y-63331524D01*
X163431143Y-63300571D01*
X163466857Y-63238667D01*
X163502571Y-63114857D01*
X163538286Y-63052952D01*
X163574000Y-63022000D01*
X163645429Y-62991048D01*
X163716857Y-62991048D01*
X163788286Y-63022000D01*
X163824000Y-63052952D01*
X163859714Y-63114857D01*
X163859714Y-63269619D01*
X163824000Y-63362476D01*
X163824000Y-64630238D02*
X163859714Y-64568333D01*
X163859714Y-64475476D01*
X163824000Y-64382619D01*
X163752571Y-64320714D01*
X163681143Y-64289762D01*
X163538286Y-64258810D01*
X163431143Y-64258810D01*
X163288286Y-64289762D01*
X163216857Y-64320714D01*
X163145429Y-64382619D01*
X163109714Y-64475476D01*
X163109714Y-64537381D01*
X163145429Y-64630238D01*
X163181143Y-64661190D01*
X163431143Y-64661190D01*
X163431143Y-64537381D01*
X163109714Y-64939762D02*
X163859714Y-64939762D01*
X163109714Y-65311190D01*
X163859714Y-65311190D01*
X163109714Y-65620714D02*
X163859714Y-65620714D01*
X163859714Y-65775476D01*
X163824000Y-65868333D01*
X163752571Y-65930238D01*
X163681143Y-65961190D01*
X163538286Y-65992142D01*
X163431143Y-65992142D01*
X163288286Y-65961190D01*
X163216857Y-65930238D01*
X163145429Y-65868333D01*
X163109714Y-65775476D01*
X163109714Y-65620714D01*
X163109714Y-54755190D02*
X163466857Y-54538524D01*
X163109714Y-54383762D02*
X163859714Y-54383762D01*
X163859714Y-54631381D01*
X163824000Y-54693286D01*
X163788286Y-54724238D01*
X163716857Y-54755190D01*
X163609714Y-54755190D01*
X163538286Y-54724238D01*
X163502571Y-54693286D01*
X163466857Y-54631381D01*
X163466857Y-54383762D01*
X163859714Y-54971857D02*
X163109714Y-55405190D01*
X163859714Y-55405190D02*
X163109714Y-54971857D01*
X163109714Y-51708143D02*
X163859714Y-51708143D01*
X163859714Y-51862905D01*
X163824000Y-51955762D01*
X163752571Y-52017667D01*
X163681143Y-52048619D01*
X163538286Y-52079571D01*
X163431143Y-52079571D01*
X163288286Y-52048619D01*
X163216857Y-52017667D01*
X163145429Y-51955762D01*
X163109714Y-51862905D01*
X163109714Y-51708143D01*
X163859714Y-52265286D02*
X163859714Y-52636714D01*
X163109714Y-52451000D02*
X163859714Y-52451000D01*
X163109714Y-53224809D02*
X163466857Y-53008143D01*
X163109714Y-52853381D02*
X163859714Y-52853381D01*
X163859714Y-53101000D01*
X163824000Y-53162905D01*
X163788286Y-53193857D01*
X163716857Y-53224809D01*
X163609714Y-53224809D01*
X163538286Y-53193857D01*
X163502571Y-53162905D01*
X163466857Y-53101000D01*
X163466857Y-52853381D01*
X163859714Y-56957905D02*
X163859714Y-57329333D01*
X163109714Y-57143619D02*
X163859714Y-57143619D01*
X163859714Y-57484095D02*
X163109714Y-57917428D01*
X163859714Y-57917428D02*
X163109714Y-57484095D01*
X168400000Y-52368214D02*
X168650000Y-52725357D01*
X168828572Y-52368214D02*
X168828572Y-53118214D01*
X168542857Y-53118214D01*
X168471429Y-53082500D01*
X168435714Y-53046786D01*
X168400000Y-52975357D01*
X168400000Y-52868214D01*
X168435714Y-52796786D01*
X168471429Y-52761071D01*
X168542857Y-52725357D01*
X168828572Y-52725357D01*
X168150000Y-53118214D02*
X167650000Y-52368214D01*
X167650000Y-53118214D02*
X168150000Y-52368214D01*
X168846428Y-51843214D02*
X168417857Y-51843214D01*
X168632143Y-51093214D02*
X168632143Y-51843214D01*
X168239285Y-51843214D02*
X167739285Y-51093214D01*
X167739285Y-51843214D02*
X168239285Y-51093214D01*
X142523714Y-59274857D02*
X142523714Y-59677238D01*
X142238000Y-59460571D01*
X142238000Y-59553429D01*
X142202286Y-59615333D01*
X142166571Y-59646286D01*
X142095143Y-59677238D01*
X141916571Y-59677238D01*
X141845143Y-59646286D01*
X141809429Y-59615333D01*
X141773714Y-59553429D01*
X141773714Y-59367714D01*
X141809429Y-59305810D01*
X141845143Y-59274857D01*
X142523714Y-59862953D02*
X141773714Y-60079619D01*
X142523714Y-60296286D01*
X142523714Y-60451048D02*
X142523714Y-60853429D01*
X142238000Y-60636762D01*
X142238000Y-60729620D01*
X142202286Y-60791524D01*
X142166571Y-60822477D01*
X142095143Y-60853429D01*
X141916571Y-60853429D01*
X141845143Y-60822477D01*
X141809429Y-60791524D01*
X141773714Y-60729620D01*
X141773714Y-60543905D01*
X141809429Y-60482001D01*
X141845143Y-60451048D01*
X142523714Y-56957905D02*
X142523714Y-57329333D01*
X141773714Y-57143619D02*
X142523714Y-57143619D01*
X142523714Y-57484095D02*
X141773714Y-57917428D01*
X142523714Y-57917428D02*
X141773714Y-57484095D01*
X141773714Y-54755190D02*
X142130857Y-54538524D01*
X141773714Y-54383762D02*
X142523714Y-54383762D01*
X142523714Y-54631381D01*
X142488000Y-54693286D01*
X142452286Y-54724238D01*
X142380857Y-54755190D01*
X142273714Y-54755190D01*
X142202286Y-54724238D01*
X142166571Y-54693286D01*
X142130857Y-54631381D01*
X142130857Y-54383762D01*
X142523714Y-54971857D02*
X141773714Y-55405190D01*
X142523714Y-55405190D02*
X141773714Y-54971857D01*
X141773714Y-51708143D02*
X142523714Y-51708143D01*
X142523714Y-51862905D01*
X142488000Y-51955762D01*
X142416571Y-52017667D01*
X142345143Y-52048619D01*
X142202286Y-52079571D01*
X142095143Y-52079571D01*
X141952286Y-52048619D01*
X141880857Y-52017667D01*
X141809429Y-51955762D01*
X141773714Y-51862905D01*
X141773714Y-51708143D01*
X142523714Y-52265286D02*
X142523714Y-52636714D01*
X141773714Y-52451000D02*
X142523714Y-52451000D01*
X141773714Y-53224809D02*
X142130857Y-53008143D01*
X141773714Y-52853381D02*
X142523714Y-52853381D01*
X142523714Y-53101000D01*
X142488000Y-53162905D01*
X142452286Y-53193857D01*
X142380857Y-53224809D01*
X142273714Y-53224809D01*
X142202286Y-53193857D01*
X142166571Y-53162905D01*
X142130857Y-53101000D01*
X142130857Y-52853381D01*
D12*
X154305000Y-53467000D02*
X154305000Y-65913000D01*
D11*
X141845143Y-62248190D02*
X141809429Y-62217238D01*
X141773714Y-62124381D01*
X141773714Y-62062476D01*
X141809429Y-61969619D01*
X141880857Y-61907714D01*
X141952286Y-61876762D01*
X142095143Y-61845810D01*
X142202286Y-61845810D01*
X142345143Y-61876762D01*
X142416571Y-61907714D01*
X142488000Y-61969619D01*
X142523714Y-62062476D01*
X142523714Y-62124381D01*
X142488000Y-62217238D01*
X142452286Y-62248190D01*
X142523714Y-62433905D02*
X142523714Y-62805333D01*
X141773714Y-62619619D02*
X142523714Y-62619619D01*
X141809429Y-62991048D02*
X141773714Y-63083905D01*
X141773714Y-63238667D01*
X141809429Y-63300571D01*
X141845143Y-63331524D01*
X141916571Y-63362476D01*
X141988000Y-63362476D01*
X142059429Y-63331524D01*
X142095143Y-63300571D01*
X142130857Y-63238667D01*
X142166571Y-63114857D01*
X142202286Y-63052952D01*
X142238000Y-63022000D01*
X142309429Y-62991048D01*
X142380857Y-62991048D01*
X142452286Y-63022000D01*
X142488000Y-63052952D01*
X142523714Y-63114857D01*
X142523714Y-63269619D01*
X142488000Y-63362476D01*
X147064000Y-52368214D02*
X147314000Y-52725357D01*
X147492572Y-52368214D02*
X147492572Y-53118214D01*
X147206857Y-53118214D01*
X147135429Y-53082500D01*
X147099714Y-53046786D01*
X147064000Y-52975357D01*
X147064000Y-52868214D01*
X147099714Y-52796786D01*
X147135429Y-52761071D01*
X147206857Y-52725357D01*
X147492572Y-52725357D01*
X146814000Y-53118214D02*
X146314000Y-52368214D01*
X146314000Y-53118214D02*
X146814000Y-52368214D01*
X147510428Y-51843214D02*
X147081857Y-51843214D01*
X147296143Y-51093214D02*
X147296143Y-51843214D01*
X146903285Y-51843214D02*
X146403285Y-51093214D01*
X146403285Y-51843214D02*
X146903285Y-51093214D01*
X142488000Y-64630238D02*
X142523714Y-64568333D01*
X142523714Y-64475476D01*
X142488000Y-64382619D01*
X142416571Y-64320714D01*
X142345143Y-64289762D01*
X142202286Y-64258810D01*
X142095143Y-64258810D01*
X141952286Y-64289762D01*
X141880857Y-64320714D01*
X141809429Y-64382619D01*
X141773714Y-64475476D01*
X141773714Y-64537381D01*
X141809429Y-64630238D01*
X141845143Y-64661190D01*
X142095143Y-64661190D01*
X142095143Y-64537381D01*
X141773714Y-64939762D02*
X142523714Y-64939762D01*
X141773714Y-65311190D01*
X142523714Y-65311190D01*
X141773714Y-65620714D02*
X142523714Y-65620714D01*
X142523714Y-65775476D01*
X142488000Y-65868333D01*
X142416571Y-65930238D01*
X142345143Y-65961190D01*
X142202286Y-65992142D01*
X142095143Y-65992142D01*
X141952286Y-65961190D01*
X141880857Y-65930238D01*
X141809429Y-65868333D01*
X141773714Y-65775476D01*
X141773714Y-65620714D01*
X153965714Y-51970762D02*
X154715714Y-51970762D01*
X153965714Y-52342190D01*
X154715714Y-52342190D01*
X154037143Y-53023142D02*
X154001429Y-52992190D01*
X153965714Y-52899333D01*
X153965714Y-52837428D01*
X154001429Y-52744571D01*
X154072857Y-52682666D01*
X154144286Y-52651714D01*
X154287143Y-52620762D01*
X154394286Y-52620762D01*
X154537143Y-52651714D01*
X154608571Y-52682666D01*
X154680000Y-52744571D01*
X154715714Y-52837428D01*
X154715714Y-52899333D01*
X154680000Y-52992190D01*
X154644286Y-53023142D01*
D12*
X132969000Y-53467000D02*
X132969000Y-65913000D01*
D11*
X132629714Y-51970762D02*
X133379714Y-51970762D01*
X132629714Y-52342190D01*
X133379714Y-52342190D01*
X132701143Y-53023142D02*
X132665429Y-52992190D01*
X132629714Y-52899333D01*
X132629714Y-52837428D01*
X132665429Y-52744571D01*
X132736857Y-52682666D01*
X132808286Y-52651714D01*
X132951143Y-52620762D01*
X133058286Y-52620762D01*
X133201143Y-52651714D01*
X133272571Y-52682666D01*
X133344000Y-52744571D01*
X133379714Y-52837428D01*
X133379714Y-52899333D01*
X133344000Y-52992190D01*
X133308286Y-53023142D01*
X125728000Y-52368214D02*
X125978000Y-52725357D01*
X126156572Y-52368214D02*
X126156572Y-53118214D01*
X125870857Y-53118214D01*
X125799429Y-53082500D01*
X125763714Y-53046786D01*
X125728000Y-52975357D01*
X125728000Y-52868214D01*
X125763714Y-52796786D01*
X125799429Y-52761071D01*
X125870857Y-52725357D01*
X126156572Y-52725357D01*
X125478000Y-53118214D02*
X124978000Y-52368214D01*
X124978000Y-53118214D02*
X125478000Y-52368214D01*
X126174428Y-51843214D02*
X125745857Y-51843214D01*
X125960143Y-51093214D02*
X125960143Y-51843214D01*
X125567285Y-51843214D02*
X125067285Y-51093214D01*
X125067285Y-51843214D02*
X125567285Y-51093214D01*
X121152000Y-64630238D02*
X121187714Y-64568333D01*
X121187714Y-64475476D01*
X121152000Y-64382619D01*
X121080571Y-64320714D01*
X121009143Y-64289762D01*
X120866286Y-64258810D01*
X120759143Y-64258810D01*
X120616286Y-64289762D01*
X120544857Y-64320714D01*
X120473429Y-64382619D01*
X120437714Y-64475476D01*
X120437714Y-64537381D01*
X120473429Y-64630238D01*
X120509143Y-64661190D01*
X120759143Y-64661190D01*
X120759143Y-64537381D01*
X120437714Y-64939762D02*
X121187714Y-64939762D01*
X120437714Y-65311190D01*
X121187714Y-65311190D01*
X120437714Y-65620714D02*
X121187714Y-65620714D01*
X121187714Y-65775476D01*
X121152000Y-65868333D01*
X121080571Y-65930238D01*
X121009143Y-65961190D01*
X120866286Y-65992142D01*
X120759143Y-65992142D01*
X120616286Y-65961190D01*
X120544857Y-65930238D01*
X120473429Y-65868333D01*
X120437714Y-65775476D01*
X120437714Y-65620714D01*
X120509143Y-62248190D02*
X120473429Y-62217238D01*
X120437714Y-62124381D01*
X120437714Y-62062476D01*
X120473429Y-61969619D01*
X120544857Y-61907714D01*
X120616286Y-61876762D01*
X120759143Y-61845810D01*
X120866286Y-61845810D01*
X121009143Y-61876762D01*
X121080571Y-61907714D01*
X121152000Y-61969619D01*
X121187714Y-62062476D01*
X121187714Y-62124381D01*
X121152000Y-62217238D01*
X121116286Y-62248190D01*
X121187714Y-62433905D02*
X121187714Y-62805333D01*
X120437714Y-62619619D02*
X121187714Y-62619619D01*
X120473429Y-62991048D02*
X120437714Y-63083905D01*
X120437714Y-63238667D01*
X120473429Y-63300571D01*
X120509143Y-63331524D01*
X120580571Y-63362476D01*
X120652000Y-63362476D01*
X120723429Y-63331524D01*
X120759143Y-63300571D01*
X120794857Y-63238667D01*
X120830571Y-63114857D01*
X120866286Y-63052952D01*
X120902000Y-63022000D01*
X120973429Y-62991048D01*
X121044857Y-62991048D01*
X121116286Y-63022000D01*
X121152000Y-63052952D01*
X121187714Y-63114857D01*
X121187714Y-63269619D01*
X121152000Y-63362476D01*
X121187714Y-59274857D02*
X121187714Y-59677238D01*
X120902000Y-59460571D01*
X120902000Y-59553429D01*
X120866286Y-59615333D01*
X120830571Y-59646286D01*
X120759143Y-59677238D01*
X120580571Y-59677238D01*
X120509143Y-59646286D01*
X120473429Y-59615333D01*
X120437714Y-59553429D01*
X120437714Y-59367714D01*
X120473429Y-59305810D01*
X120509143Y-59274857D01*
X121187714Y-59862953D02*
X120437714Y-60079619D01*
X121187714Y-60296286D01*
X121187714Y-60451048D02*
X121187714Y-60853429D01*
X120902000Y-60636762D01*
X120902000Y-60729620D01*
X120866286Y-60791524D01*
X120830571Y-60822477D01*
X120759143Y-60853429D01*
X120580571Y-60853429D01*
X120509143Y-60822477D01*
X120473429Y-60791524D01*
X120437714Y-60729620D01*
X120437714Y-60543905D01*
X120473429Y-60482001D01*
X120509143Y-60451048D01*
X121187714Y-56957905D02*
X121187714Y-57329333D01*
X120437714Y-57143619D02*
X121187714Y-57143619D01*
X121187714Y-57484095D02*
X120437714Y-57917428D01*
X121187714Y-57917428D02*
X120437714Y-57484095D01*
X120437714Y-54755190D02*
X120794857Y-54538524D01*
X120437714Y-54383762D02*
X121187714Y-54383762D01*
X121187714Y-54631381D01*
X121152000Y-54693286D01*
X121116286Y-54724238D01*
X121044857Y-54755190D01*
X120937714Y-54755190D01*
X120866286Y-54724238D01*
X120830571Y-54693286D01*
X120794857Y-54631381D01*
X120794857Y-54383762D01*
X121187714Y-54971857D02*
X120437714Y-55405190D01*
X121187714Y-55405190D02*
X120437714Y-54971857D01*
X120437714Y-51708143D02*
X121187714Y-51708143D01*
X121187714Y-51862905D01*
X121152000Y-51955762D01*
X121080571Y-52017667D01*
X121009143Y-52048619D01*
X120866286Y-52079571D01*
X120759143Y-52079571D01*
X120616286Y-52048619D01*
X120544857Y-52017667D01*
X120473429Y-51955762D01*
X120437714Y-51862905D01*
X120437714Y-51708143D01*
X121187714Y-52265286D02*
X121187714Y-52636714D01*
X120437714Y-52451000D02*
X121187714Y-52451000D01*
X120437714Y-53224809D02*
X120794857Y-53008143D01*
X120437714Y-52853381D02*
X121187714Y-52853381D01*
X121187714Y-53101000D01*
X121152000Y-53162905D01*
X121116286Y-53193857D01*
X121044857Y-53224809D01*
X120937714Y-53224809D01*
X120866286Y-53193857D01*
X120830571Y-53162905D01*
X120794857Y-53101000D01*
X120794857Y-52853381D01*
D13*
X165780000Y-135910000D02*
X165780000Y-136910000D01*
X164420000Y-136910000D02*
X164420000Y-135910000D01*
X164600000Y-140581000D02*
X165600000Y-140581000D01*
X165600000Y-140581000D02*
X165600000Y-138481000D01*
X164600000Y-140581000D02*
X164600000Y-138481000D01*
X164663000Y-131697000D02*
X165593000Y-131697000D01*
X167823000Y-131697000D02*
X166893000Y-131697000D01*
X167823000Y-131697000D02*
X167823000Y-129537000D01*
X164663000Y-131697000D02*
X164663000Y-130237000D01*
X166720000Y-128997000D02*
X166020000Y-128997000D01*
X166020000Y-127797000D02*
X166720000Y-127797000D01*
X144444000Y-135910000D02*
X144444000Y-136910000D01*
X143084000Y-136910000D02*
X143084000Y-135910000D01*
X143264000Y-140581000D02*
X144264000Y-140581000D01*
X144264000Y-140581000D02*
X144264000Y-138481000D01*
X143264000Y-140581000D02*
X143264000Y-138481000D01*
X146388000Y-134077000D02*
X145688000Y-134077000D01*
X145688000Y-132877000D02*
X146388000Y-132877000D01*
X147173000Y-135808000D02*
X146173000Y-135808000D01*
X146173000Y-134448000D02*
X147173000Y-134448000D01*
X153211000Y-137171000D02*
X152831000Y-137171000D01*
X153211000Y-141221000D02*
X153211000Y-141481000D01*
X153211000Y-137171000D02*
X153211000Y-138941000D01*
X145591000Y-137171000D02*
X145971000Y-137171000D01*
X145591000Y-138941000D02*
X145591000Y-137171000D01*
X145591000Y-141481000D02*
X145591000Y-141221000D01*
X152889000Y-135728000D02*
X152189000Y-135728000D01*
X152189000Y-134528000D02*
X152889000Y-134528000D01*
X148852000Y-134448000D02*
X149852000Y-134448000D01*
X149852000Y-135808000D02*
X148852000Y-135808000D01*
X152519000Y-127045000D02*
X151519000Y-127045000D01*
X151519000Y-125685000D02*
X152519000Y-125685000D01*
X147798000Y-125865000D02*
X147798000Y-126865000D01*
X147798000Y-126865000D02*
X149898000Y-126865000D01*
X147798000Y-125865000D02*
X149898000Y-125865000D01*
X146974000Y-131414000D02*
X146974000Y-130714000D01*
X148174000Y-130714000D02*
X148174000Y-131414000D01*
D11*
X153185000Y-129508000D02*
X153185000Y-130283000D01*
X148885000Y-133808000D02*
X148885000Y-133033000D01*
X153185000Y-133808000D02*
X153185000Y-133033000D01*
X148885000Y-129508000D02*
X149660000Y-129508000D01*
X148885000Y-133808000D02*
X149660000Y-133808000D01*
X153185000Y-133808000D02*
X152410000Y-133808000D01*
X153185000Y-129508000D02*
X152410000Y-129508000D01*
D13*
X147836000Y-127389000D02*
X147836000Y-128389000D01*
X147836000Y-128389000D02*
X149936000Y-128389000D01*
X147836000Y-127389000D02*
X149936000Y-127389000D01*
X152519000Y-128569000D02*
X151519000Y-128569000D01*
X151519000Y-127209000D02*
X152519000Y-127209000D01*
X168310000Y-131414000D02*
X168310000Y-130714000D01*
X169510000Y-130714000D02*
X169510000Y-131414000D01*
D11*
X174521000Y-129508000D02*
X174521000Y-130283000D01*
X170221000Y-133808000D02*
X170221000Y-133033000D01*
X174521000Y-133808000D02*
X174521000Y-133033000D01*
X170221000Y-129508000D02*
X170996000Y-129508000D01*
X170221000Y-133808000D02*
X170996000Y-133808000D01*
X174521000Y-133808000D02*
X173746000Y-133808000D01*
X174521000Y-129508000D02*
X173746000Y-129508000D01*
D13*
X174225000Y-135728000D02*
X173525000Y-135728000D01*
X173525000Y-134528000D02*
X174225000Y-134528000D01*
X170188000Y-134448000D02*
X171188000Y-134448000D01*
X171188000Y-135808000D02*
X170188000Y-135808000D01*
X174547000Y-137171000D02*
X174167000Y-137171000D01*
X174547000Y-141221000D02*
X174547000Y-141481000D01*
X174547000Y-137171000D02*
X174547000Y-138941000D01*
X166927000Y-137171000D02*
X167307000Y-137171000D01*
X166927000Y-138941000D02*
X166927000Y-137171000D01*
X166927000Y-141481000D02*
X166927000Y-141221000D01*
X167724000Y-134077000D02*
X167024000Y-134077000D01*
X167024000Y-132877000D02*
X167724000Y-132877000D01*
X168509000Y-135808000D02*
X167509000Y-135808000D01*
X167509000Y-134448000D02*
X168509000Y-134448000D01*
X173855000Y-127045000D02*
X172855000Y-127045000D01*
X172855000Y-125685000D02*
X173855000Y-125685000D01*
X169172000Y-127389000D02*
X169172000Y-128389000D01*
X169172000Y-128389000D02*
X171272000Y-128389000D01*
X169172000Y-127389000D02*
X171272000Y-127389000D01*
X173855000Y-128569000D02*
X172855000Y-128569000D01*
X172855000Y-127209000D02*
X173855000Y-127209000D01*
X169134000Y-125865000D02*
X169134000Y-126865000D01*
X169134000Y-126865000D02*
X171234000Y-126865000D01*
X169134000Y-125865000D02*
X171234000Y-125865000D01*
X123108000Y-135910000D02*
X123108000Y-136910000D01*
X121748000Y-136910000D02*
X121748000Y-135910000D01*
X121928000Y-140581000D02*
X122928000Y-140581000D01*
X122928000Y-140581000D02*
X122928000Y-138481000D01*
X121928000Y-140581000D02*
X121928000Y-138481000D01*
X131875000Y-137171000D02*
X131495000Y-137171000D01*
X131875000Y-141221000D02*
X131875000Y-141481000D01*
X131875000Y-137171000D02*
X131875000Y-138941000D01*
X124255000Y-137171000D02*
X124635000Y-137171000D01*
X124255000Y-138941000D02*
X124255000Y-137171000D01*
X124255000Y-141481000D02*
X124255000Y-141221000D01*
X131553000Y-135728000D02*
X130853000Y-135728000D01*
X130853000Y-134528000D02*
X131553000Y-134528000D01*
X127516000Y-134448000D02*
X128516000Y-134448000D01*
X128516000Y-135808000D02*
X127516000Y-135808000D01*
D11*
X131849000Y-129508000D02*
X131849000Y-130283000D01*
X127549000Y-133808000D02*
X127549000Y-133033000D01*
X131849000Y-133808000D02*
X131849000Y-133033000D01*
X127549000Y-129508000D02*
X128324000Y-129508000D01*
X127549000Y-133808000D02*
X128324000Y-133808000D01*
X131849000Y-133808000D02*
X131074000Y-133808000D01*
X131849000Y-129508000D02*
X131074000Y-129508000D01*
D13*
X131183000Y-128569000D02*
X130183000Y-128569000D01*
X130183000Y-127209000D02*
X131183000Y-127209000D01*
X126500000Y-127389000D02*
X126500000Y-128389000D01*
X126500000Y-128389000D02*
X128600000Y-128389000D01*
X126500000Y-127389000D02*
X128600000Y-127389000D01*
X126462000Y-125865000D02*
X126462000Y-126865000D01*
X126462000Y-126865000D02*
X128562000Y-126865000D01*
X126462000Y-125865000D02*
X128562000Y-125865000D01*
X131183000Y-127045000D02*
X130183000Y-127045000D01*
X130183000Y-125685000D02*
X131183000Y-125685000D01*
X125837000Y-135808000D02*
X124837000Y-135808000D01*
X124837000Y-134448000D02*
X125837000Y-134448000D01*
X125052000Y-134077000D02*
X124352000Y-134077000D01*
X124352000Y-132877000D02*
X125052000Y-132877000D01*
X124048000Y-128997000D02*
X123348000Y-128997000D01*
X123348000Y-127797000D02*
X124048000Y-127797000D01*
X125638000Y-131414000D02*
X125638000Y-130714000D01*
X126838000Y-130714000D02*
X126838000Y-131414000D01*
X121991000Y-131697000D02*
X122921000Y-131697000D01*
X125151000Y-131697000D02*
X124221000Y-131697000D01*
X125151000Y-131697000D02*
X125151000Y-129537000D01*
X121991000Y-131697000D02*
X121991000Y-130237000D01*
X145384000Y-128997000D02*
X144684000Y-128997000D01*
X144684000Y-127797000D02*
X145384000Y-127797000D01*
X143327000Y-131697000D02*
X144257000Y-131697000D01*
X146487000Y-131697000D02*
X145557000Y-131697000D01*
X146487000Y-131697000D02*
X146487000Y-129537000D01*
X143327000Y-131697000D02*
X143327000Y-130237000D01*
X131183000Y-109900000D02*
X130183000Y-109900000D01*
X130183000Y-108540000D02*
X131183000Y-108540000D01*
X131183000Y-108376000D02*
X130183000Y-108376000D01*
X130183000Y-107016000D02*
X131183000Y-107016000D01*
X126500000Y-108720000D02*
X126500000Y-109720000D01*
X126500000Y-109720000D02*
X128600000Y-109720000D01*
X126500000Y-108720000D02*
X128600000Y-108720000D01*
X126462000Y-107196000D02*
X126462000Y-108196000D01*
X126462000Y-108196000D02*
X128562000Y-108196000D01*
X126462000Y-107196000D02*
X128562000Y-107196000D01*
X131875000Y-118502000D02*
X131495000Y-118502000D01*
X131875000Y-122552000D02*
X131875000Y-122812000D01*
X131875000Y-118502000D02*
X131875000Y-120272000D01*
X124255000Y-118502000D02*
X124635000Y-118502000D01*
X124255000Y-120272000D02*
X124255000Y-118502000D01*
X124255000Y-122812000D02*
X124255000Y-122552000D01*
X125052000Y-115408000D02*
X124352000Y-115408000D01*
X124352000Y-114208000D02*
X125052000Y-114208000D01*
D11*
X131849000Y-110839000D02*
X131849000Y-111614000D01*
X127549000Y-115139000D02*
X127549000Y-114364000D01*
X131849000Y-115139000D02*
X131849000Y-114364000D01*
X127549000Y-110839000D02*
X128324000Y-110839000D01*
X127549000Y-115139000D02*
X128324000Y-115139000D01*
X131849000Y-115139000D02*
X131074000Y-115139000D01*
X131849000Y-110839000D02*
X131074000Y-110839000D01*
D13*
X127516000Y-115779000D02*
X128516000Y-115779000D01*
X128516000Y-117139000D02*
X127516000Y-117139000D01*
X125837000Y-117139000D02*
X124837000Y-117139000D01*
X124837000Y-115779000D02*
X125837000Y-115779000D01*
X131553000Y-117059000D02*
X130853000Y-117059000D01*
X130853000Y-115859000D02*
X131553000Y-115859000D01*
X125638000Y-112745000D02*
X125638000Y-112045000D01*
X126838000Y-112045000D02*
X126838000Y-112745000D01*
X121928000Y-121912000D02*
X122928000Y-121912000D01*
X122928000Y-121912000D02*
X122928000Y-119812000D01*
X121928000Y-121912000D02*
X121928000Y-119812000D01*
X123108000Y-117241000D02*
X123108000Y-118241000D01*
X121748000Y-118241000D02*
X121748000Y-117241000D01*
X121991000Y-113028000D02*
X122921000Y-113028000D01*
X125151000Y-113028000D02*
X124221000Y-113028000D01*
X125151000Y-113028000D02*
X125151000Y-110868000D01*
X121991000Y-113028000D02*
X121991000Y-111568000D01*
X124048000Y-110328000D02*
X123348000Y-110328000D01*
X123348000Y-109128000D02*
X124048000Y-109128000D01*
X174225000Y-117059000D02*
X173525000Y-117059000D01*
X173525000Y-115859000D02*
X174225000Y-115859000D01*
X170188000Y-115779000D02*
X171188000Y-115779000D01*
X171188000Y-117139000D02*
X170188000Y-117139000D01*
X174547000Y-118502000D02*
X174167000Y-118502000D01*
X174547000Y-122552000D02*
X174547000Y-122812000D01*
X174547000Y-118502000D02*
X174547000Y-120272000D01*
X166927000Y-118502000D02*
X167307000Y-118502000D01*
X166927000Y-120272000D02*
X166927000Y-118502000D01*
X166927000Y-122812000D02*
X166927000Y-122552000D01*
X167724000Y-115408000D02*
X167024000Y-115408000D01*
X167024000Y-114208000D02*
X167724000Y-114208000D01*
X168509000Y-117139000D02*
X167509000Y-117139000D01*
X167509000Y-115779000D02*
X168509000Y-115779000D01*
X164600000Y-121912000D02*
X165600000Y-121912000D01*
X165600000Y-121912000D02*
X165600000Y-119812000D01*
X164600000Y-121912000D02*
X164600000Y-119812000D01*
X165780000Y-117241000D02*
X165780000Y-118241000D01*
X164420000Y-118241000D02*
X164420000Y-117241000D01*
X166720000Y-110328000D02*
X166020000Y-110328000D01*
X166020000Y-109128000D02*
X166720000Y-109128000D01*
X164663000Y-113028000D02*
X165593000Y-113028000D01*
X167823000Y-113028000D02*
X166893000Y-113028000D01*
X167823000Y-113028000D02*
X167823000Y-110868000D01*
X164663000Y-113028000D02*
X164663000Y-111568000D01*
X173855000Y-108376000D02*
X172855000Y-108376000D01*
X172855000Y-107016000D02*
X173855000Y-107016000D01*
D11*
X174521000Y-110839000D02*
X174521000Y-111614000D01*
X170221000Y-115139000D02*
X170221000Y-114364000D01*
X174521000Y-115139000D02*
X174521000Y-114364000D01*
X170221000Y-110839000D02*
X170996000Y-110839000D01*
X170221000Y-115139000D02*
X170996000Y-115139000D01*
X174521000Y-115139000D02*
X173746000Y-115139000D01*
X174521000Y-110839000D02*
X173746000Y-110839000D01*
D13*
X168310000Y-112745000D02*
X168310000Y-112045000D01*
X169510000Y-112045000D02*
X169510000Y-112745000D01*
X169172000Y-108720000D02*
X169172000Y-109720000D01*
X169172000Y-109720000D02*
X171272000Y-109720000D01*
X169172000Y-108720000D02*
X171272000Y-108720000D01*
X173855000Y-109900000D02*
X172855000Y-109900000D01*
X172855000Y-108540000D02*
X173855000Y-108540000D01*
X169134000Y-107196000D02*
X169134000Y-108196000D01*
X169134000Y-108196000D02*
X171234000Y-108196000D01*
X169134000Y-107196000D02*
X171234000Y-107196000D01*
X146388000Y-115408000D02*
X145688000Y-115408000D01*
X145688000Y-114208000D02*
X146388000Y-114208000D01*
X145384000Y-110328000D02*
X144684000Y-110328000D01*
X144684000Y-109128000D02*
X145384000Y-109128000D01*
X143327000Y-113028000D02*
X144257000Y-113028000D01*
X146487000Y-113028000D02*
X145557000Y-113028000D01*
X146487000Y-113028000D02*
X146487000Y-110868000D01*
X143327000Y-113028000D02*
X143327000Y-111568000D01*
X153211000Y-118502000D02*
X152831000Y-118502000D01*
X153211000Y-122552000D02*
X153211000Y-122812000D01*
X153211000Y-118502000D02*
X153211000Y-120272000D01*
X145591000Y-118502000D02*
X145971000Y-118502000D01*
X145591000Y-120272000D02*
X145591000Y-118502000D01*
X145591000Y-122812000D02*
X145591000Y-122552000D01*
X144444000Y-117241000D02*
X144444000Y-118241000D01*
X143084000Y-118241000D02*
X143084000Y-117241000D01*
X143264000Y-121912000D02*
X144264000Y-121912000D01*
X144264000Y-121912000D02*
X144264000Y-119812000D01*
X143264000Y-121912000D02*
X143264000Y-119812000D01*
X146974000Y-112745000D02*
X146974000Y-112045000D01*
X148174000Y-112045000D02*
X148174000Y-112745000D01*
X152889000Y-117059000D02*
X152189000Y-117059000D01*
X152189000Y-115859000D02*
X152889000Y-115859000D01*
X147173000Y-117139000D02*
X146173000Y-117139000D01*
X146173000Y-115779000D02*
X147173000Y-115779000D01*
D11*
X153185000Y-110839000D02*
X153185000Y-111614000D01*
X148885000Y-115139000D02*
X148885000Y-114364000D01*
X153185000Y-115139000D02*
X153185000Y-114364000D01*
X148885000Y-110839000D02*
X149660000Y-110839000D01*
X148885000Y-115139000D02*
X149660000Y-115139000D01*
X153185000Y-115139000D02*
X152410000Y-115139000D01*
X153185000Y-110839000D02*
X152410000Y-110839000D01*
D13*
X148852000Y-115779000D02*
X149852000Y-115779000D01*
X149852000Y-117139000D02*
X148852000Y-117139000D01*
X152519000Y-108376000D02*
X151519000Y-108376000D01*
X151519000Y-107016000D02*
X152519000Y-107016000D01*
X147798000Y-107196000D02*
X147798000Y-108196000D01*
X147798000Y-108196000D02*
X149898000Y-108196000D01*
X147798000Y-107196000D02*
X149898000Y-107196000D01*
X147836000Y-108720000D02*
X147836000Y-109720000D01*
X147836000Y-109720000D02*
X149936000Y-109720000D01*
X147836000Y-108720000D02*
X149936000Y-108720000D01*
X152519000Y-109900000D02*
X151519000Y-109900000D01*
X151519000Y-108540000D02*
X152519000Y-108540000D01*
X173855000Y-89707000D02*
X172855000Y-89707000D01*
X172855000Y-88347000D02*
X173855000Y-88347000D01*
X169172000Y-90051000D02*
X169172000Y-91051000D01*
X169172000Y-91051000D02*
X171272000Y-91051000D01*
X169172000Y-90051000D02*
X171272000Y-90051000D01*
X169134000Y-88527000D02*
X169134000Y-89527000D01*
X169134000Y-89527000D02*
X171234000Y-89527000D01*
X169134000Y-88527000D02*
X171234000Y-88527000D01*
X173855000Y-91231000D02*
X172855000Y-91231000D01*
X172855000Y-89871000D02*
X173855000Y-89871000D01*
D11*
X174521000Y-92170000D02*
X174521000Y-92945000D01*
X170221000Y-96470000D02*
X170221000Y-95695000D01*
X174521000Y-96470000D02*
X174521000Y-95695000D01*
X170221000Y-92170000D02*
X170996000Y-92170000D01*
X170221000Y-96470000D02*
X170996000Y-96470000D01*
X174521000Y-96470000D02*
X173746000Y-96470000D01*
X174521000Y-92170000D02*
X173746000Y-92170000D01*
D13*
X168310000Y-94076000D02*
X168310000Y-93376000D01*
X169510000Y-93376000D02*
X169510000Y-94076000D01*
X167724000Y-96739000D02*
X167024000Y-96739000D01*
X167024000Y-95539000D02*
X167724000Y-95539000D01*
X166720000Y-91659000D02*
X166020000Y-91659000D01*
X166020000Y-90459000D02*
X166720000Y-90459000D01*
X164663000Y-94359000D02*
X165593000Y-94359000D01*
X167823000Y-94359000D02*
X166893000Y-94359000D01*
X167823000Y-94359000D02*
X167823000Y-92199000D01*
X164663000Y-94359000D02*
X164663000Y-92899000D01*
X170188000Y-97110000D02*
X171188000Y-97110000D01*
X171188000Y-98470000D02*
X170188000Y-98470000D01*
X165780000Y-98572000D02*
X165780000Y-99572000D01*
X164420000Y-99572000D02*
X164420000Y-98572000D01*
X174547000Y-99833000D02*
X174167000Y-99833000D01*
X174547000Y-103883000D02*
X174547000Y-104143000D01*
X174547000Y-99833000D02*
X174547000Y-101603000D01*
X166927000Y-99833000D02*
X167307000Y-99833000D01*
X166927000Y-101603000D02*
X166927000Y-99833000D01*
X166927000Y-104143000D02*
X166927000Y-103883000D01*
X164600000Y-103243000D02*
X165600000Y-103243000D01*
X165600000Y-103243000D02*
X165600000Y-101143000D01*
X164600000Y-103243000D02*
X164600000Y-101143000D01*
X168509000Y-98470000D02*
X167509000Y-98470000D01*
X167509000Y-97110000D02*
X168509000Y-97110000D01*
X174225000Y-98390000D02*
X173525000Y-98390000D01*
X173525000Y-97190000D02*
X174225000Y-97190000D01*
X147836000Y-90051000D02*
X147836000Y-91051000D01*
X147836000Y-91051000D02*
X149936000Y-91051000D01*
X147836000Y-90051000D02*
X149936000Y-90051000D01*
X152519000Y-91231000D02*
X151519000Y-91231000D01*
X151519000Y-89871000D02*
X152519000Y-89871000D01*
X152519000Y-89707000D02*
X151519000Y-89707000D01*
X151519000Y-88347000D02*
X152519000Y-88347000D01*
X147798000Y-88527000D02*
X147798000Y-89527000D01*
X147798000Y-89527000D02*
X149898000Y-89527000D01*
X147798000Y-88527000D02*
X149898000Y-88527000D01*
X145384000Y-91659000D02*
X144684000Y-91659000D01*
X144684000Y-90459000D02*
X145384000Y-90459000D01*
X146974000Y-94076000D02*
X146974000Y-93376000D01*
X148174000Y-93376000D02*
X148174000Y-94076000D01*
X148852000Y-97110000D02*
X149852000Y-97110000D01*
X149852000Y-98470000D02*
X148852000Y-98470000D01*
X153211000Y-99833000D02*
X152831000Y-99833000D01*
X153211000Y-103883000D02*
X153211000Y-104143000D01*
X153211000Y-99833000D02*
X153211000Y-101603000D01*
X145591000Y-99833000D02*
X145971000Y-99833000D01*
X145591000Y-101603000D02*
X145591000Y-99833000D01*
X145591000Y-104143000D02*
X145591000Y-103883000D01*
X143327000Y-94359000D02*
X144257000Y-94359000D01*
X146487000Y-94359000D02*
X145557000Y-94359000D01*
X146487000Y-94359000D02*
X146487000Y-92199000D01*
X143327000Y-94359000D02*
X143327000Y-92899000D01*
D11*
X153185000Y-92170000D02*
X153185000Y-92945000D01*
X148885000Y-96470000D02*
X148885000Y-95695000D01*
X153185000Y-96470000D02*
X153185000Y-95695000D01*
X148885000Y-92170000D02*
X149660000Y-92170000D01*
X148885000Y-96470000D02*
X149660000Y-96470000D01*
X153185000Y-96470000D02*
X152410000Y-96470000D01*
X153185000Y-92170000D02*
X152410000Y-92170000D01*
D13*
X147173000Y-98470000D02*
X146173000Y-98470000D01*
X146173000Y-97110000D02*
X147173000Y-97110000D01*
X152889000Y-98390000D02*
X152189000Y-98390000D01*
X152189000Y-97190000D02*
X152889000Y-97190000D01*
X125638000Y-94076000D02*
X125638000Y-93376000D01*
X126838000Y-93376000D02*
X126838000Y-94076000D01*
X125052000Y-96739000D02*
X124352000Y-96739000D01*
X124352000Y-95539000D02*
X125052000Y-95539000D01*
D11*
X131849000Y-92170000D02*
X131849000Y-92945000D01*
X127549000Y-96470000D02*
X127549000Y-95695000D01*
X131849000Y-96470000D02*
X131849000Y-95695000D01*
X127549000Y-92170000D02*
X128324000Y-92170000D01*
X127549000Y-96470000D02*
X128324000Y-96470000D01*
X131849000Y-96470000D02*
X131074000Y-96470000D01*
X131849000Y-92170000D02*
X131074000Y-92170000D01*
D13*
X125837000Y-98470000D02*
X124837000Y-98470000D01*
X124837000Y-97110000D02*
X125837000Y-97110000D01*
X131875000Y-99833000D02*
X131495000Y-99833000D01*
X131875000Y-103883000D02*
X131875000Y-104143000D01*
X131875000Y-99833000D02*
X131875000Y-101603000D01*
X124255000Y-99833000D02*
X124635000Y-99833000D01*
X124255000Y-101603000D02*
X124255000Y-99833000D01*
X124255000Y-104143000D02*
X124255000Y-103883000D01*
X127516000Y-97110000D02*
X128516000Y-97110000D01*
X128516000Y-98470000D02*
X127516000Y-98470000D01*
X131553000Y-98390000D02*
X130853000Y-98390000D01*
X130853000Y-97190000D02*
X131553000Y-97190000D01*
X121991000Y-94359000D02*
X122921000Y-94359000D01*
X125151000Y-94359000D02*
X124221000Y-94359000D01*
X125151000Y-94359000D02*
X125151000Y-92199000D01*
X121991000Y-94359000D02*
X121991000Y-92899000D01*
X123108000Y-98572000D02*
X123108000Y-99572000D01*
X121748000Y-99572000D02*
X121748000Y-98572000D01*
X121928000Y-103243000D02*
X122928000Y-103243000D01*
X122928000Y-103243000D02*
X122928000Y-101143000D01*
X121928000Y-103243000D02*
X121928000Y-101143000D01*
X124048000Y-91659000D02*
X123348000Y-91659000D01*
X123348000Y-90459000D02*
X124048000Y-90459000D01*
X131183000Y-89707000D02*
X130183000Y-89707000D01*
X130183000Y-88347000D02*
X131183000Y-88347000D01*
X126500000Y-90051000D02*
X126500000Y-91051000D01*
X126500000Y-91051000D02*
X128600000Y-91051000D01*
X126500000Y-90051000D02*
X128600000Y-90051000D01*
X126462000Y-88527000D02*
X126462000Y-89527000D01*
X126462000Y-89527000D02*
X128562000Y-89527000D01*
X126462000Y-88527000D02*
X128562000Y-88527000D01*
X131183000Y-91231000D02*
X130183000Y-91231000D01*
X130183000Y-89871000D02*
X131183000Y-89871000D01*
X143264000Y-103243000D02*
X144264000Y-103243000D01*
X144264000Y-103243000D02*
X144264000Y-101143000D01*
X143264000Y-103243000D02*
X143264000Y-101143000D01*
X146388000Y-96739000D02*
X145688000Y-96739000D01*
X145688000Y-95539000D02*
X146388000Y-95539000D01*
X144444000Y-98572000D02*
X144444000Y-99572000D01*
X143084000Y-99572000D02*
X143084000Y-98572000D01*
X173855000Y-72562000D02*
X172855000Y-72562000D01*
X172855000Y-71202000D02*
X173855000Y-71202000D01*
X173855000Y-71038000D02*
X172855000Y-71038000D01*
X172855000Y-69678000D02*
X173855000Y-69678000D01*
D11*
X174521000Y-73501000D02*
X174521000Y-74276000D01*
X170221000Y-77801000D02*
X170221000Y-77026000D01*
X174521000Y-77801000D02*
X174521000Y-77026000D01*
X170221000Y-73501000D02*
X170996000Y-73501000D01*
X170221000Y-77801000D02*
X170996000Y-77801000D01*
X174521000Y-77801000D02*
X173746000Y-77801000D01*
X174521000Y-73501000D02*
X173746000Y-73501000D01*
D13*
X169172000Y-71382000D02*
X169172000Y-72382000D01*
X169172000Y-72382000D02*
X171272000Y-72382000D01*
X169172000Y-71382000D02*
X171272000Y-71382000D01*
X169134000Y-69858000D02*
X169134000Y-70858000D01*
X169134000Y-70858000D02*
X171234000Y-70858000D01*
X169134000Y-69858000D02*
X171234000Y-69858000D01*
X164600000Y-84574000D02*
X165600000Y-84574000D01*
X165600000Y-84574000D02*
X165600000Y-82474000D01*
X164600000Y-84574000D02*
X164600000Y-82474000D01*
X165780000Y-79903000D02*
X165780000Y-80903000D01*
X164420000Y-80903000D02*
X164420000Y-79903000D01*
X170188000Y-78441000D02*
X171188000Y-78441000D01*
X171188000Y-79801000D02*
X170188000Y-79801000D01*
X174225000Y-79721000D02*
X173525000Y-79721000D01*
X173525000Y-78521000D02*
X174225000Y-78521000D01*
X168509000Y-79801000D02*
X167509000Y-79801000D01*
X167509000Y-78441000D02*
X168509000Y-78441000D01*
X174547000Y-81164000D02*
X174167000Y-81164000D01*
X174547000Y-85214000D02*
X174547000Y-85474000D01*
X174547000Y-81164000D02*
X174547000Y-82934000D01*
X166927000Y-81164000D02*
X167307000Y-81164000D01*
X166927000Y-82934000D02*
X166927000Y-81164000D01*
X166927000Y-85474000D02*
X166927000Y-85214000D01*
X167724000Y-78070000D02*
X167024000Y-78070000D01*
X167024000Y-76870000D02*
X167724000Y-76870000D01*
X166720000Y-72990000D02*
X166020000Y-72990000D01*
X166020000Y-71790000D02*
X166720000Y-71790000D01*
X164663000Y-75690000D02*
X165593000Y-75690000D01*
X167823000Y-75690000D02*
X166893000Y-75690000D01*
X167823000Y-75690000D02*
X167823000Y-73530000D01*
X164663000Y-75690000D02*
X164663000Y-74230000D01*
X168310000Y-75407000D02*
X168310000Y-74707000D01*
X169510000Y-74707000D02*
X169510000Y-75407000D01*
X127516000Y-78441000D02*
X128516000Y-78441000D01*
X128516000Y-79801000D02*
X127516000Y-79801000D01*
X125837000Y-79801000D02*
X124837000Y-79801000D01*
X124837000Y-78441000D02*
X125837000Y-78441000D01*
X131875000Y-81164000D02*
X131495000Y-81164000D01*
X131875000Y-85214000D02*
X131875000Y-85474000D01*
X131875000Y-81164000D02*
X131875000Y-82934000D01*
X124255000Y-81164000D02*
X124635000Y-81164000D01*
X124255000Y-82934000D02*
X124255000Y-81164000D01*
X124255000Y-85474000D02*
X124255000Y-85214000D01*
X131553000Y-79721000D02*
X130853000Y-79721000D01*
X130853000Y-78521000D02*
X131553000Y-78521000D01*
D11*
X131849000Y-73501000D02*
X131849000Y-74276000D01*
X127549000Y-77801000D02*
X127549000Y-77026000D01*
X131849000Y-77801000D02*
X131849000Y-77026000D01*
X127549000Y-73501000D02*
X128324000Y-73501000D01*
X127549000Y-77801000D02*
X128324000Y-77801000D01*
X131849000Y-77801000D02*
X131074000Y-77801000D01*
X131849000Y-73501000D02*
X131074000Y-73501000D01*
X153185000Y-73501000D02*
X153185000Y-74276000D01*
X148885000Y-77801000D02*
X148885000Y-77026000D01*
X153185000Y-77801000D02*
X153185000Y-77026000D01*
X148885000Y-73501000D02*
X149660000Y-73501000D01*
X148885000Y-77801000D02*
X149660000Y-77801000D01*
X153185000Y-77801000D02*
X152410000Y-77801000D01*
X153185000Y-73501000D02*
X152410000Y-73501000D01*
D13*
X152519000Y-72562000D02*
X151519000Y-72562000D01*
X151519000Y-71202000D02*
X152519000Y-71202000D01*
X147836000Y-71382000D02*
X147836000Y-72382000D01*
X147836000Y-72382000D02*
X149936000Y-72382000D01*
X147836000Y-71382000D02*
X149936000Y-71382000D01*
X152519000Y-71038000D02*
X151519000Y-71038000D01*
X151519000Y-69678000D02*
X152519000Y-69678000D01*
X146974000Y-75407000D02*
X146974000Y-74707000D01*
X148174000Y-74707000D02*
X148174000Y-75407000D01*
X147798000Y-69858000D02*
X147798000Y-70858000D01*
X147798000Y-70858000D02*
X149898000Y-70858000D01*
X147798000Y-69858000D02*
X149898000Y-69858000D01*
X124048000Y-72990000D02*
X123348000Y-72990000D01*
X123348000Y-71790000D02*
X124048000Y-71790000D01*
X121991000Y-75690000D02*
X122921000Y-75690000D01*
X125151000Y-75690000D02*
X124221000Y-75690000D01*
X125151000Y-75690000D02*
X125151000Y-73530000D01*
X121991000Y-75690000D02*
X121991000Y-74230000D01*
X125638000Y-75407000D02*
X125638000Y-74707000D01*
X126838000Y-74707000D02*
X126838000Y-75407000D01*
X125052000Y-78070000D02*
X124352000Y-78070000D01*
X124352000Y-76870000D02*
X125052000Y-76870000D01*
X131183000Y-71038000D02*
X130183000Y-71038000D01*
X130183000Y-69678000D02*
X131183000Y-69678000D01*
X126500000Y-71382000D02*
X126500000Y-72382000D01*
X126500000Y-72382000D02*
X128600000Y-72382000D01*
X126500000Y-71382000D02*
X128600000Y-71382000D01*
X131183000Y-72562000D02*
X130183000Y-72562000D01*
X130183000Y-71202000D02*
X131183000Y-71202000D01*
X126462000Y-69858000D02*
X126462000Y-70858000D01*
X126462000Y-70858000D02*
X128562000Y-70858000D01*
X126462000Y-69858000D02*
X128562000Y-69858000D01*
X143327000Y-75690000D02*
X144257000Y-75690000D01*
X146487000Y-75690000D02*
X145557000Y-75690000D01*
X146487000Y-75690000D02*
X146487000Y-73530000D01*
X143327000Y-75690000D02*
X143327000Y-74230000D01*
X145384000Y-72990000D02*
X144684000Y-72990000D01*
X144684000Y-71790000D02*
X145384000Y-71790000D01*
X146388000Y-78070000D02*
X145688000Y-78070000D01*
X145688000Y-76870000D02*
X146388000Y-76870000D01*
X123108000Y-79903000D02*
X123108000Y-80903000D01*
X121748000Y-80903000D02*
X121748000Y-79903000D01*
X121928000Y-84574000D02*
X122928000Y-84574000D01*
X122928000Y-84574000D02*
X122928000Y-82474000D01*
X121928000Y-84574000D02*
X121928000Y-82474000D01*
X148852000Y-78441000D02*
X149852000Y-78441000D01*
X149852000Y-79801000D02*
X148852000Y-79801000D01*
X152889000Y-79721000D02*
X152189000Y-79721000D01*
X152189000Y-78521000D02*
X152889000Y-78521000D01*
X147173000Y-79801000D02*
X146173000Y-79801000D01*
X146173000Y-78441000D02*
X147173000Y-78441000D01*
X153211000Y-81164000D02*
X152831000Y-81164000D01*
X153211000Y-85214000D02*
X153211000Y-85474000D01*
X153211000Y-81164000D02*
X153211000Y-82934000D01*
X145591000Y-81164000D02*
X145971000Y-81164000D01*
X145591000Y-82934000D02*
X145591000Y-81164000D01*
X145591000Y-85474000D02*
X145591000Y-85214000D01*
X144444000Y-79903000D02*
X144444000Y-80903000D01*
X143084000Y-80903000D02*
X143084000Y-79903000D01*
X143264000Y-84574000D02*
X144264000Y-84574000D01*
X144264000Y-84574000D02*
X144264000Y-82474000D01*
X143264000Y-84574000D02*
X143264000Y-82474000D01*
X174225000Y-61052000D02*
X173525000Y-61052000D01*
X173525000Y-59852000D02*
X174225000Y-59852000D01*
X164663000Y-57021000D02*
X165593000Y-57021000D01*
X167823000Y-57021000D02*
X166893000Y-57021000D01*
X167823000Y-57021000D02*
X167823000Y-54861000D01*
X164663000Y-57021000D02*
X164663000Y-55561000D01*
X166720000Y-54321000D02*
X166020000Y-54321000D01*
X166020000Y-53121000D02*
X166720000Y-53121000D01*
X167724000Y-59401000D02*
X167024000Y-59401000D01*
X167024000Y-58201000D02*
X167724000Y-58201000D01*
X173855000Y-53893000D02*
X172855000Y-53893000D01*
X172855000Y-52533000D02*
X173855000Y-52533000D01*
D11*
X174521000Y-54832000D02*
X174521000Y-55607000D01*
X170221000Y-59132000D02*
X170221000Y-58357000D01*
X174521000Y-59132000D02*
X174521000Y-58357000D01*
X170221000Y-54832000D02*
X170996000Y-54832000D01*
X170221000Y-59132000D02*
X170996000Y-59132000D01*
X174521000Y-59132000D02*
X173746000Y-59132000D01*
X174521000Y-54832000D02*
X173746000Y-54832000D01*
D13*
X168310000Y-56738000D02*
X168310000Y-56038000D01*
X169510000Y-56038000D02*
X169510000Y-56738000D01*
X173855000Y-52369000D02*
X172855000Y-52369000D01*
X172855000Y-51009000D02*
X173855000Y-51009000D01*
X165780000Y-61234000D02*
X165780000Y-62234000D01*
X164420000Y-62234000D02*
X164420000Y-61234000D01*
X169172000Y-52713000D02*
X169172000Y-53713000D01*
X169172000Y-53713000D02*
X171272000Y-53713000D01*
X169172000Y-52713000D02*
X171272000Y-52713000D01*
X169134000Y-51189000D02*
X169134000Y-52189000D01*
X169134000Y-52189000D02*
X171234000Y-52189000D01*
X169134000Y-51189000D02*
X171234000Y-51189000D01*
X174547000Y-62495000D02*
X174167000Y-62495000D01*
X174547000Y-66545000D02*
X174547000Y-66805000D01*
X174547000Y-62495000D02*
X174547000Y-64265000D01*
X166927000Y-62495000D02*
X167307000Y-62495000D01*
X166927000Y-64265000D02*
X166927000Y-62495000D01*
X166927000Y-66805000D02*
X166927000Y-66545000D01*
X168509000Y-61132000D02*
X167509000Y-61132000D01*
X167509000Y-59772000D02*
X168509000Y-59772000D01*
X170188000Y-59772000D02*
X171188000Y-59772000D01*
X171188000Y-61132000D02*
X170188000Y-61132000D01*
X164600000Y-65905000D02*
X165600000Y-65905000D01*
X165600000Y-65905000D02*
X165600000Y-63805000D01*
X164600000Y-65905000D02*
X164600000Y-63805000D01*
X152889000Y-61052000D02*
X152189000Y-61052000D01*
X152189000Y-59852000D02*
X152889000Y-59852000D01*
X152519000Y-52369000D02*
X151519000Y-52369000D01*
X151519000Y-51009000D02*
X152519000Y-51009000D01*
X152519000Y-53893000D02*
X151519000Y-53893000D01*
X151519000Y-52533000D02*
X152519000Y-52533000D01*
X147836000Y-52713000D02*
X147836000Y-53713000D01*
X147836000Y-53713000D02*
X149936000Y-53713000D01*
X147836000Y-52713000D02*
X149936000Y-52713000D01*
D11*
X153185000Y-54832000D02*
X153185000Y-55607000D01*
X148885000Y-59132000D02*
X148885000Y-58357000D01*
X153185000Y-59132000D02*
X153185000Y-58357000D01*
X148885000Y-54832000D02*
X149660000Y-54832000D01*
X148885000Y-59132000D02*
X149660000Y-59132000D01*
X153185000Y-59132000D02*
X152410000Y-59132000D01*
X153185000Y-54832000D02*
X152410000Y-54832000D01*
D13*
X147798000Y-51189000D02*
X147798000Y-52189000D01*
X147798000Y-52189000D02*
X149898000Y-52189000D01*
X147798000Y-51189000D02*
X149898000Y-51189000D01*
X143264000Y-65905000D02*
X144264000Y-65905000D01*
X144264000Y-65905000D02*
X144264000Y-63805000D01*
X143264000Y-65905000D02*
X143264000Y-63805000D01*
X147173000Y-61132000D02*
X146173000Y-61132000D01*
X146173000Y-59772000D02*
X147173000Y-59772000D01*
X153211000Y-62495000D02*
X152831000Y-62495000D01*
X153211000Y-66545000D02*
X153211000Y-66805000D01*
X153211000Y-62495000D02*
X153211000Y-64265000D01*
X145591000Y-62495000D02*
X145971000Y-62495000D01*
X145591000Y-64265000D02*
X145591000Y-62495000D01*
X145591000Y-66805000D02*
X145591000Y-66545000D01*
X144444000Y-61234000D02*
X144444000Y-62234000D01*
X143084000Y-62234000D02*
X143084000Y-61234000D01*
X148852000Y-59772000D02*
X149852000Y-59772000D01*
X149852000Y-61132000D02*
X148852000Y-61132000D01*
X145384000Y-54321000D02*
X144684000Y-54321000D01*
X144684000Y-53121000D02*
X145384000Y-53121000D01*
X146388000Y-59401000D02*
X145688000Y-59401000D01*
X145688000Y-58201000D02*
X146388000Y-58201000D01*
X146974000Y-56738000D02*
X146974000Y-56038000D01*
X148174000Y-56038000D02*
X148174000Y-56738000D01*
X143327000Y-57021000D02*
X144257000Y-57021000D01*
X146487000Y-57021000D02*
X145557000Y-57021000D01*
X146487000Y-57021000D02*
X146487000Y-54861000D01*
X143327000Y-57021000D02*
X143327000Y-55561000D01*
X131553000Y-61052000D02*
X130853000Y-61052000D01*
X130853000Y-59852000D02*
X131553000Y-59852000D01*
X125638000Y-56738000D02*
X125638000Y-56038000D01*
X126838000Y-56038000D02*
X126838000Y-56738000D01*
X125052000Y-59401000D02*
X124352000Y-59401000D01*
X124352000Y-58201000D02*
X125052000Y-58201000D01*
X124048000Y-54321000D02*
X123348000Y-54321000D01*
X123348000Y-53121000D02*
X124048000Y-53121000D01*
X121928000Y-65905000D02*
X122928000Y-65905000D01*
X122928000Y-65905000D02*
X122928000Y-63805000D01*
X121928000Y-65905000D02*
X121928000Y-63805000D01*
X126462000Y-51189000D02*
X126462000Y-52189000D01*
X126462000Y-52189000D02*
X128562000Y-52189000D01*
X126462000Y-51189000D02*
X128562000Y-51189000D01*
X126500000Y-52713000D02*
X126500000Y-53713000D01*
X126500000Y-53713000D02*
X128600000Y-53713000D01*
X126500000Y-52713000D02*
X128600000Y-52713000D01*
X131875000Y-62495000D02*
X131495000Y-62495000D01*
X131875000Y-66545000D02*
X131875000Y-66805000D01*
X131875000Y-62495000D02*
X131875000Y-64265000D01*
X124255000Y-62495000D02*
X124635000Y-62495000D01*
X124255000Y-64265000D02*
X124255000Y-62495000D01*
X124255000Y-66805000D02*
X124255000Y-66545000D01*
X125837000Y-61132000D02*
X124837000Y-61132000D01*
X124837000Y-59772000D02*
X125837000Y-59772000D01*
X127516000Y-59772000D02*
X128516000Y-59772000D01*
X128516000Y-61132000D02*
X127516000Y-61132000D01*
X123108000Y-61234000D02*
X123108000Y-62234000D01*
X121748000Y-62234000D02*
X121748000Y-61234000D01*
X131183000Y-52369000D02*
X130183000Y-52369000D01*
X130183000Y-51009000D02*
X131183000Y-51009000D01*
X131183000Y-53893000D02*
X130183000Y-53893000D01*
X130183000Y-52533000D02*
X131183000Y-52533000D01*
D11*
X131849000Y-54832000D02*
X131849000Y-55607000D01*
X127549000Y-59132000D02*
X127549000Y-58357000D01*
X131849000Y-59132000D02*
X131849000Y-58357000D01*
X127549000Y-54832000D02*
X128324000Y-54832000D01*
X127549000Y-59132000D02*
X128324000Y-59132000D01*
X131849000Y-59132000D02*
X131074000Y-59132000D01*
X131849000Y-54832000D02*
X131074000Y-54832000D01*
D13*
X121991000Y-57021000D02*
X122921000Y-57021000D01*
X125151000Y-57021000D02*
X124221000Y-57021000D01*
X125151000Y-57021000D02*
X125151000Y-54861000D01*
X121991000Y-57021000D02*
X121991000Y-55561000D01*
D11*
M02*
