G04 #@! TF.FileFunction,Profile,NP*
%FSLAX46Y46*%
G04 Gerber Fmt 4.6, Leading zero omitted, Abs format (unit mm)*
G04 Created by KiCad (PCBNEW 4.0.5+dfsg1-4) date Mon Jul 16 11:57:44 2018*
%MOMM*%
%LPD*%
G01*
G04 APERTURE LIST*
%ADD10C,0.100000*%
%ADD11C,0.150000*%
G04 APERTURE END LIST*
D10*
X181483000Y-69342000D02*
X181483000Y-65278000D01*
X181483000Y-70993000D02*
X181483000Y-69342000D01*
X181483000Y-81407000D02*
X181483000Y-73533000D01*
X181483000Y-88011000D02*
X181483000Y-83947000D01*
X181483000Y-89662000D02*
X181483000Y-88011000D01*
X181483000Y-141605000D02*
X181483000Y-139954000D01*
X181483000Y-141605000D02*
X189103000Y-141605000D01*
X181483000Y-137414000D02*
X181483000Y-129540000D01*
X181483000Y-125349000D02*
X181483000Y-121285000D01*
X181483000Y-127000000D02*
X181483000Y-125349000D01*
X181483000Y-118745000D02*
X181483000Y-110871000D01*
X181483000Y-108331000D02*
X181483000Y-106680000D01*
X181483000Y-52324000D02*
X181483000Y-50673000D01*
X181483000Y-50673000D02*
X189103000Y-50673000D01*
X181483000Y-62738000D02*
X181483000Y-54864000D01*
X189103000Y-50673000D02*
X189103000Y-141605000D01*
X181483000Y-106680000D02*
X181483000Y-102616000D01*
X181483000Y-100076000D02*
X181483000Y-92202000D01*
X107315000Y-141605000D02*
X107315000Y-50673000D01*
X114935000Y-141605000D02*
X107315000Y-141605000D01*
X114935000Y-122936000D02*
X114935000Y-127000000D01*
X114935000Y-121285000D02*
X114935000Y-122936000D01*
X114935000Y-92202000D02*
X114935000Y-100076000D01*
X114935000Y-129540000D02*
X114935000Y-137414000D01*
X114935000Y-139954000D02*
X114935000Y-141605000D01*
X114935000Y-110871000D02*
X114935000Y-118745000D01*
X114935000Y-104267000D02*
X114935000Y-108331000D01*
X114935000Y-102616000D02*
X114935000Y-104267000D01*
X114935000Y-54864000D02*
X114935000Y-62738000D01*
X114935000Y-83947000D02*
X114935000Y-85598000D01*
X114935000Y-85598000D02*
X114935000Y-89662000D01*
X114935000Y-50673000D02*
X114935000Y-52324000D01*
X114935000Y-65278000D02*
X114935000Y-66929000D01*
X114935000Y-73533000D02*
X114935000Y-81407000D01*
X114935000Y-66929000D02*
X114935000Y-70993000D01*
X117475000Y-139954000D02*
X117475000Y-141605000D01*
X136271000Y-125349000D02*
X117475000Y-125349000D01*
X117475000Y-141605000D02*
X136271000Y-141605000D01*
X117475000Y-129540000D02*
X117475000Y-137414000D01*
X136271000Y-125349000D02*
X136271000Y-127000000D01*
X117475000Y-125349000D02*
X117475000Y-127000000D01*
X138811000Y-125349000D02*
X138811000Y-127000000D01*
X157607000Y-125349000D02*
X138811000Y-125349000D01*
X138811000Y-141605000D02*
X157607000Y-141605000D01*
X138811000Y-139954000D02*
X138811000Y-141605000D01*
X136271000Y-129540000D02*
X136271000Y-137414000D01*
X138811000Y-129540000D02*
X138811000Y-137414000D01*
X136271000Y-139954000D02*
X136271000Y-141605000D01*
X178943000Y-139954000D02*
X178943000Y-141605000D01*
X160147000Y-141605000D02*
X178943000Y-141605000D01*
X160147000Y-139954000D02*
X160147000Y-141605000D01*
X157607000Y-139954000D02*
X157607000Y-141605000D01*
X160147000Y-129540000D02*
X160147000Y-137414000D01*
X178943000Y-125349000D02*
X178943000Y-127000000D01*
X178943000Y-129540000D02*
X178943000Y-137414000D01*
X160147000Y-125349000D02*
X160147000Y-127000000D01*
X157607000Y-129540000D02*
X157607000Y-137414000D01*
X157607000Y-125349000D02*
X157607000Y-127000000D01*
X178943000Y-125349000D02*
X160147000Y-125349000D01*
X136271000Y-110871000D02*
X136271000Y-118745000D01*
X138811000Y-110871000D02*
X138811000Y-118745000D01*
X138811000Y-121285000D02*
X138811000Y-122936000D01*
X138811000Y-122936000D02*
X157607000Y-122936000D01*
X157607000Y-106680000D02*
X138811000Y-106680000D01*
X138811000Y-106680000D02*
X138811000Y-108331000D01*
X136271000Y-106680000D02*
X136271000Y-108331000D01*
X117475000Y-122936000D02*
X136271000Y-122936000D01*
X117475000Y-110871000D02*
X117475000Y-118745000D01*
X117475000Y-121285000D02*
X117475000Y-122936000D01*
X136271000Y-121285000D02*
X136271000Y-122936000D01*
X136271000Y-106680000D02*
X117475000Y-106680000D01*
X117475000Y-106680000D02*
X117475000Y-108331000D01*
X160147000Y-110871000D02*
X160147000Y-118745000D01*
X160147000Y-121285000D02*
X160147000Y-122936000D01*
X157607000Y-110871000D02*
X157607000Y-118745000D01*
X157607000Y-121285000D02*
X157607000Y-122936000D01*
X160147000Y-106680000D02*
X160147000Y-108331000D01*
X157607000Y-106680000D02*
X157607000Y-108331000D01*
X178943000Y-110871000D02*
X178943000Y-118745000D01*
X178943000Y-106680000D02*
X178943000Y-108331000D01*
X160147000Y-122936000D02*
X178943000Y-122936000D01*
X178943000Y-106680000D02*
X160147000Y-106680000D01*
X178943000Y-121285000D02*
X178943000Y-122936000D01*
X178943000Y-88011000D02*
X160147000Y-88011000D01*
X178943000Y-88011000D02*
X178943000Y-89662000D01*
X178943000Y-102616000D02*
X178943000Y-104267000D01*
X178943000Y-92202000D02*
X178943000Y-100076000D01*
X160147000Y-104267000D02*
X178943000Y-104267000D01*
X160147000Y-88011000D02*
X160147000Y-89662000D01*
X157607000Y-88011000D02*
X157607000Y-89662000D01*
X157607000Y-102616000D02*
X157607000Y-104267000D01*
X138811000Y-104267000D02*
X157607000Y-104267000D01*
X157607000Y-92202000D02*
X157607000Y-100076000D01*
X160147000Y-92202000D02*
X160147000Y-100076000D01*
X160147000Y-102616000D02*
X160147000Y-104267000D01*
X157607000Y-88011000D02*
X138811000Y-88011000D01*
X117475000Y-92202000D02*
X117475000Y-100076000D01*
X136271000Y-88011000D02*
X136271000Y-89662000D01*
X138811000Y-88011000D02*
X138811000Y-89662000D01*
X117475000Y-88011000D02*
X117475000Y-89662000D01*
X117475000Y-102616000D02*
X117475000Y-104267000D01*
X136271000Y-88011000D02*
X117475000Y-88011000D01*
X117475000Y-104267000D02*
X136271000Y-104267000D01*
X138811000Y-102616000D02*
X138811000Y-104267000D01*
X136271000Y-92202000D02*
X136271000Y-100076000D01*
X136271000Y-102616000D02*
X136271000Y-104267000D01*
X138811000Y-92202000D02*
X138811000Y-100076000D01*
X160147000Y-83947000D02*
X160147000Y-85598000D01*
X178943000Y-69342000D02*
X160147000Y-69342000D01*
X160147000Y-69342000D02*
X160147000Y-70993000D01*
X178943000Y-83947000D02*
X178943000Y-85598000D01*
X160147000Y-85598000D02*
X178943000Y-85598000D01*
X178943000Y-69342000D02*
X178943000Y-70993000D01*
X178943000Y-73533000D02*
X178943000Y-81407000D01*
X160147000Y-73533000D02*
X160147000Y-81407000D01*
X136271000Y-83947000D02*
X136271000Y-85598000D01*
X117475000Y-83947000D02*
X117475000Y-85598000D01*
X117475000Y-85598000D02*
X136271000Y-85598000D01*
X136271000Y-69342000D02*
X117475000Y-69342000D01*
X117475000Y-69342000D02*
X117475000Y-70993000D01*
X138811000Y-85598000D02*
X157607000Y-85598000D01*
X157607000Y-69342000D02*
X138811000Y-69342000D01*
X157607000Y-69342000D02*
X157607000Y-70993000D01*
X138811000Y-83947000D02*
X138811000Y-85598000D01*
X157607000Y-73533000D02*
X157607000Y-81407000D01*
X157607000Y-83947000D02*
X157607000Y-85598000D01*
X138811000Y-69342000D02*
X138811000Y-70993000D01*
X136271000Y-69342000D02*
X136271000Y-70993000D01*
X138811000Y-73533000D02*
X138811000Y-81407000D01*
X136271000Y-73533000D02*
X136271000Y-81407000D01*
X117475000Y-73533000D02*
X117475000Y-81407000D01*
X114935000Y-50673000D02*
X107315000Y-50673000D01*
X178943000Y-50673000D02*
X178943000Y-52324000D01*
X178943000Y-54864000D02*
X178943000Y-62738000D01*
X178943000Y-65278000D02*
X178943000Y-66929000D01*
X178943000Y-50673000D02*
X160147000Y-50673000D01*
X160147000Y-65278000D02*
X160147000Y-66929000D01*
X160147000Y-66929000D02*
X178943000Y-66929000D01*
X160147000Y-50673000D02*
X160147000Y-52324000D01*
X160147000Y-54864000D02*
X160147000Y-62738000D01*
X157607000Y-65278000D02*
X157607000Y-66929000D01*
X157607000Y-54864000D02*
X157607000Y-62738000D01*
X138811000Y-65278000D02*
X138811000Y-66929000D01*
X157607000Y-50673000D02*
X157607000Y-52324000D01*
X157607000Y-50673000D02*
X138811000Y-50673000D01*
X138811000Y-66929000D02*
X157607000Y-66929000D01*
X138811000Y-50673000D02*
X138811000Y-52324000D01*
X138811000Y-54864000D02*
X138811000Y-62738000D01*
X136271000Y-50673000D02*
X136271000Y-52324000D01*
X136271000Y-65278000D02*
X136271000Y-66929000D01*
X136271000Y-54864000D02*
X136271000Y-62738000D01*
X117475000Y-65278000D02*
X117475000Y-66929000D01*
X117475000Y-54864000D02*
X117475000Y-62738000D01*
X117475000Y-50673000D02*
X117475000Y-52324000D01*
X117475000Y-66929000D02*
X136271000Y-66929000D01*
X136271000Y-50673000D02*
X117475000Y-50673000D01*
D11*
X160147000Y-139954000D02*
X157607000Y-139954000D01*
X157607000Y-137414000D02*
X160147000Y-137414000D01*
X160147000Y-129540000D02*
X157607000Y-129540000D01*
X157607000Y-127000000D02*
X160147000Y-127000000D01*
X138811000Y-139954000D02*
X136271000Y-139954000D01*
X136271000Y-137414000D02*
X138811000Y-137414000D01*
X181483000Y-139954000D02*
X178943000Y-139954000D01*
X178943000Y-137414000D02*
X181483000Y-137414000D01*
X181483000Y-129540000D02*
X178943000Y-129540000D01*
X178943000Y-127000000D02*
X181483000Y-127000000D01*
X117475000Y-129540000D02*
X114935000Y-129540000D01*
X114935000Y-127000000D02*
X117475000Y-127000000D01*
X117475000Y-139954000D02*
X114935000Y-139954000D01*
X114935000Y-137414000D02*
X117475000Y-137414000D01*
X138811000Y-129540000D02*
X136271000Y-129540000D01*
X136271000Y-127000000D02*
X138811000Y-127000000D01*
X117475000Y-121285000D02*
X114935000Y-121285000D01*
X114935000Y-118745000D02*
X117475000Y-118745000D01*
X117475000Y-110871000D02*
X114935000Y-110871000D01*
X114935000Y-108331000D02*
X117475000Y-108331000D01*
X181483000Y-121285000D02*
X178943000Y-121285000D01*
X178943000Y-118745000D02*
X181483000Y-118745000D01*
X160147000Y-121285000D02*
X157607000Y-121285000D01*
X157607000Y-118745000D02*
X160147000Y-118745000D01*
X160147000Y-110871000D02*
X157607000Y-110871000D01*
X157607000Y-108331000D02*
X160147000Y-108331000D01*
X181483000Y-110871000D02*
X178943000Y-110871000D01*
X178943000Y-108331000D02*
X181483000Y-108331000D01*
X138811000Y-121285000D02*
X136271000Y-121285000D01*
X136271000Y-118745000D02*
X138811000Y-118745000D01*
X138811000Y-110871000D02*
X136271000Y-110871000D01*
X136271000Y-108331000D02*
X138811000Y-108331000D01*
X181483000Y-102616000D02*
X178943000Y-102616000D01*
X178943000Y-100076000D02*
X181483000Y-100076000D01*
X181483000Y-92202000D02*
X178943000Y-92202000D01*
X178943000Y-89662000D02*
X181483000Y-89662000D01*
X160147000Y-102616000D02*
X157607000Y-102616000D01*
X157607000Y-100076000D02*
X160147000Y-100076000D01*
X160147000Y-92202000D02*
X157607000Y-92202000D01*
X157607000Y-89662000D02*
X160147000Y-89662000D01*
X138811000Y-92202000D02*
X136271000Y-92202000D01*
X136271000Y-89662000D02*
X138811000Y-89662000D01*
X117475000Y-92202000D02*
X114935000Y-92202000D01*
X114935000Y-89662000D02*
X117475000Y-89662000D01*
X117475000Y-102616000D02*
X114935000Y-102616000D01*
X114935000Y-100076000D02*
X117475000Y-100076000D01*
X138811000Y-102616000D02*
X136271000Y-102616000D01*
X136271000Y-100076000D02*
X138811000Y-100076000D01*
X181483000Y-73533000D02*
X178943000Y-73533000D01*
X178943000Y-70993000D02*
X181483000Y-70993000D01*
X160147000Y-83947000D02*
X157607000Y-83947000D01*
X157607000Y-81407000D02*
X160147000Y-81407000D01*
X181483000Y-83947000D02*
X178943000Y-83947000D01*
X178943000Y-81407000D02*
X181483000Y-81407000D01*
X160147000Y-73533000D02*
X157607000Y-73533000D01*
X157607000Y-70993000D02*
X160147000Y-70993000D01*
X117475000Y-73533000D02*
X114935000Y-73533000D01*
X114935000Y-70993000D02*
X117475000Y-70993000D01*
X138811000Y-83947000D02*
X136271000Y-83947000D01*
X136271000Y-81407000D02*
X138811000Y-81407000D01*
X138811000Y-73533000D02*
X136271000Y-73533000D01*
X136271000Y-70993000D02*
X138811000Y-70993000D01*
X117475000Y-83947000D02*
X114935000Y-83947000D01*
X114935000Y-81407000D02*
X117475000Y-81407000D01*
X181483000Y-54864000D02*
X178943000Y-54864000D01*
X178943000Y-52324000D02*
X181483000Y-52324000D01*
X181483000Y-65278000D02*
X178943000Y-65278000D01*
X178943000Y-62738000D02*
X181483000Y-62738000D01*
X160147000Y-54864000D02*
X157607000Y-54864000D01*
X157607000Y-52324000D02*
X160147000Y-52324000D01*
X160147000Y-65278000D02*
X157607000Y-65278000D01*
X157607000Y-62738000D02*
X160147000Y-62738000D01*
X138811000Y-65278000D02*
X136271000Y-65278000D01*
X136271000Y-62738000D02*
X138811000Y-62738000D01*
X138811000Y-54864000D02*
X136271000Y-54864000D01*
X136271000Y-52324000D02*
X138811000Y-52324000D01*
X117475000Y-65278000D02*
X114935000Y-65278000D01*
X114935000Y-62738000D02*
X117475000Y-62738000D01*
X117475000Y-54864000D02*
X114935000Y-54864000D01*
X114935000Y-52324000D02*
X117475000Y-52324000D01*
M02*
