G04 #@! TF.FileFunction,Paste,Top*
%FSLAX46Y46*%
G04 Gerber Fmt 4.6, Leading zero omitted, Abs format (unit mm)*
G04 Created by KiCad (PCBNEW 4.0.5+dfsg1-4) date Mon Jul 16 11:57:44 2018*
%MOMM*%
%LPD*%
G01*
G04 APERTURE LIST*
%ADD10C,0.100000*%
%ADD11R,0.900000X0.500000*%
%ADD12R,0.800000X0.800000*%
%ADD13R,0.800000X0.900000*%
%ADD14R,0.800000X0.750000*%
%ADD15R,0.500000X0.900000*%
%ADD16R,0.450000X1.380000*%
%ADD17R,1.475000X2.100000*%
%ADD18R,2.375000X1.900000*%
%ADD19R,1.175000X1.900000*%
%ADD20R,0.750000X0.800000*%
%ADD21R,0.800000X0.350000*%
%ADD22R,0.350000X0.800000*%
%ADD23R,0.750000X0.750000*%
G04 APERTURE END LIST*
D10*
D11*
X165100000Y-137160000D03*
X165100000Y-135660000D03*
D12*
X165100000Y-138481000D03*
X165100000Y-140081000D03*
D13*
X167193000Y-129937000D03*
X165293000Y-129937000D03*
X166243000Y-131937000D03*
D14*
X167120000Y-128397000D03*
X165620000Y-128397000D03*
D11*
X143764000Y-137160000D03*
X143764000Y-135660000D03*
D12*
X143764000Y-138481000D03*
X143764000Y-140081000D03*
D14*
X146788000Y-133477000D03*
X145288000Y-133477000D03*
D15*
X145923000Y-135128000D03*
X147423000Y-135128000D03*
D16*
X148101000Y-137421000D03*
X148751000Y-137421000D03*
X149401000Y-137421000D03*
X150051000Y-137421000D03*
X150701000Y-137421000D03*
D17*
X146938500Y-137781000D03*
X151863500Y-137781000D03*
D18*
X146491000Y-140081000D03*
X152311000Y-140081000D03*
D19*
X148561000Y-140081000D03*
X150241000Y-140081000D03*
D14*
X153289000Y-135128000D03*
X151789000Y-135128000D03*
D15*
X150102000Y-135128000D03*
X148602000Y-135128000D03*
X151269000Y-126365000D03*
X152769000Y-126365000D03*
D12*
X149898000Y-126365000D03*
X148298000Y-126365000D03*
D20*
X147574000Y-131814000D03*
X147574000Y-130314000D03*
D21*
X149035000Y-130683000D03*
X149035000Y-131333000D03*
X149035000Y-131983000D03*
X149035000Y-132633000D03*
D22*
X150060000Y-133658000D03*
X150710000Y-133658000D03*
X151360000Y-133658000D03*
X152010000Y-133658000D03*
D21*
X153035000Y-132633000D03*
X153035000Y-131983000D03*
X153035000Y-131333000D03*
X153035000Y-130683000D03*
D22*
X152010000Y-129658000D03*
X151360000Y-129658000D03*
X150710000Y-129658000D03*
X150060000Y-129658000D03*
D23*
X151660000Y-132283000D03*
X151660000Y-131033000D03*
X150410000Y-132283000D03*
X150410000Y-131033000D03*
D12*
X149936000Y-127889000D03*
X148336000Y-127889000D03*
D15*
X151269000Y-127889000D03*
X152769000Y-127889000D03*
D20*
X168910000Y-131814000D03*
X168910000Y-130314000D03*
D21*
X170371000Y-130683000D03*
X170371000Y-131333000D03*
X170371000Y-131983000D03*
X170371000Y-132633000D03*
D22*
X171396000Y-133658000D03*
X172046000Y-133658000D03*
X172696000Y-133658000D03*
X173346000Y-133658000D03*
D21*
X174371000Y-132633000D03*
X174371000Y-131983000D03*
X174371000Y-131333000D03*
X174371000Y-130683000D03*
D22*
X173346000Y-129658000D03*
X172696000Y-129658000D03*
X172046000Y-129658000D03*
X171396000Y-129658000D03*
D23*
X172996000Y-132283000D03*
X172996000Y-131033000D03*
X171746000Y-132283000D03*
X171746000Y-131033000D03*
D14*
X174625000Y-135128000D03*
X173125000Y-135128000D03*
D15*
X171438000Y-135128000D03*
X169938000Y-135128000D03*
D16*
X169437000Y-137421000D03*
X170087000Y-137421000D03*
X170737000Y-137421000D03*
X171387000Y-137421000D03*
X172037000Y-137421000D03*
D17*
X168274500Y-137781000D03*
X173199500Y-137781000D03*
D18*
X167827000Y-140081000D03*
X173647000Y-140081000D03*
D19*
X169897000Y-140081000D03*
X171577000Y-140081000D03*
D14*
X168124000Y-133477000D03*
X166624000Y-133477000D03*
D15*
X167259000Y-135128000D03*
X168759000Y-135128000D03*
X172605000Y-126365000D03*
X174105000Y-126365000D03*
D12*
X171272000Y-127889000D03*
X169672000Y-127889000D03*
D15*
X172605000Y-127889000D03*
X174105000Y-127889000D03*
D12*
X171234000Y-126365000D03*
X169634000Y-126365000D03*
D11*
X122428000Y-137160000D03*
X122428000Y-135660000D03*
D12*
X122428000Y-138481000D03*
X122428000Y-140081000D03*
D16*
X126765000Y-137421000D03*
X127415000Y-137421000D03*
X128065000Y-137421000D03*
X128715000Y-137421000D03*
X129365000Y-137421000D03*
D17*
X125602500Y-137781000D03*
X130527500Y-137781000D03*
D18*
X125155000Y-140081000D03*
X130975000Y-140081000D03*
D19*
X127225000Y-140081000D03*
X128905000Y-140081000D03*
D14*
X131953000Y-135128000D03*
X130453000Y-135128000D03*
D15*
X128766000Y-135128000D03*
X127266000Y-135128000D03*
D21*
X127699000Y-130683000D03*
X127699000Y-131333000D03*
X127699000Y-131983000D03*
X127699000Y-132633000D03*
D22*
X128724000Y-133658000D03*
X129374000Y-133658000D03*
X130024000Y-133658000D03*
X130674000Y-133658000D03*
D21*
X131699000Y-132633000D03*
X131699000Y-131983000D03*
X131699000Y-131333000D03*
X131699000Y-130683000D03*
D22*
X130674000Y-129658000D03*
X130024000Y-129658000D03*
X129374000Y-129658000D03*
X128724000Y-129658000D03*
D23*
X130324000Y-132283000D03*
X130324000Y-131033000D03*
X129074000Y-132283000D03*
X129074000Y-131033000D03*
D15*
X129933000Y-127889000D03*
X131433000Y-127889000D03*
D12*
X128600000Y-127889000D03*
X127000000Y-127889000D03*
X128562000Y-126365000D03*
X126962000Y-126365000D03*
D15*
X129933000Y-126365000D03*
X131433000Y-126365000D03*
X124587000Y-135128000D03*
X126087000Y-135128000D03*
D14*
X125452000Y-133477000D03*
X123952000Y-133477000D03*
X124448000Y-128397000D03*
X122948000Y-128397000D03*
D20*
X126238000Y-131814000D03*
X126238000Y-130314000D03*
D13*
X124521000Y-129937000D03*
X122621000Y-129937000D03*
X123571000Y-131937000D03*
D14*
X145784000Y-128397000D03*
X144284000Y-128397000D03*
D13*
X145857000Y-129937000D03*
X143957000Y-129937000D03*
X144907000Y-131937000D03*
D15*
X129933000Y-109220000D03*
X131433000Y-109220000D03*
X129933000Y-107696000D03*
X131433000Y-107696000D03*
D12*
X128600000Y-109220000D03*
X127000000Y-109220000D03*
X128562000Y-107696000D03*
X126962000Y-107696000D03*
D16*
X126765000Y-118752000D03*
X127415000Y-118752000D03*
X128065000Y-118752000D03*
X128715000Y-118752000D03*
X129365000Y-118752000D03*
D17*
X125602500Y-119112000D03*
X130527500Y-119112000D03*
D18*
X125155000Y-121412000D03*
X130975000Y-121412000D03*
D19*
X127225000Y-121412000D03*
X128905000Y-121412000D03*
D14*
X125452000Y-114808000D03*
X123952000Y-114808000D03*
D21*
X127699000Y-112014000D03*
X127699000Y-112664000D03*
X127699000Y-113314000D03*
X127699000Y-113964000D03*
D22*
X128724000Y-114989000D03*
X129374000Y-114989000D03*
X130024000Y-114989000D03*
X130674000Y-114989000D03*
D21*
X131699000Y-113964000D03*
X131699000Y-113314000D03*
X131699000Y-112664000D03*
X131699000Y-112014000D03*
D22*
X130674000Y-110989000D03*
X130024000Y-110989000D03*
X129374000Y-110989000D03*
X128724000Y-110989000D03*
D23*
X130324000Y-113614000D03*
X130324000Y-112364000D03*
X129074000Y-113614000D03*
X129074000Y-112364000D03*
D15*
X128766000Y-116459000D03*
X127266000Y-116459000D03*
X124587000Y-116459000D03*
X126087000Y-116459000D03*
D14*
X131953000Y-116459000D03*
X130453000Y-116459000D03*
D20*
X126238000Y-113145000D03*
X126238000Y-111645000D03*
D12*
X122428000Y-119812000D03*
X122428000Y-121412000D03*
D11*
X122428000Y-118491000D03*
X122428000Y-116991000D03*
D13*
X124521000Y-111268000D03*
X122621000Y-111268000D03*
X123571000Y-113268000D03*
D14*
X124448000Y-109728000D03*
X122948000Y-109728000D03*
X174625000Y-116459000D03*
X173125000Y-116459000D03*
D15*
X171438000Y-116459000D03*
X169938000Y-116459000D03*
D16*
X169437000Y-118752000D03*
X170087000Y-118752000D03*
X170737000Y-118752000D03*
X171387000Y-118752000D03*
X172037000Y-118752000D03*
D17*
X168274500Y-119112000D03*
X173199500Y-119112000D03*
D18*
X167827000Y-121412000D03*
X173647000Y-121412000D03*
D19*
X169897000Y-121412000D03*
X171577000Y-121412000D03*
D14*
X168124000Y-114808000D03*
X166624000Y-114808000D03*
D15*
X167259000Y-116459000D03*
X168759000Y-116459000D03*
D12*
X165100000Y-119812000D03*
X165100000Y-121412000D03*
D11*
X165100000Y-118491000D03*
X165100000Y-116991000D03*
D14*
X167120000Y-109728000D03*
X165620000Y-109728000D03*
D13*
X167193000Y-111268000D03*
X165293000Y-111268000D03*
X166243000Y-113268000D03*
D15*
X172605000Y-107696000D03*
X174105000Y-107696000D03*
D21*
X170371000Y-112014000D03*
X170371000Y-112664000D03*
X170371000Y-113314000D03*
X170371000Y-113964000D03*
D22*
X171396000Y-114989000D03*
X172046000Y-114989000D03*
X172696000Y-114989000D03*
X173346000Y-114989000D03*
D21*
X174371000Y-113964000D03*
X174371000Y-113314000D03*
X174371000Y-112664000D03*
X174371000Y-112014000D03*
D22*
X173346000Y-110989000D03*
X172696000Y-110989000D03*
X172046000Y-110989000D03*
X171396000Y-110989000D03*
D23*
X172996000Y-113614000D03*
X172996000Y-112364000D03*
X171746000Y-113614000D03*
X171746000Y-112364000D03*
D20*
X168910000Y-113145000D03*
X168910000Y-111645000D03*
D12*
X171272000Y-109220000D03*
X169672000Y-109220000D03*
D15*
X172605000Y-109220000D03*
X174105000Y-109220000D03*
D12*
X171234000Y-107696000D03*
X169634000Y-107696000D03*
D14*
X146788000Y-114808000D03*
X145288000Y-114808000D03*
X145784000Y-109728000D03*
X144284000Y-109728000D03*
D13*
X145857000Y-111268000D03*
X143957000Y-111268000D03*
X144907000Y-113268000D03*
D16*
X148101000Y-118752000D03*
X148751000Y-118752000D03*
X149401000Y-118752000D03*
X150051000Y-118752000D03*
X150701000Y-118752000D03*
D17*
X146938500Y-119112000D03*
X151863500Y-119112000D03*
D18*
X146491000Y-121412000D03*
X152311000Y-121412000D03*
D19*
X148561000Y-121412000D03*
X150241000Y-121412000D03*
D11*
X143764000Y-118491000D03*
X143764000Y-116991000D03*
D12*
X143764000Y-119812000D03*
X143764000Y-121412000D03*
D20*
X147574000Y-113145000D03*
X147574000Y-111645000D03*
D14*
X153289000Y-116459000D03*
X151789000Y-116459000D03*
D15*
X145923000Y-116459000D03*
X147423000Y-116459000D03*
D21*
X149035000Y-112014000D03*
X149035000Y-112664000D03*
X149035000Y-113314000D03*
X149035000Y-113964000D03*
D22*
X150060000Y-114989000D03*
X150710000Y-114989000D03*
X151360000Y-114989000D03*
X152010000Y-114989000D03*
D21*
X153035000Y-113964000D03*
X153035000Y-113314000D03*
X153035000Y-112664000D03*
X153035000Y-112014000D03*
D22*
X152010000Y-110989000D03*
X151360000Y-110989000D03*
X150710000Y-110989000D03*
X150060000Y-110989000D03*
D23*
X151660000Y-113614000D03*
X151660000Y-112364000D03*
X150410000Y-113614000D03*
X150410000Y-112364000D03*
D15*
X150102000Y-116459000D03*
X148602000Y-116459000D03*
X151269000Y-107696000D03*
X152769000Y-107696000D03*
D12*
X149898000Y-107696000D03*
X148298000Y-107696000D03*
X149936000Y-109220000D03*
X148336000Y-109220000D03*
D15*
X151269000Y-109220000D03*
X152769000Y-109220000D03*
X172605000Y-89027000D03*
X174105000Y-89027000D03*
D12*
X171272000Y-90551000D03*
X169672000Y-90551000D03*
X171234000Y-89027000D03*
X169634000Y-89027000D03*
D15*
X172605000Y-90551000D03*
X174105000Y-90551000D03*
D21*
X170371000Y-93345000D03*
X170371000Y-93995000D03*
X170371000Y-94645000D03*
X170371000Y-95295000D03*
D22*
X171396000Y-96320000D03*
X172046000Y-96320000D03*
X172696000Y-96320000D03*
X173346000Y-96320000D03*
D21*
X174371000Y-95295000D03*
X174371000Y-94645000D03*
X174371000Y-93995000D03*
X174371000Y-93345000D03*
D22*
X173346000Y-92320000D03*
X172696000Y-92320000D03*
X172046000Y-92320000D03*
X171396000Y-92320000D03*
D23*
X172996000Y-94945000D03*
X172996000Y-93695000D03*
X171746000Y-94945000D03*
X171746000Y-93695000D03*
D20*
X168910000Y-94476000D03*
X168910000Y-92976000D03*
D14*
X168124000Y-96139000D03*
X166624000Y-96139000D03*
X167120000Y-91059000D03*
X165620000Y-91059000D03*
D13*
X167193000Y-92599000D03*
X165293000Y-92599000D03*
X166243000Y-94599000D03*
D15*
X171438000Y-97790000D03*
X169938000Y-97790000D03*
D11*
X165100000Y-99822000D03*
X165100000Y-98322000D03*
D16*
X169437000Y-100083000D03*
X170087000Y-100083000D03*
X170737000Y-100083000D03*
X171387000Y-100083000D03*
X172037000Y-100083000D03*
D17*
X168274500Y-100443000D03*
X173199500Y-100443000D03*
D18*
X167827000Y-102743000D03*
X173647000Y-102743000D03*
D19*
X169897000Y-102743000D03*
X171577000Y-102743000D03*
D12*
X165100000Y-101143000D03*
X165100000Y-102743000D03*
D15*
X167259000Y-97790000D03*
X168759000Y-97790000D03*
D14*
X174625000Y-97790000D03*
X173125000Y-97790000D03*
D12*
X149936000Y-90551000D03*
X148336000Y-90551000D03*
D15*
X151269000Y-90551000D03*
X152769000Y-90551000D03*
X151269000Y-89027000D03*
X152769000Y-89027000D03*
D12*
X149898000Y-89027000D03*
X148298000Y-89027000D03*
D14*
X145784000Y-91059000D03*
X144284000Y-91059000D03*
D20*
X147574000Y-94476000D03*
X147574000Y-92976000D03*
D15*
X150102000Y-97790000D03*
X148602000Y-97790000D03*
D16*
X148101000Y-100083000D03*
X148751000Y-100083000D03*
X149401000Y-100083000D03*
X150051000Y-100083000D03*
X150701000Y-100083000D03*
D17*
X146938500Y-100443000D03*
X151863500Y-100443000D03*
D18*
X146491000Y-102743000D03*
X152311000Y-102743000D03*
D19*
X148561000Y-102743000D03*
X150241000Y-102743000D03*
D13*
X145857000Y-92599000D03*
X143957000Y-92599000D03*
X144907000Y-94599000D03*
D21*
X149035000Y-93345000D03*
X149035000Y-93995000D03*
X149035000Y-94645000D03*
X149035000Y-95295000D03*
D22*
X150060000Y-96320000D03*
X150710000Y-96320000D03*
X151360000Y-96320000D03*
X152010000Y-96320000D03*
D21*
X153035000Y-95295000D03*
X153035000Y-94645000D03*
X153035000Y-93995000D03*
X153035000Y-93345000D03*
D22*
X152010000Y-92320000D03*
X151360000Y-92320000D03*
X150710000Y-92320000D03*
X150060000Y-92320000D03*
D23*
X151660000Y-94945000D03*
X151660000Y-93695000D03*
X150410000Y-94945000D03*
X150410000Y-93695000D03*
D15*
X145923000Y-97790000D03*
X147423000Y-97790000D03*
D14*
X153289000Y-97790000D03*
X151789000Y-97790000D03*
D20*
X126238000Y-94476000D03*
X126238000Y-92976000D03*
D14*
X125452000Y-96139000D03*
X123952000Y-96139000D03*
D21*
X127699000Y-93345000D03*
X127699000Y-93995000D03*
X127699000Y-94645000D03*
X127699000Y-95295000D03*
D22*
X128724000Y-96320000D03*
X129374000Y-96320000D03*
X130024000Y-96320000D03*
X130674000Y-96320000D03*
D21*
X131699000Y-95295000D03*
X131699000Y-94645000D03*
X131699000Y-93995000D03*
X131699000Y-93345000D03*
D22*
X130674000Y-92320000D03*
X130024000Y-92320000D03*
X129374000Y-92320000D03*
X128724000Y-92320000D03*
D23*
X130324000Y-94945000D03*
X130324000Y-93695000D03*
X129074000Y-94945000D03*
X129074000Y-93695000D03*
D15*
X124587000Y-97790000D03*
X126087000Y-97790000D03*
D16*
X126765000Y-100083000D03*
X127415000Y-100083000D03*
X128065000Y-100083000D03*
X128715000Y-100083000D03*
X129365000Y-100083000D03*
D17*
X125602500Y-100443000D03*
X130527500Y-100443000D03*
D18*
X125155000Y-102743000D03*
X130975000Y-102743000D03*
D19*
X127225000Y-102743000D03*
X128905000Y-102743000D03*
D15*
X128766000Y-97790000D03*
X127266000Y-97790000D03*
D14*
X131953000Y-97790000D03*
X130453000Y-97790000D03*
D13*
X124521000Y-92599000D03*
X122621000Y-92599000D03*
X123571000Y-94599000D03*
D11*
X122428000Y-99822000D03*
X122428000Y-98322000D03*
D12*
X122428000Y-101143000D03*
X122428000Y-102743000D03*
D14*
X124448000Y-91059000D03*
X122948000Y-91059000D03*
D15*
X129933000Y-89027000D03*
X131433000Y-89027000D03*
D12*
X128600000Y-90551000D03*
X127000000Y-90551000D03*
X128562000Y-89027000D03*
X126962000Y-89027000D03*
D15*
X129933000Y-90551000D03*
X131433000Y-90551000D03*
D12*
X143764000Y-101143000D03*
X143764000Y-102743000D03*
D14*
X146788000Y-96139000D03*
X145288000Y-96139000D03*
D11*
X143764000Y-99822000D03*
X143764000Y-98322000D03*
D15*
X172605000Y-71882000D03*
X174105000Y-71882000D03*
X172605000Y-70358000D03*
X174105000Y-70358000D03*
D21*
X170371000Y-74676000D03*
X170371000Y-75326000D03*
X170371000Y-75976000D03*
X170371000Y-76626000D03*
D22*
X171396000Y-77651000D03*
X172046000Y-77651000D03*
X172696000Y-77651000D03*
X173346000Y-77651000D03*
D21*
X174371000Y-76626000D03*
X174371000Y-75976000D03*
X174371000Y-75326000D03*
X174371000Y-74676000D03*
D22*
X173346000Y-73651000D03*
X172696000Y-73651000D03*
X172046000Y-73651000D03*
X171396000Y-73651000D03*
D23*
X172996000Y-76276000D03*
X172996000Y-75026000D03*
X171746000Y-76276000D03*
X171746000Y-75026000D03*
D12*
X171272000Y-71882000D03*
X169672000Y-71882000D03*
X171234000Y-70358000D03*
X169634000Y-70358000D03*
X165100000Y-82474000D03*
X165100000Y-84074000D03*
D11*
X165100000Y-81153000D03*
X165100000Y-79653000D03*
D15*
X171438000Y-79121000D03*
X169938000Y-79121000D03*
D14*
X174625000Y-79121000D03*
X173125000Y-79121000D03*
D15*
X167259000Y-79121000D03*
X168759000Y-79121000D03*
D16*
X169437000Y-81414000D03*
X170087000Y-81414000D03*
X170737000Y-81414000D03*
X171387000Y-81414000D03*
X172037000Y-81414000D03*
D17*
X168274500Y-81774000D03*
X173199500Y-81774000D03*
D18*
X167827000Y-84074000D03*
X173647000Y-84074000D03*
D19*
X169897000Y-84074000D03*
X171577000Y-84074000D03*
D14*
X168124000Y-77470000D03*
X166624000Y-77470000D03*
X167120000Y-72390000D03*
X165620000Y-72390000D03*
D13*
X167193000Y-73930000D03*
X165293000Y-73930000D03*
X166243000Y-75930000D03*
D20*
X168910000Y-75807000D03*
X168910000Y-74307000D03*
D15*
X128766000Y-79121000D03*
X127266000Y-79121000D03*
X124587000Y-79121000D03*
X126087000Y-79121000D03*
D16*
X126765000Y-81414000D03*
X127415000Y-81414000D03*
X128065000Y-81414000D03*
X128715000Y-81414000D03*
X129365000Y-81414000D03*
D17*
X125602500Y-81774000D03*
X130527500Y-81774000D03*
D18*
X125155000Y-84074000D03*
X130975000Y-84074000D03*
D19*
X127225000Y-84074000D03*
X128905000Y-84074000D03*
D14*
X131953000Y-79121000D03*
X130453000Y-79121000D03*
D21*
X127699000Y-74676000D03*
X127699000Y-75326000D03*
X127699000Y-75976000D03*
X127699000Y-76626000D03*
D22*
X128724000Y-77651000D03*
X129374000Y-77651000D03*
X130024000Y-77651000D03*
X130674000Y-77651000D03*
D21*
X131699000Y-76626000D03*
X131699000Y-75976000D03*
X131699000Y-75326000D03*
X131699000Y-74676000D03*
D22*
X130674000Y-73651000D03*
X130024000Y-73651000D03*
X129374000Y-73651000D03*
X128724000Y-73651000D03*
D23*
X130324000Y-76276000D03*
X130324000Y-75026000D03*
X129074000Y-76276000D03*
X129074000Y-75026000D03*
D21*
X149035000Y-74676000D03*
X149035000Y-75326000D03*
X149035000Y-75976000D03*
X149035000Y-76626000D03*
D22*
X150060000Y-77651000D03*
X150710000Y-77651000D03*
X151360000Y-77651000D03*
X152010000Y-77651000D03*
D21*
X153035000Y-76626000D03*
X153035000Y-75976000D03*
X153035000Y-75326000D03*
X153035000Y-74676000D03*
D22*
X152010000Y-73651000D03*
X151360000Y-73651000D03*
X150710000Y-73651000D03*
X150060000Y-73651000D03*
D23*
X151660000Y-76276000D03*
X151660000Y-75026000D03*
X150410000Y-76276000D03*
X150410000Y-75026000D03*
D15*
X151269000Y-71882000D03*
X152769000Y-71882000D03*
D12*
X149936000Y-71882000D03*
X148336000Y-71882000D03*
D15*
X151269000Y-70358000D03*
X152769000Y-70358000D03*
D20*
X147574000Y-75807000D03*
X147574000Y-74307000D03*
D12*
X149898000Y-70358000D03*
X148298000Y-70358000D03*
D14*
X124448000Y-72390000D03*
X122948000Y-72390000D03*
D13*
X124521000Y-73930000D03*
X122621000Y-73930000D03*
X123571000Y-75930000D03*
D20*
X126238000Y-75807000D03*
X126238000Y-74307000D03*
D14*
X125452000Y-77470000D03*
X123952000Y-77470000D03*
D15*
X129933000Y-70358000D03*
X131433000Y-70358000D03*
D12*
X128600000Y-71882000D03*
X127000000Y-71882000D03*
D15*
X129933000Y-71882000D03*
X131433000Y-71882000D03*
D12*
X128562000Y-70358000D03*
X126962000Y-70358000D03*
D13*
X145857000Y-73930000D03*
X143957000Y-73930000D03*
X144907000Y-75930000D03*
D14*
X145784000Y-72390000D03*
X144284000Y-72390000D03*
X146788000Y-77470000D03*
X145288000Y-77470000D03*
D11*
X122428000Y-81153000D03*
X122428000Y-79653000D03*
D12*
X122428000Y-82474000D03*
X122428000Y-84074000D03*
D15*
X150102000Y-79121000D03*
X148602000Y-79121000D03*
D14*
X153289000Y-79121000D03*
X151789000Y-79121000D03*
D15*
X145923000Y-79121000D03*
X147423000Y-79121000D03*
D16*
X148101000Y-81414000D03*
X148751000Y-81414000D03*
X149401000Y-81414000D03*
X150051000Y-81414000D03*
X150701000Y-81414000D03*
D17*
X146938500Y-81774000D03*
X151863500Y-81774000D03*
D18*
X146491000Y-84074000D03*
X152311000Y-84074000D03*
D19*
X148561000Y-84074000D03*
X150241000Y-84074000D03*
D11*
X143764000Y-81153000D03*
X143764000Y-79653000D03*
D12*
X143764000Y-82474000D03*
X143764000Y-84074000D03*
D14*
X174625000Y-60452000D03*
X173125000Y-60452000D03*
D13*
X167193000Y-55261000D03*
X165293000Y-55261000D03*
X166243000Y-57261000D03*
D14*
X167120000Y-53721000D03*
X165620000Y-53721000D03*
X168124000Y-58801000D03*
X166624000Y-58801000D03*
D15*
X172605000Y-53213000D03*
X174105000Y-53213000D03*
D21*
X170371000Y-56007000D03*
X170371000Y-56657000D03*
X170371000Y-57307000D03*
X170371000Y-57957000D03*
D22*
X171396000Y-58982000D03*
X172046000Y-58982000D03*
X172696000Y-58982000D03*
X173346000Y-58982000D03*
D21*
X174371000Y-57957000D03*
X174371000Y-57307000D03*
X174371000Y-56657000D03*
X174371000Y-56007000D03*
D22*
X173346000Y-54982000D03*
X172696000Y-54982000D03*
X172046000Y-54982000D03*
X171396000Y-54982000D03*
D23*
X172996000Y-57607000D03*
X172996000Y-56357000D03*
X171746000Y-57607000D03*
X171746000Y-56357000D03*
D20*
X168910000Y-57138000D03*
X168910000Y-55638000D03*
D15*
X172605000Y-51689000D03*
X174105000Y-51689000D03*
D11*
X165100000Y-62484000D03*
X165100000Y-60984000D03*
D12*
X171272000Y-53213000D03*
X169672000Y-53213000D03*
X171234000Y-51689000D03*
X169634000Y-51689000D03*
D16*
X169437000Y-62745000D03*
X170087000Y-62745000D03*
X170737000Y-62745000D03*
X171387000Y-62745000D03*
X172037000Y-62745000D03*
D17*
X168274500Y-63105000D03*
X173199500Y-63105000D03*
D18*
X167827000Y-65405000D03*
X173647000Y-65405000D03*
D19*
X169897000Y-65405000D03*
X171577000Y-65405000D03*
D15*
X167259000Y-60452000D03*
X168759000Y-60452000D03*
X171438000Y-60452000D03*
X169938000Y-60452000D03*
D12*
X165100000Y-63805000D03*
X165100000Y-65405000D03*
D14*
X153289000Y-60452000D03*
X151789000Y-60452000D03*
D15*
X151269000Y-51689000D03*
X152769000Y-51689000D03*
X151269000Y-53213000D03*
X152769000Y-53213000D03*
D12*
X149936000Y-53213000D03*
X148336000Y-53213000D03*
D21*
X149035000Y-56007000D03*
X149035000Y-56657000D03*
X149035000Y-57307000D03*
X149035000Y-57957000D03*
D22*
X150060000Y-58982000D03*
X150710000Y-58982000D03*
X151360000Y-58982000D03*
X152010000Y-58982000D03*
D21*
X153035000Y-57957000D03*
X153035000Y-57307000D03*
X153035000Y-56657000D03*
X153035000Y-56007000D03*
D22*
X152010000Y-54982000D03*
X151360000Y-54982000D03*
X150710000Y-54982000D03*
X150060000Y-54982000D03*
D23*
X151660000Y-57607000D03*
X151660000Y-56357000D03*
X150410000Y-57607000D03*
X150410000Y-56357000D03*
D12*
X149898000Y-51689000D03*
X148298000Y-51689000D03*
X143764000Y-63805000D03*
X143764000Y-65405000D03*
D15*
X145923000Y-60452000D03*
X147423000Y-60452000D03*
D16*
X148101000Y-62745000D03*
X148751000Y-62745000D03*
X149401000Y-62745000D03*
X150051000Y-62745000D03*
X150701000Y-62745000D03*
D17*
X146938500Y-63105000D03*
X151863500Y-63105000D03*
D18*
X146491000Y-65405000D03*
X152311000Y-65405000D03*
D19*
X148561000Y-65405000D03*
X150241000Y-65405000D03*
D11*
X143764000Y-62484000D03*
X143764000Y-60984000D03*
D15*
X150102000Y-60452000D03*
X148602000Y-60452000D03*
D14*
X145784000Y-53721000D03*
X144284000Y-53721000D03*
X146788000Y-58801000D03*
X145288000Y-58801000D03*
D20*
X147574000Y-57138000D03*
X147574000Y-55638000D03*
D13*
X145857000Y-55261000D03*
X143957000Y-55261000D03*
X144907000Y-57261000D03*
D14*
X131953000Y-60452000D03*
X130453000Y-60452000D03*
D20*
X126238000Y-57138000D03*
X126238000Y-55638000D03*
D14*
X125452000Y-58801000D03*
X123952000Y-58801000D03*
X124448000Y-53721000D03*
X122948000Y-53721000D03*
D12*
X122428000Y-63805000D03*
X122428000Y-65405000D03*
X128562000Y-51689000D03*
X126962000Y-51689000D03*
X128600000Y-53213000D03*
X127000000Y-53213000D03*
D16*
X126765000Y-62745000D03*
X127415000Y-62745000D03*
X128065000Y-62745000D03*
X128715000Y-62745000D03*
X129365000Y-62745000D03*
D17*
X125602500Y-63105000D03*
X130527500Y-63105000D03*
D18*
X125155000Y-65405000D03*
X130975000Y-65405000D03*
D19*
X127225000Y-65405000D03*
X128905000Y-65405000D03*
D15*
X124587000Y-60452000D03*
X126087000Y-60452000D03*
X128766000Y-60452000D03*
X127266000Y-60452000D03*
D11*
X122428000Y-62484000D03*
X122428000Y-60984000D03*
D15*
X129933000Y-51689000D03*
X131433000Y-51689000D03*
X129933000Y-53213000D03*
X131433000Y-53213000D03*
D21*
X127699000Y-56007000D03*
X127699000Y-56657000D03*
X127699000Y-57307000D03*
X127699000Y-57957000D03*
D22*
X128724000Y-58982000D03*
X129374000Y-58982000D03*
X130024000Y-58982000D03*
X130674000Y-58982000D03*
D21*
X131699000Y-57957000D03*
X131699000Y-57307000D03*
X131699000Y-56657000D03*
X131699000Y-56007000D03*
D22*
X130674000Y-54982000D03*
X130024000Y-54982000D03*
X129374000Y-54982000D03*
X128724000Y-54982000D03*
D23*
X130324000Y-57607000D03*
X130324000Y-56357000D03*
X129074000Y-57607000D03*
X129074000Y-56357000D03*
D13*
X124521000Y-55261000D03*
X122621000Y-55261000D03*
X123571000Y-57261000D03*
M02*
